G04 #@! TF.GenerationSoftware,KiCad,Pcbnew,7.0.6*
G04 #@! TF.CreationDate,2023-10-28T16:57:55-05:00*
G04 #@! TF.ProjectId,FC,46432e6b-6963-4616-945f-706362585858,V1*
G04 #@! TF.SameCoordinates,Original*
G04 #@! TF.FileFunction,Copper,L4,Bot*
G04 #@! TF.FilePolarity,Positive*
%FSLAX46Y46*%
G04 Gerber Fmt 4.6, Leading zero omitted, Abs format (unit mm)*
G04 Created by KiCad (PCBNEW 7.0.6) date 2023-10-28 16:57:55*
%MOMM*%
%LPD*%
G01*
G04 APERTURE LIST*
G04 Aperture macros list*
%AMRoundRect*
0 Rectangle with rounded corners*
0 $1 Rounding radius*
0 $2 $3 $4 $5 $6 $7 $8 $9 X,Y pos of 4 corners*
0 Add a 4 corners polygon primitive as box body*
4,1,4,$2,$3,$4,$5,$6,$7,$8,$9,$2,$3,0*
0 Add four circle primitives for the rounded corners*
1,1,$1+$1,$2,$3*
1,1,$1+$1,$4,$5*
1,1,$1+$1,$6,$7*
1,1,$1+$1,$8,$9*
0 Add four rect primitives between the rounded corners*
20,1,$1+$1,$2,$3,$4,$5,0*
20,1,$1+$1,$4,$5,$6,$7,0*
20,1,$1+$1,$6,$7,$8,$9,0*
20,1,$1+$1,$8,$9,$2,$3,0*%
G04 Aperture macros list end*
G04 #@! TA.AperFunction,ComponentPad*
%ADD10O,1.900000X1.000000*%
G04 #@! TD*
G04 #@! TA.AperFunction,ComponentPad*
%ADD11O,1.250000X1.050000*%
G04 #@! TD*
G04 #@! TA.AperFunction,ComponentPad*
%ADD12R,2.100000X2.100000*%
G04 #@! TD*
G04 #@! TA.AperFunction,ComponentPad*
%ADD13C,2.100000*%
G04 #@! TD*
G04 #@! TA.AperFunction,SMDPad,CuDef*
%ADD14R,1.600000X4.900000*%
G04 #@! TD*
G04 #@! TA.AperFunction,ComponentPad*
%ADD15C,3.600000*%
G04 #@! TD*
G04 #@! TA.AperFunction,ConnectorPad*
%ADD16C,5.600000*%
G04 #@! TD*
G04 #@! TA.AperFunction,ComponentPad*
%ADD17C,1.400000*%
G04 #@! TD*
G04 #@! TA.AperFunction,ComponentPad*
%ADD18R,3.500000X3.500000*%
G04 #@! TD*
G04 #@! TA.AperFunction,ComponentPad*
%ADD19C,3.500000*%
G04 #@! TD*
G04 #@! TA.AperFunction,SMDPad,CuDef*
%ADD20R,5.600000X1.500000*%
G04 #@! TD*
G04 #@! TA.AperFunction,SMDPad,CuDef*
%ADD21R,4.900000X1.600000*%
G04 #@! TD*
G04 #@! TA.AperFunction,SMDPad,CuDef*
%ADD22RoundRect,0.200000X0.275000X-0.200000X0.275000X0.200000X-0.275000X0.200000X-0.275000X-0.200000X0*%
G04 #@! TD*
G04 #@! TA.AperFunction,SMDPad,CuDef*
%ADD23R,3.000000X6.000000*%
G04 #@! TD*
G04 #@! TA.AperFunction,SMDPad,CuDef*
%ADD24R,2.000000X1.500000*%
G04 #@! TD*
G04 #@! TA.AperFunction,ViaPad*
%ADD25C,0.700000*%
G04 #@! TD*
G04 #@! TA.AperFunction,ViaPad*
%ADD26C,0.500000*%
G04 #@! TD*
G04 #@! TA.AperFunction,Conductor*
%ADD27C,0.500000*%
G04 #@! TD*
G04 #@! TA.AperFunction,Conductor*
%ADD28C,0.349300*%
G04 #@! TD*
G04 #@! TA.AperFunction,Conductor*
%ADD29C,0.270000*%
G04 #@! TD*
G04 #@! TA.AperFunction,Conductor*
%ADD30C,0.250000*%
G04 #@! TD*
G04 APERTURE END LIST*
D10*
X160500000Y-111550000D03*
D11*
X163500000Y-113500000D03*
X163500000Y-117950000D03*
D10*
X160500000Y-119900000D03*
D12*
X175455000Y-160450000D03*
D13*
X177995000Y-160450000D03*
X180535000Y-160450000D03*
X183075000Y-160450000D03*
D14*
X182268891Y-77441954D03*
X173748891Y-77441954D03*
D15*
X190775000Y-81350000D03*
D16*
X190775000Y-81350000D03*
D15*
X165375000Y-157550000D03*
D16*
X165375000Y-157550000D03*
D12*
X161875000Y-148450000D03*
D13*
X161875000Y-150990000D03*
D15*
X165375000Y-81350000D03*
D16*
X165375000Y-81350000D03*
D15*
X190775000Y-157550000D03*
D16*
X190775000Y-157550000D03*
D17*
X160850000Y-143812500D03*
X160850000Y-132812500D03*
D18*
X170850000Y-135812500D03*
D19*
X170850000Y-140812500D03*
D20*
X194300000Y-92315000D03*
D21*
X194650000Y-88055000D03*
X194650000Y-96575000D03*
D22*
X189950000Y-100000000D03*
X189950000Y-98350000D03*
X189950000Y-96400000D03*
X189950000Y-94750000D03*
D23*
X190700000Y-134950000D03*
X178700000Y-134950000D03*
D24*
X187700000Y-92275000D03*
X187700000Y-94275000D03*
X187700000Y-96275000D03*
X187700000Y-98275000D03*
X187700000Y-100275000D03*
X187700000Y-102275000D03*
X187700000Y-104275000D03*
X187700000Y-106275000D03*
X171700000Y-106275000D03*
X171700000Y-104275000D03*
X171700000Y-102275000D03*
X171700000Y-100275000D03*
X171700000Y-98275000D03*
X171700000Y-96275000D03*
X171700000Y-94275000D03*
X171700000Y-92275000D03*
D25*
X185100000Y-76850000D03*
X187100000Y-76850000D03*
X191100000Y-76850000D03*
X169100000Y-80850000D03*
X175100000Y-134850000D03*
X175300000Y-130850000D03*
X193600000Y-124250000D03*
X169275000Y-130750000D03*
X179950000Y-98500000D03*
X167100000Y-110850000D03*
X181602048Y-109252586D03*
X160900000Y-107550000D03*
X174100000Y-149150000D03*
X195100000Y-84850000D03*
X161100000Y-134850000D03*
X194875000Y-103850000D03*
X169675000Y-159496875D03*
X162375000Y-122325000D03*
X170600000Y-109150000D03*
X194700000Y-90150000D03*
X187100000Y-158850000D03*
X175100000Y-86850000D03*
X181100000Y-80850000D03*
X161100000Y-80850000D03*
X161100000Y-156850000D03*
X169100000Y-160850000D03*
X165100000Y-76850000D03*
X187100000Y-80850000D03*
X169100000Y-82850000D03*
X177100000Y-88850000D03*
X177100000Y-90850000D03*
X175100000Y-90850000D03*
X175700000Y-109550000D03*
X175100000Y-136850000D03*
X163100000Y-108850000D03*
X190100000Y-90150000D03*
X191275000Y-150750000D03*
X161150000Y-93425000D03*
X193675000Y-114950000D03*
X189100000Y-138850000D03*
X194600000Y-86550000D03*
X185100000Y-78850000D03*
X162175000Y-127850000D03*
X191975000Y-108450000D03*
X171100000Y-78850000D03*
X165100000Y-110850000D03*
X161100000Y-84850000D03*
X181100000Y-86850000D03*
X182100000Y-130150000D03*
X171100000Y-76850000D03*
X187100000Y-82850000D03*
X165200000Y-93475000D03*
X187175000Y-149550000D03*
X179100000Y-88850000D03*
X193100000Y-84850000D03*
X186125000Y-84825000D03*
X195100000Y-160850000D03*
X181100000Y-88850000D03*
X181600000Y-99850000D03*
X195100000Y-100850000D03*
X175900000Y-121850000D03*
X187100000Y-156850000D03*
X165975000Y-125950000D03*
X195100000Y-156850000D03*
X163100000Y-110850000D03*
X193100000Y-76850000D03*
X169100000Y-110850000D03*
X187100000Y-160850000D03*
X169850000Y-106275000D03*
X186975000Y-145012500D03*
X173100000Y-88850000D03*
X185100000Y-82850000D03*
X187175000Y-152250000D03*
X193100000Y-100850000D03*
X185100000Y-80850000D03*
X188800000Y-124325000D03*
X174421984Y-81511327D03*
X169850000Y-92275000D03*
X161100000Y-160850000D03*
X167100000Y-84850000D03*
X187175000Y-150450000D03*
X194600000Y-98050000D03*
X175100000Y-118850000D03*
X191050000Y-94675000D03*
X172300000Y-77450000D03*
X179175000Y-86650000D03*
X164175000Y-119550000D03*
X161100000Y-78850000D03*
X195100000Y-76850000D03*
X191275000Y-153450000D03*
X161100000Y-140850000D03*
X164100000Y-114425000D03*
X187100000Y-78850000D03*
X181100000Y-82850000D03*
X195100000Y-111350000D03*
X181100000Y-84850000D03*
X183600000Y-135450000D03*
X183075000Y-127550000D03*
X194300000Y-94150000D03*
X177900000Y-99441954D03*
X195100000Y-78850000D03*
X191100000Y-84850000D03*
X169100000Y-78850000D03*
X187875000Y-127450000D03*
X187175000Y-153150000D03*
X163100000Y-84850000D03*
X179100000Y-90850000D03*
X195100000Y-158850000D03*
X194875000Y-105250000D03*
X169100000Y-76850000D03*
X161100000Y-82850000D03*
X161100000Y-76850000D03*
X168100000Y-136850000D03*
X187100000Y-136850000D03*
X162525000Y-98150000D03*
X165100000Y-108850000D03*
X169575000Y-94550000D03*
X168800000Y-112408363D03*
X161100000Y-154850000D03*
X168100000Y-134850000D03*
X183700000Y-77450000D03*
X187100000Y-138850000D03*
X176875000Y-86650000D03*
X173475000Y-130250000D03*
X187175000Y-151350000D03*
X161100000Y-138850000D03*
X195100000Y-98850000D03*
X171100000Y-88850000D03*
X171100000Y-80850000D03*
X169100000Y-118125000D03*
X189100000Y-84850000D03*
X167100000Y-76850000D03*
X163100000Y-76850000D03*
X193600000Y-122750000D03*
X162900000Y-86100000D03*
X189100000Y-76850000D03*
X161100000Y-136850000D03*
X161100000Y-158850000D03*
X193100000Y-98850000D03*
X169675000Y-157796875D03*
X175100000Y-88850000D03*
X195100000Y-116250000D03*
X194875000Y-106950000D03*
X191050000Y-96475000D03*
X172025000Y-128675000D03*
X164600000Y-107550000D03*
X165650000Y-99100000D03*
X164200000Y-98175000D03*
X189875000Y-102150000D03*
X194875000Y-102150000D03*
X193575000Y-108450000D03*
X168200000Y-118625000D03*
X191675000Y-142912500D03*
X191150000Y-99975000D03*
X192275000Y-122650000D03*
X191675000Y-141812500D03*
X164550000Y-86050000D03*
X189975000Y-108750000D03*
X192927901Y-121225000D03*
X190675000Y-145012500D03*
X168475000Y-125950000D03*
X173500000Y-104950000D03*
X184575000Y-84850000D03*
X164550000Y-99950000D03*
X187775000Y-84825000D03*
X183249879Y-109225614D03*
X191675000Y-145012500D03*
X180000000Y-96900000D03*
X175100000Y-116850000D03*
X191675000Y-143912500D03*
X165700000Y-92400000D03*
X191975000Y-114950000D03*
X181075000Y-117750000D03*
X172975000Y-155750000D03*
X167100000Y-120550000D03*
X182275000Y-131450000D03*
X174575000Y-132550000D03*
X193275000Y-130250000D03*
X179675000Y-117550000D03*
X174375000Y-123250000D03*
X160685000Y-122325000D03*
D26*
X174800000Y-102150000D03*
X169150000Y-100650000D03*
D25*
X171375000Y-123050000D03*
D26*
X184375000Y-103550000D03*
X182375000Y-101450000D03*
X186175000Y-106850000D03*
X184675000Y-106850000D03*
D25*
X171475000Y-121450000D03*
D26*
X175800000Y-103950000D03*
D25*
X169175000Y-103050000D03*
D26*
X183875000Y-105650000D03*
X183675000Y-103950000D03*
X182475000Y-102650000D03*
X186175000Y-105650000D03*
D25*
X174400000Y-122150000D03*
D26*
X176900000Y-103050000D03*
D25*
X168775000Y-105650000D03*
X167275000Y-125950000D03*
D26*
X173350000Y-126750000D03*
X166000000Y-122900000D03*
D25*
X190700000Y-115650000D03*
X182975000Y-117250000D03*
X191675000Y-127450000D03*
X182975000Y-118950000D03*
X186975000Y-127550000D03*
D26*
X185900000Y-111650000D03*
X187600000Y-109950000D03*
X182600000Y-105700000D03*
X186200000Y-103800000D03*
X179900000Y-101200000D03*
X180500000Y-105550000D03*
X179700000Y-105400000D03*
X170650000Y-108200000D03*
X161900000Y-100900000D03*
X174450000Y-98800000D03*
X177350000Y-121650000D03*
X166200000Y-95250000D03*
X174600000Y-97650000D03*
X168450000Y-95300000D03*
X178150000Y-121650000D03*
X192000000Y-107050000D03*
X180300000Y-122350000D03*
X193300000Y-112050000D03*
X181900000Y-123450000D03*
X174900000Y-115550000D03*
X179000000Y-116150000D03*
X176600000Y-114750000D03*
X179200000Y-114850000D03*
X178900000Y-106850000D03*
X173400000Y-106100000D03*
X169150000Y-107450000D03*
X165350000Y-103600000D03*
D25*
X183275000Y-150150000D03*
X187775000Y-132550000D03*
X183075000Y-132650000D03*
X183275000Y-152750000D03*
X175100000Y-139850000D03*
X173100000Y-139850000D03*
X168100000Y-141850000D03*
X173100000Y-141850000D03*
X168100000Y-139850000D03*
X170975000Y-153450000D03*
X165700000Y-144650000D03*
X167475000Y-153450000D03*
D27*
X171700000Y-106275000D02*
X169850000Y-106275000D01*
X171700000Y-92275000D02*
X169850000Y-92275000D01*
X191050000Y-94675000D02*
X190025000Y-94675000D01*
X189950000Y-94750000D02*
X188175000Y-94750000D01*
X191050000Y-96475000D02*
X190025000Y-96475000D01*
X191150000Y-99975000D02*
X189975000Y-99975000D01*
X189950000Y-96400000D02*
X187825000Y-96400000D01*
X181075000Y-147650000D02*
X181075000Y-117750000D01*
X172975000Y-155750000D02*
X181075000Y-147650000D01*
X183475000Y-130250000D02*
X182275000Y-131450000D01*
X193275000Y-130250000D02*
X183475000Y-130250000D01*
X163450000Y-127200000D02*
X168800000Y-132550000D01*
X164200000Y-121750000D02*
X163450000Y-122500000D01*
X163450000Y-122500000D02*
X163450000Y-127200000D01*
X168800000Y-132550000D02*
X174575000Y-132550000D01*
X167100000Y-120550000D02*
X165900000Y-121750000D01*
X165900000Y-121750000D02*
X164200000Y-121750000D01*
X179675000Y-121525000D02*
X179675000Y-117550000D01*
X177950000Y-123250000D02*
X179675000Y-121525000D01*
X174375000Y-123250000D02*
X177950000Y-123250000D01*
X163275000Y-132650000D02*
X160675000Y-130050000D01*
X160675000Y-130050000D02*
X160675000Y-122335000D01*
X163275000Y-147050000D02*
X161875000Y-148450000D01*
X163275000Y-147050000D02*
X163275000Y-132650000D01*
X160675000Y-122335000D02*
X160685000Y-122325000D01*
D28*
X188750000Y-92275000D02*
X191650000Y-92275000D01*
D29*
X184375000Y-103450000D02*
X182375000Y-101450000D01*
D27*
X171800000Y-119150000D02*
X170400000Y-120550000D01*
D30*
X170025000Y-98275000D02*
X171700000Y-98275000D01*
X169150000Y-99150000D02*
X170025000Y-98275000D01*
X169150000Y-100650000D02*
X169150000Y-99150000D01*
D27*
X171200000Y-123050000D02*
X171375000Y-123050000D01*
D29*
X184375000Y-103550000D02*
X184375000Y-103450000D01*
D27*
X171800000Y-108850000D02*
X171800000Y-119150000D01*
X174800000Y-105850000D02*
X171800000Y-108850000D01*
X170400000Y-122250000D02*
X171200000Y-123050000D01*
X170400000Y-120550000D02*
X170400000Y-122250000D01*
D30*
X186175000Y-106850000D02*
X184675000Y-106850000D01*
D27*
X174800000Y-102150000D02*
X174800000Y-105850000D01*
D30*
X173925000Y-100275000D02*
X171700000Y-100275000D01*
X175800000Y-103950000D02*
X175800000Y-102150000D01*
D27*
X172900000Y-109250000D02*
X172900000Y-119650000D01*
D30*
X175800000Y-102150000D02*
X173925000Y-100275000D01*
D27*
X172900000Y-119650000D02*
X171475000Y-121075000D01*
X175800000Y-103950000D02*
X175800000Y-106350000D01*
X171475000Y-121075000D02*
X171475000Y-121450000D01*
X175800000Y-106350000D02*
X172900000Y-109250000D01*
D29*
X183675000Y-103950000D02*
X183675000Y-103850000D01*
D27*
X167875000Y-126850000D02*
X169275000Y-126850000D01*
X169175000Y-103050000D02*
X169175000Y-105250000D01*
X167275000Y-126250000D02*
X167875000Y-126850000D01*
D30*
X173075000Y-96275000D02*
X171700000Y-96275000D01*
D27*
X167275000Y-125950000D02*
X167275000Y-126250000D01*
X174025000Y-122150000D02*
X174000000Y-122125000D01*
D30*
X176900000Y-103050000D02*
X176900000Y-102200000D01*
D27*
X174400000Y-122150000D02*
X174025000Y-122150000D01*
X176900000Y-103050000D02*
X176900000Y-106850000D01*
D29*
X183675000Y-103850000D02*
X182475000Y-102650000D01*
D27*
X169175000Y-105250000D02*
X168775000Y-105650000D01*
X176900000Y-106850000D02*
X174000000Y-109750000D01*
X174000000Y-109750000D02*
X174000000Y-122125000D01*
D30*
X173600000Y-98900000D02*
X173600000Y-96800000D01*
X186175000Y-105650000D02*
X183875000Y-105650000D01*
D27*
X169275000Y-126850000D02*
X173875000Y-122250000D01*
D30*
X173600000Y-96800000D02*
X173075000Y-96275000D01*
D27*
X174000000Y-122125000D02*
X173875000Y-122250000D01*
D30*
X176900000Y-102200000D02*
X173600000Y-98900000D01*
X166600000Y-123150000D02*
X166350000Y-122900000D01*
X173350000Y-126750000D02*
X172200000Y-126750000D01*
X166600000Y-127500000D02*
X166600000Y-123150000D01*
X167200000Y-128100000D02*
X166600000Y-127500000D01*
X166350000Y-122900000D02*
X166000000Y-122900000D01*
X172200000Y-126750000D02*
X170850000Y-128100000D01*
X170850000Y-128100000D02*
X167200000Y-128100000D01*
D27*
X192600000Y-116250000D02*
X191300000Y-116250000D01*
X191300000Y-116250000D02*
X190700000Y-115650000D01*
X192700000Y-134950000D02*
X194900000Y-132750000D01*
X194900000Y-132750000D02*
X194900000Y-118550000D01*
X190700000Y-134950000D02*
X192700000Y-134950000D01*
X194900000Y-118550000D02*
X192600000Y-116250000D01*
X182975000Y-117250000D02*
X191675000Y-125950000D01*
X191675000Y-125950000D02*
X191675000Y-127450000D01*
X182975000Y-118950000D02*
X182975000Y-119650000D01*
X182975000Y-119650000D02*
X186975000Y-123650000D01*
X186975000Y-123650000D02*
X186975000Y-127550000D01*
D30*
X185900000Y-111650000D02*
X187600000Y-109950000D01*
X183200000Y-105100000D02*
X182600000Y-105700000D01*
X186200000Y-103800000D02*
X184900000Y-105100000D01*
X184900000Y-105100000D02*
X183200000Y-105100000D01*
X179900000Y-101200000D02*
X179900000Y-104650000D01*
X179900000Y-104650000D02*
X180500000Y-105250000D01*
X180500000Y-105250000D02*
X180500000Y-105550000D01*
X175800000Y-97600000D02*
X175800000Y-98500000D01*
X178800000Y-104500000D02*
X179700000Y-105400000D01*
X172475000Y-94275000D02*
X175800000Y-97600000D01*
X178800000Y-101500000D02*
X178800000Y-104500000D01*
X175800000Y-98500000D02*
X178800000Y-101500000D01*
D27*
X189950000Y-98350000D02*
X187775000Y-98350000D01*
D30*
X163900000Y-105200000D02*
X166900000Y-108200000D01*
X166900000Y-108200000D02*
X170650000Y-108200000D01*
X161900000Y-100900000D02*
X163150000Y-100900000D01*
X163150000Y-100900000D02*
X163900000Y-101650000D01*
X163900000Y-101650000D02*
X163900000Y-105200000D01*
X174450000Y-98800000D02*
X177650000Y-102000000D01*
X177650000Y-111300000D02*
X177650000Y-102000000D01*
X177350000Y-111600000D02*
X177650000Y-111300000D01*
X177350000Y-121650000D02*
X177350000Y-111600000D01*
X166250000Y-95300000D02*
X166200000Y-95250000D01*
X178300000Y-111650000D02*
X178300000Y-101750000D01*
X178300000Y-101750000D02*
X174600000Y-98050000D01*
X178150000Y-121650000D02*
X178150000Y-111800000D01*
X178150000Y-111800000D02*
X178300000Y-111650000D01*
X174600000Y-98050000D02*
X174600000Y-97650000D01*
X168450000Y-95300000D02*
X166250000Y-95300000D01*
X180300000Y-122350000D02*
X180300000Y-120550000D01*
X190900000Y-111050000D02*
X190900000Y-107750000D01*
X180400000Y-120450000D02*
X180400000Y-117450000D01*
X190900000Y-107750000D02*
X191600000Y-107050000D01*
X191600000Y-107050000D02*
X192000000Y-107050000D01*
X184900000Y-112950000D02*
X189000000Y-112950000D01*
X180300000Y-120550000D02*
X180400000Y-120450000D01*
X180400000Y-117450000D02*
X184900000Y-112950000D01*
X189000000Y-112950000D02*
X190900000Y-111050000D01*
X185300000Y-113750000D02*
X191600000Y-113750000D01*
X181900000Y-123450000D02*
X181900000Y-117150000D01*
X181900000Y-117150000D02*
X185300000Y-113750000D01*
X191600000Y-113750000D02*
X193300000Y-112050000D01*
X182700000Y-104550000D02*
X180100000Y-107150000D01*
X184600000Y-104550000D02*
X182700000Y-104550000D01*
X175700000Y-114750000D02*
X174900000Y-115550000D01*
X179800000Y-116150000D02*
X179000000Y-116150000D01*
X180100000Y-107150000D02*
X180100000Y-115850000D01*
X176600000Y-114750000D02*
X175700000Y-114750000D01*
X187700000Y-102275000D02*
X186075000Y-102275000D01*
X185300000Y-103850000D02*
X184600000Y-104550000D01*
X180100000Y-115850000D02*
X179800000Y-116150000D01*
X186075000Y-102275000D02*
X185300000Y-103050000D01*
X185300000Y-103050000D02*
X185300000Y-103850000D01*
X179200000Y-107150000D02*
X178900000Y-106850000D01*
X173400000Y-106100000D02*
X173400000Y-105700000D01*
X173400000Y-105700000D02*
X171975000Y-104275000D01*
X179200000Y-114850000D02*
X179200000Y-107150000D01*
X164900000Y-104050000D02*
X164900000Y-105550000D01*
X166800000Y-107450000D02*
X169150000Y-107450000D01*
X164900000Y-105550000D02*
X166800000Y-107450000D01*
X165350000Y-103600000D02*
X164900000Y-104050000D01*
D27*
X184975000Y-148450000D02*
X184975000Y-134550000D01*
X186975000Y-132550000D02*
X187775000Y-132550000D01*
X183275000Y-150150000D02*
X184975000Y-148450000D01*
X184975000Y-134550000D02*
X186975000Y-132550000D01*
X183075000Y-132650000D02*
X182475000Y-132650000D01*
X182175000Y-132950000D02*
X182175000Y-151650000D01*
X182475000Y-132650000D02*
X182175000Y-132950000D01*
X182175000Y-151650000D02*
X183275000Y-152750000D01*
X161875000Y-150990000D02*
X163360000Y-150990000D01*
X163360000Y-150990000D02*
X165700000Y-148650000D01*
X167475000Y-153450000D02*
X170975000Y-153450000D01*
X165700000Y-148650000D02*
X165700000Y-144650000D01*
G04 #@! TA.AperFunction,Conductor*
G36*
X174778032Y-138612799D02*
G01*
X174839067Y-138618810D01*
X174957941Y-138630518D01*
X174981769Y-138635257D01*
X175146001Y-138685076D01*
X175168453Y-138694377D01*
X175319798Y-138775272D01*
X175340010Y-138788777D01*
X175472666Y-138897645D01*
X175489854Y-138914833D01*
X175598722Y-139047489D01*
X175612227Y-139067701D01*
X175693121Y-139219043D01*
X175702424Y-139241501D01*
X175752240Y-139405724D01*
X175756982Y-139429565D01*
X175774701Y-139609467D01*
X175775000Y-139615548D01*
X175775000Y-142009451D01*
X175774701Y-142015532D01*
X175756982Y-142195434D01*
X175752240Y-142219275D01*
X175702424Y-142383498D01*
X175693121Y-142405956D01*
X175612227Y-142557298D01*
X175598722Y-142577510D01*
X175489854Y-142710166D01*
X175472666Y-142727354D01*
X175340010Y-142836222D01*
X175319798Y-142849727D01*
X175168456Y-142930621D01*
X175145998Y-142939924D01*
X174981775Y-142989740D01*
X174957934Y-142994482D01*
X174778032Y-143012201D01*
X174771951Y-143012500D01*
X167778049Y-143012500D01*
X167771968Y-143012201D01*
X167592065Y-142994482D01*
X167568224Y-142989740D01*
X167404001Y-142939924D01*
X167381543Y-142930621D01*
X167230201Y-142849727D01*
X167209989Y-142836222D01*
X167077333Y-142727354D01*
X167060145Y-142710166D01*
X166951277Y-142577510D01*
X166937772Y-142557298D01*
X166856878Y-142405956D01*
X166847575Y-142383498D01*
X166797757Y-142219269D01*
X166793018Y-142195441D01*
X166775299Y-142015532D01*
X166775000Y-142009451D01*
X166775000Y-139615548D01*
X166775299Y-139609467D01*
X166779706Y-139564713D01*
X166793018Y-139429556D01*
X166797757Y-139405732D01*
X166847577Y-139241494D01*
X166856875Y-139219049D01*
X166937775Y-139067695D01*
X166951272Y-139047495D01*
X167060149Y-138914828D01*
X167077328Y-138897649D01*
X167209995Y-138788772D01*
X167230195Y-138775275D01*
X167381549Y-138694375D01*
X167403994Y-138685077D01*
X167568232Y-138635257D01*
X167592056Y-138630518D01*
X167706501Y-138619246D01*
X167771969Y-138612799D01*
X167778049Y-138612500D01*
X174771951Y-138612500D01*
X174778032Y-138612799D01*
G37*
G04 #@! TD.AperFunction*
G04 #@! TA.AperFunction,Conductor*
G36*
X188213707Y-91551463D02*
G01*
X188403038Y-91584770D01*
X188403775Y-91584950D01*
X188608142Y-91649177D01*
X188608753Y-91649407D01*
X188784328Y-91727454D01*
X188784636Y-91727603D01*
X188946002Y-91812675D01*
X189107522Y-91897826D01*
X189283550Y-91976074D01*
X189488592Y-92040513D01*
X189661379Y-92070909D01*
X189737149Y-92084239D01*
X189737150Y-92084239D01*
X189737156Y-92084240D01*
X190000045Y-92098053D01*
X190043748Y-92100350D01*
X190043750Y-92100350D01*
X190061646Y-92100350D01*
X190069919Y-92103777D01*
X190072689Y-92108185D01*
X190129722Y-92271135D01*
X190129722Y-92278865D01*
X190072689Y-92441815D01*
X190066722Y-92448492D01*
X190061646Y-92449650D01*
X190043748Y-92449650D01*
X189737149Y-92465759D01*
X189488595Y-92509485D01*
X189283543Y-92573927D01*
X189148150Y-92634112D01*
X189107522Y-92652173D01*
X188946001Y-92737324D01*
X188946002Y-92737325D01*
X188784649Y-92822388D01*
X188784304Y-92822555D01*
X188676113Y-92870648D01*
X188608765Y-92900586D01*
X188608142Y-92900821D01*
X188403775Y-92965048D01*
X188403034Y-92965229D01*
X188213727Y-92998532D01*
X188204985Y-92996590D01*
X188200177Y-92989036D01*
X188200000Y-92987009D01*
X188200000Y-91562988D01*
X188203427Y-91554715D01*
X188211700Y-91551288D01*
X188213707Y-91551463D01*
G37*
G04 #@! TD.AperFunction*
G04 #@! TA.AperFunction,Conductor*
G36*
X194062693Y-130754561D02*
G01*
X194120742Y-130793448D01*
X194148552Y-130857544D01*
X194149500Y-130872852D01*
X194149500Y-132387769D01*
X194129815Y-132454808D01*
X194113181Y-132475450D01*
X192912180Y-133676451D01*
X192850857Y-133709936D01*
X192781165Y-133704952D01*
X192725232Y-133663080D01*
X192700815Y-133597616D01*
X192700499Y-133588770D01*
X192700499Y-131902129D01*
X192700498Y-131902123D01*
X192700497Y-131902116D01*
X192694091Y-131842517D01*
X192693536Y-131841030D01*
X192643797Y-131707671D01*
X192643793Y-131707664D01*
X192557547Y-131592455D01*
X192557544Y-131592452D01*
X192442335Y-131506206D01*
X192442328Y-131506202D01*
X192307482Y-131455908D01*
X192307483Y-131455908D01*
X192247883Y-131449501D01*
X192247881Y-131449500D01*
X192247873Y-131449500D01*
X192247864Y-131449500D01*
X189152129Y-131449500D01*
X189152123Y-131449501D01*
X189092516Y-131455908D01*
X188957671Y-131506202D01*
X188957664Y-131506206D01*
X188842455Y-131592452D01*
X188842452Y-131592455D01*
X188756206Y-131707664D01*
X188756202Y-131707671D01*
X188705908Y-131842517D01*
X188699501Y-131902116D01*
X188699501Y-131902123D01*
X188699500Y-131902135D01*
X188699500Y-131987506D01*
X188679815Y-132054545D01*
X188627011Y-132100300D01*
X188557853Y-132110244D01*
X188494297Y-132081219D01*
X188468114Y-132049509D01*
X188466859Y-132047335D01*
X188448565Y-132027017D01*
X188347235Y-131914478D01*
X188347232Y-131914476D01*
X188347231Y-131914475D01*
X188347230Y-131914474D01*
X188202593Y-131809388D01*
X188039267Y-131736671D01*
X188039265Y-131736670D01*
X187911594Y-131709533D01*
X187864391Y-131699500D01*
X187685609Y-131699500D01*
X187654954Y-131706015D01*
X187510733Y-131736670D01*
X187393694Y-131788780D01*
X187343259Y-131799500D01*
X187038705Y-131799500D01*
X187020735Y-131798191D01*
X186996972Y-131794710D01*
X186951890Y-131798655D01*
X186944933Y-131799264D01*
X186939532Y-131799500D01*
X186931287Y-131799500D01*
X186905222Y-131802546D01*
X186898705Y-131803308D01*
X186893403Y-131803771D01*
X186822201Y-131810001D01*
X186815134Y-131811461D01*
X186815122Y-131811404D01*
X186807753Y-131813038D01*
X186807767Y-131813095D01*
X186800739Y-131814760D01*
X186745536Y-131834852D01*
X186728563Y-131841030D01*
X186655666Y-131865186D01*
X186655664Y-131865186D01*
X186655661Y-131865188D01*
X186649122Y-131868237D01*
X186649097Y-131868185D01*
X186642308Y-131871471D01*
X186642334Y-131871522D01*
X186635884Y-131874761D01*
X186571716Y-131916964D01*
X186506347Y-131957285D01*
X186500677Y-131961769D01*
X186500641Y-131961723D01*
X186494798Y-131966484D01*
X186494835Y-131966528D01*
X186489310Y-131971164D01*
X186489304Y-131971169D01*
X186489304Y-131971170D01*
X186448448Y-132014474D01*
X186436614Y-132027017D01*
X184489358Y-133974272D01*
X184475729Y-133986051D01*
X184456468Y-134000390D01*
X184422898Y-134040397D01*
X184419253Y-134044376D01*
X184413409Y-134050222D01*
X184393059Y-134075959D01*
X184343695Y-134134789D01*
X184339729Y-134140819D01*
X184339682Y-134140788D01*
X184335630Y-134147147D01*
X184335679Y-134147177D01*
X184331889Y-134153321D01*
X184299424Y-134222941D01*
X184264960Y-134291566D01*
X184262488Y-134298357D01*
X184262432Y-134298336D01*
X184259960Y-134305450D01*
X184260015Y-134305469D01*
X184257742Y-134312327D01*
X184249975Y-134349945D01*
X184242207Y-134387565D01*
X184229001Y-134443284D01*
X184224498Y-134462286D01*
X184223661Y-134469454D01*
X184223601Y-134469447D01*
X184222835Y-134476945D01*
X184222895Y-134476951D01*
X184222265Y-134484140D01*
X184224500Y-134560916D01*
X184224500Y-148087769D01*
X184204815Y-148154808D01*
X184188181Y-148175450D01*
X183137181Y-149226450D01*
X183075858Y-149259935D01*
X183006166Y-149254951D01*
X182950233Y-149213079D01*
X182925816Y-149147615D01*
X182925500Y-149138769D01*
X182925500Y-133624500D01*
X182945185Y-133557461D01*
X182997989Y-133511706D01*
X183049500Y-133500500D01*
X183164389Y-133500500D01*
X183164391Y-133500500D01*
X183339267Y-133463329D01*
X183502593Y-133390612D01*
X183647230Y-133285526D01*
X183665725Y-133264986D01*
X183680998Y-133248023D01*
X183766859Y-133152665D01*
X183856250Y-132997835D01*
X183911497Y-132827803D01*
X183930185Y-132650000D01*
X183911497Y-132472197D01*
X183865512Y-132330670D01*
X183856252Y-132302170D01*
X183856249Y-132302164D01*
X183766859Y-132147335D01*
X183707328Y-132081219D01*
X183647235Y-132014478D01*
X183647232Y-132014476D01*
X183647231Y-132014475D01*
X183647230Y-132014474D01*
X183502593Y-131909388D01*
X183339267Y-131836671D01*
X183339265Y-131836670D01*
X183241373Y-131815863D01*
X183179891Y-131782671D01*
X183146115Y-131721508D01*
X183150767Y-131651793D01*
X183179470Y-131606895D01*
X183749547Y-131036819D01*
X183810871Y-131003334D01*
X183837229Y-131000500D01*
X192843259Y-131000500D01*
X192893693Y-131011219D01*
X193010733Y-131063329D01*
X193185609Y-131100500D01*
X193185610Y-131100500D01*
X193364389Y-131100500D01*
X193364391Y-131100500D01*
X193539267Y-131063329D01*
X193702593Y-130990612D01*
X193847230Y-130885526D01*
X193891617Y-130836230D01*
X193898025Y-130829112D01*
X193933350Y-130789879D01*
X193992836Y-130753231D01*
X194062693Y-130754561D01*
G37*
G04 #@! TD.AperFunction*
G04 #@! TA.AperFunction,Conductor*
G36*
X191176880Y-114395185D02*
G01*
X191222635Y-114447989D01*
X191232579Y-114517147D01*
X191217228Y-114561500D01*
X191193750Y-114602164D01*
X191193747Y-114602171D01*
X191140738Y-114765317D01*
X191101300Y-114822993D01*
X191036942Y-114850191D01*
X190972378Y-114840281D01*
X190964274Y-114836673D01*
X190964265Y-114836670D01*
X190836594Y-114809533D01*
X190789391Y-114799500D01*
X190610609Y-114799500D01*
X190579954Y-114806015D01*
X190435733Y-114836670D01*
X190435728Y-114836672D01*
X190272408Y-114909387D01*
X190127768Y-115014475D01*
X190008140Y-115147336D01*
X189918750Y-115302164D01*
X189918747Y-115302170D01*
X189863504Y-115472192D01*
X189863503Y-115472194D01*
X189844815Y-115649999D01*
X189863503Y-115827805D01*
X189863504Y-115827807D01*
X189918747Y-115997829D01*
X189918750Y-115997835D01*
X190008141Y-116152665D01*
X190045786Y-116194474D01*
X190127764Y-116285521D01*
X190127767Y-116285523D01*
X190127770Y-116285526D01*
X190272407Y-116390612D01*
X190435733Y-116463329D01*
X190435734Y-116463329D01*
X190441670Y-116465972D01*
X190440888Y-116467726D01*
X190480823Y-116492190D01*
X190724268Y-116735635D01*
X190736049Y-116749267D01*
X190750390Y-116768530D01*
X190790420Y-116802119D01*
X190794392Y-116805759D01*
X190800223Y-116811590D01*
X190800222Y-116811590D01*
X190825873Y-116831871D01*
X190825944Y-116831927D01*
X190884786Y-116881302D01*
X190884794Y-116881306D01*
X190890824Y-116885273D01*
X190890790Y-116885323D01*
X190897137Y-116889366D01*
X190897169Y-116889316D01*
X190903318Y-116893108D01*
X190903320Y-116893109D01*
X190903323Y-116893111D01*
X190972930Y-116925569D01*
X191041567Y-116960040D01*
X191041576Y-116960042D01*
X191048355Y-116962510D01*
X191048334Y-116962567D01*
X191055451Y-116965040D01*
X191055470Y-116964984D01*
X191062330Y-116967257D01*
X191137531Y-116982784D01*
X191137532Y-116982784D01*
X191212279Y-117000500D01*
X191212288Y-117000500D01*
X191219452Y-117001338D01*
X191219445Y-117001397D01*
X191226946Y-117002163D01*
X191226952Y-117002104D01*
X191234140Y-117002733D01*
X191234143Y-117002732D01*
X191234144Y-117002733D01*
X191310898Y-117000500D01*
X192237770Y-117000500D01*
X192304809Y-117020185D01*
X192325451Y-117036819D01*
X194113181Y-118824548D01*
X194146666Y-118885871D01*
X194149500Y-118912229D01*
X194149500Y-129627147D01*
X194129815Y-129694186D01*
X194077011Y-129739941D01*
X194007853Y-129749885D01*
X193944297Y-129720860D01*
X193933350Y-129710119D01*
X193847235Y-129614478D01*
X193847232Y-129614476D01*
X193847231Y-129614475D01*
X193847230Y-129614474D01*
X193702593Y-129509388D01*
X193539267Y-129436671D01*
X193539265Y-129436670D01*
X193411594Y-129409533D01*
X193364391Y-129399500D01*
X193185609Y-129399500D01*
X193154954Y-129406015D01*
X193010733Y-129436670D01*
X192893694Y-129488780D01*
X192843259Y-129499500D01*
X183538705Y-129499500D01*
X183520735Y-129498191D01*
X183496972Y-129494710D01*
X183451890Y-129498655D01*
X183444933Y-129499264D01*
X183439532Y-129499500D01*
X183431287Y-129499500D01*
X183405222Y-129502546D01*
X183398705Y-129503308D01*
X183393403Y-129503771D01*
X183322201Y-129510001D01*
X183315134Y-129511461D01*
X183315122Y-129511404D01*
X183307753Y-129513038D01*
X183307767Y-129513095D01*
X183300739Y-129514760D01*
X183228568Y-129541027D01*
X183228568Y-129541028D01*
X183155665Y-129565186D01*
X183155663Y-129565186D01*
X183155660Y-129565188D01*
X183149123Y-129568236D01*
X183149098Y-129568184D01*
X183142310Y-129571470D01*
X183142336Y-129571521D01*
X183135885Y-129574761D01*
X183071723Y-129616961D01*
X183006346Y-129657285D01*
X183000682Y-129661765D01*
X183000646Y-129661719D01*
X182994798Y-129666484D01*
X182994835Y-129666528D01*
X182989310Y-129671164D01*
X182989304Y-129671169D01*
X182989304Y-129671170D01*
X182967589Y-129694186D01*
X182936614Y-129727017D01*
X182055820Y-130607810D01*
X182015892Y-130632291D01*
X182016667Y-130634030D01*
X182010736Y-130636670D01*
X182010733Y-130636671D01*
X181999931Y-130641480D01*
X181930683Y-130650763D01*
X181867407Y-130621133D01*
X181830195Y-130561997D01*
X181825500Y-130528199D01*
X181825500Y-124324456D01*
X181845185Y-124257417D01*
X181897989Y-124211662D01*
X181935617Y-124201236D01*
X182068055Y-124186314D01*
X182068057Y-124186313D01*
X182068059Y-124186313D01*
X182227690Y-124130456D01*
X182227692Y-124130454D01*
X182227694Y-124130454D01*
X182227697Y-124130452D01*
X182370884Y-124040481D01*
X182370885Y-124040480D01*
X182370890Y-124040477D01*
X182490477Y-123920890D01*
X182505518Y-123896953D01*
X182580452Y-123777697D01*
X182580454Y-123777694D01*
X182580454Y-123777692D01*
X182580456Y-123777690D01*
X182636313Y-123618059D01*
X182636313Y-123618058D01*
X182636314Y-123618056D01*
X182655249Y-123450002D01*
X182655249Y-123449997D01*
X182636314Y-123281943D01*
X182606656Y-123197187D01*
X182580456Y-123122310D01*
X182566982Y-123100866D01*
X182544506Y-123065095D01*
X182525500Y-122999123D01*
X182525500Y-120561229D01*
X182545185Y-120494190D01*
X182597989Y-120448435D01*
X182667147Y-120438491D01*
X182730703Y-120467516D01*
X182737180Y-120473548D01*
X186188182Y-123924549D01*
X186221666Y-123985870D01*
X186224500Y-124012228D01*
X186224500Y-127115678D01*
X186207887Y-127177678D01*
X186193750Y-127202163D01*
X186138504Y-127372192D01*
X186138503Y-127372194D01*
X186119815Y-127550000D01*
X186138503Y-127727805D01*
X186138504Y-127727807D01*
X186193747Y-127897829D01*
X186193750Y-127897835D01*
X186283141Y-128052665D01*
X186324812Y-128098946D01*
X186402764Y-128185521D01*
X186402767Y-128185523D01*
X186402770Y-128185526D01*
X186547407Y-128290612D01*
X186710733Y-128363329D01*
X186885609Y-128400500D01*
X186885610Y-128400500D01*
X187064389Y-128400500D01*
X187064391Y-128400500D01*
X187239267Y-128363329D01*
X187402593Y-128290612D01*
X187547230Y-128185526D01*
X187559107Y-128172336D01*
X187573148Y-128156741D01*
X187666859Y-128052665D01*
X187756250Y-127897835D01*
X187811497Y-127727803D01*
X187830185Y-127550000D01*
X187811497Y-127372197D01*
X187756250Y-127202165D01*
X187742113Y-127177678D01*
X187725500Y-127115678D01*
X187725500Y-123713705D01*
X187726809Y-123695735D01*
X187729048Y-123680446D01*
X187730289Y-123671977D01*
X187729856Y-123667032D01*
X187725736Y-123619939D01*
X187725500Y-123614532D01*
X187725500Y-123606296D01*
X187725500Y-123606291D01*
X187721691Y-123573705D01*
X187714998Y-123497203D01*
X187714995Y-123497194D01*
X187713538Y-123490135D01*
X187713598Y-123490122D01*
X187711965Y-123482757D01*
X187711906Y-123482772D01*
X187710241Y-123475749D01*
X187710241Y-123475745D01*
X187683971Y-123403568D01*
X187679677Y-123390610D01*
X187658619Y-123327057D01*
X187656218Y-123257228D01*
X187691950Y-123197187D01*
X187754471Y-123165995D01*
X187823930Y-123173556D01*
X187864006Y-123200373D01*
X190888181Y-126224548D01*
X190921666Y-126285871D01*
X190924500Y-126312229D01*
X190924500Y-127015678D01*
X190907887Y-127077678D01*
X190893750Y-127102163D01*
X190838504Y-127272192D01*
X190838503Y-127272194D01*
X190819815Y-127449999D01*
X190838503Y-127627805D01*
X190838504Y-127627807D01*
X190893747Y-127797829D01*
X190893750Y-127797835D01*
X190983141Y-127952665D01*
X190992584Y-127963152D01*
X191102764Y-128085521D01*
X191102767Y-128085523D01*
X191102770Y-128085526D01*
X191247407Y-128190612D01*
X191410733Y-128263329D01*
X191585609Y-128300500D01*
X191585610Y-128300500D01*
X191764389Y-128300500D01*
X191764391Y-128300500D01*
X191939267Y-128263329D01*
X192102593Y-128190612D01*
X192247230Y-128085526D01*
X192366859Y-127952665D01*
X192456250Y-127797835D01*
X192511497Y-127627803D01*
X192530185Y-127450000D01*
X192511497Y-127272197D01*
X192456250Y-127102165D01*
X192442122Y-127077694D01*
X192442113Y-127077678D01*
X192425500Y-127015678D01*
X192425500Y-126013705D01*
X192426809Y-125995735D01*
X192427129Y-125993547D01*
X192430289Y-125971977D01*
X192425735Y-125919931D01*
X192425500Y-125914528D01*
X192425500Y-125906297D01*
X192425500Y-125906291D01*
X192421693Y-125873724D01*
X192414999Y-125797203D01*
X192414999Y-125797201D01*
X192413539Y-125790129D01*
X192413597Y-125790116D01*
X192411965Y-125782757D01*
X192411906Y-125782772D01*
X192410241Y-125775751D01*
X192410241Y-125775745D01*
X192383974Y-125703576D01*
X192359814Y-125630666D01*
X192359813Y-125630665D01*
X192359813Y-125630663D01*
X192356764Y-125624124D01*
X192356817Y-125624099D01*
X192353531Y-125617311D01*
X192353479Y-125617338D01*
X192350236Y-125610882D01*
X192308034Y-125546716D01*
X192267714Y-125481347D01*
X192263234Y-125475681D01*
X192263280Y-125475643D01*
X192258519Y-125469799D01*
X192258474Y-125469838D01*
X192253834Y-125464308D01*
X192197982Y-125411613D01*
X189436369Y-122650000D01*
X191419815Y-122650000D01*
X191438503Y-122827805D01*
X191438504Y-122827807D01*
X191493747Y-122997829D01*
X191493750Y-122997835D01*
X191583141Y-123152665D01*
X191607990Y-123180262D01*
X191702764Y-123285521D01*
X191702767Y-123285523D01*
X191702770Y-123285526D01*
X191847407Y-123390612D01*
X192010733Y-123463329D01*
X192185609Y-123500500D01*
X192185610Y-123500500D01*
X192364389Y-123500500D01*
X192364391Y-123500500D01*
X192539267Y-123463329D01*
X192702593Y-123390612D01*
X192847230Y-123285526D01*
X192850457Y-123281943D01*
X192873148Y-123256741D01*
X192966859Y-123152665D01*
X193056250Y-122997835D01*
X193111497Y-122827803D01*
X193130185Y-122650000D01*
X193111497Y-122472197D01*
X193068160Y-122338819D01*
X193056252Y-122302170D01*
X193056249Y-122302164D01*
X193042508Y-122278364D01*
X193020765Y-122240704D01*
X193004293Y-122172804D01*
X193027146Y-122106778D01*
X193082067Y-122063587D01*
X193102356Y-122057418D01*
X193192168Y-122038329D01*
X193355494Y-121965612D01*
X193500131Y-121860526D01*
X193619760Y-121727665D01*
X193709151Y-121572835D01*
X193764398Y-121402803D01*
X193783086Y-121225000D01*
X193764398Y-121047197D01*
X193709151Y-120877165D01*
X193619760Y-120722335D01*
X193556775Y-120652383D01*
X193500136Y-120589478D01*
X193500133Y-120589476D01*
X193500132Y-120589475D01*
X193500131Y-120589474D01*
X193355494Y-120484388D01*
X193192168Y-120411671D01*
X193192166Y-120411670D01*
X193064495Y-120384533D01*
X193017292Y-120374500D01*
X192838510Y-120374500D01*
X192807855Y-120381015D01*
X192663634Y-120411670D01*
X192663629Y-120411672D01*
X192500309Y-120484387D01*
X192355669Y-120589475D01*
X192236041Y-120722336D01*
X192146651Y-120877164D01*
X192146648Y-120877170D01*
X192091405Y-121047192D01*
X192091404Y-121047194D01*
X192072716Y-121225000D01*
X192091404Y-121402805D01*
X192091405Y-121402807D01*
X192146648Y-121572829D01*
X192146650Y-121572832D01*
X192146651Y-121572835D01*
X192178387Y-121627803D01*
X192182135Y-121634295D01*
X192198607Y-121702195D01*
X192175754Y-121768222D01*
X192120832Y-121811412D01*
X192100528Y-121817584D01*
X192010733Y-121836670D01*
X192010728Y-121836672D01*
X191847408Y-121909387D01*
X191702768Y-122014475D01*
X191583140Y-122147336D01*
X191493750Y-122302164D01*
X191493747Y-122302170D01*
X191438504Y-122472192D01*
X191438503Y-122472194D01*
X191419815Y-122650000D01*
X189436369Y-122650000D01*
X183809892Y-117023524D01*
X183779642Y-116974160D01*
X183775875Y-116962567D01*
X183756250Y-116902165D01*
X183746497Y-116885273D01*
X183715666Y-116831871D01*
X183666859Y-116747335D01*
X183650006Y-116728618D01*
X183547235Y-116614478D01*
X183547230Y-116614475D01*
X183547230Y-116614474D01*
X183533141Y-116604238D01*
X183490478Y-116548911D01*
X183484499Y-116479298D01*
X183517104Y-116417502D01*
X183518271Y-116416318D01*
X185522771Y-114411819D01*
X185584095Y-114378334D01*
X185610453Y-114375500D01*
X191109841Y-114375500D01*
X191176880Y-114395185D01*
G37*
G04 #@! TD.AperFunction*
G04 #@! TA.AperFunction,Conductor*
G36*
X176215095Y-115394505D02*
G01*
X176272310Y-115430456D01*
X176391585Y-115472192D01*
X176431943Y-115486314D01*
X176599997Y-115505249D01*
X176600500Y-115505249D01*
X176600813Y-115505340D01*
X176606920Y-115506029D01*
X176606799Y-115507098D01*
X176667539Y-115524934D01*
X176713294Y-115577738D01*
X176724500Y-115629249D01*
X176724500Y-121199123D01*
X176705494Y-121265095D01*
X176669545Y-121322307D01*
X176613685Y-121481943D01*
X176594751Y-121649997D01*
X176594751Y-121650002D01*
X176613685Y-121818056D01*
X176669545Y-121977694D01*
X176669547Y-121977697D01*
X176759518Y-122120884D01*
X176759523Y-122120890D01*
X176879110Y-122240477D01*
X176902970Y-122255469D01*
X176926901Y-122270506D01*
X176973192Y-122322841D01*
X176983840Y-122391895D01*
X176955465Y-122455743D01*
X176897075Y-122494115D01*
X176860929Y-122499500D01*
X175351381Y-122499500D01*
X175284342Y-122479815D01*
X175238587Y-122427011D01*
X175228643Y-122357853D01*
X175233449Y-122337185D01*
X175236495Y-122327808D01*
X175236496Y-122327805D01*
X175236497Y-122327803D01*
X175255185Y-122150000D01*
X175236497Y-121972197D01*
X175192462Y-121836671D01*
X175181252Y-121802170D01*
X175181249Y-121802164D01*
X175178750Y-121797835D01*
X175091859Y-121647335D01*
X175035181Y-121584388D01*
X174972235Y-121514478D01*
X174972232Y-121514476D01*
X174972231Y-121514475D01*
X174972230Y-121514474D01*
X174827593Y-121409388D01*
X174827592Y-121409387D01*
X174824056Y-121407813D01*
X174822345Y-121406358D01*
X174821970Y-121406142D01*
X174822009Y-121406073D01*
X174770822Y-121362558D01*
X174750506Y-121295708D01*
X174750500Y-121294537D01*
X174750500Y-117798339D01*
X174770185Y-117731300D01*
X174822989Y-117685545D01*
X174892147Y-117675601D01*
X174900278Y-117677048D01*
X175010609Y-117700500D01*
X175010610Y-117700500D01*
X175189389Y-117700500D01*
X175189391Y-117700500D01*
X175364267Y-117663329D01*
X175527593Y-117590612D01*
X175672230Y-117485526D01*
X175791859Y-117352665D01*
X175881250Y-117197835D01*
X175936497Y-117027803D01*
X175955185Y-116850000D01*
X175936497Y-116672197D01*
X175896439Y-116548911D01*
X175881252Y-116502170D01*
X175881249Y-116502164D01*
X175875491Y-116492190D01*
X175791859Y-116347335D01*
X175710233Y-116256680D01*
X175672235Y-116214478D01*
X175672226Y-116214471D01*
X175557714Y-116131271D01*
X175515048Y-116075941D01*
X175509070Y-116006328D01*
X175525607Y-115964981D01*
X175535064Y-115949930D01*
X175580456Y-115877690D01*
X175636313Y-115718059D01*
X175636313Y-115718053D01*
X175637612Y-115714343D01*
X175666971Y-115667618D01*
X175922772Y-115411818D01*
X175984097Y-115378334D01*
X176010454Y-115375500D01*
X176149124Y-115375500D01*
X176215095Y-115394505D01*
G37*
G04 #@! TD.AperFunction*
G04 #@! TA.AperFunction,Conductor*
G36*
X176943834Y-107970047D02*
G01*
X176999767Y-108011919D01*
X177024184Y-108077383D01*
X177024500Y-108086229D01*
X177024500Y-110989545D01*
X177004815Y-111056584D01*
X176988179Y-111077228D01*
X176966202Y-111099204D01*
X176953943Y-111109027D01*
X176954126Y-111109248D01*
X176948120Y-111114216D01*
X176900771Y-111164637D01*
X176879889Y-111185519D01*
X176879877Y-111185532D01*
X176875621Y-111191017D01*
X176871837Y-111195447D01*
X176839937Y-111229418D01*
X176839936Y-111229420D01*
X176830284Y-111246976D01*
X176819610Y-111263226D01*
X176807329Y-111279061D01*
X176807324Y-111279068D01*
X176788815Y-111321838D01*
X176786245Y-111327084D01*
X176763803Y-111367906D01*
X176758822Y-111387307D01*
X176752521Y-111405710D01*
X176744562Y-111424102D01*
X176744561Y-111424105D01*
X176737271Y-111470127D01*
X176736087Y-111475846D01*
X176724501Y-111520972D01*
X176724499Y-111520984D01*
X176724499Y-111541020D01*
X176722973Y-111560411D01*
X176719840Y-111580194D01*
X176719840Y-111580195D01*
X176724225Y-111626583D01*
X176724500Y-111632421D01*
X176724500Y-113870751D01*
X176704815Y-113937790D01*
X176652011Y-113983545D01*
X176606852Y-113993369D01*
X176606920Y-113993971D01*
X176601040Y-113994633D01*
X176600500Y-113994751D01*
X176599997Y-113994751D01*
X176431943Y-114013685D01*
X176272307Y-114069545D01*
X176215096Y-114105494D01*
X176149124Y-114124500D01*
X175782743Y-114124500D01*
X175767122Y-114122775D01*
X175767096Y-114123061D01*
X175759334Y-114122327D01*
X175759333Y-114122327D01*
X175690186Y-114124500D01*
X175660649Y-114124500D01*
X175653766Y-114125369D01*
X175647949Y-114125826D01*
X175601373Y-114127290D01*
X175582129Y-114132881D01*
X175563079Y-114136825D01*
X175543211Y-114139334D01*
X175499884Y-114156488D01*
X175494358Y-114158379D01*
X175449614Y-114171379D01*
X175449610Y-114171381D01*
X175432366Y-114181579D01*
X175414905Y-114190133D01*
X175396274Y-114197510D01*
X175396262Y-114197517D01*
X175358570Y-114224902D01*
X175353687Y-114228109D01*
X175313580Y-114251829D01*
X175299414Y-114265995D01*
X175284624Y-114278627D01*
X175268414Y-114290404D01*
X175268411Y-114290407D01*
X175238710Y-114326309D01*
X175234777Y-114330631D01*
X174962181Y-114603227D01*
X174900858Y-114636712D01*
X174831166Y-114631728D01*
X174775233Y-114589856D01*
X174750816Y-114524392D01*
X174750500Y-114515546D01*
X174750500Y-110112229D01*
X174770185Y-110045190D01*
X174786819Y-110024548D01*
X176812819Y-107998548D01*
X176874142Y-107965063D01*
X176943834Y-107970047D01*
G37*
G04 #@! TD.AperFunction*
G04 #@! TA.AperFunction,Conductor*
G36*
X170136377Y-103301830D02*
G01*
X170187854Y-103349073D01*
X170205618Y-103416647D01*
X170204958Y-103426360D01*
X170199500Y-103477127D01*
X170199500Y-103477128D01*
X170199500Y-103477132D01*
X170199500Y-105072870D01*
X170199501Y-105072876D01*
X170205908Y-105132483D01*
X170256202Y-105267328D01*
X170256206Y-105267335D01*
X170342452Y-105382544D01*
X170342455Y-105382547D01*
X170457664Y-105468793D01*
X170457671Y-105468797D01*
X170592517Y-105519091D01*
X170592516Y-105519091D01*
X170599444Y-105519835D01*
X170652127Y-105525500D01*
X172289546Y-105525499D01*
X172356585Y-105545184D01*
X172377227Y-105561818D01*
X172630773Y-105815364D01*
X172664258Y-105876687D01*
X172664015Y-105924971D01*
X172664466Y-105925022D01*
X172663994Y-105929210D01*
X172663987Y-105930621D01*
X172663686Y-105931936D01*
X172644751Y-106099997D01*
X172644751Y-106100002D01*
X172663685Y-106268056D01*
X172719545Y-106427694D01*
X172719547Y-106427697D01*
X172809518Y-106570884D01*
X172809523Y-106570890D01*
X172825951Y-106587318D01*
X172859436Y-106648641D01*
X172854452Y-106718333D01*
X172825951Y-106762680D01*
X171570021Y-108018609D01*
X171508698Y-108052094D01*
X171439006Y-108047110D01*
X171383073Y-108005238D01*
X171365299Y-107971883D01*
X171330457Y-107872313D01*
X171330452Y-107872302D01*
X171240481Y-107729115D01*
X171240476Y-107729109D01*
X171120890Y-107609523D01*
X171120884Y-107609518D01*
X170977697Y-107519547D01*
X170977694Y-107519545D01*
X170818056Y-107463685D01*
X170650003Y-107444751D01*
X170649997Y-107444751D01*
X170481943Y-107463685D01*
X170322307Y-107519545D01*
X170265096Y-107555494D01*
X170199124Y-107574500D01*
X170029249Y-107574500D01*
X169962210Y-107554815D01*
X169916455Y-107502011D01*
X169906630Y-107456852D01*
X169906029Y-107456920D01*
X169905366Y-107451040D01*
X169905249Y-107450500D01*
X169905249Y-107449997D01*
X169886314Y-107281943D01*
X169849834Y-107177690D01*
X169830456Y-107122310D01*
X169830455Y-107122309D01*
X169830454Y-107122305D01*
X169830452Y-107122302D01*
X169740481Y-106979115D01*
X169740476Y-106979109D01*
X169620890Y-106859523D01*
X169620884Y-106859518D01*
X169477697Y-106769547D01*
X169477691Y-106769544D01*
X169402986Y-106743404D01*
X169383045Y-106736426D01*
X169326270Y-106695705D01*
X169300522Y-106630753D01*
X169300000Y-106619385D01*
X169300000Y-106383021D01*
X169319685Y-106315982D01*
X169343352Y-106290932D01*
X169342400Y-106289875D01*
X169347224Y-106285529D01*
X169347230Y-106285526D01*
X169466859Y-106152665D01*
X169556250Y-105997835D01*
X169579643Y-105925837D01*
X169609892Y-105876475D01*
X169660637Y-105825729D01*
X169674271Y-105813946D01*
X169693530Y-105799610D01*
X169727128Y-105759569D01*
X169730750Y-105755616D01*
X169736590Y-105749777D01*
X169756923Y-105724060D01*
X169806302Y-105665214D01*
X169806309Y-105665198D01*
X169810272Y-105659176D01*
X169810324Y-105659210D01*
X169814371Y-105652858D01*
X169814317Y-105652825D01*
X169818104Y-105646684D01*
X169818110Y-105646677D01*
X169839605Y-105600580D01*
X169850561Y-105577086D01*
X169879687Y-105519091D01*
X169885040Y-105508433D01*
X169885042Y-105508421D01*
X169887510Y-105501644D01*
X169887568Y-105501665D01*
X169890043Y-105494546D01*
X169889985Y-105494527D01*
X169892256Y-105487672D01*
X169892787Y-105485103D01*
X169907784Y-105412467D01*
X169925500Y-105337721D01*
X169925500Y-105337720D01*
X169926339Y-105330548D01*
X169926397Y-105330554D01*
X169927164Y-105323056D01*
X169927104Y-105323051D01*
X169927733Y-105315860D01*
X169925507Y-105239360D01*
X169925500Y-105239102D01*
X169925499Y-103484320D01*
X169942112Y-103422322D01*
X169956250Y-103397835D01*
X169963736Y-103374792D01*
X170003172Y-103317117D01*
X170067530Y-103289918D01*
X170136377Y-103301830D01*
G37*
G04 #@! TD.AperFunction*
G04 #@! TA.AperFunction,Conductor*
G36*
X196017539Y-76070185D02*
G01*
X196063294Y-76122989D01*
X196074500Y-76174500D01*
X196074500Y-90926000D01*
X196054815Y-90993039D01*
X196002011Y-91038794D01*
X195950500Y-91050000D01*
X188881041Y-91050000D01*
X188837708Y-91042182D01*
X188807482Y-91030908D01*
X188807483Y-91030908D01*
X188747883Y-91024501D01*
X188747881Y-91024500D01*
X188747873Y-91024500D01*
X188747864Y-91024500D01*
X186652129Y-91024500D01*
X186652123Y-91024501D01*
X186592516Y-91030908D01*
X186562292Y-91042182D01*
X186518959Y-91050000D01*
X186000000Y-91050000D01*
X186000000Y-93050000D01*
X186000000Y-93550000D01*
X191345770Y-93550000D01*
X191389105Y-93557819D01*
X191392511Y-93559089D01*
X191392512Y-93559089D01*
X191392517Y-93559091D01*
X191452127Y-93565500D01*
X195950500Y-93565499D01*
X196017539Y-93585184D01*
X196063294Y-93637988D01*
X196074500Y-93689499D01*
X196074500Y-162725500D01*
X196054815Y-162792539D01*
X196002011Y-162838294D01*
X195950500Y-162849500D01*
X160224500Y-162849500D01*
X160157461Y-162829815D01*
X160111706Y-162777011D01*
X160100500Y-162725500D01*
X160100500Y-161547870D01*
X173904500Y-161547870D01*
X173904501Y-161547876D01*
X173910908Y-161607483D01*
X173961202Y-161742328D01*
X173961206Y-161742335D01*
X174047452Y-161857544D01*
X174047455Y-161857547D01*
X174162664Y-161943793D01*
X174162671Y-161943797D01*
X174297517Y-161994091D01*
X174297516Y-161994091D01*
X174304444Y-161994835D01*
X174357127Y-162000500D01*
X176552872Y-162000499D01*
X176612483Y-161994091D01*
X176747331Y-161943796D01*
X176862546Y-161857546D01*
X176940087Y-161753964D01*
X176996019Y-161712095D01*
X177065711Y-161707111D01*
X177104142Y-161722550D01*
X177288910Y-161835777D01*
X177514381Y-161929169D01*
X177514378Y-161929169D01*
X177514384Y-161929170D01*
X177514388Y-161929172D01*
X177751698Y-161986146D01*
X177995000Y-162005294D01*
X178238302Y-161986146D01*
X178475612Y-161929172D01*
X178701089Y-161835777D01*
X178909179Y-161708259D01*
X179094759Y-161549759D01*
X179170709Y-161460832D01*
X179229216Y-161422638D01*
X179299084Y-161422139D01*
X179358131Y-161459493D01*
X179359290Y-161460832D01*
X179433632Y-161547876D01*
X179435241Y-161549759D01*
X179502827Y-161607483D01*
X179620823Y-161708261D01*
X179620826Y-161708262D01*
X179828910Y-161835777D01*
X180054381Y-161929169D01*
X180054378Y-161929169D01*
X180054384Y-161929170D01*
X180054388Y-161929172D01*
X180291698Y-161986146D01*
X180535000Y-162005294D01*
X180778302Y-161986146D01*
X181015612Y-161929172D01*
X181241089Y-161835777D01*
X181449179Y-161708259D01*
X181634759Y-161549759D01*
X181710709Y-161460832D01*
X181769216Y-161422638D01*
X181839084Y-161422139D01*
X181898131Y-161459493D01*
X181899290Y-161460832D01*
X181973632Y-161547876D01*
X181975241Y-161549759D01*
X182042827Y-161607483D01*
X182160823Y-161708261D01*
X182160826Y-161708262D01*
X182368910Y-161835777D01*
X182594381Y-161929169D01*
X182594378Y-161929169D01*
X182594384Y-161929170D01*
X182594388Y-161929172D01*
X182831698Y-161986146D01*
X183075000Y-162005294D01*
X183318302Y-161986146D01*
X183555612Y-161929172D01*
X183781089Y-161835777D01*
X183989179Y-161708259D01*
X184174759Y-161549759D01*
X184333259Y-161364179D01*
X184460777Y-161156089D01*
X184554172Y-160930612D01*
X184611146Y-160693302D01*
X184630294Y-160450000D01*
X184611146Y-160206698D01*
X184554172Y-159969388D01*
X184460777Y-159743911D01*
X184460777Y-159743910D01*
X184333262Y-159535826D01*
X184333261Y-159535823D01*
X184283755Y-159477859D01*
X184174759Y-159350241D01*
X184052063Y-159245449D01*
X183989176Y-159191738D01*
X183989173Y-159191737D01*
X183781089Y-159064222D01*
X183555618Y-158970830D01*
X183555621Y-158970830D01*
X183449992Y-158945470D01*
X183318302Y-158913854D01*
X183318300Y-158913853D01*
X183318297Y-158913853D01*
X183075000Y-158894706D01*
X182831702Y-158913853D01*
X182831697Y-158913854D01*
X182831698Y-158913854D01*
X182655301Y-158956204D01*
X182594380Y-158970830D01*
X182368910Y-159064222D01*
X182160826Y-159191737D01*
X182160823Y-159191738D01*
X181975241Y-159350241D01*
X181899290Y-159439168D01*
X181840783Y-159477361D01*
X181770915Y-159477859D01*
X181711869Y-159440505D01*
X181710710Y-159439168D01*
X181692844Y-159418250D01*
X181634759Y-159350241D01*
X181512063Y-159245449D01*
X181449176Y-159191738D01*
X181449173Y-159191737D01*
X181241089Y-159064222D01*
X181015618Y-158970830D01*
X181015621Y-158970830D01*
X180909992Y-158945470D01*
X180778302Y-158913854D01*
X180778300Y-158913853D01*
X180778297Y-158913853D01*
X180535000Y-158894706D01*
X180291702Y-158913853D01*
X180291697Y-158913854D01*
X180291698Y-158913854D01*
X180115301Y-158956204D01*
X180054380Y-158970830D01*
X179828910Y-159064222D01*
X179620826Y-159191737D01*
X179620823Y-159191738D01*
X179435241Y-159350241D01*
X179359290Y-159439168D01*
X179300783Y-159477361D01*
X179230915Y-159477859D01*
X179171869Y-159440505D01*
X179170710Y-159439168D01*
X179152844Y-159418250D01*
X179094759Y-159350241D01*
X178972063Y-159245449D01*
X178909176Y-159191738D01*
X178909173Y-159191737D01*
X178701089Y-159064222D01*
X178475618Y-158970830D01*
X178475621Y-158970830D01*
X178369992Y-158945470D01*
X178238302Y-158913854D01*
X178238300Y-158913853D01*
X178238297Y-158913853D01*
X177995000Y-158894706D01*
X177751702Y-158913853D01*
X177751697Y-158913854D01*
X177751698Y-158913854D01*
X177575301Y-158956204D01*
X177514380Y-158970830D01*
X177288910Y-159064222D01*
X177104142Y-159177449D01*
X177036696Y-159195694D01*
X176970094Y-159174578D01*
X176940086Y-159146033D01*
X176862547Y-159042455D01*
X176862544Y-159042452D01*
X176747335Y-158956206D01*
X176747328Y-158956202D01*
X176612482Y-158905908D01*
X176612483Y-158905908D01*
X176552883Y-158899501D01*
X176552881Y-158899500D01*
X176552873Y-158899500D01*
X176552864Y-158899500D01*
X174357129Y-158899500D01*
X174357123Y-158899501D01*
X174297516Y-158905908D01*
X174162671Y-158956202D01*
X174162664Y-158956206D01*
X174047455Y-159042452D01*
X174047452Y-159042455D01*
X173961206Y-159157664D01*
X173961202Y-159157671D01*
X173910908Y-159292517D01*
X173904501Y-159352116D01*
X173904500Y-159352135D01*
X173904500Y-161547870D01*
X160100500Y-161547870D01*
X160100500Y-153449999D01*
X166619815Y-153449999D01*
X166638503Y-153627805D01*
X166638504Y-153627807D01*
X166693747Y-153797829D01*
X166693750Y-153797835D01*
X166783141Y-153952665D01*
X166824812Y-153998946D01*
X166902764Y-154085521D01*
X166902767Y-154085523D01*
X166902770Y-154085526D01*
X167047407Y-154190612D01*
X167210733Y-154263329D01*
X167385609Y-154300500D01*
X167385610Y-154300500D01*
X167564389Y-154300500D01*
X167564391Y-154300500D01*
X167739267Y-154263329D01*
X167856306Y-154211219D01*
X167906741Y-154200500D01*
X170543259Y-154200500D01*
X170593693Y-154211219D01*
X170710733Y-154263329D01*
X170885609Y-154300500D01*
X170885610Y-154300500D01*
X171064389Y-154300500D01*
X171064391Y-154300500D01*
X171239267Y-154263329D01*
X171402593Y-154190612D01*
X171547230Y-154085526D01*
X171666859Y-153952665D01*
X171756250Y-153797835D01*
X171811497Y-153627803D01*
X171830185Y-153450000D01*
X171811497Y-153272197D01*
X171756250Y-153102165D01*
X171666859Y-152947335D01*
X171620003Y-152895296D01*
X171547235Y-152814478D01*
X171547232Y-152814476D01*
X171547231Y-152814475D01*
X171547230Y-152814474D01*
X171402593Y-152709388D01*
X171239267Y-152636671D01*
X171239265Y-152636670D01*
X171111594Y-152609533D01*
X171064391Y-152599500D01*
X170885609Y-152599500D01*
X170854954Y-152606015D01*
X170710733Y-152636670D01*
X170593694Y-152688780D01*
X170543259Y-152699500D01*
X167906741Y-152699500D01*
X167856306Y-152688780D01*
X167739267Y-152636671D01*
X167739265Y-152636670D01*
X167611594Y-152609533D01*
X167564391Y-152599500D01*
X167385609Y-152599500D01*
X167354954Y-152606015D01*
X167210733Y-152636670D01*
X167210728Y-152636672D01*
X167047408Y-152709387D01*
X166902768Y-152814475D01*
X166783140Y-152947336D01*
X166693750Y-153102164D01*
X166693747Y-153102170D01*
X166638504Y-153272192D01*
X166638503Y-153272194D01*
X166619815Y-153449999D01*
X160100500Y-153449999D01*
X160100500Y-151288155D01*
X160120185Y-151221116D01*
X160172989Y-151175361D01*
X160242147Y-151165417D01*
X160305703Y-151194442D01*
X160343477Y-151253220D01*
X160345067Y-151259182D01*
X160358259Y-151314128D01*
X160395830Y-151470619D01*
X160489222Y-151696089D01*
X160616737Y-151904173D01*
X160616738Y-151904176D01*
X160616741Y-151904179D01*
X160775241Y-152089759D01*
X160918897Y-152212453D01*
X160960823Y-152248261D01*
X160960826Y-152248262D01*
X161168910Y-152375777D01*
X161394381Y-152469169D01*
X161394378Y-152469169D01*
X161394384Y-152469170D01*
X161394388Y-152469172D01*
X161631698Y-152526146D01*
X161875000Y-152545294D01*
X162118302Y-152526146D01*
X162355612Y-152469172D01*
X162581089Y-152375777D01*
X162789179Y-152248259D01*
X162974759Y-152089759D01*
X163133259Y-151904179D01*
X163196726Y-151800609D01*
X163248536Y-151753736D01*
X163317465Y-151742313D01*
X163320403Y-151742708D01*
X163338023Y-151745289D01*
X163390068Y-151740735D01*
X163395470Y-151740500D01*
X163403704Y-151740500D01*
X163403709Y-151740500D01*
X163415327Y-151739141D01*
X163436276Y-151736693D01*
X163449028Y-151735577D01*
X163512797Y-151729999D01*
X163512805Y-151729996D01*
X163519866Y-151728539D01*
X163519878Y-151728598D01*
X163527243Y-151726965D01*
X163527229Y-151726906D01*
X163534246Y-151725241D01*
X163534255Y-151725241D01*
X163606423Y-151698974D01*
X163679334Y-151674814D01*
X163679343Y-151674807D01*
X163685882Y-151671760D01*
X163685908Y-151671816D01*
X163692690Y-151668532D01*
X163692663Y-151668478D01*
X163699106Y-151665240D01*
X163699117Y-151665237D01*
X163763283Y-151623034D01*
X163828656Y-151582712D01*
X163828662Y-151582705D01*
X163834325Y-151578229D01*
X163834363Y-151578277D01*
X163840200Y-151573522D01*
X163840161Y-151573475D01*
X163845696Y-151568830D01*
X163898385Y-151512983D01*
X165553823Y-149857544D01*
X166185642Y-149225724D01*
X166199271Y-149213947D01*
X166200437Y-149213079D01*
X166218530Y-149199610D01*
X166252101Y-149159601D01*
X166255761Y-149155606D01*
X166261590Y-149149778D01*
X166281941Y-149124039D01*
X166287948Y-149116879D01*
X166331302Y-149065214D01*
X166331306Y-149065205D01*
X166335274Y-149059175D01*
X166335325Y-149059208D01*
X166339372Y-149052856D01*
X166339320Y-149052824D01*
X166343112Y-149046675D01*
X166375575Y-148977058D01*
X166393116Y-148942128D01*
X166410040Y-148908433D01*
X166410042Y-148908421D01*
X166412509Y-148901646D01*
X166412567Y-148901667D01*
X166415043Y-148894546D01*
X166414986Y-148894527D01*
X166417255Y-148887680D01*
X166417256Y-148887675D01*
X166417257Y-148887673D01*
X166432791Y-148812437D01*
X166450500Y-148737721D01*
X166450500Y-148737719D01*
X166451339Y-148730548D01*
X166451398Y-148730554D01*
X166452164Y-148723054D01*
X166452105Y-148723049D01*
X166452734Y-148715859D01*
X166452320Y-148701646D01*
X166450500Y-148639082D01*
X166450500Y-145084320D01*
X166467112Y-145022322D01*
X166481250Y-144997835D01*
X166536497Y-144827803D01*
X166555185Y-144650000D01*
X166536497Y-144472197D01*
X166481250Y-144302165D01*
X166391859Y-144147335D01*
X166340507Y-144090303D01*
X166272235Y-144014478D01*
X166272232Y-144014476D01*
X166272231Y-144014475D01*
X166272230Y-144014474D01*
X166127593Y-143909388D01*
X165964267Y-143836671D01*
X165964265Y-143836670D01*
X165836594Y-143809533D01*
X165789391Y-143799500D01*
X165610609Y-143799500D01*
X165579954Y-143806015D01*
X165435733Y-143836670D01*
X165435728Y-143836672D01*
X165272408Y-143909387D01*
X165127768Y-144014475D01*
X165008140Y-144147336D01*
X164918750Y-144302164D01*
X164918747Y-144302170D01*
X164863504Y-144472192D01*
X164863503Y-144472194D01*
X164844815Y-144649999D01*
X164863503Y-144827805D01*
X164863504Y-144827807D01*
X164918747Y-144997829D01*
X164918748Y-144997830D01*
X164918750Y-144997835D01*
X164932887Y-145022322D01*
X164949500Y-145084320D01*
X164949500Y-148287769D01*
X164929815Y-148354808D01*
X164913181Y-148375450D01*
X163636066Y-149652564D01*
X163574743Y-149686049D01*
X163505051Y-149681065D01*
X163449118Y-149639193D01*
X163424701Y-149573729D01*
X163425095Y-149551632D01*
X163425500Y-149547873D01*
X163425499Y-148012228D01*
X163445184Y-147945190D01*
X163461813Y-147924553D01*
X163760642Y-147625724D01*
X163774271Y-147613947D01*
X163793530Y-147599610D01*
X163827101Y-147559601D01*
X163830761Y-147555606D01*
X163836590Y-147549778D01*
X163856941Y-147524039D01*
X163862948Y-147516879D01*
X163906302Y-147465214D01*
X163906306Y-147465205D01*
X163910274Y-147459175D01*
X163910325Y-147459208D01*
X163914372Y-147452856D01*
X163914320Y-147452824D01*
X163918112Y-147446675D01*
X163950575Y-147377058D01*
X163985036Y-147308440D01*
X163985040Y-147308433D01*
X163985042Y-147308421D01*
X163987509Y-147301646D01*
X163987567Y-147301667D01*
X163990043Y-147294546D01*
X163989986Y-147294528D01*
X163992257Y-147287673D01*
X164007792Y-147212434D01*
X164025500Y-147137721D01*
X164025500Y-147137710D01*
X164026338Y-147130548D01*
X164026398Y-147130555D01*
X164027164Y-147123055D01*
X164027105Y-147123050D01*
X164027734Y-147115860D01*
X164025500Y-147039083D01*
X164025500Y-142015659D01*
X166269500Y-142015659D01*
X166269805Y-142028075D01*
X166270713Y-142046549D01*
X166271625Y-142058909D01*
X166291168Y-142257338D01*
X166294809Y-142281887D01*
X166304391Y-142330059D01*
X166310422Y-142354136D01*
X166310422Y-142354137D01*
X166367447Y-142542121D01*
X166367447Y-142542120D01*
X166375807Y-142565486D01*
X166394610Y-142610878D01*
X166405215Y-142633299D01*
X166405215Y-142633300D01*
X166497810Y-142806533D01*
X166497811Y-142806534D01*
X166510565Y-142827814D01*
X166510564Y-142827813D01*
X166524072Y-142848028D01*
X166537862Y-142868666D01*
X166552647Y-142888603D01*
X166677257Y-143040439D01*
X166677256Y-143040438D01*
X166693940Y-143058847D01*
X166693941Y-143058847D01*
X166728652Y-143093558D01*
X166728652Y-143093559D01*
X166728662Y-143093568D01*
X166728665Y-143093571D01*
X166747055Y-143110238D01*
X166898896Y-143234852D01*
X166918833Y-143249637D01*
X166934835Y-143260329D01*
X166959686Y-143276935D01*
X166959685Y-143276934D01*
X166980965Y-143289688D01*
X166980966Y-143289689D01*
X167154199Y-143382284D01*
X167176628Y-143392892D01*
X167176629Y-143392892D01*
X167221998Y-143411686D01*
X167245390Y-143420057D01*
X167245389Y-143420057D01*
X167337424Y-143447974D01*
X167433362Y-143477076D01*
X167433368Y-143477077D01*
X167433369Y-143477078D01*
X167457441Y-143483108D01*
X167457440Y-143483108D01*
X167489938Y-143489571D01*
X167505622Y-143492691D01*
X167505629Y-143492692D01*
X167505634Y-143492693D01*
X167505633Y-143492693D01*
X167516250Y-143494267D01*
X167530169Y-143496332D01*
X167728588Y-143515874D01*
X167728589Y-143515874D01*
X167740950Y-143516787D01*
X167759424Y-143517695D01*
X167765632Y-143517847D01*
X167771840Y-143518000D01*
X167771841Y-143518000D01*
X174778159Y-143518000D01*
X174778160Y-143518000D01*
X174784367Y-143517847D01*
X174790576Y-143517695D01*
X174809050Y-143516787D01*
X174817290Y-143516178D01*
X174821412Y-143515874D01*
X175019830Y-143496332D01*
X175033748Y-143494267D01*
X175044366Y-143492693D01*
X175044365Y-143492693D01*
X175044369Y-143492692D01*
X175044377Y-143492691D01*
X175060060Y-143489571D01*
X175092559Y-143483108D01*
X175092558Y-143483108D01*
X175116630Y-143477078D01*
X175116630Y-143477077D01*
X175116637Y-143477076D01*
X175212574Y-143447974D01*
X175304610Y-143420057D01*
X175304609Y-143420057D01*
X175328001Y-143411686D01*
X175373370Y-143392892D01*
X175373371Y-143392892D01*
X175395800Y-143382284D01*
X175569033Y-143289689D01*
X175569034Y-143289688D01*
X175590314Y-143276934D01*
X175590313Y-143276935D01*
X175615164Y-143260329D01*
X175631166Y-143249637D01*
X175651103Y-143234852D01*
X175802944Y-143110238D01*
X175821334Y-143093571D01*
X175821336Y-143093568D01*
X175821347Y-143093559D01*
X175821347Y-143093558D01*
X175856058Y-143058847D01*
X175856059Y-143058847D01*
X175872743Y-143040438D01*
X175872742Y-143040439D01*
X175997352Y-142888603D01*
X176012137Y-142868666D01*
X176025926Y-142848028D01*
X176039435Y-142827813D01*
X176039434Y-142827814D01*
X176052188Y-142806534D01*
X176052189Y-142806533D01*
X176144784Y-142633300D01*
X176155392Y-142610871D01*
X176155392Y-142610870D01*
X176174186Y-142565501D01*
X176182557Y-142542109D01*
X176182557Y-142542110D01*
X176218232Y-142424499D01*
X176239576Y-142354137D01*
X176245607Y-142330060D01*
X176245608Y-142330058D01*
X176245608Y-142330059D01*
X176255189Y-142281887D01*
X176255191Y-142281877D01*
X176258832Y-142257330D01*
X176278374Y-142058912D01*
X176279287Y-142046548D01*
X176280195Y-142028075D01*
X176280500Y-142015660D01*
X176280500Y-139609339D01*
X176280195Y-139596924D01*
X176279287Y-139578451D01*
X176278374Y-139566087D01*
X176258832Y-139367669D01*
X176255191Y-139343122D01*
X176252071Y-139327438D01*
X176245608Y-139294940D01*
X176245608Y-139294941D01*
X176239578Y-139270869D01*
X176239577Y-139270868D01*
X176239576Y-139270862D01*
X176182557Y-139082890D01*
X176182556Y-139082889D01*
X176174186Y-139059498D01*
X176155392Y-139014129D01*
X176155392Y-139014128D01*
X176144784Y-138991699D01*
X176052189Y-138818466D01*
X176052188Y-138818465D01*
X176039434Y-138797185D01*
X176039435Y-138797186D01*
X176012140Y-138756338D01*
X176012137Y-138756333D01*
X175997352Y-138736396D01*
X175872738Y-138584555D01*
X175856071Y-138566165D01*
X175856066Y-138566160D01*
X175856059Y-138566152D01*
X175856058Y-138566152D01*
X175821347Y-138531441D01*
X175821347Y-138531440D01*
X175802942Y-138514760D01*
X175651103Y-138390147D01*
X175631166Y-138375362D01*
X175590318Y-138348068D01*
X175577508Y-138340390D01*
X175569040Y-138335314D01*
X175569041Y-138335314D01*
X175395806Y-138242719D01*
X175395807Y-138242719D01*
X175381896Y-138236139D01*
X175373378Y-138232111D01*
X175373371Y-138232108D01*
X175373369Y-138232107D01*
X175373367Y-138232106D01*
X175328003Y-138213313D01*
X175304614Y-138204944D01*
X175116637Y-138147922D01*
X175116636Y-138147922D01*
X175116629Y-138147920D01*
X175110702Y-138146435D01*
X175092559Y-138141891D01*
X175044387Y-138132309D01*
X175019836Y-138128668D01*
X175019838Y-138128668D01*
X174861094Y-138113033D01*
X174821410Y-138109125D01*
X174815229Y-138108669D01*
X174809049Y-138108213D01*
X174790575Y-138107305D01*
X174778160Y-138107000D01*
X167771839Y-138107000D01*
X167759421Y-138107305D01*
X167740970Y-138108213D01*
X167740950Y-138108214D01*
X167728591Y-138109126D01*
X167665681Y-138115321D01*
X167530168Y-138128667D01*
X167530167Y-138128667D01*
X167505619Y-138132308D01*
X167505615Y-138132308D01*
X167505608Y-138132310D01*
X167457442Y-138141891D01*
X167443656Y-138145344D01*
X167433379Y-138147918D01*
X167433381Y-138147918D01*
X167433376Y-138147919D01*
X167433370Y-138147921D01*
X167334470Y-138177921D01*
X167245377Y-138204947D01*
X167245378Y-138204947D01*
X167222000Y-138213312D01*
X167221988Y-138213316D01*
X167221985Y-138213318D01*
X167221984Y-138213318D01*
X167186357Y-138228076D01*
X167176625Y-138232108D01*
X167176623Y-138232109D01*
X167176622Y-138232109D01*
X167154196Y-138242717D01*
X166980961Y-138335313D01*
X166959675Y-138348071D01*
X166918838Y-138375357D01*
X166898902Y-138390142D01*
X166898903Y-138390141D01*
X166747056Y-138514760D01*
X166747050Y-138514765D01*
X166728660Y-138531432D01*
X166728647Y-138531444D01*
X166728647Y-138531445D01*
X166693945Y-138566147D01*
X166693944Y-138566147D01*
X166693934Y-138566157D01*
X166693932Y-138566160D01*
X166693928Y-138566165D01*
X166677260Y-138584556D01*
X166677261Y-138584555D01*
X166552641Y-138736403D01*
X166552642Y-138736402D01*
X166537857Y-138756338D01*
X166510571Y-138797175D01*
X166497813Y-138818461D01*
X166405220Y-138991693D01*
X166405218Y-138991696D01*
X166405217Y-138991696D01*
X166405216Y-138991699D01*
X166394608Y-139014125D01*
X166390576Y-139023857D01*
X166375818Y-139059484D01*
X166375818Y-139059485D01*
X166375812Y-139059500D01*
X166367447Y-139082878D01*
X166367447Y-139082877D01*
X166367443Y-139082890D01*
X166310421Y-139270870D01*
X166310418Y-139270881D01*
X166310418Y-139270879D01*
X166307844Y-139281156D01*
X166304391Y-139294942D01*
X166294810Y-139343108D01*
X166294808Y-139343120D01*
X166294808Y-139343119D01*
X166291167Y-139367667D01*
X166291167Y-139367668D01*
X166271625Y-139566090D01*
X166270713Y-139578450D01*
X166269805Y-139596924D01*
X166269500Y-139609340D01*
X166269500Y-142015659D01*
X164025500Y-142015659D01*
X164025500Y-132713705D01*
X164026809Y-132695735D01*
X164027797Y-132688990D01*
X164030289Y-132671977D01*
X164025735Y-132619933D01*
X164025500Y-132614532D01*
X164025500Y-132606296D01*
X164025500Y-132606291D01*
X164021691Y-132573705D01*
X164014998Y-132497203D01*
X164014995Y-132497194D01*
X164013538Y-132490135D01*
X164013598Y-132490122D01*
X164011965Y-132482757D01*
X164011906Y-132482772D01*
X164010241Y-132475749D01*
X164010241Y-132475745D01*
X163983971Y-132403568D01*
X163959814Y-132330665D01*
X163959812Y-132330662D01*
X163956761Y-132324118D01*
X163956815Y-132324092D01*
X163953533Y-132317312D01*
X163953480Y-132317340D01*
X163950238Y-132310886D01*
X163950237Y-132310883D01*
X163908038Y-132246723D01*
X163867712Y-132181344D01*
X163867711Y-132181343D01*
X163867710Y-132181341D01*
X163863234Y-132175681D01*
X163863280Y-132175643D01*
X163858519Y-132169799D01*
X163858474Y-132169838D01*
X163853834Y-132164308D01*
X163797982Y-132111613D01*
X161461819Y-129775449D01*
X161428334Y-129714126D01*
X161425500Y-129687768D01*
X161425500Y-122776641D01*
X161442113Y-122714641D01*
X161449316Y-122702165D01*
X161466250Y-122672835D01*
X161521497Y-122502803D01*
X161540185Y-122325000D01*
X161521497Y-122147197D01*
X161492325Y-122057414D01*
X161466252Y-121977170D01*
X161466249Y-121977164D01*
X161376859Y-121822335D01*
X161323226Y-121762770D01*
X161257235Y-121689478D01*
X161257232Y-121689476D01*
X161257231Y-121689475D01*
X161257230Y-121689474D01*
X161112593Y-121584388D01*
X160949267Y-121511671D01*
X160949265Y-121511670D01*
X160821594Y-121484533D01*
X160774391Y-121474500D01*
X160595609Y-121474500D01*
X160564954Y-121481015D01*
X160420733Y-121511670D01*
X160420728Y-121511672D01*
X160274936Y-121576584D01*
X160205686Y-121585869D01*
X160142409Y-121556241D01*
X160105196Y-121497106D01*
X160100500Y-121463305D01*
X160100500Y-121024500D01*
X160120185Y-120957461D01*
X160172989Y-120911706D01*
X160224500Y-120900500D01*
X161000743Y-120900500D01*
X161152439Y-120885074D01*
X161346579Y-120824162D01*
X161346580Y-120824161D01*
X161346588Y-120824159D01*
X161524502Y-120725409D01*
X161678895Y-120592866D01*
X161803448Y-120431958D01*
X161893060Y-120249271D01*
X161944063Y-120052285D01*
X161954369Y-119849064D01*
X161923556Y-119647929D01*
X161852886Y-119457113D01*
X161745252Y-119284429D01*
X161605059Y-119136947D01*
X161506587Y-119068409D01*
X161438050Y-119020705D01*
X161251056Y-118940459D01*
X161051741Y-118899500D01*
X160224500Y-118899500D01*
X160157461Y-118879815D01*
X160111706Y-118827011D01*
X160100500Y-118775500D01*
X160100500Y-117950000D01*
X162369538Y-117950000D01*
X162389337Y-118151031D01*
X162447978Y-118344345D01*
X162543198Y-118522488D01*
X162543203Y-118522495D01*
X162671352Y-118678647D01*
X162780016Y-118767824D01*
X162827506Y-118806798D01*
X162827509Y-118806799D01*
X162827511Y-118806801D01*
X163005654Y-118902021D01*
X163005656Y-118902021D01*
X163005659Y-118902023D01*
X163198967Y-118960662D01*
X163349620Y-118975500D01*
X163349623Y-118975500D01*
X163650377Y-118975500D01*
X163650380Y-118975500D01*
X163801033Y-118960662D01*
X163994341Y-118902023D01*
X164172494Y-118806798D01*
X164328647Y-118678647D01*
X164372675Y-118624999D01*
X167344815Y-118624999D01*
X167363503Y-118802805D01*
X167363504Y-118802807D01*
X167418747Y-118972829D01*
X167418750Y-118972835D01*
X167508141Y-119127665D01*
X167549812Y-119173946D01*
X167627764Y-119260521D01*
X167627767Y-119260523D01*
X167627770Y-119260526D01*
X167772407Y-119365612D01*
X167935733Y-119438329D01*
X168110609Y-119475500D01*
X168110610Y-119475500D01*
X168289389Y-119475500D01*
X168289391Y-119475500D01*
X168464267Y-119438329D01*
X168627593Y-119365612D01*
X168772230Y-119260526D01*
X168891859Y-119127665D01*
X168981250Y-118972835D01*
X169036497Y-118802803D01*
X169055185Y-118625000D01*
X169036497Y-118447197D01*
X168981250Y-118277165D01*
X168891859Y-118122335D01*
X168839611Y-118064308D01*
X168772235Y-117989478D01*
X168772232Y-117989476D01*
X168772231Y-117989475D01*
X168772230Y-117989474D01*
X168627593Y-117884388D01*
X168464267Y-117811671D01*
X168464265Y-117811670D01*
X168336594Y-117784533D01*
X168289391Y-117774500D01*
X168110609Y-117774500D01*
X168079954Y-117781015D01*
X167935733Y-117811670D01*
X167935728Y-117811672D01*
X167772408Y-117884387D01*
X167627768Y-117989475D01*
X167508140Y-118122336D01*
X167418750Y-118277164D01*
X167418747Y-118277170D01*
X167363504Y-118447192D01*
X167363503Y-118447194D01*
X167344815Y-118624999D01*
X164372675Y-118624999D01*
X164456798Y-118522494D01*
X164527546Y-118390135D01*
X164552021Y-118344345D01*
X164552021Y-118344344D01*
X164552023Y-118344341D01*
X164610662Y-118151033D01*
X164630462Y-117950000D01*
X164610662Y-117748967D01*
X164552023Y-117555659D01*
X164552021Y-117555656D01*
X164552021Y-117555654D01*
X164456801Y-117377511D01*
X164456799Y-117377509D01*
X164456798Y-117377506D01*
X164417824Y-117330016D01*
X164328647Y-117221352D01*
X164172495Y-117093203D01*
X164172488Y-117093198D01*
X163994345Y-116997978D01*
X163801031Y-116939337D01*
X163690900Y-116928490D01*
X163650380Y-116924500D01*
X163349620Y-116924500D01*
X163312433Y-116928162D01*
X163198968Y-116939337D01*
X163005654Y-116997978D01*
X162827511Y-117093198D01*
X162827504Y-117093203D01*
X162671352Y-117221352D01*
X162543203Y-117377504D01*
X162543198Y-117377511D01*
X162447978Y-117555654D01*
X162389337Y-117748968D01*
X162369538Y-117950000D01*
X160100500Y-117950000D01*
X160100500Y-113500000D01*
X162369538Y-113500000D01*
X162389337Y-113701031D01*
X162447978Y-113894345D01*
X162543198Y-114072488D01*
X162543203Y-114072495D01*
X162671352Y-114228647D01*
X162725268Y-114272894D01*
X162827506Y-114356798D01*
X162827509Y-114356799D01*
X162827511Y-114356801D01*
X163005654Y-114452021D01*
X163005656Y-114452021D01*
X163005659Y-114452023D01*
X163198967Y-114510662D01*
X163349620Y-114525500D01*
X163349623Y-114525500D01*
X163650377Y-114525500D01*
X163650380Y-114525500D01*
X163801033Y-114510662D01*
X163994341Y-114452023D01*
X164172494Y-114356798D01*
X164328647Y-114228647D01*
X164456798Y-114072494D01*
X164552023Y-113894341D01*
X164610662Y-113701033D01*
X164630462Y-113500000D01*
X164610662Y-113298967D01*
X164552023Y-113105659D01*
X164552021Y-113105656D01*
X164552021Y-113105654D01*
X164456801Y-112927511D01*
X164456799Y-112927509D01*
X164456798Y-112927506D01*
X164417824Y-112880016D01*
X164328647Y-112771352D01*
X164172495Y-112643203D01*
X164172488Y-112643198D01*
X163994345Y-112547978D01*
X163801031Y-112489337D01*
X163690900Y-112478490D01*
X163650380Y-112474500D01*
X163349620Y-112474500D01*
X163312433Y-112478162D01*
X163198968Y-112489337D01*
X163005654Y-112547978D01*
X162827511Y-112643198D01*
X162827504Y-112643203D01*
X162671352Y-112771352D01*
X162543203Y-112927504D01*
X162543198Y-112927511D01*
X162447978Y-113105654D01*
X162389337Y-113298968D01*
X162369538Y-113500000D01*
X160100500Y-113500000D01*
X160100500Y-112674500D01*
X160120185Y-112607461D01*
X160172989Y-112561706D01*
X160224500Y-112550500D01*
X161000743Y-112550500D01*
X161152439Y-112535074D01*
X161346579Y-112474162D01*
X161346580Y-112474161D01*
X161346588Y-112474159D01*
X161524502Y-112375409D01*
X161678895Y-112242866D01*
X161803448Y-112081958D01*
X161893060Y-111899271D01*
X161944063Y-111702285D01*
X161954369Y-111499064D01*
X161923556Y-111297929D01*
X161852886Y-111107113D01*
X161745252Y-110934429D01*
X161643348Y-110827227D01*
X161605061Y-110786949D01*
X161605060Y-110786948D01*
X161605059Y-110786947D01*
X161504526Y-110716974D01*
X161438050Y-110670705D01*
X161251056Y-110590459D01*
X161051741Y-110549500D01*
X160224500Y-110549500D01*
X160157461Y-110529815D01*
X160111706Y-110477011D01*
X160100500Y-110425500D01*
X160100500Y-100900002D01*
X161144751Y-100900002D01*
X161163685Y-101068056D01*
X161219545Y-101227694D01*
X161219547Y-101227697D01*
X161309518Y-101370884D01*
X161309523Y-101370890D01*
X161429109Y-101490476D01*
X161429115Y-101490481D01*
X161572302Y-101580452D01*
X161572305Y-101580454D01*
X161572309Y-101580455D01*
X161572310Y-101580456D01*
X161630639Y-101600866D01*
X161731943Y-101636314D01*
X161899997Y-101655249D01*
X161900000Y-101655249D01*
X161900003Y-101655249D01*
X162068056Y-101636314D01*
X162091656Y-101628056D01*
X162227690Y-101580456D01*
X162284904Y-101544505D01*
X162350876Y-101525500D01*
X162839548Y-101525500D01*
X162906587Y-101545185D01*
X162927229Y-101561819D01*
X163238182Y-101872772D01*
X163271666Y-101934093D01*
X163274500Y-101960451D01*
X163274500Y-105117255D01*
X163272775Y-105132872D01*
X163273061Y-105132899D01*
X163272326Y-105140665D01*
X163274500Y-105209814D01*
X163274500Y-105239343D01*
X163274501Y-105239360D01*
X163275368Y-105246231D01*
X163275826Y-105252050D01*
X163277290Y-105298624D01*
X163277291Y-105298627D01*
X163282880Y-105317867D01*
X163286824Y-105336911D01*
X163289336Y-105356792D01*
X163299533Y-105382547D01*
X163306490Y-105400119D01*
X163308382Y-105405647D01*
X163321381Y-105450388D01*
X163331580Y-105467634D01*
X163340136Y-105485100D01*
X163343869Y-105494527D01*
X163347514Y-105503732D01*
X163374898Y-105541423D01*
X163378106Y-105546307D01*
X163401827Y-105586416D01*
X163401833Y-105586424D01*
X163415990Y-105600580D01*
X163428627Y-105615375D01*
X163440406Y-105631587D01*
X163458638Y-105646670D01*
X163476309Y-105661288D01*
X163480620Y-105665210D01*
X163929097Y-106113687D01*
X164357854Y-106542444D01*
X164391339Y-106603767D01*
X164386355Y-106673459D01*
X164344483Y-106729392D01*
X164320609Y-106743404D01*
X164172408Y-106809387D01*
X164027768Y-106914475D01*
X163908140Y-107047336D01*
X163818750Y-107202164D01*
X163818747Y-107202170D01*
X163763504Y-107372192D01*
X163763503Y-107372194D01*
X163746869Y-107530454D01*
X163744815Y-107550000D01*
X163747349Y-107574105D01*
X163763503Y-107727805D01*
X163763504Y-107727807D01*
X163818747Y-107897829D01*
X163818750Y-107897835D01*
X163908141Y-108052665D01*
X163938362Y-108086229D01*
X164027764Y-108185521D01*
X164027767Y-108185523D01*
X164027770Y-108185526D01*
X164172407Y-108290612D01*
X164335733Y-108363329D01*
X164510609Y-108400500D01*
X164510610Y-108400500D01*
X164689389Y-108400500D01*
X164689391Y-108400500D01*
X164864267Y-108363329D01*
X165027593Y-108290612D01*
X165172230Y-108185526D01*
X165172646Y-108185065D01*
X165198148Y-108156741D01*
X165291859Y-108052665D01*
X165381250Y-107897835D01*
X165400137Y-107839704D01*
X165439575Y-107782028D01*
X165503933Y-107754829D01*
X165572780Y-107766743D01*
X165605750Y-107790340D01*
X166399194Y-108583784D01*
X166409019Y-108596048D01*
X166409240Y-108595866D01*
X166414210Y-108601873D01*
X166414213Y-108601876D01*
X166414214Y-108601877D01*
X166464651Y-108649241D01*
X166485530Y-108670120D01*
X166491004Y-108674366D01*
X166495442Y-108678156D01*
X166529418Y-108710062D01*
X166529422Y-108710064D01*
X166546973Y-108719713D01*
X166563231Y-108730392D01*
X166579064Y-108742674D01*
X166601015Y-108752172D01*
X166621837Y-108761183D01*
X166627081Y-108763752D01*
X166667908Y-108786197D01*
X166687312Y-108791179D01*
X166705710Y-108797478D01*
X166724105Y-108805438D01*
X166770129Y-108812726D01*
X166775832Y-108813907D01*
X166820981Y-108825500D01*
X166841016Y-108825500D01*
X166860413Y-108827026D01*
X166880196Y-108830160D01*
X166926583Y-108825775D01*
X166932422Y-108825500D01*
X170199124Y-108825500D01*
X170265095Y-108844505D01*
X170322310Y-108880456D01*
X170443621Y-108922904D01*
X170481943Y-108936314D01*
X170649997Y-108955249D01*
X170650000Y-108955249D01*
X170650003Y-108955249D01*
X170818059Y-108936313D01*
X170818060Y-108936313D01*
X170884545Y-108913049D01*
X170954323Y-108909486D01*
X171014951Y-108944215D01*
X171047179Y-109006208D01*
X171049500Y-109030090D01*
X171049500Y-118787768D01*
X171029815Y-118854807D01*
X171013181Y-118875449D01*
X169914358Y-119974272D01*
X169900729Y-119986051D01*
X169881468Y-120000390D01*
X169847898Y-120040397D01*
X169844253Y-120044376D01*
X169838409Y-120050222D01*
X169818059Y-120075959D01*
X169768695Y-120134789D01*
X169764729Y-120140819D01*
X169764682Y-120140788D01*
X169760630Y-120147147D01*
X169760679Y-120147177D01*
X169756889Y-120153321D01*
X169724424Y-120222941D01*
X169689960Y-120291566D01*
X169687488Y-120298357D01*
X169687432Y-120298336D01*
X169684960Y-120305450D01*
X169685015Y-120305469D01*
X169682742Y-120312327D01*
X169674975Y-120349945D01*
X169667207Y-120387565D01*
X169661494Y-120411672D01*
X169649498Y-120462286D01*
X169648661Y-120469454D01*
X169648601Y-120469447D01*
X169647835Y-120476945D01*
X169647895Y-120476951D01*
X169647265Y-120484140D01*
X169649500Y-120560916D01*
X169649500Y-122186294D01*
X169648191Y-122204263D01*
X169644710Y-122228025D01*
X169649264Y-122280064D01*
X169649500Y-122285470D01*
X169649500Y-122293709D01*
X169653306Y-122326274D01*
X169660000Y-122402791D01*
X169661461Y-122409867D01*
X169661403Y-122409878D01*
X169663034Y-122417237D01*
X169663092Y-122417224D01*
X169664757Y-122424250D01*
X169691025Y-122496424D01*
X169715185Y-122569331D01*
X169718236Y-122575874D01*
X169718182Y-122575898D01*
X169721470Y-122582688D01*
X169721521Y-122582663D01*
X169724761Y-122589113D01*
X169724762Y-122589114D01*
X169724763Y-122589117D01*
X169764280Y-122649200D01*
X169766965Y-122653283D01*
X169807287Y-122718655D01*
X169811766Y-122724319D01*
X169811719Y-122724356D01*
X169816482Y-122730202D01*
X169816528Y-122730164D01*
X169821173Y-122735700D01*
X169877017Y-122788385D01*
X170624270Y-123535638D01*
X170636051Y-123549270D01*
X170650388Y-123568528D01*
X170690409Y-123602111D01*
X170694397Y-123605766D01*
X170700216Y-123611585D01*
X170700220Y-123611588D01*
X170700223Y-123611591D01*
X170725959Y-123631940D01*
X170784786Y-123681302D01*
X170784787Y-123681302D01*
X170784789Y-123681304D01*
X170790818Y-123685270D01*
X170790785Y-123685319D01*
X170797143Y-123689369D01*
X170797175Y-123689319D01*
X170803317Y-123693107D01*
X170803319Y-123693108D01*
X170803323Y-123693111D01*
X170820108Y-123700938D01*
X170840582Y-123712998D01*
X170947407Y-123790612D01*
X171007888Y-123817539D01*
X171061123Y-123862788D01*
X171081445Y-123929637D01*
X171062400Y-123996861D01*
X171045132Y-124018499D01*
X170721628Y-124342003D01*
X170660305Y-124375488D01*
X170590613Y-124370504D01*
X170534680Y-124328632D01*
X170511831Y-124275854D01*
X170498191Y-124198496D01*
X170498190Y-124198495D01*
X170498190Y-124198491D01*
X170428766Y-124037548D01*
X170428762Y-124037542D01*
X170428759Y-124037537D01*
X170324104Y-123896961D01*
X170324096Y-123896952D01*
X170189827Y-123784287D01*
X170189825Y-123784286D01*
X170033195Y-123705623D01*
X170033193Y-123705622D01*
X170033192Y-123705622D01*
X169862639Y-123665200D01*
X169731333Y-123665200D01*
X169626992Y-123677396D01*
X169600905Y-123680445D01*
X169600903Y-123680446D01*
X169436202Y-123740391D01*
X169289756Y-123836710D01*
X169169474Y-123964201D01*
X169081836Y-124115995D01*
X169031565Y-124283910D01*
X169031564Y-124283916D01*
X169021373Y-124458893D01*
X169021373Y-124458894D01*
X169051808Y-124631502D01*
X169051809Y-124631505D01*
X169051810Y-124631509D01*
X169121234Y-124792452D01*
X169121236Y-124792454D01*
X169121240Y-124792462D01*
X169225895Y-124933038D01*
X169225903Y-124933047D01*
X169360173Y-125045713D01*
X169516808Y-125124378D01*
X169642129Y-125154079D01*
X169702821Y-125188694D01*
X169735165Y-125250626D01*
X169728892Y-125320214D01*
X169701213Y-125362418D01*
X169445632Y-125617999D01*
X169384309Y-125651484D01*
X169314617Y-125646500D01*
X169258684Y-125604628D01*
X169250573Y-125592332D01*
X169166859Y-125447335D01*
X169134695Y-125411613D01*
X169047235Y-125314478D01*
X169047232Y-125314476D01*
X169047231Y-125314475D01*
X169047230Y-125314474D01*
X168902593Y-125209388D01*
X168739267Y-125136671D01*
X168739265Y-125136670D01*
X168611594Y-125109533D01*
X168564391Y-125099500D01*
X168385609Y-125099500D01*
X168354954Y-125106015D01*
X168210733Y-125136670D01*
X168210728Y-125136672D01*
X168047408Y-125209388D01*
X168047403Y-125209390D01*
X167947885Y-125281695D01*
X167882079Y-125305175D01*
X167814025Y-125289349D01*
X167802114Y-125281695D01*
X167702593Y-125209388D01*
X167539267Y-125136671D01*
X167539265Y-125136670D01*
X167411594Y-125109533D01*
X167364391Y-125099500D01*
X167364390Y-125099500D01*
X167349500Y-125099500D01*
X167282461Y-125079815D01*
X167236706Y-125027011D01*
X167225500Y-124975500D01*
X167225500Y-123232737D01*
X167227224Y-123217123D01*
X167226938Y-123217096D01*
X167227672Y-123209333D01*
X167227390Y-123200373D01*
X167225500Y-123140202D01*
X167225500Y-123110650D01*
X167224629Y-123103759D01*
X167224172Y-123097945D01*
X167224098Y-123095602D01*
X167222709Y-123051372D01*
X167217120Y-123032137D01*
X167213174Y-123013084D01*
X167210664Y-122993208D01*
X167193501Y-122949859D01*
X167191614Y-122944346D01*
X167178617Y-122899610D01*
X167178616Y-122899608D01*
X167168421Y-122882369D01*
X167159860Y-122864893D01*
X167152486Y-122846269D01*
X167152486Y-122846267D01*
X167139070Y-122827803D01*
X167125083Y-122808550D01*
X167121900Y-122803705D01*
X167098170Y-122763579D01*
X167098165Y-122763573D01*
X167084005Y-122749413D01*
X167071370Y-122734620D01*
X167061982Y-122721700D01*
X167059594Y-122718413D01*
X167059094Y-122717999D01*
X167023693Y-122688713D01*
X167019381Y-122684790D01*
X166850803Y-122516211D01*
X166840980Y-122503950D01*
X166840759Y-122504134D01*
X166835786Y-122498123D01*
X166816290Y-122479815D01*
X166785364Y-122450773D01*
X166774919Y-122440328D01*
X166764475Y-122429883D01*
X166758986Y-122425625D01*
X166754561Y-122421847D01*
X166720582Y-122389938D01*
X166720580Y-122389936D01*
X166720577Y-122389935D01*
X166703029Y-122380288D01*
X166686763Y-122369604D01*
X166670933Y-122357325D01*
X166628169Y-122338819D01*
X166622924Y-122336249D01*
X166607751Y-122327908D01*
X166558485Y-122278364D01*
X166543825Y-122210049D01*
X166568427Y-122144654D01*
X166579797Y-122131569D01*
X167319177Y-121392188D01*
X167359111Y-121367729D01*
X167358329Y-121365972D01*
X167364263Y-121363329D01*
X167364267Y-121363329D01*
X167527593Y-121290612D01*
X167672230Y-121185526D01*
X167791859Y-121052665D01*
X167881250Y-120897835D01*
X167936497Y-120727803D01*
X167955185Y-120550000D01*
X167936497Y-120372197D01*
X167904644Y-120274164D01*
X167881252Y-120202170D01*
X167881249Y-120202164D01*
X167853051Y-120153323D01*
X167791859Y-120047335D01*
X167745003Y-119995296D01*
X167672235Y-119914478D01*
X167672232Y-119914476D01*
X167672231Y-119914475D01*
X167672230Y-119914474D01*
X167527593Y-119809388D01*
X167364267Y-119736671D01*
X167364265Y-119736670D01*
X167236594Y-119709533D01*
X167189391Y-119699500D01*
X167010609Y-119699500D01*
X166979954Y-119706015D01*
X166835733Y-119736670D01*
X166835728Y-119736672D01*
X166672408Y-119809387D01*
X166527768Y-119914475D01*
X166408140Y-120047336D01*
X166318750Y-120202164D01*
X166318746Y-120202174D01*
X166295354Y-120274164D01*
X166265105Y-120323525D01*
X165625451Y-120963181D01*
X165564128Y-120996666D01*
X165537770Y-120999500D01*
X164263705Y-120999500D01*
X164245735Y-120998191D01*
X164221972Y-120994710D01*
X164176890Y-120998655D01*
X164169933Y-120999264D01*
X164164532Y-120999500D01*
X164156287Y-120999500D01*
X164130222Y-121002546D01*
X164123705Y-121003308D01*
X164118403Y-121003771D01*
X164047201Y-121010001D01*
X164040134Y-121011461D01*
X164040122Y-121011404D01*
X164032753Y-121013038D01*
X164032767Y-121013095D01*
X164025739Y-121014760D01*
X163970536Y-121034852D01*
X163953563Y-121041030D01*
X163880666Y-121065186D01*
X163880664Y-121065186D01*
X163880661Y-121065188D01*
X163874122Y-121068237D01*
X163874097Y-121068185D01*
X163867308Y-121071471D01*
X163867334Y-121071522D01*
X163860884Y-121074761D01*
X163796716Y-121116964D01*
X163731347Y-121157285D01*
X163725677Y-121161769D01*
X163725641Y-121161723D01*
X163719798Y-121166484D01*
X163719835Y-121166528D01*
X163714310Y-121171164D01*
X163714304Y-121171169D01*
X163714304Y-121171170D01*
X163700760Y-121185526D01*
X163661614Y-121227017D01*
X162964358Y-121924272D01*
X162950729Y-121936051D01*
X162931468Y-121950390D01*
X162897898Y-121990397D01*
X162894253Y-121994376D01*
X162888409Y-122000222D01*
X162868059Y-122025959D01*
X162818695Y-122084789D01*
X162814729Y-122090819D01*
X162814682Y-122090788D01*
X162810630Y-122097147D01*
X162810679Y-122097177D01*
X162806889Y-122103321D01*
X162774424Y-122172941D01*
X162739960Y-122241566D01*
X162737488Y-122248357D01*
X162737432Y-122248336D01*
X162734960Y-122255450D01*
X162735015Y-122255469D01*
X162732742Y-122262327D01*
X162726263Y-122293709D01*
X162717207Y-122337565D01*
X162704795Y-122389936D01*
X162699498Y-122412286D01*
X162698661Y-122419454D01*
X162698601Y-122419447D01*
X162697835Y-122426945D01*
X162697895Y-122426951D01*
X162697265Y-122434140D01*
X162699500Y-122510916D01*
X162699500Y-127136294D01*
X162698191Y-127154263D01*
X162694710Y-127178025D01*
X162699264Y-127230064D01*
X162699500Y-127235470D01*
X162699500Y-127243709D01*
X162702829Y-127272197D01*
X162703306Y-127276274D01*
X162710000Y-127352791D01*
X162711461Y-127359867D01*
X162711403Y-127359878D01*
X162713034Y-127367237D01*
X162713092Y-127367224D01*
X162714757Y-127374250D01*
X162741025Y-127446424D01*
X162765185Y-127519331D01*
X162768236Y-127525874D01*
X162768182Y-127525898D01*
X162771470Y-127532688D01*
X162771521Y-127532663D01*
X162774761Y-127539113D01*
X162774762Y-127539114D01*
X162774763Y-127539117D01*
X162813901Y-127598624D01*
X162816965Y-127603283D01*
X162857287Y-127668655D01*
X162861766Y-127674319D01*
X162861719Y-127674356D01*
X162866482Y-127680202D01*
X162866528Y-127680164D01*
X162871173Y-127685700D01*
X162927018Y-127738386D01*
X168224267Y-133035634D01*
X168236048Y-133049266D01*
X168250390Y-133068530D01*
X168290420Y-133102119D01*
X168294392Y-133105759D01*
X168300224Y-133111591D01*
X168300227Y-133111594D01*
X168325947Y-133131931D01*
X168384788Y-133181304D01*
X168390818Y-133185270D01*
X168390785Y-133185319D01*
X168397143Y-133189369D01*
X168397175Y-133189319D01*
X168403320Y-133193109D01*
X168403323Y-133193111D01*
X168472936Y-133225572D01*
X168541567Y-133260040D01*
X168541572Y-133260041D01*
X168548361Y-133262513D01*
X168548340Y-133262570D01*
X168555455Y-133265043D01*
X168555475Y-133264986D01*
X168562330Y-133267258D01*
X168637557Y-133282790D01*
X168637558Y-133282790D01*
X168712279Y-133300500D01*
X168712289Y-133300500D01*
X168719452Y-133301338D01*
X168719444Y-133301397D01*
X168726945Y-133302164D01*
X168726951Y-133302105D01*
X168734140Y-133302734D01*
X168734144Y-133302733D01*
X168734145Y-133302734D01*
X168810918Y-133300500D01*
X174143259Y-133300500D01*
X174193693Y-133311219D01*
X174310733Y-133363329D01*
X174485609Y-133400500D01*
X174485610Y-133400500D01*
X174664389Y-133400500D01*
X174664391Y-133400500D01*
X174839267Y-133363329D01*
X175002593Y-133290612D01*
X175147230Y-133185526D01*
X175147417Y-133185319D01*
X175212989Y-133112493D01*
X175266859Y-133052665D01*
X175356250Y-132897835D01*
X175411497Y-132727803D01*
X175430185Y-132550000D01*
X175411497Y-132372197D01*
X175356250Y-132202165D01*
X175266859Y-132047335D01*
X175212989Y-131987506D01*
X175147235Y-131914478D01*
X175147232Y-131914476D01*
X175147231Y-131914475D01*
X175147230Y-131914474D01*
X175002593Y-131809388D01*
X174839267Y-131736671D01*
X174839265Y-131736670D01*
X174711594Y-131709533D01*
X174664391Y-131699500D01*
X174485609Y-131699500D01*
X174454954Y-131706015D01*
X174310733Y-131736670D01*
X174193694Y-131788780D01*
X174143259Y-131799500D01*
X169162229Y-131799500D01*
X169095190Y-131779815D01*
X169074548Y-131763181D01*
X164236819Y-126925451D01*
X164203334Y-126864128D01*
X164200500Y-126837770D01*
X164200500Y-126222734D01*
X164220185Y-126155695D01*
X164272989Y-126109940D01*
X164342147Y-126099996D01*
X164380150Y-126111923D01*
X164436808Y-126140378D01*
X164607361Y-126180800D01*
X164607363Y-126180800D01*
X164738659Y-126180800D01*
X164738667Y-126180800D01*
X164869093Y-126165555D01*
X165033800Y-126105607D01*
X165180243Y-126009290D01*
X165300526Y-125881797D01*
X165388165Y-125730002D01*
X165438435Y-125562088D01*
X165448627Y-125387106D01*
X165418190Y-125214491D01*
X165348766Y-125053548D01*
X165348762Y-125053542D01*
X165348759Y-125053537D01*
X165244104Y-124912961D01*
X165244096Y-124912952D01*
X165109827Y-124800287D01*
X165109825Y-124800286D01*
X164953195Y-124721623D01*
X164953193Y-124721622D01*
X164953192Y-124721622D01*
X164782639Y-124681200D01*
X164651333Y-124681200D01*
X164546992Y-124693396D01*
X164520905Y-124696445D01*
X164520902Y-124696446D01*
X164366910Y-124752494D01*
X164297181Y-124756925D01*
X164236125Y-124722954D01*
X164203128Y-124661367D01*
X164200500Y-124635972D01*
X164200500Y-124190734D01*
X164220185Y-124123695D01*
X164272989Y-124077940D01*
X164342147Y-124067996D01*
X164380150Y-124079923D01*
X164436808Y-124108378D01*
X164607361Y-124148800D01*
X164607363Y-124148800D01*
X164738659Y-124148800D01*
X164738667Y-124148800D01*
X164869093Y-124133555D01*
X165033800Y-124073607D01*
X165180243Y-123977290D01*
X165300526Y-123849797D01*
X165388165Y-123698002D01*
X165416025Y-123604941D01*
X165454107Y-123546368D01*
X165517815Y-123517679D01*
X165586920Y-123527987D01*
X165600787Y-123535515D01*
X165622678Y-123549270D01*
X165672310Y-123580456D01*
X165831941Y-123636313D01*
X165864382Y-123639968D01*
X165928795Y-123667032D01*
X165968352Y-123724626D01*
X165974500Y-123763188D01*
X165974500Y-127417255D01*
X165972775Y-127432872D01*
X165973061Y-127432899D01*
X165972326Y-127440665D01*
X165974500Y-127509814D01*
X165974500Y-127539343D01*
X165974501Y-127539360D01*
X165975368Y-127546231D01*
X165975826Y-127552050D01*
X165977290Y-127598624D01*
X165977291Y-127598627D01*
X165982880Y-127617867D01*
X165986824Y-127636911D01*
X165989336Y-127656792D01*
X166000780Y-127685696D01*
X166006490Y-127700119D01*
X166008382Y-127705647D01*
X166021381Y-127750388D01*
X166031580Y-127767634D01*
X166040138Y-127785103D01*
X166047514Y-127803732D01*
X166074898Y-127841423D01*
X166078106Y-127846307D01*
X166101827Y-127886416D01*
X166101833Y-127886424D01*
X166115990Y-127900580D01*
X166128628Y-127915376D01*
X166140405Y-127931586D01*
X166140406Y-127931587D01*
X166176309Y-127961288D01*
X166180620Y-127965210D01*
X166578738Y-128363329D01*
X166699197Y-128483788D01*
X166709022Y-128496051D01*
X166709243Y-128495869D01*
X166714214Y-128501878D01*
X166740217Y-128526295D01*
X166764635Y-128549226D01*
X166785529Y-128570120D01*
X166791011Y-128574373D01*
X166795443Y-128578157D01*
X166829418Y-128610062D01*
X166846976Y-128619714D01*
X166863235Y-128630395D01*
X166879064Y-128642673D01*
X166921838Y-128661182D01*
X166927056Y-128663738D01*
X166967908Y-128686197D01*
X166987316Y-128691180D01*
X167005717Y-128697480D01*
X167024104Y-128705437D01*
X167067488Y-128712308D01*
X167070119Y-128712725D01*
X167075839Y-128713909D01*
X167120981Y-128725500D01*
X167141016Y-128725500D01*
X167160414Y-128727026D01*
X167180194Y-128730159D01*
X167180195Y-128730160D01*
X167180195Y-128730159D01*
X167180196Y-128730160D01*
X167226583Y-128725775D01*
X167232422Y-128725500D01*
X170767257Y-128725500D01*
X170782877Y-128727224D01*
X170782904Y-128726939D01*
X170790660Y-128727671D01*
X170790667Y-128727673D01*
X170859814Y-128725500D01*
X170889350Y-128725500D01*
X170896228Y-128724630D01*
X170902041Y-128724172D01*
X170948627Y-128722709D01*
X170967869Y-128717117D01*
X170986912Y-128713174D01*
X171006792Y-128710664D01*
X171015006Y-128707411D01*
X171084580Y-128701032D01*
X171146562Y-128733281D01*
X171181269Y-128793920D01*
X171183977Y-128809739D01*
X171188503Y-128852805D01*
X171188504Y-128852807D01*
X171243747Y-129022829D01*
X171243750Y-129022835D01*
X171333141Y-129177665D01*
X171374812Y-129223946D01*
X171452764Y-129310521D01*
X171452767Y-129310523D01*
X171452770Y-129310526D01*
X171597407Y-129415612D01*
X171760733Y-129488329D01*
X171935609Y-129525500D01*
X171935610Y-129525500D01*
X172114389Y-129525500D01*
X172114391Y-129525500D01*
X172289267Y-129488329D01*
X172452593Y-129415612D01*
X172597230Y-129310526D01*
X172716859Y-129177665D01*
X172806250Y-129022835D01*
X172861497Y-128852803D01*
X172880185Y-128675000D01*
X172861497Y-128497197D01*
X172830078Y-128400500D01*
X172806252Y-128327170D01*
X172806249Y-128327164D01*
X172727410Y-128190610D01*
X172716859Y-128172335D01*
X172638693Y-128085523D01*
X172597235Y-128039478D01*
X172597232Y-128039476D01*
X172597231Y-128039475D01*
X172597230Y-128039474D01*
X172452593Y-127934388D01*
X172289267Y-127861671D01*
X172289265Y-127861670D01*
X172251762Y-127853699D01*
X172190280Y-127820507D01*
X172156504Y-127759344D01*
X172161156Y-127689629D01*
X172189860Y-127644730D01*
X172422771Y-127411819D01*
X172484095Y-127378334D01*
X172510453Y-127375500D01*
X172899124Y-127375500D01*
X172965095Y-127394505D01*
X173022310Y-127430456D01*
X173140082Y-127471666D01*
X173181943Y-127486314D01*
X173349997Y-127505249D01*
X173350000Y-127505249D01*
X173350003Y-127505249D01*
X173518056Y-127486314D01*
X173518059Y-127486313D01*
X173677690Y-127430456D01*
X173677692Y-127430454D01*
X173677694Y-127430454D01*
X173677697Y-127430452D01*
X173820884Y-127340481D01*
X173820885Y-127340480D01*
X173820890Y-127340477D01*
X173940477Y-127220890D01*
X173967411Y-127178025D01*
X174030452Y-127077697D01*
X174030454Y-127077694D01*
X174030454Y-127077692D01*
X174030456Y-127077690D01*
X174086313Y-126918059D01*
X174086313Y-126918058D01*
X174086314Y-126918056D01*
X174105249Y-126750002D01*
X174105249Y-126749997D01*
X174086314Y-126581943D01*
X174030454Y-126422305D01*
X174030452Y-126422302D01*
X173940481Y-126279115D01*
X173940476Y-126279109D01*
X173820890Y-126159523D01*
X173820884Y-126159518D01*
X173677697Y-126069547D01*
X173677694Y-126069545D01*
X173518056Y-126013685D01*
X173350003Y-125994751D01*
X173349997Y-125994751D01*
X173181943Y-126013685D01*
X173022307Y-126069545D01*
X172965096Y-126105494D01*
X172899124Y-126124500D01*
X172282737Y-126124500D01*
X172267120Y-126122776D01*
X172267093Y-126123062D01*
X172259331Y-126122327D01*
X172190203Y-126124500D01*
X172160650Y-126124500D01*
X172159929Y-126124590D01*
X172153757Y-126125369D01*
X172147945Y-126125826D01*
X172101378Y-126127290D01*
X172101367Y-126127292D01*
X172082134Y-126132879D01*
X172063094Y-126136822D01*
X172043217Y-126139334D01*
X172043210Y-126139335D01*
X172043208Y-126139336D01*
X172043206Y-126139336D01*
X172043205Y-126139337D01*
X171999868Y-126156494D01*
X171994342Y-126158386D01*
X171949611Y-126171382D01*
X171949608Y-126171383D01*
X171932363Y-126181581D01*
X171914901Y-126190135D01*
X171896272Y-126197511D01*
X171896267Y-126197513D01*
X171858564Y-126224906D01*
X171853682Y-126228112D01*
X171813580Y-126251828D01*
X171799408Y-126266000D01*
X171784623Y-126278628D01*
X171768412Y-126290407D01*
X171738709Y-126326310D01*
X171734776Y-126330631D01*
X171176277Y-126889132D01*
X170627228Y-127438181D01*
X170565905Y-127471666D01*
X170539547Y-127474500D01*
X170011230Y-127474500D01*
X169944191Y-127454815D01*
X169898436Y-127402011D01*
X169888492Y-127332853D01*
X169917517Y-127269297D01*
X169923549Y-127262819D01*
X172861910Y-124324456D01*
X173477573Y-123708792D01*
X173538894Y-123675309D01*
X173608586Y-123680293D01*
X173664519Y-123722165D01*
X173672640Y-123734476D01*
X173683141Y-123752665D01*
X173802764Y-123885521D01*
X173802767Y-123885523D01*
X173802770Y-123885526D01*
X173947407Y-123990612D01*
X174110733Y-124063329D01*
X174285609Y-124100500D01*
X174285610Y-124100500D01*
X174464389Y-124100500D01*
X174464391Y-124100500D01*
X174639267Y-124063329D01*
X174756306Y-124011219D01*
X174806741Y-124000500D01*
X177886295Y-124000500D01*
X177904265Y-124001809D01*
X177928023Y-124005289D01*
X177980068Y-124000735D01*
X177985470Y-124000500D01*
X177993704Y-124000500D01*
X177993709Y-124000500D01*
X178005327Y-123999141D01*
X178026276Y-123996693D01*
X178039028Y-123995577D01*
X178102797Y-123989999D01*
X178102805Y-123989996D01*
X178109866Y-123988539D01*
X178109878Y-123988598D01*
X178117243Y-123986965D01*
X178117229Y-123986906D01*
X178124246Y-123985241D01*
X178124255Y-123985241D01*
X178196423Y-123958974D01*
X178269334Y-123934814D01*
X178269343Y-123934807D01*
X178275882Y-123931760D01*
X178275908Y-123931816D01*
X178282690Y-123928532D01*
X178282663Y-123928478D01*
X178289106Y-123925240D01*
X178289117Y-123925237D01*
X178353283Y-123883034D01*
X178418656Y-123842712D01*
X178418662Y-123842705D01*
X178424325Y-123838229D01*
X178424362Y-123838277D01*
X178430204Y-123833518D01*
X178430164Y-123833471D01*
X178435686Y-123828836D01*
X178435696Y-123828830D01*
X178457398Y-123805825D01*
X178488386Y-123772982D01*
X178979426Y-123281941D01*
X179495756Y-122765609D01*
X179557077Y-122732126D01*
X179626768Y-122737110D01*
X179682702Y-122778981D01*
X179688428Y-122787318D01*
X179695870Y-122799162D01*
X179698710Y-122803682D01*
X179709524Y-122820891D01*
X179829109Y-122940476D01*
X179829115Y-122940481D01*
X179972302Y-123030452D01*
X179972305Y-123030454D01*
X179972309Y-123030455D01*
X179972310Y-123030456D01*
X179977140Y-123032146D01*
X180131944Y-123086314D01*
X180200947Y-123094088D01*
X180214383Y-123095602D01*
X180278797Y-123122668D01*
X180318352Y-123180262D01*
X180324500Y-123218822D01*
X180324500Y-147287769D01*
X180304815Y-147354808D01*
X180288181Y-147375450D01*
X172755820Y-154907810D01*
X172715894Y-154932289D01*
X172716669Y-154934029D01*
X172710736Y-154936670D01*
X172710733Y-154936671D01*
X172547408Y-155009388D01*
X172547406Y-155009389D01*
X172402768Y-155114475D01*
X172283140Y-155247336D01*
X172193750Y-155402164D01*
X172193747Y-155402170D01*
X172138504Y-155572192D01*
X172138503Y-155572194D01*
X172119815Y-155749999D01*
X172138503Y-155927805D01*
X172138504Y-155927807D01*
X172193747Y-156097829D01*
X172193750Y-156097835D01*
X172283141Y-156252665D01*
X172324812Y-156298946D01*
X172402764Y-156385521D01*
X172402767Y-156385523D01*
X172402770Y-156385526D01*
X172547407Y-156490612D01*
X172710733Y-156563329D01*
X172885609Y-156600500D01*
X172885610Y-156600500D01*
X173064389Y-156600500D01*
X173064391Y-156600500D01*
X173239267Y-156563329D01*
X173402593Y-156490612D01*
X173547230Y-156385526D01*
X173666859Y-156252665D01*
X173756250Y-156097835D01*
X173779644Y-156025834D01*
X173809890Y-155976476D01*
X181212819Y-148573548D01*
X181274142Y-148540063D01*
X181343834Y-148545047D01*
X181399767Y-148586919D01*
X181424184Y-148652383D01*
X181424500Y-148661229D01*
X181424500Y-151586294D01*
X181423191Y-151604263D01*
X181419710Y-151628025D01*
X181423250Y-151668478D01*
X181423804Y-151674814D01*
X181424264Y-151680064D01*
X181424500Y-151685470D01*
X181424500Y-151693709D01*
X181428306Y-151726274D01*
X181435000Y-151802791D01*
X181436461Y-151809867D01*
X181436403Y-151809878D01*
X181438034Y-151817237D01*
X181438092Y-151817224D01*
X181439757Y-151824250D01*
X181466025Y-151896424D01*
X181490185Y-151969331D01*
X181493236Y-151975874D01*
X181493182Y-151975898D01*
X181496470Y-151982688D01*
X181496521Y-151982663D01*
X181499761Y-151989113D01*
X181499762Y-151989114D01*
X181499763Y-151989117D01*
X181513097Y-152009390D01*
X181541965Y-152053283D01*
X181582287Y-152118655D01*
X181586766Y-152124319D01*
X181586719Y-152124356D01*
X181591482Y-152130202D01*
X181591528Y-152130164D01*
X181596173Y-152135700D01*
X181652017Y-152188385D01*
X182440106Y-152976474D01*
X182470356Y-153025837D01*
X182493747Y-153097828D01*
X182493750Y-153097835D01*
X182583141Y-153252665D01*
X182600728Y-153272197D01*
X182702764Y-153385521D01*
X182702767Y-153385523D01*
X182702770Y-153385526D01*
X182847407Y-153490612D01*
X183010733Y-153563329D01*
X183185609Y-153600500D01*
X183185610Y-153600500D01*
X183364389Y-153600500D01*
X183364391Y-153600500D01*
X183539267Y-153563329D01*
X183702593Y-153490612D01*
X183847230Y-153385526D01*
X183966859Y-153252665D01*
X184056250Y-153097835D01*
X184111497Y-152927803D01*
X184130185Y-152750000D01*
X184111497Y-152572197D01*
X184056250Y-152402165D01*
X183966859Y-152247335D01*
X183913780Y-152188385D01*
X183847235Y-152114478D01*
X183847232Y-152114476D01*
X183847231Y-152114475D01*
X183847230Y-152114474D01*
X183702593Y-152009388D01*
X183539267Y-151936671D01*
X183539265Y-151936670D01*
X183533330Y-151934028D01*
X183534106Y-151932284D01*
X183494175Y-151907808D01*
X182961819Y-151375451D01*
X182928334Y-151314128D01*
X182925500Y-151287770D01*
X182925500Y-151098339D01*
X182945185Y-151031300D01*
X182997989Y-150985545D01*
X183067147Y-150975601D01*
X183075278Y-150977048D01*
X183185609Y-151000500D01*
X183185610Y-151000500D01*
X183364389Y-151000500D01*
X183364391Y-151000500D01*
X183539267Y-150963329D01*
X183702593Y-150890612D01*
X183847230Y-150785526D01*
X183850960Y-150781384D01*
X183882191Y-150746698D01*
X183966859Y-150652665D01*
X184056250Y-150497835D01*
X184079644Y-150425834D01*
X184109890Y-150376476D01*
X185460642Y-149025724D01*
X185474271Y-149013947D01*
X185493530Y-148999610D01*
X185527101Y-148959601D01*
X185530761Y-148955606D01*
X185536590Y-148949778D01*
X185556941Y-148924039D01*
X185570036Y-148908433D01*
X185606302Y-148865214D01*
X185606306Y-148865205D01*
X185610274Y-148859175D01*
X185610325Y-148859208D01*
X185614372Y-148852856D01*
X185614320Y-148852824D01*
X185618112Y-148846675D01*
X185650575Y-148777058D01*
X185685036Y-148708440D01*
X185685040Y-148708433D01*
X185685042Y-148708421D01*
X185687509Y-148701646D01*
X185687567Y-148701667D01*
X185690043Y-148694546D01*
X185689986Y-148694528D01*
X185692257Y-148687673D01*
X185707792Y-148612434D01*
X185713839Y-148586919D01*
X185725500Y-148537721D01*
X185725500Y-148537710D01*
X185726338Y-148530548D01*
X185726398Y-148530555D01*
X185727164Y-148523055D01*
X185727105Y-148523050D01*
X185727734Y-148515860D01*
X185725500Y-148439083D01*
X185725500Y-145012500D01*
X189819815Y-145012500D01*
X189838503Y-145190305D01*
X189838504Y-145190307D01*
X189893747Y-145360329D01*
X189893750Y-145360335D01*
X189983141Y-145515165D01*
X190024812Y-145561446D01*
X190102764Y-145648021D01*
X190102767Y-145648023D01*
X190102770Y-145648026D01*
X190247407Y-145753112D01*
X190410733Y-145825829D01*
X190585609Y-145863000D01*
X190585610Y-145863000D01*
X190764389Y-145863000D01*
X190764391Y-145863000D01*
X190939267Y-145825829D01*
X191102593Y-145753112D01*
X191102597Y-145753108D01*
X191108224Y-145749861D01*
X191108904Y-145751039D01*
X191167911Y-145729980D01*
X191235966Y-145745800D01*
X191246783Y-145752752D01*
X191247402Y-145753109D01*
X191247404Y-145753110D01*
X191247407Y-145753112D01*
X191410733Y-145825829D01*
X191585609Y-145863000D01*
X191585610Y-145863000D01*
X191764389Y-145863000D01*
X191764391Y-145863000D01*
X191939267Y-145825829D01*
X192102593Y-145753112D01*
X192247230Y-145648026D01*
X192366859Y-145515165D01*
X192456250Y-145360335D01*
X192511497Y-145190303D01*
X192530185Y-145012500D01*
X192511497Y-144834697D01*
X192456250Y-144664665D01*
X192375326Y-144524500D01*
X192358853Y-144456599D01*
X192375326Y-144400500D01*
X192388909Y-144376974D01*
X192456250Y-144260335D01*
X192511497Y-144090303D01*
X192530185Y-143912500D01*
X192511497Y-143734697D01*
X192464795Y-143590964D01*
X192456252Y-143564670D01*
X192456251Y-143564669D01*
X192456250Y-143564665D01*
X192404190Y-143474496D01*
X192387719Y-143406601D01*
X192404190Y-143350504D01*
X192456250Y-143260335D01*
X192511497Y-143090303D01*
X192530185Y-142912500D01*
X192511497Y-142734697D01*
X192483873Y-142649681D01*
X192456252Y-142564670D01*
X192456250Y-142564667D01*
X192456250Y-142564665D01*
X192375326Y-142424500D01*
X192358853Y-142356599D01*
X192375326Y-142300500D01*
X192400256Y-142257319D01*
X192456250Y-142160335D01*
X192511497Y-141990303D01*
X192530185Y-141812500D01*
X192511497Y-141634697D01*
X192456250Y-141464665D01*
X192366859Y-141309835D01*
X192320003Y-141257796D01*
X192247235Y-141176978D01*
X192247232Y-141176976D01*
X192247231Y-141176975D01*
X192247230Y-141176974D01*
X192102593Y-141071888D01*
X191939267Y-140999171D01*
X191939265Y-140999170D01*
X191811594Y-140972033D01*
X191764391Y-140962000D01*
X191585609Y-140962000D01*
X191554954Y-140968515D01*
X191410733Y-140999170D01*
X191410728Y-140999172D01*
X191247408Y-141071887D01*
X191102768Y-141176975D01*
X190983140Y-141309836D01*
X190893750Y-141464664D01*
X190893747Y-141464670D01*
X190838504Y-141634692D01*
X190838503Y-141634694D01*
X190819815Y-141812499D01*
X190838503Y-141990305D01*
X190838504Y-141990307D01*
X190893747Y-142160329D01*
X190893749Y-142160332D01*
X190893750Y-142160335D01*
X190933745Y-142229608D01*
X190974674Y-142300501D01*
X190991146Y-142368401D01*
X190974674Y-142424499D01*
X190893749Y-142564667D01*
X190893747Y-142564670D01*
X190838504Y-142734692D01*
X190838503Y-142734694D01*
X190819815Y-142912500D01*
X190838503Y-143090305D01*
X190838504Y-143090307D01*
X190893750Y-143260336D01*
X190945806Y-143350500D01*
X190962279Y-143418400D01*
X190945806Y-143474500D01*
X190893750Y-143564663D01*
X190838504Y-143734692D01*
X190838503Y-143734694D01*
X190827785Y-143836670D01*
X190819815Y-143912500D01*
X190831643Y-144025040D01*
X190819075Y-144093768D01*
X190771343Y-144144792D01*
X190708323Y-144162000D01*
X190585609Y-144162000D01*
X190554954Y-144168515D01*
X190410733Y-144199170D01*
X190410728Y-144199172D01*
X190247408Y-144271887D01*
X190102768Y-144376975D01*
X189983140Y-144509836D01*
X189893750Y-144664664D01*
X189893747Y-144664670D01*
X189838504Y-144834692D01*
X189838503Y-144834694D01*
X189819815Y-145012500D01*
X185725500Y-145012500D01*
X185725500Y-134912228D01*
X185745185Y-134845189D01*
X185761814Y-134824552D01*
X187249548Y-133336819D01*
X187310871Y-133303334D01*
X187337229Y-133300500D01*
X187343259Y-133300500D01*
X187393693Y-133311219D01*
X187510733Y-133363329D01*
X187685609Y-133400500D01*
X187685610Y-133400500D01*
X187864389Y-133400500D01*
X187864391Y-133400500D01*
X188039267Y-133363329D01*
X188202593Y-133290612D01*
X188347230Y-133185526D01*
X188347417Y-133185319D01*
X188413799Y-133111594D01*
X188466859Y-133052665D01*
X188468111Y-133050495D01*
X188469166Y-133049489D01*
X188470681Y-133047405D01*
X188471062Y-133047681D01*
X188518676Y-133002279D01*
X188587283Y-132989054D01*
X188652149Y-133015020D01*
X188692679Y-133071933D01*
X188699500Y-133112493D01*
X188699500Y-137997870D01*
X188699501Y-137997876D01*
X188705908Y-138057483D01*
X188756202Y-138192328D01*
X188756206Y-138192335D01*
X188842452Y-138307544D01*
X188842455Y-138307547D01*
X188957664Y-138393793D01*
X188957671Y-138393797D01*
X189092517Y-138444091D01*
X189092516Y-138444091D01*
X189099444Y-138444835D01*
X189152127Y-138450500D01*
X192247872Y-138450499D01*
X192307483Y-138444091D01*
X192442331Y-138393796D01*
X192557546Y-138307546D01*
X192643796Y-138192331D01*
X192694091Y-138057483D01*
X192700500Y-137997873D01*
X192700499Y-135816947D01*
X192720184Y-135749909D01*
X192772987Y-135704154D01*
X192813694Y-135693420D01*
X192830890Y-135691915D01*
X192852797Y-135689999D01*
X192852805Y-135689996D01*
X192859866Y-135688539D01*
X192859878Y-135688598D01*
X192867243Y-135686965D01*
X192867229Y-135686906D01*
X192874246Y-135685241D01*
X192874255Y-135685241D01*
X192946423Y-135658974D01*
X193019334Y-135634814D01*
X193019343Y-135634807D01*
X193025882Y-135631760D01*
X193025908Y-135631816D01*
X193032690Y-135628532D01*
X193032663Y-135628478D01*
X193039106Y-135625240D01*
X193039117Y-135625237D01*
X193103283Y-135583034D01*
X193168656Y-135542712D01*
X193168662Y-135542705D01*
X193174325Y-135538229D01*
X193174363Y-135538277D01*
X193180200Y-135533522D01*
X193180161Y-135533475D01*
X193185696Y-135528830D01*
X193238385Y-135472983D01*
X194841118Y-133870249D01*
X195385642Y-133325724D01*
X195399271Y-133313947D01*
X195402934Y-133311220D01*
X195418530Y-133299610D01*
X195445677Y-133267257D01*
X195452101Y-133259601D01*
X195455761Y-133255606D01*
X195461590Y-133249778D01*
X195481941Y-133224039D01*
X195507893Y-133193111D01*
X195531302Y-133165214D01*
X195531306Y-133165205D01*
X195535274Y-133159175D01*
X195535325Y-133159208D01*
X195539372Y-133152856D01*
X195539320Y-133152824D01*
X195543112Y-133146675D01*
X195575575Y-133077058D01*
X195597182Y-133034035D01*
X195610040Y-133008433D01*
X195610042Y-133008421D01*
X195612509Y-133001646D01*
X195612567Y-133001667D01*
X195615043Y-132994546D01*
X195614986Y-132994528D01*
X195617257Y-132987673D01*
X195632792Y-132912434D01*
X195650498Y-132837728D01*
X195650500Y-132837721D01*
X195650500Y-132837710D01*
X195651338Y-132830548D01*
X195651398Y-132830555D01*
X195652164Y-132823055D01*
X195652105Y-132823050D01*
X195652734Y-132815860D01*
X195650500Y-132739082D01*
X195650500Y-118613705D01*
X195651809Y-118595735D01*
X195655289Y-118571974D01*
X195650736Y-118519939D01*
X195650500Y-118514532D01*
X195650500Y-118506296D01*
X195650500Y-118506291D01*
X195646691Y-118473705D01*
X195639998Y-118397203D01*
X195639995Y-118397194D01*
X195638538Y-118390135D01*
X195638598Y-118390122D01*
X195636965Y-118382757D01*
X195636906Y-118382772D01*
X195635241Y-118375749D01*
X195635241Y-118375745D01*
X195608971Y-118303568D01*
X195584814Y-118230665D01*
X195584812Y-118230662D01*
X195581761Y-118224118D01*
X195581815Y-118224092D01*
X195578533Y-118217312D01*
X195578480Y-118217340D01*
X195575238Y-118210886D01*
X195575237Y-118210883D01*
X195533038Y-118146723D01*
X195492712Y-118081344D01*
X195492711Y-118081343D01*
X195492710Y-118081341D01*
X195488234Y-118075681D01*
X195488280Y-118075643D01*
X195483519Y-118069799D01*
X195483474Y-118069838D01*
X195478834Y-118064308D01*
X195477796Y-118063329D01*
X195468531Y-118054587D01*
X195422982Y-118011613D01*
X193175729Y-115764361D01*
X193163949Y-115750730D01*
X193156482Y-115740701D01*
X193149612Y-115731472D01*
X193133627Y-115718059D01*
X193109587Y-115697886D01*
X193105612Y-115694244D01*
X193102690Y-115691322D01*
X193099780Y-115688411D01*
X193074040Y-115668059D01*
X193015209Y-115618694D01*
X193009180Y-115614729D01*
X193009212Y-115614680D01*
X193002853Y-115610628D01*
X193002822Y-115610679D01*
X192996680Y-115606891D01*
X192996678Y-115606890D01*
X192996677Y-115606889D01*
X192957474Y-115588608D01*
X192927058Y-115574424D01*
X192892894Y-115557267D01*
X192858433Y-115539960D01*
X192858431Y-115539959D01*
X192858430Y-115539959D01*
X192851645Y-115537489D01*
X192851665Y-115537433D01*
X192844549Y-115534959D01*
X192844531Y-115535015D01*
X192837673Y-115532742D01*
X192811915Y-115527424D01*
X192750242Y-115494589D01*
X192716110Y-115433624D01*
X192720358Y-115363883D01*
X192729598Y-115343996D01*
X192756250Y-115297835D01*
X192811497Y-115127803D01*
X192830185Y-114950000D01*
X192811497Y-114772197D01*
X192756250Y-114602165D01*
X192666859Y-114447335D01*
X192604730Y-114378334D01*
X192547235Y-114314478D01*
X192547232Y-114314476D01*
X192547231Y-114314475D01*
X192547230Y-114314474D01*
X192402593Y-114209388D01*
X192306282Y-114166508D01*
X192253048Y-114121260D01*
X192232726Y-114054411D01*
X192251771Y-113987187D01*
X192269035Y-113965553D01*
X193417616Y-112816972D01*
X193464341Y-112787613D01*
X193468054Y-112786313D01*
X193468059Y-112786313D01*
X193627690Y-112730456D01*
X193627692Y-112730455D01*
X193627697Y-112730452D01*
X193770884Y-112640481D01*
X193770885Y-112640480D01*
X193770890Y-112640477D01*
X193890477Y-112520890D01*
X193909631Y-112490407D01*
X193980452Y-112377697D01*
X193980454Y-112377694D01*
X193980454Y-112377692D01*
X193980456Y-112377690D01*
X194036313Y-112218059D01*
X194036313Y-112218058D01*
X194036314Y-112218056D01*
X194055249Y-112050002D01*
X194055249Y-112049997D01*
X194036314Y-111881943D01*
X193980454Y-111722305D01*
X193980452Y-111722302D01*
X193890481Y-111579115D01*
X193890476Y-111579109D01*
X193770890Y-111459523D01*
X193770884Y-111459518D01*
X193627697Y-111369547D01*
X193627694Y-111369545D01*
X193468056Y-111313685D01*
X193300003Y-111294751D01*
X193299997Y-111294751D01*
X193131943Y-111313685D01*
X192972305Y-111369545D01*
X192972302Y-111369547D01*
X192829115Y-111459518D01*
X192829109Y-111459523D01*
X192709523Y-111579109D01*
X192709518Y-111579115D01*
X192619547Y-111722302D01*
X192619544Y-111722308D01*
X192562388Y-111885654D01*
X192533027Y-111932381D01*
X191377228Y-113088181D01*
X191315905Y-113121666D01*
X191289547Y-113124500D01*
X190009452Y-113124500D01*
X189942413Y-113104815D01*
X189896658Y-113052011D01*
X189886714Y-112982853D01*
X189915739Y-112919297D01*
X189921771Y-112912819D01*
X190227129Y-112607461D01*
X191283786Y-111550802D01*
X191296048Y-111540980D01*
X191295865Y-111540759D01*
X191301867Y-111535792D01*
X191301877Y-111535786D01*
X191349241Y-111485348D01*
X191370120Y-111464470D01*
X191374373Y-111458986D01*
X191378150Y-111454563D01*
X191410062Y-111420582D01*
X191419714Y-111403023D01*
X191430389Y-111386772D01*
X191442674Y-111370936D01*
X191461186Y-111328152D01*
X191463742Y-111322935D01*
X191486197Y-111282092D01*
X191491180Y-111262680D01*
X191497477Y-111244291D01*
X191505438Y-111225895D01*
X191512729Y-111179853D01*
X191513908Y-111174162D01*
X191525500Y-111129019D01*
X191525500Y-111108974D01*
X191527025Y-111089591D01*
X191530160Y-111069804D01*
X191525775Y-111023415D01*
X191525500Y-111017577D01*
X191525500Y-108449999D01*
X192719815Y-108449999D01*
X192738503Y-108627805D01*
X192738504Y-108627807D01*
X192793747Y-108797829D01*
X192793750Y-108797835D01*
X192883141Y-108952665D01*
X192885468Y-108955249D01*
X193002764Y-109085521D01*
X193002767Y-109085523D01*
X193002770Y-109085526D01*
X193147407Y-109190612D01*
X193310733Y-109263329D01*
X193485609Y-109300500D01*
X193485610Y-109300500D01*
X193664389Y-109300500D01*
X193664391Y-109300500D01*
X193839267Y-109263329D01*
X194002593Y-109190612D01*
X194147230Y-109085526D01*
X194266859Y-108952665D01*
X194356250Y-108797835D01*
X194411497Y-108627803D01*
X194430185Y-108450000D01*
X194411497Y-108272197D01*
X194360250Y-108114475D01*
X194356252Y-108102170D01*
X194356249Y-108102164D01*
X194327670Y-108052663D01*
X194266859Y-107947335D01*
X194199299Y-107872302D01*
X194147235Y-107814478D01*
X194147232Y-107814476D01*
X194147231Y-107814475D01*
X194147230Y-107814474D01*
X194002593Y-107709388D01*
X193839267Y-107636671D01*
X193839265Y-107636670D01*
X193691438Y-107605249D01*
X193664391Y-107599500D01*
X193485609Y-107599500D01*
X193458562Y-107605249D01*
X193310733Y-107636670D01*
X193310728Y-107636672D01*
X193147408Y-107709387D01*
X193002768Y-107814475D01*
X192883140Y-107947336D01*
X192793750Y-108102164D01*
X192793747Y-108102170D01*
X192738504Y-108272192D01*
X192738503Y-108272194D01*
X192719815Y-108449999D01*
X191525500Y-108449999D01*
X191525500Y-108060451D01*
X191545185Y-107993412D01*
X191561814Y-107972775D01*
X191715366Y-107819223D01*
X191776687Y-107785740D01*
X191824969Y-107785988D01*
X191825021Y-107785534D01*
X191829252Y-107786010D01*
X191830653Y-107786018D01*
X191831933Y-107786310D01*
X191831941Y-107786313D01*
X191831949Y-107786313D01*
X191831954Y-107786315D01*
X191999997Y-107805249D01*
X192000000Y-107805249D01*
X192000003Y-107805249D01*
X192168056Y-107786314D01*
X192168988Y-107785988D01*
X192327690Y-107730456D01*
X192327692Y-107730454D01*
X192327694Y-107730454D01*
X192327697Y-107730452D01*
X192470884Y-107640481D01*
X192470885Y-107640480D01*
X192470890Y-107640477D01*
X192590477Y-107520890D01*
X192591607Y-107519092D01*
X192680452Y-107377697D01*
X192680454Y-107377694D01*
X192680454Y-107377692D01*
X192680456Y-107377690D01*
X192736313Y-107218059D01*
X192736313Y-107218058D01*
X192736314Y-107218056D01*
X192755249Y-107050002D01*
X192755249Y-107049997D01*
X192743982Y-106950000D01*
X194019815Y-106950000D01*
X194038503Y-107127805D01*
X194038504Y-107127807D01*
X194093747Y-107297829D01*
X194093750Y-107297835D01*
X194183141Y-107452665D01*
X194200405Y-107471838D01*
X194302764Y-107585521D01*
X194302767Y-107585523D01*
X194302770Y-107585526D01*
X194447407Y-107690612D01*
X194610733Y-107763329D01*
X194785609Y-107800500D01*
X194785610Y-107800500D01*
X194964389Y-107800500D01*
X194964391Y-107800500D01*
X195139267Y-107763329D01*
X195302593Y-107690612D01*
X195447230Y-107585526D01*
X195457515Y-107574104D01*
X195482136Y-107546759D01*
X195566859Y-107452665D01*
X195656250Y-107297835D01*
X195711497Y-107127803D01*
X195730185Y-106950000D01*
X195711497Y-106772197D01*
X195665499Y-106630631D01*
X195656252Y-106602170D01*
X195656249Y-106602164D01*
X195566859Y-106447335D01*
X195511915Y-106386314D01*
X195447235Y-106314478D01*
X195447232Y-106314476D01*
X195447231Y-106314475D01*
X195447230Y-106314474D01*
X195302593Y-106209388D01*
X195139267Y-106136671D01*
X195139265Y-106136670D01*
X195011594Y-106109533D01*
X194964391Y-106099500D01*
X194785609Y-106099500D01*
X194754954Y-106106015D01*
X194610733Y-106136670D01*
X194610728Y-106136672D01*
X194447408Y-106209387D01*
X194302768Y-106314475D01*
X194183140Y-106447336D01*
X194093750Y-106602164D01*
X194093747Y-106602170D01*
X194038504Y-106772192D01*
X194038503Y-106772194D01*
X194019815Y-106950000D01*
X192743982Y-106950000D01*
X192736314Y-106881943D01*
X192680454Y-106722305D01*
X192680452Y-106722302D01*
X192590481Y-106579115D01*
X192590476Y-106579109D01*
X192470890Y-106459523D01*
X192470884Y-106459518D01*
X192327697Y-106369547D01*
X192327694Y-106369545D01*
X192168056Y-106313685D01*
X192000003Y-106294751D01*
X191999997Y-106294751D01*
X191831943Y-106313685D01*
X191672305Y-106369545D01*
X191672304Y-106369546D01*
X191614156Y-106406083D01*
X191563713Y-106424113D01*
X191553767Y-106425368D01*
X191547948Y-106425826D01*
X191501372Y-106427290D01*
X191501369Y-106427291D01*
X191482126Y-106432881D01*
X191463083Y-106436825D01*
X191443204Y-106439336D01*
X191443203Y-106439337D01*
X191399878Y-106456490D01*
X191394352Y-106458382D01*
X191349608Y-106471383D01*
X191349604Y-106471385D01*
X191332365Y-106481580D01*
X191314898Y-106490137D01*
X191296269Y-106497512D01*
X191296267Y-106497513D01*
X191258564Y-106524906D01*
X191253682Y-106528112D01*
X191213580Y-106551828D01*
X191199408Y-106566000D01*
X191184623Y-106578628D01*
X191168412Y-106590407D01*
X191138709Y-106626310D01*
X191134777Y-106630631D01*
X190516208Y-107249199D01*
X190503951Y-107259020D01*
X190504134Y-107259241D01*
X190498123Y-107264213D01*
X190450772Y-107314636D01*
X190429889Y-107335518D01*
X190429877Y-107335532D01*
X190425621Y-107341017D01*
X190421837Y-107345447D01*
X190389937Y-107379418D01*
X190389936Y-107379420D01*
X190380284Y-107396976D01*
X190369610Y-107413226D01*
X190357329Y-107429061D01*
X190357324Y-107429068D01*
X190338815Y-107471838D01*
X190336245Y-107477084D01*
X190313803Y-107517906D01*
X190308822Y-107537307D01*
X190302521Y-107555710D01*
X190294562Y-107574102D01*
X190294561Y-107574105D01*
X190287271Y-107620127D01*
X190286087Y-107625846D01*
X190274501Y-107670972D01*
X190274499Y-107670984D01*
X190274499Y-107691020D01*
X190272973Y-107710411D01*
X190269840Y-107730194D01*
X190269840Y-107730195D01*
X190274225Y-107776583D01*
X190274500Y-107782421D01*
X190274500Y-107791033D01*
X190254815Y-107858072D01*
X190202011Y-107903827D01*
X190132853Y-107913771D01*
X190124720Y-107912323D01*
X190064391Y-107899500D01*
X189885609Y-107899500D01*
X189865252Y-107903827D01*
X189710733Y-107936670D01*
X189710728Y-107936672D01*
X189547408Y-108009387D01*
X189402768Y-108114475D01*
X189283140Y-108247336D01*
X189193750Y-108402164D01*
X189193747Y-108402170D01*
X189138504Y-108572192D01*
X189138503Y-108572194D01*
X189119815Y-108750000D01*
X189138503Y-108927805D01*
X189138504Y-108927807D01*
X189193747Y-109097829D01*
X189193750Y-109097835D01*
X189283141Y-109252665D01*
X189298339Y-109269544D01*
X189402764Y-109385521D01*
X189402767Y-109385523D01*
X189402770Y-109385526D01*
X189547407Y-109490612D01*
X189710733Y-109563329D01*
X189885609Y-109600500D01*
X189885610Y-109600500D01*
X190064389Y-109600500D01*
X190064391Y-109600500D01*
X190124721Y-109587676D01*
X190194385Y-109592991D01*
X190250119Y-109635128D01*
X190274225Y-109700708D01*
X190274500Y-109708966D01*
X190274500Y-110739546D01*
X190254815Y-110806585D01*
X190238181Y-110827227D01*
X188777228Y-112288181D01*
X188715905Y-112321666D01*
X188689547Y-112324500D01*
X186585592Y-112324500D01*
X186518553Y-112304815D01*
X186472798Y-112252011D01*
X186462854Y-112182853D01*
X186487022Y-112126942D01*
X186486773Y-112126786D01*
X186487787Y-112125170D01*
X186488645Y-112123188D01*
X186490478Y-112120889D01*
X186580452Y-111977697D01*
X186580455Y-111977692D01*
X186606159Y-111904234D01*
X186636313Y-111818059D01*
X186636313Y-111818054D01*
X186637613Y-111814341D01*
X186666972Y-111767616D01*
X187717616Y-110716972D01*
X187764341Y-110687613D01*
X187768054Y-110686313D01*
X187768059Y-110686313D01*
X187927690Y-110630456D01*
X187927692Y-110630455D01*
X187927697Y-110630452D01*
X188070884Y-110540481D01*
X188070885Y-110540480D01*
X188070890Y-110540477D01*
X188190477Y-110420890D01*
X188280452Y-110277697D01*
X188280454Y-110277694D01*
X188280454Y-110277692D01*
X188280456Y-110277690D01*
X188336313Y-110118059D01*
X188336313Y-110118058D01*
X188336314Y-110118056D01*
X188355249Y-109950002D01*
X188355249Y-109949997D01*
X188336314Y-109781943D01*
X188280454Y-109622305D01*
X188280452Y-109622302D01*
X188190481Y-109479115D01*
X188190476Y-109479109D01*
X188070890Y-109359523D01*
X188070884Y-109359518D01*
X187927697Y-109269547D01*
X187927694Y-109269545D01*
X187768056Y-109213685D01*
X187600003Y-109194751D01*
X187599997Y-109194751D01*
X187431943Y-109213685D01*
X187272305Y-109269545D01*
X187272302Y-109269547D01*
X187129115Y-109359518D01*
X187129109Y-109359523D01*
X187009523Y-109479109D01*
X187009518Y-109479115D01*
X186919547Y-109622302D01*
X186919544Y-109622308D01*
X186862388Y-109785654D01*
X186833027Y-109832381D01*
X185782381Y-110883027D01*
X185735654Y-110912388D01*
X185731941Y-110913686D01*
X185731941Y-110913687D01*
X185695533Y-110926426D01*
X185572308Y-110969544D01*
X185572302Y-110969547D01*
X185429115Y-111059518D01*
X185429109Y-111059523D01*
X185309523Y-111179109D01*
X185309518Y-111179115D01*
X185219547Y-111322302D01*
X185219545Y-111322305D01*
X185163685Y-111481943D01*
X185144751Y-111649997D01*
X185144751Y-111650002D01*
X185163685Y-111818056D01*
X185219545Y-111977694D01*
X185219547Y-111977697D01*
X185309521Y-112120889D01*
X185311355Y-112123188D01*
X185312076Y-112124954D01*
X185313227Y-112126786D01*
X185312906Y-112126987D01*
X185337764Y-112187874D01*
X185325007Y-112256570D01*
X185277136Y-112307463D01*
X185214408Y-112324500D01*
X184982743Y-112324500D01*
X184967122Y-112322775D01*
X184967096Y-112323061D01*
X184959334Y-112322327D01*
X184959333Y-112322327D01*
X184890186Y-112324500D01*
X184860649Y-112324500D01*
X184853766Y-112325369D01*
X184847949Y-112325826D01*
X184801373Y-112327290D01*
X184782129Y-112332881D01*
X184763079Y-112336825D01*
X184743211Y-112339334D01*
X184699884Y-112356488D01*
X184694358Y-112358379D01*
X184649614Y-112371379D01*
X184649610Y-112371381D01*
X184632366Y-112381579D01*
X184614905Y-112390133D01*
X184596274Y-112397510D01*
X184596262Y-112397517D01*
X184558570Y-112424902D01*
X184553687Y-112428109D01*
X184513580Y-112451829D01*
X184499414Y-112465995D01*
X184484624Y-112478627D01*
X184468414Y-112490404D01*
X184468411Y-112490407D01*
X184438710Y-112526309D01*
X184434777Y-112530631D01*
X180936642Y-116028765D01*
X180875319Y-116062250D01*
X180805627Y-116057266D01*
X180749694Y-116015394D01*
X180725277Y-115949930D01*
X180725633Y-115936824D01*
X180725500Y-115936825D01*
X180725500Y-115929019D01*
X180725500Y-115908974D01*
X180727025Y-115889591D01*
X180730160Y-115869804D01*
X180725775Y-115823415D01*
X180725500Y-115817577D01*
X180725500Y-109225613D01*
X182394694Y-109225613D01*
X182413382Y-109403419D01*
X182413383Y-109403421D01*
X182468626Y-109573443D01*
X182468629Y-109573449D01*
X182558020Y-109728279D01*
X182599691Y-109774560D01*
X182677643Y-109861135D01*
X182677646Y-109861137D01*
X182677649Y-109861140D01*
X182822286Y-109966226D01*
X182985612Y-110038943D01*
X183160488Y-110076114D01*
X183160489Y-110076114D01*
X183339268Y-110076114D01*
X183339270Y-110076114D01*
X183514146Y-110038943D01*
X183677472Y-109966226D01*
X183822109Y-109861140D01*
X183941738Y-109728279D01*
X184031129Y-109573449D01*
X184086376Y-109403417D01*
X184105064Y-109225614D01*
X184086376Y-109047811D01*
X184055460Y-108952663D01*
X184031131Y-108877784D01*
X184031128Y-108877778D01*
X184021393Y-108860916D01*
X183941738Y-108722949D01*
X183875370Y-108649240D01*
X183822114Y-108590092D01*
X183822111Y-108590090D01*
X183822110Y-108590089D01*
X183822109Y-108590088D01*
X183677472Y-108485002D01*
X183514146Y-108412285D01*
X183514144Y-108412284D01*
X183386473Y-108385147D01*
X183339270Y-108375114D01*
X183160488Y-108375114D01*
X183129833Y-108381629D01*
X182985612Y-108412284D01*
X182985607Y-108412286D01*
X182822287Y-108485001D01*
X182677647Y-108590089D01*
X182558019Y-108722950D01*
X182468629Y-108877778D01*
X182468626Y-108877784D01*
X182413383Y-109047806D01*
X182413382Y-109047808D01*
X182394694Y-109225613D01*
X180725500Y-109225613D01*
X180725500Y-107460451D01*
X180745185Y-107393412D01*
X180761814Y-107372775D01*
X181898932Y-106235657D01*
X181960253Y-106202174D01*
X182029945Y-106207158D01*
X182074292Y-106235659D01*
X182129109Y-106290476D01*
X182129115Y-106290481D01*
X182272302Y-106380452D01*
X182272305Y-106380454D01*
X182272309Y-106380455D01*
X182272310Y-106380456D01*
X182343133Y-106405238D01*
X182431943Y-106436314D01*
X182599997Y-106455249D01*
X182600000Y-106455249D01*
X182600003Y-106455249D01*
X182768056Y-106436314D01*
X182792682Y-106427697D01*
X182927690Y-106380456D01*
X182927692Y-106380454D01*
X182927694Y-106380454D01*
X182927697Y-106380452D01*
X183070884Y-106290481D01*
X183070885Y-106290480D01*
X183070890Y-106290477D01*
X183174819Y-106186548D01*
X183236142Y-106153063D01*
X183305834Y-106158047D01*
X183350181Y-106186548D01*
X183404109Y-106240476D01*
X183404115Y-106240481D01*
X183547302Y-106330452D01*
X183547305Y-106330454D01*
X183547309Y-106330455D01*
X183547310Y-106330456D01*
X183686353Y-106379109D01*
X183706944Y-106386314D01*
X183858726Y-106403415D01*
X183874903Y-106405238D01*
X183939317Y-106432304D01*
X183978872Y-106489899D01*
X183981010Y-106559736D01*
X183978062Y-106569412D01*
X183938686Y-106681942D01*
X183919751Y-106849997D01*
X183919751Y-106850002D01*
X183938685Y-107018056D01*
X183994545Y-107177694D01*
X183994547Y-107177697D01*
X184084518Y-107320884D01*
X184084523Y-107320890D01*
X184204109Y-107440476D01*
X184204115Y-107440481D01*
X184347302Y-107530452D01*
X184347305Y-107530454D01*
X184347309Y-107530455D01*
X184347310Y-107530456D01*
X184393902Y-107546759D01*
X184506943Y-107586314D01*
X184674997Y-107605249D01*
X184675000Y-107605249D01*
X184675003Y-107605249D01*
X184843056Y-107586314D01*
X184845322Y-107585521D01*
X185002690Y-107530456D01*
X185059904Y-107494505D01*
X185125876Y-107475500D01*
X185724124Y-107475500D01*
X185790095Y-107494505D01*
X185847310Y-107530456D01*
X185968621Y-107572904D01*
X186006943Y-107586314D01*
X186174997Y-107605249D01*
X186175000Y-107605249D01*
X186175003Y-107605249D01*
X186275835Y-107593887D01*
X186343059Y-107586313D01*
X186502690Y-107530456D01*
X186502696Y-107530452D01*
X186508502Y-107527656D01*
X186577442Y-107516295D01*
X186590843Y-107518694D01*
X186592503Y-107519086D01*
X186592517Y-107519091D01*
X186652127Y-107525500D01*
X188747872Y-107525499D01*
X188807483Y-107519091D01*
X188942331Y-107468796D01*
X189057546Y-107382546D01*
X189143796Y-107267331D01*
X189194091Y-107132483D01*
X189200500Y-107072873D01*
X189200499Y-105477128D01*
X189194091Y-105417517D01*
X189157096Y-105318330D01*
X189152113Y-105248642D01*
X189157092Y-105231680D01*
X189194091Y-105132483D01*
X189200500Y-105072873D01*
X189200499Y-103477128D01*
X189194091Y-103417517D01*
X189157096Y-103318330D01*
X189152113Y-103248642D01*
X189157092Y-103231680D01*
X189194091Y-103132483D01*
X189200500Y-103072873D01*
X189200499Y-102954584D01*
X189220183Y-102887547D01*
X189272987Y-102841792D01*
X189342145Y-102831848D01*
X189397385Y-102854269D01*
X189447401Y-102890608D01*
X189447402Y-102890609D01*
X189447404Y-102890610D01*
X189447407Y-102890612D01*
X189610733Y-102963329D01*
X189785609Y-103000500D01*
X189785610Y-103000500D01*
X189964389Y-103000500D01*
X189964391Y-103000500D01*
X190139267Y-102963329D01*
X190302593Y-102890612D01*
X190447230Y-102785526D01*
X190451575Y-102780701D01*
X190483906Y-102744793D01*
X190566859Y-102652665D01*
X190656250Y-102497835D01*
X190711497Y-102327803D01*
X190730185Y-102150000D01*
X194019815Y-102150000D01*
X194038503Y-102327805D01*
X194038504Y-102327807D01*
X194093747Y-102497829D01*
X194093750Y-102497835D01*
X194183141Y-102652665D01*
X194223039Y-102696976D01*
X194302764Y-102785521D01*
X194302767Y-102785523D01*
X194302770Y-102785526D01*
X194447407Y-102890612D01*
X194610733Y-102963329D01*
X194785609Y-103000500D01*
X194785610Y-103000500D01*
X194964389Y-103000500D01*
X194964391Y-103000500D01*
X195139267Y-102963329D01*
X195302593Y-102890612D01*
X195447230Y-102785526D01*
X195451575Y-102780701D01*
X195483906Y-102744793D01*
X195566859Y-102652665D01*
X195656250Y-102497835D01*
X195711497Y-102327803D01*
X195730185Y-102150000D01*
X195711497Y-101972197D01*
X195660553Y-101815407D01*
X195656252Y-101802170D01*
X195656249Y-101802164D01*
X195566859Y-101647335D01*
X195489860Y-101561819D01*
X195447235Y-101514478D01*
X195447232Y-101514476D01*
X195447231Y-101514475D01*
X195447230Y-101514474D01*
X195302593Y-101409388D01*
X195139267Y-101336671D01*
X195139265Y-101336670D01*
X194984089Y-101303687D01*
X194964391Y-101299500D01*
X194785609Y-101299500D01*
X194765911Y-101303687D01*
X194610733Y-101336670D01*
X194610728Y-101336672D01*
X194447408Y-101409387D01*
X194302768Y-101514475D01*
X194183140Y-101647336D01*
X194093750Y-101802164D01*
X194093747Y-101802170D01*
X194038504Y-101972192D01*
X194038503Y-101972194D01*
X194019815Y-102150000D01*
X190730185Y-102150000D01*
X190711497Y-101972197D01*
X190660553Y-101815407D01*
X190656252Y-101802170D01*
X190656249Y-101802164D01*
X190566859Y-101647335D01*
X190489860Y-101561819D01*
X190447235Y-101514478D01*
X190447232Y-101514476D01*
X190447231Y-101514475D01*
X190447230Y-101514474D01*
X190302593Y-101409388D01*
X190139267Y-101336671D01*
X190139265Y-101336670D01*
X189984089Y-101303687D01*
X189964391Y-101299500D01*
X189785609Y-101299500D01*
X189765911Y-101303687D01*
X189610733Y-101336670D01*
X189610728Y-101336672D01*
X189447408Y-101409388D01*
X189447403Y-101409390D01*
X189377748Y-101459998D01*
X189311942Y-101483478D01*
X189243888Y-101467652D01*
X189195193Y-101417546D01*
X189188685Y-101403023D01*
X189157096Y-101318330D01*
X189152113Y-101248642D01*
X189157092Y-101231680D01*
X189194091Y-101132483D01*
X189200500Y-101072873D01*
X189200499Y-100951560D01*
X189220183Y-100884523D01*
X189272987Y-100838768D01*
X189342145Y-100828824D01*
X189377997Y-100841639D01*
X189378555Y-100840400D01*
X189385389Y-100843475D01*
X189385394Y-100843478D01*
X189547804Y-100894086D01*
X189618384Y-100900500D01*
X189618387Y-100900500D01*
X190281613Y-100900500D01*
X190281616Y-100900500D01*
X190352196Y-100894086D01*
X190514606Y-100843478D01*
X190660185Y-100755472D01*
X190660186Y-100755470D01*
X190666604Y-100751591D01*
X190667956Y-100753828D01*
X190721309Y-100732564D01*
X190783339Y-100742740D01*
X190885733Y-100788329D01*
X191060609Y-100825500D01*
X191060610Y-100825500D01*
X191239389Y-100825500D01*
X191239391Y-100825500D01*
X191414267Y-100788329D01*
X191577593Y-100715612D01*
X191722230Y-100610526D01*
X191723134Y-100609523D01*
X191756647Y-100572302D01*
X191841859Y-100477665D01*
X191931250Y-100322835D01*
X191986497Y-100152803D01*
X192005185Y-99975000D01*
X191986497Y-99797197D01*
X191931250Y-99627165D01*
X191841859Y-99472335D01*
X191795003Y-99420296D01*
X191722235Y-99339478D01*
X191722232Y-99339476D01*
X191722231Y-99339475D01*
X191722230Y-99339474D01*
X191577593Y-99234388D01*
X191414267Y-99161671D01*
X191414265Y-99161670D01*
X191276948Y-99132483D01*
X191239391Y-99124500D01*
X191060609Y-99124500D01*
X191060608Y-99124500D01*
X190922506Y-99153854D01*
X190852839Y-99148538D01*
X190797106Y-99106401D01*
X190773001Y-99040821D01*
X190788178Y-98972619D01*
X190790586Y-98968453D01*
X190868478Y-98839606D01*
X190919086Y-98677196D01*
X190925500Y-98606616D01*
X190925500Y-98093384D01*
X190919086Y-98022804D01*
X190868478Y-97860394D01*
X190780472Y-97714815D01*
X190780470Y-97714813D01*
X190780469Y-97714811D01*
X190660188Y-97594530D01*
X190660185Y-97594528D01*
X190514606Y-97506522D01*
X190472447Y-97493385D01*
X190414300Y-97454648D01*
X190386326Y-97390623D01*
X190397407Y-97321638D01*
X190444026Y-97269595D01*
X190472446Y-97256615D01*
X190514606Y-97243478D01*
X190514608Y-97243477D01*
X190514767Y-97243381D01*
X190514910Y-97243340D01*
X190521445Y-97240400D01*
X190521892Y-97241394D01*
X190578913Y-97225500D01*
X190618259Y-97225500D01*
X190668693Y-97236219D01*
X190785733Y-97288329D01*
X190960609Y-97325500D01*
X190960610Y-97325500D01*
X191139389Y-97325500D01*
X191139391Y-97325500D01*
X191314267Y-97288329D01*
X191477593Y-97215612D01*
X191622230Y-97110526D01*
X191741859Y-96977665D01*
X191831250Y-96822835D01*
X191886497Y-96652803D01*
X191905185Y-96475000D01*
X191886497Y-96297197D01*
X191831250Y-96127165D01*
X191741859Y-95972335D01*
X191695003Y-95920296D01*
X191622235Y-95839478D01*
X191622232Y-95839476D01*
X191622231Y-95839475D01*
X191622230Y-95839474D01*
X191477593Y-95734388D01*
X191314267Y-95661671D01*
X191314265Y-95661670D01*
X191186594Y-95634533D01*
X191139391Y-95624500D01*
X190960609Y-95624500D01*
X190923438Y-95632400D01*
X190785734Y-95661670D01*
X190779553Y-95663679D01*
X190778987Y-95661937D01*
X190718523Y-95670030D01*
X190667011Y-95647734D01*
X190666604Y-95648409D01*
X190661645Y-95645411D01*
X190660905Y-95645091D01*
X190660193Y-95644533D01*
X190632331Y-95627690D01*
X190514606Y-95556522D01*
X190352196Y-95505914D01*
X190352194Y-95505913D01*
X190352192Y-95505913D01*
X190302778Y-95501423D01*
X190281616Y-95499500D01*
X189618384Y-95499500D01*
X189599144Y-95501248D01*
X189547807Y-95505913D01*
X189547803Y-95505914D01*
X189547804Y-95505914D01*
X189385394Y-95556522D01*
X189385392Y-95556522D01*
X189385389Y-95556524D01*
X189378555Y-95559600D01*
X189377903Y-95558151D01*
X189318856Y-95573735D01*
X189252385Y-95552210D01*
X189208103Y-95498165D01*
X189198984Y-95463035D01*
X189194091Y-95417516D01*
X189143797Y-95282671D01*
X189143793Y-95282664D01*
X189057547Y-95167455D01*
X189057544Y-95167452D01*
X188942335Y-95081206D01*
X188942328Y-95081202D01*
X188807482Y-95030908D01*
X188807483Y-95030908D01*
X188747883Y-95024501D01*
X188747881Y-95024500D01*
X188747873Y-95024500D01*
X188747864Y-95024500D01*
X186652129Y-95024500D01*
X186652123Y-95024501D01*
X186592516Y-95030908D01*
X186457671Y-95081202D01*
X186457664Y-95081206D01*
X186342455Y-95167452D01*
X186342452Y-95167455D01*
X186256206Y-95282664D01*
X186256202Y-95282671D01*
X186205908Y-95417517D01*
X186199501Y-95477116D01*
X186199500Y-95477135D01*
X186199500Y-97072870D01*
X186199501Y-97072876D01*
X186205908Y-97132483D01*
X186242902Y-97231667D01*
X186247886Y-97301359D01*
X186242902Y-97318333D01*
X186205908Y-97417517D01*
X186199501Y-97477116D01*
X186199500Y-97477135D01*
X186199500Y-99072870D01*
X186199501Y-99072876D01*
X186205909Y-99132484D01*
X186242901Y-99231668D01*
X186247885Y-99301360D01*
X186242901Y-99318332D01*
X186205909Y-99417514D01*
X186205908Y-99417516D01*
X186199501Y-99477116D01*
X186199500Y-99477135D01*
X186199500Y-101072870D01*
X186199501Y-101072876D01*
X186205908Y-101132483D01*
X186242902Y-101231667D01*
X186247886Y-101301359D01*
X186242902Y-101318333D01*
X186205908Y-101417517D01*
X186199844Y-101473930D01*
X186199501Y-101477123D01*
X186199500Y-101477135D01*
X186199500Y-101525114D01*
X186179815Y-101592153D01*
X186127011Y-101637908D01*
X186079397Y-101649053D01*
X186071792Y-101649292D01*
X186065172Y-101649500D01*
X186035649Y-101649500D01*
X186028778Y-101650367D01*
X186022959Y-101650825D01*
X185976374Y-101652289D01*
X185976368Y-101652290D01*
X185957126Y-101657880D01*
X185938087Y-101661823D01*
X185918217Y-101664334D01*
X185918200Y-101664338D01*
X185874882Y-101681488D01*
X185869358Y-101683379D01*
X185824607Y-101696383D01*
X185824604Y-101696384D01*
X185807358Y-101706583D01*
X185789893Y-101715139D01*
X185784949Y-101717097D01*
X185771266Y-101722514D01*
X185733572Y-101749899D01*
X185728691Y-101753105D01*
X185688580Y-101776828D01*
X185674408Y-101791000D01*
X185659623Y-101803628D01*
X185643412Y-101815407D01*
X185613709Y-101851310D01*
X185609777Y-101855631D01*
X184916208Y-102549199D01*
X184903951Y-102559020D01*
X184904134Y-102559241D01*
X184898123Y-102564213D01*
X184850772Y-102614636D01*
X184829889Y-102635518D01*
X184829877Y-102635532D01*
X184825621Y-102641017D01*
X184821837Y-102645447D01*
X184789937Y-102679418D01*
X184789936Y-102679420D01*
X184780284Y-102696976D01*
X184769608Y-102713228D01*
X184754190Y-102733107D01*
X184697550Y-102774017D01*
X184627783Y-102777810D01*
X184568526Y-102744793D01*
X183134361Y-101310628D01*
X183105001Y-101263903D01*
X183055456Y-101122310D01*
X183055455Y-101122307D01*
X183055452Y-101122302D01*
X182965481Y-100979115D01*
X182965476Y-100979109D01*
X182845890Y-100859523D01*
X182845884Y-100859518D01*
X182702697Y-100769547D01*
X182702694Y-100769545D01*
X182543056Y-100713685D01*
X182375003Y-100694751D01*
X182374997Y-100694751D01*
X182206943Y-100713685D01*
X182047305Y-100769545D01*
X182047302Y-100769547D01*
X181904115Y-100859518D01*
X181904109Y-100859523D01*
X181784523Y-100979109D01*
X181784518Y-100979115D01*
X181694547Y-101122302D01*
X181694545Y-101122305D01*
X181638685Y-101281943D01*
X181619751Y-101449997D01*
X181619751Y-101450002D01*
X181638685Y-101618056D01*
X181694545Y-101777694D01*
X181694547Y-101777697D01*
X181784518Y-101920884D01*
X181784523Y-101920890D01*
X181876362Y-102012729D01*
X181909847Y-102074052D01*
X181904863Y-102143744D01*
X181888194Y-102173193D01*
X181888227Y-102173214D01*
X181887777Y-102173929D01*
X181885637Y-102177711D01*
X181884524Y-102179106D01*
X181794547Y-102322302D01*
X181794545Y-102322305D01*
X181738685Y-102481943D01*
X181719751Y-102649997D01*
X181719751Y-102650002D01*
X181738685Y-102818056D01*
X181794545Y-102977694D01*
X181794547Y-102977697D01*
X181884518Y-103120884D01*
X181884523Y-103120890D01*
X182004109Y-103240476D01*
X182004115Y-103240481D01*
X182147302Y-103330452D01*
X182147308Y-103330455D01*
X182147310Y-103330456D01*
X182288903Y-103380001D01*
X182335630Y-103409362D01*
X182648525Y-103722257D01*
X182682010Y-103783580D01*
X182677026Y-103853272D01*
X182635154Y-103909205D01*
X182595435Y-103929016D01*
X182582130Y-103932881D01*
X182563079Y-103936825D01*
X182543211Y-103939334D01*
X182543209Y-103939335D01*
X182499884Y-103956488D01*
X182494357Y-103958380D01*
X182449610Y-103971381D01*
X182449609Y-103971382D01*
X182432367Y-103981579D01*
X182414899Y-103990137D01*
X182396269Y-103997513D01*
X182396267Y-103997514D01*
X182358576Y-104024898D01*
X182353694Y-104028105D01*
X182313579Y-104051830D01*
X182299408Y-104066000D01*
X182284623Y-104078628D01*
X182268412Y-104090407D01*
X182238709Y-104126310D01*
X182234777Y-104130631D01*
X181291529Y-105073878D01*
X181230206Y-105107363D01*
X181160514Y-105102379D01*
X181104581Y-105060507D01*
X181084771Y-105020790D01*
X181082936Y-105014475D01*
X181078618Y-104999610D01*
X181068418Y-104982363D01*
X181059860Y-104964894D01*
X181052486Y-104946268D01*
X181052483Y-104946264D01*
X181052483Y-104946263D01*
X181025098Y-104908571D01*
X181021890Y-104903687D01*
X180998172Y-104863582D01*
X180998163Y-104863571D01*
X180984005Y-104849413D01*
X180971370Y-104834620D01*
X180959593Y-104818412D01*
X180923693Y-104788713D01*
X180919381Y-104784790D01*
X180561819Y-104427228D01*
X180528334Y-104365905D01*
X180525500Y-104339547D01*
X180525500Y-101650875D01*
X180544507Y-101584902D01*
X180580456Y-101527690D01*
X180598148Y-101477128D01*
X180636313Y-101368059D01*
X180646799Y-101274999D01*
X180655249Y-101200002D01*
X180655249Y-101199997D01*
X180636314Y-101031943D01*
X180603029Y-100936819D01*
X180580456Y-100872310D01*
X180580455Y-100872309D01*
X180580454Y-100872305D01*
X180580452Y-100872302D01*
X180490481Y-100729115D01*
X180490476Y-100729109D01*
X180370890Y-100609523D01*
X180370884Y-100609518D01*
X180227697Y-100519547D01*
X180227694Y-100519545D01*
X180068056Y-100463685D01*
X179900003Y-100444751D01*
X179899997Y-100444751D01*
X179731943Y-100463685D01*
X179572305Y-100519545D01*
X179572302Y-100519547D01*
X179429115Y-100609518D01*
X179429109Y-100609523D01*
X179309521Y-100729111D01*
X179239508Y-100840536D01*
X179187173Y-100886827D01*
X179118120Y-100897474D01*
X179054272Y-100869099D01*
X179046834Y-100862244D01*
X177787255Y-99602665D01*
X176461819Y-98277228D01*
X176428334Y-98215905D01*
X176425500Y-98189547D01*
X176425500Y-97682738D01*
X176427224Y-97667124D01*
X176426938Y-97667097D01*
X176427672Y-97659334D01*
X176425500Y-97590203D01*
X176425500Y-97560651D01*
X176425500Y-97560650D01*
X176424629Y-97553759D01*
X176424172Y-97547945D01*
X176423405Y-97523543D01*
X176422709Y-97501373D01*
X176420388Y-97493386D01*
X176417122Y-97482144D01*
X176413174Y-97463084D01*
X176410664Y-97443208D01*
X176410663Y-97443206D01*
X176410663Y-97443204D01*
X176393512Y-97399887D01*
X176391619Y-97394358D01*
X176378618Y-97349609D01*
X176378616Y-97349606D01*
X176368423Y-97332371D01*
X176359861Y-97314894D01*
X176352487Y-97296270D01*
X176352486Y-97296268D01*
X176325079Y-97258545D01*
X176321888Y-97253686D01*
X176318424Y-97247829D01*
X176298170Y-97213580D01*
X176298168Y-97213578D01*
X176298165Y-97213574D01*
X176284006Y-97199415D01*
X176271368Y-97184619D01*
X176259594Y-97168413D01*
X176223688Y-97138709D01*
X176219376Y-97134786D01*
X175984590Y-96900000D01*
X179144815Y-96900000D01*
X179163503Y-97077805D01*
X179163504Y-97077807D01*
X179218747Y-97247829D01*
X179218750Y-97247835D01*
X179308141Y-97402665D01*
X179321514Y-97417517D01*
X179427764Y-97535521D01*
X179427767Y-97535523D01*
X179427770Y-97535526D01*
X179572407Y-97640612D01*
X179735733Y-97713329D01*
X179910609Y-97750500D01*
X179910610Y-97750500D01*
X180089389Y-97750500D01*
X180089391Y-97750500D01*
X180264267Y-97713329D01*
X180427593Y-97640612D01*
X180572230Y-97535526D01*
X180691859Y-97402665D01*
X180781250Y-97247835D01*
X180836497Y-97077803D01*
X180855185Y-96900000D01*
X180836497Y-96722197D01*
X180781250Y-96552165D01*
X180691859Y-96397335D01*
X180645003Y-96345296D01*
X180572235Y-96264478D01*
X180572232Y-96264476D01*
X180572231Y-96264475D01*
X180572230Y-96264474D01*
X180427593Y-96159388D01*
X180264267Y-96086671D01*
X180264265Y-96086670D01*
X180116438Y-96055249D01*
X180089391Y-96049500D01*
X179910609Y-96049500D01*
X179883562Y-96055249D01*
X179735733Y-96086670D01*
X179735728Y-96086672D01*
X179572408Y-96159387D01*
X179427768Y-96264475D01*
X179308140Y-96397336D01*
X179218750Y-96552164D01*
X179218747Y-96552170D01*
X179163504Y-96722192D01*
X179163503Y-96722194D01*
X179144815Y-96900000D01*
X175984590Y-96900000D01*
X173236818Y-94152227D01*
X173203333Y-94090904D01*
X173200499Y-94064546D01*
X173200499Y-93477129D01*
X173200498Y-93477123D01*
X173200497Y-93477116D01*
X173194091Y-93417517D01*
X173143796Y-93282669D01*
X173143795Y-93282668D01*
X173143793Y-93282664D01*
X173057547Y-93167455D01*
X173057544Y-93167452D01*
X172942335Y-93081206D01*
X172942328Y-93081202D01*
X172807482Y-93030908D01*
X172807483Y-93030908D01*
X172747883Y-93024501D01*
X172747881Y-93024500D01*
X172747873Y-93024500D01*
X172747864Y-93024500D01*
X170652129Y-93024500D01*
X170652123Y-93024501D01*
X170592516Y-93030908D01*
X170457671Y-93081202D01*
X170457664Y-93081206D01*
X170342455Y-93167452D01*
X170342452Y-93167455D01*
X170256206Y-93282664D01*
X170256202Y-93282671D01*
X170205908Y-93417517D01*
X170199501Y-93477116D01*
X170199501Y-93477123D01*
X170199500Y-93477135D01*
X170199500Y-95072870D01*
X170199501Y-95072876D01*
X170205909Y-95132484D01*
X170242901Y-95231668D01*
X170247885Y-95301360D01*
X170242901Y-95318332D01*
X170205909Y-95417514D01*
X170205908Y-95417516D01*
X170199501Y-95477116D01*
X170199500Y-95477135D01*
X170199500Y-97072870D01*
X170199501Y-97072876D01*
X170205908Y-97132483D01*
X170242902Y-97231667D01*
X170247886Y-97301359D01*
X170242902Y-97318333D01*
X170205908Y-97417517D01*
X170199501Y-97477116D01*
X170199500Y-97477135D01*
X170199500Y-97523543D01*
X170179815Y-97590582D01*
X170127011Y-97636337D01*
X170079396Y-97647482D01*
X170015186Y-97649500D01*
X169985649Y-97649500D01*
X169978766Y-97650369D01*
X169972949Y-97650826D01*
X169926373Y-97652290D01*
X169907129Y-97657881D01*
X169888079Y-97661825D01*
X169868211Y-97664334D01*
X169824884Y-97681488D01*
X169819358Y-97683379D01*
X169774614Y-97696379D01*
X169774610Y-97696381D01*
X169757366Y-97706579D01*
X169739905Y-97715133D01*
X169721274Y-97722510D01*
X169721262Y-97722517D01*
X169683570Y-97749902D01*
X169678687Y-97753109D01*
X169638580Y-97776829D01*
X169624414Y-97790995D01*
X169609624Y-97803627D01*
X169593414Y-97815404D01*
X169593411Y-97815407D01*
X169563710Y-97851309D01*
X169559777Y-97855631D01*
X168766208Y-98649199D01*
X168753951Y-98659020D01*
X168754134Y-98659241D01*
X168748123Y-98664213D01*
X168700772Y-98714636D01*
X168679889Y-98735519D01*
X168679877Y-98735532D01*
X168675621Y-98741017D01*
X168671837Y-98745447D01*
X168639937Y-98779418D01*
X168639936Y-98779420D01*
X168630284Y-98796976D01*
X168619610Y-98813226D01*
X168607329Y-98829061D01*
X168607324Y-98829068D01*
X168588815Y-98871838D01*
X168586245Y-98877084D01*
X168563803Y-98917906D01*
X168558822Y-98937307D01*
X168552521Y-98955710D01*
X168544562Y-98974102D01*
X168544561Y-98974105D01*
X168537271Y-99020127D01*
X168536087Y-99025846D01*
X168524501Y-99070972D01*
X168524499Y-99070984D01*
X168524499Y-99091020D01*
X168522973Y-99110411D01*
X168520914Y-99123412D01*
X168519840Y-99130196D01*
X168520452Y-99136671D01*
X168524225Y-99176583D01*
X168524500Y-99182421D01*
X168524500Y-100199123D01*
X168505494Y-100265095D01*
X168469545Y-100322307D01*
X168413685Y-100481943D01*
X168394751Y-100649997D01*
X168394751Y-100650002D01*
X168413685Y-100818056D01*
X168469545Y-100977694D01*
X168469547Y-100977697D01*
X168559518Y-101120884D01*
X168559523Y-101120890D01*
X168679109Y-101240476D01*
X168679115Y-101240481D01*
X168822302Y-101330452D01*
X168822305Y-101330454D01*
X168822309Y-101330455D01*
X168822310Y-101330456D01*
X168894913Y-101355860D01*
X168981943Y-101386314D01*
X169149997Y-101405249D01*
X169150000Y-101405249D01*
X169150003Y-101405249D01*
X169318056Y-101386314D01*
X169318059Y-101386313D01*
X169477690Y-101330456D01*
X169477692Y-101330454D01*
X169477694Y-101330454D01*
X169477697Y-101330452D01*
X169620884Y-101240481D01*
X169620885Y-101240480D01*
X169620890Y-101240477D01*
X169740477Y-101120890D01*
X169770642Y-101072883D01*
X169830452Y-100977697D01*
X169830454Y-100977694D01*
X169830454Y-100977692D01*
X169830456Y-100977690D01*
X169886313Y-100818059D01*
X169886313Y-100818058D01*
X169886314Y-100818056D01*
X169905249Y-100650002D01*
X169905249Y-100649997D01*
X169886314Y-100481943D01*
X169854119Y-100389936D01*
X169830456Y-100322310D01*
X169818020Y-100302518D01*
X169794506Y-100265095D01*
X169775500Y-100199123D01*
X169775500Y-99460451D01*
X169795185Y-99393412D01*
X169811815Y-99372774D01*
X170027692Y-99156896D01*
X170089015Y-99123412D01*
X170158707Y-99128396D01*
X170214640Y-99170268D01*
X170231556Y-99201247D01*
X170242902Y-99231669D01*
X170247885Y-99301361D01*
X170242901Y-99318332D01*
X170205909Y-99417514D01*
X170205908Y-99417516D01*
X170199501Y-99477116D01*
X170199500Y-99477135D01*
X170199500Y-101072870D01*
X170199501Y-101072876D01*
X170205908Y-101132483D01*
X170242902Y-101231667D01*
X170247886Y-101301359D01*
X170242902Y-101318333D01*
X170205908Y-101417517D01*
X170199844Y-101473930D01*
X170199501Y-101477123D01*
X170199500Y-101477135D01*
X170199500Y-102667907D01*
X170179815Y-102734946D01*
X170127011Y-102780701D01*
X170057853Y-102790645D01*
X169994297Y-102761620D01*
X169957568Y-102706221D01*
X169956250Y-102702165D01*
X169866859Y-102547335D01*
X169807978Y-102481941D01*
X169747235Y-102414478D01*
X169747232Y-102414476D01*
X169747231Y-102414475D01*
X169747230Y-102414474D01*
X169602593Y-102309388D01*
X169439267Y-102236671D01*
X169439265Y-102236670D01*
X169311594Y-102209533D01*
X169264391Y-102199500D01*
X169085609Y-102199500D01*
X169054954Y-102206015D01*
X168910733Y-102236670D01*
X168910728Y-102236672D01*
X168747408Y-102309387D01*
X168602768Y-102414475D01*
X168483140Y-102547336D01*
X168393750Y-102702164D01*
X168393747Y-102702170D01*
X168338504Y-102872192D01*
X168338503Y-102872194D01*
X168319815Y-103049999D01*
X168338503Y-103227805D01*
X168338504Y-103227807D01*
X168393747Y-103397829D01*
X168393748Y-103397830D01*
X168393750Y-103397835D01*
X168407887Y-103422322D01*
X168424500Y-103484320D01*
X168424500Y-104794537D01*
X168404815Y-104861576D01*
X168352011Y-104907331D01*
X168350944Y-104907813D01*
X168347409Y-104909386D01*
X168202768Y-105014475D01*
X168083140Y-105147336D01*
X167993750Y-105302164D01*
X167993747Y-105302170D01*
X167938504Y-105472192D01*
X167938503Y-105472194D01*
X167919815Y-105650000D01*
X167938503Y-105827805D01*
X167938504Y-105827807D01*
X167993747Y-105997829D01*
X167993750Y-105997835D01*
X168083141Y-106152665D01*
X168124812Y-106198946D01*
X168202764Y-106285521D01*
X168202767Y-106285523D01*
X168202770Y-106285526D01*
X168347407Y-106390612D01*
X168510733Y-106463329D01*
X168557498Y-106473269D01*
X168618977Y-106506459D01*
X168652754Y-106567622D01*
X168654028Y-106574171D01*
X168660135Y-106610812D01*
X168671685Y-106680114D01*
X168663291Y-106749477D01*
X168618728Y-106803291D01*
X168552145Y-106824469D01*
X168549373Y-106824500D01*
X167110452Y-106824500D01*
X167043413Y-106804815D01*
X167022771Y-106788181D01*
X165561819Y-105327228D01*
X165528334Y-105265905D01*
X165525500Y-105239547D01*
X165525500Y-104421692D01*
X165545185Y-104354653D01*
X165597989Y-104308898D01*
X165608540Y-104304652D01*
X165677690Y-104280456D01*
X165677692Y-104280455D01*
X165677697Y-104280452D01*
X165820884Y-104190481D01*
X165820885Y-104190480D01*
X165820890Y-104190477D01*
X165940477Y-104070890D01*
X165943550Y-104066000D01*
X166030452Y-103927697D01*
X166030454Y-103927694D01*
X166030454Y-103927692D01*
X166030456Y-103927690D01*
X166086313Y-103768059D01*
X166086313Y-103768058D01*
X166086314Y-103768056D01*
X166105249Y-103600002D01*
X166105249Y-103599997D01*
X166086314Y-103431943D01*
X166046560Y-103318334D01*
X166030456Y-103272310D01*
X166030455Y-103272309D01*
X166030454Y-103272305D01*
X166030452Y-103272302D01*
X165940481Y-103129115D01*
X165940476Y-103129109D01*
X165820890Y-103009523D01*
X165820884Y-103009518D01*
X165677697Y-102919547D01*
X165677694Y-102919545D01*
X165518056Y-102863685D01*
X165350003Y-102844751D01*
X165349997Y-102844751D01*
X165181943Y-102863685D01*
X165022305Y-102919545D01*
X165022302Y-102919547D01*
X164879115Y-103009518D01*
X164879109Y-103009523D01*
X164759523Y-103129109D01*
X164759520Y-103129113D01*
X164754491Y-103137117D01*
X164702155Y-103183406D01*
X164633101Y-103194052D01*
X164569254Y-103165675D01*
X164530884Y-103107283D01*
X164525500Y-103071141D01*
X164525500Y-101732738D01*
X164527224Y-101717124D01*
X164526938Y-101717097D01*
X164527672Y-101709334D01*
X164525500Y-101640203D01*
X164525500Y-101610651D01*
X164525500Y-101610650D01*
X164524629Y-101603759D01*
X164524172Y-101597945D01*
X164523622Y-101580452D01*
X164522709Y-101551373D01*
X164517122Y-101532144D01*
X164513174Y-101513084D01*
X164510664Y-101493208D01*
X164493507Y-101449875D01*
X164491619Y-101444359D01*
X164478619Y-101399612D01*
X164468418Y-101382363D01*
X164459860Y-101364894D01*
X164452486Y-101346268D01*
X164452483Y-101346264D01*
X164452483Y-101346263D01*
X164425098Y-101308571D01*
X164421890Y-101303687D01*
X164398172Y-101263582D01*
X164398163Y-101263571D01*
X164384005Y-101249413D01*
X164371370Y-101234620D01*
X164359593Y-101218412D01*
X164323693Y-101188713D01*
X164319381Y-101184790D01*
X164059767Y-100925176D01*
X164026282Y-100863853D01*
X164031266Y-100794161D01*
X164073138Y-100738228D01*
X164138602Y-100713811D01*
X164197882Y-100724215D01*
X164285733Y-100763329D01*
X164460609Y-100800500D01*
X164460610Y-100800500D01*
X164639389Y-100800500D01*
X164639391Y-100800500D01*
X164814267Y-100763329D01*
X164977593Y-100690612D01*
X165122230Y-100585526D01*
X165134135Y-100572305D01*
X165148148Y-100556741D01*
X165241859Y-100452665D01*
X165331250Y-100297835D01*
X165332314Y-100294562D01*
X165356688Y-100219544D01*
X165386497Y-100127803D01*
X165394135Y-100055132D01*
X165420719Y-99990521D01*
X165478016Y-99950536D01*
X165543235Y-99946807D01*
X165560609Y-99950500D01*
X165560610Y-99950500D01*
X165739389Y-99950500D01*
X165739391Y-99950500D01*
X165914267Y-99913329D01*
X166077593Y-99840612D01*
X166222230Y-99735526D01*
X166341859Y-99602665D01*
X166431250Y-99447835D01*
X166431413Y-99447335D01*
X166466458Y-99339476D01*
X166486497Y-99277803D01*
X166505185Y-99100000D01*
X166486497Y-98922197D01*
X166431250Y-98752165D01*
X166341859Y-98597335D01*
X166274779Y-98522835D01*
X166222235Y-98464478D01*
X166222232Y-98464476D01*
X166222231Y-98464475D01*
X166222230Y-98464474D01*
X166077593Y-98359388D01*
X165914267Y-98286671D01*
X165914265Y-98286670D01*
X165786594Y-98259533D01*
X165739391Y-98249500D01*
X165560609Y-98249500D01*
X165529954Y-98256015D01*
X165385733Y-98286670D01*
X165385732Y-98286670D01*
X165222849Y-98359191D01*
X165153599Y-98368475D01*
X165090323Y-98338846D01*
X165053110Y-98279711D01*
X165049093Y-98232955D01*
X165055185Y-98175000D01*
X165036497Y-97997197D01*
X164992047Y-97860394D01*
X164981252Y-97827170D01*
X164981249Y-97827164D01*
X164891859Y-97672335D01*
X164821801Y-97594528D01*
X164772235Y-97539478D01*
X164772232Y-97539476D01*
X164772231Y-97539475D01*
X164772230Y-97539474D01*
X164627593Y-97434388D01*
X164464267Y-97361671D01*
X164464265Y-97361670D01*
X164326421Y-97332371D01*
X164289391Y-97324500D01*
X164110609Y-97324500D01*
X164079954Y-97331015D01*
X163935733Y-97361670D01*
X163935728Y-97361672D01*
X163772408Y-97434387D01*
X163627768Y-97539475D01*
X163508140Y-97672336D01*
X163418750Y-97827164D01*
X163418747Y-97827170D01*
X163363504Y-97997192D01*
X163363503Y-97997194D01*
X163344815Y-98174999D01*
X163363503Y-98352805D01*
X163363504Y-98352807D01*
X163418747Y-98522829D01*
X163418750Y-98522835D01*
X163508141Y-98677665D01*
X163541429Y-98714635D01*
X163627764Y-98810521D01*
X163627767Y-98810523D01*
X163627770Y-98810526D01*
X163772407Y-98915612D01*
X163935733Y-98988329D01*
X163935735Y-98988329D01*
X163935736Y-98988330D01*
X163996881Y-99001326D01*
X164043127Y-99011156D01*
X164104609Y-99044348D01*
X164138386Y-99105511D01*
X164133734Y-99175225D01*
X164092130Y-99231358D01*
X164090233Y-99232764D01*
X163977768Y-99314475D01*
X163858140Y-99447336D01*
X163768750Y-99602164D01*
X163768747Y-99602170D01*
X163713504Y-99772192D01*
X163713503Y-99772194D01*
X163694815Y-99950000D01*
X163713503Y-100127805D01*
X163713504Y-100127807D01*
X163770758Y-100304016D01*
X163768161Y-100304859D01*
X163775811Y-100362201D01*
X163746141Y-100425458D01*
X163686981Y-100462632D01*
X163617115Y-100461922D01*
X163567618Y-100432208D01*
X163567397Y-100432459D01*
X163566032Y-100431256D01*
X163565568Y-100430977D01*
X163564471Y-100429880D01*
X163564470Y-100429879D01*
X163564469Y-100429878D01*
X163558986Y-100425625D01*
X163554561Y-100421847D01*
X163520582Y-100389938D01*
X163520580Y-100389936D01*
X163520577Y-100389935D01*
X163503029Y-100380288D01*
X163486763Y-100369604D01*
X163470936Y-100357327D01*
X163470935Y-100357326D01*
X163470933Y-100357325D01*
X163428168Y-100338818D01*
X163422922Y-100336248D01*
X163382093Y-100313803D01*
X163382092Y-100313802D01*
X163362693Y-100308822D01*
X163344281Y-100302518D01*
X163325898Y-100294562D01*
X163325892Y-100294560D01*
X163279874Y-100287272D01*
X163274152Y-100286087D01*
X163229021Y-100274500D01*
X163229019Y-100274500D01*
X163208984Y-100274500D01*
X163189586Y-100272973D01*
X163182162Y-100271797D01*
X163169805Y-100269840D01*
X163169804Y-100269840D01*
X163123416Y-100274225D01*
X163117578Y-100274500D01*
X162350876Y-100274500D01*
X162284904Y-100255494D01*
X162227692Y-100219545D01*
X162227691Y-100219544D01*
X162227690Y-100219544D01*
X162169330Y-100199123D01*
X162068056Y-100163685D01*
X161900003Y-100144751D01*
X161899997Y-100144751D01*
X161731943Y-100163685D01*
X161572305Y-100219545D01*
X161572302Y-100219547D01*
X161429115Y-100309518D01*
X161429109Y-100309523D01*
X161309523Y-100429109D01*
X161309518Y-100429115D01*
X161219547Y-100572302D01*
X161219545Y-100572305D01*
X161163685Y-100731943D01*
X161144751Y-100899997D01*
X161144751Y-100900002D01*
X160100500Y-100900002D01*
X160100500Y-95250002D01*
X165444751Y-95250002D01*
X165463685Y-95418056D01*
X165519545Y-95577694D01*
X165519547Y-95577697D01*
X165609518Y-95720884D01*
X165609523Y-95720890D01*
X165729109Y-95840476D01*
X165729115Y-95840481D01*
X165872302Y-95930452D01*
X165872305Y-95930454D01*
X165872309Y-95930455D01*
X165872310Y-95930456D01*
X165912463Y-95944506D01*
X166031943Y-95986314D01*
X166199997Y-96005249D01*
X166200000Y-96005249D01*
X166200003Y-96005249D01*
X166368059Y-95986313D01*
X166368061Y-95986313D01*
X166521966Y-95932459D01*
X166562921Y-95925500D01*
X167999124Y-95925500D01*
X168065095Y-95944505D01*
X168122310Y-95980456D01*
X168243621Y-96022904D01*
X168281943Y-96036314D01*
X168449997Y-96055249D01*
X168450000Y-96055249D01*
X168450003Y-96055249D01*
X168618056Y-96036314D01*
X168618059Y-96036313D01*
X168777690Y-95980456D01*
X168777692Y-95980454D01*
X168777694Y-95980454D01*
X168777697Y-95980452D01*
X168920884Y-95890481D01*
X168920885Y-95890480D01*
X168920890Y-95890477D01*
X169040477Y-95770890D01*
X169063413Y-95734388D01*
X169130452Y-95627697D01*
X169130454Y-95627694D01*
X169130454Y-95627692D01*
X169130456Y-95627690D01*
X169186313Y-95468059D01*
X169186313Y-95468058D01*
X169186314Y-95468056D01*
X169205249Y-95300002D01*
X169205249Y-95299997D01*
X169186314Y-95131943D01*
X169130454Y-94972305D01*
X169130452Y-94972302D01*
X169040481Y-94829115D01*
X169040476Y-94829109D01*
X168920890Y-94709523D01*
X168920884Y-94709518D01*
X168777697Y-94619547D01*
X168777694Y-94619545D01*
X168618056Y-94563685D01*
X168450003Y-94544751D01*
X168449997Y-94544751D01*
X168281943Y-94563685D01*
X168122307Y-94619545D01*
X168065096Y-94655494D01*
X167999124Y-94674500D01*
X166730450Y-94674500D01*
X166664478Y-94655494D01*
X166527692Y-94569545D01*
X166527691Y-94569544D01*
X166527690Y-94569544D01*
X166489370Y-94556135D01*
X166368056Y-94513685D01*
X166200003Y-94494751D01*
X166199997Y-94494751D01*
X166031943Y-94513685D01*
X165872305Y-94569545D01*
X165872302Y-94569547D01*
X165729115Y-94659518D01*
X165729109Y-94659523D01*
X165609523Y-94779109D01*
X165609518Y-94779115D01*
X165519547Y-94922302D01*
X165519545Y-94922305D01*
X165463685Y-95081943D01*
X165444751Y-95249997D01*
X165444751Y-95250002D01*
X160100500Y-95250002D01*
X160100500Y-92400000D01*
X164844815Y-92400000D01*
X164863503Y-92577805D01*
X164863504Y-92577807D01*
X164918747Y-92747829D01*
X164918750Y-92747835D01*
X165008141Y-92902665D01*
X165049812Y-92948946D01*
X165127764Y-93035521D01*
X165127767Y-93035523D01*
X165127770Y-93035526D01*
X165272407Y-93140612D01*
X165435733Y-93213329D01*
X165610609Y-93250500D01*
X165610610Y-93250500D01*
X165789389Y-93250500D01*
X165789391Y-93250500D01*
X165964267Y-93213329D01*
X166127593Y-93140612D01*
X166272230Y-93035526D01*
X166276388Y-93030909D01*
X166298148Y-93006741D01*
X166391859Y-92902665D01*
X166481250Y-92747835D01*
X166536497Y-92577803D01*
X166555185Y-92400000D01*
X166536497Y-92222197D01*
X166481250Y-92052165D01*
X166391859Y-91897335D01*
X166345003Y-91845296D01*
X166272235Y-91764478D01*
X166272232Y-91764476D01*
X166272231Y-91764475D01*
X166272230Y-91764474D01*
X166127593Y-91659388D01*
X165964267Y-91586671D01*
X165964265Y-91586670D01*
X165836594Y-91559533D01*
X165789391Y-91549500D01*
X165610609Y-91549500D01*
X165579954Y-91556015D01*
X165435733Y-91586670D01*
X165435728Y-91586672D01*
X165272408Y-91659387D01*
X165127768Y-91764475D01*
X165008140Y-91897336D01*
X164918750Y-92052164D01*
X164918747Y-92052170D01*
X164863504Y-92222192D01*
X164863503Y-92222194D01*
X164844815Y-92400000D01*
X160100500Y-92400000D01*
X160100500Y-86050000D01*
X163694815Y-86050000D01*
X163713503Y-86227805D01*
X163713504Y-86227807D01*
X163768747Y-86397829D01*
X163768750Y-86397835D01*
X163858141Y-86552665D01*
X163899812Y-86598946D01*
X163977764Y-86685521D01*
X163977767Y-86685523D01*
X163977770Y-86685526D01*
X164122407Y-86790612D01*
X164285733Y-86863329D01*
X164460609Y-86900500D01*
X164460610Y-86900500D01*
X164639389Y-86900500D01*
X164639391Y-86900500D01*
X164814267Y-86863329D01*
X164977593Y-86790612D01*
X165122230Y-86685526D01*
X165241859Y-86552665D01*
X165331250Y-86397835D01*
X165386497Y-86227803D01*
X165405185Y-86050000D01*
X165386497Y-85872197D01*
X165331250Y-85702165D01*
X165241859Y-85547335D01*
X165163693Y-85460523D01*
X165122235Y-85414478D01*
X165122232Y-85414476D01*
X165122231Y-85414475D01*
X165122230Y-85414474D01*
X164977593Y-85309388D01*
X164814267Y-85236671D01*
X164814265Y-85236670D01*
X164686594Y-85209533D01*
X164639391Y-85199500D01*
X164460609Y-85199500D01*
X164429954Y-85206015D01*
X164285733Y-85236670D01*
X164285728Y-85236672D01*
X164122408Y-85309387D01*
X163977768Y-85414475D01*
X163858140Y-85547336D01*
X163768750Y-85702164D01*
X163768747Y-85702170D01*
X163713504Y-85872192D01*
X163713503Y-85872194D01*
X163694815Y-86050000D01*
X160100500Y-86050000D01*
X160100500Y-84849999D01*
X183719815Y-84849999D01*
X183738503Y-85027805D01*
X183738504Y-85027807D01*
X183793747Y-85197829D01*
X183793750Y-85197835D01*
X183883141Y-85352665D01*
X183924812Y-85398946D01*
X184002764Y-85485521D01*
X184002767Y-85485523D01*
X184002770Y-85485526D01*
X184147407Y-85590612D01*
X184310733Y-85663329D01*
X184485609Y-85700500D01*
X184485610Y-85700500D01*
X184664389Y-85700500D01*
X184664391Y-85700500D01*
X184839267Y-85663329D01*
X185002593Y-85590612D01*
X185147230Y-85485526D01*
X185266859Y-85352665D01*
X185356250Y-85197835D01*
X185411497Y-85027803D01*
X185430185Y-84850000D01*
X185427557Y-84825000D01*
X186919815Y-84825000D01*
X186938503Y-85002805D01*
X186938504Y-85002807D01*
X186993747Y-85172829D01*
X186993750Y-85172835D01*
X187083141Y-85327665D01*
X187124812Y-85373946D01*
X187202764Y-85460521D01*
X187202767Y-85460523D01*
X187202770Y-85460526D01*
X187347407Y-85565612D01*
X187510733Y-85638329D01*
X187685609Y-85675500D01*
X187685610Y-85675500D01*
X187864389Y-85675500D01*
X187864391Y-85675500D01*
X188039267Y-85638329D01*
X188202593Y-85565612D01*
X188347230Y-85460526D01*
X188466859Y-85327665D01*
X188556250Y-85172835D01*
X188611497Y-85002803D01*
X188630185Y-84825000D01*
X188611497Y-84647197D01*
X188556250Y-84477165D01*
X188466859Y-84322335D01*
X188420003Y-84270296D01*
X188347235Y-84189478D01*
X188347232Y-84189476D01*
X188347231Y-84189475D01*
X188347230Y-84189474D01*
X188202593Y-84084388D01*
X188039267Y-84011671D01*
X188039265Y-84011670D01*
X187911594Y-83984533D01*
X187864391Y-83974500D01*
X187685609Y-83974500D01*
X187654954Y-83981015D01*
X187510733Y-84011670D01*
X187510728Y-84011672D01*
X187347408Y-84084387D01*
X187202768Y-84189475D01*
X187083140Y-84322336D01*
X186993750Y-84477164D01*
X186993747Y-84477170D01*
X186938504Y-84647192D01*
X186938503Y-84647194D01*
X186919815Y-84825000D01*
X185427557Y-84825000D01*
X185411497Y-84672197D01*
X185356250Y-84502165D01*
X185266859Y-84347335D01*
X185220003Y-84295296D01*
X185147235Y-84214478D01*
X185147232Y-84214476D01*
X185147231Y-84214475D01*
X185147230Y-84214474D01*
X185002593Y-84109388D01*
X184839267Y-84036671D01*
X184839265Y-84036670D01*
X184711594Y-84009533D01*
X184664391Y-83999500D01*
X184485609Y-83999500D01*
X184454954Y-84006015D01*
X184310733Y-84036670D01*
X184310728Y-84036672D01*
X184147408Y-84109387D01*
X184002768Y-84214475D01*
X183883140Y-84347336D01*
X183793750Y-84502164D01*
X183793747Y-84502170D01*
X183738504Y-84672192D01*
X183738503Y-84672194D01*
X183719815Y-84849999D01*
X160100500Y-84849999D01*
X160100500Y-76174500D01*
X160120185Y-76107461D01*
X160172989Y-76061706D01*
X160224500Y-76050500D01*
X195950500Y-76050500D01*
X196017539Y-76070185D01*
G37*
G04 #@! TD.AperFunction*
G04 #@! TA.AperFunction,Conductor*
G36*
X162250276Y-132688990D02*
G01*
X162265751Y-132702118D01*
X162488180Y-132924547D01*
X162521665Y-132985870D01*
X162524499Y-133012228D01*
X162524500Y-146687768D01*
X162504815Y-146754807D01*
X162488181Y-146775449D01*
X162400449Y-146863181D01*
X162339126Y-146896666D01*
X162312768Y-146899500D01*
X160777129Y-146899500D01*
X160777123Y-146899501D01*
X160717516Y-146905908D01*
X160582671Y-146956202D01*
X160582664Y-146956206D01*
X160467455Y-147042452D01*
X160467452Y-147042455D01*
X160381206Y-147157664D01*
X160381202Y-147157671D01*
X160340682Y-147266313D01*
X160298811Y-147322247D01*
X160233347Y-147346664D01*
X160165074Y-147331812D01*
X160115668Y-147282407D01*
X160100500Y-147222980D01*
X160100500Y-144983043D01*
X160120185Y-144916004D01*
X160172989Y-144870249D01*
X160242147Y-144860305D01*
X160289776Y-144877616D01*
X160312599Y-144891747D01*
X160520060Y-144972118D01*
X160738757Y-145013000D01*
X160738759Y-145013000D01*
X160961241Y-145013000D01*
X160961243Y-145013000D01*
X161179940Y-144972118D01*
X161387401Y-144891747D01*
X161576562Y-144774624D01*
X161740981Y-144624736D01*
X161875058Y-144447189D01*
X161974229Y-144248028D01*
X162035115Y-144034036D01*
X162055643Y-143812500D01*
X162035115Y-143590964D01*
X161974229Y-143376972D01*
X161974224Y-143376961D01*
X161875061Y-143177816D01*
X161875056Y-143177808D01*
X161740979Y-143000261D01*
X161576562Y-142850376D01*
X161576560Y-142850374D01*
X161387404Y-142733254D01*
X161387398Y-142733252D01*
X161179940Y-142652882D01*
X160961243Y-142612000D01*
X160738757Y-142612000D01*
X160520060Y-142652882D01*
X160420213Y-142691563D01*
X160312601Y-142733252D01*
X160312598Y-142733253D01*
X160289776Y-142747384D01*
X160222415Y-142765938D01*
X160155716Y-142745129D01*
X160110855Y-142691563D01*
X160100500Y-142641956D01*
X160100500Y-133983043D01*
X160120185Y-133916004D01*
X160172989Y-133870249D01*
X160242147Y-133860305D01*
X160289776Y-133877616D01*
X160312599Y-133891747D01*
X160520060Y-133972118D01*
X160738757Y-134013000D01*
X160738759Y-134013000D01*
X160961241Y-134013000D01*
X160961243Y-134013000D01*
X161179940Y-133972118D01*
X161387401Y-133891747D01*
X161576562Y-133774624D01*
X161740981Y-133624736D01*
X161875058Y-133447189D01*
X161974229Y-133248028D01*
X162035115Y-133034036D01*
X162055643Y-132812500D01*
X162054599Y-132801241D01*
X162068012Y-132732675D01*
X162116367Y-132682241D01*
X162184312Y-132665956D01*
X162250276Y-132688990D01*
G37*
G04 #@! TD.AperFunction*
G04 #@! TA.AperFunction,Conductor*
G36*
X192196106Y-91574225D02*
G01*
X192199982Y-91582297D01*
X192200000Y-91582940D01*
X192200000Y-93046186D01*
X192196573Y-93054459D01*
X192188300Y-93057886D01*
X192187568Y-93057863D01*
X192027425Y-93047823D01*
X192025738Y-93047593D01*
X191806191Y-93001191D01*
X191804449Y-93000679D01*
X191766034Y-92986062D01*
X191624525Y-92932219D01*
X191623826Y-92931898D01*
X191605612Y-92922023D01*
X191469985Y-92848496D01*
X191469619Y-92848279D01*
X191328811Y-92757325D01*
X191328810Y-92757324D01*
X191187822Y-92666252D01*
X191131400Y-92635664D01*
X191033454Y-92582565D01*
X191033449Y-92582563D01*
X191033447Y-92582562D01*
X191033448Y-92582562D01*
X190852324Y-92513646D01*
X190724526Y-92486635D01*
X190631049Y-92466879D01*
X190548609Y-92461710D01*
X190356257Y-92449650D01*
X190356250Y-92449650D01*
X190338354Y-92449650D01*
X190330081Y-92446223D01*
X190327311Y-92441815D01*
X190282925Y-92315000D01*
X190270277Y-92278862D01*
X190270277Y-92271137D01*
X190327310Y-92108185D01*
X190333278Y-92101508D01*
X190338354Y-92100350D01*
X190356246Y-92100350D01*
X190356250Y-92100350D01*
X190567005Y-92088750D01*
X190628581Y-92085361D01*
X190628581Y-92085360D01*
X190628598Y-92085360D01*
X190849056Y-92044673D01*
X191030595Y-91984714D01*
X191186190Y-91911906D01*
X191328811Y-91832675D01*
X191471262Y-91753537D01*
X191471597Y-91753365D01*
X191626715Y-91680781D01*
X191627346Y-91680529D01*
X191808197Y-91620798D01*
X191808953Y-91620604D01*
X192028663Y-91580055D01*
X192029382Y-91579969D01*
X192187658Y-91571258D01*
X192196106Y-91574225D01*
G37*
G04 #@! TD.AperFunction*
M02*
