G04 #@! TF.GenerationSoftware,KiCad,Pcbnew,7.0.1*
G04 #@! TF.CreationDate,2023-10-27T16:47:08-05:00*
G04 #@! TF.ProjectId,FC,46432e6b-6963-4616-945f-706362585858,V1*
G04 #@! TF.SameCoordinates,Original*
G04 #@! TF.FileFunction,Soldermask,Bot*
G04 #@! TF.FilePolarity,Negative*
%FSLAX46Y46*%
G04 Gerber Fmt 4.6, Leading zero omitted, Abs format (unit mm)*
G04 Created by KiCad (PCBNEW 7.0.1) date 2023-10-27 16:47:08*
%MOMM*%
%LPD*%
G01*
G04 APERTURE LIST*
G04 Aperture macros list*
%AMRoundRect*
0 Rectangle with rounded corners*
0 $1 Rounding radius*
0 $2 $3 $4 $5 $6 $7 $8 $9 X,Y pos of 4 corners*
0 Add a 4 corners polygon primitive as box body*
4,1,4,$2,$3,$4,$5,$6,$7,$8,$9,$2,$3,0*
0 Add four circle primitives for the rounded corners*
1,1,$1+$1,$2,$3*
1,1,$1+$1,$4,$5*
1,1,$1+$1,$6,$7*
1,1,$1+$1,$8,$9*
0 Add four rect primitives between the rounded corners*
20,1,$1+$1,$2,$3,$4,$5,0*
20,1,$1+$1,$4,$5,$6,$7,0*
20,1,$1+$1,$6,$7,$8,$9,0*
20,1,$1+$1,$8,$9,$2,$3,0*%
G04 Aperture macros list end*
%ADD10O,1.900000X1.000000*%
%ADD11O,1.250000X1.050000*%
%ADD12R,2.100000X2.100000*%
%ADD13C,2.100000*%
%ADD14R,1.600000X4.900000*%
%ADD15C,3.600000*%
%ADD16C,5.600000*%
%ADD17C,0.990600*%
%ADD18C,1.400000*%
%ADD19R,3.500000X3.500000*%
%ADD20C,3.500000*%
%ADD21R,5.600000X1.500000*%
%ADD22R,4.900000X1.600000*%
%ADD23RoundRect,0.200000X0.275000X-0.200000X0.275000X0.200000X-0.275000X0.200000X-0.275000X-0.200000X0*%
%ADD24R,3.000000X6.000000*%
%ADD25R,2.000000X1.500000*%
G04 APERTURE END LIST*
D10*
X160500000Y-111550000D03*
D11*
X163500000Y-113500000D03*
X163500000Y-117950000D03*
D10*
X160500000Y-119900000D03*
D12*
X175455000Y-160450000D03*
D13*
X177995000Y-160450000D03*
X180535000Y-160450000D03*
X183075000Y-160450000D03*
D14*
X182268891Y-77441954D03*
X173748891Y-77441954D03*
D15*
X190775000Y-81350000D03*
D16*
X190775000Y-81350000D03*
D15*
X165375000Y-157550000D03*
D16*
X165375000Y-157550000D03*
D12*
X161875000Y-148450000D03*
D13*
X161875000Y-150990000D03*
D15*
X165375000Y-81350000D03*
D16*
X165375000Y-81350000D03*
D17*
X169775000Y-124415000D03*
X164695000Y-125431000D03*
X164695000Y-123399000D03*
D15*
X190775000Y-157550000D03*
D16*
X190775000Y-157550000D03*
D18*
X160850000Y-143812500D03*
X160850000Y-132812500D03*
D19*
X170850000Y-135812500D03*
D20*
X170850000Y-140812500D03*
D21*
X194300000Y-92315000D03*
D22*
X194650000Y-88055000D03*
X194650000Y-96575000D03*
D23*
X189950000Y-100000000D03*
X189950000Y-98350000D03*
X189950000Y-96400000D03*
X189950000Y-94750000D03*
D24*
X190700000Y-134950000D03*
X178700000Y-134950000D03*
D25*
X187700000Y-92275000D03*
X187700000Y-94275000D03*
X187700000Y-96275000D03*
X187700000Y-98275000D03*
X187700000Y-100275000D03*
X187700000Y-102275000D03*
X187700000Y-104275000D03*
X187700000Y-106275000D03*
X171700000Y-106275000D03*
X171700000Y-104275000D03*
X171700000Y-102275000D03*
X171700000Y-100275000D03*
X171700000Y-98275000D03*
X171700000Y-96275000D03*
X171700000Y-94275000D03*
X171700000Y-92275000D03*
M02*
