G04 #@! TF.GenerationSoftware,KiCad,Pcbnew,7.0.1*
G04 #@! TF.CreationDate,2023-10-27T16:47:08-05:00*
G04 #@! TF.ProjectId,FC,46432e6b-6963-4616-945f-706362585858,V1*
G04 #@! TF.SameCoordinates,Original*
G04 #@! TF.FileFunction,Legend,Top*
G04 #@! TF.FilePolarity,Positive*
%FSLAX46Y46*%
G04 Gerber Fmt 4.6, Leading zero omitted, Abs format (unit mm)*
G04 Created by KiCad (PCBNEW 7.0.1) date 2023-10-27 16:47:08*
%MOMM*%
%LPD*%
G01*
G04 APERTURE LIST*
G04 Aperture macros list*
%AMRoundRect*
0 Rectangle with rounded corners*
0 $1 Rounding radius*
0 $2 $3 $4 $5 $6 $7 $8 $9 X,Y pos of 4 corners*
0 Add a 4 corners polygon primitive as box body*
4,1,4,$2,$3,$4,$5,$6,$7,$8,$9,$2,$3,0*
0 Add four circle primitives for the rounded corners*
1,1,$1+$1,$2,$3*
1,1,$1+$1,$4,$5*
1,1,$1+$1,$6,$7*
1,1,$1+$1,$8,$9*
0 Add four rect primitives between the rounded corners*
20,1,$1+$1,$2,$3,$4,$5,0*
20,1,$1+$1,$4,$5,$6,$7,0*
20,1,$1+$1,$6,$7,$8,$9,0*
20,1,$1+$1,$8,$9,$2,$3,0*%
%AMRotRect*
0 Rectangle, with rotation*
0 The origin of the aperture is its center*
0 $1 length*
0 $2 width*
0 $3 Rotation angle, in degrees counterclockwise*
0 Add horizontal line*
21,1,$1,$2,0,0,$3*%
G04 Aperture macros list end*
%ADD10C,0.150000*%
%ADD11C,0.153000*%
%ADD12C,0.120000*%
%ADD13C,0.127000*%
%ADD14C,0.200000*%
%ADD15C,0.152400*%
%ADD16RoundRect,0.200000X-0.275000X0.200000X-0.275000X-0.200000X0.275000X-0.200000X0.275000X0.200000X0*%
%ADD17RoundRect,0.200000X-0.200000X-0.275000X0.200000X-0.275000X0.200000X0.275000X-0.200000X0.275000X0*%
%ADD18RoundRect,0.150000X0.725000X0.150000X-0.725000X0.150000X-0.725000X-0.150000X0.725000X-0.150000X0*%
%ADD19RoundRect,0.200000X0.200000X0.275000X-0.200000X0.275000X-0.200000X-0.275000X0.200000X-0.275000X0*%
%ADD20R,1.400000X1.270000*%
%ADD21R,4.800000X4.720000*%
%ADD22RoundRect,0.250000X-0.312500X-0.625000X0.312500X-0.625000X0.312500X0.625000X-0.312500X0.625000X0*%
%ADD23R,1.350000X0.400000*%
%ADD24O,1.900000X1.000000*%
%ADD25R,1.900000X0.875000*%
%ADD26O,1.250000X1.050000*%
%ADD27R,1.900000X2.900000*%
%ADD28RoundRect,0.200000X0.275000X-0.200000X0.275000X0.200000X-0.275000X0.200000X-0.275000X-0.200000X0*%
%ADD29RoundRect,0.150000X0.150000X-0.512500X0.150000X0.512500X-0.150000X0.512500X-0.150000X-0.512500X0*%
%ADD30RoundRect,0.150000X-0.587500X-0.150000X0.587500X-0.150000X0.587500X0.150000X-0.587500X0.150000X0*%
%ADD31R,2.100000X2.100000*%
%ADD32C,2.100000*%
%ADD33RoundRect,0.147500X-0.147500X-0.172500X0.147500X-0.172500X0.147500X0.172500X-0.147500X0.172500X0*%
%ADD34RoundRect,0.175000X0.175000X-0.725000X0.175000X0.725000X-0.175000X0.725000X-0.175000X-0.725000X0*%
%ADD35RoundRect,0.200000X0.200000X-0.700000X0.200000X0.700000X-0.200000X0.700000X-0.200000X-0.700000X0*%
%ADD36R,0.250000X0.475000*%
%ADD37R,0.475000X0.250000*%
%ADD38RoundRect,0.250000X-0.250000X-0.250000X0.250000X-0.250000X0.250000X0.250000X-0.250000X0.250000X0*%
%ADD39RoundRect,0.250000X-0.625000X0.312500X-0.625000X-0.312500X0.625000X-0.312500X0.625000X0.312500X0*%
%ADD40RoundRect,0.140000X0.140000X0.170000X-0.140000X0.170000X-0.140000X-0.170000X0.140000X-0.170000X0*%
%ADD41R,1.500000X5.600000*%
%ADD42R,1.600000X4.900000*%
%ADD43R,1.879600X2.260600*%
%ADD44C,3.600000*%
%ADD45C,5.600000*%
%ADD46RoundRect,0.200000X0.053033X-0.335876X0.335876X-0.053033X-0.053033X0.335876X-0.335876X0.053033X0*%
%ADD47R,0.863600X0.558800*%
%ADD48RotRect,1.400000X1.200000X135.000000*%
%ADD49C,0.269000*%
%ADD50R,0.600000X2.200000*%
%ADD51R,3.450000X2.150000*%
%ADD52R,1.500000X0.550000*%
%ADD53R,0.550000X1.500000*%
%ADD54R,0.350000X0.375000*%
%ADD55R,0.375000X0.350000*%
%ADD56RoundRect,0.200000X0.335876X0.053033X0.053033X0.335876X-0.335876X-0.053033X-0.053033X-0.335876X0*%
%ADD57RoundRect,0.200000X-0.335876X-0.053033X-0.053033X-0.335876X0.335876X0.053033X0.053033X0.335876X0*%
%ADD58C,0.990600*%
%ADD59C,0.787400*%
%ADD60RoundRect,0.150000X-0.150000X0.512500X-0.150000X-0.512500X0.150000X-0.512500X0.150000X0.512500X0*%
%ADD61RoundRect,0.250000X0.625000X-0.312500X0.625000X0.312500X-0.625000X0.312500X-0.625000X-0.312500X0*%
%ADD62RoundRect,0.150000X-0.825000X-0.150000X0.825000X-0.150000X0.825000X0.150000X-0.825000X0.150000X0*%
%ADD63C,1.400000*%
%ADD64R,3.500000X3.500000*%
%ADD65C,3.500000*%
%ADD66R,0.550000X0.950000*%
%ADD67R,4.900000X1.600000*%
G04 APERTURE END LIST*
D10*
X186567380Y-124692857D02*
X186615000Y-124740476D01*
X186615000Y-124740476D02*
X186662619Y-124883333D01*
X186662619Y-124883333D02*
X186662619Y-124978571D01*
X186662619Y-124978571D02*
X186615000Y-125121428D01*
X186615000Y-125121428D02*
X186519761Y-125216666D01*
X186519761Y-125216666D02*
X186424523Y-125264285D01*
X186424523Y-125264285D02*
X186234047Y-125311904D01*
X186234047Y-125311904D02*
X186091190Y-125311904D01*
X186091190Y-125311904D02*
X185900714Y-125264285D01*
X185900714Y-125264285D02*
X185805476Y-125216666D01*
X185805476Y-125216666D02*
X185710238Y-125121428D01*
X185710238Y-125121428D02*
X185662619Y-124978571D01*
X185662619Y-124978571D02*
X185662619Y-124883333D01*
X185662619Y-124883333D02*
X185710238Y-124740476D01*
X185710238Y-124740476D02*
X185757857Y-124692857D01*
X185757857Y-124311904D02*
X185710238Y-124264285D01*
X185710238Y-124264285D02*
X185662619Y-124169047D01*
X185662619Y-124169047D02*
X185662619Y-123930952D01*
X185662619Y-123930952D02*
X185710238Y-123835714D01*
X185710238Y-123835714D02*
X185757857Y-123788095D01*
X185757857Y-123788095D02*
X185853095Y-123740476D01*
X185853095Y-123740476D02*
X185948333Y-123740476D01*
X185948333Y-123740476D02*
X186091190Y-123788095D01*
X186091190Y-123788095D02*
X186662619Y-124359523D01*
X186662619Y-124359523D02*
X186662619Y-123740476D01*
X185662619Y-123407142D02*
X185662619Y-122788095D01*
X185662619Y-122788095D02*
X186043571Y-123121428D01*
X186043571Y-123121428D02*
X186043571Y-122978571D01*
X186043571Y-122978571D02*
X186091190Y-122883333D01*
X186091190Y-122883333D02*
X186138809Y-122835714D01*
X186138809Y-122835714D02*
X186234047Y-122788095D01*
X186234047Y-122788095D02*
X186472142Y-122788095D01*
X186472142Y-122788095D02*
X186567380Y-122835714D01*
X186567380Y-122835714D02*
X186615000Y-122883333D01*
X186615000Y-122883333D02*
X186662619Y-122978571D01*
X186662619Y-122978571D02*
X186662619Y-123264285D01*
X186662619Y-123264285D02*
X186615000Y-123359523D01*
X186615000Y-123359523D02*
X186567380Y-123407142D01*
X173532142Y-109262380D02*
X173484523Y-109310000D01*
X173484523Y-109310000D02*
X173341666Y-109357619D01*
X173341666Y-109357619D02*
X173246428Y-109357619D01*
X173246428Y-109357619D02*
X173103571Y-109310000D01*
X173103571Y-109310000D02*
X173008333Y-109214761D01*
X173008333Y-109214761D02*
X172960714Y-109119523D01*
X172960714Y-109119523D02*
X172913095Y-108929047D01*
X172913095Y-108929047D02*
X172913095Y-108786190D01*
X172913095Y-108786190D02*
X172960714Y-108595714D01*
X172960714Y-108595714D02*
X173008333Y-108500476D01*
X173008333Y-108500476D02*
X173103571Y-108405238D01*
X173103571Y-108405238D02*
X173246428Y-108357619D01*
X173246428Y-108357619D02*
X173341666Y-108357619D01*
X173341666Y-108357619D02*
X173484523Y-108405238D01*
X173484523Y-108405238D02*
X173532142Y-108452857D01*
X173913095Y-108452857D02*
X173960714Y-108405238D01*
X173960714Y-108405238D02*
X174055952Y-108357619D01*
X174055952Y-108357619D02*
X174294047Y-108357619D01*
X174294047Y-108357619D02*
X174389285Y-108405238D01*
X174389285Y-108405238D02*
X174436904Y-108452857D01*
X174436904Y-108452857D02*
X174484523Y-108548095D01*
X174484523Y-108548095D02*
X174484523Y-108643333D01*
X174484523Y-108643333D02*
X174436904Y-108786190D01*
X174436904Y-108786190D02*
X173865476Y-109357619D01*
X173865476Y-109357619D02*
X174484523Y-109357619D01*
X174817857Y-108357619D02*
X175484523Y-108357619D01*
X175484523Y-108357619D02*
X175055952Y-109357619D01*
X186275595Y-154312619D02*
X186275595Y-155122142D01*
X186275595Y-155122142D02*
X186323214Y-155217380D01*
X186323214Y-155217380D02*
X186370833Y-155265000D01*
X186370833Y-155265000D02*
X186466071Y-155312619D01*
X186466071Y-155312619D02*
X186656547Y-155312619D01*
X186656547Y-155312619D02*
X186751785Y-155265000D01*
X186751785Y-155265000D02*
X186799404Y-155217380D01*
X186799404Y-155217380D02*
X186847023Y-155122142D01*
X186847023Y-155122142D02*
X186847023Y-154312619D01*
X187227976Y-154312619D02*
X187847023Y-154312619D01*
X187847023Y-154312619D02*
X187513690Y-154693571D01*
X187513690Y-154693571D02*
X187656547Y-154693571D01*
X187656547Y-154693571D02*
X187751785Y-154741190D01*
X187751785Y-154741190D02*
X187799404Y-154788809D01*
X187799404Y-154788809D02*
X187847023Y-154884047D01*
X187847023Y-154884047D02*
X187847023Y-155122142D01*
X187847023Y-155122142D02*
X187799404Y-155217380D01*
X187799404Y-155217380D02*
X187751785Y-155265000D01*
X187751785Y-155265000D02*
X187656547Y-155312619D01*
X187656547Y-155312619D02*
X187370833Y-155312619D01*
X187370833Y-155312619D02*
X187275595Y-155265000D01*
X187275595Y-155265000D02*
X187227976Y-155217380D01*
X159903114Y-98050168D02*
X159847949Y-98088795D01*
X159847949Y-98088795D02*
X159698993Y-98110884D01*
X159698993Y-98110884D02*
X159605202Y-98094346D01*
X159605202Y-98094346D02*
X159472784Y-98022643D01*
X159472784Y-98022643D02*
X159395531Y-97912314D01*
X159395531Y-97912314D02*
X159365173Y-97810254D01*
X159365173Y-97810254D02*
X159351354Y-97614402D01*
X159351354Y-97614402D02*
X159376160Y-97473716D01*
X159376160Y-97473716D02*
X159456132Y-97294402D01*
X159456132Y-97294402D02*
X159519565Y-97208880D01*
X159519565Y-97208880D02*
X159629895Y-97131627D01*
X159629895Y-97131627D02*
X159778850Y-97109538D01*
X159778850Y-97109538D02*
X159872642Y-97126076D01*
X159872642Y-97126076D02*
X160005059Y-97197778D01*
X160005059Y-97197778D02*
X160043686Y-97252943D01*
X160824488Y-98309339D02*
X160261741Y-98210111D01*
X160543114Y-98259725D02*
X160716762Y-97274917D01*
X160716762Y-97274917D02*
X160598164Y-97399066D01*
X160598164Y-97399066D02*
X160487835Y-97476319D01*
X160487835Y-97476319D02*
X160385775Y-97506677D01*
X161784374Y-97801641D02*
X161668609Y-98458180D01*
X161616048Y-97385132D02*
X161257536Y-98047221D01*
X161257536Y-98047221D02*
X161867178Y-98154717D01*
X160543959Y-100513423D02*
X160017121Y-100759003D01*
X160444732Y-101076170D02*
X159459924Y-100902522D01*
X159459924Y-100902522D02*
X159526076Y-100527357D01*
X159526076Y-100527357D02*
X159589509Y-100441835D01*
X159589509Y-100441835D02*
X159644674Y-100403209D01*
X159644674Y-100403209D02*
X159746734Y-100372851D01*
X159746734Y-100372851D02*
X159887421Y-100397658D01*
X159887421Y-100397658D02*
X159972943Y-100461091D01*
X159972943Y-100461091D02*
X160011570Y-100516256D01*
X160011570Y-100516256D02*
X160041927Y-100618316D01*
X160041927Y-100618316D02*
X159975776Y-100993481D01*
X160709339Y-99575511D02*
X160610111Y-100138258D01*
X160659725Y-99856885D02*
X159674917Y-99683237D01*
X159674917Y-99683237D02*
X159799066Y-99801835D01*
X159799066Y-99801835D02*
X159876319Y-99912164D01*
X159876319Y-99912164D02*
X159906677Y-100014224D01*
X160245819Y-98913536D02*
X160182385Y-98999058D01*
X160182385Y-98999058D02*
X160127221Y-99037685D01*
X160127221Y-99037685D02*
X160025161Y-99068043D01*
X160025161Y-99068043D02*
X159978265Y-99059774D01*
X159978265Y-99059774D02*
X159892743Y-98996340D01*
X159892743Y-98996340D02*
X159854116Y-98941176D01*
X159854116Y-98941176D02*
X159823758Y-98839116D01*
X159823758Y-98839116D02*
X159856834Y-98651533D01*
X159856834Y-98651533D02*
X159920268Y-98566011D01*
X159920268Y-98566011D02*
X159975432Y-98527384D01*
X159975432Y-98527384D02*
X160077492Y-98497027D01*
X160077492Y-98497027D02*
X160124388Y-98505295D01*
X160124388Y-98505295D02*
X160209910Y-98568729D01*
X160209910Y-98568729D02*
X160248537Y-98623894D01*
X160248537Y-98623894D02*
X160278895Y-98725954D01*
X160278895Y-98725954D02*
X160245819Y-98913536D01*
X160245819Y-98913536D02*
X160276176Y-99015596D01*
X160276176Y-99015596D02*
X160314803Y-99070761D01*
X160314803Y-99070761D02*
X160400325Y-99134194D01*
X160400325Y-99134194D02*
X160587908Y-99167270D01*
X160587908Y-99167270D02*
X160689968Y-99136913D01*
X160689968Y-99136913D02*
X160745133Y-99098286D01*
X160745133Y-99098286D02*
X160808566Y-99012764D01*
X160808566Y-99012764D02*
X160841642Y-98825181D01*
X160841642Y-98825181D02*
X160811284Y-98723121D01*
X160811284Y-98723121D02*
X160772658Y-98667957D01*
X160772658Y-98667957D02*
X160687135Y-98604523D01*
X160687135Y-98604523D02*
X160499553Y-98571447D01*
X160499553Y-98571447D02*
X160397493Y-98601805D01*
X160397493Y-98601805D02*
X160342328Y-98640432D01*
X160342328Y-98640432D02*
X160278895Y-98725954D01*
X196167380Y-106730357D02*
X196215000Y-106777976D01*
X196215000Y-106777976D02*
X196262619Y-106920833D01*
X196262619Y-106920833D02*
X196262619Y-107016071D01*
X196262619Y-107016071D02*
X196215000Y-107158928D01*
X196215000Y-107158928D02*
X196119761Y-107254166D01*
X196119761Y-107254166D02*
X196024523Y-107301785D01*
X196024523Y-107301785D02*
X195834047Y-107349404D01*
X195834047Y-107349404D02*
X195691190Y-107349404D01*
X195691190Y-107349404D02*
X195500714Y-107301785D01*
X195500714Y-107301785D02*
X195405476Y-107254166D01*
X195405476Y-107254166D02*
X195310238Y-107158928D01*
X195310238Y-107158928D02*
X195262619Y-107016071D01*
X195262619Y-107016071D02*
X195262619Y-106920833D01*
X195262619Y-106920833D02*
X195310238Y-106777976D01*
X195310238Y-106777976D02*
X195357857Y-106730357D01*
X195357857Y-106349404D02*
X195310238Y-106301785D01*
X195310238Y-106301785D02*
X195262619Y-106206547D01*
X195262619Y-106206547D02*
X195262619Y-105968452D01*
X195262619Y-105968452D02*
X195310238Y-105873214D01*
X195310238Y-105873214D02*
X195357857Y-105825595D01*
X195357857Y-105825595D02*
X195453095Y-105777976D01*
X195453095Y-105777976D02*
X195548333Y-105777976D01*
X195548333Y-105777976D02*
X195691190Y-105825595D01*
X195691190Y-105825595D02*
X196262619Y-106397023D01*
X196262619Y-106397023D02*
X196262619Y-105777976D01*
X196262619Y-105301785D02*
X196262619Y-105111309D01*
X196262619Y-105111309D02*
X196215000Y-105016071D01*
X196215000Y-105016071D02*
X196167380Y-104968452D01*
X196167380Y-104968452D02*
X196024523Y-104873214D01*
X196024523Y-104873214D02*
X195834047Y-104825595D01*
X195834047Y-104825595D02*
X195453095Y-104825595D01*
X195453095Y-104825595D02*
X195357857Y-104873214D01*
X195357857Y-104873214D02*
X195310238Y-104920833D01*
X195310238Y-104920833D02*
X195262619Y-105016071D01*
X195262619Y-105016071D02*
X195262619Y-105206547D01*
X195262619Y-105206547D02*
X195310238Y-105301785D01*
X195310238Y-105301785D02*
X195357857Y-105349404D01*
X195357857Y-105349404D02*
X195453095Y-105397023D01*
X195453095Y-105397023D02*
X195691190Y-105397023D01*
X195691190Y-105397023D02*
X195786428Y-105349404D01*
X195786428Y-105349404D02*
X195834047Y-105301785D01*
X195834047Y-105301785D02*
X195881666Y-105206547D01*
X195881666Y-105206547D02*
X195881666Y-105016071D01*
X195881666Y-105016071D02*
X195834047Y-104920833D01*
X195834047Y-104920833D02*
X195786428Y-104873214D01*
X195786428Y-104873214D02*
X195691190Y-104825595D01*
X178236905Y-136235119D02*
X178236905Y-135235119D01*
X178236905Y-135235119D02*
X178475000Y-135235119D01*
X178475000Y-135235119D02*
X178617857Y-135282738D01*
X178617857Y-135282738D02*
X178713095Y-135377976D01*
X178713095Y-135377976D02*
X178760714Y-135473214D01*
X178760714Y-135473214D02*
X178808333Y-135663690D01*
X178808333Y-135663690D02*
X178808333Y-135806547D01*
X178808333Y-135806547D02*
X178760714Y-135997023D01*
X178760714Y-135997023D02*
X178713095Y-136092261D01*
X178713095Y-136092261D02*
X178617857Y-136187500D01*
X178617857Y-136187500D02*
X178475000Y-136235119D01*
X178475000Y-136235119D02*
X178236905Y-136235119D01*
X179379762Y-135663690D02*
X179284524Y-135616071D01*
X179284524Y-135616071D02*
X179236905Y-135568452D01*
X179236905Y-135568452D02*
X179189286Y-135473214D01*
X179189286Y-135473214D02*
X179189286Y-135425595D01*
X179189286Y-135425595D02*
X179236905Y-135330357D01*
X179236905Y-135330357D02*
X179284524Y-135282738D01*
X179284524Y-135282738D02*
X179379762Y-135235119D01*
X179379762Y-135235119D02*
X179570238Y-135235119D01*
X179570238Y-135235119D02*
X179665476Y-135282738D01*
X179665476Y-135282738D02*
X179713095Y-135330357D01*
X179713095Y-135330357D02*
X179760714Y-135425595D01*
X179760714Y-135425595D02*
X179760714Y-135473214D01*
X179760714Y-135473214D02*
X179713095Y-135568452D01*
X179713095Y-135568452D02*
X179665476Y-135616071D01*
X179665476Y-135616071D02*
X179570238Y-135663690D01*
X179570238Y-135663690D02*
X179379762Y-135663690D01*
X179379762Y-135663690D02*
X179284524Y-135711309D01*
X179284524Y-135711309D02*
X179236905Y-135758928D01*
X179236905Y-135758928D02*
X179189286Y-135854166D01*
X179189286Y-135854166D02*
X179189286Y-136044642D01*
X179189286Y-136044642D02*
X179236905Y-136139880D01*
X179236905Y-136139880D02*
X179284524Y-136187500D01*
X179284524Y-136187500D02*
X179379762Y-136235119D01*
X179379762Y-136235119D02*
X179570238Y-136235119D01*
X179570238Y-136235119D02*
X179665476Y-136187500D01*
X179665476Y-136187500D02*
X179713095Y-136139880D01*
X179713095Y-136139880D02*
X179760714Y-136044642D01*
X179760714Y-136044642D02*
X179760714Y-135854166D01*
X179760714Y-135854166D02*
X179713095Y-135758928D01*
X179713095Y-135758928D02*
X179665476Y-135711309D01*
X179665476Y-135711309D02*
X179570238Y-135663690D01*
X193133333Y-145317380D02*
X193085714Y-145365000D01*
X193085714Y-145365000D02*
X192942857Y-145412619D01*
X192942857Y-145412619D02*
X192847619Y-145412619D01*
X192847619Y-145412619D02*
X192704762Y-145365000D01*
X192704762Y-145365000D02*
X192609524Y-145269761D01*
X192609524Y-145269761D02*
X192561905Y-145174523D01*
X192561905Y-145174523D02*
X192514286Y-144984047D01*
X192514286Y-144984047D02*
X192514286Y-144841190D01*
X192514286Y-144841190D02*
X192561905Y-144650714D01*
X192561905Y-144650714D02*
X192609524Y-144555476D01*
X192609524Y-144555476D02*
X192704762Y-144460238D01*
X192704762Y-144460238D02*
X192847619Y-144412619D01*
X192847619Y-144412619D02*
X192942857Y-144412619D01*
X192942857Y-144412619D02*
X193085714Y-144460238D01*
X193085714Y-144460238D02*
X193133333Y-144507857D01*
X193514286Y-144507857D02*
X193561905Y-144460238D01*
X193561905Y-144460238D02*
X193657143Y-144412619D01*
X193657143Y-144412619D02*
X193895238Y-144412619D01*
X193895238Y-144412619D02*
X193990476Y-144460238D01*
X193990476Y-144460238D02*
X194038095Y-144507857D01*
X194038095Y-144507857D02*
X194085714Y-144603095D01*
X194085714Y-144603095D02*
X194085714Y-144698333D01*
X194085714Y-144698333D02*
X194038095Y-144841190D01*
X194038095Y-144841190D02*
X193466667Y-145412619D01*
X193466667Y-145412619D02*
X194085714Y-145412619D01*
X177166666Y-152788809D02*
X176833333Y-152788809D01*
X176833333Y-153312619D02*
X176833333Y-152312619D01*
X176833333Y-152312619D02*
X177309523Y-152312619D01*
X178214285Y-153312619D02*
X177642857Y-153312619D01*
X177928571Y-153312619D02*
X177928571Y-152312619D01*
X177928571Y-152312619D02*
X177833333Y-152455476D01*
X177833333Y-152455476D02*
X177738095Y-152550714D01*
X177738095Y-152550714D02*
X177642857Y-152598333D01*
X164366666Y-111212619D02*
X164366666Y-111926904D01*
X164366666Y-111926904D02*
X164319047Y-112069761D01*
X164319047Y-112069761D02*
X164223809Y-112165000D01*
X164223809Y-112165000D02*
X164080952Y-112212619D01*
X164080952Y-112212619D02*
X163985714Y-112212619D01*
X165271428Y-111212619D02*
X165080952Y-111212619D01*
X165080952Y-111212619D02*
X164985714Y-111260238D01*
X164985714Y-111260238D02*
X164938095Y-111307857D01*
X164938095Y-111307857D02*
X164842857Y-111450714D01*
X164842857Y-111450714D02*
X164795238Y-111641190D01*
X164795238Y-111641190D02*
X164795238Y-112022142D01*
X164795238Y-112022142D02*
X164842857Y-112117380D01*
X164842857Y-112117380D02*
X164890476Y-112165000D01*
X164890476Y-112165000D02*
X164985714Y-112212619D01*
X164985714Y-112212619D02*
X165176190Y-112212619D01*
X165176190Y-112212619D02*
X165271428Y-112165000D01*
X165271428Y-112165000D02*
X165319047Y-112117380D01*
X165319047Y-112117380D02*
X165366666Y-112022142D01*
X165366666Y-112022142D02*
X165366666Y-111784047D01*
X165366666Y-111784047D02*
X165319047Y-111688809D01*
X165319047Y-111688809D02*
X165271428Y-111641190D01*
X165271428Y-111641190D02*
X165176190Y-111593571D01*
X165176190Y-111593571D02*
X164985714Y-111593571D01*
X164985714Y-111593571D02*
X164890476Y-111641190D01*
X164890476Y-111641190D02*
X164842857Y-111688809D01*
X164842857Y-111688809D02*
X164795238Y-111784047D01*
X183107142Y-84312619D02*
X182773809Y-83836428D01*
X182535714Y-84312619D02*
X182535714Y-83312619D01*
X182535714Y-83312619D02*
X182916666Y-83312619D01*
X182916666Y-83312619D02*
X183011904Y-83360238D01*
X183011904Y-83360238D02*
X183059523Y-83407857D01*
X183059523Y-83407857D02*
X183107142Y-83503095D01*
X183107142Y-83503095D02*
X183107142Y-83645952D01*
X183107142Y-83645952D02*
X183059523Y-83741190D01*
X183059523Y-83741190D02*
X183011904Y-83788809D01*
X183011904Y-83788809D02*
X182916666Y-83836428D01*
X182916666Y-83836428D02*
X182535714Y-83836428D01*
X184059523Y-84312619D02*
X183488095Y-84312619D01*
X183773809Y-84312619D02*
X183773809Y-83312619D01*
X183773809Y-83312619D02*
X183678571Y-83455476D01*
X183678571Y-83455476D02*
X183583333Y-83550714D01*
X183583333Y-83550714D02*
X183488095Y-83598333D01*
X184964285Y-83312619D02*
X184488095Y-83312619D01*
X184488095Y-83312619D02*
X184440476Y-83788809D01*
X184440476Y-83788809D02*
X184488095Y-83741190D01*
X184488095Y-83741190D02*
X184583333Y-83693571D01*
X184583333Y-83693571D02*
X184821428Y-83693571D01*
X184821428Y-83693571D02*
X184916666Y-83741190D01*
X184916666Y-83741190D02*
X184964285Y-83788809D01*
X184964285Y-83788809D02*
X185011904Y-83884047D01*
X185011904Y-83884047D02*
X185011904Y-84122142D01*
X185011904Y-84122142D02*
X184964285Y-84217380D01*
X184964285Y-84217380D02*
X184916666Y-84265000D01*
X184916666Y-84265000D02*
X184821428Y-84312619D01*
X184821428Y-84312619D02*
X184583333Y-84312619D01*
X184583333Y-84312619D02*
X184488095Y-84265000D01*
X184488095Y-84265000D02*
X184440476Y-84217380D01*
X187745119Y-103630357D02*
X187268928Y-103963690D01*
X187745119Y-104201785D02*
X186745119Y-104201785D01*
X186745119Y-104201785D02*
X186745119Y-103820833D01*
X186745119Y-103820833D02*
X186792738Y-103725595D01*
X186792738Y-103725595D02*
X186840357Y-103677976D01*
X186840357Y-103677976D02*
X186935595Y-103630357D01*
X186935595Y-103630357D02*
X187078452Y-103630357D01*
X187078452Y-103630357D02*
X187173690Y-103677976D01*
X187173690Y-103677976D02*
X187221309Y-103725595D01*
X187221309Y-103725595D02*
X187268928Y-103820833D01*
X187268928Y-103820833D02*
X187268928Y-104201785D01*
X187745119Y-102677976D02*
X187745119Y-103249404D01*
X187745119Y-102963690D02*
X186745119Y-102963690D01*
X186745119Y-102963690D02*
X186887976Y-103058928D01*
X186887976Y-103058928D02*
X186983214Y-103154166D01*
X186983214Y-103154166D02*
X187030833Y-103249404D01*
X187078452Y-101820833D02*
X187745119Y-101820833D01*
X186697500Y-102058928D02*
X187411785Y-102297023D01*
X187411785Y-102297023D02*
X187411785Y-101677976D01*
X167887619Y-155396279D02*
X168697142Y-155396279D01*
X168697142Y-155396279D02*
X168792380Y-155348660D01*
X168792380Y-155348660D02*
X168840000Y-155301041D01*
X168840000Y-155301041D02*
X168887619Y-155205803D01*
X168887619Y-155205803D02*
X168887619Y-155015327D01*
X168887619Y-155015327D02*
X168840000Y-154920089D01*
X168840000Y-154920089D02*
X168792380Y-154872470D01*
X168792380Y-154872470D02*
X168697142Y-154824851D01*
X168697142Y-154824851D02*
X167887619Y-154824851D01*
X167982857Y-154396279D02*
X167935238Y-154348660D01*
X167935238Y-154348660D02*
X167887619Y-154253422D01*
X167887619Y-154253422D02*
X167887619Y-154015327D01*
X167887619Y-154015327D02*
X167935238Y-153920089D01*
X167935238Y-153920089D02*
X167982857Y-153872470D01*
X167982857Y-153872470D02*
X168078095Y-153824851D01*
X168078095Y-153824851D02*
X168173333Y-153824851D01*
X168173333Y-153824851D02*
X168316190Y-153872470D01*
X168316190Y-153872470D02*
X168887619Y-154443898D01*
X168887619Y-154443898D02*
X168887619Y-153824851D01*
X186562619Y-121392857D02*
X186086428Y-121726190D01*
X186562619Y-121964285D02*
X185562619Y-121964285D01*
X185562619Y-121964285D02*
X185562619Y-121583333D01*
X185562619Y-121583333D02*
X185610238Y-121488095D01*
X185610238Y-121488095D02*
X185657857Y-121440476D01*
X185657857Y-121440476D02*
X185753095Y-121392857D01*
X185753095Y-121392857D02*
X185895952Y-121392857D01*
X185895952Y-121392857D02*
X185991190Y-121440476D01*
X185991190Y-121440476D02*
X186038809Y-121488095D01*
X186038809Y-121488095D02*
X186086428Y-121583333D01*
X186086428Y-121583333D02*
X186086428Y-121964285D01*
X185657857Y-121011904D02*
X185610238Y-120964285D01*
X185610238Y-120964285D02*
X185562619Y-120869047D01*
X185562619Y-120869047D02*
X185562619Y-120630952D01*
X185562619Y-120630952D02*
X185610238Y-120535714D01*
X185610238Y-120535714D02*
X185657857Y-120488095D01*
X185657857Y-120488095D02*
X185753095Y-120440476D01*
X185753095Y-120440476D02*
X185848333Y-120440476D01*
X185848333Y-120440476D02*
X185991190Y-120488095D01*
X185991190Y-120488095D02*
X186562619Y-121059523D01*
X186562619Y-121059523D02*
X186562619Y-120440476D01*
X186562619Y-119488095D02*
X186562619Y-120059523D01*
X186562619Y-119773809D02*
X185562619Y-119773809D01*
X185562619Y-119773809D02*
X185705476Y-119869047D01*
X185705476Y-119869047D02*
X185800714Y-119964285D01*
X185800714Y-119964285D02*
X185848333Y-120059523D01*
X165062619Y-132388094D02*
X164062619Y-132388094D01*
X164062619Y-132388094D02*
X164062619Y-132149999D01*
X164062619Y-132149999D02*
X164110238Y-132007142D01*
X164110238Y-132007142D02*
X164205476Y-131911904D01*
X164205476Y-131911904D02*
X164300714Y-131864285D01*
X164300714Y-131864285D02*
X164491190Y-131816666D01*
X164491190Y-131816666D02*
X164634047Y-131816666D01*
X164634047Y-131816666D02*
X164824523Y-131864285D01*
X164824523Y-131864285D02*
X164919761Y-131911904D01*
X164919761Y-131911904D02*
X165015000Y-132007142D01*
X165015000Y-132007142D02*
X165062619Y-132149999D01*
X165062619Y-132149999D02*
X165062619Y-132388094D01*
X164062619Y-131483332D02*
X164062619Y-130864285D01*
X164062619Y-130864285D02*
X164443571Y-131197618D01*
X164443571Y-131197618D02*
X164443571Y-131054761D01*
X164443571Y-131054761D02*
X164491190Y-130959523D01*
X164491190Y-130959523D02*
X164538809Y-130911904D01*
X164538809Y-130911904D02*
X164634047Y-130864285D01*
X164634047Y-130864285D02*
X164872142Y-130864285D01*
X164872142Y-130864285D02*
X164967380Y-130911904D01*
X164967380Y-130911904D02*
X165015000Y-130959523D01*
X165015000Y-130959523D02*
X165062619Y-131054761D01*
X165062619Y-131054761D02*
X165062619Y-131340475D01*
X165062619Y-131340475D02*
X165015000Y-131435713D01*
X165015000Y-131435713D02*
X164967380Y-131483332D01*
X178931666Y-155542619D02*
X178931666Y-156256904D01*
X178931666Y-156256904D02*
X178884047Y-156399761D01*
X178884047Y-156399761D02*
X178788809Y-156495000D01*
X178788809Y-156495000D02*
X178645952Y-156542619D01*
X178645952Y-156542619D02*
X178550714Y-156542619D01*
X179312619Y-155542619D02*
X179931666Y-155542619D01*
X179931666Y-155542619D02*
X179598333Y-155923571D01*
X179598333Y-155923571D02*
X179741190Y-155923571D01*
X179741190Y-155923571D02*
X179836428Y-155971190D01*
X179836428Y-155971190D02*
X179884047Y-156018809D01*
X179884047Y-156018809D02*
X179931666Y-156114047D01*
X179931666Y-156114047D02*
X179931666Y-156352142D01*
X179931666Y-156352142D02*
X179884047Y-156447380D01*
X179884047Y-156447380D02*
X179836428Y-156495000D01*
X179836428Y-156495000D02*
X179741190Y-156542619D01*
X179741190Y-156542619D02*
X179455476Y-156542619D01*
X179455476Y-156542619D02*
X179360238Y-156495000D01*
X179360238Y-156495000D02*
X179312619Y-156447380D01*
X179433333Y-83412619D02*
X178957143Y-83412619D01*
X178957143Y-83412619D02*
X178957143Y-82412619D01*
X180290476Y-83412619D02*
X179719048Y-83412619D01*
X180004762Y-83412619D02*
X180004762Y-82412619D01*
X180004762Y-82412619D02*
X179909524Y-82555476D01*
X179909524Y-82555476D02*
X179814286Y-82650714D01*
X179814286Y-82650714D02*
X179719048Y-82698333D01*
X195233333Y-109817380D02*
X195185714Y-109865000D01*
X195185714Y-109865000D02*
X195042857Y-109912619D01*
X195042857Y-109912619D02*
X194947619Y-109912619D01*
X194947619Y-109912619D02*
X194804762Y-109865000D01*
X194804762Y-109865000D02*
X194709524Y-109769761D01*
X194709524Y-109769761D02*
X194661905Y-109674523D01*
X194661905Y-109674523D02*
X194614286Y-109484047D01*
X194614286Y-109484047D02*
X194614286Y-109341190D01*
X194614286Y-109341190D02*
X194661905Y-109150714D01*
X194661905Y-109150714D02*
X194709524Y-109055476D01*
X194709524Y-109055476D02*
X194804762Y-108960238D01*
X194804762Y-108960238D02*
X194947619Y-108912619D01*
X194947619Y-108912619D02*
X195042857Y-108912619D01*
X195042857Y-108912619D02*
X195185714Y-108960238D01*
X195185714Y-108960238D02*
X195233333Y-109007857D01*
X196090476Y-109245952D02*
X196090476Y-109912619D01*
X195852381Y-108865000D02*
X195614286Y-109579285D01*
X195614286Y-109579285D02*
X196233333Y-109579285D01*
X165882619Y-98917857D02*
X165406428Y-99251190D01*
X165882619Y-99489285D02*
X164882619Y-99489285D01*
X164882619Y-99489285D02*
X164882619Y-99108333D01*
X164882619Y-99108333D02*
X164930238Y-99013095D01*
X164930238Y-99013095D02*
X164977857Y-98965476D01*
X164977857Y-98965476D02*
X165073095Y-98917857D01*
X165073095Y-98917857D02*
X165215952Y-98917857D01*
X165215952Y-98917857D02*
X165311190Y-98965476D01*
X165311190Y-98965476D02*
X165358809Y-99013095D01*
X165358809Y-99013095D02*
X165406428Y-99108333D01*
X165406428Y-99108333D02*
X165406428Y-99489285D01*
X164977857Y-98536904D02*
X164930238Y-98489285D01*
X164930238Y-98489285D02*
X164882619Y-98394047D01*
X164882619Y-98394047D02*
X164882619Y-98155952D01*
X164882619Y-98155952D02*
X164930238Y-98060714D01*
X164930238Y-98060714D02*
X164977857Y-98013095D01*
X164977857Y-98013095D02*
X165073095Y-97965476D01*
X165073095Y-97965476D02*
X165168333Y-97965476D01*
X165168333Y-97965476D02*
X165311190Y-98013095D01*
X165311190Y-98013095D02*
X165882619Y-98584523D01*
X165882619Y-98584523D02*
X165882619Y-97965476D01*
X165311190Y-97394047D02*
X165263571Y-97489285D01*
X165263571Y-97489285D02*
X165215952Y-97536904D01*
X165215952Y-97536904D02*
X165120714Y-97584523D01*
X165120714Y-97584523D02*
X165073095Y-97584523D01*
X165073095Y-97584523D02*
X164977857Y-97536904D01*
X164977857Y-97536904D02*
X164930238Y-97489285D01*
X164930238Y-97489285D02*
X164882619Y-97394047D01*
X164882619Y-97394047D02*
X164882619Y-97203571D01*
X164882619Y-97203571D02*
X164930238Y-97108333D01*
X164930238Y-97108333D02*
X164977857Y-97060714D01*
X164977857Y-97060714D02*
X165073095Y-97013095D01*
X165073095Y-97013095D02*
X165120714Y-97013095D01*
X165120714Y-97013095D02*
X165215952Y-97060714D01*
X165215952Y-97060714D02*
X165263571Y-97108333D01*
X165263571Y-97108333D02*
X165311190Y-97203571D01*
X165311190Y-97203571D02*
X165311190Y-97394047D01*
X165311190Y-97394047D02*
X165358809Y-97489285D01*
X165358809Y-97489285D02*
X165406428Y-97536904D01*
X165406428Y-97536904D02*
X165501666Y-97584523D01*
X165501666Y-97584523D02*
X165692142Y-97584523D01*
X165692142Y-97584523D02*
X165787380Y-97536904D01*
X165787380Y-97536904D02*
X165835000Y-97489285D01*
X165835000Y-97489285D02*
X165882619Y-97394047D01*
X165882619Y-97394047D02*
X165882619Y-97203571D01*
X165882619Y-97203571D02*
X165835000Y-97108333D01*
X165835000Y-97108333D02*
X165787380Y-97060714D01*
X165787380Y-97060714D02*
X165692142Y-97013095D01*
X165692142Y-97013095D02*
X165501666Y-97013095D01*
X165501666Y-97013095D02*
X165406428Y-97060714D01*
X165406428Y-97060714D02*
X165358809Y-97108333D01*
X165358809Y-97108333D02*
X165311190Y-97203571D01*
X196262619Y-150492857D02*
X195786428Y-150826190D01*
X196262619Y-151064285D02*
X195262619Y-151064285D01*
X195262619Y-151064285D02*
X195262619Y-150683333D01*
X195262619Y-150683333D02*
X195310238Y-150588095D01*
X195310238Y-150588095D02*
X195357857Y-150540476D01*
X195357857Y-150540476D02*
X195453095Y-150492857D01*
X195453095Y-150492857D02*
X195595952Y-150492857D01*
X195595952Y-150492857D02*
X195691190Y-150540476D01*
X195691190Y-150540476D02*
X195738809Y-150588095D01*
X195738809Y-150588095D02*
X195786428Y-150683333D01*
X195786428Y-150683333D02*
X195786428Y-151064285D01*
X196262619Y-149540476D02*
X196262619Y-150111904D01*
X196262619Y-149826190D02*
X195262619Y-149826190D01*
X195262619Y-149826190D02*
X195405476Y-149921428D01*
X195405476Y-149921428D02*
X195500714Y-150016666D01*
X195500714Y-150016666D02*
X195548333Y-150111904D01*
X195357857Y-149159523D02*
X195310238Y-149111904D01*
X195310238Y-149111904D02*
X195262619Y-149016666D01*
X195262619Y-149016666D02*
X195262619Y-148778571D01*
X195262619Y-148778571D02*
X195310238Y-148683333D01*
X195310238Y-148683333D02*
X195357857Y-148635714D01*
X195357857Y-148635714D02*
X195453095Y-148588095D01*
X195453095Y-148588095D02*
X195548333Y-148588095D01*
X195548333Y-148588095D02*
X195691190Y-148635714D01*
X195691190Y-148635714D02*
X196262619Y-149207142D01*
X196262619Y-149207142D02*
X196262619Y-148588095D01*
X171312619Y-116992857D02*
X170836428Y-117326190D01*
X171312619Y-117564285D02*
X170312619Y-117564285D01*
X170312619Y-117564285D02*
X170312619Y-117183333D01*
X170312619Y-117183333D02*
X170360238Y-117088095D01*
X170360238Y-117088095D02*
X170407857Y-117040476D01*
X170407857Y-117040476D02*
X170503095Y-116992857D01*
X170503095Y-116992857D02*
X170645952Y-116992857D01*
X170645952Y-116992857D02*
X170741190Y-117040476D01*
X170741190Y-117040476D02*
X170788809Y-117088095D01*
X170788809Y-117088095D02*
X170836428Y-117183333D01*
X170836428Y-117183333D02*
X170836428Y-117564285D01*
X170407857Y-116611904D02*
X170360238Y-116564285D01*
X170360238Y-116564285D02*
X170312619Y-116469047D01*
X170312619Y-116469047D02*
X170312619Y-116230952D01*
X170312619Y-116230952D02*
X170360238Y-116135714D01*
X170360238Y-116135714D02*
X170407857Y-116088095D01*
X170407857Y-116088095D02*
X170503095Y-116040476D01*
X170503095Y-116040476D02*
X170598333Y-116040476D01*
X170598333Y-116040476D02*
X170741190Y-116088095D01*
X170741190Y-116088095D02*
X171312619Y-116659523D01*
X171312619Y-116659523D02*
X171312619Y-116040476D01*
X170312619Y-115707142D02*
X170312619Y-115088095D01*
X170312619Y-115088095D02*
X170693571Y-115421428D01*
X170693571Y-115421428D02*
X170693571Y-115278571D01*
X170693571Y-115278571D02*
X170741190Y-115183333D01*
X170741190Y-115183333D02*
X170788809Y-115135714D01*
X170788809Y-115135714D02*
X170884047Y-115088095D01*
X170884047Y-115088095D02*
X171122142Y-115088095D01*
X171122142Y-115088095D02*
X171217380Y-115135714D01*
X171217380Y-115135714D02*
X171265000Y-115183333D01*
X171265000Y-115183333D02*
X171312619Y-115278571D01*
X171312619Y-115278571D02*
X171312619Y-115564285D01*
X171312619Y-115564285D02*
X171265000Y-115659523D01*
X171265000Y-115659523D02*
X171217380Y-115707142D01*
X168171510Y-90553858D02*
X168981033Y-90553858D01*
X168981033Y-90553858D02*
X169076271Y-90506239D01*
X169076271Y-90506239D02*
X169123891Y-90458620D01*
X169123891Y-90458620D02*
X169171510Y-90363382D01*
X169171510Y-90363382D02*
X169171510Y-90172906D01*
X169171510Y-90172906D02*
X169123891Y-90077668D01*
X169123891Y-90077668D02*
X169076271Y-90030049D01*
X169076271Y-90030049D02*
X168981033Y-89982430D01*
X168981033Y-89982430D02*
X168171510Y-89982430D01*
X168600081Y-89363382D02*
X168552462Y-89458620D01*
X168552462Y-89458620D02*
X168504843Y-89506239D01*
X168504843Y-89506239D02*
X168409605Y-89553858D01*
X168409605Y-89553858D02*
X168361986Y-89553858D01*
X168361986Y-89553858D02*
X168266748Y-89506239D01*
X168266748Y-89506239D02*
X168219129Y-89458620D01*
X168219129Y-89458620D02*
X168171510Y-89363382D01*
X168171510Y-89363382D02*
X168171510Y-89172906D01*
X168171510Y-89172906D02*
X168219129Y-89077668D01*
X168219129Y-89077668D02*
X168266748Y-89030049D01*
X168266748Y-89030049D02*
X168361986Y-88982430D01*
X168361986Y-88982430D02*
X168409605Y-88982430D01*
X168409605Y-88982430D02*
X168504843Y-89030049D01*
X168504843Y-89030049D02*
X168552462Y-89077668D01*
X168552462Y-89077668D02*
X168600081Y-89172906D01*
X168600081Y-89172906D02*
X168600081Y-89363382D01*
X168600081Y-89363382D02*
X168647700Y-89458620D01*
X168647700Y-89458620D02*
X168695319Y-89506239D01*
X168695319Y-89506239D02*
X168790557Y-89553858D01*
X168790557Y-89553858D02*
X168981033Y-89553858D01*
X168981033Y-89553858D02*
X169076271Y-89506239D01*
X169076271Y-89506239D02*
X169123891Y-89458620D01*
X169123891Y-89458620D02*
X169171510Y-89363382D01*
X169171510Y-89363382D02*
X169171510Y-89172906D01*
X169171510Y-89172906D02*
X169123891Y-89077668D01*
X169123891Y-89077668D02*
X169076271Y-89030049D01*
X169076271Y-89030049D02*
X168981033Y-88982430D01*
X168981033Y-88982430D02*
X168790557Y-88982430D01*
X168790557Y-88982430D02*
X168695319Y-89030049D01*
X168695319Y-89030049D02*
X168647700Y-89077668D01*
X168647700Y-89077668D02*
X168600081Y-89172906D01*
D11*
X190438095Y-101912619D02*
X190438095Y-102722142D01*
X190438095Y-102722142D02*
X190485714Y-102817380D01*
X190485714Y-102817380D02*
X190533333Y-102865000D01*
X190533333Y-102865000D02*
X190628571Y-102912619D01*
X190628571Y-102912619D02*
X190819047Y-102912619D01*
X190819047Y-102912619D02*
X190914285Y-102865000D01*
X190914285Y-102865000D02*
X190961904Y-102817380D01*
X190961904Y-102817380D02*
X191009523Y-102722142D01*
X191009523Y-102722142D02*
X191009523Y-101912619D01*
X191961904Y-101912619D02*
X191485714Y-101912619D01*
X191485714Y-101912619D02*
X191438095Y-102388809D01*
X191438095Y-102388809D02*
X191485714Y-102341190D01*
X191485714Y-102341190D02*
X191580952Y-102293571D01*
X191580952Y-102293571D02*
X191819047Y-102293571D01*
X191819047Y-102293571D02*
X191914285Y-102341190D01*
X191914285Y-102341190D02*
X191961904Y-102388809D01*
X191961904Y-102388809D02*
X192009523Y-102484047D01*
X192009523Y-102484047D02*
X192009523Y-102722142D01*
X192009523Y-102722142D02*
X191961904Y-102817380D01*
X191961904Y-102817380D02*
X191914285Y-102865000D01*
X191914285Y-102865000D02*
X191819047Y-102912619D01*
X191819047Y-102912619D02*
X191580952Y-102912619D01*
X191580952Y-102912619D02*
X191485714Y-102865000D01*
X191485714Y-102865000D02*
X191438095Y-102817380D01*
D10*
X196167380Y-103592857D02*
X196215000Y-103640476D01*
X196215000Y-103640476D02*
X196262619Y-103783333D01*
X196262619Y-103783333D02*
X196262619Y-103878571D01*
X196262619Y-103878571D02*
X196215000Y-104021428D01*
X196215000Y-104021428D02*
X196119761Y-104116666D01*
X196119761Y-104116666D02*
X196024523Y-104164285D01*
X196024523Y-104164285D02*
X195834047Y-104211904D01*
X195834047Y-104211904D02*
X195691190Y-104211904D01*
X195691190Y-104211904D02*
X195500714Y-104164285D01*
X195500714Y-104164285D02*
X195405476Y-104116666D01*
X195405476Y-104116666D02*
X195310238Y-104021428D01*
X195310238Y-104021428D02*
X195262619Y-103878571D01*
X195262619Y-103878571D02*
X195262619Y-103783333D01*
X195262619Y-103783333D02*
X195310238Y-103640476D01*
X195310238Y-103640476D02*
X195357857Y-103592857D01*
X195357857Y-103211904D02*
X195310238Y-103164285D01*
X195310238Y-103164285D02*
X195262619Y-103069047D01*
X195262619Y-103069047D02*
X195262619Y-102830952D01*
X195262619Y-102830952D02*
X195310238Y-102735714D01*
X195310238Y-102735714D02*
X195357857Y-102688095D01*
X195357857Y-102688095D02*
X195453095Y-102640476D01*
X195453095Y-102640476D02*
X195548333Y-102640476D01*
X195548333Y-102640476D02*
X195691190Y-102688095D01*
X195691190Y-102688095D02*
X196262619Y-103259523D01*
X196262619Y-103259523D02*
X196262619Y-102640476D01*
X195691190Y-102069047D02*
X195643571Y-102164285D01*
X195643571Y-102164285D02*
X195595952Y-102211904D01*
X195595952Y-102211904D02*
X195500714Y-102259523D01*
X195500714Y-102259523D02*
X195453095Y-102259523D01*
X195453095Y-102259523D02*
X195357857Y-102211904D01*
X195357857Y-102211904D02*
X195310238Y-102164285D01*
X195310238Y-102164285D02*
X195262619Y-102069047D01*
X195262619Y-102069047D02*
X195262619Y-101878571D01*
X195262619Y-101878571D02*
X195310238Y-101783333D01*
X195310238Y-101783333D02*
X195357857Y-101735714D01*
X195357857Y-101735714D02*
X195453095Y-101688095D01*
X195453095Y-101688095D02*
X195500714Y-101688095D01*
X195500714Y-101688095D02*
X195595952Y-101735714D01*
X195595952Y-101735714D02*
X195643571Y-101783333D01*
X195643571Y-101783333D02*
X195691190Y-101878571D01*
X195691190Y-101878571D02*
X195691190Y-102069047D01*
X195691190Y-102069047D02*
X195738809Y-102164285D01*
X195738809Y-102164285D02*
X195786428Y-102211904D01*
X195786428Y-102211904D02*
X195881666Y-102259523D01*
X195881666Y-102259523D02*
X196072142Y-102259523D01*
X196072142Y-102259523D02*
X196167380Y-102211904D01*
X196167380Y-102211904D02*
X196215000Y-102164285D01*
X196215000Y-102164285D02*
X196262619Y-102069047D01*
X196262619Y-102069047D02*
X196262619Y-101878571D01*
X196262619Y-101878571D02*
X196215000Y-101783333D01*
X196215000Y-101783333D02*
X196167380Y-101735714D01*
X196167380Y-101735714D02*
X196072142Y-101688095D01*
X196072142Y-101688095D02*
X195881666Y-101688095D01*
X195881666Y-101688095D02*
X195786428Y-101735714D01*
X195786428Y-101735714D02*
X195738809Y-101783333D01*
X195738809Y-101783333D02*
X195691190Y-101878571D01*
X192012619Y-148038094D02*
X191012619Y-148038094D01*
X191012619Y-148038094D02*
X191012619Y-147799999D01*
X191012619Y-147799999D02*
X191060238Y-147657142D01*
X191060238Y-147657142D02*
X191155476Y-147561904D01*
X191155476Y-147561904D02*
X191250714Y-147514285D01*
X191250714Y-147514285D02*
X191441190Y-147466666D01*
X191441190Y-147466666D02*
X191584047Y-147466666D01*
X191584047Y-147466666D02*
X191774523Y-147514285D01*
X191774523Y-147514285D02*
X191869761Y-147561904D01*
X191869761Y-147561904D02*
X191965000Y-147657142D01*
X191965000Y-147657142D02*
X192012619Y-147799999D01*
X192012619Y-147799999D02*
X192012619Y-148038094D01*
X191012619Y-147133332D02*
X191012619Y-146466666D01*
X191012619Y-146466666D02*
X192012619Y-146895237D01*
X174588809Y-146983333D02*
X174588809Y-147316666D01*
X175112619Y-147316666D02*
X174112619Y-147316666D01*
X174112619Y-147316666D02*
X174112619Y-146840476D01*
X174207857Y-146507142D02*
X174160238Y-146459523D01*
X174160238Y-146459523D02*
X174112619Y-146364285D01*
X174112619Y-146364285D02*
X174112619Y-146126190D01*
X174112619Y-146126190D02*
X174160238Y-146030952D01*
X174160238Y-146030952D02*
X174207857Y-145983333D01*
X174207857Y-145983333D02*
X174303095Y-145935714D01*
X174303095Y-145935714D02*
X174398333Y-145935714D01*
X174398333Y-145935714D02*
X174541190Y-145983333D01*
X174541190Y-145983333D02*
X175112619Y-146554761D01*
X175112619Y-146554761D02*
X175112619Y-145935714D01*
X172057142Y-82017380D02*
X172009523Y-82065000D01*
X172009523Y-82065000D02*
X171866666Y-82112619D01*
X171866666Y-82112619D02*
X171771428Y-82112619D01*
X171771428Y-82112619D02*
X171628571Y-82065000D01*
X171628571Y-82065000D02*
X171533333Y-81969761D01*
X171533333Y-81969761D02*
X171485714Y-81874523D01*
X171485714Y-81874523D02*
X171438095Y-81684047D01*
X171438095Y-81684047D02*
X171438095Y-81541190D01*
X171438095Y-81541190D02*
X171485714Y-81350714D01*
X171485714Y-81350714D02*
X171533333Y-81255476D01*
X171533333Y-81255476D02*
X171628571Y-81160238D01*
X171628571Y-81160238D02*
X171771428Y-81112619D01*
X171771428Y-81112619D02*
X171866666Y-81112619D01*
X171866666Y-81112619D02*
X172009523Y-81160238D01*
X172009523Y-81160238D02*
X172057142Y-81207857D01*
X172438095Y-81207857D02*
X172485714Y-81160238D01*
X172485714Y-81160238D02*
X172580952Y-81112619D01*
X172580952Y-81112619D02*
X172819047Y-81112619D01*
X172819047Y-81112619D02*
X172914285Y-81160238D01*
X172914285Y-81160238D02*
X172961904Y-81207857D01*
X172961904Y-81207857D02*
X173009523Y-81303095D01*
X173009523Y-81303095D02*
X173009523Y-81398333D01*
X173009523Y-81398333D02*
X172961904Y-81541190D01*
X172961904Y-81541190D02*
X172390476Y-82112619D01*
X172390476Y-82112619D02*
X173009523Y-82112619D01*
X173914285Y-81112619D02*
X173438095Y-81112619D01*
X173438095Y-81112619D02*
X173390476Y-81588809D01*
X173390476Y-81588809D02*
X173438095Y-81541190D01*
X173438095Y-81541190D02*
X173533333Y-81493571D01*
X173533333Y-81493571D02*
X173771428Y-81493571D01*
X173771428Y-81493571D02*
X173866666Y-81541190D01*
X173866666Y-81541190D02*
X173914285Y-81588809D01*
X173914285Y-81588809D02*
X173961904Y-81684047D01*
X173961904Y-81684047D02*
X173961904Y-81922142D01*
X173961904Y-81922142D02*
X173914285Y-82017380D01*
X173914285Y-82017380D02*
X173866666Y-82065000D01*
X173866666Y-82065000D02*
X173771428Y-82112619D01*
X173771428Y-82112619D02*
X173533333Y-82112619D01*
X173533333Y-82112619D02*
X173438095Y-82065000D01*
X173438095Y-82065000D02*
X173390476Y-82017380D01*
X171433333Y-161517380D02*
X171385714Y-161565000D01*
X171385714Y-161565000D02*
X171242857Y-161612619D01*
X171242857Y-161612619D02*
X171147619Y-161612619D01*
X171147619Y-161612619D02*
X171004762Y-161565000D01*
X171004762Y-161565000D02*
X170909524Y-161469761D01*
X170909524Y-161469761D02*
X170861905Y-161374523D01*
X170861905Y-161374523D02*
X170814286Y-161184047D01*
X170814286Y-161184047D02*
X170814286Y-161041190D01*
X170814286Y-161041190D02*
X170861905Y-160850714D01*
X170861905Y-160850714D02*
X170909524Y-160755476D01*
X170909524Y-160755476D02*
X171004762Y-160660238D01*
X171004762Y-160660238D02*
X171147619Y-160612619D01*
X171147619Y-160612619D02*
X171242857Y-160612619D01*
X171242857Y-160612619D02*
X171385714Y-160660238D01*
X171385714Y-160660238D02*
X171433333Y-160707857D01*
X171766667Y-160612619D02*
X172385714Y-160612619D01*
X172385714Y-160612619D02*
X172052381Y-160993571D01*
X172052381Y-160993571D02*
X172195238Y-160993571D01*
X172195238Y-160993571D02*
X172290476Y-161041190D01*
X172290476Y-161041190D02*
X172338095Y-161088809D01*
X172338095Y-161088809D02*
X172385714Y-161184047D01*
X172385714Y-161184047D02*
X172385714Y-161422142D01*
X172385714Y-161422142D02*
X172338095Y-161517380D01*
X172338095Y-161517380D02*
X172290476Y-161565000D01*
X172290476Y-161565000D02*
X172195238Y-161612619D01*
X172195238Y-161612619D02*
X171909524Y-161612619D01*
X171909524Y-161612619D02*
X171814286Y-161565000D01*
X171814286Y-161565000D02*
X171766667Y-161517380D01*
X192712619Y-130738094D02*
X191712619Y-130738094D01*
X191712619Y-130738094D02*
X191712619Y-130499999D01*
X191712619Y-130499999D02*
X191760238Y-130357142D01*
X191760238Y-130357142D02*
X191855476Y-130261904D01*
X191855476Y-130261904D02*
X191950714Y-130214285D01*
X191950714Y-130214285D02*
X192141190Y-130166666D01*
X192141190Y-130166666D02*
X192284047Y-130166666D01*
X192284047Y-130166666D02*
X192474523Y-130214285D01*
X192474523Y-130214285D02*
X192569761Y-130261904D01*
X192569761Y-130261904D02*
X192665000Y-130357142D01*
X192665000Y-130357142D02*
X192712619Y-130499999D01*
X192712619Y-130499999D02*
X192712619Y-130738094D01*
X191712619Y-129261904D02*
X191712619Y-129738094D01*
X191712619Y-129738094D02*
X192188809Y-129785713D01*
X192188809Y-129785713D02*
X192141190Y-129738094D01*
X192141190Y-129738094D02*
X192093571Y-129642856D01*
X192093571Y-129642856D02*
X192093571Y-129404761D01*
X192093571Y-129404761D02*
X192141190Y-129309523D01*
X192141190Y-129309523D02*
X192188809Y-129261904D01*
X192188809Y-129261904D02*
X192284047Y-129214285D01*
X192284047Y-129214285D02*
X192522142Y-129214285D01*
X192522142Y-129214285D02*
X192617380Y-129261904D01*
X192617380Y-129261904D02*
X192665000Y-129309523D01*
X192665000Y-129309523D02*
X192712619Y-129404761D01*
X192712619Y-129404761D02*
X192712619Y-129642856D01*
X192712619Y-129642856D02*
X192665000Y-129738094D01*
X192665000Y-129738094D02*
X192617380Y-129785713D01*
X183966666Y-79812619D02*
X183966666Y-80526904D01*
X183966666Y-80526904D02*
X183919047Y-80669761D01*
X183919047Y-80669761D02*
X183823809Y-80765000D01*
X183823809Y-80765000D02*
X183680952Y-80812619D01*
X183680952Y-80812619D02*
X183585714Y-80812619D01*
X184919047Y-79812619D02*
X184442857Y-79812619D01*
X184442857Y-79812619D02*
X184395238Y-80288809D01*
X184395238Y-80288809D02*
X184442857Y-80241190D01*
X184442857Y-80241190D02*
X184538095Y-80193571D01*
X184538095Y-80193571D02*
X184776190Y-80193571D01*
X184776190Y-80193571D02*
X184871428Y-80241190D01*
X184871428Y-80241190D02*
X184919047Y-80288809D01*
X184919047Y-80288809D02*
X184966666Y-80384047D01*
X184966666Y-80384047D02*
X184966666Y-80622142D01*
X184966666Y-80622142D02*
X184919047Y-80717380D01*
X184919047Y-80717380D02*
X184871428Y-80765000D01*
X184871428Y-80765000D02*
X184776190Y-80812619D01*
X184776190Y-80812619D02*
X184538095Y-80812619D01*
X184538095Y-80812619D02*
X184442857Y-80765000D01*
X184442857Y-80765000D02*
X184395238Y-80717380D01*
X186562619Y-118592857D02*
X186086428Y-118926190D01*
X186562619Y-119164285D02*
X185562619Y-119164285D01*
X185562619Y-119164285D02*
X185562619Y-118783333D01*
X185562619Y-118783333D02*
X185610238Y-118688095D01*
X185610238Y-118688095D02*
X185657857Y-118640476D01*
X185657857Y-118640476D02*
X185753095Y-118592857D01*
X185753095Y-118592857D02*
X185895952Y-118592857D01*
X185895952Y-118592857D02*
X185991190Y-118640476D01*
X185991190Y-118640476D02*
X186038809Y-118688095D01*
X186038809Y-118688095D02*
X186086428Y-118783333D01*
X186086428Y-118783333D02*
X186086428Y-119164285D01*
X185657857Y-118211904D02*
X185610238Y-118164285D01*
X185610238Y-118164285D02*
X185562619Y-118069047D01*
X185562619Y-118069047D02*
X185562619Y-117830952D01*
X185562619Y-117830952D02*
X185610238Y-117735714D01*
X185610238Y-117735714D02*
X185657857Y-117688095D01*
X185657857Y-117688095D02*
X185753095Y-117640476D01*
X185753095Y-117640476D02*
X185848333Y-117640476D01*
X185848333Y-117640476D02*
X185991190Y-117688095D01*
X185991190Y-117688095D02*
X186562619Y-118259523D01*
X186562619Y-118259523D02*
X186562619Y-117640476D01*
X185562619Y-117021428D02*
X185562619Y-116926190D01*
X185562619Y-116926190D02*
X185610238Y-116830952D01*
X185610238Y-116830952D02*
X185657857Y-116783333D01*
X185657857Y-116783333D02*
X185753095Y-116735714D01*
X185753095Y-116735714D02*
X185943571Y-116688095D01*
X185943571Y-116688095D02*
X186181666Y-116688095D01*
X186181666Y-116688095D02*
X186372142Y-116735714D01*
X186372142Y-116735714D02*
X186467380Y-116783333D01*
X186467380Y-116783333D02*
X186515000Y-116830952D01*
X186515000Y-116830952D02*
X186562619Y-116926190D01*
X186562619Y-116926190D02*
X186562619Y-117021428D01*
X186562619Y-117021428D02*
X186515000Y-117116666D01*
X186515000Y-117116666D02*
X186467380Y-117164285D01*
X186467380Y-117164285D02*
X186372142Y-117211904D01*
X186372142Y-117211904D02*
X186181666Y-117259523D01*
X186181666Y-117259523D02*
X185943571Y-117259523D01*
X185943571Y-117259523D02*
X185753095Y-117211904D01*
X185753095Y-117211904D02*
X185657857Y-117164285D01*
X185657857Y-117164285D02*
X185610238Y-117116666D01*
X185610238Y-117116666D02*
X185562619Y-117021428D01*
X181782142Y-112022380D02*
X181734523Y-112070000D01*
X181734523Y-112070000D02*
X181591666Y-112117619D01*
X181591666Y-112117619D02*
X181496428Y-112117619D01*
X181496428Y-112117619D02*
X181353571Y-112070000D01*
X181353571Y-112070000D02*
X181258333Y-111974761D01*
X181258333Y-111974761D02*
X181210714Y-111879523D01*
X181210714Y-111879523D02*
X181163095Y-111689047D01*
X181163095Y-111689047D02*
X181163095Y-111546190D01*
X181163095Y-111546190D02*
X181210714Y-111355714D01*
X181210714Y-111355714D02*
X181258333Y-111260476D01*
X181258333Y-111260476D02*
X181353571Y-111165238D01*
X181353571Y-111165238D02*
X181496428Y-111117619D01*
X181496428Y-111117619D02*
X181591666Y-111117619D01*
X181591666Y-111117619D02*
X181734523Y-111165238D01*
X181734523Y-111165238D02*
X181782142Y-111212857D01*
X182163095Y-111212857D02*
X182210714Y-111165238D01*
X182210714Y-111165238D02*
X182305952Y-111117619D01*
X182305952Y-111117619D02*
X182544047Y-111117619D01*
X182544047Y-111117619D02*
X182639285Y-111165238D01*
X182639285Y-111165238D02*
X182686904Y-111212857D01*
X182686904Y-111212857D02*
X182734523Y-111308095D01*
X182734523Y-111308095D02*
X182734523Y-111403333D01*
X182734523Y-111403333D02*
X182686904Y-111546190D01*
X182686904Y-111546190D02*
X182115476Y-112117619D01*
X182115476Y-112117619D02*
X182734523Y-112117619D01*
X183686904Y-112117619D02*
X183115476Y-112117619D01*
X183401190Y-112117619D02*
X183401190Y-111117619D01*
X183401190Y-111117619D02*
X183305952Y-111260476D01*
X183305952Y-111260476D02*
X183210714Y-111355714D01*
X183210714Y-111355714D02*
X183115476Y-111403333D01*
X166057142Y-87717380D02*
X166009523Y-87765000D01*
X166009523Y-87765000D02*
X165866666Y-87812619D01*
X165866666Y-87812619D02*
X165771428Y-87812619D01*
X165771428Y-87812619D02*
X165628571Y-87765000D01*
X165628571Y-87765000D02*
X165533333Y-87669761D01*
X165533333Y-87669761D02*
X165485714Y-87574523D01*
X165485714Y-87574523D02*
X165438095Y-87384047D01*
X165438095Y-87384047D02*
X165438095Y-87241190D01*
X165438095Y-87241190D02*
X165485714Y-87050714D01*
X165485714Y-87050714D02*
X165533333Y-86955476D01*
X165533333Y-86955476D02*
X165628571Y-86860238D01*
X165628571Y-86860238D02*
X165771428Y-86812619D01*
X165771428Y-86812619D02*
X165866666Y-86812619D01*
X165866666Y-86812619D02*
X166009523Y-86860238D01*
X166009523Y-86860238D02*
X166057142Y-86907857D01*
X167009523Y-87812619D02*
X166438095Y-87812619D01*
X166723809Y-87812619D02*
X166723809Y-86812619D01*
X166723809Y-86812619D02*
X166628571Y-86955476D01*
X166628571Y-86955476D02*
X166533333Y-87050714D01*
X166533333Y-87050714D02*
X166438095Y-87098333D01*
X167628571Y-86812619D02*
X167723809Y-86812619D01*
X167723809Y-86812619D02*
X167819047Y-86860238D01*
X167819047Y-86860238D02*
X167866666Y-86907857D01*
X167866666Y-86907857D02*
X167914285Y-87003095D01*
X167914285Y-87003095D02*
X167961904Y-87193571D01*
X167961904Y-87193571D02*
X167961904Y-87431666D01*
X167961904Y-87431666D02*
X167914285Y-87622142D01*
X167914285Y-87622142D02*
X167866666Y-87717380D01*
X167866666Y-87717380D02*
X167819047Y-87765000D01*
X167819047Y-87765000D02*
X167723809Y-87812619D01*
X167723809Y-87812619D02*
X167628571Y-87812619D01*
X167628571Y-87812619D02*
X167533333Y-87765000D01*
X167533333Y-87765000D02*
X167485714Y-87717380D01*
X167485714Y-87717380D02*
X167438095Y-87622142D01*
X167438095Y-87622142D02*
X167390476Y-87431666D01*
X167390476Y-87431666D02*
X167390476Y-87193571D01*
X167390476Y-87193571D02*
X167438095Y-87003095D01*
X167438095Y-87003095D02*
X167485714Y-86907857D01*
X167485714Y-86907857D02*
X167533333Y-86860238D01*
X167533333Y-86860238D02*
X167628571Y-86812619D01*
X178912619Y-147038094D02*
X177912619Y-147038094D01*
X177912619Y-147038094D02*
X177912619Y-146799999D01*
X177912619Y-146799999D02*
X177960238Y-146657142D01*
X177960238Y-146657142D02*
X178055476Y-146561904D01*
X178055476Y-146561904D02*
X178150714Y-146514285D01*
X178150714Y-146514285D02*
X178341190Y-146466666D01*
X178341190Y-146466666D02*
X178484047Y-146466666D01*
X178484047Y-146466666D02*
X178674523Y-146514285D01*
X178674523Y-146514285D02*
X178769761Y-146561904D01*
X178769761Y-146561904D02*
X178865000Y-146657142D01*
X178865000Y-146657142D02*
X178912619Y-146799999D01*
X178912619Y-146799999D02*
X178912619Y-147038094D01*
X178912619Y-145514285D02*
X178912619Y-146085713D01*
X178912619Y-145799999D02*
X177912619Y-145799999D01*
X177912619Y-145799999D02*
X178055476Y-145895237D01*
X178055476Y-145895237D02*
X178150714Y-145990475D01*
X178150714Y-145990475D02*
X178198333Y-146085713D01*
X177066666Y-150038809D02*
X176733333Y-150038809D01*
X176733333Y-150562619D02*
X176733333Y-149562619D01*
X176733333Y-149562619D02*
X177209523Y-149562619D01*
X178066666Y-149562619D02*
X177590476Y-149562619D01*
X177590476Y-149562619D02*
X177542857Y-150038809D01*
X177542857Y-150038809D02*
X177590476Y-149991190D01*
X177590476Y-149991190D02*
X177685714Y-149943571D01*
X177685714Y-149943571D02*
X177923809Y-149943571D01*
X177923809Y-149943571D02*
X178019047Y-149991190D01*
X178019047Y-149991190D02*
X178066666Y-150038809D01*
X178066666Y-150038809D02*
X178114285Y-150134047D01*
X178114285Y-150134047D02*
X178114285Y-150372142D01*
X178114285Y-150372142D02*
X178066666Y-150467380D01*
X178066666Y-150467380D02*
X178019047Y-150515000D01*
X178019047Y-150515000D02*
X177923809Y-150562619D01*
X177923809Y-150562619D02*
X177685714Y-150562619D01*
X177685714Y-150562619D02*
X177590476Y-150515000D01*
X177590476Y-150515000D02*
X177542857Y-150467380D01*
X193357142Y-147712619D02*
X193023809Y-147236428D01*
X192785714Y-147712619D02*
X192785714Y-146712619D01*
X192785714Y-146712619D02*
X193166666Y-146712619D01*
X193166666Y-146712619D02*
X193261904Y-146760238D01*
X193261904Y-146760238D02*
X193309523Y-146807857D01*
X193309523Y-146807857D02*
X193357142Y-146903095D01*
X193357142Y-146903095D02*
X193357142Y-147045952D01*
X193357142Y-147045952D02*
X193309523Y-147141190D01*
X193309523Y-147141190D02*
X193261904Y-147188809D01*
X193261904Y-147188809D02*
X193166666Y-147236428D01*
X193166666Y-147236428D02*
X192785714Y-147236428D01*
X194309523Y-147712619D02*
X193738095Y-147712619D01*
X194023809Y-147712619D02*
X194023809Y-146712619D01*
X194023809Y-146712619D02*
X193928571Y-146855476D01*
X193928571Y-146855476D02*
X193833333Y-146950714D01*
X193833333Y-146950714D02*
X193738095Y-146998333D01*
X194928571Y-146712619D02*
X195023809Y-146712619D01*
X195023809Y-146712619D02*
X195119047Y-146760238D01*
X195119047Y-146760238D02*
X195166666Y-146807857D01*
X195166666Y-146807857D02*
X195214285Y-146903095D01*
X195214285Y-146903095D02*
X195261904Y-147093571D01*
X195261904Y-147093571D02*
X195261904Y-147331666D01*
X195261904Y-147331666D02*
X195214285Y-147522142D01*
X195214285Y-147522142D02*
X195166666Y-147617380D01*
X195166666Y-147617380D02*
X195119047Y-147665000D01*
X195119047Y-147665000D02*
X195023809Y-147712619D01*
X195023809Y-147712619D02*
X194928571Y-147712619D01*
X194928571Y-147712619D02*
X194833333Y-147665000D01*
X194833333Y-147665000D02*
X194785714Y-147617380D01*
X194785714Y-147617380D02*
X194738095Y-147522142D01*
X194738095Y-147522142D02*
X194690476Y-147331666D01*
X194690476Y-147331666D02*
X194690476Y-147093571D01*
X194690476Y-147093571D02*
X194738095Y-146903095D01*
X194738095Y-146903095D02*
X194785714Y-146807857D01*
X194785714Y-146807857D02*
X194833333Y-146760238D01*
X194833333Y-146760238D02*
X194928571Y-146712619D01*
X175035682Y-127886546D02*
X175035682Y-127953889D01*
X175035682Y-127953889D02*
X174968339Y-128088576D01*
X174968339Y-128088576D02*
X174900995Y-128155920D01*
X174900995Y-128155920D02*
X174766308Y-128223263D01*
X174766308Y-128223263D02*
X174631621Y-128223263D01*
X174631621Y-128223263D02*
X174530606Y-128189592D01*
X174530606Y-128189592D02*
X174362247Y-128088576D01*
X174362247Y-128088576D02*
X174261232Y-127987561D01*
X174261232Y-127987561D02*
X174160217Y-127819202D01*
X174160217Y-127819202D02*
X174126545Y-127718187D01*
X174126545Y-127718187D02*
X174126545Y-127583500D01*
X174126545Y-127583500D02*
X174193889Y-127448813D01*
X174193889Y-127448813D02*
X174261232Y-127381469D01*
X174261232Y-127381469D02*
X174395919Y-127314126D01*
X174395919Y-127314126D02*
X174463263Y-127314126D01*
X175776461Y-127280454D02*
X175372400Y-127684515D01*
X175574430Y-127482485D02*
X174867324Y-126775378D01*
X174867324Y-126775378D02*
X174900995Y-126943737D01*
X174900995Y-126943737D02*
X174900995Y-127078424D01*
X174900995Y-127078424D02*
X174867324Y-127179439D01*
X175305056Y-126337645D02*
X175776461Y-125866241D01*
X175776461Y-125866241D02*
X176180522Y-126876393D01*
X193961905Y-120312619D02*
X193961905Y-119312619D01*
X193961905Y-119312619D02*
X194200000Y-119312619D01*
X194200000Y-119312619D02*
X194342857Y-119360238D01*
X194342857Y-119360238D02*
X194438095Y-119455476D01*
X194438095Y-119455476D02*
X194485714Y-119550714D01*
X194485714Y-119550714D02*
X194533333Y-119741190D01*
X194533333Y-119741190D02*
X194533333Y-119884047D01*
X194533333Y-119884047D02*
X194485714Y-120074523D01*
X194485714Y-120074523D02*
X194438095Y-120169761D01*
X194438095Y-120169761D02*
X194342857Y-120265000D01*
X194342857Y-120265000D02*
X194200000Y-120312619D01*
X194200000Y-120312619D02*
X193961905Y-120312619D01*
X195390476Y-119312619D02*
X195200000Y-119312619D01*
X195200000Y-119312619D02*
X195104762Y-119360238D01*
X195104762Y-119360238D02*
X195057143Y-119407857D01*
X195057143Y-119407857D02*
X194961905Y-119550714D01*
X194961905Y-119550714D02*
X194914286Y-119741190D01*
X194914286Y-119741190D02*
X194914286Y-120122142D01*
X194914286Y-120122142D02*
X194961905Y-120217380D01*
X194961905Y-120217380D02*
X195009524Y-120265000D01*
X195009524Y-120265000D02*
X195104762Y-120312619D01*
X195104762Y-120312619D02*
X195295238Y-120312619D01*
X195295238Y-120312619D02*
X195390476Y-120265000D01*
X195390476Y-120265000D02*
X195438095Y-120217380D01*
X195438095Y-120217380D02*
X195485714Y-120122142D01*
X195485714Y-120122142D02*
X195485714Y-119884047D01*
X195485714Y-119884047D02*
X195438095Y-119788809D01*
X195438095Y-119788809D02*
X195390476Y-119741190D01*
X195390476Y-119741190D02*
X195295238Y-119693571D01*
X195295238Y-119693571D02*
X195104762Y-119693571D01*
X195104762Y-119693571D02*
X195009524Y-119741190D01*
X195009524Y-119741190D02*
X194961905Y-119788809D01*
X194961905Y-119788809D02*
X194914286Y-119884047D01*
X195133333Y-114317380D02*
X195085714Y-114365000D01*
X195085714Y-114365000D02*
X194942857Y-114412619D01*
X194942857Y-114412619D02*
X194847619Y-114412619D01*
X194847619Y-114412619D02*
X194704762Y-114365000D01*
X194704762Y-114365000D02*
X194609524Y-114269761D01*
X194609524Y-114269761D02*
X194561905Y-114174523D01*
X194561905Y-114174523D02*
X194514286Y-113984047D01*
X194514286Y-113984047D02*
X194514286Y-113841190D01*
X194514286Y-113841190D02*
X194561905Y-113650714D01*
X194561905Y-113650714D02*
X194609524Y-113555476D01*
X194609524Y-113555476D02*
X194704762Y-113460238D01*
X194704762Y-113460238D02*
X194847619Y-113412619D01*
X194847619Y-113412619D02*
X194942857Y-113412619D01*
X194942857Y-113412619D02*
X195085714Y-113460238D01*
X195085714Y-113460238D02*
X195133333Y-113507857D01*
X196038095Y-113412619D02*
X195561905Y-113412619D01*
X195561905Y-113412619D02*
X195514286Y-113888809D01*
X195514286Y-113888809D02*
X195561905Y-113841190D01*
X195561905Y-113841190D02*
X195657143Y-113793571D01*
X195657143Y-113793571D02*
X195895238Y-113793571D01*
X195895238Y-113793571D02*
X195990476Y-113841190D01*
X195990476Y-113841190D02*
X196038095Y-113888809D01*
X196038095Y-113888809D02*
X196085714Y-113984047D01*
X196085714Y-113984047D02*
X196085714Y-114222142D01*
X196085714Y-114222142D02*
X196038095Y-114317380D01*
X196038095Y-114317380D02*
X195990476Y-114365000D01*
X195990476Y-114365000D02*
X195895238Y-114412619D01*
X195895238Y-114412619D02*
X195657143Y-114412619D01*
X195657143Y-114412619D02*
X195561905Y-114365000D01*
X195561905Y-114365000D02*
X195514286Y-114317380D01*
X173609270Y-156994971D02*
X173036850Y-156893956D01*
X173205209Y-157399032D02*
X172498102Y-156691926D01*
X172498102Y-156691926D02*
X172767476Y-156422552D01*
X172767476Y-156422552D02*
X172868491Y-156388880D01*
X172868491Y-156388880D02*
X172935835Y-156388880D01*
X172935835Y-156388880D02*
X173036850Y-156422552D01*
X173036850Y-156422552D02*
X173137865Y-156523567D01*
X173137865Y-156523567D02*
X173171537Y-156624582D01*
X173171537Y-156624582D02*
X173171537Y-156691926D01*
X173171537Y-156691926D02*
X173137865Y-156792941D01*
X173137865Y-156792941D02*
X172868491Y-157062315D01*
X173743957Y-155917475D02*
X174215361Y-156388880D01*
X173306224Y-155816460D02*
X173642942Y-156489895D01*
X173642942Y-156489895D02*
X174080674Y-156052162D01*
X176423740Y-131502823D02*
X176087023Y-131839541D01*
X176558427Y-130896732D02*
X176423740Y-131502823D01*
X176423740Y-131502823D02*
X177029832Y-131368136D01*
X176928817Y-132681335D02*
X176524756Y-132277274D01*
X176726786Y-132479304D02*
X177433893Y-131772198D01*
X177433893Y-131772198D02*
X177265534Y-131805869D01*
X177265534Y-131805869D02*
X177130847Y-131805869D01*
X177130847Y-131805869D02*
X177029832Y-131772198D01*
D11*
X165861905Y-95562619D02*
X165861905Y-96372142D01*
X165861905Y-96372142D02*
X165909524Y-96467380D01*
X165909524Y-96467380D02*
X165957143Y-96515000D01*
X165957143Y-96515000D02*
X166052381Y-96562619D01*
X166052381Y-96562619D02*
X166242857Y-96562619D01*
X166242857Y-96562619D02*
X166338095Y-96515000D01*
X166338095Y-96515000D02*
X166385714Y-96467380D01*
X166385714Y-96467380D02*
X166433333Y-96372142D01*
X166433333Y-96372142D02*
X166433333Y-95562619D01*
X167433333Y-96562619D02*
X166861905Y-96562619D01*
X167147619Y-96562619D02*
X167147619Y-95562619D01*
X167147619Y-95562619D02*
X167052381Y-95705476D01*
X167052381Y-95705476D02*
X166957143Y-95800714D01*
X166957143Y-95800714D02*
X166861905Y-95848333D01*
X168052381Y-95562619D02*
X168147619Y-95562619D01*
X168147619Y-95562619D02*
X168242857Y-95610238D01*
X168242857Y-95610238D02*
X168290476Y-95657857D01*
X168290476Y-95657857D02*
X168338095Y-95753095D01*
X168338095Y-95753095D02*
X168385714Y-95943571D01*
X168385714Y-95943571D02*
X168385714Y-96181666D01*
X168385714Y-96181666D02*
X168338095Y-96372142D01*
X168338095Y-96372142D02*
X168290476Y-96467380D01*
X168290476Y-96467380D02*
X168242857Y-96515000D01*
X168242857Y-96515000D02*
X168147619Y-96562619D01*
X168147619Y-96562619D02*
X168052381Y-96562619D01*
X168052381Y-96562619D02*
X167957143Y-96515000D01*
X167957143Y-96515000D02*
X167909524Y-96467380D01*
X167909524Y-96467380D02*
X167861905Y-96372142D01*
X167861905Y-96372142D02*
X167814286Y-96181666D01*
X167814286Y-96181666D02*
X167814286Y-95943571D01*
X167814286Y-95943571D02*
X167861905Y-95753095D01*
X167861905Y-95753095D02*
X167909524Y-95657857D01*
X167909524Y-95657857D02*
X167957143Y-95610238D01*
X167957143Y-95610238D02*
X168052381Y-95562619D01*
D10*
X184858333Y-134762619D02*
X184525000Y-134286428D01*
X184286905Y-134762619D02*
X184286905Y-133762619D01*
X184286905Y-133762619D02*
X184667857Y-133762619D01*
X184667857Y-133762619D02*
X184763095Y-133810238D01*
X184763095Y-133810238D02*
X184810714Y-133857857D01*
X184810714Y-133857857D02*
X184858333Y-133953095D01*
X184858333Y-133953095D02*
X184858333Y-134095952D01*
X184858333Y-134095952D02*
X184810714Y-134191190D01*
X184810714Y-134191190D02*
X184763095Y-134238809D01*
X184763095Y-134238809D02*
X184667857Y-134286428D01*
X184667857Y-134286428D02*
X184286905Y-134286428D01*
X185763095Y-133762619D02*
X185286905Y-133762619D01*
X185286905Y-133762619D02*
X185239286Y-134238809D01*
X185239286Y-134238809D02*
X185286905Y-134191190D01*
X185286905Y-134191190D02*
X185382143Y-134143571D01*
X185382143Y-134143571D02*
X185620238Y-134143571D01*
X185620238Y-134143571D02*
X185715476Y-134191190D01*
X185715476Y-134191190D02*
X185763095Y-134238809D01*
X185763095Y-134238809D02*
X185810714Y-134334047D01*
X185810714Y-134334047D02*
X185810714Y-134572142D01*
X185810714Y-134572142D02*
X185763095Y-134667380D01*
X185763095Y-134667380D02*
X185715476Y-134715000D01*
X185715476Y-134715000D02*
X185620238Y-134762619D01*
X185620238Y-134762619D02*
X185382143Y-134762619D01*
X185382143Y-134762619D02*
X185286905Y-134715000D01*
X185286905Y-134715000D02*
X185239286Y-134667380D01*
X192138095Y-138875119D02*
X192138095Y-139684642D01*
X192138095Y-139684642D02*
X192185714Y-139779880D01*
X192185714Y-139779880D02*
X192233333Y-139827500D01*
X192233333Y-139827500D02*
X192328571Y-139875119D01*
X192328571Y-139875119D02*
X192519047Y-139875119D01*
X192519047Y-139875119D02*
X192614285Y-139827500D01*
X192614285Y-139827500D02*
X192661904Y-139779880D01*
X192661904Y-139779880D02*
X192709523Y-139684642D01*
X192709523Y-139684642D02*
X192709523Y-138875119D01*
X193709523Y-139875119D02*
X193138095Y-139875119D01*
X193423809Y-139875119D02*
X193423809Y-138875119D01*
X193423809Y-138875119D02*
X193328571Y-139017976D01*
X193328571Y-139017976D02*
X193233333Y-139113214D01*
X193233333Y-139113214D02*
X193138095Y-139160833D01*
X171257142Y-83412619D02*
X170923809Y-82936428D01*
X170685714Y-83412619D02*
X170685714Y-82412619D01*
X170685714Y-82412619D02*
X171066666Y-82412619D01*
X171066666Y-82412619D02*
X171161904Y-82460238D01*
X171161904Y-82460238D02*
X171209523Y-82507857D01*
X171209523Y-82507857D02*
X171257142Y-82603095D01*
X171257142Y-82603095D02*
X171257142Y-82745952D01*
X171257142Y-82745952D02*
X171209523Y-82841190D01*
X171209523Y-82841190D02*
X171161904Y-82888809D01*
X171161904Y-82888809D02*
X171066666Y-82936428D01*
X171066666Y-82936428D02*
X170685714Y-82936428D01*
X171590476Y-82412619D02*
X172209523Y-82412619D01*
X172209523Y-82412619D02*
X171876190Y-82793571D01*
X171876190Y-82793571D02*
X172019047Y-82793571D01*
X172019047Y-82793571D02*
X172114285Y-82841190D01*
X172114285Y-82841190D02*
X172161904Y-82888809D01*
X172161904Y-82888809D02*
X172209523Y-82984047D01*
X172209523Y-82984047D02*
X172209523Y-83222142D01*
X172209523Y-83222142D02*
X172161904Y-83317380D01*
X172161904Y-83317380D02*
X172114285Y-83365000D01*
X172114285Y-83365000D02*
X172019047Y-83412619D01*
X172019047Y-83412619D02*
X171733333Y-83412619D01*
X171733333Y-83412619D02*
X171638095Y-83365000D01*
X171638095Y-83365000D02*
X171590476Y-83317380D01*
X172828571Y-82412619D02*
X172923809Y-82412619D01*
X172923809Y-82412619D02*
X173019047Y-82460238D01*
X173019047Y-82460238D02*
X173066666Y-82507857D01*
X173066666Y-82507857D02*
X173114285Y-82603095D01*
X173114285Y-82603095D02*
X173161904Y-82793571D01*
X173161904Y-82793571D02*
X173161904Y-83031666D01*
X173161904Y-83031666D02*
X173114285Y-83222142D01*
X173114285Y-83222142D02*
X173066666Y-83317380D01*
X173066666Y-83317380D02*
X173019047Y-83365000D01*
X173019047Y-83365000D02*
X172923809Y-83412619D01*
X172923809Y-83412619D02*
X172828571Y-83412619D01*
X172828571Y-83412619D02*
X172733333Y-83365000D01*
X172733333Y-83365000D02*
X172685714Y-83317380D01*
X172685714Y-83317380D02*
X172638095Y-83222142D01*
X172638095Y-83222142D02*
X172590476Y-83031666D01*
X172590476Y-83031666D02*
X172590476Y-82793571D01*
X172590476Y-82793571D02*
X172638095Y-82603095D01*
X172638095Y-82603095D02*
X172685714Y-82507857D01*
X172685714Y-82507857D02*
X172733333Y-82460238D01*
X172733333Y-82460238D02*
X172828571Y-82412619D01*
X175657142Y-107492619D02*
X175323809Y-107016428D01*
X175085714Y-107492619D02*
X175085714Y-106492619D01*
X175085714Y-106492619D02*
X175466666Y-106492619D01*
X175466666Y-106492619D02*
X175561904Y-106540238D01*
X175561904Y-106540238D02*
X175609523Y-106587857D01*
X175609523Y-106587857D02*
X175657142Y-106683095D01*
X175657142Y-106683095D02*
X175657142Y-106825952D01*
X175657142Y-106825952D02*
X175609523Y-106921190D01*
X175609523Y-106921190D02*
X175561904Y-106968809D01*
X175561904Y-106968809D02*
X175466666Y-107016428D01*
X175466666Y-107016428D02*
X175085714Y-107016428D01*
X176609523Y-107492619D02*
X176038095Y-107492619D01*
X176323809Y-107492619D02*
X176323809Y-106492619D01*
X176323809Y-106492619D02*
X176228571Y-106635476D01*
X176228571Y-106635476D02*
X176133333Y-106730714D01*
X176133333Y-106730714D02*
X176038095Y-106778333D01*
X177466666Y-106492619D02*
X177276190Y-106492619D01*
X177276190Y-106492619D02*
X177180952Y-106540238D01*
X177180952Y-106540238D02*
X177133333Y-106587857D01*
X177133333Y-106587857D02*
X177038095Y-106730714D01*
X177038095Y-106730714D02*
X176990476Y-106921190D01*
X176990476Y-106921190D02*
X176990476Y-107302142D01*
X176990476Y-107302142D02*
X177038095Y-107397380D01*
X177038095Y-107397380D02*
X177085714Y-107445000D01*
X177085714Y-107445000D02*
X177180952Y-107492619D01*
X177180952Y-107492619D02*
X177371428Y-107492619D01*
X177371428Y-107492619D02*
X177466666Y-107445000D01*
X177466666Y-107445000D02*
X177514285Y-107397380D01*
X177514285Y-107397380D02*
X177561904Y-107302142D01*
X177561904Y-107302142D02*
X177561904Y-107064047D01*
X177561904Y-107064047D02*
X177514285Y-106968809D01*
X177514285Y-106968809D02*
X177466666Y-106921190D01*
X177466666Y-106921190D02*
X177371428Y-106873571D01*
X177371428Y-106873571D02*
X177180952Y-106873571D01*
X177180952Y-106873571D02*
X177085714Y-106921190D01*
X177085714Y-106921190D02*
X177038095Y-106968809D01*
X177038095Y-106968809D02*
X176990476Y-107064047D01*
X177461905Y-111037619D02*
X177461905Y-111847142D01*
X177461905Y-111847142D02*
X177509524Y-111942380D01*
X177509524Y-111942380D02*
X177557143Y-111990000D01*
X177557143Y-111990000D02*
X177652381Y-112037619D01*
X177652381Y-112037619D02*
X177842857Y-112037619D01*
X177842857Y-112037619D02*
X177938095Y-111990000D01*
X177938095Y-111990000D02*
X177985714Y-111942380D01*
X177985714Y-111942380D02*
X178033333Y-111847142D01*
X178033333Y-111847142D02*
X178033333Y-111037619D01*
X179033333Y-112037619D02*
X178461905Y-112037619D01*
X178747619Y-112037619D02*
X178747619Y-111037619D01*
X178747619Y-111037619D02*
X178652381Y-111180476D01*
X178652381Y-111180476D02*
X178557143Y-111275714D01*
X178557143Y-111275714D02*
X178461905Y-111323333D01*
X179414286Y-111132857D02*
X179461905Y-111085238D01*
X179461905Y-111085238D02*
X179557143Y-111037619D01*
X179557143Y-111037619D02*
X179795238Y-111037619D01*
X179795238Y-111037619D02*
X179890476Y-111085238D01*
X179890476Y-111085238D02*
X179938095Y-111132857D01*
X179938095Y-111132857D02*
X179985714Y-111228095D01*
X179985714Y-111228095D02*
X179985714Y-111323333D01*
X179985714Y-111323333D02*
X179938095Y-111466190D01*
X179938095Y-111466190D02*
X179366667Y-112037619D01*
X179366667Y-112037619D02*
X179985714Y-112037619D01*
X188138095Y-111712619D02*
X188138095Y-112522142D01*
X188138095Y-112522142D02*
X188185714Y-112617380D01*
X188185714Y-112617380D02*
X188233333Y-112665000D01*
X188233333Y-112665000D02*
X188328571Y-112712619D01*
X188328571Y-112712619D02*
X188519047Y-112712619D01*
X188519047Y-112712619D02*
X188614285Y-112665000D01*
X188614285Y-112665000D02*
X188661904Y-112617380D01*
X188661904Y-112617380D02*
X188709523Y-112522142D01*
X188709523Y-112522142D02*
X188709523Y-111712619D01*
X189614285Y-112045952D02*
X189614285Y-112712619D01*
X189376190Y-111665000D02*
X189138095Y-112379285D01*
X189138095Y-112379285D02*
X189757142Y-112379285D01*
X177467380Y-100516666D02*
X177515000Y-100564285D01*
X177515000Y-100564285D02*
X177562619Y-100707142D01*
X177562619Y-100707142D02*
X177562619Y-100802380D01*
X177562619Y-100802380D02*
X177515000Y-100945237D01*
X177515000Y-100945237D02*
X177419761Y-101040475D01*
X177419761Y-101040475D02*
X177324523Y-101088094D01*
X177324523Y-101088094D02*
X177134047Y-101135713D01*
X177134047Y-101135713D02*
X176991190Y-101135713D01*
X176991190Y-101135713D02*
X176800714Y-101088094D01*
X176800714Y-101088094D02*
X176705476Y-101040475D01*
X176705476Y-101040475D02*
X176610238Y-100945237D01*
X176610238Y-100945237D02*
X176562619Y-100802380D01*
X176562619Y-100802380D02*
X176562619Y-100707142D01*
X176562619Y-100707142D02*
X176610238Y-100564285D01*
X176610238Y-100564285D02*
X176657857Y-100516666D01*
X176991190Y-99945237D02*
X176943571Y-100040475D01*
X176943571Y-100040475D02*
X176895952Y-100088094D01*
X176895952Y-100088094D02*
X176800714Y-100135713D01*
X176800714Y-100135713D02*
X176753095Y-100135713D01*
X176753095Y-100135713D02*
X176657857Y-100088094D01*
X176657857Y-100088094D02*
X176610238Y-100040475D01*
X176610238Y-100040475D02*
X176562619Y-99945237D01*
X176562619Y-99945237D02*
X176562619Y-99754761D01*
X176562619Y-99754761D02*
X176610238Y-99659523D01*
X176610238Y-99659523D02*
X176657857Y-99611904D01*
X176657857Y-99611904D02*
X176753095Y-99564285D01*
X176753095Y-99564285D02*
X176800714Y-99564285D01*
X176800714Y-99564285D02*
X176895952Y-99611904D01*
X176895952Y-99611904D02*
X176943571Y-99659523D01*
X176943571Y-99659523D02*
X176991190Y-99754761D01*
X176991190Y-99754761D02*
X176991190Y-99945237D01*
X176991190Y-99945237D02*
X177038809Y-100040475D01*
X177038809Y-100040475D02*
X177086428Y-100088094D01*
X177086428Y-100088094D02*
X177181666Y-100135713D01*
X177181666Y-100135713D02*
X177372142Y-100135713D01*
X177372142Y-100135713D02*
X177467380Y-100088094D01*
X177467380Y-100088094D02*
X177515000Y-100040475D01*
X177515000Y-100040475D02*
X177562619Y-99945237D01*
X177562619Y-99945237D02*
X177562619Y-99754761D01*
X177562619Y-99754761D02*
X177515000Y-99659523D01*
X177515000Y-99659523D02*
X177467380Y-99611904D01*
X177467380Y-99611904D02*
X177372142Y-99564285D01*
X177372142Y-99564285D02*
X177181666Y-99564285D01*
X177181666Y-99564285D02*
X177086428Y-99611904D01*
X177086428Y-99611904D02*
X177038809Y-99659523D01*
X177038809Y-99659523D02*
X176991190Y-99754761D01*
X190557142Y-117812619D02*
X190223809Y-117336428D01*
X189985714Y-117812619D02*
X189985714Y-116812619D01*
X189985714Y-116812619D02*
X190366666Y-116812619D01*
X190366666Y-116812619D02*
X190461904Y-116860238D01*
X190461904Y-116860238D02*
X190509523Y-116907857D01*
X190509523Y-116907857D02*
X190557142Y-117003095D01*
X190557142Y-117003095D02*
X190557142Y-117145952D01*
X190557142Y-117145952D02*
X190509523Y-117241190D01*
X190509523Y-117241190D02*
X190461904Y-117288809D01*
X190461904Y-117288809D02*
X190366666Y-117336428D01*
X190366666Y-117336428D02*
X189985714Y-117336428D01*
X191509523Y-117812619D02*
X190938095Y-117812619D01*
X191223809Y-117812619D02*
X191223809Y-116812619D01*
X191223809Y-116812619D02*
X191128571Y-116955476D01*
X191128571Y-116955476D02*
X191033333Y-117050714D01*
X191033333Y-117050714D02*
X190938095Y-117098333D01*
X191985714Y-117812619D02*
X192176190Y-117812619D01*
X192176190Y-117812619D02*
X192271428Y-117765000D01*
X192271428Y-117765000D02*
X192319047Y-117717380D01*
X192319047Y-117717380D02*
X192414285Y-117574523D01*
X192414285Y-117574523D02*
X192461904Y-117384047D01*
X192461904Y-117384047D02*
X192461904Y-117003095D01*
X192461904Y-117003095D02*
X192414285Y-116907857D01*
X192414285Y-116907857D02*
X192366666Y-116860238D01*
X192366666Y-116860238D02*
X192271428Y-116812619D01*
X192271428Y-116812619D02*
X192080952Y-116812619D01*
X192080952Y-116812619D02*
X191985714Y-116860238D01*
X191985714Y-116860238D02*
X191938095Y-116907857D01*
X191938095Y-116907857D02*
X191890476Y-117003095D01*
X191890476Y-117003095D02*
X191890476Y-117241190D01*
X191890476Y-117241190D02*
X191938095Y-117336428D01*
X191938095Y-117336428D02*
X191985714Y-117384047D01*
X191985714Y-117384047D02*
X192080952Y-117431666D01*
X192080952Y-117431666D02*
X192271428Y-117431666D01*
X192271428Y-117431666D02*
X192366666Y-117384047D01*
X192366666Y-117384047D02*
X192414285Y-117336428D01*
X192414285Y-117336428D02*
X192461904Y-117241190D01*
X196262619Y-152716666D02*
X195786428Y-153049999D01*
X196262619Y-153288094D02*
X195262619Y-153288094D01*
X195262619Y-153288094D02*
X195262619Y-152907142D01*
X195262619Y-152907142D02*
X195310238Y-152811904D01*
X195310238Y-152811904D02*
X195357857Y-152764285D01*
X195357857Y-152764285D02*
X195453095Y-152716666D01*
X195453095Y-152716666D02*
X195595952Y-152716666D01*
X195595952Y-152716666D02*
X195691190Y-152764285D01*
X195691190Y-152764285D02*
X195738809Y-152811904D01*
X195738809Y-152811904D02*
X195786428Y-152907142D01*
X195786428Y-152907142D02*
X195786428Y-153288094D01*
X196262619Y-152240475D02*
X196262619Y-152049999D01*
X196262619Y-152049999D02*
X196215000Y-151954761D01*
X196215000Y-151954761D02*
X196167380Y-151907142D01*
X196167380Y-151907142D02*
X196024523Y-151811904D01*
X196024523Y-151811904D02*
X195834047Y-151764285D01*
X195834047Y-151764285D02*
X195453095Y-151764285D01*
X195453095Y-151764285D02*
X195357857Y-151811904D01*
X195357857Y-151811904D02*
X195310238Y-151859523D01*
X195310238Y-151859523D02*
X195262619Y-151954761D01*
X195262619Y-151954761D02*
X195262619Y-152145237D01*
X195262619Y-152145237D02*
X195310238Y-152240475D01*
X195310238Y-152240475D02*
X195357857Y-152288094D01*
X195357857Y-152288094D02*
X195453095Y-152335713D01*
X195453095Y-152335713D02*
X195691190Y-152335713D01*
X195691190Y-152335713D02*
X195786428Y-152288094D01*
X195786428Y-152288094D02*
X195834047Y-152240475D01*
X195834047Y-152240475D02*
X195881666Y-152145237D01*
X195881666Y-152145237D02*
X195881666Y-151954761D01*
X195881666Y-151954761D02*
X195834047Y-151859523D01*
X195834047Y-151859523D02*
X195786428Y-151811904D01*
X195786428Y-151811904D02*
X195691190Y-151764285D01*
X169762619Y-132366666D02*
X169286428Y-132699999D01*
X169762619Y-132938094D02*
X168762619Y-132938094D01*
X168762619Y-132938094D02*
X168762619Y-132557142D01*
X168762619Y-132557142D02*
X168810238Y-132461904D01*
X168810238Y-132461904D02*
X168857857Y-132414285D01*
X168857857Y-132414285D02*
X168953095Y-132366666D01*
X168953095Y-132366666D02*
X169095952Y-132366666D01*
X169095952Y-132366666D02*
X169191190Y-132414285D01*
X169191190Y-132414285D02*
X169238809Y-132461904D01*
X169238809Y-132461904D02*
X169286428Y-132557142D01*
X169286428Y-132557142D02*
X169286428Y-132938094D01*
X168857857Y-131985713D02*
X168810238Y-131938094D01*
X168810238Y-131938094D02*
X168762619Y-131842856D01*
X168762619Y-131842856D02*
X168762619Y-131604761D01*
X168762619Y-131604761D02*
X168810238Y-131509523D01*
X168810238Y-131509523D02*
X168857857Y-131461904D01*
X168857857Y-131461904D02*
X168953095Y-131414285D01*
X168953095Y-131414285D02*
X169048333Y-131414285D01*
X169048333Y-131414285D02*
X169191190Y-131461904D01*
X169191190Y-131461904D02*
X169762619Y-132033332D01*
X169762619Y-132033332D02*
X169762619Y-131414285D01*
X184933333Y-126462619D02*
X184600000Y-125986428D01*
X184361905Y-126462619D02*
X184361905Y-125462619D01*
X184361905Y-125462619D02*
X184742857Y-125462619D01*
X184742857Y-125462619D02*
X184838095Y-125510238D01*
X184838095Y-125510238D02*
X184885714Y-125557857D01*
X184885714Y-125557857D02*
X184933333Y-125653095D01*
X184933333Y-125653095D02*
X184933333Y-125795952D01*
X184933333Y-125795952D02*
X184885714Y-125891190D01*
X184885714Y-125891190D02*
X184838095Y-125938809D01*
X184838095Y-125938809D02*
X184742857Y-125986428D01*
X184742857Y-125986428D02*
X184361905Y-125986428D01*
X185266667Y-125462619D02*
X185933333Y-125462619D01*
X185933333Y-125462619D02*
X185504762Y-126462619D01*
X193957142Y-155612619D02*
X193623809Y-155136428D01*
X193385714Y-155612619D02*
X193385714Y-154612619D01*
X193385714Y-154612619D02*
X193766666Y-154612619D01*
X193766666Y-154612619D02*
X193861904Y-154660238D01*
X193861904Y-154660238D02*
X193909523Y-154707857D01*
X193909523Y-154707857D02*
X193957142Y-154803095D01*
X193957142Y-154803095D02*
X193957142Y-154945952D01*
X193957142Y-154945952D02*
X193909523Y-155041190D01*
X193909523Y-155041190D02*
X193861904Y-155088809D01*
X193861904Y-155088809D02*
X193766666Y-155136428D01*
X193766666Y-155136428D02*
X193385714Y-155136428D01*
X194909523Y-155612619D02*
X194338095Y-155612619D01*
X194623809Y-155612619D02*
X194623809Y-154612619D01*
X194623809Y-154612619D02*
X194528571Y-154755476D01*
X194528571Y-154755476D02*
X194433333Y-154850714D01*
X194433333Y-154850714D02*
X194338095Y-154898333D01*
X195861904Y-155612619D02*
X195290476Y-155612619D01*
X195576190Y-155612619D02*
X195576190Y-154612619D01*
X195576190Y-154612619D02*
X195480952Y-154755476D01*
X195480952Y-154755476D02*
X195385714Y-154850714D01*
X195385714Y-154850714D02*
X195290476Y-154898333D01*
X179167380Y-100516666D02*
X179215000Y-100564285D01*
X179215000Y-100564285D02*
X179262619Y-100707142D01*
X179262619Y-100707142D02*
X179262619Y-100802380D01*
X179262619Y-100802380D02*
X179215000Y-100945237D01*
X179215000Y-100945237D02*
X179119761Y-101040475D01*
X179119761Y-101040475D02*
X179024523Y-101088094D01*
X179024523Y-101088094D02*
X178834047Y-101135713D01*
X178834047Y-101135713D02*
X178691190Y-101135713D01*
X178691190Y-101135713D02*
X178500714Y-101088094D01*
X178500714Y-101088094D02*
X178405476Y-101040475D01*
X178405476Y-101040475D02*
X178310238Y-100945237D01*
X178310238Y-100945237D02*
X178262619Y-100802380D01*
X178262619Y-100802380D02*
X178262619Y-100707142D01*
X178262619Y-100707142D02*
X178310238Y-100564285D01*
X178310238Y-100564285D02*
X178357857Y-100516666D01*
X179262619Y-100040475D02*
X179262619Y-99849999D01*
X179262619Y-99849999D02*
X179215000Y-99754761D01*
X179215000Y-99754761D02*
X179167380Y-99707142D01*
X179167380Y-99707142D02*
X179024523Y-99611904D01*
X179024523Y-99611904D02*
X178834047Y-99564285D01*
X178834047Y-99564285D02*
X178453095Y-99564285D01*
X178453095Y-99564285D02*
X178357857Y-99611904D01*
X178357857Y-99611904D02*
X178310238Y-99659523D01*
X178310238Y-99659523D02*
X178262619Y-99754761D01*
X178262619Y-99754761D02*
X178262619Y-99945237D01*
X178262619Y-99945237D02*
X178310238Y-100040475D01*
X178310238Y-100040475D02*
X178357857Y-100088094D01*
X178357857Y-100088094D02*
X178453095Y-100135713D01*
X178453095Y-100135713D02*
X178691190Y-100135713D01*
X178691190Y-100135713D02*
X178786428Y-100088094D01*
X178786428Y-100088094D02*
X178834047Y-100040475D01*
X178834047Y-100040475D02*
X178881666Y-99945237D01*
X178881666Y-99945237D02*
X178881666Y-99754761D01*
X178881666Y-99754761D02*
X178834047Y-99659523D01*
X178834047Y-99659523D02*
X178786428Y-99611904D01*
X178786428Y-99611904D02*
X178691190Y-99564285D01*
X166357142Y-113262619D02*
X166023809Y-112786428D01*
X165785714Y-113262619D02*
X165785714Y-112262619D01*
X165785714Y-112262619D02*
X166166666Y-112262619D01*
X166166666Y-112262619D02*
X166261904Y-112310238D01*
X166261904Y-112310238D02*
X166309523Y-112357857D01*
X166309523Y-112357857D02*
X166357142Y-112453095D01*
X166357142Y-112453095D02*
X166357142Y-112595952D01*
X166357142Y-112595952D02*
X166309523Y-112691190D01*
X166309523Y-112691190D02*
X166261904Y-112738809D01*
X166261904Y-112738809D02*
X166166666Y-112786428D01*
X166166666Y-112786428D02*
X165785714Y-112786428D01*
X166738095Y-112357857D02*
X166785714Y-112310238D01*
X166785714Y-112310238D02*
X166880952Y-112262619D01*
X166880952Y-112262619D02*
X167119047Y-112262619D01*
X167119047Y-112262619D02*
X167214285Y-112310238D01*
X167214285Y-112310238D02*
X167261904Y-112357857D01*
X167261904Y-112357857D02*
X167309523Y-112453095D01*
X167309523Y-112453095D02*
X167309523Y-112548333D01*
X167309523Y-112548333D02*
X167261904Y-112691190D01*
X167261904Y-112691190D02*
X166690476Y-113262619D01*
X166690476Y-113262619D02*
X167309523Y-113262619D01*
X167690476Y-112357857D02*
X167738095Y-112310238D01*
X167738095Y-112310238D02*
X167833333Y-112262619D01*
X167833333Y-112262619D02*
X168071428Y-112262619D01*
X168071428Y-112262619D02*
X168166666Y-112310238D01*
X168166666Y-112310238D02*
X168214285Y-112357857D01*
X168214285Y-112357857D02*
X168261904Y-112453095D01*
X168261904Y-112453095D02*
X168261904Y-112548333D01*
X168261904Y-112548333D02*
X168214285Y-112691190D01*
X168214285Y-112691190D02*
X167642857Y-113262619D01*
X167642857Y-113262619D02*
X168261904Y-113262619D01*
D11*
X160309954Y-96172430D02*
X160353241Y-96224018D01*
X160353241Y-96224018D02*
X160388228Y-96370482D01*
X160388228Y-96370482D02*
X160379928Y-96465357D01*
X160379928Y-96465357D02*
X160320039Y-96603521D01*
X160320039Y-96603521D02*
X160216863Y-96690096D01*
X160216863Y-96690096D02*
X160117837Y-96729233D01*
X160117837Y-96729233D02*
X159923935Y-96760070D01*
X159923935Y-96760070D02*
X159781622Y-96747619D01*
X159781622Y-96747619D02*
X159596021Y-96683580D01*
X159596021Y-96683580D02*
X159505295Y-96627842D01*
X159505295Y-96627842D02*
X159418720Y-96524665D01*
X159418720Y-96524665D02*
X159383733Y-96378202D01*
X159383733Y-96378202D02*
X159392034Y-96283326D01*
X159392034Y-96283326D02*
X159451922Y-96145163D01*
X159451922Y-96145163D02*
X159503510Y-96101875D01*
X160487835Y-95231973D02*
X160438032Y-95801228D01*
X160462933Y-95516601D02*
X159466739Y-95429445D01*
X159466739Y-95429445D02*
X159600752Y-95536771D01*
X159600752Y-95536771D02*
X159687327Y-95639948D01*
X159687327Y-95639948D02*
X159726464Y-95738973D01*
X159619718Y-94773615D02*
X159576431Y-94722027D01*
X159576431Y-94722027D02*
X159537293Y-94623001D01*
X159537293Y-94623001D02*
X159558045Y-94385812D01*
X159558045Y-94385812D02*
X159613783Y-94295087D01*
X159613783Y-94295087D02*
X159665371Y-94251799D01*
X159665371Y-94251799D02*
X159764397Y-94212662D01*
X159764397Y-94212662D02*
X159859273Y-94220962D01*
X159859273Y-94220962D02*
X159997436Y-94280851D01*
X159997436Y-94280851D02*
X160516887Y-94899909D01*
X160516887Y-94899909D02*
X160570840Y-94283217D01*
D10*
X189566666Y-124088809D02*
X189233333Y-124088809D01*
X189233333Y-124612619D02*
X189233333Y-123612619D01*
X189233333Y-123612619D02*
X189709523Y-123612619D01*
X190423809Y-124088809D02*
X190566666Y-124136428D01*
X190566666Y-124136428D02*
X190614285Y-124184047D01*
X190614285Y-124184047D02*
X190661904Y-124279285D01*
X190661904Y-124279285D02*
X190661904Y-124422142D01*
X190661904Y-124422142D02*
X190614285Y-124517380D01*
X190614285Y-124517380D02*
X190566666Y-124565000D01*
X190566666Y-124565000D02*
X190471428Y-124612619D01*
X190471428Y-124612619D02*
X190090476Y-124612619D01*
X190090476Y-124612619D02*
X190090476Y-123612619D01*
X190090476Y-123612619D02*
X190423809Y-123612619D01*
X190423809Y-123612619D02*
X190519047Y-123660238D01*
X190519047Y-123660238D02*
X190566666Y-123707857D01*
X190566666Y-123707857D02*
X190614285Y-123803095D01*
X190614285Y-123803095D02*
X190614285Y-123898333D01*
X190614285Y-123898333D02*
X190566666Y-123993571D01*
X190566666Y-123993571D02*
X190519047Y-124041190D01*
X190519047Y-124041190D02*
X190423809Y-124088809D01*
X190423809Y-124088809D02*
X190090476Y-124088809D01*
X191614285Y-124612619D02*
X191042857Y-124612619D01*
X191328571Y-124612619D02*
X191328571Y-123612619D01*
X191328571Y-123612619D02*
X191233333Y-123755476D01*
X191233333Y-123755476D02*
X191138095Y-123850714D01*
X191138095Y-123850714D02*
X191042857Y-123898333D01*
X170555209Y-120764346D02*
X170555209Y-120831689D01*
X170555209Y-120831689D02*
X170487866Y-120966376D01*
X170487866Y-120966376D02*
X170420522Y-121033720D01*
X170420522Y-121033720D02*
X170285835Y-121101063D01*
X170285835Y-121101063D02*
X170151148Y-121101063D01*
X170151148Y-121101063D02*
X170050133Y-121067392D01*
X170050133Y-121067392D02*
X169881774Y-120966376D01*
X169881774Y-120966376D02*
X169780759Y-120865361D01*
X169780759Y-120865361D02*
X169679744Y-120697002D01*
X169679744Y-120697002D02*
X169646072Y-120595987D01*
X169646072Y-120595987D02*
X169646072Y-120461300D01*
X169646072Y-120461300D02*
X169713416Y-120326613D01*
X169713416Y-120326613D02*
X169780759Y-120259269D01*
X169780759Y-120259269D02*
X169915446Y-120191926D01*
X169915446Y-120191926D02*
X169982790Y-120191926D01*
X170252164Y-119922552D02*
X170252164Y-119855208D01*
X170252164Y-119855208D02*
X170285835Y-119754193D01*
X170285835Y-119754193D02*
X170454194Y-119585834D01*
X170454194Y-119585834D02*
X170555209Y-119552163D01*
X170555209Y-119552163D02*
X170622553Y-119552163D01*
X170622553Y-119552163D02*
X170723568Y-119585834D01*
X170723568Y-119585834D02*
X170790912Y-119653178D01*
X170790912Y-119653178D02*
X170858255Y-119787865D01*
X170858255Y-119787865D02*
X170858255Y-120595987D01*
X170858255Y-120595987D02*
X171295988Y-120158254D01*
X171026614Y-119013415D02*
X171093957Y-118946071D01*
X171093957Y-118946071D02*
X171194973Y-118912399D01*
X171194973Y-118912399D02*
X171262316Y-118912399D01*
X171262316Y-118912399D02*
X171363331Y-118946071D01*
X171363331Y-118946071D02*
X171531690Y-119047086D01*
X171531690Y-119047086D02*
X171700049Y-119215445D01*
X171700049Y-119215445D02*
X171801064Y-119383804D01*
X171801064Y-119383804D02*
X171834736Y-119484819D01*
X171834736Y-119484819D02*
X171834736Y-119552163D01*
X171834736Y-119552163D02*
X171801064Y-119653178D01*
X171801064Y-119653178D02*
X171733721Y-119720521D01*
X171733721Y-119720521D02*
X171632705Y-119754193D01*
X171632705Y-119754193D02*
X171565362Y-119754193D01*
X171565362Y-119754193D02*
X171464347Y-119720521D01*
X171464347Y-119720521D02*
X171295988Y-119619506D01*
X171295988Y-119619506D02*
X171127629Y-119451147D01*
X171127629Y-119451147D02*
X171026614Y-119282789D01*
X171026614Y-119282789D02*
X170992942Y-119181773D01*
X170992942Y-119181773D02*
X170992942Y-119114430D01*
X170992942Y-119114430D02*
X171026614Y-119013415D01*
X168012619Y-132266666D02*
X167536428Y-132599999D01*
X168012619Y-132838094D02*
X167012619Y-132838094D01*
X167012619Y-132838094D02*
X167012619Y-132457142D01*
X167012619Y-132457142D02*
X167060238Y-132361904D01*
X167060238Y-132361904D02*
X167107857Y-132314285D01*
X167107857Y-132314285D02*
X167203095Y-132266666D01*
X167203095Y-132266666D02*
X167345952Y-132266666D01*
X167345952Y-132266666D02*
X167441190Y-132314285D01*
X167441190Y-132314285D02*
X167488809Y-132361904D01*
X167488809Y-132361904D02*
X167536428Y-132457142D01*
X167536428Y-132457142D02*
X167536428Y-132838094D01*
X168012619Y-131314285D02*
X168012619Y-131885713D01*
X168012619Y-131599999D02*
X167012619Y-131599999D01*
X167012619Y-131599999D02*
X167155476Y-131695237D01*
X167155476Y-131695237D02*
X167250714Y-131790475D01*
X167250714Y-131790475D02*
X167298333Y-131885713D01*
X187582142Y-114657619D02*
X187248809Y-114181428D01*
X187010714Y-114657619D02*
X187010714Y-113657619D01*
X187010714Y-113657619D02*
X187391666Y-113657619D01*
X187391666Y-113657619D02*
X187486904Y-113705238D01*
X187486904Y-113705238D02*
X187534523Y-113752857D01*
X187534523Y-113752857D02*
X187582142Y-113848095D01*
X187582142Y-113848095D02*
X187582142Y-113990952D01*
X187582142Y-113990952D02*
X187534523Y-114086190D01*
X187534523Y-114086190D02*
X187486904Y-114133809D01*
X187486904Y-114133809D02*
X187391666Y-114181428D01*
X187391666Y-114181428D02*
X187010714Y-114181428D01*
X187963095Y-113752857D02*
X188010714Y-113705238D01*
X188010714Y-113705238D02*
X188105952Y-113657619D01*
X188105952Y-113657619D02*
X188344047Y-113657619D01*
X188344047Y-113657619D02*
X188439285Y-113705238D01*
X188439285Y-113705238D02*
X188486904Y-113752857D01*
X188486904Y-113752857D02*
X188534523Y-113848095D01*
X188534523Y-113848095D02*
X188534523Y-113943333D01*
X188534523Y-113943333D02*
X188486904Y-114086190D01*
X188486904Y-114086190D02*
X187915476Y-114657619D01*
X187915476Y-114657619D02*
X188534523Y-114657619D01*
X189439285Y-113657619D02*
X188963095Y-113657619D01*
X188963095Y-113657619D02*
X188915476Y-114133809D01*
X188915476Y-114133809D02*
X188963095Y-114086190D01*
X188963095Y-114086190D02*
X189058333Y-114038571D01*
X189058333Y-114038571D02*
X189296428Y-114038571D01*
X189296428Y-114038571D02*
X189391666Y-114086190D01*
X189391666Y-114086190D02*
X189439285Y-114133809D01*
X189439285Y-114133809D02*
X189486904Y-114229047D01*
X189486904Y-114229047D02*
X189486904Y-114467142D01*
X189486904Y-114467142D02*
X189439285Y-114562380D01*
X189439285Y-114562380D02*
X189391666Y-114610000D01*
X189391666Y-114610000D02*
X189296428Y-114657619D01*
X189296428Y-114657619D02*
X189058333Y-114657619D01*
X189058333Y-114657619D02*
X188963095Y-114610000D01*
X188963095Y-114610000D02*
X188915476Y-114562380D01*
X165812619Y-149533333D02*
X166526904Y-149533333D01*
X166526904Y-149533333D02*
X166669761Y-149580952D01*
X166669761Y-149580952D02*
X166765000Y-149676190D01*
X166765000Y-149676190D02*
X166812619Y-149819047D01*
X166812619Y-149819047D02*
X166812619Y-149914285D01*
X165907857Y-149104761D02*
X165860238Y-149057142D01*
X165860238Y-149057142D02*
X165812619Y-148961904D01*
X165812619Y-148961904D02*
X165812619Y-148723809D01*
X165812619Y-148723809D02*
X165860238Y-148628571D01*
X165860238Y-148628571D02*
X165907857Y-148580952D01*
X165907857Y-148580952D02*
X166003095Y-148533333D01*
X166003095Y-148533333D02*
X166098333Y-148533333D01*
X166098333Y-148533333D02*
X166241190Y-148580952D01*
X166241190Y-148580952D02*
X166812619Y-149152380D01*
X166812619Y-149152380D02*
X166812619Y-148533333D01*
X170285653Y-112355208D02*
X170218310Y-112355208D01*
X170218310Y-112355208D02*
X170083623Y-112287865D01*
X170083623Y-112287865D02*
X170016279Y-112220521D01*
X170016279Y-112220521D02*
X169948936Y-112085834D01*
X169948936Y-112085834D02*
X169948936Y-111951147D01*
X169948936Y-111951147D02*
X169982607Y-111850132D01*
X169982607Y-111850132D02*
X170083623Y-111681773D01*
X170083623Y-111681773D02*
X170184638Y-111580758D01*
X170184638Y-111580758D02*
X170352997Y-111479743D01*
X170352997Y-111479743D02*
X170454012Y-111446071D01*
X170454012Y-111446071D02*
X170588699Y-111446071D01*
X170588699Y-111446071D02*
X170723386Y-111513415D01*
X170723386Y-111513415D02*
X170790730Y-111580758D01*
X170790730Y-111580758D02*
X170858073Y-111715445D01*
X170858073Y-111715445D02*
X170858073Y-111782789D01*
X171127447Y-112052163D02*
X171194791Y-112052163D01*
X171194791Y-112052163D02*
X171295806Y-112085834D01*
X171295806Y-112085834D02*
X171464165Y-112254193D01*
X171464165Y-112254193D02*
X171497836Y-112355208D01*
X171497836Y-112355208D02*
X171497836Y-112422552D01*
X171497836Y-112422552D02*
X171464165Y-112523567D01*
X171464165Y-112523567D02*
X171396821Y-112590911D01*
X171396821Y-112590911D02*
X171262134Y-112658254D01*
X171262134Y-112658254D02*
X170454012Y-112658254D01*
X170454012Y-112658254D02*
X170891745Y-113095987D01*
X171800882Y-112725598D02*
X171868226Y-112725598D01*
X171868226Y-112725598D02*
X171969241Y-112759269D01*
X171969241Y-112759269D02*
X172137600Y-112927628D01*
X172137600Y-112927628D02*
X172171271Y-113028643D01*
X172171271Y-113028643D02*
X172171271Y-113095987D01*
X172171271Y-113095987D02*
X172137600Y-113197002D01*
X172137600Y-113197002D02*
X172070256Y-113264346D01*
X172070256Y-113264346D02*
X171935569Y-113331689D01*
X171935569Y-113331689D02*
X171127447Y-113331689D01*
X171127447Y-113331689D02*
X171565180Y-113769422D01*
X183012619Y-130838094D02*
X182012619Y-130838094D01*
X182012619Y-130838094D02*
X182012619Y-130599999D01*
X182012619Y-130599999D02*
X182060238Y-130457142D01*
X182060238Y-130457142D02*
X182155476Y-130361904D01*
X182155476Y-130361904D02*
X182250714Y-130314285D01*
X182250714Y-130314285D02*
X182441190Y-130266666D01*
X182441190Y-130266666D02*
X182584047Y-130266666D01*
X182584047Y-130266666D02*
X182774523Y-130314285D01*
X182774523Y-130314285D02*
X182869761Y-130361904D01*
X182869761Y-130361904D02*
X182965000Y-130457142D01*
X182965000Y-130457142D02*
X183012619Y-130599999D01*
X183012619Y-130599999D02*
X183012619Y-130838094D01*
X182345952Y-129409523D02*
X183012619Y-129409523D01*
X181965000Y-129647618D02*
X182679285Y-129885713D01*
X182679285Y-129885713D02*
X182679285Y-129266666D01*
X180835653Y-127255208D02*
X180768310Y-127255208D01*
X180768310Y-127255208D02*
X180633623Y-127187865D01*
X180633623Y-127187865D02*
X180566279Y-127120521D01*
X180566279Y-127120521D02*
X180498936Y-126985834D01*
X180498936Y-126985834D02*
X180498936Y-126851147D01*
X180498936Y-126851147D02*
X180532607Y-126750132D01*
X180532607Y-126750132D02*
X180633623Y-126581773D01*
X180633623Y-126581773D02*
X180734638Y-126480758D01*
X180734638Y-126480758D02*
X180902997Y-126379743D01*
X180902997Y-126379743D02*
X181004012Y-126346071D01*
X181004012Y-126346071D02*
X181138699Y-126346071D01*
X181138699Y-126346071D02*
X181273386Y-126413415D01*
X181273386Y-126413415D02*
X181340730Y-126480758D01*
X181340730Y-126480758D02*
X181408073Y-126615445D01*
X181408073Y-126615445D02*
X181408073Y-126682789D01*
X181441745Y-127995987D02*
X181037684Y-127591926D01*
X181239714Y-127793956D02*
X181946821Y-127086850D01*
X181946821Y-127086850D02*
X181778462Y-127120521D01*
X181778462Y-127120521D02*
X181643775Y-127120521D01*
X181643775Y-127120521D02*
X181542760Y-127086850D01*
X182754943Y-127894972D02*
X182620256Y-127760285D01*
X182620256Y-127760285D02*
X182519241Y-127726613D01*
X182519241Y-127726613D02*
X182451897Y-127726613D01*
X182451897Y-127726613D02*
X182283539Y-127760285D01*
X182283539Y-127760285D02*
X182115180Y-127861300D01*
X182115180Y-127861300D02*
X181845806Y-128130674D01*
X181845806Y-128130674D02*
X181812134Y-128231689D01*
X181812134Y-128231689D02*
X181812134Y-128299033D01*
X181812134Y-128299033D02*
X181845806Y-128400048D01*
X181845806Y-128400048D02*
X181980493Y-128534735D01*
X181980493Y-128534735D02*
X182081508Y-128568407D01*
X182081508Y-128568407D02*
X182148852Y-128568407D01*
X182148852Y-128568407D02*
X182249867Y-128534735D01*
X182249867Y-128534735D02*
X182418226Y-128366376D01*
X182418226Y-128366376D02*
X182451897Y-128265361D01*
X182451897Y-128265361D02*
X182451897Y-128198017D01*
X182451897Y-128198017D02*
X182418226Y-128097002D01*
X182418226Y-128097002D02*
X182283539Y-127962315D01*
X182283539Y-127962315D02*
X182182523Y-127928643D01*
X182182523Y-127928643D02*
X182115180Y-127928643D01*
X182115180Y-127928643D02*
X182014165Y-127962315D01*
X186783333Y-84117380D02*
X186735714Y-84165000D01*
X186735714Y-84165000D02*
X186592857Y-84212619D01*
X186592857Y-84212619D02*
X186497619Y-84212619D01*
X186497619Y-84212619D02*
X186354762Y-84165000D01*
X186354762Y-84165000D02*
X186259524Y-84069761D01*
X186259524Y-84069761D02*
X186211905Y-83974523D01*
X186211905Y-83974523D02*
X186164286Y-83784047D01*
X186164286Y-83784047D02*
X186164286Y-83641190D01*
X186164286Y-83641190D02*
X186211905Y-83450714D01*
X186211905Y-83450714D02*
X186259524Y-83355476D01*
X186259524Y-83355476D02*
X186354762Y-83260238D01*
X186354762Y-83260238D02*
X186497619Y-83212619D01*
X186497619Y-83212619D02*
X186592857Y-83212619D01*
X186592857Y-83212619D02*
X186735714Y-83260238D01*
X186735714Y-83260238D02*
X186783333Y-83307857D01*
X187640476Y-83212619D02*
X187450000Y-83212619D01*
X187450000Y-83212619D02*
X187354762Y-83260238D01*
X187354762Y-83260238D02*
X187307143Y-83307857D01*
X187307143Y-83307857D02*
X187211905Y-83450714D01*
X187211905Y-83450714D02*
X187164286Y-83641190D01*
X187164286Y-83641190D02*
X187164286Y-84022142D01*
X187164286Y-84022142D02*
X187211905Y-84117380D01*
X187211905Y-84117380D02*
X187259524Y-84165000D01*
X187259524Y-84165000D02*
X187354762Y-84212619D01*
X187354762Y-84212619D02*
X187545238Y-84212619D01*
X187545238Y-84212619D02*
X187640476Y-84165000D01*
X187640476Y-84165000D02*
X187688095Y-84117380D01*
X187688095Y-84117380D02*
X187735714Y-84022142D01*
X187735714Y-84022142D02*
X187735714Y-83784047D01*
X187735714Y-83784047D02*
X187688095Y-83688809D01*
X187688095Y-83688809D02*
X187640476Y-83641190D01*
X187640476Y-83641190D02*
X187545238Y-83593571D01*
X187545238Y-83593571D02*
X187354762Y-83593571D01*
X187354762Y-83593571D02*
X187259524Y-83641190D01*
X187259524Y-83641190D02*
X187211905Y-83688809D01*
X187211905Y-83688809D02*
X187164286Y-83784047D01*
X170483333Y-151612619D02*
X170150000Y-151136428D01*
X169911905Y-151612619D02*
X169911905Y-150612619D01*
X169911905Y-150612619D02*
X170292857Y-150612619D01*
X170292857Y-150612619D02*
X170388095Y-150660238D01*
X170388095Y-150660238D02*
X170435714Y-150707857D01*
X170435714Y-150707857D02*
X170483333Y-150803095D01*
X170483333Y-150803095D02*
X170483333Y-150945952D01*
X170483333Y-150945952D02*
X170435714Y-151041190D01*
X170435714Y-151041190D02*
X170388095Y-151088809D01*
X170388095Y-151088809D02*
X170292857Y-151136428D01*
X170292857Y-151136428D02*
X169911905Y-151136428D01*
X170816667Y-150612619D02*
X171435714Y-150612619D01*
X171435714Y-150612619D02*
X171102381Y-150993571D01*
X171102381Y-150993571D02*
X171245238Y-150993571D01*
X171245238Y-150993571D02*
X171340476Y-151041190D01*
X171340476Y-151041190D02*
X171388095Y-151088809D01*
X171388095Y-151088809D02*
X171435714Y-151184047D01*
X171435714Y-151184047D02*
X171435714Y-151422142D01*
X171435714Y-151422142D02*
X171388095Y-151517380D01*
X171388095Y-151517380D02*
X171340476Y-151565000D01*
X171340476Y-151565000D02*
X171245238Y-151612619D01*
X171245238Y-151612619D02*
X170959524Y-151612619D01*
X170959524Y-151612619D02*
X170864286Y-151565000D01*
X170864286Y-151565000D02*
X170816667Y-151517380D01*
X189583333Y-126462619D02*
X189250000Y-125986428D01*
X189011905Y-126462619D02*
X189011905Y-125462619D01*
X189011905Y-125462619D02*
X189392857Y-125462619D01*
X189392857Y-125462619D02*
X189488095Y-125510238D01*
X189488095Y-125510238D02*
X189535714Y-125557857D01*
X189535714Y-125557857D02*
X189583333Y-125653095D01*
X189583333Y-125653095D02*
X189583333Y-125795952D01*
X189583333Y-125795952D02*
X189535714Y-125891190D01*
X189535714Y-125891190D02*
X189488095Y-125938809D01*
X189488095Y-125938809D02*
X189392857Y-125986428D01*
X189392857Y-125986428D02*
X189011905Y-125986428D01*
X190154762Y-125891190D02*
X190059524Y-125843571D01*
X190059524Y-125843571D02*
X190011905Y-125795952D01*
X190011905Y-125795952D02*
X189964286Y-125700714D01*
X189964286Y-125700714D02*
X189964286Y-125653095D01*
X189964286Y-125653095D02*
X190011905Y-125557857D01*
X190011905Y-125557857D02*
X190059524Y-125510238D01*
X190059524Y-125510238D02*
X190154762Y-125462619D01*
X190154762Y-125462619D02*
X190345238Y-125462619D01*
X190345238Y-125462619D02*
X190440476Y-125510238D01*
X190440476Y-125510238D02*
X190488095Y-125557857D01*
X190488095Y-125557857D02*
X190535714Y-125653095D01*
X190535714Y-125653095D02*
X190535714Y-125700714D01*
X190535714Y-125700714D02*
X190488095Y-125795952D01*
X190488095Y-125795952D02*
X190440476Y-125843571D01*
X190440476Y-125843571D02*
X190345238Y-125891190D01*
X190345238Y-125891190D02*
X190154762Y-125891190D01*
X190154762Y-125891190D02*
X190059524Y-125938809D01*
X190059524Y-125938809D02*
X190011905Y-125986428D01*
X190011905Y-125986428D02*
X189964286Y-126081666D01*
X189964286Y-126081666D02*
X189964286Y-126272142D01*
X189964286Y-126272142D02*
X190011905Y-126367380D01*
X190011905Y-126367380D02*
X190059524Y-126415000D01*
X190059524Y-126415000D02*
X190154762Y-126462619D01*
X190154762Y-126462619D02*
X190345238Y-126462619D01*
X190345238Y-126462619D02*
X190440476Y-126415000D01*
X190440476Y-126415000D02*
X190488095Y-126367380D01*
X190488095Y-126367380D02*
X190535714Y-126272142D01*
X190535714Y-126272142D02*
X190535714Y-126081666D01*
X190535714Y-126081666D02*
X190488095Y-125986428D01*
X190488095Y-125986428D02*
X190440476Y-125938809D01*
X190440476Y-125938809D02*
X190345238Y-125891190D01*
X171485653Y-130155208D02*
X171418310Y-130155208D01*
X171418310Y-130155208D02*
X171283623Y-130087865D01*
X171283623Y-130087865D02*
X171216279Y-130020521D01*
X171216279Y-130020521D02*
X171148936Y-129885834D01*
X171148936Y-129885834D02*
X171148936Y-129751147D01*
X171148936Y-129751147D02*
X171182607Y-129650132D01*
X171182607Y-129650132D02*
X171283623Y-129481773D01*
X171283623Y-129481773D02*
X171384638Y-129380758D01*
X171384638Y-129380758D02*
X171552997Y-129279743D01*
X171552997Y-129279743D02*
X171654012Y-129246071D01*
X171654012Y-129246071D02*
X171788699Y-129246071D01*
X171788699Y-129246071D02*
X171923386Y-129313415D01*
X171923386Y-129313415D02*
X171990730Y-129380758D01*
X171990730Y-129380758D02*
X172058073Y-129515445D01*
X172058073Y-129515445D02*
X172058073Y-129582789D01*
X172327447Y-129852163D02*
X172394791Y-129852163D01*
X172394791Y-129852163D02*
X172495806Y-129885834D01*
X172495806Y-129885834D02*
X172664165Y-130054193D01*
X172664165Y-130054193D02*
X172697836Y-130155208D01*
X172697836Y-130155208D02*
X172697836Y-130222552D01*
X172697836Y-130222552D02*
X172664165Y-130323567D01*
X172664165Y-130323567D02*
X172596821Y-130390911D01*
X172596821Y-130390911D02*
X172462134Y-130458254D01*
X172462134Y-130458254D02*
X171654012Y-130458254D01*
X171654012Y-130458254D02*
X172091745Y-130895987D01*
X173404943Y-130794972D02*
X173270256Y-130660285D01*
X173270256Y-130660285D02*
X173169241Y-130626613D01*
X173169241Y-130626613D02*
X173101897Y-130626613D01*
X173101897Y-130626613D02*
X172933539Y-130660285D01*
X172933539Y-130660285D02*
X172765180Y-130761300D01*
X172765180Y-130761300D02*
X172495806Y-131030674D01*
X172495806Y-131030674D02*
X172462134Y-131131689D01*
X172462134Y-131131689D02*
X172462134Y-131199033D01*
X172462134Y-131199033D02*
X172495806Y-131300048D01*
X172495806Y-131300048D02*
X172630493Y-131434735D01*
X172630493Y-131434735D02*
X172731508Y-131468407D01*
X172731508Y-131468407D02*
X172798852Y-131468407D01*
X172798852Y-131468407D02*
X172899867Y-131434735D01*
X172899867Y-131434735D02*
X173068226Y-131266376D01*
X173068226Y-131266376D02*
X173101897Y-131165361D01*
X173101897Y-131165361D02*
X173101897Y-131098017D01*
X173101897Y-131098017D02*
X173068226Y-130997002D01*
X173068226Y-130997002D02*
X172933539Y-130862315D01*
X172933539Y-130862315D02*
X172832523Y-130828643D01*
X172832523Y-130828643D02*
X172765180Y-130828643D01*
X172765180Y-130828643D02*
X172664165Y-130862315D01*
X168616666Y-121262619D02*
X168616666Y-121976904D01*
X168616666Y-121976904D02*
X168569047Y-122119761D01*
X168569047Y-122119761D02*
X168473809Y-122215000D01*
X168473809Y-122215000D02*
X168330952Y-122262619D01*
X168330952Y-122262619D02*
X168235714Y-122262619D01*
X168997619Y-121262619D02*
X169664285Y-121262619D01*
X169664285Y-121262619D02*
X169235714Y-122262619D01*
D11*
X164762619Y-91688094D02*
X165572142Y-91688094D01*
X165572142Y-91688094D02*
X165667380Y-91640475D01*
X165667380Y-91640475D02*
X165715000Y-91592856D01*
X165715000Y-91592856D02*
X165762619Y-91497618D01*
X165762619Y-91497618D02*
X165762619Y-91307142D01*
X165762619Y-91307142D02*
X165715000Y-91211904D01*
X165715000Y-91211904D02*
X165667380Y-91164285D01*
X165667380Y-91164285D02*
X165572142Y-91116666D01*
X165572142Y-91116666D02*
X164762619Y-91116666D01*
X165762619Y-90116666D02*
X165762619Y-90688094D01*
X165762619Y-90402380D02*
X164762619Y-90402380D01*
X164762619Y-90402380D02*
X164905476Y-90497618D01*
X164905476Y-90497618D02*
X165000714Y-90592856D01*
X165000714Y-90592856D02*
X165048333Y-90688094D01*
X164762619Y-89783332D02*
X164762619Y-89164285D01*
X164762619Y-89164285D02*
X165143571Y-89497618D01*
X165143571Y-89497618D02*
X165143571Y-89354761D01*
X165143571Y-89354761D02*
X165191190Y-89259523D01*
X165191190Y-89259523D02*
X165238809Y-89211904D01*
X165238809Y-89211904D02*
X165334047Y-89164285D01*
X165334047Y-89164285D02*
X165572142Y-89164285D01*
X165572142Y-89164285D02*
X165667380Y-89211904D01*
X165667380Y-89211904D02*
X165715000Y-89259523D01*
X165715000Y-89259523D02*
X165762619Y-89354761D01*
X165762619Y-89354761D02*
X165762619Y-89640475D01*
X165762619Y-89640475D02*
X165715000Y-89735713D01*
X165715000Y-89735713D02*
X165667380Y-89783332D01*
D10*
X178567380Y-110092857D02*
X178615000Y-110140476D01*
X178615000Y-110140476D02*
X178662619Y-110283333D01*
X178662619Y-110283333D02*
X178662619Y-110378571D01*
X178662619Y-110378571D02*
X178615000Y-110521428D01*
X178615000Y-110521428D02*
X178519761Y-110616666D01*
X178519761Y-110616666D02*
X178424523Y-110664285D01*
X178424523Y-110664285D02*
X178234047Y-110711904D01*
X178234047Y-110711904D02*
X178091190Y-110711904D01*
X178091190Y-110711904D02*
X177900714Y-110664285D01*
X177900714Y-110664285D02*
X177805476Y-110616666D01*
X177805476Y-110616666D02*
X177710238Y-110521428D01*
X177710238Y-110521428D02*
X177662619Y-110378571D01*
X177662619Y-110378571D02*
X177662619Y-110283333D01*
X177662619Y-110283333D02*
X177710238Y-110140476D01*
X177710238Y-110140476D02*
X177757857Y-110092857D01*
X178662619Y-109140476D02*
X178662619Y-109711904D01*
X178662619Y-109426190D02*
X177662619Y-109426190D01*
X177662619Y-109426190D02*
X177805476Y-109521428D01*
X177805476Y-109521428D02*
X177900714Y-109616666D01*
X177900714Y-109616666D02*
X177948333Y-109711904D01*
X178662619Y-108664285D02*
X178662619Y-108473809D01*
X178662619Y-108473809D02*
X178615000Y-108378571D01*
X178615000Y-108378571D02*
X178567380Y-108330952D01*
X178567380Y-108330952D02*
X178424523Y-108235714D01*
X178424523Y-108235714D02*
X178234047Y-108188095D01*
X178234047Y-108188095D02*
X177853095Y-108188095D01*
X177853095Y-108188095D02*
X177757857Y-108235714D01*
X177757857Y-108235714D02*
X177710238Y-108283333D01*
X177710238Y-108283333D02*
X177662619Y-108378571D01*
X177662619Y-108378571D02*
X177662619Y-108569047D01*
X177662619Y-108569047D02*
X177710238Y-108664285D01*
X177710238Y-108664285D02*
X177757857Y-108711904D01*
X177757857Y-108711904D02*
X177853095Y-108759523D01*
X177853095Y-108759523D02*
X178091190Y-108759523D01*
X178091190Y-108759523D02*
X178186428Y-108711904D01*
X178186428Y-108711904D02*
X178234047Y-108664285D01*
X178234047Y-108664285D02*
X178281666Y-108569047D01*
X178281666Y-108569047D02*
X178281666Y-108378571D01*
X178281666Y-108378571D02*
X178234047Y-108283333D01*
X178234047Y-108283333D02*
X178186428Y-108235714D01*
X178186428Y-108235714D02*
X178091190Y-108188095D01*
X165666666Y-116238809D02*
X165333333Y-116238809D01*
X165333333Y-116762619D02*
X165333333Y-115762619D01*
X165333333Y-115762619D02*
X165809523Y-115762619D01*
X166095238Y-115762619D02*
X166714285Y-115762619D01*
X166714285Y-115762619D02*
X166380952Y-116143571D01*
X166380952Y-116143571D02*
X166523809Y-116143571D01*
X166523809Y-116143571D02*
X166619047Y-116191190D01*
X166619047Y-116191190D02*
X166666666Y-116238809D01*
X166666666Y-116238809D02*
X166714285Y-116334047D01*
X166714285Y-116334047D02*
X166714285Y-116572142D01*
X166714285Y-116572142D02*
X166666666Y-116667380D01*
X166666666Y-116667380D02*
X166619047Y-116715000D01*
X166619047Y-116715000D02*
X166523809Y-116762619D01*
X166523809Y-116762619D02*
X166238095Y-116762619D01*
X166238095Y-116762619D02*
X166142857Y-116715000D01*
X166142857Y-116715000D02*
X166095238Y-116667380D01*
X183517380Y-135766666D02*
X183565000Y-135814285D01*
X183565000Y-135814285D02*
X183612619Y-135957142D01*
X183612619Y-135957142D02*
X183612619Y-136052380D01*
X183612619Y-136052380D02*
X183565000Y-136195237D01*
X183565000Y-136195237D02*
X183469761Y-136290475D01*
X183469761Y-136290475D02*
X183374523Y-136338094D01*
X183374523Y-136338094D02*
X183184047Y-136385713D01*
X183184047Y-136385713D02*
X183041190Y-136385713D01*
X183041190Y-136385713D02*
X182850714Y-136338094D01*
X182850714Y-136338094D02*
X182755476Y-136290475D01*
X182755476Y-136290475D02*
X182660238Y-136195237D01*
X182660238Y-136195237D02*
X182612619Y-136052380D01*
X182612619Y-136052380D02*
X182612619Y-135957142D01*
X182612619Y-135957142D02*
X182660238Y-135814285D01*
X182660238Y-135814285D02*
X182707857Y-135766666D01*
X183612619Y-134814285D02*
X183612619Y-135385713D01*
X183612619Y-135099999D02*
X182612619Y-135099999D01*
X182612619Y-135099999D02*
X182755476Y-135195237D01*
X182755476Y-135195237D02*
X182850714Y-135290475D01*
X182850714Y-135290475D02*
X182898333Y-135385713D01*
X159462619Y-105038094D02*
X160272142Y-105038094D01*
X160272142Y-105038094D02*
X160367380Y-104990475D01*
X160367380Y-104990475D02*
X160415000Y-104942856D01*
X160415000Y-104942856D02*
X160462619Y-104847618D01*
X160462619Y-104847618D02*
X160462619Y-104657142D01*
X160462619Y-104657142D02*
X160415000Y-104561904D01*
X160415000Y-104561904D02*
X160367380Y-104514285D01*
X160367380Y-104514285D02*
X160272142Y-104466666D01*
X160272142Y-104466666D02*
X159462619Y-104466666D01*
X160462619Y-103466666D02*
X160462619Y-104038094D01*
X160462619Y-103752380D02*
X159462619Y-103752380D01*
X159462619Y-103752380D02*
X159605476Y-103847618D01*
X159605476Y-103847618D02*
X159700714Y-103942856D01*
X159700714Y-103942856D02*
X159748333Y-104038094D01*
X160462619Y-102514285D02*
X160462619Y-103085713D01*
X160462619Y-102799999D02*
X159462619Y-102799999D01*
X159462619Y-102799999D02*
X159605476Y-102895237D01*
X159605476Y-102895237D02*
X159700714Y-102990475D01*
X159700714Y-102990475D02*
X159748333Y-103085713D01*
D11*
X167362619Y-90992857D02*
X166886428Y-91326190D01*
X167362619Y-91564285D02*
X166362619Y-91564285D01*
X166362619Y-91564285D02*
X166362619Y-91183333D01*
X166362619Y-91183333D02*
X166410238Y-91088095D01*
X166410238Y-91088095D02*
X166457857Y-91040476D01*
X166457857Y-91040476D02*
X166553095Y-90992857D01*
X166553095Y-90992857D02*
X166695952Y-90992857D01*
X166695952Y-90992857D02*
X166791190Y-91040476D01*
X166791190Y-91040476D02*
X166838809Y-91088095D01*
X166838809Y-91088095D02*
X166886428Y-91183333D01*
X166886428Y-91183333D02*
X166886428Y-91564285D01*
X166457857Y-90611904D02*
X166410238Y-90564285D01*
X166410238Y-90564285D02*
X166362619Y-90469047D01*
X166362619Y-90469047D02*
X166362619Y-90230952D01*
X166362619Y-90230952D02*
X166410238Y-90135714D01*
X166410238Y-90135714D02*
X166457857Y-90088095D01*
X166457857Y-90088095D02*
X166553095Y-90040476D01*
X166553095Y-90040476D02*
X166648333Y-90040476D01*
X166648333Y-90040476D02*
X166791190Y-90088095D01*
X166791190Y-90088095D02*
X167362619Y-90659523D01*
X167362619Y-90659523D02*
X167362619Y-90040476D01*
X167362619Y-89564285D02*
X167362619Y-89373809D01*
X167362619Y-89373809D02*
X167315000Y-89278571D01*
X167315000Y-89278571D02*
X167267380Y-89230952D01*
X167267380Y-89230952D02*
X167124523Y-89135714D01*
X167124523Y-89135714D02*
X166934047Y-89088095D01*
X166934047Y-89088095D02*
X166553095Y-89088095D01*
X166553095Y-89088095D02*
X166457857Y-89135714D01*
X166457857Y-89135714D02*
X166410238Y-89183333D01*
X166410238Y-89183333D02*
X166362619Y-89278571D01*
X166362619Y-89278571D02*
X166362619Y-89469047D01*
X166362619Y-89469047D02*
X166410238Y-89564285D01*
X166410238Y-89564285D02*
X166457857Y-89611904D01*
X166457857Y-89611904D02*
X166553095Y-89659523D01*
X166553095Y-89659523D02*
X166791190Y-89659523D01*
X166791190Y-89659523D02*
X166886428Y-89611904D01*
X166886428Y-89611904D02*
X166934047Y-89564285D01*
X166934047Y-89564285D02*
X166981666Y-89469047D01*
X166981666Y-89469047D02*
X166981666Y-89278571D01*
X166981666Y-89278571D02*
X166934047Y-89183333D01*
X166934047Y-89183333D02*
X166886428Y-89135714D01*
X166886428Y-89135714D02*
X166791190Y-89088095D01*
D10*
X173362619Y-139083333D02*
X174076904Y-139083333D01*
X174076904Y-139083333D02*
X174219761Y-139130952D01*
X174219761Y-139130952D02*
X174315000Y-139226190D01*
X174315000Y-139226190D02*
X174362619Y-139369047D01*
X174362619Y-139369047D02*
X174362619Y-139464285D01*
X174362619Y-138083333D02*
X174362619Y-138654761D01*
X174362619Y-138369047D02*
X173362619Y-138369047D01*
X173362619Y-138369047D02*
X173505476Y-138464285D01*
X173505476Y-138464285D02*
X173600714Y-138559523D01*
X173600714Y-138559523D02*
X173648333Y-138654761D01*
X170972500Y-133383928D02*
X170972500Y-132241071D01*
X170972500Y-144383928D02*
X170972500Y-143241071D01*
X171543928Y-143812499D02*
X170401071Y-143812499D01*
X165657142Y-121767380D02*
X165609523Y-121815000D01*
X165609523Y-121815000D02*
X165466666Y-121862619D01*
X165466666Y-121862619D02*
X165371428Y-121862619D01*
X165371428Y-121862619D02*
X165228571Y-121815000D01*
X165228571Y-121815000D02*
X165133333Y-121719761D01*
X165133333Y-121719761D02*
X165085714Y-121624523D01*
X165085714Y-121624523D02*
X165038095Y-121434047D01*
X165038095Y-121434047D02*
X165038095Y-121291190D01*
X165038095Y-121291190D02*
X165085714Y-121100714D01*
X165085714Y-121100714D02*
X165133333Y-121005476D01*
X165133333Y-121005476D02*
X165228571Y-120910238D01*
X165228571Y-120910238D02*
X165371428Y-120862619D01*
X165371428Y-120862619D02*
X165466666Y-120862619D01*
X165466666Y-120862619D02*
X165609523Y-120910238D01*
X165609523Y-120910238D02*
X165657142Y-120957857D01*
X166609523Y-121862619D02*
X166038095Y-121862619D01*
X166323809Y-121862619D02*
X166323809Y-120862619D01*
X166323809Y-120862619D02*
X166228571Y-121005476D01*
X166228571Y-121005476D02*
X166133333Y-121100714D01*
X166133333Y-121100714D02*
X166038095Y-121148333D01*
X167180952Y-121291190D02*
X167085714Y-121243571D01*
X167085714Y-121243571D02*
X167038095Y-121195952D01*
X167038095Y-121195952D02*
X166990476Y-121100714D01*
X166990476Y-121100714D02*
X166990476Y-121053095D01*
X166990476Y-121053095D02*
X167038095Y-120957857D01*
X167038095Y-120957857D02*
X167085714Y-120910238D01*
X167085714Y-120910238D02*
X167180952Y-120862619D01*
X167180952Y-120862619D02*
X167371428Y-120862619D01*
X167371428Y-120862619D02*
X167466666Y-120910238D01*
X167466666Y-120910238D02*
X167514285Y-120957857D01*
X167514285Y-120957857D02*
X167561904Y-121053095D01*
X167561904Y-121053095D02*
X167561904Y-121100714D01*
X167561904Y-121100714D02*
X167514285Y-121195952D01*
X167514285Y-121195952D02*
X167466666Y-121243571D01*
X167466666Y-121243571D02*
X167371428Y-121291190D01*
X167371428Y-121291190D02*
X167180952Y-121291190D01*
X167180952Y-121291190D02*
X167085714Y-121338809D01*
X167085714Y-121338809D02*
X167038095Y-121386428D01*
X167038095Y-121386428D02*
X166990476Y-121481666D01*
X166990476Y-121481666D02*
X166990476Y-121672142D01*
X166990476Y-121672142D02*
X167038095Y-121767380D01*
X167038095Y-121767380D02*
X167085714Y-121815000D01*
X167085714Y-121815000D02*
X167180952Y-121862619D01*
X167180952Y-121862619D02*
X167371428Y-121862619D01*
X167371428Y-121862619D02*
X167466666Y-121815000D01*
X167466666Y-121815000D02*
X167514285Y-121767380D01*
X167514285Y-121767380D02*
X167561904Y-121672142D01*
X167561904Y-121672142D02*
X167561904Y-121481666D01*
X167561904Y-121481666D02*
X167514285Y-121386428D01*
X167514285Y-121386428D02*
X167466666Y-121338809D01*
X167466666Y-121338809D02*
X167371428Y-121291190D01*
X170728026Y-127128889D02*
X170155606Y-127027874D01*
X170323965Y-127532950D02*
X169616858Y-126825843D01*
X169616858Y-126825843D02*
X169886232Y-126556469D01*
X169886232Y-126556469D02*
X169987247Y-126522798D01*
X169987247Y-126522798D02*
X170054591Y-126522798D01*
X170054591Y-126522798D02*
X170155606Y-126556469D01*
X170155606Y-126556469D02*
X170256621Y-126657485D01*
X170256621Y-126657485D02*
X170290293Y-126758500D01*
X170290293Y-126758500D02*
X170290293Y-126825843D01*
X170290293Y-126825843D02*
X170256621Y-126926859D01*
X170256621Y-126926859D02*
X169987247Y-127196233D01*
X170357637Y-126219752D02*
X170357637Y-126152408D01*
X170357637Y-126152408D02*
X170391308Y-126051393D01*
X170391308Y-126051393D02*
X170559667Y-125883034D01*
X170559667Y-125883034D02*
X170660682Y-125849363D01*
X170660682Y-125849363D02*
X170728026Y-125849363D01*
X170728026Y-125849363D02*
X170829041Y-125883034D01*
X170829041Y-125883034D02*
X170896385Y-125950378D01*
X170896385Y-125950378D02*
X170963728Y-126085065D01*
X170963728Y-126085065D02*
X170963728Y-126893187D01*
X170963728Y-126893187D02*
X171401461Y-126455454D01*
X171536148Y-125377958D02*
X172007552Y-125849363D01*
X171098415Y-125276943D02*
X171435133Y-125950378D01*
X171435133Y-125950378D02*
X171872865Y-125512645D01*
X162082142Y-109322380D02*
X162034523Y-109370000D01*
X162034523Y-109370000D02*
X161891666Y-109417619D01*
X161891666Y-109417619D02*
X161796428Y-109417619D01*
X161796428Y-109417619D02*
X161653571Y-109370000D01*
X161653571Y-109370000D02*
X161558333Y-109274761D01*
X161558333Y-109274761D02*
X161510714Y-109179523D01*
X161510714Y-109179523D02*
X161463095Y-108989047D01*
X161463095Y-108989047D02*
X161463095Y-108846190D01*
X161463095Y-108846190D02*
X161510714Y-108655714D01*
X161510714Y-108655714D02*
X161558333Y-108560476D01*
X161558333Y-108560476D02*
X161653571Y-108465238D01*
X161653571Y-108465238D02*
X161796428Y-108417619D01*
X161796428Y-108417619D02*
X161891666Y-108417619D01*
X161891666Y-108417619D02*
X162034523Y-108465238D01*
X162034523Y-108465238D02*
X162082142Y-108512857D01*
X163034523Y-109417619D02*
X162463095Y-109417619D01*
X162748809Y-109417619D02*
X162748809Y-108417619D01*
X162748809Y-108417619D02*
X162653571Y-108560476D01*
X162653571Y-108560476D02*
X162558333Y-108655714D01*
X162558333Y-108655714D02*
X162463095Y-108703333D01*
X163939285Y-108417619D02*
X163463095Y-108417619D01*
X163463095Y-108417619D02*
X163415476Y-108893809D01*
X163415476Y-108893809D02*
X163463095Y-108846190D01*
X163463095Y-108846190D02*
X163558333Y-108798571D01*
X163558333Y-108798571D02*
X163796428Y-108798571D01*
X163796428Y-108798571D02*
X163891666Y-108846190D01*
X163891666Y-108846190D02*
X163939285Y-108893809D01*
X163939285Y-108893809D02*
X163986904Y-108989047D01*
X163986904Y-108989047D02*
X163986904Y-109227142D01*
X163986904Y-109227142D02*
X163939285Y-109322380D01*
X163939285Y-109322380D02*
X163891666Y-109370000D01*
X163891666Y-109370000D02*
X163796428Y-109417619D01*
X163796428Y-109417619D02*
X163558333Y-109417619D01*
X163558333Y-109417619D02*
X163463095Y-109370000D01*
X163463095Y-109370000D02*
X163415476Y-109322380D01*
X189583333Y-134662619D02*
X189250000Y-134186428D01*
X189011905Y-134662619D02*
X189011905Y-133662619D01*
X189011905Y-133662619D02*
X189392857Y-133662619D01*
X189392857Y-133662619D02*
X189488095Y-133710238D01*
X189488095Y-133710238D02*
X189535714Y-133757857D01*
X189535714Y-133757857D02*
X189583333Y-133853095D01*
X189583333Y-133853095D02*
X189583333Y-133995952D01*
X189583333Y-133995952D02*
X189535714Y-134091190D01*
X189535714Y-134091190D02*
X189488095Y-134138809D01*
X189488095Y-134138809D02*
X189392857Y-134186428D01*
X189392857Y-134186428D02*
X189011905Y-134186428D01*
X190440476Y-133662619D02*
X190250000Y-133662619D01*
X190250000Y-133662619D02*
X190154762Y-133710238D01*
X190154762Y-133710238D02*
X190107143Y-133757857D01*
X190107143Y-133757857D02*
X190011905Y-133900714D01*
X190011905Y-133900714D02*
X189964286Y-134091190D01*
X189964286Y-134091190D02*
X189964286Y-134472142D01*
X189964286Y-134472142D02*
X190011905Y-134567380D01*
X190011905Y-134567380D02*
X190059524Y-134615000D01*
X190059524Y-134615000D02*
X190154762Y-134662619D01*
X190154762Y-134662619D02*
X190345238Y-134662619D01*
X190345238Y-134662619D02*
X190440476Y-134615000D01*
X190440476Y-134615000D02*
X190488095Y-134567380D01*
X190488095Y-134567380D02*
X190535714Y-134472142D01*
X190535714Y-134472142D02*
X190535714Y-134234047D01*
X190535714Y-134234047D02*
X190488095Y-134138809D01*
X190488095Y-134138809D02*
X190440476Y-134091190D01*
X190440476Y-134091190D02*
X190345238Y-134043571D01*
X190345238Y-134043571D02*
X190154762Y-134043571D01*
X190154762Y-134043571D02*
X190059524Y-134091190D01*
X190059524Y-134091190D02*
X190011905Y-134138809D01*
X190011905Y-134138809D02*
X189964286Y-134234047D01*
D11*
X160459954Y-93122430D02*
X160503241Y-93174018D01*
X160503241Y-93174018D02*
X160538228Y-93320482D01*
X160538228Y-93320482D02*
X160529928Y-93415357D01*
X160529928Y-93415357D02*
X160470039Y-93553521D01*
X160470039Y-93553521D02*
X160366863Y-93640096D01*
X160366863Y-93640096D02*
X160267837Y-93679233D01*
X160267837Y-93679233D02*
X160073935Y-93710070D01*
X160073935Y-93710070D02*
X159931622Y-93697619D01*
X159931622Y-93697619D02*
X159746021Y-93633580D01*
X159746021Y-93633580D02*
X159655295Y-93577842D01*
X159655295Y-93577842D02*
X159568720Y-93474665D01*
X159568720Y-93474665D02*
X159533733Y-93328202D01*
X159533733Y-93328202D02*
X159542034Y-93233326D01*
X159542034Y-93233326D02*
X159601922Y-93095163D01*
X159601922Y-93095163D02*
X159653510Y-93051875D01*
X160637835Y-92181973D02*
X160588032Y-92751228D01*
X160612933Y-92466601D02*
X159616739Y-92379445D01*
X159616739Y-92379445D02*
X159750752Y-92486771D01*
X159750752Y-92486771D02*
X159837327Y-92589948D01*
X159837327Y-92589948D02*
X159876464Y-92688973D01*
X159670692Y-91762753D02*
X159724646Y-91146061D01*
X159724646Y-91146061D02*
X160075097Y-91511328D01*
X160075097Y-91511328D02*
X160087547Y-91369014D01*
X160087547Y-91369014D02*
X160143286Y-91278289D01*
X160143286Y-91278289D02*
X160194874Y-91235001D01*
X160194874Y-91235001D02*
X160293900Y-91195864D01*
X160293900Y-91195864D02*
X160531089Y-91216615D01*
X160531089Y-91216615D02*
X160621814Y-91272354D01*
X160621814Y-91272354D02*
X160665102Y-91323942D01*
X160665102Y-91323942D02*
X160704239Y-91422968D01*
X160704239Y-91422968D02*
X160679338Y-91707595D01*
X160679338Y-91707595D02*
X160623599Y-91798320D01*
X160623599Y-91798320D02*
X160572011Y-91841608D01*
D10*
X160257142Y-130217380D02*
X160209523Y-130265000D01*
X160209523Y-130265000D02*
X160066666Y-130312619D01*
X160066666Y-130312619D02*
X159971428Y-130312619D01*
X159971428Y-130312619D02*
X159828571Y-130265000D01*
X159828571Y-130265000D02*
X159733333Y-130169761D01*
X159733333Y-130169761D02*
X159685714Y-130074523D01*
X159685714Y-130074523D02*
X159638095Y-129884047D01*
X159638095Y-129884047D02*
X159638095Y-129741190D01*
X159638095Y-129741190D02*
X159685714Y-129550714D01*
X159685714Y-129550714D02*
X159733333Y-129455476D01*
X159733333Y-129455476D02*
X159828571Y-129360238D01*
X159828571Y-129360238D02*
X159971428Y-129312619D01*
X159971428Y-129312619D02*
X160066666Y-129312619D01*
X160066666Y-129312619D02*
X160209523Y-129360238D01*
X160209523Y-129360238D02*
X160257142Y-129407857D01*
X160638095Y-129407857D02*
X160685714Y-129360238D01*
X160685714Y-129360238D02*
X160780952Y-129312619D01*
X160780952Y-129312619D02*
X161019047Y-129312619D01*
X161019047Y-129312619D02*
X161114285Y-129360238D01*
X161114285Y-129360238D02*
X161161904Y-129407857D01*
X161161904Y-129407857D02*
X161209523Y-129503095D01*
X161209523Y-129503095D02*
X161209523Y-129598333D01*
X161209523Y-129598333D02*
X161161904Y-129741190D01*
X161161904Y-129741190D02*
X160590476Y-130312619D01*
X160590476Y-130312619D02*
X161209523Y-130312619D01*
X162066666Y-129645952D02*
X162066666Y-130312619D01*
X161828571Y-129265000D02*
X161590476Y-129979285D01*
X161590476Y-129979285D02*
X162209523Y-129979285D01*
X187757142Y-107812619D02*
X187423809Y-107336428D01*
X187185714Y-107812619D02*
X187185714Y-106812619D01*
X187185714Y-106812619D02*
X187566666Y-106812619D01*
X187566666Y-106812619D02*
X187661904Y-106860238D01*
X187661904Y-106860238D02*
X187709523Y-106907857D01*
X187709523Y-106907857D02*
X187757142Y-107003095D01*
X187757142Y-107003095D02*
X187757142Y-107145952D01*
X187757142Y-107145952D02*
X187709523Y-107241190D01*
X187709523Y-107241190D02*
X187661904Y-107288809D01*
X187661904Y-107288809D02*
X187566666Y-107336428D01*
X187566666Y-107336428D02*
X187185714Y-107336428D01*
X188709523Y-107812619D02*
X188138095Y-107812619D01*
X188423809Y-107812619D02*
X188423809Y-106812619D01*
X188423809Y-106812619D02*
X188328571Y-106955476D01*
X188328571Y-106955476D02*
X188233333Y-107050714D01*
X188233333Y-107050714D02*
X188138095Y-107098333D01*
X189042857Y-106812619D02*
X189661904Y-106812619D01*
X189661904Y-106812619D02*
X189328571Y-107193571D01*
X189328571Y-107193571D02*
X189471428Y-107193571D01*
X189471428Y-107193571D02*
X189566666Y-107241190D01*
X189566666Y-107241190D02*
X189614285Y-107288809D01*
X189614285Y-107288809D02*
X189661904Y-107384047D01*
X189661904Y-107384047D02*
X189661904Y-107622142D01*
X189661904Y-107622142D02*
X189614285Y-107717380D01*
X189614285Y-107717380D02*
X189566666Y-107765000D01*
X189566666Y-107765000D02*
X189471428Y-107812619D01*
X189471428Y-107812619D02*
X189185714Y-107812619D01*
X189185714Y-107812619D02*
X189090476Y-107765000D01*
X189090476Y-107765000D02*
X189042857Y-107717380D01*
X160254136Y-121904589D02*
X159778039Y-121571123D01*
X159717169Y-122100029D02*
X159375149Y-121160337D01*
X159375149Y-121160337D02*
X159733127Y-121030043D01*
X159733127Y-121030043D02*
X159838908Y-121042217D01*
X159838908Y-121042217D02*
X159899942Y-121070678D01*
X159899942Y-121070678D02*
X159977263Y-121143886D01*
X159977263Y-121143886D02*
X160026123Y-121278128D01*
X160026123Y-121278128D02*
X160013949Y-121383909D01*
X160013949Y-121383909D02*
X159985488Y-121444943D01*
X159985488Y-121444943D02*
X159912281Y-121522263D01*
X159912281Y-121522263D02*
X159554302Y-121652557D01*
X160302668Y-120924098D02*
X160331128Y-120863064D01*
X160331128Y-120863064D02*
X160404336Y-120785743D01*
X160404336Y-120785743D02*
X160628073Y-120704310D01*
X160628073Y-120704310D02*
X160733854Y-120716484D01*
X160733854Y-120716484D02*
X160794888Y-120744944D01*
X160794888Y-120744944D02*
X160872208Y-120818152D01*
X160872208Y-120818152D02*
X160904782Y-120907647D01*
X160904782Y-120907647D02*
X160908894Y-121058175D01*
X160908894Y-121058175D02*
X160567367Y-121790583D01*
X160567367Y-121790583D02*
X161149082Y-121578856D01*
X161612512Y-120346003D02*
X161433523Y-120411150D01*
X161433523Y-120411150D02*
X161360316Y-120488470D01*
X161360316Y-120488470D02*
X161331855Y-120549504D01*
X161331855Y-120549504D02*
X161291220Y-120716319D01*
X161291220Y-120716319D02*
X161311620Y-120911595D01*
X161311620Y-120911595D02*
X161441913Y-121269573D01*
X161441913Y-121269573D02*
X161519234Y-121342781D01*
X161519234Y-121342781D02*
X161580268Y-121371242D01*
X161580268Y-121371242D02*
X161686049Y-121383416D01*
X161686049Y-121383416D02*
X161865038Y-121318269D01*
X161865038Y-121318269D02*
X161938246Y-121240948D01*
X161938246Y-121240948D02*
X161966707Y-121179914D01*
X161966707Y-121179914D02*
X161978880Y-121074133D01*
X161978880Y-121074133D02*
X161897447Y-120850397D01*
X161897447Y-120850397D02*
X161820126Y-120777189D01*
X161820126Y-120777189D02*
X161759093Y-120748728D01*
X161759093Y-120748728D02*
X161653311Y-120736555D01*
X161653311Y-120736555D02*
X161474322Y-120801701D01*
X161474322Y-120801701D02*
X161401114Y-120879022D01*
X161401114Y-120879022D02*
X161372654Y-120940056D01*
X161372654Y-120940056D02*
X161360480Y-121045837D01*
X188312619Y-89586904D02*
X189122142Y-89586904D01*
X189122142Y-89586904D02*
X189217380Y-89539285D01*
X189217380Y-89539285D02*
X189265000Y-89491666D01*
X189265000Y-89491666D02*
X189312619Y-89396428D01*
X189312619Y-89396428D02*
X189312619Y-89205952D01*
X189312619Y-89205952D02*
X189265000Y-89110714D01*
X189265000Y-89110714D02*
X189217380Y-89063095D01*
X189217380Y-89063095D02*
X189122142Y-89015476D01*
X189122142Y-89015476D02*
X188312619Y-89015476D01*
X188312619Y-88110714D02*
X188312619Y-88301190D01*
X188312619Y-88301190D02*
X188360238Y-88396428D01*
X188360238Y-88396428D02*
X188407857Y-88444047D01*
X188407857Y-88444047D02*
X188550714Y-88539285D01*
X188550714Y-88539285D02*
X188741190Y-88586904D01*
X188741190Y-88586904D02*
X189122142Y-88586904D01*
X189122142Y-88586904D02*
X189217380Y-88539285D01*
X189217380Y-88539285D02*
X189265000Y-88491666D01*
X189265000Y-88491666D02*
X189312619Y-88396428D01*
X189312619Y-88396428D02*
X189312619Y-88205952D01*
X189312619Y-88205952D02*
X189265000Y-88110714D01*
X189265000Y-88110714D02*
X189217380Y-88063095D01*
X189217380Y-88063095D02*
X189122142Y-88015476D01*
X189122142Y-88015476D02*
X188884047Y-88015476D01*
X188884047Y-88015476D02*
X188788809Y-88063095D01*
X188788809Y-88063095D02*
X188741190Y-88110714D01*
X188741190Y-88110714D02*
X188693571Y-88205952D01*
X188693571Y-88205952D02*
X188693571Y-88396428D01*
X188693571Y-88396428D02*
X188741190Y-88491666D01*
X188741190Y-88491666D02*
X188788809Y-88539285D01*
X188788809Y-88539285D02*
X188884047Y-88586904D01*
X163104136Y-121704589D02*
X162628039Y-121371123D01*
X162567169Y-121900029D02*
X162225149Y-120960337D01*
X162225149Y-120960337D02*
X162583127Y-120830043D01*
X162583127Y-120830043D02*
X162688908Y-120842217D01*
X162688908Y-120842217D02*
X162749942Y-120870678D01*
X162749942Y-120870678D02*
X162827263Y-120943886D01*
X162827263Y-120943886D02*
X162876123Y-121078128D01*
X162876123Y-121078128D02*
X162863949Y-121183909D01*
X162863949Y-121183909D02*
X162835488Y-121244943D01*
X162835488Y-121244943D02*
X162762281Y-121322263D01*
X162762281Y-121322263D02*
X162404302Y-121452557D01*
X163152668Y-120724098D02*
X163181128Y-120663064D01*
X163181128Y-120663064D02*
X163254336Y-120585743D01*
X163254336Y-120585743D02*
X163478073Y-120504310D01*
X163478073Y-120504310D02*
X163583854Y-120516484D01*
X163583854Y-120516484D02*
X163644888Y-120544944D01*
X163644888Y-120544944D02*
X163722208Y-120618152D01*
X163722208Y-120618152D02*
X163754782Y-120707647D01*
X163754782Y-120707647D02*
X163758894Y-120858175D01*
X163758894Y-120858175D02*
X163417367Y-121590583D01*
X163417367Y-121590583D02*
X163999082Y-121378856D01*
X163970293Y-120325156D02*
X164596754Y-120097143D01*
X164596754Y-120097143D02*
X164536049Y-121183416D01*
D12*
X188322500Y-123262742D02*
X188322500Y-123737258D01*
X187277500Y-123262742D02*
X187277500Y-123737258D01*
X173937742Y-109802500D02*
X174412258Y-109802500D01*
X173937742Y-110847500D02*
X174412258Y-110847500D01*
X187037500Y-154010000D02*
X190487500Y-154010000D01*
X187037500Y-154010000D02*
X185087500Y-154010000D01*
X187037500Y-148890000D02*
X188987500Y-148890000D01*
X187037500Y-148890000D02*
X185087500Y-148890000D01*
X163587258Y-97647500D02*
X163112742Y-97647500D01*
X163587258Y-96602500D02*
X163112742Y-96602500D01*
X162537742Y-99427500D02*
X163012258Y-99427500D01*
X162537742Y-100472500D02*
X163012258Y-100472500D01*
X194235000Y-105850242D02*
X194235000Y-106324758D01*
X193190000Y-105850242D02*
X193190000Y-106324758D01*
X176715000Y-137112500D02*
X176715000Y-138772500D01*
X177055000Y-136872500D02*
X177055000Y-137112500D01*
X177055000Y-137112500D02*
X176715000Y-137112500D01*
X178815000Y-137112500D02*
X179135000Y-137112500D01*
X181235000Y-137112500D02*
X180895000Y-137112500D01*
X181235000Y-138772500D02*
X181235000Y-137112500D01*
X189137258Y-145535000D02*
X188662742Y-145535000D01*
X189137258Y-144490000D02*
X188662742Y-144490000D01*
X180047936Y-151940000D02*
X181502064Y-151940000D01*
X180047936Y-153760000D02*
X181502064Y-153760000D01*
X163770000Y-111855000D02*
X161700000Y-111855000D01*
X163770000Y-111855000D02*
X163770000Y-112725000D01*
X164300000Y-116725000D02*
X164300000Y-117325000D01*
X164000000Y-117025000D02*
X164300000Y-116725000D01*
X164000000Y-117025000D02*
X164300000Y-117325000D01*
X163770000Y-118725000D02*
X163770000Y-119595000D01*
X163770000Y-119595000D02*
X161700000Y-119595000D01*
X183987258Y-86397500D02*
X183512742Y-86397500D01*
X183987258Y-85352500D02*
X183512742Y-85352500D01*
X188190000Y-103224758D02*
X188190000Y-102750242D01*
X189235000Y-103224758D02*
X189235000Y-102750242D01*
X169265000Y-154634375D02*
X169265000Y-156434375D01*
X169265000Y-154634375D02*
X169265000Y-153834375D01*
X172385000Y-154634375D02*
X172385000Y-155434375D01*
X172385000Y-154634375D02*
X172385000Y-153834375D01*
X187965643Y-120102500D02*
X188440159Y-120102500D01*
X187965643Y-121147500D02*
X188440159Y-121147500D01*
X164537500Y-127290000D02*
X162862500Y-127290000D01*
X164537500Y-127290000D02*
X165187500Y-127290000D01*
X164537500Y-130410000D02*
X163887500Y-130410000D01*
X164537500Y-130410000D02*
X165187500Y-130410000D01*
X173595000Y-163420000D02*
X173595000Y-164060000D01*
X173595000Y-164060000D02*
X173995000Y-164060000D01*
X173835000Y-157080000D02*
X173835000Y-163820000D01*
X173835000Y-157080000D02*
X184696000Y-157080000D01*
X173835000Y-158200000D02*
X184696000Y-158200000D01*
X173835000Y-163300000D02*
X184696000Y-163300000D01*
X173835000Y-163820000D02*
X184696000Y-163820000D01*
X184696000Y-157080000D02*
X184696000Y-163820000D01*
X193012258Y-109960000D02*
X192537742Y-109960000D01*
X193012258Y-108915000D02*
X192537742Y-108915000D01*
X166327500Y-98512258D02*
X166327500Y-98037742D01*
X167372500Y-98512258D02*
X167372500Y-98037742D01*
X193687258Y-150772500D02*
X193212742Y-150772500D01*
X193687258Y-149727500D02*
X193212742Y-149727500D01*
X168337742Y-115602500D02*
X168812258Y-115602500D01*
X168337742Y-116647500D02*
X168812258Y-116647500D01*
X169698891Y-95441954D02*
X169698891Y-94751954D01*
X169548891Y-94751954D02*
X169698891Y-94751954D01*
X169548891Y-94751954D02*
X169548891Y-84831954D01*
X179718891Y-94751954D02*
X179868891Y-94751954D01*
X179868891Y-94751954D02*
X179868891Y-84831954D01*
X169548891Y-84831954D02*
X169698891Y-84831954D01*
X179718891Y-84831954D02*
X179868891Y-84831954D01*
D13*
X189962500Y-106350000D02*
X190017500Y-106350000D01*
X189962500Y-106350000D02*
X189962500Y-105795000D01*
X192407500Y-106350000D02*
X192462500Y-106350000D01*
X192462500Y-106350000D02*
X192462500Y-105795000D01*
X189962500Y-103905000D02*
X189962500Y-103350000D01*
X192462500Y-103905000D02*
X192462500Y-103350000D01*
X189962500Y-103350000D02*
X190017500Y-103350000D01*
X192407500Y-103350000D02*
X192462500Y-103350000D01*
D10*
X190387500Y-106850000D02*
G75*
G03*
X190387500Y-106850000I-75000J0D01*
G01*
D12*
X193190000Y-103199758D02*
X193190000Y-102725242D01*
X194235000Y-103199758D02*
X194235000Y-102725242D01*
X186765000Y-146462500D02*
X186765000Y-148162500D01*
X186765000Y-146462500D02*
X190025000Y-146462500D01*
X186765000Y-148162500D02*
X190025000Y-148162500D01*
X175585000Y-142485436D02*
X175585000Y-143939564D01*
X173765000Y-142485436D02*
X173765000Y-143939564D01*
X175936727Y-81881780D02*
X175721055Y-81881780D01*
X175936727Y-81161780D02*
X175721055Y-81161780D01*
X171837258Y-160069375D02*
X171362742Y-160069375D01*
X171837258Y-159024375D02*
X171362742Y-159024375D01*
X189612500Y-128440000D02*
X187937500Y-128440000D01*
X189612500Y-128440000D02*
X190262500Y-128440000D01*
X189612500Y-131560000D02*
X188962500Y-131560000D01*
X189612500Y-131560000D02*
X190262500Y-131560000D01*
X183308891Y-74991954D02*
X183308891Y-80891954D01*
X172708891Y-80891954D02*
X183308891Y-80891954D01*
X172708891Y-74991954D02*
X172708891Y-80891954D01*
D14*
X178108891Y-81431954D02*
G75*
G03*
X178108891Y-81431954I-100000J0D01*
G01*
D12*
X187990643Y-118452500D02*
X188465159Y-118452500D01*
X187990643Y-119497500D02*
X188465159Y-119497500D01*
X182662258Y-110747500D02*
X182187742Y-110747500D01*
X182662258Y-109702500D02*
X182187742Y-109702500D01*
X163962258Y-87822500D02*
X163487742Y-87822500D01*
X163962258Y-86777500D02*
X163487742Y-86777500D01*
D15*
X185088000Y-148445500D02*
X185088000Y-147813040D01*
X185088000Y-144886960D02*
X185088000Y-144254500D01*
X185088000Y-144254500D02*
X180262000Y-144254500D01*
X183475000Y-148450000D02*
X183475000Y-144250000D01*
X180262000Y-148445500D02*
X185088000Y-148445500D01*
X180262000Y-147813040D02*
X180262000Y-148445500D01*
X180262000Y-144254500D02*
X180262000Y-144886960D01*
D12*
X180047936Y-149240000D02*
X181502064Y-149240000D01*
X180047936Y-151060000D02*
X181502064Y-151060000D01*
X193212742Y-148127500D02*
X193687258Y-148127500D01*
X193212742Y-149172500D02*
X193687258Y-149172500D01*
X175704407Y-127981666D02*
X176039940Y-127646133D01*
X176443334Y-128720593D02*
X176778867Y-128385060D01*
D15*
X192956601Y-118643900D02*
X190899201Y-118643900D01*
X190899201Y-121006100D02*
X192956601Y-121006100D01*
D14*
X193527902Y-120725000D02*
G75*
G03*
X193527902Y-120725000I-1J0D01*
G01*
D12*
X192562742Y-113465000D02*
X193037258Y-113465000D01*
X192562742Y-114510000D02*
X193037258Y-114510000D01*
X171837258Y-158319375D02*
X171362742Y-158319375D01*
X171837258Y-157274375D02*
X171362742Y-157274375D01*
X178730761Y-132697666D02*
X181064214Y-130364213D01*
X181064214Y-130364213D02*
X178235787Y-127535786D01*
X164030000Y-94480000D02*
X164355000Y-94480000D01*
X164030000Y-94805000D02*
X164030000Y-94480000D01*
X165570000Y-95695000D02*
X165570000Y-96020000D01*
X164030000Y-95695000D02*
X164030000Y-96020000D01*
X165570000Y-96020000D02*
X165245000Y-96020000D01*
X164030000Y-96020000D02*
X164355000Y-96020000D01*
D14*
X165550000Y-94600000D02*
G75*
G03*
X165550000Y-94600000I-100000J0D01*
G01*
D12*
X184787742Y-132127500D02*
X185262258Y-132127500D01*
X184787742Y-133172500D02*
X185262258Y-133172500D01*
X184695000Y-143512500D02*
X184695000Y-137502500D01*
X191515000Y-141262500D02*
X191515000Y-137502500D01*
X184695000Y-137502500D02*
X185955000Y-137502500D01*
X191515000Y-137502500D02*
X190255000Y-137502500D01*
X174680385Y-82392625D02*
X175154901Y-82392625D01*
X174680385Y-83437625D02*
X175154901Y-83437625D01*
X176537258Y-106122500D02*
X176062742Y-106122500D01*
X176537258Y-105077500D02*
X176062742Y-105077500D01*
D10*
X173525000Y-113850000D02*
X173525000Y-114425000D01*
X173525000Y-113850000D02*
X174200000Y-113850000D01*
X173525000Y-114425000D02*
X172250000Y-114425000D01*
X173525000Y-124200000D02*
X173525000Y-123525000D01*
X173525000Y-124200000D02*
X174200000Y-124200000D01*
X183875000Y-113850000D02*
X183200000Y-113850000D01*
X183875000Y-113850000D02*
X183875000Y-114525000D01*
X183875000Y-124200000D02*
X183200000Y-124200000D01*
X183875000Y-124200000D02*
X183875000Y-123525000D01*
D12*
X190075000Y-112825000D02*
X190075000Y-112825000D01*
X191775000Y-112825000D02*
X191775000Y-112825000D01*
X192275000Y-112825000D02*
X191775000Y-112825000D01*
X190075000Y-112325000D02*
X190075000Y-112825000D01*
X192275000Y-112325000D02*
X192275000Y-112825000D01*
X190075000Y-111125000D02*
X190075000Y-110625000D01*
X192275000Y-111125000D02*
X192275000Y-111125000D01*
X190075000Y-110625000D02*
X190575000Y-110625000D01*
X190575000Y-110625000D02*
X190575000Y-110625000D01*
X191775000Y-110625000D02*
X192275000Y-110625000D01*
X192275000Y-110625000D02*
X192275000Y-111125000D01*
X177621391Y-97429696D02*
X177621391Y-97904212D01*
X176576391Y-97429696D02*
X176576391Y-97904212D01*
X187990643Y-116802500D02*
X188465159Y-116802500D01*
X187990643Y-117847500D02*
X188465159Y-117847500D01*
X193212742Y-151527500D02*
X193687258Y-151527500D01*
X193212742Y-152572500D02*
X193687258Y-152572500D01*
X169797500Y-128637742D02*
X169797500Y-129112258D01*
X168752500Y-128637742D02*
X168752500Y-129112258D01*
X185287258Y-128072500D02*
X184812742Y-128072500D01*
X185287258Y-127027500D02*
X184812742Y-127027500D01*
X193687258Y-154172500D02*
X193212742Y-154172500D01*
X193687258Y-153127500D02*
X193212742Y-153127500D01*
X179321391Y-97454696D02*
X179321391Y-97929212D01*
X178276391Y-97454696D02*
X178276391Y-97929212D01*
X166712742Y-114002500D02*
X167187258Y-114002500D01*
X166712742Y-115047500D02*
X167187258Y-115047500D01*
X162412258Y-95772500D02*
X161937742Y-95772500D01*
X162412258Y-94727500D02*
X161937742Y-94727500D01*
X190012742Y-122127500D02*
X190487258Y-122127500D01*
X190012742Y-123172500D02*
X190487258Y-123172500D01*
X169162770Y-118806666D02*
X169498303Y-118471133D01*
X169901697Y-119545593D02*
X170237230Y-119210060D01*
X166952500Y-129112258D02*
X166952500Y-128637742D01*
X167997500Y-129112258D02*
X167997500Y-128637742D01*
X187987742Y-115102500D02*
X188462258Y-115102500D01*
X187987742Y-116147500D02*
X188462258Y-116147500D01*
X158905000Y-146590000D02*
X158265000Y-146590000D01*
X158265000Y-146590000D02*
X158265000Y-146990000D01*
X165245000Y-146830000D02*
X158505000Y-146830000D01*
X165245000Y-146830000D02*
X165245000Y-152610000D01*
X164125000Y-146830000D02*
X164125000Y-152610000D01*
X159025000Y-146830000D02*
X159025000Y-152610000D01*
X158505000Y-146830000D02*
X158505000Y-152610000D01*
X165245000Y-152610000D02*
X158505000Y-152610000D01*
X169798303Y-114162230D02*
X169462770Y-113826697D01*
X170537230Y-113423303D02*
X170201697Y-113087770D01*
X184937500Y-128540000D02*
X183262500Y-128540000D01*
X184937500Y-128540000D02*
X185587500Y-128540000D01*
X184937500Y-131660000D02*
X184287500Y-131660000D01*
X184937500Y-131660000D02*
X185587500Y-131660000D01*
X180331577Y-129103956D02*
X179996044Y-128768423D01*
X181070504Y-128365029D02*
X180734971Y-128029496D01*
X187187258Y-86397500D02*
X186712742Y-86397500D01*
X187187258Y-85352500D02*
X186712742Y-85352500D01*
X167875242Y-150627500D02*
X168349758Y-150627500D01*
X167875242Y-151672500D02*
X168349758Y-151672500D01*
X189987258Y-127972500D02*
X189512742Y-127972500D01*
X189987258Y-126927500D02*
X189512742Y-126927500D01*
X173851697Y-128362770D02*
X174187230Y-128698303D01*
X173112770Y-129101697D02*
X173448303Y-129437230D01*
X169140000Y-123145000D02*
X169140000Y-123780000D01*
X168505000Y-123145000D02*
X169140000Y-123145000D01*
X164360000Y-90287500D02*
X164360000Y-88487500D01*
X164360000Y-90287500D02*
X164360000Y-91087500D01*
X161240000Y-90287500D02*
X161240000Y-89487500D01*
X161240000Y-90287500D02*
X161240000Y-91087500D01*
X176177500Y-110087258D02*
X176177500Y-109612742D01*
X177222500Y-110087258D02*
X177222500Y-109612742D01*
X166062742Y-117202500D02*
X166537258Y-117202500D01*
X166062742Y-118247500D02*
X166537258Y-118247500D01*
X182165000Y-139877064D02*
X182165000Y-138422936D01*
X183985000Y-139877064D02*
X183985000Y-138422936D01*
X164375000Y-101215000D02*
X160925000Y-101215000D01*
X164375000Y-101215000D02*
X166325000Y-101215000D01*
X164375000Y-106335000D02*
X162425000Y-106335000D01*
X164375000Y-106335000D02*
X166325000Y-106335000D01*
X167372500Y-92987742D02*
X167372500Y-93462258D01*
X166327500Y-92987742D02*
X166327500Y-93462258D01*
X159740000Y-143962500D02*
X159740000Y-143372500D01*
X161960000Y-143962500D02*
X161960000Y-143372500D01*
X157640000Y-143372500D02*
X159740000Y-143372500D01*
X157640000Y-143372500D02*
X157640000Y-133252500D01*
X161960000Y-143372500D02*
X166860000Y-143372500D01*
X166860000Y-143372500D02*
X166860000Y-133252500D01*
X157640000Y-133252500D02*
X159740000Y-133252500D01*
X159740000Y-133252500D02*
X159740000Y-132662500D01*
X161960000Y-133252500D02*
X166860000Y-133252500D01*
X161960000Y-133252500D02*
X161960000Y-132662500D01*
X159740000Y-143962500D02*
G75*
G03*
X161960000Y-143962500I1110000J0D01*
G01*
X161960000Y-132662500D02*
G75*
G03*
X159740000Y-132662500I-1110000J0D01*
G01*
X166537258Y-120072500D02*
X166062742Y-120072500D01*
X166537258Y-119027500D02*
X166062742Y-119027500D01*
X171329407Y-127156666D02*
X171664940Y-126821133D01*
X172068334Y-127895593D02*
X172403867Y-127560060D01*
X162962258Y-108047500D02*
X162487742Y-108047500D01*
X162962258Y-107002500D02*
X162487742Y-107002500D01*
X189450242Y-132027500D02*
X189924758Y-132027500D01*
X189450242Y-133072500D02*
X189924758Y-133072500D01*
X163162258Y-93947500D02*
X162687742Y-93947500D01*
X163162258Y-92902500D02*
X162687742Y-92902500D01*
X161222500Y-127287742D02*
X161222500Y-127762258D01*
X160177500Y-127287742D02*
X160177500Y-127762258D01*
X189447500Y-109375242D02*
X189447500Y-109849758D01*
X188402500Y-109375242D02*
X188402500Y-109849758D01*
X161197500Y-124012742D02*
X161197500Y-124487258D01*
X160152500Y-124012742D02*
X160152500Y-124487258D01*
X182600000Y-87175000D02*
X183100000Y-87175000D01*
X187800000Y-87275000D02*
X187800000Y-88225000D01*
X182600000Y-87675000D02*
X182600000Y-87175000D01*
X187800000Y-89975000D02*
X187800000Y-90475000D01*
X187800000Y-90475000D02*
X187300000Y-90475000D01*
X183100000Y-90475000D02*
X182600000Y-90475000D01*
X182600000Y-90475000D02*
X182600000Y-89975000D01*
X161862500Y-124487258D02*
X161862500Y-124012742D01*
X162907500Y-124487258D02*
X162907500Y-124012742D01*
%LPC*%
D16*
X187800000Y-122675000D03*
X187800000Y-124325000D03*
D17*
X173350000Y-110325000D03*
X175000000Y-110325000D03*
D18*
X189612500Y-153355000D03*
X189612500Y-152085000D03*
X189612500Y-150815000D03*
X189612500Y-149545000D03*
X184462500Y-149545000D03*
X184462500Y-150815000D03*
X184462500Y-152085000D03*
X184462500Y-153355000D03*
D19*
X164175000Y-97125000D03*
X162525000Y-97125000D03*
D17*
X161950000Y-99950000D03*
X163600000Y-99950000D03*
D16*
X193712500Y-105262500D03*
X193712500Y-106912500D03*
D20*
X177935000Y-137507500D03*
X180015000Y-137507500D03*
D21*
X178975000Y-141312500D03*
D19*
X189725000Y-145012500D03*
X188075000Y-145012500D03*
D22*
X179312500Y-152850000D03*
X182237500Y-152850000D03*
D23*
X163175000Y-117025000D03*
X163175000Y-116375000D03*
X163175000Y-115725000D03*
X163175000Y-115075000D03*
X163175000Y-114425000D03*
D24*
X160500000Y-111550000D03*
D25*
X160500000Y-111987500D03*
D26*
X163500000Y-113500000D03*
D27*
X160500000Y-115725000D03*
D26*
X163500000Y-117950000D03*
D25*
X160500000Y-119462500D03*
D24*
X160500000Y-119900000D03*
D19*
X184575000Y-85875000D03*
X182925000Y-85875000D03*
D28*
X188712500Y-103812500D03*
X188712500Y-102162500D03*
D29*
X169875000Y-155771875D03*
X170825000Y-155771875D03*
X171775000Y-155771875D03*
X171775000Y-153496875D03*
X169875000Y-153496875D03*
D17*
X187377901Y-120625000D03*
X189027901Y-120625000D03*
D30*
X163600000Y-127900000D03*
X163600000Y-129800000D03*
X165475000Y-128850000D03*
D31*
X175455000Y-160450000D03*
D32*
X177995000Y-160450000D03*
X180535000Y-160450000D03*
X183075000Y-160450000D03*
D33*
X177039102Y-82920333D03*
X178009102Y-82920333D03*
D19*
X193600000Y-109437500D03*
X191950000Y-109437500D03*
D28*
X166850000Y-99100000D03*
X166850000Y-97450000D03*
D19*
X194275000Y-150250000D03*
X192625000Y-150250000D03*
D17*
X167750000Y-116125000D03*
X169400000Y-116125000D03*
D34*
X170308891Y-94541954D03*
D35*
X171408891Y-94541954D03*
X172508891Y-94541954D03*
X173608891Y-94541954D03*
X174708891Y-94541954D03*
X175808891Y-94541954D03*
X176908891Y-94541954D03*
X178008891Y-94541954D03*
D34*
X179108891Y-94541954D03*
X179108891Y-85041954D03*
D35*
X178008891Y-85041954D03*
X176908891Y-85041954D03*
X175808891Y-85041954D03*
X174708891Y-85041954D03*
X173608891Y-85041954D03*
X172508891Y-85041954D03*
X171408891Y-85041954D03*
D34*
X170308891Y-85041954D03*
D36*
X190462500Y-106012500D03*
X190962500Y-106012500D03*
X191462500Y-106012500D03*
X191962500Y-106012500D03*
D37*
X192125000Y-105350000D03*
X192125000Y-104850000D03*
X192125000Y-104350000D03*
D36*
X191962500Y-103687500D03*
X191462500Y-103687500D03*
X190962500Y-103687500D03*
X190462500Y-103687500D03*
D37*
X190300000Y-104350000D03*
X190300000Y-104850000D03*
X190300000Y-105350000D03*
D28*
X193712500Y-103787500D03*
X193712500Y-102137500D03*
D38*
X187525000Y-147312500D03*
X190025000Y-147312500D03*
D39*
X174675000Y-141750000D03*
X174675000Y-144675000D03*
D40*
X176308891Y-81521780D03*
X175348891Y-81521780D03*
D19*
X172425000Y-159546875D03*
X170775000Y-159546875D03*
D30*
X188675000Y-129050000D03*
X188675000Y-130950000D03*
X190550000Y-130000000D03*
D41*
X178008891Y-77791954D03*
D42*
X182268891Y-77441954D03*
X173748891Y-77441954D03*
D17*
X187402901Y-118975000D03*
X189052901Y-118975000D03*
D19*
X183250000Y-110225000D03*
X181600000Y-110225000D03*
X164550000Y-87300000D03*
X162900000Y-87300000D03*
D43*
X184884800Y-146350000D03*
X180465200Y-146350000D03*
D44*
X190775000Y-81350000D03*
D45*
X190775000Y-81350000D03*
D22*
X179312500Y-150150000D03*
X182237500Y-150150000D03*
D17*
X192625000Y-148650000D03*
X194275000Y-148650000D03*
D46*
X175658274Y-128766726D03*
X176825000Y-127600000D03*
D47*
X192905801Y-120324999D03*
X192905801Y-119325001D03*
X190950001Y-119325001D03*
X190950001Y-120324999D03*
D17*
X191975000Y-113987500D03*
X193625000Y-113987500D03*
D19*
X172425000Y-157796875D03*
X170775000Y-157796875D03*
D48*
X179862132Y-130293503D03*
X178306497Y-128737868D03*
X177104416Y-129939949D03*
X178660051Y-131495584D03*
D49*
X165200000Y-94850000D03*
X165200000Y-95250000D03*
X165200000Y-95650000D03*
X164800000Y-94850000D03*
X164800000Y-95250000D03*
X164800000Y-95650000D03*
X164400000Y-94850000D03*
X164400000Y-95250000D03*
X164400000Y-95650000D03*
D17*
X184200000Y-132650000D03*
X185850000Y-132650000D03*
D50*
X185565000Y-142512500D03*
X186835000Y-142512500D03*
X188105000Y-142512500D03*
X189375000Y-142512500D03*
X190645000Y-142512500D03*
D51*
X188105000Y-136212500D03*
D17*
X174092643Y-82915125D03*
X175742643Y-82915125D03*
D19*
X177125000Y-105600000D03*
X175475000Y-105600000D03*
D52*
X173000000Y-115025000D03*
X173000000Y-115825000D03*
X173000000Y-116625000D03*
X173000000Y-117425000D03*
X173000000Y-118225000D03*
X173000000Y-119025000D03*
X173000000Y-119825000D03*
X173000000Y-120625000D03*
X173000000Y-121425000D03*
X173000000Y-122225000D03*
X173000000Y-123025000D03*
D53*
X174700000Y-124725000D03*
X175500000Y-124725000D03*
X176300000Y-124725000D03*
X177100000Y-124725000D03*
X177900000Y-124725000D03*
X178700000Y-124725000D03*
X179500000Y-124725000D03*
X180300000Y-124725000D03*
X181100000Y-124725000D03*
X181900000Y-124725000D03*
X182700000Y-124725000D03*
D52*
X184400000Y-123025000D03*
X184400000Y-122225000D03*
X184400000Y-121425000D03*
X184400000Y-120625000D03*
X184400000Y-119825000D03*
X184400000Y-119025000D03*
X184400000Y-118225000D03*
X184400000Y-117425000D03*
X184400000Y-116625000D03*
X184400000Y-115825000D03*
X184400000Y-115025000D03*
D53*
X182700000Y-113325000D03*
X181900000Y-113325000D03*
X181100000Y-113325000D03*
X180300000Y-113325000D03*
X179500000Y-113325000D03*
X178700000Y-113325000D03*
X177900000Y-113325000D03*
X177100000Y-113325000D03*
X176300000Y-113325000D03*
X175500000Y-113325000D03*
X174700000Y-113325000D03*
D54*
X190425000Y-112487500D03*
X190925000Y-112487500D03*
X191425000Y-112487500D03*
X191925000Y-112487500D03*
D55*
X191937500Y-111975000D03*
X191937500Y-111475000D03*
D54*
X191925000Y-110962500D03*
X191425000Y-110962500D03*
X190925000Y-110962500D03*
X190425000Y-110962500D03*
D55*
X190412500Y-111475000D03*
X190412500Y-111975000D03*
D44*
X165375000Y-157550000D03*
D45*
X165375000Y-157550000D03*
D16*
X177098891Y-96841954D03*
X177098891Y-98491954D03*
D17*
X187402901Y-117325000D03*
X189052901Y-117325000D03*
X192625000Y-152050000D03*
X194275000Y-152050000D03*
D16*
X169275000Y-128050000D03*
X169275000Y-129700000D03*
D19*
X185875000Y-127550000D03*
X184225000Y-127550000D03*
X194275000Y-153650000D03*
X192625000Y-153650000D03*
D16*
X178798891Y-96866954D03*
X178798891Y-98516954D03*
D17*
X166125000Y-114525000D03*
X167775000Y-114525000D03*
D19*
X163000000Y-95250000D03*
X161350000Y-95250000D03*
D17*
X189425000Y-122650000D03*
X191075000Y-122650000D03*
D46*
X169116637Y-119591726D03*
X170283363Y-118425000D03*
D28*
X167475000Y-129700000D03*
X167475000Y-128050000D03*
D17*
X187400000Y-115625000D03*
X189050000Y-115625000D03*
D31*
X161875000Y-148450000D03*
D32*
X161875000Y-150990000D03*
D56*
X170583363Y-114208363D03*
X169416637Y-113041637D03*
D30*
X184000000Y-129150000D03*
X184000000Y-131050000D03*
X185875000Y-130100000D03*
D56*
X181116637Y-129150089D03*
X179949911Y-127983363D03*
D19*
X187775000Y-85875000D03*
X186125000Y-85875000D03*
D17*
X167287500Y-151150000D03*
X168937500Y-151150000D03*
D19*
X190575000Y-127450000D03*
X188925000Y-127450000D03*
D44*
X165375000Y-81350000D03*
D45*
X165375000Y-81350000D03*
D57*
X173066637Y-128316637D03*
X174233363Y-129483363D03*
D58*
X169775000Y-124415000D03*
X164695000Y-125431000D03*
X164695000Y-123399000D03*
D59*
X168505000Y-123780000D03*
X168505000Y-125050000D03*
X167235000Y-123780000D03*
X167235000Y-125050000D03*
X165965000Y-123780000D03*
X165965000Y-125050000D03*
D60*
X163750000Y-89150000D03*
X162800000Y-89150000D03*
X161850000Y-89150000D03*
X161850000Y-91425000D03*
X163750000Y-91425000D03*
D28*
X176700000Y-110675000D03*
X176700000Y-109025000D03*
D17*
X165475000Y-117725000D03*
X167125000Y-117725000D03*
D44*
X190775000Y-157550000D03*
D45*
X190775000Y-157550000D03*
D61*
X183075000Y-140612500D03*
X183075000Y-137687500D03*
D62*
X161900000Y-101870000D03*
X161900000Y-103140000D03*
X161900000Y-104410000D03*
X161900000Y-105680000D03*
X166850000Y-105680000D03*
X166850000Y-104410000D03*
X166850000Y-103140000D03*
X166850000Y-101870000D03*
D16*
X166850000Y-92400000D03*
X166850000Y-94050000D03*
D63*
X160850000Y-143812500D03*
X160850000Y-132812500D03*
D64*
X170850000Y-135812500D03*
D65*
X170850000Y-140812500D03*
D19*
X167125000Y-119550000D03*
X165475000Y-119550000D03*
D46*
X171283274Y-127941726D03*
X172450000Y-126775000D03*
D19*
X163550000Y-107525000D03*
X161900000Y-107525000D03*
D17*
X188862500Y-132550000D03*
X190512500Y-132550000D03*
D19*
X163750000Y-93425000D03*
X162100000Y-93425000D03*
D16*
X160700000Y-126700000D03*
X160700000Y-128350000D03*
X188925000Y-108787500D03*
X188925000Y-110437500D03*
X160675000Y-123425000D03*
X160675000Y-125075000D03*
D66*
X187075000Y-87750000D03*
X185825000Y-87750000D03*
X184575000Y-87750000D03*
X183325000Y-87750000D03*
X183325000Y-89900000D03*
X184575000Y-89900000D03*
X185825000Y-89900000D03*
X187075000Y-89900000D03*
D28*
X162385000Y-125075000D03*
X162385000Y-123425000D03*
D67*
X194650000Y-88055000D03*
X194650000Y-96575000D03*
M02*
