G04 #@! TF.GenerationSoftware,KiCad,Pcbnew,7.0.1*
G04 #@! TF.CreationDate,2023-10-27T16:47:08-05:00*
G04 #@! TF.ProjectId,FC,46432e6b-6963-4616-945f-706362585858,V1*
G04 #@! TF.SameCoordinates,Original*
G04 #@! TF.FileFunction,Paste,Top*
G04 #@! TF.FilePolarity,Positive*
%FSLAX46Y46*%
G04 Gerber Fmt 4.6, Leading zero omitted, Abs format (unit mm)*
G04 Created by KiCad (PCBNEW 7.0.1) date 2023-10-27 16:47:08*
%MOMM*%
%LPD*%
G01*
G04 APERTURE LIST*
G04 Aperture macros list*
%AMRoundRect*
0 Rectangle with rounded corners*
0 $1 Rounding radius*
0 $2 $3 $4 $5 $6 $7 $8 $9 X,Y pos of 4 corners*
0 Add a 4 corners polygon primitive as box body*
4,1,4,$2,$3,$4,$5,$6,$7,$8,$9,$2,$3,0*
0 Add four circle primitives for the rounded corners*
1,1,$1+$1,$2,$3*
1,1,$1+$1,$4,$5*
1,1,$1+$1,$6,$7*
1,1,$1+$1,$8,$9*
0 Add four rect primitives between the rounded corners*
20,1,$1+$1,$2,$3,$4,$5,0*
20,1,$1+$1,$4,$5,$6,$7,0*
20,1,$1+$1,$6,$7,$8,$9,0*
20,1,$1+$1,$8,$9,$2,$3,0*%
%AMRotRect*
0 Rectangle, with rotation*
0 The origin of the aperture is its center*
0 $1 length*
0 $2 width*
0 $3 Rotation angle, in degrees counterclockwise*
0 Add horizontal line*
21,1,$1,$2,0,0,$3*%
G04 Aperture macros list end*
%ADD10RoundRect,0.200000X-0.275000X0.200000X-0.275000X-0.200000X0.275000X-0.200000X0.275000X0.200000X0*%
%ADD11RoundRect,0.200000X-0.200000X-0.275000X0.200000X-0.275000X0.200000X0.275000X-0.200000X0.275000X0*%
%ADD12RoundRect,0.150000X0.725000X0.150000X-0.725000X0.150000X-0.725000X-0.150000X0.725000X-0.150000X0*%
%ADD13RoundRect,0.200000X0.200000X0.275000X-0.200000X0.275000X-0.200000X-0.275000X0.200000X-0.275000X0*%
%ADD14R,1.250000X1.200000*%
%ADD15R,1.400000X1.270000*%
%ADD16RoundRect,0.250000X-0.312500X-0.625000X0.312500X-0.625000X0.312500X0.625000X-0.312500X0.625000X0*%
%ADD17R,0.850000X0.300000*%
%ADD18R,1.350000X0.400000*%
%ADD19R,1.900000X2.900000*%
%ADD20RoundRect,0.200000X0.275000X-0.200000X0.275000X0.200000X-0.275000X0.200000X-0.275000X-0.200000X0*%
%ADD21RoundRect,0.150000X0.150000X-0.512500X0.150000X0.512500X-0.150000X0.512500X-0.150000X-0.512500X0*%
%ADD22RoundRect,0.150000X-0.587500X-0.150000X0.587500X-0.150000X0.587500X0.150000X-0.587500X0.150000X0*%
%ADD23RoundRect,0.147500X-0.147500X-0.172500X0.147500X-0.172500X0.147500X0.172500X-0.147500X0.172500X0*%
%ADD24RoundRect,0.175000X0.175000X-0.725000X0.175000X0.725000X-0.175000X0.725000X-0.175000X-0.725000X0*%
%ADD25RoundRect,0.200000X0.200000X-0.700000X0.200000X0.700000X-0.200000X0.700000X-0.200000X-0.700000X0*%
%ADD26R,0.250000X0.475000*%
%ADD27R,0.475000X0.250000*%
%ADD28RoundRect,0.250000X-0.250000X-0.250000X0.250000X-0.250000X0.250000X0.250000X-0.250000X0.250000X0*%
%ADD29RoundRect,0.250000X-0.625000X0.312500X-0.625000X-0.312500X0.625000X-0.312500X0.625000X0.312500X0*%
%ADD30RoundRect,0.140000X0.140000X0.170000X-0.140000X0.170000X-0.140000X-0.170000X0.140000X-0.170000X0*%
%ADD31R,1.500000X5.600000*%
%ADD32R,1.600000X4.900000*%
%ADD33R,1.879600X2.260600*%
%ADD34RoundRect,0.200000X0.053033X-0.335876X0.335876X-0.053033X-0.053033X0.335876X-0.335876X0.053033X0*%
%ADD35R,0.863600X0.558800*%
%ADD36RotRect,1.400000X1.200000X135.000000*%
%ADD37C,0.269000*%
%ADD38R,0.600000X2.200000*%
%ADD39R,3.450000X2.150000*%
%ADD40R,1.500000X0.550000*%
%ADD41R,0.550000X1.500000*%
%ADD42R,0.350000X0.375000*%
%ADD43R,0.375000X0.350000*%
%ADD44RoundRect,0.200000X0.335876X0.053033X0.053033X0.335876X-0.335876X-0.053033X-0.053033X-0.335876X0*%
%ADD45RoundRect,0.200000X-0.335876X-0.053033X-0.053033X-0.335876X0.335876X0.053033X0.053033X0.335876X0*%
%ADD46RoundRect,0.150000X-0.150000X0.512500X-0.150000X-0.512500X0.150000X-0.512500X0.150000X0.512500X0*%
%ADD47RoundRect,0.250000X0.625000X-0.312500X0.625000X0.312500X-0.625000X0.312500X-0.625000X-0.312500X0*%
%ADD48RoundRect,0.150000X-0.825000X-0.150000X0.825000X-0.150000X0.825000X0.150000X-0.825000X0.150000X0*%
%ADD49R,0.550000X0.950000*%
%ADD50R,4.900000X1.600000*%
G04 APERTURE END LIST*
D10*
X187800000Y-122675000D03*
X187800000Y-124325000D03*
D11*
X173350000Y-110325000D03*
X175000000Y-110325000D03*
D12*
X189612500Y-153355000D03*
X189612500Y-152085000D03*
X189612500Y-150815000D03*
X189612500Y-149545000D03*
X184462500Y-149545000D03*
X184462500Y-150815000D03*
X184462500Y-152085000D03*
X184462500Y-153355000D03*
D13*
X164175000Y-97125000D03*
X162525000Y-97125000D03*
D11*
X161950000Y-99950000D03*
X163600000Y-99950000D03*
D10*
X193712500Y-105262500D03*
X193712500Y-106912500D03*
D14*
X177275000Y-139622500D03*
X177275000Y-141312500D03*
X177275000Y-142972500D03*
X178975000Y-139622500D03*
X178975000Y-141312500D03*
X178975000Y-142972500D03*
X180675000Y-139622500D03*
X180675000Y-141312500D03*
X180675000Y-142972500D03*
D15*
X177935000Y-137507500D03*
X180015000Y-137507500D03*
D13*
X189725000Y-145012500D03*
X188075000Y-145012500D03*
D16*
X179312500Y-152850000D03*
X182237500Y-152850000D03*
D17*
X160500000Y-112225000D03*
X160500000Y-119225000D03*
D18*
X163175000Y-117025000D03*
X163175000Y-116375000D03*
X163175000Y-115725000D03*
X163175000Y-115075000D03*
X163175000Y-114425000D03*
D19*
X160500000Y-115725000D03*
D13*
X184575000Y-85875000D03*
X182925000Y-85875000D03*
D20*
X188712500Y-103812500D03*
X188712500Y-102162500D03*
D21*
X169875000Y-155771875D03*
X170825000Y-155771875D03*
X171775000Y-155771875D03*
X171775000Y-153496875D03*
X169875000Y-153496875D03*
D11*
X187377901Y-120625000D03*
X189027901Y-120625000D03*
D22*
X163600000Y-127900000D03*
X163600000Y-129800000D03*
X165475000Y-128850000D03*
D23*
X177039102Y-82920333D03*
X178009102Y-82920333D03*
D13*
X193600000Y-109437500D03*
X191950000Y-109437500D03*
D20*
X166850000Y-99100000D03*
X166850000Y-97450000D03*
D13*
X194275000Y-150250000D03*
X192625000Y-150250000D03*
D11*
X167750000Y-116125000D03*
X169400000Y-116125000D03*
D24*
X170308891Y-94541954D03*
D25*
X171408891Y-94541954D03*
X172508891Y-94541954D03*
X173608891Y-94541954D03*
X174708891Y-94541954D03*
X175808891Y-94541954D03*
X176908891Y-94541954D03*
X178008891Y-94541954D03*
D24*
X179108891Y-94541954D03*
X179108891Y-85041954D03*
D25*
X178008891Y-85041954D03*
X176908891Y-85041954D03*
X175808891Y-85041954D03*
X174708891Y-85041954D03*
X173608891Y-85041954D03*
X172508891Y-85041954D03*
X171408891Y-85041954D03*
D24*
X170308891Y-85041954D03*
D26*
X190462500Y-106012500D03*
X190962500Y-106012500D03*
X191462500Y-106012500D03*
X191962500Y-106012500D03*
D27*
X192125000Y-105350000D03*
X192125000Y-104850000D03*
X192125000Y-104350000D03*
D26*
X191962500Y-103687500D03*
X191462500Y-103687500D03*
X190962500Y-103687500D03*
X190462500Y-103687500D03*
D27*
X190300000Y-104350000D03*
X190300000Y-104850000D03*
X190300000Y-105350000D03*
D20*
X193712500Y-103787500D03*
X193712500Y-102137500D03*
D28*
X187525000Y-147312500D03*
X190025000Y-147312500D03*
D29*
X174675000Y-141750000D03*
X174675000Y-144675000D03*
D30*
X176308891Y-81521780D03*
X175348891Y-81521780D03*
D13*
X172425000Y-159546875D03*
X170775000Y-159546875D03*
D22*
X188675000Y-129050000D03*
X188675000Y-130950000D03*
X190550000Y-130000000D03*
D31*
X178008891Y-77791954D03*
D32*
X182268891Y-77441954D03*
X173748891Y-77441954D03*
D11*
X187402901Y-118975000D03*
X189052901Y-118975000D03*
D13*
X183250000Y-110225000D03*
X181600000Y-110225000D03*
X164550000Y-87300000D03*
X162900000Y-87300000D03*
D33*
X184884800Y-146350000D03*
X180465200Y-146350000D03*
D16*
X179312500Y-150150000D03*
X182237500Y-150150000D03*
D11*
X192625000Y-148650000D03*
X194275000Y-148650000D03*
D34*
X175658274Y-128766726D03*
X176825000Y-127600000D03*
D35*
X192905801Y-120324999D03*
X192905801Y-119325001D03*
X190950001Y-119325001D03*
X190950001Y-120324999D03*
D11*
X191975000Y-113987500D03*
X193625000Y-113987500D03*
D13*
X172425000Y-157796875D03*
X170775000Y-157796875D03*
D36*
X179862132Y-130293503D03*
X178306497Y-128737868D03*
X177104416Y-129939949D03*
X178660051Y-131495584D03*
D37*
X165200000Y-94850000D03*
X165200000Y-95250000D03*
X165200000Y-95650000D03*
X164800000Y-94850000D03*
X164800000Y-95250000D03*
X164800000Y-95650000D03*
X164400000Y-94850000D03*
X164400000Y-95250000D03*
X164400000Y-95650000D03*
D11*
X184200000Y-132650000D03*
X185850000Y-132650000D03*
D38*
X185565000Y-142512500D03*
X186835000Y-142512500D03*
X188105000Y-142512500D03*
X189375000Y-142512500D03*
X190645000Y-142512500D03*
D39*
X188105000Y-136212500D03*
D11*
X174092643Y-82915125D03*
X175742643Y-82915125D03*
D13*
X177125000Y-105600000D03*
X175475000Y-105600000D03*
D40*
X173000000Y-115025000D03*
X173000000Y-115825000D03*
X173000000Y-116625000D03*
X173000000Y-117425000D03*
X173000000Y-118225000D03*
X173000000Y-119025000D03*
X173000000Y-119825000D03*
X173000000Y-120625000D03*
X173000000Y-121425000D03*
X173000000Y-122225000D03*
X173000000Y-123025000D03*
D41*
X174700000Y-124725000D03*
X175500000Y-124725000D03*
X176300000Y-124725000D03*
X177100000Y-124725000D03*
X177900000Y-124725000D03*
X178700000Y-124725000D03*
X179500000Y-124725000D03*
X180300000Y-124725000D03*
X181100000Y-124725000D03*
X181900000Y-124725000D03*
X182700000Y-124725000D03*
D40*
X184400000Y-123025000D03*
X184400000Y-122225000D03*
X184400000Y-121425000D03*
X184400000Y-120625000D03*
X184400000Y-119825000D03*
X184400000Y-119025000D03*
X184400000Y-118225000D03*
X184400000Y-117425000D03*
X184400000Y-116625000D03*
X184400000Y-115825000D03*
X184400000Y-115025000D03*
D41*
X182700000Y-113325000D03*
X181900000Y-113325000D03*
X181100000Y-113325000D03*
X180300000Y-113325000D03*
X179500000Y-113325000D03*
X178700000Y-113325000D03*
X177900000Y-113325000D03*
X177100000Y-113325000D03*
X176300000Y-113325000D03*
X175500000Y-113325000D03*
X174700000Y-113325000D03*
D42*
X190425000Y-112487500D03*
X190925000Y-112487500D03*
X191425000Y-112487500D03*
X191925000Y-112487500D03*
D43*
X191937500Y-111975000D03*
X191937500Y-111475000D03*
D42*
X191925000Y-110962500D03*
X191425000Y-110962500D03*
X190925000Y-110962500D03*
X190425000Y-110962500D03*
D43*
X190412500Y-111475000D03*
X190412500Y-111975000D03*
D10*
X177098891Y-96841954D03*
X177098891Y-98491954D03*
D11*
X187402901Y-117325000D03*
X189052901Y-117325000D03*
X192625000Y-152050000D03*
X194275000Y-152050000D03*
D10*
X169275000Y-128050000D03*
X169275000Y-129700000D03*
D13*
X185875000Y-127550000D03*
X184225000Y-127550000D03*
X194275000Y-153650000D03*
X192625000Y-153650000D03*
D10*
X178798891Y-96866954D03*
X178798891Y-98516954D03*
D11*
X166125000Y-114525000D03*
X167775000Y-114525000D03*
D13*
X163000000Y-95250000D03*
X161350000Y-95250000D03*
D11*
X189425000Y-122650000D03*
X191075000Y-122650000D03*
D34*
X169116637Y-119591726D03*
X170283363Y-118425000D03*
D20*
X167475000Y-129700000D03*
X167475000Y-128050000D03*
D11*
X187400000Y-115625000D03*
X189050000Y-115625000D03*
D44*
X170583363Y-114208363D03*
X169416637Y-113041637D03*
D22*
X184000000Y-129150000D03*
X184000000Y-131050000D03*
X185875000Y-130100000D03*
D44*
X181116637Y-129150089D03*
X179949911Y-127983363D03*
D13*
X187775000Y-85875000D03*
X186125000Y-85875000D03*
D11*
X167287500Y-151150000D03*
X168937500Y-151150000D03*
D13*
X190575000Y-127450000D03*
X188925000Y-127450000D03*
D45*
X173066637Y-128316637D03*
X174233363Y-129483363D03*
D46*
X163750000Y-89150000D03*
X162800000Y-89150000D03*
X161850000Y-89150000D03*
X161850000Y-91425000D03*
X163750000Y-91425000D03*
D20*
X176700000Y-110675000D03*
X176700000Y-109025000D03*
D11*
X165475000Y-117725000D03*
X167125000Y-117725000D03*
D47*
X183075000Y-140612500D03*
X183075000Y-137687500D03*
D48*
X161900000Y-101870000D03*
X161900000Y-103140000D03*
X161900000Y-104410000D03*
X161900000Y-105680000D03*
X166850000Y-105680000D03*
X166850000Y-104410000D03*
X166850000Y-103140000D03*
X166850000Y-101870000D03*
D10*
X166850000Y-92400000D03*
X166850000Y-94050000D03*
D13*
X167125000Y-119550000D03*
X165475000Y-119550000D03*
D34*
X171283274Y-127941726D03*
X172450000Y-126775000D03*
D13*
X163550000Y-107525000D03*
X161900000Y-107525000D03*
D11*
X188862500Y-132550000D03*
X190512500Y-132550000D03*
D13*
X163750000Y-93425000D03*
X162100000Y-93425000D03*
D10*
X160700000Y-126700000D03*
X160700000Y-128350000D03*
X188925000Y-108787500D03*
X188925000Y-110437500D03*
X160675000Y-123425000D03*
X160675000Y-125075000D03*
D49*
X187075000Y-87750000D03*
X185825000Y-87750000D03*
X184575000Y-87750000D03*
X183325000Y-87750000D03*
X183325000Y-89900000D03*
X184575000Y-89900000D03*
X185825000Y-89900000D03*
X187075000Y-89900000D03*
D20*
X162385000Y-125075000D03*
X162385000Y-123425000D03*
D50*
X194650000Y-88055000D03*
X194650000Y-96575000D03*
M02*
