G04 #@! TF.GenerationSoftware,KiCad,Pcbnew,7.0.6*
G04 #@! TF.CreationDate,2023-10-28T16:57:55-05:00*
G04 #@! TF.ProjectId,FC,46432e6b-6963-4616-945f-706362585858,V1*
G04 #@! TF.SameCoordinates,Original*
G04 #@! TF.FileFunction,Legend,Top*
G04 #@! TF.FilePolarity,Positive*
%FSLAX46Y46*%
G04 Gerber Fmt 4.6, Leading zero omitted, Abs format (unit mm)*
G04 Created by KiCad (PCBNEW 7.0.6) date 2023-10-28 16:57:55*
%MOMM*%
%LPD*%
G01*
G04 APERTURE LIST*
G04 Aperture macros list*
%AMRoundRect*
0 Rectangle with rounded corners*
0 $1 Rounding radius*
0 $2 $3 $4 $5 $6 $7 $8 $9 X,Y pos of 4 corners*
0 Add a 4 corners polygon primitive as box body*
4,1,4,$2,$3,$4,$5,$6,$7,$8,$9,$2,$3,0*
0 Add four circle primitives for the rounded corners*
1,1,$1+$1,$2,$3*
1,1,$1+$1,$4,$5*
1,1,$1+$1,$6,$7*
1,1,$1+$1,$8,$9*
0 Add four rect primitives between the rounded corners*
20,1,$1+$1,$2,$3,$4,$5,0*
20,1,$1+$1,$4,$5,$6,$7,0*
20,1,$1+$1,$6,$7,$8,$9,0*
20,1,$1+$1,$8,$9,$2,$3,0*%
%AMRotRect*
0 Rectangle, with rotation*
0 The origin of the aperture is its center*
0 $1 length*
0 $2 width*
0 $3 Rotation angle, in degrees counterclockwise*
0 Add horizontal line*
21,1,$1,$2,0,0,$3*%
G04 Aperture macros list end*
%ADD10C,0.150000*%
%ADD11C,0.153000*%
%ADD12C,0.120000*%
%ADD13C,0.127000*%
%ADD14C,0.200000*%
%ADD15C,0.152400*%
%ADD16RoundRect,0.200000X-0.275000X0.200000X-0.275000X-0.200000X0.275000X-0.200000X0.275000X0.200000X0*%
%ADD17RoundRect,0.200000X-0.200000X-0.275000X0.200000X-0.275000X0.200000X0.275000X-0.200000X0.275000X0*%
%ADD18RoundRect,0.150000X0.725000X0.150000X-0.725000X0.150000X-0.725000X-0.150000X0.725000X-0.150000X0*%
%ADD19RoundRect,0.200000X0.200000X0.275000X-0.200000X0.275000X-0.200000X-0.275000X0.200000X-0.275000X0*%
%ADD20R,1.400000X1.270000*%
%ADD21R,4.800000X4.720000*%
%ADD22RoundRect,0.250000X-0.312500X-0.625000X0.312500X-0.625000X0.312500X0.625000X-0.312500X0.625000X0*%
%ADD23R,1.350000X0.400000*%
%ADD24O,1.900000X1.000000*%
%ADD25R,1.900000X0.875000*%
%ADD26O,1.250000X1.050000*%
%ADD27R,1.900000X2.900000*%
%ADD28RoundRect,0.200000X0.275000X-0.200000X0.275000X0.200000X-0.275000X0.200000X-0.275000X-0.200000X0*%
%ADD29RoundRect,0.150000X0.150000X-0.512500X0.150000X0.512500X-0.150000X0.512500X-0.150000X-0.512500X0*%
%ADD30RoundRect,0.150000X-0.587500X-0.150000X0.587500X-0.150000X0.587500X0.150000X-0.587500X0.150000X0*%
%ADD31R,2.100000X2.100000*%
%ADD32C,2.100000*%
%ADD33RoundRect,0.147500X-0.147500X-0.172500X0.147500X-0.172500X0.147500X0.172500X-0.147500X0.172500X0*%
%ADD34RoundRect,0.175000X0.175000X-0.725000X0.175000X0.725000X-0.175000X0.725000X-0.175000X-0.725000X0*%
%ADD35RoundRect,0.200000X0.200000X-0.700000X0.200000X0.700000X-0.200000X0.700000X-0.200000X-0.700000X0*%
%ADD36R,0.250000X0.475000*%
%ADD37R,0.475000X0.250000*%
%ADD38RoundRect,0.250000X-0.250000X-0.250000X0.250000X-0.250000X0.250000X0.250000X-0.250000X0.250000X0*%
%ADD39RoundRect,0.250000X-0.625000X0.312500X-0.625000X-0.312500X0.625000X-0.312500X0.625000X0.312500X0*%
%ADD40RoundRect,0.140000X0.140000X0.170000X-0.140000X0.170000X-0.140000X-0.170000X0.140000X-0.170000X0*%
%ADD41R,1.500000X5.600000*%
%ADD42R,1.600000X4.900000*%
%ADD43R,1.879600X2.260600*%
%ADD44C,3.600000*%
%ADD45C,5.600000*%
%ADD46RoundRect,0.200000X0.053033X-0.335876X0.335876X-0.053033X-0.053033X0.335876X-0.335876X0.053033X0*%
%ADD47R,0.863600X0.558800*%
%ADD48RotRect,1.400000X1.200000X135.000000*%
%ADD49C,0.269000*%
%ADD50R,0.600000X2.200000*%
%ADD51R,3.450000X2.150000*%
%ADD52R,1.500000X0.550000*%
%ADD53R,0.550000X1.500000*%
%ADD54R,0.350000X0.375000*%
%ADD55R,0.375000X0.350000*%
%ADD56RoundRect,0.200000X0.335876X0.053033X0.053033X0.335876X-0.335876X-0.053033X-0.053033X-0.335876X0*%
%ADD57RoundRect,0.200000X-0.335876X-0.053033X-0.053033X-0.335876X0.335876X0.053033X0.053033X0.335876X0*%
%ADD58C,0.990600*%
%ADD59C,0.787400*%
%ADD60RoundRect,0.150000X-0.150000X0.512500X-0.150000X-0.512500X0.150000X-0.512500X0.150000X0.512500X0*%
%ADD61RoundRect,0.250000X0.625000X-0.312500X0.625000X0.312500X-0.625000X0.312500X-0.625000X-0.312500X0*%
%ADD62RoundRect,0.150000X-0.825000X-0.150000X0.825000X-0.150000X0.825000X0.150000X-0.825000X0.150000X0*%
%ADD63C,1.400000*%
%ADD64R,3.500000X3.500000*%
%ADD65C,3.500000*%
%ADD66R,0.550000X0.950000*%
%ADD67R,4.900000X1.600000*%
G04 APERTURE END LIST*
D10*
X186559580Y-124692857D02*
X186607200Y-124740476D01*
X186607200Y-124740476D02*
X186654819Y-124883333D01*
X186654819Y-124883333D02*
X186654819Y-124978571D01*
X186654819Y-124978571D02*
X186607200Y-125121428D01*
X186607200Y-125121428D02*
X186511961Y-125216666D01*
X186511961Y-125216666D02*
X186416723Y-125264285D01*
X186416723Y-125264285D02*
X186226247Y-125311904D01*
X186226247Y-125311904D02*
X186083390Y-125311904D01*
X186083390Y-125311904D02*
X185892914Y-125264285D01*
X185892914Y-125264285D02*
X185797676Y-125216666D01*
X185797676Y-125216666D02*
X185702438Y-125121428D01*
X185702438Y-125121428D02*
X185654819Y-124978571D01*
X185654819Y-124978571D02*
X185654819Y-124883333D01*
X185654819Y-124883333D02*
X185702438Y-124740476D01*
X185702438Y-124740476D02*
X185750057Y-124692857D01*
X185750057Y-124311904D02*
X185702438Y-124264285D01*
X185702438Y-124264285D02*
X185654819Y-124169047D01*
X185654819Y-124169047D02*
X185654819Y-123930952D01*
X185654819Y-123930952D02*
X185702438Y-123835714D01*
X185702438Y-123835714D02*
X185750057Y-123788095D01*
X185750057Y-123788095D02*
X185845295Y-123740476D01*
X185845295Y-123740476D02*
X185940533Y-123740476D01*
X185940533Y-123740476D02*
X186083390Y-123788095D01*
X186083390Y-123788095D02*
X186654819Y-124359523D01*
X186654819Y-124359523D02*
X186654819Y-123740476D01*
X185654819Y-123407142D02*
X185654819Y-122788095D01*
X185654819Y-122788095D02*
X186035771Y-123121428D01*
X186035771Y-123121428D02*
X186035771Y-122978571D01*
X186035771Y-122978571D02*
X186083390Y-122883333D01*
X186083390Y-122883333D02*
X186131009Y-122835714D01*
X186131009Y-122835714D02*
X186226247Y-122788095D01*
X186226247Y-122788095D02*
X186464342Y-122788095D01*
X186464342Y-122788095D02*
X186559580Y-122835714D01*
X186559580Y-122835714D02*
X186607200Y-122883333D01*
X186607200Y-122883333D02*
X186654819Y-122978571D01*
X186654819Y-122978571D02*
X186654819Y-123264285D01*
X186654819Y-123264285D02*
X186607200Y-123359523D01*
X186607200Y-123359523D02*
X186559580Y-123407142D01*
X173532142Y-109254580D02*
X173484523Y-109302200D01*
X173484523Y-109302200D02*
X173341666Y-109349819D01*
X173341666Y-109349819D02*
X173246428Y-109349819D01*
X173246428Y-109349819D02*
X173103571Y-109302200D01*
X173103571Y-109302200D02*
X173008333Y-109206961D01*
X173008333Y-109206961D02*
X172960714Y-109111723D01*
X172960714Y-109111723D02*
X172913095Y-108921247D01*
X172913095Y-108921247D02*
X172913095Y-108778390D01*
X172913095Y-108778390D02*
X172960714Y-108587914D01*
X172960714Y-108587914D02*
X173008333Y-108492676D01*
X173008333Y-108492676D02*
X173103571Y-108397438D01*
X173103571Y-108397438D02*
X173246428Y-108349819D01*
X173246428Y-108349819D02*
X173341666Y-108349819D01*
X173341666Y-108349819D02*
X173484523Y-108397438D01*
X173484523Y-108397438D02*
X173532142Y-108445057D01*
X173913095Y-108445057D02*
X173960714Y-108397438D01*
X173960714Y-108397438D02*
X174055952Y-108349819D01*
X174055952Y-108349819D02*
X174294047Y-108349819D01*
X174294047Y-108349819D02*
X174389285Y-108397438D01*
X174389285Y-108397438D02*
X174436904Y-108445057D01*
X174436904Y-108445057D02*
X174484523Y-108540295D01*
X174484523Y-108540295D02*
X174484523Y-108635533D01*
X174484523Y-108635533D02*
X174436904Y-108778390D01*
X174436904Y-108778390D02*
X173865476Y-109349819D01*
X173865476Y-109349819D02*
X174484523Y-109349819D01*
X174817857Y-108349819D02*
X175484523Y-108349819D01*
X175484523Y-108349819D02*
X175055952Y-109349819D01*
X186275595Y-154304819D02*
X186275595Y-155114342D01*
X186275595Y-155114342D02*
X186323214Y-155209580D01*
X186323214Y-155209580D02*
X186370833Y-155257200D01*
X186370833Y-155257200D02*
X186466071Y-155304819D01*
X186466071Y-155304819D02*
X186656547Y-155304819D01*
X186656547Y-155304819D02*
X186751785Y-155257200D01*
X186751785Y-155257200D02*
X186799404Y-155209580D01*
X186799404Y-155209580D02*
X186847023Y-155114342D01*
X186847023Y-155114342D02*
X186847023Y-154304819D01*
X187227976Y-154304819D02*
X187847023Y-154304819D01*
X187847023Y-154304819D02*
X187513690Y-154685771D01*
X187513690Y-154685771D02*
X187656547Y-154685771D01*
X187656547Y-154685771D02*
X187751785Y-154733390D01*
X187751785Y-154733390D02*
X187799404Y-154781009D01*
X187799404Y-154781009D02*
X187847023Y-154876247D01*
X187847023Y-154876247D02*
X187847023Y-155114342D01*
X187847023Y-155114342D02*
X187799404Y-155209580D01*
X187799404Y-155209580D02*
X187751785Y-155257200D01*
X187751785Y-155257200D02*
X187656547Y-155304819D01*
X187656547Y-155304819D02*
X187370833Y-155304819D01*
X187370833Y-155304819D02*
X187275595Y-155257200D01*
X187275595Y-155257200D02*
X187227976Y-155209580D01*
X159904468Y-98042487D02*
X159849304Y-98081113D01*
X159849304Y-98081113D02*
X159700348Y-98103202D01*
X159700348Y-98103202D02*
X159606557Y-98086664D01*
X159606557Y-98086664D02*
X159474139Y-98014962D01*
X159474139Y-98014962D02*
X159396885Y-97904632D01*
X159396885Y-97904632D02*
X159366528Y-97802572D01*
X159366528Y-97802572D02*
X159352708Y-97606721D01*
X159352708Y-97606721D02*
X159377515Y-97466034D01*
X159377515Y-97466034D02*
X159457486Y-97286721D01*
X159457486Y-97286721D02*
X159520920Y-97201198D01*
X159520920Y-97201198D02*
X159631249Y-97123945D01*
X159631249Y-97123945D02*
X159780205Y-97101856D01*
X159780205Y-97101856D02*
X159873996Y-97118394D01*
X159873996Y-97118394D02*
X160006414Y-97190097D01*
X160006414Y-97190097D02*
X160045041Y-97245261D01*
X160825842Y-98301657D02*
X160263095Y-98202430D01*
X160544469Y-98252043D02*
X160718117Y-97267236D01*
X160718117Y-97267236D02*
X160599519Y-97391384D01*
X160599519Y-97391384D02*
X160489190Y-97468638D01*
X160489190Y-97468638D02*
X160387130Y-97498995D01*
X161785729Y-97793960D02*
X161669963Y-98450498D01*
X161617402Y-97377450D02*
X161258890Y-98039540D01*
X161258890Y-98039540D02*
X161868533Y-98147036D01*
X160536278Y-100512069D02*
X160009439Y-100757648D01*
X160437050Y-101074816D02*
X159452243Y-100901168D01*
X159452243Y-100901168D02*
X159518394Y-100526003D01*
X159518394Y-100526003D02*
X159581828Y-100440481D01*
X159581828Y-100440481D02*
X159636992Y-100401854D01*
X159636992Y-100401854D02*
X159739053Y-100371496D01*
X159739053Y-100371496D02*
X159879739Y-100396303D01*
X159879739Y-100396303D02*
X159965262Y-100459737D01*
X159965262Y-100459737D02*
X160003888Y-100514901D01*
X160003888Y-100514901D02*
X160034246Y-100616962D01*
X160034246Y-100616962D02*
X159968094Y-100992126D01*
X160701657Y-99574157D02*
X160602430Y-100136904D01*
X160652043Y-99855530D02*
X159667236Y-99681882D01*
X159667236Y-99681882D02*
X159791384Y-99800480D01*
X159791384Y-99800480D02*
X159868638Y-99910809D01*
X159868638Y-99910809D02*
X159898995Y-100012869D01*
X160238137Y-98912182D02*
X160174704Y-98997704D01*
X160174704Y-98997704D02*
X160119539Y-99036331D01*
X160119539Y-99036331D02*
X160017479Y-99066688D01*
X160017479Y-99066688D02*
X159970583Y-99058419D01*
X159970583Y-99058419D02*
X159885061Y-98994986D01*
X159885061Y-98994986D02*
X159846435Y-98939821D01*
X159846435Y-98939821D02*
X159816077Y-98837761D01*
X159816077Y-98837761D02*
X159849153Y-98650179D01*
X159849153Y-98650179D02*
X159912586Y-98564656D01*
X159912586Y-98564656D02*
X159967751Y-98526030D01*
X159967751Y-98526030D02*
X160069811Y-98495672D01*
X160069811Y-98495672D02*
X160116707Y-98503941D01*
X160116707Y-98503941D02*
X160202229Y-98567375D01*
X160202229Y-98567375D02*
X160240855Y-98622539D01*
X160240855Y-98622539D02*
X160271213Y-98724599D01*
X160271213Y-98724599D02*
X160238137Y-98912182D01*
X160238137Y-98912182D02*
X160268495Y-99014242D01*
X160268495Y-99014242D02*
X160307122Y-99069406D01*
X160307122Y-99069406D02*
X160392644Y-99132840D01*
X160392644Y-99132840D02*
X160580226Y-99165916D01*
X160580226Y-99165916D02*
X160682287Y-99135558D01*
X160682287Y-99135558D02*
X160737451Y-99096932D01*
X160737451Y-99096932D02*
X160800885Y-99011409D01*
X160800885Y-99011409D02*
X160833960Y-98823827D01*
X160833960Y-98823827D02*
X160803603Y-98721767D01*
X160803603Y-98721767D02*
X160764976Y-98666602D01*
X160764976Y-98666602D02*
X160679454Y-98603169D01*
X160679454Y-98603169D02*
X160491871Y-98570093D01*
X160491871Y-98570093D02*
X160389811Y-98600450D01*
X160389811Y-98600450D02*
X160334647Y-98639077D01*
X160334647Y-98639077D02*
X160271213Y-98724599D01*
X196159580Y-106730357D02*
X196207200Y-106777976D01*
X196207200Y-106777976D02*
X196254819Y-106920833D01*
X196254819Y-106920833D02*
X196254819Y-107016071D01*
X196254819Y-107016071D02*
X196207200Y-107158928D01*
X196207200Y-107158928D02*
X196111961Y-107254166D01*
X196111961Y-107254166D02*
X196016723Y-107301785D01*
X196016723Y-107301785D02*
X195826247Y-107349404D01*
X195826247Y-107349404D02*
X195683390Y-107349404D01*
X195683390Y-107349404D02*
X195492914Y-107301785D01*
X195492914Y-107301785D02*
X195397676Y-107254166D01*
X195397676Y-107254166D02*
X195302438Y-107158928D01*
X195302438Y-107158928D02*
X195254819Y-107016071D01*
X195254819Y-107016071D02*
X195254819Y-106920833D01*
X195254819Y-106920833D02*
X195302438Y-106777976D01*
X195302438Y-106777976D02*
X195350057Y-106730357D01*
X195350057Y-106349404D02*
X195302438Y-106301785D01*
X195302438Y-106301785D02*
X195254819Y-106206547D01*
X195254819Y-106206547D02*
X195254819Y-105968452D01*
X195254819Y-105968452D02*
X195302438Y-105873214D01*
X195302438Y-105873214D02*
X195350057Y-105825595D01*
X195350057Y-105825595D02*
X195445295Y-105777976D01*
X195445295Y-105777976D02*
X195540533Y-105777976D01*
X195540533Y-105777976D02*
X195683390Y-105825595D01*
X195683390Y-105825595D02*
X196254819Y-106397023D01*
X196254819Y-106397023D02*
X196254819Y-105777976D01*
X196254819Y-105301785D02*
X196254819Y-105111309D01*
X196254819Y-105111309D02*
X196207200Y-105016071D01*
X196207200Y-105016071D02*
X196159580Y-104968452D01*
X196159580Y-104968452D02*
X196016723Y-104873214D01*
X196016723Y-104873214D02*
X195826247Y-104825595D01*
X195826247Y-104825595D02*
X195445295Y-104825595D01*
X195445295Y-104825595D02*
X195350057Y-104873214D01*
X195350057Y-104873214D02*
X195302438Y-104920833D01*
X195302438Y-104920833D02*
X195254819Y-105016071D01*
X195254819Y-105016071D02*
X195254819Y-105206547D01*
X195254819Y-105206547D02*
X195302438Y-105301785D01*
X195302438Y-105301785D02*
X195350057Y-105349404D01*
X195350057Y-105349404D02*
X195445295Y-105397023D01*
X195445295Y-105397023D02*
X195683390Y-105397023D01*
X195683390Y-105397023D02*
X195778628Y-105349404D01*
X195778628Y-105349404D02*
X195826247Y-105301785D01*
X195826247Y-105301785D02*
X195873866Y-105206547D01*
X195873866Y-105206547D02*
X195873866Y-105016071D01*
X195873866Y-105016071D02*
X195826247Y-104920833D01*
X195826247Y-104920833D02*
X195778628Y-104873214D01*
X195778628Y-104873214D02*
X195683390Y-104825595D01*
X178236905Y-136227319D02*
X178236905Y-135227319D01*
X178236905Y-135227319D02*
X178475000Y-135227319D01*
X178475000Y-135227319D02*
X178617857Y-135274938D01*
X178617857Y-135274938D02*
X178713095Y-135370176D01*
X178713095Y-135370176D02*
X178760714Y-135465414D01*
X178760714Y-135465414D02*
X178808333Y-135655890D01*
X178808333Y-135655890D02*
X178808333Y-135798747D01*
X178808333Y-135798747D02*
X178760714Y-135989223D01*
X178760714Y-135989223D02*
X178713095Y-136084461D01*
X178713095Y-136084461D02*
X178617857Y-136179700D01*
X178617857Y-136179700D02*
X178475000Y-136227319D01*
X178475000Y-136227319D02*
X178236905Y-136227319D01*
X179379762Y-135655890D02*
X179284524Y-135608271D01*
X179284524Y-135608271D02*
X179236905Y-135560652D01*
X179236905Y-135560652D02*
X179189286Y-135465414D01*
X179189286Y-135465414D02*
X179189286Y-135417795D01*
X179189286Y-135417795D02*
X179236905Y-135322557D01*
X179236905Y-135322557D02*
X179284524Y-135274938D01*
X179284524Y-135274938D02*
X179379762Y-135227319D01*
X179379762Y-135227319D02*
X179570238Y-135227319D01*
X179570238Y-135227319D02*
X179665476Y-135274938D01*
X179665476Y-135274938D02*
X179713095Y-135322557D01*
X179713095Y-135322557D02*
X179760714Y-135417795D01*
X179760714Y-135417795D02*
X179760714Y-135465414D01*
X179760714Y-135465414D02*
X179713095Y-135560652D01*
X179713095Y-135560652D02*
X179665476Y-135608271D01*
X179665476Y-135608271D02*
X179570238Y-135655890D01*
X179570238Y-135655890D02*
X179379762Y-135655890D01*
X179379762Y-135655890D02*
X179284524Y-135703509D01*
X179284524Y-135703509D02*
X179236905Y-135751128D01*
X179236905Y-135751128D02*
X179189286Y-135846366D01*
X179189286Y-135846366D02*
X179189286Y-136036842D01*
X179189286Y-136036842D02*
X179236905Y-136132080D01*
X179236905Y-136132080D02*
X179284524Y-136179700D01*
X179284524Y-136179700D02*
X179379762Y-136227319D01*
X179379762Y-136227319D02*
X179570238Y-136227319D01*
X179570238Y-136227319D02*
X179665476Y-136179700D01*
X179665476Y-136179700D02*
X179713095Y-136132080D01*
X179713095Y-136132080D02*
X179760714Y-136036842D01*
X179760714Y-136036842D02*
X179760714Y-135846366D01*
X179760714Y-135846366D02*
X179713095Y-135751128D01*
X179713095Y-135751128D02*
X179665476Y-135703509D01*
X179665476Y-135703509D02*
X179570238Y-135655890D01*
X193133333Y-145309580D02*
X193085714Y-145357200D01*
X193085714Y-145357200D02*
X192942857Y-145404819D01*
X192942857Y-145404819D02*
X192847619Y-145404819D01*
X192847619Y-145404819D02*
X192704762Y-145357200D01*
X192704762Y-145357200D02*
X192609524Y-145261961D01*
X192609524Y-145261961D02*
X192561905Y-145166723D01*
X192561905Y-145166723D02*
X192514286Y-144976247D01*
X192514286Y-144976247D02*
X192514286Y-144833390D01*
X192514286Y-144833390D02*
X192561905Y-144642914D01*
X192561905Y-144642914D02*
X192609524Y-144547676D01*
X192609524Y-144547676D02*
X192704762Y-144452438D01*
X192704762Y-144452438D02*
X192847619Y-144404819D01*
X192847619Y-144404819D02*
X192942857Y-144404819D01*
X192942857Y-144404819D02*
X193085714Y-144452438D01*
X193085714Y-144452438D02*
X193133333Y-144500057D01*
X193514286Y-144500057D02*
X193561905Y-144452438D01*
X193561905Y-144452438D02*
X193657143Y-144404819D01*
X193657143Y-144404819D02*
X193895238Y-144404819D01*
X193895238Y-144404819D02*
X193990476Y-144452438D01*
X193990476Y-144452438D02*
X194038095Y-144500057D01*
X194038095Y-144500057D02*
X194085714Y-144595295D01*
X194085714Y-144595295D02*
X194085714Y-144690533D01*
X194085714Y-144690533D02*
X194038095Y-144833390D01*
X194038095Y-144833390D02*
X193466667Y-145404819D01*
X193466667Y-145404819D02*
X194085714Y-145404819D01*
X177166666Y-152781009D02*
X176833333Y-152781009D01*
X176833333Y-153304819D02*
X176833333Y-152304819D01*
X176833333Y-152304819D02*
X177309523Y-152304819D01*
X178214285Y-153304819D02*
X177642857Y-153304819D01*
X177928571Y-153304819D02*
X177928571Y-152304819D01*
X177928571Y-152304819D02*
X177833333Y-152447676D01*
X177833333Y-152447676D02*
X177738095Y-152542914D01*
X177738095Y-152542914D02*
X177642857Y-152590533D01*
X164366666Y-111204819D02*
X164366666Y-111919104D01*
X164366666Y-111919104D02*
X164319047Y-112061961D01*
X164319047Y-112061961D02*
X164223809Y-112157200D01*
X164223809Y-112157200D02*
X164080952Y-112204819D01*
X164080952Y-112204819D02*
X163985714Y-112204819D01*
X165271428Y-111204819D02*
X165080952Y-111204819D01*
X165080952Y-111204819D02*
X164985714Y-111252438D01*
X164985714Y-111252438D02*
X164938095Y-111300057D01*
X164938095Y-111300057D02*
X164842857Y-111442914D01*
X164842857Y-111442914D02*
X164795238Y-111633390D01*
X164795238Y-111633390D02*
X164795238Y-112014342D01*
X164795238Y-112014342D02*
X164842857Y-112109580D01*
X164842857Y-112109580D02*
X164890476Y-112157200D01*
X164890476Y-112157200D02*
X164985714Y-112204819D01*
X164985714Y-112204819D02*
X165176190Y-112204819D01*
X165176190Y-112204819D02*
X165271428Y-112157200D01*
X165271428Y-112157200D02*
X165319047Y-112109580D01*
X165319047Y-112109580D02*
X165366666Y-112014342D01*
X165366666Y-112014342D02*
X165366666Y-111776247D01*
X165366666Y-111776247D02*
X165319047Y-111681009D01*
X165319047Y-111681009D02*
X165271428Y-111633390D01*
X165271428Y-111633390D02*
X165176190Y-111585771D01*
X165176190Y-111585771D02*
X164985714Y-111585771D01*
X164985714Y-111585771D02*
X164890476Y-111633390D01*
X164890476Y-111633390D02*
X164842857Y-111681009D01*
X164842857Y-111681009D02*
X164795238Y-111776247D01*
X183107142Y-84304819D02*
X182773809Y-83828628D01*
X182535714Y-84304819D02*
X182535714Y-83304819D01*
X182535714Y-83304819D02*
X182916666Y-83304819D01*
X182916666Y-83304819D02*
X183011904Y-83352438D01*
X183011904Y-83352438D02*
X183059523Y-83400057D01*
X183059523Y-83400057D02*
X183107142Y-83495295D01*
X183107142Y-83495295D02*
X183107142Y-83638152D01*
X183107142Y-83638152D02*
X183059523Y-83733390D01*
X183059523Y-83733390D02*
X183011904Y-83781009D01*
X183011904Y-83781009D02*
X182916666Y-83828628D01*
X182916666Y-83828628D02*
X182535714Y-83828628D01*
X184059523Y-84304819D02*
X183488095Y-84304819D01*
X183773809Y-84304819D02*
X183773809Y-83304819D01*
X183773809Y-83304819D02*
X183678571Y-83447676D01*
X183678571Y-83447676D02*
X183583333Y-83542914D01*
X183583333Y-83542914D02*
X183488095Y-83590533D01*
X184964285Y-83304819D02*
X184488095Y-83304819D01*
X184488095Y-83304819D02*
X184440476Y-83781009D01*
X184440476Y-83781009D02*
X184488095Y-83733390D01*
X184488095Y-83733390D02*
X184583333Y-83685771D01*
X184583333Y-83685771D02*
X184821428Y-83685771D01*
X184821428Y-83685771D02*
X184916666Y-83733390D01*
X184916666Y-83733390D02*
X184964285Y-83781009D01*
X184964285Y-83781009D02*
X185011904Y-83876247D01*
X185011904Y-83876247D02*
X185011904Y-84114342D01*
X185011904Y-84114342D02*
X184964285Y-84209580D01*
X184964285Y-84209580D02*
X184916666Y-84257200D01*
X184916666Y-84257200D02*
X184821428Y-84304819D01*
X184821428Y-84304819D02*
X184583333Y-84304819D01*
X184583333Y-84304819D02*
X184488095Y-84257200D01*
X184488095Y-84257200D02*
X184440476Y-84209580D01*
X187737319Y-103630357D02*
X187261128Y-103963690D01*
X187737319Y-104201785D02*
X186737319Y-104201785D01*
X186737319Y-104201785D02*
X186737319Y-103820833D01*
X186737319Y-103820833D02*
X186784938Y-103725595D01*
X186784938Y-103725595D02*
X186832557Y-103677976D01*
X186832557Y-103677976D02*
X186927795Y-103630357D01*
X186927795Y-103630357D02*
X187070652Y-103630357D01*
X187070652Y-103630357D02*
X187165890Y-103677976D01*
X187165890Y-103677976D02*
X187213509Y-103725595D01*
X187213509Y-103725595D02*
X187261128Y-103820833D01*
X187261128Y-103820833D02*
X187261128Y-104201785D01*
X187737319Y-102677976D02*
X187737319Y-103249404D01*
X187737319Y-102963690D02*
X186737319Y-102963690D01*
X186737319Y-102963690D02*
X186880176Y-103058928D01*
X186880176Y-103058928D02*
X186975414Y-103154166D01*
X186975414Y-103154166D02*
X187023033Y-103249404D01*
X187070652Y-101820833D02*
X187737319Y-101820833D01*
X186689700Y-102058928D02*
X187403985Y-102297023D01*
X187403985Y-102297023D02*
X187403985Y-101677976D01*
X167879819Y-155396279D02*
X168689342Y-155396279D01*
X168689342Y-155396279D02*
X168784580Y-155348660D01*
X168784580Y-155348660D02*
X168832200Y-155301041D01*
X168832200Y-155301041D02*
X168879819Y-155205803D01*
X168879819Y-155205803D02*
X168879819Y-155015327D01*
X168879819Y-155015327D02*
X168832200Y-154920089D01*
X168832200Y-154920089D02*
X168784580Y-154872470D01*
X168784580Y-154872470D02*
X168689342Y-154824851D01*
X168689342Y-154824851D02*
X167879819Y-154824851D01*
X167975057Y-154396279D02*
X167927438Y-154348660D01*
X167927438Y-154348660D02*
X167879819Y-154253422D01*
X167879819Y-154253422D02*
X167879819Y-154015327D01*
X167879819Y-154015327D02*
X167927438Y-153920089D01*
X167927438Y-153920089D02*
X167975057Y-153872470D01*
X167975057Y-153872470D02*
X168070295Y-153824851D01*
X168070295Y-153824851D02*
X168165533Y-153824851D01*
X168165533Y-153824851D02*
X168308390Y-153872470D01*
X168308390Y-153872470D02*
X168879819Y-154443898D01*
X168879819Y-154443898D02*
X168879819Y-153824851D01*
X186554819Y-121392857D02*
X186078628Y-121726190D01*
X186554819Y-121964285D02*
X185554819Y-121964285D01*
X185554819Y-121964285D02*
X185554819Y-121583333D01*
X185554819Y-121583333D02*
X185602438Y-121488095D01*
X185602438Y-121488095D02*
X185650057Y-121440476D01*
X185650057Y-121440476D02*
X185745295Y-121392857D01*
X185745295Y-121392857D02*
X185888152Y-121392857D01*
X185888152Y-121392857D02*
X185983390Y-121440476D01*
X185983390Y-121440476D02*
X186031009Y-121488095D01*
X186031009Y-121488095D02*
X186078628Y-121583333D01*
X186078628Y-121583333D02*
X186078628Y-121964285D01*
X185650057Y-121011904D02*
X185602438Y-120964285D01*
X185602438Y-120964285D02*
X185554819Y-120869047D01*
X185554819Y-120869047D02*
X185554819Y-120630952D01*
X185554819Y-120630952D02*
X185602438Y-120535714D01*
X185602438Y-120535714D02*
X185650057Y-120488095D01*
X185650057Y-120488095D02*
X185745295Y-120440476D01*
X185745295Y-120440476D02*
X185840533Y-120440476D01*
X185840533Y-120440476D02*
X185983390Y-120488095D01*
X185983390Y-120488095D02*
X186554819Y-121059523D01*
X186554819Y-121059523D02*
X186554819Y-120440476D01*
X186554819Y-119488095D02*
X186554819Y-120059523D01*
X186554819Y-119773809D02*
X185554819Y-119773809D01*
X185554819Y-119773809D02*
X185697676Y-119869047D01*
X185697676Y-119869047D02*
X185792914Y-119964285D01*
X185792914Y-119964285D02*
X185840533Y-120059523D01*
X165054819Y-132388094D02*
X164054819Y-132388094D01*
X164054819Y-132388094D02*
X164054819Y-132149999D01*
X164054819Y-132149999D02*
X164102438Y-132007142D01*
X164102438Y-132007142D02*
X164197676Y-131911904D01*
X164197676Y-131911904D02*
X164292914Y-131864285D01*
X164292914Y-131864285D02*
X164483390Y-131816666D01*
X164483390Y-131816666D02*
X164626247Y-131816666D01*
X164626247Y-131816666D02*
X164816723Y-131864285D01*
X164816723Y-131864285D02*
X164911961Y-131911904D01*
X164911961Y-131911904D02*
X165007200Y-132007142D01*
X165007200Y-132007142D02*
X165054819Y-132149999D01*
X165054819Y-132149999D02*
X165054819Y-132388094D01*
X164054819Y-131483332D02*
X164054819Y-130864285D01*
X164054819Y-130864285D02*
X164435771Y-131197618D01*
X164435771Y-131197618D02*
X164435771Y-131054761D01*
X164435771Y-131054761D02*
X164483390Y-130959523D01*
X164483390Y-130959523D02*
X164531009Y-130911904D01*
X164531009Y-130911904D02*
X164626247Y-130864285D01*
X164626247Y-130864285D02*
X164864342Y-130864285D01*
X164864342Y-130864285D02*
X164959580Y-130911904D01*
X164959580Y-130911904D02*
X165007200Y-130959523D01*
X165007200Y-130959523D02*
X165054819Y-131054761D01*
X165054819Y-131054761D02*
X165054819Y-131340475D01*
X165054819Y-131340475D02*
X165007200Y-131435713D01*
X165007200Y-131435713D02*
X164959580Y-131483332D01*
X178931666Y-155534819D02*
X178931666Y-156249104D01*
X178931666Y-156249104D02*
X178884047Y-156391961D01*
X178884047Y-156391961D02*
X178788809Y-156487200D01*
X178788809Y-156487200D02*
X178645952Y-156534819D01*
X178645952Y-156534819D02*
X178550714Y-156534819D01*
X179312619Y-155534819D02*
X179931666Y-155534819D01*
X179931666Y-155534819D02*
X179598333Y-155915771D01*
X179598333Y-155915771D02*
X179741190Y-155915771D01*
X179741190Y-155915771D02*
X179836428Y-155963390D01*
X179836428Y-155963390D02*
X179884047Y-156011009D01*
X179884047Y-156011009D02*
X179931666Y-156106247D01*
X179931666Y-156106247D02*
X179931666Y-156344342D01*
X179931666Y-156344342D02*
X179884047Y-156439580D01*
X179884047Y-156439580D02*
X179836428Y-156487200D01*
X179836428Y-156487200D02*
X179741190Y-156534819D01*
X179741190Y-156534819D02*
X179455476Y-156534819D01*
X179455476Y-156534819D02*
X179360238Y-156487200D01*
X179360238Y-156487200D02*
X179312619Y-156439580D01*
X179433333Y-83404819D02*
X178957143Y-83404819D01*
X178957143Y-83404819D02*
X178957143Y-82404819D01*
X180290476Y-83404819D02*
X179719048Y-83404819D01*
X180004762Y-83404819D02*
X180004762Y-82404819D01*
X180004762Y-82404819D02*
X179909524Y-82547676D01*
X179909524Y-82547676D02*
X179814286Y-82642914D01*
X179814286Y-82642914D02*
X179719048Y-82690533D01*
X195233333Y-109809580D02*
X195185714Y-109857200D01*
X195185714Y-109857200D02*
X195042857Y-109904819D01*
X195042857Y-109904819D02*
X194947619Y-109904819D01*
X194947619Y-109904819D02*
X194804762Y-109857200D01*
X194804762Y-109857200D02*
X194709524Y-109761961D01*
X194709524Y-109761961D02*
X194661905Y-109666723D01*
X194661905Y-109666723D02*
X194614286Y-109476247D01*
X194614286Y-109476247D02*
X194614286Y-109333390D01*
X194614286Y-109333390D02*
X194661905Y-109142914D01*
X194661905Y-109142914D02*
X194709524Y-109047676D01*
X194709524Y-109047676D02*
X194804762Y-108952438D01*
X194804762Y-108952438D02*
X194947619Y-108904819D01*
X194947619Y-108904819D02*
X195042857Y-108904819D01*
X195042857Y-108904819D02*
X195185714Y-108952438D01*
X195185714Y-108952438D02*
X195233333Y-109000057D01*
X196090476Y-109238152D02*
X196090476Y-109904819D01*
X195852381Y-108857200D02*
X195614286Y-109571485D01*
X195614286Y-109571485D02*
X196233333Y-109571485D01*
X165874819Y-98917857D02*
X165398628Y-99251190D01*
X165874819Y-99489285D02*
X164874819Y-99489285D01*
X164874819Y-99489285D02*
X164874819Y-99108333D01*
X164874819Y-99108333D02*
X164922438Y-99013095D01*
X164922438Y-99013095D02*
X164970057Y-98965476D01*
X164970057Y-98965476D02*
X165065295Y-98917857D01*
X165065295Y-98917857D02*
X165208152Y-98917857D01*
X165208152Y-98917857D02*
X165303390Y-98965476D01*
X165303390Y-98965476D02*
X165351009Y-99013095D01*
X165351009Y-99013095D02*
X165398628Y-99108333D01*
X165398628Y-99108333D02*
X165398628Y-99489285D01*
X164970057Y-98536904D02*
X164922438Y-98489285D01*
X164922438Y-98489285D02*
X164874819Y-98394047D01*
X164874819Y-98394047D02*
X164874819Y-98155952D01*
X164874819Y-98155952D02*
X164922438Y-98060714D01*
X164922438Y-98060714D02*
X164970057Y-98013095D01*
X164970057Y-98013095D02*
X165065295Y-97965476D01*
X165065295Y-97965476D02*
X165160533Y-97965476D01*
X165160533Y-97965476D02*
X165303390Y-98013095D01*
X165303390Y-98013095D02*
X165874819Y-98584523D01*
X165874819Y-98584523D02*
X165874819Y-97965476D01*
X165303390Y-97394047D02*
X165255771Y-97489285D01*
X165255771Y-97489285D02*
X165208152Y-97536904D01*
X165208152Y-97536904D02*
X165112914Y-97584523D01*
X165112914Y-97584523D02*
X165065295Y-97584523D01*
X165065295Y-97584523D02*
X164970057Y-97536904D01*
X164970057Y-97536904D02*
X164922438Y-97489285D01*
X164922438Y-97489285D02*
X164874819Y-97394047D01*
X164874819Y-97394047D02*
X164874819Y-97203571D01*
X164874819Y-97203571D02*
X164922438Y-97108333D01*
X164922438Y-97108333D02*
X164970057Y-97060714D01*
X164970057Y-97060714D02*
X165065295Y-97013095D01*
X165065295Y-97013095D02*
X165112914Y-97013095D01*
X165112914Y-97013095D02*
X165208152Y-97060714D01*
X165208152Y-97060714D02*
X165255771Y-97108333D01*
X165255771Y-97108333D02*
X165303390Y-97203571D01*
X165303390Y-97203571D02*
X165303390Y-97394047D01*
X165303390Y-97394047D02*
X165351009Y-97489285D01*
X165351009Y-97489285D02*
X165398628Y-97536904D01*
X165398628Y-97536904D02*
X165493866Y-97584523D01*
X165493866Y-97584523D02*
X165684342Y-97584523D01*
X165684342Y-97584523D02*
X165779580Y-97536904D01*
X165779580Y-97536904D02*
X165827200Y-97489285D01*
X165827200Y-97489285D02*
X165874819Y-97394047D01*
X165874819Y-97394047D02*
X165874819Y-97203571D01*
X165874819Y-97203571D02*
X165827200Y-97108333D01*
X165827200Y-97108333D02*
X165779580Y-97060714D01*
X165779580Y-97060714D02*
X165684342Y-97013095D01*
X165684342Y-97013095D02*
X165493866Y-97013095D01*
X165493866Y-97013095D02*
X165398628Y-97060714D01*
X165398628Y-97060714D02*
X165351009Y-97108333D01*
X165351009Y-97108333D02*
X165303390Y-97203571D01*
X196254819Y-150492857D02*
X195778628Y-150826190D01*
X196254819Y-151064285D02*
X195254819Y-151064285D01*
X195254819Y-151064285D02*
X195254819Y-150683333D01*
X195254819Y-150683333D02*
X195302438Y-150588095D01*
X195302438Y-150588095D02*
X195350057Y-150540476D01*
X195350057Y-150540476D02*
X195445295Y-150492857D01*
X195445295Y-150492857D02*
X195588152Y-150492857D01*
X195588152Y-150492857D02*
X195683390Y-150540476D01*
X195683390Y-150540476D02*
X195731009Y-150588095D01*
X195731009Y-150588095D02*
X195778628Y-150683333D01*
X195778628Y-150683333D02*
X195778628Y-151064285D01*
X196254819Y-149540476D02*
X196254819Y-150111904D01*
X196254819Y-149826190D02*
X195254819Y-149826190D01*
X195254819Y-149826190D02*
X195397676Y-149921428D01*
X195397676Y-149921428D02*
X195492914Y-150016666D01*
X195492914Y-150016666D02*
X195540533Y-150111904D01*
X195350057Y-149159523D02*
X195302438Y-149111904D01*
X195302438Y-149111904D02*
X195254819Y-149016666D01*
X195254819Y-149016666D02*
X195254819Y-148778571D01*
X195254819Y-148778571D02*
X195302438Y-148683333D01*
X195302438Y-148683333D02*
X195350057Y-148635714D01*
X195350057Y-148635714D02*
X195445295Y-148588095D01*
X195445295Y-148588095D02*
X195540533Y-148588095D01*
X195540533Y-148588095D02*
X195683390Y-148635714D01*
X195683390Y-148635714D02*
X196254819Y-149207142D01*
X196254819Y-149207142D02*
X196254819Y-148588095D01*
X171304819Y-116992857D02*
X170828628Y-117326190D01*
X171304819Y-117564285D02*
X170304819Y-117564285D01*
X170304819Y-117564285D02*
X170304819Y-117183333D01*
X170304819Y-117183333D02*
X170352438Y-117088095D01*
X170352438Y-117088095D02*
X170400057Y-117040476D01*
X170400057Y-117040476D02*
X170495295Y-116992857D01*
X170495295Y-116992857D02*
X170638152Y-116992857D01*
X170638152Y-116992857D02*
X170733390Y-117040476D01*
X170733390Y-117040476D02*
X170781009Y-117088095D01*
X170781009Y-117088095D02*
X170828628Y-117183333D01*
X170828628Y-117183333D02*
X170828628Y-117564285D01*
X170400057Y-116611904D02*
X170352438Y-116564285D01*
X170352438Y-116564285D02*
X170304819Y-116469047D01*
X170304819Y-116469047D02*
X170304819Y-116230952D01*
X170304819Y-116230952D02*
X170352438Y-116135714D01*
X170352438Y-116135714D02*
X170400057Y-116088095D01*
X170400057Y-116088095D02*
X170495295Y-116040476D01*
X170495295Y-116040476D02*
X170590533Y-116040476D01*
X170590533Y-116040476D02*
X170733390Y-116088095D01*
X170733390Y-116088095D02*
X171304819Y-116659523D01*
X171304819Y-116659523D02*
X171304819Y-116040476D01*
X170304819Y-115707142D02*
X170304819Y-115088095D01*
X170304819Y-115088095D02*
X170685771Y-115421428D01*
X170685771Y-115421428D02*
X170685771Y-115278571D01*
X170685771Y-115278571D02*
X170733390Y-115183333D01*
X170733390Y-115183333D02*
X170781009Y-115135714D01*
X170781009Y-115135714D02*
X170876247Y-115088095D01*
X170876247Y-115088095D02*
X171114342Y-115088095D01*
X171114342Y-115088095D02*
X171209580Y-115135714D01*
X171209580Y-115135714D02*
X171257200Y-115183333D01*
X171257200Y-115183333D02*
X171304819Y-115278571D01*
X171304819Y-115278571D02*
X171304819Y-115564285D01*
X171304819Y-115564285D02*
X171257200Y-115659523D01*
X171257200Y-115659523D02*
X171209580Y-115707142D01*
X168163710Y-90553858D02*
X168973233Y-90553858D01*
X168973233Y-90553858D02*
X169068471Y-90506239D01*
X169068471Y-90506239D02*
X169116091Y-90458620D01*
X169116091Y-90458620D02*
X169163710Y-90363382D01*
X169163710Y-90363382D02*
X169163710Y-90172906D01*
X169163710Y-90172906D02*
X169116091Y-90077668D01*
X169116091Y-90077668D02*
X169068471Y-90030049D01*
X169068471Y-90030049D02*
X168973233Y-89982430D01*
X168973233Y-89982430D02*
X168163710Y-89982430D01*
X168592281Y-89363382D02*
X168544662Y-89458620D01*
X168544662Y-89458620D02*
X168497043Y-89506239D01*
X168497043Y-89506239D02*
X168401805Y-89553858D01*
X168401805Y-89553858D02*
X168354186Y-89553858D01*
X168354186Y-89553858D02*
X168258948Y-89506239D01*
X168258948Y-89506239D02*
X168211329Y-89458620D01*
X168211329Y-89458620D02*
X168163710Y-89363382D01*
X168163710Y-89363382D02*
X168163710Y-89172906D01*
X168163710Y-89172906D02*
X168211329Y-89077668D01*
X168211329Y-89077668D02*
X168258948Y-89030049D01*
X168258948Y-89030049D02*
X168354186Y-88982430D01*
X168354186Y-88982430D02*
X168401805Y-88982430D01*
X168401805Y-88982430D02*
X168497043Y-89030049D01*
X168497043Y-89030049D02*
X168544662Y-89077668D01*
X168544662Y-89077668D02*
X168592281Y-89172906D01*
X168592281Y-89172906D02*
X168592281Y-89363382D01*
X168592281Y-89363382D02*
X168639900Y-89458620D01*
X168639900Y-89458620D02*
X168687519Y-89506239D01*
X168687519Y-89506239D02*
X168782757Y-89553858D01*
X168782757Y-89553858D02*
X168973233Y-89553858D01*
X168973233Y-89553858D02*
X169068471Y-89506239D01*
X169068471Y-89506239D02*
X169116091Y-89458620D01*
X169116091Y-89458620D02*
X169163710Y-89363382D01*
X169163710Y-89363382D02*
X169163710Y-89172906D01*
X169163710Y-89172906D02*
X169116091Y-89077668D01*
X169116091Y-89077668D02*
X169068471Y-89030049D01*
X169068471Y-89030049D02*
X168973233Y-88982430D01*
X168973233Y-88982430D02*
X168782757Y-88982430D01*
X168782757Y-88982430D02*
X168687519Y-89030049D01*
X168687519Y-89030049D02*
X168639900Y-89077668D01*
X168639900Y-89077668D02*
X168592281Y-89172906D01*
D11*
X190438095Y-101904663D02*
X190438095Y-102714186D01*
X190438095Y-102714186D02*
X190485714Y-102809424D01*
X190485714Y-102809424D02*
X190533333Y-102857044D01*
X190533333Y-102857044D02*
X190628571Y-102904663D01*
X190628571Y-102904663D02*
X190819047Y-102904663D01*
X190819047Y-102904663D02*
X190914285Y-102857044D01*
X190914285Y-102857044D02*
X190961904Y-102809424D01*
X190961904Y-102809424D02*
X191009523Y-102714186D01*
X191009523Y-102714186D02*
X191009523Y-101904663D01*
X191961904Y-101904663D02*
X191485714Y-101904663D01*
X191485714Y-101904663D02*
X191438095Y-102380853D01*
X191438095Y-102380853D02*
X191485714Y-102333234D01*
X191485714Y-102333234D02*
X191580952Y-102285615D01*
X191580952Y-102285615D02*
X191819047Y-102285615D01*
X191819047Y-102285615D02*
X191914285Y-102333234D01*
X191914285Y-102333234D02*
X191961904Y-102380853D01*
X191961904Y-102380853D02*
X192009523Y-102476091D01*
X192009523Y-102476091D02*
X192009523Y-102714186D01*
X192009523Y-102714186D02*
X191961904Y-102809424D01*
X191961904Y-102809424D02*
X191914285Y-102857044D01*
X191914285Y-102857044D02*
X191819047Y-102904663D01*
X191819047Y-102904663D02*
X191580952Y-102904663D01*
X191580952Y-102904663D02*
X191485714Y-102857044D01*
X191485714Y-102857044D02*
X191438095Y-102809424D01*
D10*
X196159580Y-103592857D02*
X196207200Y-103640476D01*
X196207200Y-103640476D02*
X196254819Y-103783333D01*
X196254819Y-103783333D02*
X196254819Y-103878571D01*
X196254819Y-103878571D02*
X196207200Y-104021428D01*
X196207200Y-104021428D02*
X196111961Y-104116666D01*
X196111961Y-104116666D02*
X196016723Y-104164285D01*
X196016723Y-104164285D02*
X195826247Y-104211904D01*
X195826247Y-104211904D02*
X195683390Y-104211904D01*
X195683390Y-104211904D02*
X195492914Y-104164285D01*
X195492914Y-104164285D02*
X195397676Y-104116666D01*
X195397676Y-104116666D02*
X195302438Y-104021428D01*
X195302438Y-104021428D02*
X195254819Y-103878571D01*
X195254819Y-103878571D02*
X195254819Y-103783333D01*
X195254819Y-103783333D02*
X195302438Y-103640476D01*
X195302438Y-103640476D02*
X195350057Y-103592857D01*
X195350057Y-103211904D02*
X195302438Y-103164285D01*
X195302438Y-103164285D02*
X195254819Y-103069047D01*
X195254819Y-103069047D02*
X195254819Y-102830952D01*
X195254819Y-102830952D02*
X195302438Y-102735714D01*
X195302438Y-102735714D02*
X195350057Y-102688095D01*
X195350057Y-102688095D02*
X195445295Y-102640476D01*
X195445295Y-102640476D02*
X195540533Y-102640476D01*
X195540533Y-102640476D02*
X195683390Y-102688095D01*
X195683390Y-102688095D02*
X196254819Y-103259523D01*
X196254819Y-103259523D02*
X196254819Y-102640476D01*
X195683390Y-102069047D02*
X195635771Y-102164285D01*
X195635771Y-102164285D02*
X195588152Y-102211904D01*
X195588152Y-102211904D02*
X195492914Y-102259523D01*
X195492914Y-102259523D02*
X195445295Y-102259523D01*
X195445295Y-102259523D02*
X195350057Y-102211904D01*
X195350057Y-102211904D02*
X195302438Y-102164285D01*
X195302438Y-102164285D02*
X195254819Y-102069047D01*
X195254819Y-102069047D02*
X195254819Y-101878571D01*
X195254819Y-101878571D02*
X195302438Y-101783333D01*
X195302438Y-101783333D02*
X195350057Y-101735714D01*
X195350057Y-101735714D02*
X195445295Y-101688095D01*
X195445295Y-101688095D02*
X195492914Y-101688095D01*
X195492914Y-101688095D02*
X195588152Y-101735714D01*
X195588152Y-101735714D02*
X195635771Y-101783333D01*
X195635771Y-101783333D02*
X195683390Y-101878571D01*
X195683390Y-101878571D02*
X195683390Y-102069047D01*
X195683390Y-102069047D02*
X195731009Y-102164285D01*
X195731009Y-102164285D02*
X195778628Y-102211904D01*
X195778628Y-102211904D02*
X195873866Y-102259523D01*
X195873866Y-102259523D02*
X196064342Y-102259523D01*
X196064342Y-102259523D02*
X196159580Y-102211904D01*
X196159580Y-102211904D02*
X196207200Y-102164285D01*
X196207200Y-102164285D02*
X196254819Y-102069047D01*
X196254819Y-102069047D02*
X196254819Y-101878571D01*
X196254819Y-101878571D02*
X196207200Y-101783333D01*
X196207200Y-101783333D02*
X196159580Y-101735714D01*
X196159580Y-101735714D02*
X196064342Y-101688095D01*
X196064342Y-101688095D02*
X195873866Y-101688095D01*
X195873866Y-101688095D02*
X195778628Y-101735714D01*
X195778628Y-101735714D02*
X195731009Y-101783333D01*
X195731009Y-101783333D02*
X195683390Y-101878571D01*
X192004819Y-148038094D02*
X191004819Y-148038094D01*
X191004819Y-148038094D02*
X191004819Y-147799999D01*
X191004819Y-147799999D02*
X191052438Y-147657142D01*
X191052438Y-147657142D02*
X191147676Y-147561904D01*
X191147676Y-147561904D02*
X191242914Y-147514285D01*
X191242914Y-147514285D02*
X191433390Y-147466666D01*
X191433390Y-147466666D02*
X191576247Y-147466666D01*
X191576247Y-147466666D02*
X191766723Y-147514285D01*
X191766723Y-147514285D02*
X191861961Y-147561904D01*
X191861961Y-147561904D02*
X191957200Y-147657142D01*
X191957200Y-147657142D02*
X192004819Y-147799999D01*
X192004819Y-147799999D02*
X192004819Y-148038094D01*
X191004819Y-147133332D02*
X191004819Y-146466666D01*
X191004819Y-146466666D02*
X192004819Y-146895237D01*
X174581009Y-146983333D02*
X174581009Y-147316666D01*
X175104819Y-147316666D02*
X174104819Y-147316666D01*
X174104819Y-147316666D02*
X174104819Y-146840476D01*
X174200057Y-146507142D02*
X174152438Y-146459523D01*
X174152438Y-146459523D02*
X174104819Y-146364285D01*
X174104819Y-146364285D02*
X174104819Y-146126190D01*
X174104819Y-146126190D02*
X174152438Y-146030952D01*
X174152438Y-146030952D02*
X174200057Y-145983333D01*
X174200057Y-145983333D02*
X174295295Y-145935714D01*
X174295295Y-145935714D02*
X174390533Y-145935714D01*
X174390533Y-145935714D02*
X174533390Y-145983333D01*
X174533390Y-145983333D02*
X175104819Y-146554761D01*
X175104819Y-146554761D02*
X175104819Y-145935714D01*
X172057142Y-82009580D02*
X172009523Y-82057200D01*
X172009523Y-82057200D02*
X171866666Y-82104819D01*
X171866666Y-82104819D02*
X171771428Y-82104819D01*
X171771428Y-82104819D02*
X171628571Y-82057200D01*
X171628571Y-82057200D02*
X171533333Y-81961961D01*
X171533333Y-81961961D02*
X171485714Y-81866723D01*
X171485714Y-81866723D02*
X171438095Y-81676247D01*
X171438095Y-81676247D02*
X171438095Y-81533390D01*
X171438095Y-81533390D02*
X171485714Y-81342914D01*
X171485714Y-81342914D02*
X171533333Y-81247676D01*
X171533333Y-81247676D02*
X171628571Y-81152438D01*
X171628571Y-81152438D02*
X171771428Y-81104819D01*
X171771428Y-81104819D02*
X171866666Y-81104819D01*
X171866666Y-81104819D02*
X172009523Y-81152438D01*
X172009523Y-81152438D02*
X172057142Y-81200057D01*
X172438095Y-81200057D02*
X172485714Y-81152438D01*
X172485714Y-81152438D02*
X172580952Y-81104819D01*
X172580952Y-81104819D02*
X172819047Y-81104819D01*
X172819047Y-81104819D02*
X172914285Y-81152438D01*
X172914285Y-81152438D02*
X172961904Y-81200057D01*
X172961904Y-81200057D02*
X173009523Y-81295295D01*
X173009523Y-81295295D02*
X173009523Y-81390533D01*
X173009523Y-81390533D02*
X172961904Y-81533390D01*
X172961904Y-81533390D02*
X172390476Y-82104819D01*
X172390476Y-82104819D02*
X173009523Y-82104819D01*
X173914285Y-81104819D02*
X173438095Y-81104819D01*
X173438095Y-81104819D02*
X173390476Y-81581009D01*
X173390476Y-81581009D02*
X173438095Y-81533390D01*
X173438095Y-81533390D02*
X173533333Y-81485771D01*
X173533333Y-81485771D02*
X173771428Y-81485771D01*
X173771428Y-81485771D02*
X173866666Y-81533390D01*
X173866666Y-81533390D02*
X173914285Y-81581009D01*
X173914285Y-81581009D02*
X173961904Y-81676247D01*
X173961904Y-81676247D02*
X173961904Y-81914342D01*
X173961904Y-81914342D02*
X173914285Y-82009580D01*
X173914285Y-82009580D02*
X173866666Y-82057200D01*
X173866666Y-82057200D02*
X173771428Y-82104819D01*
X173771428Y-82104819D02*
X173533333Y-82104819D01*
X173533333Y-82104819D02*
X173438095Y-82057200D01*
X173438095Y-82057200D02*
X173390476Y-82009580D01*
X171433333Y-161509580D02*
X171385714Y-161557200D01*
X171385714Y-161557200D02*
X171242857Y-161604819D01*
X171242857Y-161604819D02*
X171147619Y-161604819D01*
X171147619Y-161604819D02*
X171004762Y-161557200D01*
X171004762Y-161557200D02*
X170909524Y-161461961D01*
X170909524Y-161461961D02*
X170861905Y-161366723D01*
X170861905Y-161366723D02*
X170814286Y-161176247D01*
X170814286Y-161176247D02*
X170814286Y-161033390D01*
X170814286Y-161033390D02*
X170861905Y-160842914D01*
X170861905Y-160842914D02*
X170909524Y-160747676D01*
X170909524Y-160747676D02*
X171004762Y-160652438D01*
X171004762Y-160652438D02*
X171147619Y-160604819D01*
X171147619Y-160604819D02*
X171242857Y-160604819D01*
X171242857Y-160604819D02*
X171385714Y-160652438D01*
X171385714Y-160652438D02*
X171433333Y-160700057D01*
X171766667Y-160604819D02*
X172385714Y-160604819D01*
X172385714Y-160604819D02*
X172052381Y-160985771D01*
X172052381Y-160985771D02*
X172195238Y-160985771D01*
X172195238Y-160985771D02*
X172290476Y-161033390D01*
X172290476Y-161033390D02*
X172338095Y-161081009D01*
X172338095Y-161081009D02*
X172385714Y-161176247D01*
X172385714Y-161176247D02*
X172385714Y-161414342D01*
X172385714Y-161414342D02*
X172338095Y-161509580D01*
X172338095Y-161509580D02*
X172290476Y-161557200D01*
X172290476Y-161557200D02*
X172195238Y-161604819D01*
X172195238Y-161604819D02*
X171909524Y-161604819D01*
X171909524Y-161604819D02*
X171814286Y-161557200D01*
X171814286Y-161557200D02*
X171766667Y-161509580D01*
X192704819Y-130738094D02*
X191704819Y-130738094D01*
X191704819Y-130738094D02*
X191704819Y-130499999D01*
X191704819Y-130499999D02*
X191752438Y-130357142D01*
X191752438Y-130357142D02*
X191847676Y-130261904D01*
X191847676Y-130261904D02*
X191942914Y-130214285D01*
X191942914Y-130214285D02*
X192133390Y-130166666D01*
X192133390Y-130166666D02*
X192276247Y-130166666D01*
X192276247Y-130166666D02*
X192466723Y-130214285D01*
X192466723Y-130214285D02*
X192561961Y-130261904D01*
X192561961Y-130261904D02*
X192657200Y-130357142D01*
X192657200Y-130357142D02*
X192704819Y-130499999D01*
X192704819Y-130499999D02*
X192704819Y-130738094D01*
X191704819Y-129261904D02*
X191704819Y-129738094D01*
X191704819Y-129738094D02*
X192181009Y-129785713D01*
X192181009Y-129785713D02*
X192133390Y-129738094D01*
X192133390Y-129738094D02*
X192085771Y-129642856D01*
X192085771Y-129642856D02*
X192085771Y-129404761D01*
X192085771Y-129404761D02*
X192133390Y-129309523D01*
X192133390Y-129309523D02*
X192181009Y-129261904D01*
X192181009Y-129261904D02*
X192276247Y-129214285D01*
X192276247Y-129214285D02*
X192514342Y-129214285D01*
X192514342Y-129214285D02*
X192609580Y-129261904D01*
X192609580Y-129261904D02*
X192657200Y-129309523D01*
X192657200Y-129309523D02*
X192704819Y-129404761D01*
X192704819Y-129404761D02*
X192704819Y-129642856D01*
X192704819Y-129642856D02*
X192657200Y-129738094D01*
X192657200Y-129738094D02*
X192609580Y-129785713D01*
X183966666Y-79804819D02*
X183966666Y-80519104D01*
X183966666Y-80519104D02*
X183919047Y-80661961D01*
X183919047Y-80661961D02*
X183823809Y-80757200D01*
X183823809Y-80757200D02*
X183680952Y-80804819D01*
X183680952Y-80804819D02*
X183585714Y-80804819D01*
X184919047Y-79804819D02*
X184442857Y-79804819D01*
X184442857Y-79804819D02*
X184395238Y-80281009D01*
X184395238Y-80281009D02*
X184442857Y-80233390D01*
X184442857Y-80233390D02*
X184538095Y-80185771D01*
X184538095Y-80185771D02*
X184776190Y-80185771D01*
X184776190Y-80185771D02*
X184871428Y-80233390D01*
X184871428Y-80233390D02*
X184919047Y-80281009D01*
X184919047Y-80281009D02*
X184966666Y-80376247D01*
X184966666Y-80376247D02*
X184966666Y-80614342D01*
X184966666Y-80614342D02*
X184919047Y-80709580D01*
X184919047Y-80709580D02*
X184871428Y-80757200D01*
X184871428Y-80757200D02*
X184776190Y-80804819D01*
X184776190Y-80804819D02*
X184538095Y-80804819D01*
X184538095Y-80804819D02*
X184442857Y-80757200D01*
X184442857Y-80757200D02*
X184395238Y-80709580D01*
X186554819Y-118592857D02*
X186078628Y-118926190D01*
X186554819Y-119164285D02*
X185554819Y-119164285D01*
X185554819Y-119164285D02*
X185554819Y-118783333D01*
X185554819Y-118783333D02*
X185602438Y-118688095D01*
X185602438Y-118688095D02*
X185650057Y-118640476D01*
X185650057Y-118640476D02*
X185745295Y-118592857D01*
X185745295Y-118592857D02*
X185888152Y-118592857D01*
X185888152Y-118592857D02*
X185983390Y-118640476D01*
X185983390Y-118640476D02*
X186031009Y-118688095D01*
X186031009Y-118688095D02*
X186078628Y-118783333D01*
X186078628Y-118783333D02*
X186078628Y-119164285D01*
X185650057Y-118211904D02*
X185602438Y-118164285D01*
X185602438Y-118164285D02*
X185554819Y-118069047D01*
X185554819Y-118069047D02*
X185554819Y-117830952D01*
X185554819Y-117830952D02*
X185602438Y-117735714D01*
X185602438Y-117735714D02*
X185650057Y-117688095D01*
X185650057Y-117688095D02*
X185745295Y-117640476D01*
X185745295Y-117640476D02*
X185840533Y-117640476D01*
X185840533Y-117640476D02*
X185983390Y-117688095D01*
X185983390Y-117688095D02*
X186554819Y-118259523D01*
X186554819Y-118259523D02*
X186554819Y-117640476D01*
X185554819Y-117021428D02*
X185554819Y-116926190D01*
X185554819Y-116926190D02*
X185602438Y-116830952D01*
X185602438Y-116830952D02*
X185650057Y-116783333D01*
X185650057Y-116783333D02*
X185745295Y-116735714D01*
X185745295Y-116735714D02*
X185935771Y-116688095D01*
X185935771Y-116688095D02*
X186173866Y-116688095D01*
X186173866Y-116688095D02*
X186364342Y-116735714D01*
X186364342Y-116735714D02*
X186459580Y-116783333D01*
X186459580Y-116783333D02*
X186507200Y-116830952D01*
X186507200Y-116830952D02*
X186554819Y-116926190D01*
X186554819Y-116926190D02*
X186554819Y-117021428D01*
X186554819Y-117021428D02*
X186507200Y-117116666D01*
X186507200Y-117116666D02*
X186459580Y-117164285D01*
X186459580Y-117164285D02*
X186364342Y-117211904D01*
X186364342Y-117211904D02*
X186173866Y-117259523D01*
X186173866Y-117259523D02*
X185935771Y-117259523D01*
X185935771Y-117259523D02*
X185745295Y-117211904D01*
X185745295Y-117211904D02*
X185650057Y-117164285D01*
X185650057Y-117164285D02*
X185602438Y-117116666D01*
X185602438Y-117116666D02*
X185554819Y-117021428D01*
X181782142Y-112014580D02*
X181734523Y-112062200D01*
X181734523Y-112062200D02*
X181591666Y-112109819D01*
X181591666Y-112109819D02*
X181496428Y-112109819D01*
X181496428Y-112109819D02*
X181353571Y-112062200D01*
X181353571Y-112062200D02*
X181258333Y-111966961D01*
X181258333Y-111966961D02*
X181210714Y-111871723D01*
X181210714Y-111871723D02*
X181163095Y-111681247D01*
X181163095Y-111681247D02*
X181163095Y-111538390D01*
X181163095Y-111538390D02*
X181210714Y-111347914D01*
X181210714Y-111347914D02*
X181258333Y-111252676D01*
X181258333Y-111252676D02*
X181353571Y-111157438D01*
X181353571Y-111157438D02*
X181496428Y-111109819D01*
X181496428Y-111109819D02*
X181591666Y-111109819D01*
X181591666Y-111109819D02*
X181734523Y-111157438D01*
X181734523Y-111157438D02*
X181782142Y-111205057D01*
X182163095Y-111205057D02*
X182210714Y-111157438D01*
X182210714Y-111157438D02*
X182305952Y-111109819D01*
X182305952Y-111109819D02*
X182544047Y-111109819D01*
X182544047Y-111109819D02*
X182639285Y-111157438D01*
X182639285Y-111157438D02*
X182686904Y-111205057D01*
X182686904Y-111205057D02*
X182734523Y-111300295D01*
X182734523Y-111300295D02*
X182734523Y-111395533D01*
X182734523Y-111395533D02*
X182686904Y-111538390D01*
X182686904Y-111538390D02*
X182115476Y-112109819D01*
X182115476Y-112109819D02*
X182734523Y-112109819D01*
X183686904Y-112109819D02*
X183115476Y-112109819D01*
X183401190Y-112109819D02*
X183401190Y-111109819D01*
X183401190Y-111109819D02*
X183305952Y-111252676D01*
X183305952Y-111252676D02*
X183210714Y-111347914D01*
X183210714Y-111347914D02*
X183115476Y-111395533D01*
X166057142Y-87709580D02*
X166009523Y-87757200D01*
X166009523Y-87757200D02*
X165866666Y-87804819D01*
X165866666Y-87804819D02*
X165771428Y-87804819D01*
X165771428Y-87804819D02*
X165628571Y-87757200D01*
X165628571Y-87757200D02*
X165533333Y-87661961D01*
X165533333Y-87661961D02*
X165485714Y-87566723D01*
X165485714Y-87566723D02*
X165438095Y-87376247D01*
X165438095Y-87376247D02*
X165438095Y-87233390D01*
X165438095Y-87233390D02*
X165485714Y-87042914D01*
X165485714Y-87042914D02*
X165533333Y-86947676D01*
X165533333Y-86947676D02*
X165628571Y-86852438D01*
X165628571Y-86852438D02*
X165771428Y-86804819D01*
X165771428Y-86804819D02*
X165866666Y-86804819D01*
X165866666Y-86804819D02*
X166009523Y-86852438D01*
X166009523Y-86852438D02*
X166057142Y-86900057D01*
X167009523Y-87804819D02*
X166438095Y-87804819D01*
X166723809Y-87804819D02*
X166723809Y-86804819D01*
X166723809Y-86804819D02*
X166628571Y-86947676D01*
X166628571Y-86947676D02*
X166533333Y-87042914D01*
X166533333Y-87042914D02*
X166438095Y-87090533D01*
X167628571Y-86804819D02*
X167723809Y-86804819D01*
X167723809Y-86804819D02*
X167819047Y-86852438D01*
X167819047Y-86852438D02*
X167866666Y-86900057D01*
X167866666Y-86900057D02*
X167914285Y-86995295D01*
X167914285Y-86995295D02*
X167961904Y-87185771D01*
X167961904Y-87185771D02*
X167961904Y-87423866D01*
X167961904Y-87423866D02*
X167914285Y-87614342D01*
X167914285Y-87614342D02*
X167866666Y-87709580D01*
X167866666Y-87709580D02*
X167819047Y-87757200D01*
X167819047Y-87757200D02*
X167723809Y-87804819D01*
X167723809Y-87804819D02*
X167628571Y-87804819D01*
X167628571Y-87804819D02*
X167533333Y-87757200D01*
X167533333Y-87757200D02*
X167485714Y-87709580D01*
X167485714Y-87709580D02*
X167438095Y-87614342D01*
X167438095Y-87614342D02*
X167390476Y-87423866D01*
X167390476Y-87423866D02*
X167390476Y-87185771D01*
X167390476Y-87185771D02*
X167438095Y-86995295D01*
X167438095Y-86995295D02*
X167485714Y-86900057D01*
X167485714Y-86900057D02*
X167533333Y-86852438D01*
X167533333Y-86852438D02*
X167628571Y-86804819D01*
X178904819Y-147038094D02*
X177904819Y-147038094D01*
X177904819Y-147038094D02*
X177904819Y-146799999D01*
X177904819Y-146799999D02*
X177952438Y-146657142D01*
X177952438Y-146657142D02*
X178047676Y-146561904D01*
X178047676Y-146561904D02*
X178142914Y-146514285D01*
X178142914Y-146514285D02*
X178333390Y-146466666D01*
X178333390Y-146466666D02*
X178476247Y-146466666D01*
X178476247Y-146466666D02*
X178666723Y-146514285D01*
X178666723Y-146514285D02*
X178761961Y-146561904D01*
X178761961Y-146561904D02*
X178857200Y-146657142D01*
X178857200Y-146657142D02*
X178904819Y-146799999D01*
X178904819Y-146799999D02*
X178904819Y-147038094D01*
X178904819Y-145514285D02*
X178904819Y-146085713D01*
X178904819Y-145799999D02*
X177904819Y-145799999D01*
X177904819Y-145799999D02*
X178047676Y-145895237D01*
X178047676Y-145895237D02*
X178142914Y-145990475D01*
X178142914Y-145990475D02*
X178190533Y-146085713D01*
X177066666Y-150031009D02*
X176733333Y-150031009D01*
X176733333Y-150554819D02*
X176733333Y-149554819D01*
X176733333Y-149554819D02*
X177209523Y-149554819D01*
X178066666Y-149554819D02*
X177590476Y-149554819D01*
X177590476Y-149554819D02*
X177542857Y-150031009D01*
X177542857Y-150031009D02*
X177590476Y-149983390D01*
X177590476Y-149983390D02*
X177685714Y-149935771D01*
X177685714Y-149935771D02*
X177923809Y-149935771D01*
X177923809Y-149935771D02*
X178019047Y-149983390D01*
X178019047Y-149983390D02*
X178066666Y-150031009D01*
X178066666Y-150031009D02*
X178114285Y-150126247D01*
X178114285Y-150126247D02*
X178114285Y-150364342D01*
X178114285Y-150364342D02*
X178066666Y-150459580D01*
X178066666Y-150459580D02*
X178019047Y-150507200D01*
X178019047Y-150507200D02*
X177923809Y-150554819D01*
X177923809Y-150554819D02*
X177685714Y-150554819D01*
X177685714Y-150554819D02*
X177590476Y-150507200D01*
X177590476Y-150507200D02*
X177542857Y-150459580D01*
X193357142Y-147704819D02*
X193023809Y-147228628D01*
X192785714Y-147704819D02*
X192785714Y-146704819D01*
X192785714Y-146704819D02*
X193166666Y-146704819D01*
X193166666Y-146704819D02*
X193261904Y-146752438D01*
X193261904Y-146752438D02*
X193309523Y-146800057D01*
X193309523Y-146800057D02*
X193357142Y-146895295D01*
X193357142Y-146895295D02*
X193357142Y-147038152D01*
X193357142Y-147038152D02*
X193309523Y-147133390D01*
X193309523Y-147133390D02*
X193261904Y-147181009D01*
X193261904Y-147181009D02*
X193166666Y-147228628D01*
X193166666Y-147228628D02*
X192785714Y-147228628D01*
X194309523Y-147704819D02*
X193738095Y-147704819D01*
X194023809Y-147704819D02*
X194023809Y-146704819D01*
X194023809Y-146704819D02*
X193928571Y-146847676D01*
X193928571Y-146847676D02*
X193833333Y-146942914D01*
X193833333Y-146942914D02*
X193738095Y-146990533D01*
X194928571Y-146704819D02*
X195023809Y-146704819D01*
X195023809Y-146704819D02*
X195119047Y-146752438D01*
X195119047Y-146752438D02*
X195166666Y-146800057D01*
X195166666Y-146800057D02*
X195214285Y-146895295D01*
X195214285Y-146895295D02*
X195261904Y-147085771D01*
X195261904Y-147085771D02*
X195261904Y-147323866D01*
X195261904Y-147323866D02*
X195214285Y-147514342D01*
X195214285Y-147514342D02*
X195166666Y-147609580D01*
X195166666Y-147609580D02*
X195119047Y-147657200D01*
X195119047Y-147657200D02*
X195023809Y-147704819D01*
X195023809Y-147704819D02*
X194928571Y-147704819D01*
X194928571Y-147704819D02*
X194833333Y-147657200D01*
X194833333Y-147657200D02*
X194785714Y-147609580D01*
X194785714Y-147609580D02*
X194738095Y-147514342D01*
X194738095Y-147514342D02*
X194690476Y-147323866D01*
X194690476Y-147323866D02*
X194690476Y-147085771D01*
X194690476Y-147085771D02*
X194738095Y-146895295D01*
X194738095Y-146895295D02*
X194785714Y-146800057D01*
X194785714Y-146800057D02*
X194833333Y-146752438D01*
X194833333Y-146752438D02*
X194928571Y-146704819D01*
X175030167Y-127881030D02*
X175030167Y-127948374D01*
X175030167Y-127948374D02*
X174962823Y-128083061D01*
X174962823Y-128083061D02*
X174895480Y-128150404D01*
X174895480Y-128150404D02*
X174760793Y-128217748D01*
X174760793Y-128217748D02*
X174626106Y-128217748D01*
X174626106Y-128217748D02*
X174525091Y-128184076D01*
X174525091Y-128184076D02*
X174356732Y-128083061D01*
X174356732Y-128083061D02*
X174255717Y-127982046D01*
X174255717Y-127982046D02*
X174154701Y-127813687D01*
X174154701Y-127813687D02*
X174121030Y-127712672D01*
X174121030Y-127712672D02*
X174121030Y-127577985D01*
X174121030Y-127577985D02*
X174188373Y-127443298D01*
X174188373Y-127443298D02*
X174255717Y-127375954D01*
X174255717Y-127375954D02*
X174390404Y-127308611D01*
X174390404Y-127308611D02*
X174457747Y-127308611D01*
X175770945Y-127274939D02*
X175366884Y-127679000D01*
X175568915Y-127476969D02*
X174861808Y-126769863D01*
X174861808Y-126769863D02*
X174895480Y-126938221D01*
X174895480Y-126938221D02*
X174895480Y-127072908D01*
X174895480Y-127072908D02*
X174861808Y-127173924D01*
X175299541Y-126332130D02*
X175770946Y-125860725D01*
X175770946Y-125860725D02*
X176175007Y-126870878D01*
X193961905Y-120304819D02*
X193961905Y-119304819D01*
X193961905Y-119304819D02*
X194200000Y-119304819D01*
X194200000Y-119304819D02*
X194342857Y-119352438D01*
X194342857Y-119352438D02*
X194438095Y-119447676D01*
X194438095Y-119447676D02*
X194485714Y-119542914D01*
X194485714Y-119542914D02*
X194533333Y-119733390D01*
X194533333Y-119733390D02*
X194533333Y-119876247D01*
X194533333Y-119876247D02*
X194485714Y-120066723D01*
X194485714Y-120066723D02*
X194438095Y-120161961D01*
X194438095Y-120161961D02*
X194342857Y-120257200D01*
X194342857Y-120257200D02*
X194200000Y-120304819D01*
X194200000Y-120304819D02*
X193961905Y-120304819D01*
X195390476Y-119304819D02*
X195200000Y-119304819D01*
X195200000Y-119304819D02*
X195104762Y-119352438D01*
X195104762Y-119352438D02*
X195057143Y-119400057D01*
X195057143Y-119400057D02*
X194961905Y-119542914D01*
X194961905Y-119542914D02*
X194914286Y-119733390D01*
X194914286Y-119733390D02*
X194914286Y-120114342D01*
X194914286Y-120114342D02*
X194961905Y-120209580D01*
X194961905Y-120209580D02*
X195009524Y-120257200D01*
X195009524Y-120257200D02*
X195104762Y-120304819D01*
X195104762Y-120304819D02*
X195295238Y-120304819D01*
X195295238Y-120304819D02*
X195390476Y-120257200D01*
X195390476Y-120257200D02*
X195438095Y-120209580D01*
X195438095Y-120209580D02*
X195485714Y-120114342D01*
X195485714Y-120114342D02*
X195485714Y-119876247D01*
X195485714Y-119876247D02*
X195438095Y-119781009D01*
X195438095Y-119781009D02*
X195390476Y-119733390D01*
X195390476Y-119733390D02*
X195295238Y-119685771D01*
X195295238Y-119685771D02*
X195104762Y-119685771D01*
X195104762Y-119685771D02*
X195009524Y-119733390D01*
X195009524Y-119733390D02*
X194961905Y-119781009D01*
X194961905Y-119781009D02*
X194914286Y-119876247D01*
X195133333Y-114309580D02*
X195085714Y-114357200D01*
X195085714Y-114357200D02*
X194942857Y-114404819D01*
X194942857Y-114404819D02*
X194847619Y-114404819D01*
X194847619Y-114404819D02*
X194704762Y-114357200D01*
X194704762Y-114357200D02*
X194609524Y-114261961D01*
X194609524Y-114261961D02*
X194561905Y-114166723D01*
X194561905Y-114166723D02*
X194514286Y-113976247D01*
X194514286Y-113976247D02*
X194514286Y-113833390D01*
X194514286Y-113833390D02*
X194561905Y-113642914D01*
X194561905Y-113642914D02*
X194609524Y-113547676D01*
X194609524Y-113547676D02*
X194704762Y-113452438D01*
X194704762Y-113452438D02*
X194847619Y-113404819D01*
X194847619Y-113404819D02*
X194942857Y-113404819D01*
X194942857Y-113404819D02*
X195085714Y-113452438D01*
X195085714Y-113452438D02*
X195133333Y-113500057D01*
X196038095Y-113404819D02*
X195561905Y-113404819D01*
X195561905Y-113404819D02*
X195514286Y-113881009D01*
X195514286Y-113881009D02*
X195561905Y-113833390D01*
X195561905Y-113833390D02*
X195657143Y-113785771D01*
X195657143Y-113785771D02*
X195895238Y-113785771D01*
X195895238Y-113785771D02*
X195990476Y-113833390D01*
X195990476Y-113833390D02*
X196038095Y-113881009D01*
X196038095Y-113881009D02*
X196085714Y-113976247D01*
X196085714Y-113976247D02*
X196085714Y-114214342D01*
X196085714Y-114214342D02*
X196038095Y-114309580D01*
X196038095Y-114309580D02*
X195990476Y-114357200D01*
X195990476Y-114357200D02*
X195895238Y-114404819D01*
X195895238Y-114404819D02*
X195657143Y-114404819D01*
X195657143Y-114404819D02*
X195561905Y-114357200D01*
X195561905Y-114357200D02*
X195514286Y-114309580D01*
X173603754Y-156989456D02*
X173031335Y-156888441D01*
X173199693Y-157393517D02*
X172492587Y-156686410D01*
X172492587Y-156686410D02*
X172761961Y-156417036D01*
X172761961Y-156417036D02*
X172862976Y-156383364D01*
X172862976Y-156383364D02*
X172930319Y-156383364D01*
X172930319Y-156383364D02*
X173031335Y-156417036D01*
X173031335Y-156417036D02*
X173132350Y-156518051D01*
X173132350Y-156518051D02*
X173166022Y-156619067D01*
X173166022Y-156619067D02*
X173166022Y-156686410D01*
X173166022Y-156686410D02*
X173132350Y-156787425D01*
X173132350Y-156787425D02*
X172862976Y-157056799D01*
X173738441Y-155911960D02*
X174209846Y-156383364D01*
X173300709Y-155810945D02*
X173637426Y-156484380D01*
X173637426Y-156484380D02*
X174075159Y-156046647D01*
X176429256Y-131497308D02*
X176092538Y-131834026D01*
X176563943Y-130891217D02*
X176429256Y-131497308D01*
X176429256Y-131497308D02*
X177035347Y-131362621D01*
X176934332Y-132675819D02*
X176530271Y-132271758D01*
X176732302Y-132473789D02*
X177439408Y-131766682D01*
X177439408Y-131766682D02*
X177271050Y-131800354D01*
X177271050Y-131800354D02*
X177136363Y-131800354D01*
X177136363Y-131800354D02*
X177035347Y-131766682D01*
D11*
X165861905Y-95554663D02*
X165861905Y-96364186D01*
X165861905Y-96364186D02*
X165909524Y-96459424D01*
X165909524Y-96459424D02*
X165957143Y-96507044D01*
X165957143Y-96507044D02*
X166052381Y-96554663D01*
X166052381Y-96554663D02*
X166242857Y-96554663D01*
X166242857Y-96554663D02*
X166338095Y-96507044D01*
X166338095Y-96507044D02*
X166385714Y-96459424D01*
X166385714Y-96459424D02*
X166433333Y-96364186D01*
X166433333Y-96364186D02*
X166433333Y-95554663D01*
X167433333Y-96554663D02*
X166861905Y-96554663D01*
X167147619Y-96554663D02*
X167147619Y-95554663D01*
X167147619Y-95554663D02*
X167052381Y-95697520D01*
X167052381Y-95697520D02*
X166957143Y-95792758D01*
X166957143Y-95792758D02*
X166861905Y-95840377D01*
X168052381Y-95554663D02*
X168147619Y-95554663D01*
X168147619Y-95554663D02*
X168242857Y-95602282D01*
X168242857Y-95602282D02*
X168290476Y-95649901D01*
X168290476Y-95649901D02*
X168338095Y-95745139D01*
X168338095Y-95745139D02*
X168385714Y-95935615D01*
X168385714Y-95935615D02*
X168385714Y-96173710D01*
X168385714Y-96173710D02*
X168338095Y-96364186D01*
X168338095Y-96364186D02*
X168290476Y-96459424D01*
X168290476Y-96459424D02*
X168242857Y-96507044D01*
X168242857Y-96507044D02*
X168147619Y-96554663D01*
X168147619Y-96554663D02*
X168052381Y-96554663D01*
X168052381Y-96554663D02*
X167957143Y-96507044D01*
X167957143Y-96507044D02*
X167909524Y-96459424D01*
X167909524Y-96459424D02*
X167861905Y-96364186D01*
X167861905Y-96364186D02*
X167814286Y-96173710D01*
X167814286Y-96173710D02*
X167814286Y-95935615D01*
X167814286Y-95935615D02*
X167861905Y-95745139D01*
X167861905Y-95745139D02*
X167909524Y-95649901D01*
X167909524Y-95649901D02*
X167957143Y-95602282D01*
X167957143Y-95602282D02*
X168052381Y-95554663D01*
D10*
X184858333Y-134754819D02*
X184525000Y-134278628D01*
X184286905Y-134754819D02*
X184286905Y-133754819D01*
X184286905Y-133754819D02*
X184667857Y-133754819D01*
X184667857Y-133754819D02*
X184763095Y-133802438D01*
X184763095Y-133802438D02*
X184810714Y-133850057D01*
X184810714Y-133850057D02*
X184858333Y-133945295D01*
X184858333Y-133945295D02*
X184858333Y-134088152D01*
X184858333Y-134088152D02*
X184810714Y-134183390D01*
X184810714Y-134183390D02*
X184763095Y-134231009D01*
X184763095Y-134231009D02*
X184667857Y-134278628D01*
X184667857Y-134278628D02*
X184286905Y-134278628D01*
X185763095Y-133754819D02*
X185286905Y-133754819D01*
X185286905Y-133754819D02*
X185239286Y-134231009D01*
X185239286Y-134231009D02*
X185286905Y-134183390D01*
X185286905Y-134183390D02*
X185382143Y-134135771D01*
X185382143Y-134135771D02*
X185620238Y-134135771D01*
X185620238Y-134135771D02*
X185715476Y-134183390D01*
X185715476Y-134183390D02*
X185763095Y-134231009D01*
X185763095Y-134231009D02*
X185810714Y-134326247D01*
X185810714Y-134326247D02*
X185810714Y-134564342D01*
X185810714Y-134564342D02*
X185763095Y-134659580D01*
X185763095Y-134659580D02*
X185715476Y-134707200D01*
X185715476Y-134707200D02*
X185620238Y-134754819D01*
X185620238Y-134754819D02*
X185382143Y-134754819D01*
X185382143Y-134754819D02*
X185286905Y-134707200D01*
X185286905Y-134707200D02*
X185239286Y-134659580D01*
X192138095Y-138867319D02*
X192138095Y-139676842D01*
X192138095Y-139676842D02*
X192185714Y-139772080D01*
X192185714Y-139772080D02*
X192233333Y-139819700D01*
X192233333Y-139819700D02*
X192328571Y-139867319D01*
X192328571Y-139867319D02*
X192519047Y-139867319D01*
X192519047Y-139867319D02*
X192614285Y-139819700D01*
X192614285Y-139819700D02*
X192661904Y-139772080D01*
X192661904Y-139772080D02*
X192709523Y-139676842D01*
X192709523Y-139676842D02*
X192709523Y-138867319D01*
X193709523Y-139867319D02*
X193138095Y-139867319D01*
X193423809Y-139867319D02*
X193423809Y-138867319D01*
X193423809Y-138867319D02*
X193328571Y-139010176D01*
X193328571Y-139010176D02*
X193233333Y-139105414D01*
X193233333Y-139105414D02*
X193138095Y-139153033D01*
X171257142Y-83404819D02*
X170923809Y-82928628D01*
X170685714Y-83404819D02*
X170685714Y-82404819D01*
X170685714Y-82404819D02*
X171066666Y-82404819D01*
X171066666Y-82404819D02*
X171161904Y-82452438D01*
X171161904Y-82452438D02*
X171209523Y-82500057D01*
X171209523Y-82500057D02*
X171257142Y-82595295D01*
X171257142Y-82595295D02*
X171257142Y-82738152D01*
X171257142Y-82738152D02*
X171209523Y-82833390D01*
X171209523Y-82833390D02*
X171161904Y-82881009D01*
X171161904Y-82881009D02*
X171066666Y-82928628D01*
X171066666Y-82928628D02*
X170685714Y-82928628D01*
X171590476Y-82404819D02*
X172209523Y-82404819D01*
X172209523Y-82404819D02*
X171876190Y-82785771D01*
X171876190Y-82785771D02*
X172019047Y-82785771D01*
X172019047Y-82785771D02*
X172114285Y-82833390D01*
X172114285Y-82833390D02*
X172161904Y-82881009D01*
X172161904Y-82881009D02*
X172209523Y-82976247D01*
X172209523Y-82976247D02*
X172209523Y-83214342D01*
X172209523Y-83214342D02*
X172161904Y-83309580D01*
X172161904Y-83309580D02*
X172114285Y-83357200D01*
X172114285Y-83357200D02*
X172019047Y-83404819D01*
X172019047Y-83404819D02*
X171733333Y-83404819D01*
X171733333Y-83404819D02*
X171638095Y-83357200D01*
X171638095Y-83357200D02*
X171590476Y-83309580D01*
X172828571Y-82404819D02*
X172923809Y-82404819D01*
X172923809Y-82404819D02*
X173019047Y-82452438D01*
X173019047Y-82452438D02*
X173066666Y-82500057D01*
X173066666Y-82500057D02*
X173114285Y-82595295D01*
X173114285Y-82595295D02*
X173161904Y-82785771D01*
X173161904Y-82785771D02*
X173161904Y-83023866D01*
X173161904Y-83023866D02*
X173114285Y-83214342D01*
X173114285Y-83214342D02*
X173066666Y-83309580D01*
X173066666Y-83309580D02*
X173019047Y-83357200D01*
X173019047Y-83357200D02*
X172923809Y-83404819D01*
X172923809Y-83404819D02*
X172828571Y-83404819D01*
X172828571Y-83404819D02*
X172733333Y-83357200D01*
X172733333Y-83357200D02*
X172685714Y-83309580D01*
X172685714Y-83309580D02*
X172638095Y-83214342D01*
X172638095Y-83214342D02*
X172590476Y-83023866D01*
X172590476Y-83023866D02*
X172590476Y-82785771D01*
X172590476Y-82785771D02*
X172638095Y-82595295D01*
X172638095Y-82595295D02*
X172685714Y-82500057D01*
X172685714Y-82500057D02*
X172733333Y-82452438D01*
X172733333Y-82452438D02*
X172828571Y-82404819D01*
X175657142Y-107484819D02*
X175323809Y-107008628D01*
X175085714Y-107484819D02*
X175085714Y-106484819D01*
X175085714Y-106484819D02*
X175466666Y-106484819D01*
X175466666Y-106484819D02*
X175561904Y-106532438D01*
X175561904Y-106532438D02*
X175609523Y-106580057D01*
X175609523Y-106580057D02*
X175657142Y-106675295D01*
X175657142Y-106675295D02*
X175657142Y-106818152D01*
X175657142Y-106818152D02*
X175609523Y-106913390D01*
X175609523Y-106913390D02*
X175561904Y-106961009D01*
X175561904Y-106961009D02*
X175466666Y-107008628D01*
X175466666Y-107008628D02*
X175085714Y-107008628D01*
X176609523Y-107484819D02*
X176038095Y-107484819D01*
X176323809Y-107484819D02*
X176323809Y-106484819D01*
X176323809Y-106484819D02*
X176228571Y-106627676D01*
X176228571Y-106627676D02*
X176133333Y-106722914D01*
X176133333Y-106722914D02*
X176038095Y-106770533D01*
X177466666Y-106484819D02*
X177276190Y-106484819D01*
X177276190Y-106484819D02*
X177180952Y-106532438D01*
X177180952Y-106532438D02*
X177133333Y-106580057D01*
X177133333Y-106580057D02*
X177038095Y-106722914D01*
X177038095Y-106722914D02*
X176990476Y-106913390D01*
X176990476Y-106913390D02*
X176990476Y-107294342D01*
X176990476Y-107294342D02*
X177038095Y-107389580D01*
X177038095Y-107389580D02*
X177085714Y-107437200D01*
X177085714Y-107437200D02*
X177180952Y-107484819D01*
X177180952Y-107484819D02*
X177371428Y-107484819D01*
X177371428Y-107484819D02*
X177466666Y-107437200D01*
X177466666Y-107437200D02*
X177514285Y-107389580D01*
X177514285Y-107389580D02*
X177561904Y-107294342D01*
X177561904Y-107294342D02*
X177561904Y-107056247D01*
X177561904Y-107056247D02*
X177514285Y-106961009D01*
X177514285Y-106961009D02*
X177466666Y-106913390D01*
X177466666Y-106913390D02*
X177371428Y-106865771D01*
X177371428Y-106865771D02*
X177180952Y-106865771D01*
X177180952Y-106865771D02*
X177085714Y-106913390D01*
X177085714Y-106913390D02*
X177038095Y-106961009D01*
X177038095Y-106961009D02*
X176990476Y-107056247D01*
X177461905Y-111029819D02*
X177461905Y-111839342D01*
X177461905Y-111839342D02*
X177509524Y-111934580D01*
X177509524Y-111934580D02*
X177557143Y-111982200D01*
X177557143Y-111982200D02*
X177652381Y-112029819D01*
X177652381Y-112029819D02*
X177842857Y-112029819D01*
X177842857Y-112029819D02*
X177938095Y-111982200D01*
X177938095Y-111982200D02*
X177985714Y-111934580D01*
X177985714Y-111934580D02*
X178033333Y-111839342D01*
X178033333Y-111839342D02*
X178033333Y-111029819D01*
X179033333Y-112029819D02*
X178461905Y-112029819D01*
X178747619Y-112029819D02*
X178747619Y-111029819D01*
X178747619Y-111029819D02*
X178652381Y-111172676D01*
X178652381Y-111172676D02*
X178557143Y-111267914D01*
X178557143Y-111267914D02*
X178461905Y-111315533D01*
X179414286Y-111125057D02*
X179461905Y-111077438D01*
X179461905Y-111077438D02*
X179557143Y-111029819D01*
X179557143Y-111029819D02*
X179795238Y-111029819D01*
X179795238Y-111029819D02*
X179890476Y-111077438D01*
X179890476Y-111077438D02*
X179938095Y-111125057D01*
X179938095Y-111125057D02*
X179985714Y-111220295D01*
X179985714Y-111220295D02*
X179985714Y-111315533D01*
X179985714Y-111315533D02*
X179938095Y-111458390D01*
X179938095Y-111458390D02*
X179366667Y-112029819D01*
X179366667Y-112029819D02*
X179985714Y-112029819D01*
X188138095Y-111704819D02*
X188138095Y-112514342D01*
X188138095Y-112514342D02*
X188185714Y-112609580D01*
X188185714Y-112609580D02*
X188233333Y-112657200D01*
X188233333Y-112657200D02*
X188328571Y-112704819D01*
X188328571Y-112704819D02*
X188519047Y-112704819D01*
X188519047Y-112704819D02*
X188614285Y-112657200D01*
X188614285Y-112657200D02*
X188661904Y-112609580D01*
X188661904Y-112609580D02*
X188709523Y-112514342D01*
X188709523Y-112514342D02*
X188709523Y-111704819D01*
X189614285Y-112038152D02*
X189614285Y-112704819D01*
X189376190Y-111657200D02*
X189138095Y-112371485D01*
X189138095Y-112371485D02*
X189757142Y-112371485D01*
X177459580Y-100516666D02*
X177507200Y-100564285D01*
X177507200Y-100564285D02*
X177554819Y-100707142D01*
X177554819Y-100707142D02*
X177554819Y-100802380D01*
X177554819Y-100802380D02*
X177507200Y-100945237D01*
X177507200Y-100945237D02*
X177411961Y-101040475D01*
X177411961Y-101040475D02*
X177316723Y-101088094D01*
X177316723Y-101088094D02*
X177126247Y-101135713D01*
X177126247Y-101135713D02*
X176983390Y-101135713D01*
X176983390Y-101135713D02*
X176792914Y-101088094D01*
X176792914Y-101088094D02*
X176697676Y-101040475D01*
X176697676Y-101040475D02*
X176602438Y-100945237D01*
X176602438Y-100945237D02*
X176554819Y-100802380D01*
X176554819Y-100802380D02*
X176554819Y-100707142D01*
X176554819Y-100707142D02*
X176602438Y-100564285D01*
X176602438Y-100564285D02*
X176650057Y-100516666D01*
X176983390Y-99945237D02*
X176935771Y-100040475D01*
X176935771Y-100040475D02*
X176888152Y-100088094D01*
X176888152Y-100088094D02*
X176792914Y-100135713D01*
X176792914Y-100135713D02*
X176745295Y-100135713D01*
X176745295Y-100135713D02*
X176650057Y-100088094D01*
X176650057Y-100088094D02*
X176602438Y-100040475D01*
X176602438Y-100040475D02*
X176554819Y-99945237D01*
X176554819Y-99945237D02*
X176554819Y-99754761D01*
X176554819Y-99754761D02*
X176602438Y-99659523D01*
X176602438Y-99659523D02*
X176650057Y-99611904D01*
X176650057Y-99611904D02*
X176745295Y-99564285D01*
X176745295Y-99564285D02*
X176792914Y-99564285D01*
X176792914Y-99564285D02*
X176888152Y-99611904D01*
X176888152Y-99611904D02*
X176935771Y-99659523D01*
X176935771Y-99659523D02*
X176983390Y-99754761D01*
X176983390Y-99754761D02*
X176983390Y-99945237D01*
X176983390Y-99945237D02*
X177031009Y-100040475D01*
X177031009Y-100040475D02*
X177078628Y-100088094D01*
X177078628Y-100088094D02*
X177173866Y-100135713D01*
X177173866Y-100135713D02*
X177364342Y-100135713D01*
X177364342Y-100135713D02*
X177459580Y-100088094D01*
X177459580Y-100088094D02*
X177507200Y-100040475D01*
X177507200Y-100040475D02*
X177554819Y-99945237D01*
X177554819Y-99945237D02*
X177554819Y-99754761D01*
X177554819Y-99754761D02*
X177507200Y-99659523D01*
X177507200Y-99659523D02*
X177459580Y-99611904D01*
X177459580Y-99611904D02*
X177364342Y-99564285D01*
X177364342Y-99564285D02*
X177173866Y-99564285D01*
X177173866Y-99564285D02*
X177078628Y-99611904D01*
X177078628Y-99611904D02*
X177031009Y-99659523D01*
X177031009Y-99659523D02*
X176983390Y-99754761D01*
X190557142Y-117804819D02*
X190223809Y-117328628D01*
X189985714Y-117804819D02*
X189985714Y-116804819D01*
X189985714Y-116804819D02*
X190366666Y-116804819D01*
X190366666Y-116804819D02*
X190461904Y-116852438D01*
X190461904Y-116852438D02*
X190509523Y-116900057D01*
X190509523Y-116900057D02*
X190557142Y-116995295D01*
X190557142Y-116995295D02*
X190557142Y-117138152D01*
X190557142Y-117138152D02*
X190509523Y-117233390D01*
X190509523Y-117233390D02*
X190461904Y-117281009D01*
X190461904Y-117281009D02*
X190366666Y-117328628D01*
X190366666Y-117328628D02*
X189985714Y-117328628D01*
X191509523Y-117804819D02*
X190938095Y-117804819D01*
X191223809Y-117804819D02*
X191223809Y-116804819D01*
X191223809Y-116804819D02*
X191128571Y-116947676D01*
X191128571Y-116947676D02*
X191033333Y-117042914D01*
X191033333Y-117042914D02*
X190938095Y-117090533D01*
X191985714Y-117804819D02*
X192176190Y-117804819D01*
X192176190Y-117804819D02*
X192271428Y-117757200D01*
X192271428Y-117757200D02*
X192319047Y-117709580D01*
X192319047Y-117709580D02*
X192414285Y-117566723D01*
X192414285Y-117566723D02*
X192461904Y-117376247D01*
X192461904Y-117376247D02*
X192461904Y-116995295D01*
X192461904Y-116995295D02*
X192414285Y-116900057D01*
X192414285Y-116900057D02*
X192366666Y-116852438D01*
X192366666Y-116852438D02*
X192271428Y-116804819D01*
X192271428Y-116804819D02*
X192080952Y-116804819D01*
X192080952Y-116804819D02*
X191985714Y-116852438D01*
X191985714Y-116852438D02*
X191938095Y-116900057D01*
X191938095Y-116900057D02*
X191890476Y-116995295D01*
X191890476Y-116995295D02*
X191890476Y-117233390D01*
X191890476Y-117233390D02*
X191938095Y-117328628D01*
X191938095Y-117328628D02*
X191985714Y-117376247D01*
X191985714Y-117376247D02*
X192080952Y-117423866D01*
X192080952Y-117423866D02*
X192271428Y-117423866D01*
X192271428Y-117423866D02*
X192366666Y-117376247D01*
X192366666Y-117376247D02*
X192414285Y-117328628D01*
X192414285Y-117328628D02*
X192461904Y-117233390D01*
X196254819Y-152716666D02*
X195778628Y-153049999D01*
X196254819Y-153288094D02*
X195254819Y-153288094D01*
X195254819Y-153288094D02*
X195254819Y-152907142D01*
X195254819Y-152907142D02*
X195302438Y-152811904D01*
X195302438Y-152811904D02*
X195350057Y-152764285D01*
X195350057Y-152764285D02*
X195445295Y-152716666D01*
X195445295Y-152716666D02*
X195588152Y-152716666D01*
X195588152Y-152716666D02*
X195683390Y-152764285D01*
X195683390Y-152764285D02*
X195731009Y-152811904D01*
X195731009Y-152811904D02*
X195778628Y-152907142D01*
X195778628Y-152907142D02*
X195778628Y-153288094D01*
X196254819Y-152240475D02*
X196254819Y-152049999D01*
X196254819Y-152049999D02*
X196207200Y-151954761D01*
X196207200Y-151954761D02*
X196159580Y-151907142D01*
X196159580Y-151907142D02*
X196016723Y-151811904D01*
X196016723Y-151811904D02*
X195826247Y-151764285D01*
X195826247Y-151764285D02*
X195445295Y-151764285D01*
X195445295Y-151764285D02*
X195350057Y-151811904D01*
X195350057Y-151811904D02*
X195302438Y-151859523D01*
X195302438Y-151859523D02*
X195254819Y-151954761D01*
X195254819Y-151954761D02*
X195254819Y-152145237D01*
X195254819Y-152145237D02*
X195302438Y-152240475D01*
X195302438Y-152240475D02*
X195350057Y-152288094D01*
X195350057Y-152288094D02*
X195445295Y-152335713D01*
X195445295Y-152335713D02*
X195683390Y-152335713D01*
X195683390Y-152335713D02*
X195778628Y-152288094D01*
X195778628Y-152288094D02*
X195826247Y-152240475D01*
X195826247Y-152240475D02*
X195873866Y-152145237D01*
X195873866Y-152145237D02*
X195873866Y-151954761D01*
X195873866Y-151954761D02*
X195826247Y-151859523D01*
X195826247Y-151859523D02*
X195778628Y-151811904D01*
X195778628Y-151811904D02*
X195683390Y-151764285D01*
X169754819Y-132366666D02*
X169278628Y-132699999D01*
X169754819Y-132938094D02*
X168754819Y-132938094D01*
X168754819Y-132938094D02*
X168754819Y-132557142D01*
X168754819Y-132557142D02*
X168802438Y-132461904D01*
X168802438Y-132461904D02*
X168850057Y-132414285D01*
X168850057Y-132414285D02*
X168945295Y-132366666D01*
X168945295Y-132366666D02*
X169088152Y-132366666D01*
X169088152Y-132366666D02*
X169183390Y-132414285D01*
X169183390Y-132414285D02*
X169231009Y-132461904D01*
X169231009Y-132461904D02*
X169278628Y-132557142D01*
X169278628Y-132557142D02*
X169278628Y-132938094D01*
X168850057Y-131985713D02*
X168802438Y-131938094D01*
X168802438Y-131938094D02*
X168754819Y-131842856D01*
X168754819Y-131842856D02*
X168754819Y-131604761D01*
X168754819Y-131604761D02*
X168802438Y-131509523D01*
X168802438Y-131509523D02*
X168850057Y-131461904D01*
X168850057Y-131461904D02*
X168945295Y-131414285D01*
X168945295Y-131414285D02*
X169040533Y-131414285D01*
X169040533Y-131414285D02*
X169183390Y-131461904D01*
X169183390Y-131461904D02*
X169754819Y-132033332D01*
X169754819Y-132033332D02*
X169754819Y-131414285D01*
X184933333Y-126454819D02*
X184600000Y-125978628D01*
X184361905Y-126454819D02*
X184361905Y-125454819D01*
X184361905Y-125454819D02*
X184742857Y-125454819D01*
X184742857Y-125454819D02*
X184838095Y-125502438D01*
X184838095Y-125502438D02*
X184885714Y-125550057D01*
X184885714Y-125550057D02*
X184933333Y-125645295D01*
X184933333Y-125645295D02*
X184933333Y-125788152D01*
X184933333Y-125788152D02*
X184885714Y-125883390D01*
X184885714Y-125883390D02*
X184838095Y-125931009D01*
X184838095Y-125931009D02*
X184742857Y-125978628D01*
X184742857Y-125978628D02*
X184361905Y-125978628D01*
X185266667Y-125454819D02*
X185933333Y-125454819D01*
X185933333Y-125454819D02*
X185504762Y-126454819D01*
X193957142Y-155604819D02*
X193623809Y-155128628D01*
X193385714Y-155604819D02*
X193385714Y-154604819D01*
X193385714Y-154604819D02*
X193766666Y-154604819D01*
X193766666Y-154604819D02*
X193861904Y-154652438D01*
X193861904Y-154652438D02*
X193909523Y-154700057D01*
X193909523Y-154700057D02*
X193957142Y-154795295D01*
X193957142Y-154795295D02*
X193957142Y-154938152D01*
X193957142Y-154938152D02*
X193909523Y-155033390D01*
X193909523Y-155033390D02*
X193861904Y-155081009D01*
X193861904Y-155081009D02*
X193766666Y-155128628D01*
X193766666Y-155128628D02*
X193385714Y-155128628D01*
X194909523Y-155604819D02*
X194338095Y-155604819D01*
X194623809Y-155604819D02*
X194623809Y-154604819D01*
X194623809Y-154604819D02*
X194528571Y-154747676D01*
X194528571Y-154747676D02*
X194433333Y-154842914D01*
X194433333Y-154842914D02*
X194338095Y-154890533D01*
X195861904Y-155604819D02*
X195290476Y-155604819D01*
X195576190Y-155604819D02*
X195576190Y-154604819D01*
X195576190Y-154604819D02*
X195480952Y-154747676D01*
X195480952Y-154747676D02*
X195385714Y-154842914D01*
X195385714Y-154842914D02*
X195290476Y-154890533D01*
X179159580Y-100516666D02*
X179207200Y-100564285D01*
X179207200Y-100564285D02*
X179254819Y-100707142D01*
X179254819Y-100707142D02*
X179254819Y-100802380D01*
X179254819Y-100802380D02*
X179207200Y-100945237D01*
X179207200Y-100945237D02*
X179111961Y-101040475D01*
X179111961Y-101040475D02*
X179016723Y-101088094D01*
X179016723Y-101088094D02*
X178826247Y-101135713D01*
X178826247Y-101135713D02*
X178683390Y-101135713D01*
X178683390Y-101135713D02*
X178492914Y-101088094D01*
X178492914Y-101088094D02*
X178397676Y-101040475D01*
X178397676Y-101040475D02*
X178302438Y-100945237D01*
X178302438Y-100945237D02*
X178254819Y-100802380D01*
X178254819Y-100802380D02*
X178254819Y-100707142D01*
X178254819Y-100707142D02*
X178302438Y-100564285D01*
X178302438Y-100564285D02*
X178350057Y-100516666D01*
X179254819Y-100040475D02*
X179254819Y-99849999D01*
X179254819Y-99849999D02*
X179207200Y-99754761D01*
X179207200Y-99754761D02*
X179159580Y-99707142D01*
X179159580Y-99707142D02*
X179016723Y-99611904D01*
X179016723Y-99611904D02*
X178826247Y-99564285D01*
X178826247Y-99564285D02*
X178445295Y-99564285D01*
X178445295Y-99564285D02*
X178350057Y-99611904D01*
X178350057Y-99611904D02*
X178302438Y-99659523D01*
X178302438Y-99659523D02*
X178254819Y-99754761D01*
X178254819Y-99754761D02*
X178254819Y-99945237D01*
X178254819Y-99945237D02*
X178302438Y-100040475D01*
X178302438Y-100040475D02*
X178350057Y-100088094D01*
X178350057Y-100088094D02*
X178445295Y-100135713D01*
X178445295Y-100135713D02*
X178683390Y-100135713D01*
X178683390Y-100135713D02*
X178778628Y-100088094D01*
X178778628Y-100088094D02*
X178826247Y-100040475D01*
X178826247Y-100040475D02*
X178873866Y-99945237D01*
X178873866Y-99945237D02*
X178873866Y-99754761D01*
X178873866Y-99754761D02*
X178826247Y-99659523D01*
X178826247Y-99659523D02*
X178778628Y-99611904D01*
X178778628Y-99611904D02*
X178683390Y-99564285D01*
X166357142Y-113254819D02*
X166023809Y-112778628D01*
X165785714Y-113254819D02*
X165785714Y-112254819D01*
X165785714Y-112254819D02*
X166166666Y-112254819D01*
X166166666Y-112254819D02*
X166261904Y-112302438D01*
X166261904Y-112302438D02*
X166309523Y-112350057D01*
X166309523Y-112350057D02*
X166357142Y-112445295D01*
X166357142Y-112445295D02*
X166357142Y-112588152D01*
X166357142Y-112588152D02*
X166309523Y-112683390D01*
X166309523Y-112683390D02*
X166261904Y-112731009D01*
X166261904Y-112731009D02*
X166166666Y-112778628D01*
X166166666Y-112778628D02*
X165785714Y-112778628D01*
X166738095Y-112350057D02*
X166785714Y-112302438D01*
X166785714Y-112302438D02*
X166880952Y-112254819D01*
X166880952Y-112254819D02*
X167119047Y-112254819D01*
X167119047Y-112254819D02*
X167214285Y-112302438D01*
X167214285Y-112302438D02*
X167261904Y-112350057D01*
X167261904Y-112350057D02*
X167309523Y-112445295D01*
X167309523Y-112445295D02*
X167309523Y-112540533D01*
X167309523Y-112540533D02*
X167261904Y-112683390D01*
X167261904Y-112683390D02*
X166690476Y-113254819D01*
X166690476Y-113254819D02*
X167309523Y-113254819D01*
X167690476Y-112350057D02*
X167738095Y-112302438D01*
X167738095Y-112302438D02*
X167833333Y-112254819D01*
X167833333Y-112254819D02*
X168071428Y-112254819D01*
X168071428Y-112254819D02*
X168166666Y-112302438D01*
X168166666Y-112302438D02*
X168214285Y-112350057D01*
X168214285Y-112350057D02*
X168261904Y-112445295D01*
X168261904Y-112445295D02*
X168261904Y-112540533D01*
X168261904Y-112540533D02*
X168214285Y-112683390D01*
X168214285Y-112683390D02*
X167642857Y-113254819D01*
X167642857Y-113254819D02*
X168261904Y-113254819D01*
D11*
X160302028Y-96171736D02*
X160345316Y-96223324D01*
X160345316Y-96223324D02*
X160380303Y-96369788D01*
X160380303Y-96369788D02*
X160372002Y-96464664D01*
X160372002Y-96464664D02*
X160312113Y-96602827D01*
X160312113Y-96602827D02*
X160208937Y-96689402D01*
X160208937Y-96689402D02*
X160109911Y-96728540D01*
X160109911Y-96728540D02*
X159916010Y-96759376D01*
X159916010Y-96759376D02*
X159773696Y-96746926D01*
X159773696Y-96746926D02*
X159588095Y-96682887D01*
X159588095Y-96682887D02*
X159497370Y-96627148D01*
X159497370Y-96627148D02*
X159410794Y-96523972D01*
X159410794Y-96523972D02*
X159375807Y-96377508D01*
X159375807Y-96377508D02*
X159384108Y-96282633D01*
X159384108Y-96282633D02*
X159443997Y-96144469D01*
X159443997Y-96144469D02*
X159495585Y-96101182D01*
X160479909Y-95231280D02*
X160430106Y-95800534D01*
X160455008Y-95515907D02*
X159458813Y-95428751D01*
X159458813Y-95428751D02*
X159592826Y-95536078D01*
X159592826Y-95536078D02*
X159679401Y-95639254D01*
X159679401Y-95639254D02*
X159718538Y-95738280D01*
X159611792Y-94772922D02*
X159568505Y-94721334D01*
X159568505Y-94721334D02*
X159529368Y-94622308D01*
X159529368Y-94622308D02*
X159550119Y-94385119D01*
X159550119Y-94385119D02*
X159605857Y-94294393D01*
X159605857Y-94294393D02*
X159657445Y-94251106D01*
X159657445Y-94251106D02*
X159756471Y-94211969D01*
X159756471Y-94211969D02*
X159851347Y-94220269D01*
X159851347Y-94220269D02*
X159989510Y-94280158D01*
X159989510Y-94280158D02*
X160508961Y-94899215D01*
X160508961Y-94899215D02*
X160562915Y-94282523D01*
D10*
X189566666Y-124081009D02*
X189233333Y-124081009D01*
X189233333Y-124604819D02*
X189233333Y-123604819D01*
X189233333Y-123604819D02*
X189709523Y-123604819D01*
X190423809Y-124081009D02*
X190566666Y-124128628D01*
X190566666Y-124128628D02*
X190614285Y-124176247D01*
X190614285Y-124176247D02*
X190661904Y-124271485D01*
X190661904Y-124271485D02*
X190661904Y-124414342D01*
X190661904Y-124414342D02*
X190614285Y-124509580D01*
X190614285Y-124509580D02*
X190566666Y-124557200D01*
X190566666Y-124557200D02*
X190471428Y-124604819D01*
X190471428Y-124604819D02*
X190090476Y-124604819D01*
X190090476Y-124604819D02*
X190090476Y-123604819D01*
X190090476Y-123604819D02*
X190423809Y-123604819D01*
X190423809Y-123604819D02*
X190519047Y-123652438D01*
X190519047Y-123652438D02*
X190566666Y-123700057D01*
X190566666Y-123700057D02*
X190614285Y-123795295D01*
X190614285Y-123795295D02*
X190614285Y-123890533D01*
X190614285Y-123890533D02*
X190566666Y-123985771D01*
X190566666Y-123985771D02*
X190519047Y-124033390D01*
X190519047Y-124033390D02*
X190423809Y-124081009D01*
X190423809Y-124081009D02*
X190090476Y-124081009D01*
X191614285Y-124604819D02*
X191042857Y-124604819D01*
X191328571Y-124604819D02*
X191328571Y-123604819D01*
X191328571Y-123604819D02*
X191233333Y-123747676D01*
X191233333Y-123747676D02*
X191138095Y-123842914D01*
X191138095Y-123842914D02*
X191042857Y-123890533D01*
X170549694Y-120758830D02*
X170549694Y-120826174D01*
X170549694Y-120826174D02*
X170482350Y-120960861D01*
X170482350Y-120960861D02*
X170415007Y-121028204D01*
X170415007Y-121028204D02*
X170280320Y-121095548D01*
X170280320Y-121095548D02*
X170145633Y-121095548D01*
X170145633Y-121095548D02*
X170044618Y-121061876D01*
X170044618Y-121061876D02*
X169876259Y-120960861D01*
X169876259Y-120960861D02*
X169775244Y-120859846D01*
X169775244Y-120859846D02*
X169674228Y-120691487D01*
X169674228Y-120691487D02*
X169640557Y-120590472D01*
X169640557Y-120590472D02*
X169640557Y-120455785D01*
X169640557Y-120455785D02*
X169707900Y-120321098D01*
X169707900Y-120321098D02*
X169775244Y-120253754D01*
X169775244Y-120253754D02*
X169909931Y-120186411D01*
X169909931Y-120186411D02*
X169977274Y-120186411D01*
X170246648Y-119917037D02*
X170246648Y-119849693D01*
X170246648Y-119849693D02*
X170280320Y-119748678D01*
X170280320Y-119748678D02*
X170448679Y-119580319D01*
X170448679Y-119580319D02*
X170549694Y-119546647D01*
X170549694Y-119546647D02*
X170617037Y-119546647D01*
X170617037Y-119546647D02*
X170718053Y-119580319D01*
X170718053Y-119580319D02*
X170785396Y-119647663D01*
X170785396Y-119647663D02*
X170852740Y-119782350D01*
X170852740Y-119782350D02*
X170852740Y-120590472D01*
X170852740Y-120590472D02*
X171290472Y-120152739D01*
X171021099Y-119007899D02*
X171088442Y-118940556D01*
X171088442Y-118940556D02*
X171189457Y-118906884D01*
X171189457Y-118906884D02*
X171256801Y-118906884D01*
X171256801Y-118906884D02*
X171357816Y-118940556D01*
X171357816Y-118940556D02*
X171526175Y-119041571D01*
X171526175Y-119041571D02*
X171694534Y-119209930D01*
X171694534Y-119209930D02*
X171795549Y-119378288D01*
X171795549Y-119378288D02*
X171829221Y-119479304D01*
X171829221Y-119479304D02*
X171829221Y-119546647D01*
X171829221Y-119546647D02*
X171795549Y-119647662D01*
X171795549Y-119647662D02*
X171728205Y-119715006D01*
X171728205Y-119715006D02*
X171627190Y-119748678D01*
X171627190Y-119748678D02*
X171559847Y-119748678D01*
X171559847Y-119748678D02*
X171458831Y-119715006D01*
X171458831Y-119715006D02*
X171290473Y-119613991D01*
X171290473Y-119613991D02*
X171122114Y-119445632D01*
X171122114Y-119445632D02*
X171021099Y-119277273D01*
X171021099Y-119277273D02*
X170987427Y-119176258D01*
X170987427Y-119176258D02*
X170987427Y-119108914D01*
X170987427Y-119108914D02*
X171021099Y-119007899D01*
X168004819Y-132266666D02*
X167528628Y-132599999D01*
X168004819Y-132838094D02*
X167004819Y-132838094D01*
X167004819Y-132838094D02*
X167004819Y-132457142D01*
X167004819Y-132457142D02*
X167052438Y-132361904D01*
X167052438Y-132361904D02*
X167100057Y-132314285D01*
X167100057Y-132314285D02*
X167195295Y-132266666D01*
X167195295Y-132266666D02*
X167338152Y-132266666D01*
X167338152Y-132266666D02*
X167433390Y-132314285D01*
X167433390Y-132314285D02*
X167481009Y-132361904D01*
X167481009Y-132361904D02*
X167528628Y-132457142D01*
X167528628Y-132457142D02*
X167528628Y-132838094D01*
X168004819Y-131314285D02*
X168004819Y-131885713D01*
X168004819Y-131599999D02*
X167004819Y-131599999D01*
X167004819Y-131599999D02*
X167147676Y-131695237D01*
X167147676Y-131695237D02*
X167242914Y-131790475D01*
X167242914Y-131790475D02*
X167290533Y-131885713D01*
X187582142Y-114649819D02*
X187248809Y-114173628D01*
X187010714Y-114649819D02*
X187010714Y-113649819D01*
X187010714Y-113649819D02*
X187391666Y-113649819D01*
X187391666Y-113649819D02*
X187486904Y-113697438D01*
X187486904Y-113697438D02*
X187534523Y-113745057D01*
X187534523Y-113745057D02*
X187582142Y-113840295D01*
X187582142Y-113840295D02*
X187582142Y-113983152D01*
X187582142Y-113983152D02*
X187534523Y-114078390D01*
X187534523Y-114078390D02*
X187486904Y-114126009D01*
X187486904Y-114126009D02*
X187391666Y-114173628D01*
X187391666Y-114173628D02*
X187010714Y-114173628D01*
X187963095Y-113745057D02*
X188010714Y-113697438D01*
X188010714Y-113697438D02*
X188105952Y-113649819D01*
X188105952Y-113649819D02*
X188344047Y-113649819D01*
X188344047Y-113649819D02*
X188439285Y-113697438D01*
X188439285Y-113697438D02*
X188486904Y-113745057D01*
X188486904Y-113745057D02*
X188534523Y-113840295D01*
X188534523Y-113840295D02*
X188534523Y-113935533D01*
X188534523Y-113935533D02*
X188486904Y-114078390D01*
X188486904Y-114078390D02*
X187915476Y-114649819D01*
X187915476Y-114649819D02*
X188534523Y-114649819D01*
X189439285Y-113649819D02*
X188963095Y-113649819D01*
X188963095Y-113649819D02*
X188915476Y-114126009D01*
X188915476Y-114126009D02*
X188963095Y-114078390D01*
X188963095Y-114078390D02*
X189058333Y-114030771D01*
X189058333Y-114030771D02*
X189296428Y-114030771D01*
X189296428Y-114030771D02*
X189391666Y-114078390D01*
X189391666Y-114078390D02*
X189439285Y-114126009D01*
X189439285Y-114126009D02*
X189486904Y-114221247D01*
X189486904Y-114221247D02*
X189486904Y-114459342D01*
X189486904Y-114459342D02*
X189439285Y-114554580D01*
X189439285Y-114554580D02*
X189391666Y-114602200D01*
X189391666Y-114602200D02*
X189296428Y-114649819D01*
X189296428Y-114649819D02*
X189058333Y-114649819D01*
X189058333Y-114649819D02*
X188963095Y-114602200D01*
X188963095Y-114602200D02*
X188915476Y-114554580D01*
X165804819Y-149533333D02*
X166519104Y-149533333D01*
X166519104Y-149533333D02*
X166661961Y-149580952D01*
X166661961Y-149580952D02*
X166757200Y-149676190D01*
X166757200Y-149676190D02*
X166804819Y-149819047D01*
X166804819Y-149819047D02*
X166804819Y-149914285D01*
X165900057Y-149104761D02*
X165852438Y-149057142D01*
X165852438Y-149057142D02*
X165804819Y-148961904D01*
X165804819Y-148961904D02*
X165804819Y-148723809D01*
X165804819Y-148723809D02*
X165852438Y-148628571D01*
X165852438Y-148628571D02*
X165900057Y-148580952D01*
X165900057Y-148580952D02*
X165995295Y-148533333D01*
X165995295Y-148533333D02*
X166090533Y-148533333D01*
X166090533Y-148533333D02*
X166233390Y-148580952D01*
X166233390Y-148580952D02*
X166804819Y-149152380D01*
X166804819Y-149152380D02*
X166804819Y-148533333D01*
X170291169Y-112349693D02*
X170223825Y-112349693D01*
X170223825Y-112349693D02*
X170089138Y-112282349D01*
X170089138Y-112282349D02*
X170021795Y-112215006D01*
X170021795Y-112215006D02*
X169954451Y-112080319D01*
X169954451Y-112080319D02*
X169954451Y-111945632D01*
X169954451Y-111945632D02*
X169988123Y-111844617D01*
X169988123Y-111844617D02*
X170089138Y-111676258D01*
X170089138Y-111676258D02*
X170190153Y-111575243D01*
X170190153Y-111575243D02*
X170358512Y-111474227D01*
X170358512Y-111474227D02*
X170459527Y-111440556D01*
X170459527Y-111440556D02*
X170594214Y-111440556D01*
X170594214Y-111440556D02*
X170728901Y-111507899D01*
X170728901Y-111507899D02*
X170796245Y-111575243D01*
X170796245Y-111575243D02*
X170863588Y-111709930D01*
X170863588Y-111709930D02*
X170863588Y-111777273D01*
X171132962Y-112046647D02*
X171200306Y-112046647D01*
X171200306Y-112046647D02*
X171301321Y-112080319D01*
X171301321Y-112080319D02*
X171469680Y-112248678D01*
X171469680Y-112248678D02*
X171503352Y-112349693D01*
X171503352Y-112349693D02*
X171503352Y-112417036D01*
X171503352Y-112417036D02*
X171469680Y-112518052D01*
X171469680Y-112518052D02*
X171402336Y-112585395D01*
X171402336Y-112585395D02*
X171267649Y-112652739D01*
X171267649Y-112652739D02*
X170459527Y-112652739D01*
X170459527Y-112652739D02*
X170897260Y-113090471D01*
X171806398Y-112720082D02*
X171873741Y-112720082D01*
X171873741Y-112720082D02*
X171974756Y-112753754D01*
X171974756Y-112753754D02*
X172143115Y-112922113D01*
X172143115Y-112922113D02*
X172176787Y-113023128D01*
X172176787Y-113023128D02*
X172176787Y-113090472D01*
X172176787Y-113090472D02*
X172143115Y-113191487D01*
X172143115Y-113191487D02*
X172075772Y-113258830D01*
X172075772Y-113258830D02*
X171941085Y-113326174D01*
X171941085Y-113326174D02*
X171132963Y-113326174D01*
X171132963Y-113326174D02*
X171570695Y-113763907D01*
X183004819Y-130838094D02*
X182004819Y-130838094D01*
X182004819Y-130838094D02*
X182004819Y-130599999D01*
X182004819Y-130599999D02*
X182052438Y-130457142D01*
X182052438Y-130457142D02*
X182147676Y-130361904D01*
X182147676Y-130361904D02*
X182242914Y-130314285D01*
X182242914Y-130314285D02*
X182433390Y-130266666D01*
X182433390Y-130266666D02*
X182576247Y-130266666D01*
X182576247Y-130266666D02*
X182766723Y-130314285D01*
X182766723Y-130314285D02*
X182861961Y-130361904D01*
X182861961Y-130361904D02*
X182957200Y-130457142D01*
X182957200Y-130457142D02*
X183004819Y-130599999D01*
X183004819Y-130599999D02*
X183004819Y-130838094D01*
X182338152Y-129409523D02*
X183004819Y-129409523D01*
X181957200Y-129647618D02*
X182671485Y-129885713D01*
X182671485Y-129885713D02*
X182671485Y-129266666D01*
X180841169Y-127249693D02*
X180773825Y-127249693D01*
X180773825Y-127249693D02*
X180639138Y-127182349D01*
X180639138Y-127182349D02*
X180571795Y-127115006D01*
X180571795Y-127115006D02*
X180504451Y-126980319D01*
X180504451Y-126980319D02*
X180504451Y-126845632D01*
X180504451Y-126845632D02*
X180538123Y-126744617D01*
X180538123Y-126744617D02*
X180639138Y-126576258D01*
X180639138Y-126576258D02*
X180740153Y-126475243D01*
X180740153Y-126475243D02*
X180908512Y-126374227D01*
X180908512Y-126374227D02*
X181009527Y-126340556D01*
X181009527Y-126340556D02*
X181144214Y-126340556D01*
X181144214Y-126340556D02*
X181278901Y-126407899D01*
X181278901Y-126407899D02*
X181346245Y-126475243D01*
X181346245Y-126475243D02*
X181413588Y-126609930D01*
X181413588Y-126609930D02*
X181413588Y-126677273D01*
X181447260Y-127990471D02*
X181043199Y-127586410D01*
X181245230Y-127788441D02*
X181952336Y-127081334D01*
X181952336Y-127081334D02*
X181783978Y-127115006D01*
X181783978Y-127115006D02*
X181649291Y-127115006D01*
X181649291Y-127115006D02*
X181548275Y-127081334D01*
X182760459Y-127889456D02*
X182625772Y-127754769D01*
X182625772Y-127754769D02*
X182524756Y-127721098D01*
X182524756Y-127721098D02*
X182457413Y-127721098D01*
X182457413Y-127721098D02*
X182289054Y-127754769D01*
X182289054Y-127754769D02*
X182120695Y-127855785D01*
X182120695Y-127855785D02*
X181851321Y-128125159D01*
X181851321Y-128125159D02*
X181817650Y-128226174D01*
X181817650Y-128226174D02*
X181817650Y-128293517D01*
X181817650Y-128293517D02*
X181851321Y-128394533D01*
X181851321Y-128394533D02*
X181986008Y-128529220D01*
X181986008Y-128529220D02*
X182087024Y-128562891D01*
X182087024Y-128562891D02*
X182154367Y-128562891D01*
X182154367Y-128562891D02*
X182255382Y-128529220D01*
X182255382Y-128529220D02*
X182423741Y-128360861D01*
X182423741Y-128360861D02*
X182457413Y-128259846D01*
X182457413Y-128259846D02*
X182457413Y-128192502D01*
X182457413Y-128192502D02*
X182423741Y-128091487D01*
X182423741Y-128091487D02*
X182289054Y-127956800D01*
X182289054Y-127956800D02*
X182188039Y-127923128D01*
X182188039Y-127923128D02*
X182120695Y-127923128D01*
X182120695Y-127923128D02*
X182019680Y-127956800D01*
X186783333Y-84109580D02*
X186735714Y-84157200D01*
X186735714Y-84157200D02*
X186592857Y-84204819D01*
X186592857Y-84204819D02*
X186497619Y-84204819D01*
X186497619Y-84204819D02*
X186354762Y-84157200D01*
X186354762Y-84157200D02*
X186259524Y-84061961D01*
X186259524Y-84061961D02*
X186211905Y-83966723D01*
X186211905Y-83966723D02*
X186164286Y-83776247D01*
X186164286Y-83776247D02*
X186164286Y-83633390D01*
X186164286Y-83633390D02*
X186211905Y-83442914D01*
X186211905Y-83442914D02*
X186259524Y-83347676D01*
X186259524Y-83347676D02*
X186354762Y-83252438D01*
X186354762Y-83252438D02*
X186497619Y-83204819D01*
X186497619Y-83204819D02*
X186592857Y-83204819D01*
X186592857Y-83204819D02*
X186735714Y-83252438D01*
X186735714Y-83252438D02*
X186783333Y-83300057D01*
X187640476Y-83204819D02*
X187450000Y-83204819D01*
X187450000Y-83204819D02*
X187354762Y-83252438D01*
X187354762Y-83252438D02*
X187307143Y-83300057D01*
X187307143Y-83300057D02*
X187211905Y-83442914D01*
X187211905Y-83442914D02*
X187164286Y-83633390D01*
X187164286Y-83633390D02*
X187164286Y-84014342D01*
X187164286Y-84014342D02*
X187211905Y-84109580D01*
X187211905Y-84109580D02*
X187259524Y-84157200D01*
X187259524Y-84157200D02*
X187354762Y-84204819D01*
X187354762Y-84204819D02*
X187545238Y-84204819D01*
X187545238Y-84204819D02*
X187640476Y-84157200D01*
X187640476Y-84157200D02*
X187688095Y-84109580D01*
X187688095Y-84109580D02*
X187735714Y-84014342D01*
X187735714Y-84014342D02*
X187735714Y-83776247D01*
X187735714Y-83776247D02*
X187688095Y-83681009D01*
X187688095Y-83681009D02*
X187640476Y-83633390D01*
X187640476Y-83633390D02*
X187545238Y-83585771D01*
X187545238Y-83585771D02*
X187354762Y-83585771D01*
X187354762Y-83585771D02*
X187259524Y-83633390D01*
X187259524Y-83633390D02*
X187211905Y-83681009D01*
X187211905Y-83681009D02*
X187164286Y-83776247D01*
X170483333Y-151604819D02*
X170150000Y-151128628D01*
X169911905Y-151604819D02*
X169911905Y-150604819D01*
X169911905Y-150604819D02*
X170292857Y-150604819D01*
X170292857Y-150604819D02*
X170388095Y-150652438D01*
X170388095Y-150652438D02*
X170435714Y-150700057D01*
X170435714Y-150700057D02*
X170483333Y-150795295D01*
X170483333Y-150795295D02*
X170483333Y-150938152D01*
X170483333Y-150938152D02*
X170435714Y-151033390D01*
X170435714Y-151033390D02*
X170388095Y-151081009D01*
X170388095Y-151081009D02*
X170292857Y-151128628D01*
X170292857Y-151128628D02*
X169911905Y-151128628D01*
X170816667Y-150604819D02*
X171435714Y-150604819D01*
X171435714Y-150604819D02*
X171102381Y-150985771D01*
X171102381Y-150985771D02*
X171245238Y-150985771D01*
X171245238Y-150985771D02*
X171340476Y-151033390D01*
X171340476Y-151033390D02*
X171388095Y-151081009D01*
X171388095Y-151081009D02*
X171435714Y-151176247D01*
X171435714Y-151176247D02*
X171435714Y-151414342D01*
X171435714Y-151414342D02*
X171388095Y-151509580D01*
X171388095Y-151509580D02*
X171340476Y-151557200D01*
X171340476Y-151557200D02*
X171245238Y-151604819D01*
X171245238Y-151604819D02*
X170959524Y-151604819D01*
X170959524Y-151604819D02*
X170864286Y-151557200D01*
X170864286Y-151557200D02*
X170816667Y-151509580D01*
X189583333Y-126454819D02*
X189250000Y-125978628D01*
X189011905Y-126454819D02*
X189011905Y-125454819D01*
X189011905Y-125454819D02*
X189392857Y-125454819D01*
X189392857Y-125454819D02*
X189488095Y-125502438D01*
X189488095Y-125502438D02*
X189535714Y-125550057D01*
X189535714Y-125550057D02*
X189583333Y-125645295D01*
X189583333Y-125645295D02*
X189583333Y-125788152D01*
X189583333Y-125788152D02*
X189535714Y-125883390D01*
X189535714Y-125883390D02*
X189488095Y-125931009D01*
X189488095Y-125931009D02*
X189392857Y-125978628D01*
X189392857Y-125978628D02*
X189011905Y-125978628D01*
X190154762Y-125883390D02*
X190059524Y-125835771D01*
X190059524Y-125835771D02*
X190011905Y-125788152D01*
X190011905Y-125788152D02*
X189964286Y-125692914D01*
X189964286Y-125692914D02*
X189964286Y-125645295D01*
X189964286Y-125645295D02*
X190011905Y-125550057D01*
X190011905Y-125550057D02*
X190059524Y-125502438D01*
X190059524Y-125502438D02*
X190154762Y-125454819D01*
X190154762Y-125454819D02*
X190345238Y-125454819D01*
X190345238Y-125454819D02*
X190440476Y-125502438D01*
X190440476Y-125502438D02*
X190488095Y-125550057D01*
X190488095Y-125550057D02*
X190535714Y-125645295D01*
X190535714Y-125645295D02*
X190535714Y-125692914D01*
X190535714Y-125692914D02*
X190488095Y-125788152D01*
X190488095Y-125788152D02*
X190440476Y-125835771D01*
X190440476Y-125835771D02*
X190345238Y-125883390D01*
X190345238Y-125883390D02*
X190154762Y-125883390D01*
X190154762Y-125883390D02*
X190059524Y-125931009D01*
X190059524Y-125931009D02*
X190011905Y-125978628D01*
X190011905Y-125978628D02*
X189964286Y-126073866D01*
X189964286Y-126073866D02*
X189964286Y-126264342D01*
X189964286Y-126264342D02*
X190011905Y-126359580D01*
X190011905Y-126359580D02*
X190059524Y-126407200D01*
X190059524Y-126407200D02*
X190154762Y-126454819D01*
X190154762Y-126454819D02*
X190345238Y-126454819D01*
X190345238Y-126454819D02*
X190440476Y-126407200D01*
X190440476Y-126407200D02*
X190488095Y-126359580D01*
X190488095Y-126359580D02*
X190535714Y-126264342D01*
X190535714Y-126264342D02*
X190535714Y-126073866D01*
X190535714Y-126073866D02*
X190488095Y-125978628D01*
X190488095Y-125978628D02*
X190440476Y-125931009D01*
X190440476Y-125931009D02*
X190345238Y-125883390D01*
X171491169Y-130149693D02*
X171423825Y-130149693D01*
X171423825Y-130149693D02*
X171289138Y-130082349D01*
X171289138Y-130082349D02*
X171221795Y-130015006D01*
X171221795Y-130015006D02*
X171154451Y-129880319D01*
X171154451Y-129880319D02*
X171154451Y-129745632D01*
X171154451Y-129745632D02*
X171188123Y-129644617D01*
X171188123Y-129644617D02*
X171289138Y-129476258D01*
X171289138Y-129476258D02*
X171390153Y-129375243D01*
X171390153Y-129375243D02*
X171558512Y-129274227D01*
X171558512Y-129274227D02*
X171659527Y-129240556D01*
X171659527Y-129240556D02*
X171794214Y-129240556D01*
X171794214Y-129240556D02*
X171928901Y-129307899D01*
X171928901Y-129307899D02*
X171996245Y-129375243D01*
X171996245Y-129375243D02*
X172063588Y-129509930D01*
X172063588Y-129509930D02*
X172063588Y-129577273D01*
X172332962Y-129846647D02*
X172400306Y-129846647D01*
X172400306Y-129846647D02*
X172501321Y-129880319D01*
X172501321Y-129880319D02*
X172669680Y-130048678D01*
X172669680Y-130048678D02*
X172703352Y-130149693D01*
X172703352Y-130149693D02*
X172703352Y-130217036D01*
X172703352Y-130217036D02*
X172669680Y-130318052D01*
X172669680Y-130318052D02*
X172602336Y-130385395D01*
X172602336Y-130385395D02*
X172467649Y-130452739D01*
X172467649Y-130452739D02*
X171659527Y-130452739D01*
X171659527Y-130452739D02*
X172097260Y-130890471D01*
X173410459Y-130789456D02*
X173275772Y-130654769D01*
X173275772Y-130654769D02*
X173174756Y-130621098D01*
X173174756Y-130621098D02*
X173107413Y-130621098D01*
X173107413Y-130621098D02*
X172939054Y-130654769D01*
X172939054Y-130654769D02*
X172770695Y-130755785D01*
X172770695Y-130755785D02*
X172501321Y-131025159D01*
X172501321Y-131025159D02*
X172467650Y-131126174D01*
X172467650Y-131126174D02*
X172467650Y-131193517D01*
X172467650Y-131193517D02*
X172501321Y-131294533D01*
X172501321Y-131294533D02*
X172636008Y-131429220D01*
X172636008Y-131429220D02*
X172737024Y-131462891D01*
X172737024Y-131462891D02*
X172804367Y-131462891D01*
X172804367Y-131462891D02*
X172905382Y-131429220D01*
X172905382Y-131429220D02*
X173073741Y-131260861D01*
X173073741Y-131260861D02*
X173107413Y-131159846D01*
X173107413Y-131159846D02*
X173107413Y-131092502D01*
X173107413Y-131092502D02*
X173073741Y-130991487D01*
X173073741Y-130991487D02*
X172939054Y-130856800D01*
X172939054Y-130856800D02*
X172838039Y-130823128D01*
X172838039Y-130823128D02*
X172770695Y-130823128D01*
X172770695Y-130823128D02*
X172669680Y-130856800D01*
X168616666Y-121254819D02*
X168616666Y-121969104D01*
X168616666Y-121969104D02*
X168569047Y-122111961D01*
X168569047Y-122111961D02*
X168473809Y-122207200D01*
X168473809Y-122207200D02*
X168330952Y-122254819D01*
X168330952Y-122254819D02*
X168235714Y-122254819D01*
X168997619Y-121254819D02*
X169664285Y-121254819D01*
X169664285Y-121254819D02*
X169235714Y-122254819D01*
D11*
X164754663Y-91688094D02*
X165564186Y-91688094D01*
X165564186Y-91688094D02*
X165659424Y-91640475D01*
X165659424Y-91640475D02*
X165707044Y-91592856D01*
X165707044Y-91592856D02*
X165754663Y-91497618D01*
X165754663Y-91497618D02*
X165754663Y-91307142D01*
X165754663Y-91307142D02*
X165707044Y-91211904D01*
X165707044Y-91211904D02*
X165659424Y-91164285D01*
X165659424Y-91164285D02*
X165564186Y-91116666D01*
X165564186Y-91116666D02*
X164754663Y-91116666D01*
X165754663Y-90116666D02*
X165754663Y-90688094D01*
X165754663Y-90402380D02*
X164754663Y-90402380D01*
X164754663Y-90402380D02*
X164897520Y-90497618D01*
X164897520Y-90497618D02*
X164992758Y-90592856D01*
X164992758Y-90592856D02*
X165040377Y-90688094D01*
X164754663Y-89783332D02*
X164754663Y-89164285D01*
X164754663Y-89164285D02*
X165135615Y-89497618D01*
X165135615Y-89497618D02*
X165135615Y-89354761D01*
X165135615Y-89354761D02*
X165183234Y-89259523D01*
X165183234Y-89259523D02*
X165230853Y-89211904D01*
X165230853Y-89211904D02*
X165326091Y-89164285D01*
X165326091Y-89164285D02*
X165564186Y-89164285D01*
X165564186Y-89164285D02*
X165659424Y-89211904D01*
X165659424Y-89211904D02*
X165707044Y-89259523D01*
X165707044Y-89259523D02*
X165754663Y-89354761D01*
X165754663Y-89354761D02*
X165754663Y-89640475D01*
X165754663Y-89640475D02*
X165707044Y-89735713D01*
X165707044Y-89735713D02*
X165659424Y-89783332D01*
D10*
X178559580Y-110092857D02*
X178607200Y-110140476D01*
X178607200Y-110140476D02*
X178654819Y-110283333D01*
X178654819Y-110283333D02*
X178654819Y-110378571D01*
X178654819Y-110378571D02*
X178607200Y-110521428D01*
X178607200Y-110521428D02*
X178511961Y-110616666D01*
X178511961Y-110616666D02*
X178416723Y-110664285D01*
X178416723Y-110664285D02*
X178226247Y-110711904D01*
X178226247Y-110711904D02*
X178083390Y-110711904D01*
X178083390Y-110711904D02*
X177892914Y-110664285D01*
X177892914Y-110664285D02*
X177797676Y-110616666D01*
X177797676Y-110616666D02*
X177702438Y-110521428D01*
X177702438Y-110521428D02*
X177654819Y-110378571D01*
X177654819Y-110378571D02*
X177654819Y-110283333D01*
X177654819Y-110283333D02*
X177702438Y-110140476D01*
X177702438Y-110140476D02*
X177750057Y-110092857D01*
X178654819Y-109140476D02*
X178654819Y-109711904D01*
X178654819Y-109426190D02*
X177654819Y-109426190D01*
X177654819Y-109426190D02*
X177797676Y-109521428D01*
X177797676Y-109521428D02*
X177892914Y-109616666D01*
X177892914Y-109616666D02*
X177940533Y-109711904D01*
X178654819Y-108664285D02*
X178654819Y-108473809D01*
X178654819Y-108473809D02*
X178607200Y-108378571D01*
X178607200Y-108378571D02*
X178559580Y-108330952D01*
X178559580Y-108330952D02*
X178416723Y-108235714D01*
X178416723Y-108235714D02*
X178226247Y-108188095D01*
X178226247Y-108188095D02*
X177845295Y-108188095D01*
X177845295Y-108188095D02*
X177750057Y-108235714D01*
X177750057Y-108235714D02*
X177702438Y-108283333D01*
X177702438Y-108283333D02*
X177654819Y-108378571D01*
X177654819Y-108378571D02*
X177654819Y-108569047D01*
X177654819Y-108569047D02*
X177702438Y-108664285D01*
X177702438Y-108664285D02*
X177750057Y-108711904D01*
X177750057Y-108711904D02*
X177845295Y-108759523D01*
X177845295Y-108759523D02*
X178083390Y-108759523D01*
X178083390Y-108759523D02*
X178178628Y-108711904D01*
X178178628Y-108711904D02*
X178226247Y-108664285D01*
X178226247Y-108664285D02*
X178273866Y-108569047D01*
X178273866Y-108569047D02*
X178273866Y-108378571D01*
X178273866Y-108378571D02*
X178226247Y-108283333D01*
X178226247Y-108283333D02*
X178178628Y-108235714D01*
X178178628Y-108235714D02*
X178083390Y-108188095D01*
X165666666Y-116231009D02*
X165333333Y-116231009D01*
X165333333Y-116754819D02*
X165333333Y-115754819D01*
X165333333Y-115754819D02*
X165809523Y-115754819D01*
X166095238Y-115754819D02*
X166714285Y-115754819D01*
X166714285Y-115754819D02*
X166380952Y-116135771D01*
X166380952Y-116135771D02*
X166523809Y-116135771D01*
X166523809Y-116135771D02*
X166619047Y-116183390D01*
X166619047Y-116183390D02*
X166666666Y-116231009D01*
X166666666Y-116231009D02*
X166714285Y-116326247D01*
X166714285Y-116326247D02*
X166714285Y-116564342D01*
X166714285Y-116564342D02*
X166666666Y-116659580D01*
X166666666Y-116659580D02*
X166619047Y-116707200D01*
X166619047Y-116707200D02*
X166523809Y-116754819D01*
X166523809Y-116754819D02*
X166238095Y-116754819D01*
X166238095Y-116754819D02*
X166142857Y-116707200D01*
X166142857Y-116707200D02*
X166095238Y-116659580D01*
X183509580Y-135766666D02*
X183557200Y-135814285D01*
X183557200Y-135814285D02*
X183604819Y-135957142D01*
X183604819Y-135957142D02*
X183604819Y-136052380D01*
X183604819Y-136052380D02*
X183557200Y-136195237D01*
X183557200Y-136195237D02*
X183461961Y-136290475D01*
X183461961Y-136290475D02*
X183366723Y-136338094D01*
X183366723Y-136338094D02*
X183176247Y-136385713D01*
X183176247Y-136385713D02*
X183033390Y-136385713D01*
X183033390Y-136385713D02*
X182842914Y-136338094D01*
X182842914Y-136338094D02*
X182747676Y-136290475D01*
X182747676Y-136290475D02*
X182652438Y-136195237D01*
X182652438Y-136195237D02*
X182604819Y-136052380D01*
X182604819Y-136052380D02*
X182604819Y-135957142D01*
X182604819Y-135957142D02*
X182652438Y-135814285D01*
X182652438Y-135814285D02*
X182700057Y-135766666D01*
X183604819Y-134814285D02*
X183604819Y-135385713D01*
X183604819Y-135099999D02*
X182604819Y-135099999D01*
X182604819Y-135099999D02*
X182747676Y-135195237D01*
X182747676Y-135195237D02*
X182842914Y-135290475D01*
X182842914Y-135290475D02*
X182890533Y-135385713D01*
X159454819Y-105038094D02*
X160264342Y-105038094D01*
X160264342Y-105038094D02*
X160359580Y-104990475D01*
X160359580Y-104990475D02*
X160407200Y-104942856D01*
X160407200Y-104942856D02*
X160454819Y-104847618D01*
X160454819Y-104847618D02*
X160454819Y-104657142D01*
X160454819Y-104657142D02*
X160407200Y-104561904D01*
X160407200Y-104561904D02*
X160359580Y-104514285D01*
X160359580Y-104514285D02*
X160264342Y-104466666D01*
X160264342Y-104466666D02*
X159454819Y-104466666D01*
X160454819Y-103466666D02*
X160454819Y-104038094D01*
X160454819Y-103752380D02*
X159454819Y-103752380D01*
X159454819Y-103752380D02*
X159597676Y-103847618D01*
X159597676Y-103847618D02*
X159692914Y-103942856D01*
X159692914Y-103942856D02*
X159740533Y-104038094D01*
X160454819Y-102514285D02*
X160454819Y-103085713D01*
X160454819Y-102799999D02*
X159454819Y-102799999D01*
X159454819Y-102799999D02*
X159597676Y-102895237D01*
X159597676Y-102895237D02*
X159692914Y-102990475D01*
X159692914Y-102990475D02*
X159740533Y-103085713D01*
D11*
X167354663Y-90992857D02*
X166878472Y-91326190D01*
X167354663Y-91564285D02*
X166354663Y-91564285D01*
X166354663Y-91564285D02*
X166354663Y-91183333D01*
X166354663Y-91183333D02*
X166402282Y-91088095D01*
X166402282Y-91088095D02*
X166449901Y-91040476D01*
X166449901Y-91040476D02*
X166545139Y-90992857D01*
X166545139Y-90992857D02*
X166687996Y-90992857D01*
X166687996Y-90992857D02*
X166783234Y-91040476D01*
X166783234Y-91040476D02*
X166830853Y-91088095D01*
X166830853Y-91088095D02*
X166878472Y-91183333D01*
X166878472Y-91183333D02*
X166878472Y-91564285D01*
X166449901Y-90611904D02*
X166402282Y-90564285D01*
X166402282Y-90564285D02*
X166354663Y-90469047D01*
X166354663Y-90469047D02*
X166354663Y-90230952D01*
X166354663Y-90230952D02*
X166402282Y-90135714D01*
X166402282Y-90135714D02*
X166449901Y-90088095D01*
X166449901Y-90088095D02*
X166545139Y-90040476D01*
X166545139Y-90040476D02*
X166640377Y-90040476D01*
X166640377Y-90040476D02*
X166783234Y-90088095D01*
X166783234Y-90088095D02*
X167354663Y-90659523D01*
X167354663Y-90659523D02*
X167354663Y-90040476D01*
X167354663Y-89564285D02*
X167354663Y-89373809D01*
X167354663Y-89373809D02*
X167307044Y-89278571D01*
X167307044Y-89278571D02*
X167259424Y-89230952D01*
X167259424Y-89230952D02*
X167116567Y-89135714D01*
X167116567Y-89135714D02*
X166926091Y-89088095D01*
X166926091Y-89088095D02*
X166545139Y-89088095D01*
X166545139Y-89088095D02*
X166449901Y-89135714D01*
X166449901Y-89135714D02*
X166402282Y-89183333D01*
X166402282Y-89183333D02*
X166354663Y-89278571D01*
X166354663Y-89278571D02*
X166354663Y-89469047D01*
X166354663Y-89469047D02*
X166402282Y-89564285D01*
X166402282Y-89564285D02*
X166449901Y-89611904D01*
X166449901Y-89611904D02*
X166545139Y-89659523D01*
X166545139Y-89659523D02*
X166783234Y-89659523D01*
X166783234Y-89659523D02*
X166878472Y-89611904D01*
X166878472Y-89611904D02*
X166926091Y-89564285D01*
X166926091Y-89564285D02*
X166973710Y-89469047D01*
X166973710Y-89469047D02*
X166973710Y-89278571D01*
X166973710Y-89278571D02*
X166926091Y-89183333D01*
X166926091Y-89183333D02*
X166878472Y-89135714D01*
X166878472Y-89135714D02*
X166783234Y-89088095D01*
D10*
X173354819Y-139083333D02*
X174069104Y-139083333D01*
X174069104Y-139083333D02*
X174211961Y-139130952D01*
X174211961Y-139130952D02*
X174307200Y-139226190D01*
X174307200Y-139226190D02*
X174354819Y-139369047D01*
X174354819Y-139369047D02*
X174354819Y-139464285D01*
X174354819Y-138083333D02*
X174354819Y-138654761D01*
X174354819Y-138369047D02*
X173354819Y-138369047D01*
X173354819Y-138369047D02*
X173497676Y-138464285D01*
X173497676Y-138464285D02*
X173592914Y-138559523D01*
X173592914Y-138559523D02*
X173640533Y-138654761D01*
X170964700Y-133383928D02*
X170964700Y-132241071D01*
X170964700Y-144383928D02*
X170964700Y-143241071D01*
X171536128Y-143812499D02*
X170393271Y-143812499D01*
X165657142Y-121759580D02*
X165609523Y-121807200D01*
X165609523Y-121807200D02*
X165466666Y-121854819D01*
X165466666Y-121854819D02*
X165371428Y-121854819D01*
X165371428Y-121854819D02*
X165228571Y-121807200D01*
X165228571Y-121807200D02*
X165133333Y-121711961D01*
X165133333Y-121711961D02*
X165085714Y-121616723D01*
X165085714Y-121616723D02*
X165038095Y-121426247D01*
X165038095Y-121426247D02*
X165038095Y-121283390D01*
X165038095Y-121283390D02*
X165085714Y-121092914D01*
X165085714Y-121092914D02*
X165133333Y-120997676D01*
X165133333Y-120997676D02*
X165228571Y-120902438D01*
X165228571Y-120902438D02*
X165371428Y-120854819D01*
X165371428Y-120854819D02*
X165466666Y-120854819D01*
X165466666Y-120854819D02*
X165609523Y-120902438D01*
X165609523Y-120902438D02*
X165657142Y-120950057D01*
X166609523Y-121854819D02*
X166038095Y-121854819D01*
X166323809Y-121854819D02*
X166323809Y-120854819D01*
X166323809Y-120854819D02*
X166228571Y-120997676D01*
X166228571Y-120997676D02*
X166133333Y-121092914D01*
X166133333Y-121092914D02*
X166038095Y-121140533D01*
X167180952Y-121283390D02*
X167085714Y-121235771D01*
X167085714Y-121235771D02*
X167038095Y-121188152D01*
X167038095Y-121188152D02*
X166990476Y-121092914D01*
X166990476Y-121092914D02*
X166990476Y-121045295D01*
X166990476Y-121045295D02*
X167038095Y-120950057D01*
X167038095Y-120950057D02*
X167085714Y-120902438D01*
X167085714Y-120902438D02*
X167180952Y-120854819D01*
X167180952Y-120854819D02*
X167371428Y-120854819D01*
X167371428Y-120854819D02*
X167466666Y-120902438D01*
X167466666Y-120902438D02*
X167514285Y-120950057D01*
X167514285Y-120950057D02*
X167561904Y-121045295D01*
X167561904Y-121045295D02*
X167561904Y-121092914D01*
X167561904Y-121092914D02*
X167514285Y-121188152D01*
X167514285Y-121188152D02*
X167466666Y-121235771D01*
X167466666Y-121235771D02*
X167371428Y-121283390D01*
X167371428Y-121283390D02*
X167180952Y-121283390D01*
X167180952Y-121283390D02*
X167085714Y-121331009D01*
X167085714Y-121331009D02*
X167038095Y-121378628D01*
X167038095Y-121378628D02*
X166990476Y-121473866D01*
X166990476Y-121473866D02*
X166990476Y-121664342D01*
X166990476Y-121664342D02*
X167038095Y-121759580D01*
X167038095Y-121759580D02*
X167085714Y-121807200D01*
X167085714Y-121807200D02*
X167180952Y-121854819D01*
X167180952Y-121854819D02*
X167371428Y-121854819D01*
X167371428Y-121854819D02*
X167466666Y-121807200D01*
X167466666Y-121807200D02*
X167514285Y-121759580D01*
X167514285Y-121759580D02*
X167561904Y-121664342D01*
X167561904Y-121664342D02*
X167561904Y-121473866D01*
X167561904Y-121473866D02*
X167514285Y-121378628D01*
X167514285Y-121378628D02*
X167466666Y-121331009D01*
X167466666Y-121331009D02*
X167371428Y-121283390D01*
X170722510Y-127123374D02*
X170150091Y-127022359D01*
X170318449Y-127527435D02*
X169611343Y-126820328D01*
X169611343Y-126820328D02*
X169880717Y-126550954D01*
X169880717Y-126550954D02*
X169981732Y-126517282D01*
X169981732Y-126517282D02*
X170049075Y-126517282D01*
X170049075Y-126517282D02*
X170150091Y-126550954D01*
X170150091Y-126550954D02*
X170251106Y-126651969D01*
X170251106Y-126651969D02*
X170284778Y-126752985D01*
X170284778Y-126752985D02*
X170284778Y-126820328D01*
X170284778Y-126820328D02*
X170251106Y-126921343D01*
X170251106Y-126921343D02*
X169981732Y-127190717D01*
X170352121Y-126214237D02*
X170352121Y-126146893D01*
X170352121Y-126146893D02*
X170385793Y-126045878D01*
X170385793Y-126045878D02*
X170554152Y-125877519D01*
X170554152Y-125877519D02*
X170655167Y-125843847D01*
X170655167Y-125843847D02*
X170722510Y-125843847D01*
X170722510Y-125843847D02*
X170823526Y-125877519D01*
X170823526Y-125877519D02*
X170890869Y-125944863D01*
X170890869Y-125944863D02*
X170958213Y-126079550D01*
X170958213Y-126079550D02*
X170958213Y-126887672D01*
X170958213Y-126887672D02*
X171395945Y-126449939D01*
X171530633Y-125372443D02*
X172002037Y-125843847D01*
X171092900Y-125271427D02*
X171429617Y-125944862D01*
X171429617Y-125944862D02*
X171867350Y-125507130D01*
X162082142Y-109314580D02*
X162034523Y-109362200D01*
X162034523Y-109362200D02*
X161891666Y-109409819D01*
X161891666Y-109409819D02*
X161796428Y-109409819D01*
X161796428Y-109409819D02*
X161653571Y-109362200D01*
X161653571Y-109362200D02*
X161558333Y-109266961D01*
X161558333Y-109266961D02*
X161510714Y-109171723D01*
X161510714Y-109171723D02*
X161463095Y-108981247D01*
X161463095Y-108981247D02*
X161463095Y-108838390D01*
X161463095Y-108838390D02*
X161510714Y-108647914D01*
X161510714Y-108647914D02*
X161558333Y-108552676D01*
X161558333Y-108552676D02*
X161653571Y-108457438D01*
X161653571Y-108457438D02*
X161796428Y-108409819D01*
X161796428Y-108409819D02*
X161891666Y-108409819D01*
X161891666Y-108409819D02*
X162034523Y-108457438D01*
X162034523Y-108457438D02*
X162082142Y-108505057D01*
X163034523Y-109409819D02*
X162463095Y-109409819D01*
X162748809Y-109409819D02*
X162748809Y-108409819D01*
X162748809Y-108409819D02*
X162653571Y-108552676D01*
X162653571Y-108552676D02*
X162558333Y-108647914D01*
X162558333Y-108647914D02*
X162463095Y-108695533D01*
X163939285Y-108409819D02*
X163463095Y-108409819D01*
X163463095Y-108409819D02*
X163415476Y-108886009D01*
X163415476Y-108886009D02*
X163463095Y-108838390D01*
X163463095Y-108838390D02*
X163558333Y-108790771D01*
X163558333Y-108790771D02*
X163796428Y-108790771D01*
X163796428Y-108790771D02*
X163891666Y-108838390D01*
X163891666Y-108838390D02*
X163939285Y-108886009D01*
X163939285Y-108886009D02*
X163986904Y-108981247D01*
X163986904Y-108981247D02*
X163986904Y-109219342D01*
X163986904Y-109219342D02*
X163939285Y-109314580D01*
X163939285Y-109314580D02*
X163891666Y-109362200D01*
X163891666Y-109362200D02*
X163796428Y-109409819D01*
X163796428Y-109409819D02*
X163558333Y-109409819D01*
X163558333Y-109409819D02*
X163463095Y-109362200D01*
X163463095Y-109362200D02*
X163415476Y-109314580D01*
X189583333Y-134654819D02*
X189250000Y-134178628D01*
X189011905Y-134654819D02*
X189011905Y-133654819D01*
X189011905Y-133654819D02*
X189392857Y-133654819D01*
X189392857Y-133654819D02*
X189488095Y-133702438D01*
X189488095Y-133702438D02*
X189535714Y-133750057D01*
X189535714Y-133750057D02*
X189583333Y-133845295D01*
X189583333Y-133845295D02*
X189583333Y-133988152D01*
X189583333Y-133988152D02*
X189535714Y-134083390D01*
X189535714Y-134083390D02*
X189488095Y-134131009D01*
X189488095Y-134131009D02*
X189392857Y-134178628D01*
X189392857Y-134178628D02*
X189011905Y-134178628D01*
X190440476Y-133654819D02*
X190250000Y-133654819D01*
X190250000Y-133654819D02*
X190154762Y-133702438D01*
X190154762Y-133702438D02*
X190107143Y-133750057D01*
X190107143Y-133750057D02*
X190011905Y-133892914D01*
X190011905Y-133892914D02*
X189964286Y-134083390D01*
X189964286Y-134083390D02*
X189964286Y-134464342D01*
X189964286Y-134464342D02*
X190011905Y-134559580D01*
X190011905Y-134559580D02*
X190059524Y-134607200D01*
X190059524Y-134607200D02*
X190154762Y-134654819D01*
X190154762Y-134654819D02*
X190345238Y-134654819D01*
X190345238Y-134654819D02*
X190440476Y-134607200D01*
X190440476Y-134607200D02*
X190488095Y-134559580D01*
X190488095Y-134559580D02*
X190535714Y-134464342D01*
X190535714Y-134464342D02*
X190535714Y-134226247D01*
X190535714Y-134226247D02*
X190488095Y-134131009D01*
X190488095Y-134131009D02*
X190440476Y-134083390D01*
X190440476Y-134083390D02*
X190345238Y-134035771D01*
X190345238Y-134035771D02*
X190154762Y-134035771D01*
X190154762Y-134035771D02*
X190059524Y-134083390D01*
X190059524Y-134083390D02*
X190011905Y-134131009D01*
X190011905Y-134131009D02*
X189964286Y-134226247D01*
D11*
X160452028Y-93121736D02*
X160495316Y-93173324D01*
X160495316Y-93173324D02*
X160530303Y-93319788D01*
X160530303Y-93319788D02*
X160522002Y-93414664D01*
X160522002Y-93414664D02*
X160462113Y-93552827D01*
X160462113Y-93552827D02*
X160358937Y-93639402D01*
X160358937Y-93639402D02*
X160259911Y-93678540D01*
X160259911Y-93678540D02*
X160066010Y-93709376D01*
X160066010Y-93709376D02*
X159923696Y-93696926D01*
X159923696Y-93696926D02*
X159738095Y-93632887D01*
X159738095Y-93632887D02*
X159647370Y-93577148D01*
X159647370Y-93577148D02*
X159560794Y-93473972D01*
X159560794Y-93473972D02*
X159525807Y-93327508D01*
X159525807Y-93327508D02*
X159534108Y-93232633D01*
X159534108Y-93232633D02*
X159593997Y-93094469D01*
X159593997Y-93094469D02*
X159645585Y-93051182D01*
X160629909Y-92181280D02*
X160580106Y-92750534D01*
X160605008Y-92465907D02*
X159608813Y-92378751D01*
X159608813Y-92378751D02*
X159742826Y-92486078D01*
X159742826Y-92486078D02*
X159829401Y-92589254D01*
X159829401Y-92589254D02*
X159868538Y-92688280D01*
X159662766Y-91762059D02*
X159716720Y-91145367D01*
X159716720Y-91145367D02*
X160067171Y-91510635D01*
X160067171Y-91510635D02*
X160079622Y-91368321D01*
X160079622Y-91368321D02*
X160135360Y-91277596D01*
X160135360Y-91277596D02*
X160186948Y-91234308D01*
X160186948Y-91234308D02*
X160285974Y-91195171D01*
X160285974Y-91195171D02*
X160523163Y-91215922D01*
X160523163Y-91215922D02*
X160613889Y-91271660D01*
X160613889Y-91271660D02*
X160657176Y-91323249D01*
X160657176Y-91323249D02*
X160696314Y-91422275D01*
X160696314Y-91422275D02*
X160671412Y-91706902D01*
X160671412Y-91706902D02*
X160615674Y-91797627D01*
X160615674Y-91797627D02*
X160564085Y-91840915D01*
D10*
X160257142Y-130209580D02*
X160209523Y-130257200D01*
X160209523Y-130257200D02*
X160066666Y-130304819D01*
X160066666Y-130304819D02*
X159971428Y-130304819D01*
X159971428Y-130304819D02*
X159828571Y-130257200D01*
X159828571Y-130257200D02*
X159733333Y-130161961D01*
X159733333Y-130161961D02*
X159685714Y-130066723D01*
X159685714Y-130066723D02*
X159638095Y-129876247D01*
X159638095Y-129876247D02*
X159638095Y-129733390D01*
X159638095Y-129733390D02*
X159685714Y-129542914D01*
X159685714Y-129542914D02*
X159733333Y-129447676D01*
X159733333Y-129447676D02*
X159828571Y-129352438D01*
X159828571Y-129352438D02*
X159971428Y-129304819D01*
X159971428Y-129304819D02*
X160066666Y-129304819D01*
X160066666Y-129304819D02*
X160209523Y-129352438D01*
X160209523Y-129352438D02*
X160257142Y-129400057D01*
X160638095Y-129400057D02*
X160685714Y-129352438D01*
X160685714Y-129352438D02*
X160780952Y-129304819D01*
X160780952Y-129304819D02*
X161019047Y-129304819D01*
X161019047Y-129304819D02*
X161114285Y-129352438D01*
X161114285Y-129352438D02*
X161161904Y-129400057D01*
X161161904Y-129400057D02*
X161209523Y-129495295D01*
X161209523Y-129495295D02*
X161209523Y-129590533D01*
X161209523Y-129590533D02*
X161161904Y-129733390D01*
X161161904Y-129733390D02*
X160590476Y-130304819D01*
X160590476Y-130304819D02*
X161209523Y-130304819D01*
X162066666Y-129638152D02*
X162066666Y-130304819D01*
X161828571Y-129257200D02*
X161590476Y-129971485D01*
X161590476Y-129971485D02*
X162209523Y-129971485D01*
X187757142Y-107804819D02*
X187423809Y-107328628D01*
X187185714Y-107804819D02*
X187185714Y-106804819D01*
X187185714Y-106804819D02*
X187566666Y-106804819D01*
X187566666Y-106804819D02*
X187661904Y-106852438D01*
X187661904Y-106852438D02*
X187709523Y-106900057D01*
X187709523Y-106900057D02*
X187757142Y-106995295D01*
X187757142Y-106995295D02*
X187757142Y-107138152D01*
X187757142Y-107138152D02*
X187709523Y-107233390D01*
X187709523Y-107233390D02*
X187661904Y-107281009D01*
X187661904Y-107281009D02*
X187566666Y-107328628D01*
X187566666Y-107328628D02*
X187185714Y-107328628D01*
X188709523Y-107804819D02*
X188138095Y-107804819D01*
X188423809Y-107804819D02*
X188423809Y-106804819D01*
X188423809Y-106804819D02*
X188328571Y-106947676D01*
X188328571Y-106947676D02*
X188233333Y-107042914D01*
X188233333Y-107042914D02*
X188138095Y-107090533D01*
X189042857Y-106804819D02*
X189661904Y-106804819D01*
X189661904Y-106804819D02*
X189328571Y-107185771D01*
X189328571Y-107185771D02*
X189471428Y-107185771D01*
X189471428Y-107185771D02*
X189566666Y-107233390D01*
X189566666Y-107233390D02*
X189614285Y-107281009D01*
X189614285Y-107281009D02*
X189661904Y-107376247D01*
X189661904Y-107376247D02*
X189661904Y-107614342D01*
X189661904Y-107614342D02*
X189614285Y-107709580D01*
X189614285Y-107709580D02*
X189566666Y-107757200D01*
X189566666Y-107757200D02*
X189471428Y-107804819D01*
X189471428Y-107804819D02*
X189185714Y-107804819D01*
X189185714Y-107804819D02*
X189090476Y-107757200D01*
X189090476Y-107757200D02*
X189042857Y-107709580D01*
X160251469Y-121897260D02*
X159775371Y-121563794D01*
X159714501Y-122092700D02*
X159372481Y-121153007D01*
X159372481Y-121153007D02*
X159730459Y-121022714D01*
X159730459Y-121022714D02*
X159836241Y-121034888D01*
X159836241Y-121034888D02*
X159897275Y-121063348D01*
X159897275Y-121063348D02*
X159974595Y-121136556D01*
X159974595Y-121136556D02*
X160023455Y-121270798D01*
X160023455Y-121270798D02*
X160011281Y-121376579D01*
X160011281Y-121376579D02*
X159982821Y-121437613D01*
X159982821Y-121437613D02*
X159909613Y-121514934D01*
X159909613Y-121514934D02*
X159551635Y-121645227D01*
X160300000Y-120916768D02*
X160328461Y-120855734D01*
X160328461Y-120855734D02*
X160401668Y-120778414D01*
X160401668Y-120778414D02*
X160625405Y-120696980D01*
X160625405Y-120696980D02*
X160731186Y-120709154D01*
X160731186Y-120709154D02*
X160792220Y-120737615D01*
X160792220Y-120737615D02*
X160869541Y-120810823D01*
X160869541Y-120810823D02*
X160902114Y-120900317D01*
X160902114Y-120900317D02*
X160906227Y-121050846D01*
X160906227Y-121050846D02*
X160564699Y-121783253D01*
X160564699Y-121783253D02*
X161146414Y-121571526D01*
X161609845Y-120338673D02*
X161430856Y-120403820D01*
X161430856Y-120403820D02*
X161357648Y-120481141D01*
X161357648Y-120481141D02*
X161329187Y-120542175D01*
X161329187Y-120542175D02*
X161288553Y-120708990D01*
X161288553Y-120708990D02*
X161308952Y-120904266D01*
X161308952Y-120904266D02*
X161439245Y-121262244D01*
X161439245Y-121262244D02*
X161516566Y-121335452D01*
X161516566Y-121335452D02*
X161577600Y-121363912D01*
X161577600Y-121363912D02*
X161683381Y-121376086D01*
X161683381Y-121376086D02*
X161862370Y-121310939D01*
X161862370Y-121310939D02*
X161935578Y-121233619D01*
X161935578Y-121233619D02*
X161964039Y-121172585D01*
X161964039Y-121172585D02*
X161976213Y-121066804D01*
X161976213Y-121066804D02*
X161894779Y-120843067D01*
X161894779Y-120843067D02*
X161817459Y-120769859D01*
X161817459Y-120769859D02*
X161756425Y-120741399D01*
X161756425Y-120741399D02*
X161650644Y-120729225D01*
X161650644Y-120729225D02*
X161471654Y-120794372D01*
X161471654Y-120794372D02*
X161398447Y-120871692D01*
X161398447Y-120871692D02*
X161369986Y-120932726D01*
X161369986Y-120932726D02*
X161357812Y-121038507D01*
X188304819Y-89586904D02*
X189114342Y-89586904D01*
X189114342Y-89586904D02*
X189209580Y-89539285D01*
X189209580Y-89539285D02*
X189257200Y-89491666D01*
X189257200Y-89491666D02*
X189304819Y-89396428D01*
X189304819Y-89396428D02*
X189304819Y-89205952D01*
X189304819Y-89205952D02*
X189257200Y-89110714D01*
X189257200Y-89110714D02*
X189209580Y-89063095D01*
X189209580Y-89063095D02*
X189114342Y-89015476D01*
X189114342Y-89015476D02*
X188304819Y-89015476D01*
X188304819Y-88110714D02*
X188304819Y-88301190D01*
X188304819Y-88301190D02*
X188352438Y-88396428D01*
X188352438Y-88396428D02*
X188400057Y-88444047D01*
X188400057Y-88444047D02*
X188542914Y-88539285D01*
X188542914Y-88539285D02*
X188733390Y-88586904D01*
X188733390Y-88586904D02*
X189114342Y-88586904D01*
X189114342Y-88586904D02*
X189209580Y-88539285D01*
X189209580Y-88539285D02*
X189257200Y-88491666D01*
X189257200Y-88491666D02*
X189304819Y-88396428D01*
X189304819Y-88396428D02*
X189304819Y-88205952D01*
X189304819Y-88205952D02*
X189257200Y-88110714D01*
X189257200Y-88110714D02*
X189209580Y-88063095D01*
X189209580Y-88063095D02*
X189114342Y-88015476D01*
X189114342Y-88015476D02*
X188876247Y-88015476D01*
X188876247Y-88015476D02*
X188781009Y-88063095D01*
X188781009Y-88063095D02*
X188733390Y-88110714D01*
X188733390Y-88110714D02*
X188685771Y-88205952D01*
X188685771Y-88205952D02*
X188685771Y-88396428D01*
X188685771Y-88396428D02*
X188733390Y-88491666D01*
X188733390Y-88491666D02*
X188781009Y-88539285D01*
X188781009Y-88539285D02*
X188876247Y-88586904D01*
X163101469Y-121697260D02*
X162625371Y-121363794D01*
X162564501Y-121892700D02*
X162222481Y-120953007D01*
X162222481Y-120953007D02*
X162580459Y-120822714D01*
X162580459Y-120822714D02*
X162686241Y-120834888D01*
X162686241Y-120834888D02*
X162747275Y-120863348D01*
X162747275Y-120863348D02*
X162824595Y-120936556D01*
X162824595Y-120936556D02*
X162873455Y-121070798D01*
X162873455Y-121070798D02*
X162861281Y-121176579D01*
X162861281Y-121176579D02*
X162832821Y-121237613D01*
X162832821Y-121237613D02*
X162759613Y-121314934D01*
X162759613Y-121314934D02*
X162401635Y-121445227D01*
X163150000Y-120716768D02*
X163178461Y-120655734D01*
X163178461Y-120655734D02*
X163251668Y-120578414D01*
X163251668Y-120578414D02*
X163475405Y-120496980D01*
X163475405Y-120496980D02*
X163581186Y-120509154D01*
X163581186Y-120509154D02*
X163642220Y-120537615D01*
X163642220Y-120537615D02*
X163719541Y-120610823D01*
X163719541Y-120610823D02*
X163752114Y-120700317D01*
X163752114Y-120700317D02*
X163756227Y-120850846D01*
X163756227Y-120850846D02*
X163414699Y-121583253D01*
X163414699Y-121583253D02*
X163996414Y-121371526D01*
X163967625Y-120317827D02*
X164594086Y-120089813D01*
X164594086Y-120089813D02*
X164533381Y-121176086D01*
D12*
X188322500Y-123262742D02*
X188322500Y-123737258D01*
X187277500Y-123262742D02*
X187277500Y-123737258D01*
X173937742Y-109802500D02*
X174412258Y-109802500D01*
X173937742Y-110847500D02*
X174412258Y-110847500D01*
X187037500Y-154010000D02*
X190487500Y-154010000D01*
X187037500Y-154010000D02*
X185087500Y-154010000D01*
X187037500Y-148890000D02*
X188987500Y-148890000D01*
X187037500Y-148890000D02*
X185087500Y-148890000D01*
X163587258Y-97647500D02*
X163112742Y-97647500D01*
X163587258Y-96602500D02*
X163112742Y-96602500D01*
X162537742Y-99427500D02*
X163012258Y-99427500D01*
X162537742Y-100472500D02*
X163012258Y-100472500D01*
X194235000Y-105850242D02*
X194235000Y-106324758D01*
X193190000Y-105850242D02*
X193190000Y-106324758D01*
X176715000Y-137112500D02*
X176715000Y-138772500D01*
X177055000Y-136872500D02*
X177055000Y-137112500D01*
X177055000Y-137112500D02*
X176715000Y-137112500D01*
X178815000Y-137112500D02*
X179135000Y-137112500D01*
X181235000Y-137112500D02*
X180895000Y-137112500D01*
X181235000Y-138772500D02*
X181235000Y-137112500D01*
X189137258Y-145535000D02*
X188662742Y-145535000D01*
X189137258Y-144490000D02*
X188662742Y-144490000D01*
X180047936Y-151940000D02*
X181502064Y-151940000D01*
X180047936Y-153760000D02*
X181502064Y-153760000D01*
X163770000Y-111855000D02*
X161700000Y-111855000D01*
X163770000Y-111855000D02*
X163770000Y-112725000D01*
X164300000Y-116725000D02*
X164300000Y-117325000D01*
X164000000Y-117025000D02*
X164300000Y-116725000D01*
X164000000Y-117025000D02*
X164300000Y-117325000D01*
X163770000Y-118725000D02*
X163770000Y-119595000D01*
X163770000Y-119595000D02*
X161700000Y-119595000D01*
X183987258Y-86397500D02*
X183512742Y-86397500D01*
X183987258Y-85352500D02*
X183512742Y-85352500D01*
X188190000Y-103224758D02*
X188190000Y-102750242D01*
X189235000Y-103224758D02*
X189235000Y-102750242D01*
X169265000Y-154634375D02*
X169265000Y-156434375D01*
X169265000Y-154634375D02*
X169265000Y-153834375D01*
X172385000Y-154634375D02*
X172385000Y-155434375D01*
X172385000Y-154634375D02*
X172385000Y-153834375D01*
X187965643Y-120102500D02*
X188440159Y-120102500D01*
X187965643Y-121147500D02*
X188440159Y-121147500D01*
X164537500Y-127290000D02*
X162862500Y-127290000D01*
X164537500Y-127290000D02*
X165187500Y-127290000D01*
X164537500Y-130410000D02*
X163887500Y-130410000D01*
X164537500Y-130410000D02*
X165187500Y-130410000D01*
X173595000Y-163420000D02*
X173595000Y-164060000D01*
X173595000Y-164060000D02*
X173995000Y-164060000D01*
X173835000Y-157080000D02*
X173835000Y-163820000D01*
X173835000Y-157080000D02*
X184696000Y-157080000D01*
X173835000Y-158200000D02*
X184696000Y-158200000D01*
X173835000Y-163300000D02*
X184696000Y-163300000D01*
X173835000Y-163820000D02*
X184696000Y-163820000D01*
X184696000Y-157080000D02*
X184696000Y-163820000D01*
X193012258Y-109960000D02*
X192537742Y-109960000D01*
X193012258Y-108915000D02*
X192537742Y-108915000D01*
X166327500Y-98512258D02*
X166327500Y-98037742D01*
X167372500Y-98512258D02*
X167372500Y-98037742D01*
X193687258Y-150772500D02*
X193212742Y-150772500D01*
X193687258Y-149727500D02*
X193212742Y-149727500D01*
X168337742Y-115602500D02*
X168812258Y-115602500D01*
X168337742Y-116647500D02*
X168812258Y-116647500D01*
X169698891Y-95441954D02*
X169698891Y-94751954D01*
X169548891Y-94751954D02*
X169698891Y-94751954D01*
X169548891Y-94751954D02*
X169548891Y-84831954D01*
X179718891Y-94751954D02*
X179868891Y-94751954D01*
X179868891Y-94751954D02*
X179868891Y-84831954D01*
X169548891Y-84831954D02*
X169698891Y-84831954D01*
X179718891Y-84831954D02*
X179868891Y-84831954D01*
D13*
X189962500Y-106350000D02*
X190017500Y-106350000D01*
X189962500Y-106350000D02*
X189962500Y-105795000D01*
X192407500Y-106350000D02*
X192462500Y-106350000D01*
X192462500Y-106350000D02*
X192462500Y-105795000D01*
X189962500Y-103905000D02*
X189962500Y-103350000D01*
X192462500Y-103905000D02*
X192462500Y-103350000D01*
X189962500Y-103350000D02*
X190017500Y-103350000D01*
X192407500Y-103350000D02*
X192462500Y-103350000D01*
D10*
X190387500Y-106850000D02*
G75*
G03*
X190387500Y-106850000I-75000J0D01*
G01*
D12*
X193190000Y-103199758D02*
X193190000Y-102725242D01*
X194235000Y-103199758D02*
X194235000Y-102725242D01*
X186765000Y-146462500D02*
X186765000Y-148162500D01*
X186765000Y-146462500D02*
X190025000Y-146462500D01*
X186765000Y-148162500D02*
X190025000Y-148162500D01*
X175585000Y-142485436D02*
X175585000Y-143939564D01*
X173765000Y-142485436D02*
X173765000Y-143939564D01*
X175936727Y-81881780D02*
X175721055Y-81881780D01*
X175936727Y-81161780D02*
X175721055Y-81161780D01*
X171837258Y-160069375D02*
X171362742Y-160069375D01*
X171837258Y-159024375D02*
X171362742Y-159024375D01*
X189612500Y-128440000D02*
X187937500Y-128440000D01*
X189612500Y-128440000D02*
X190262500Y-128440000D01*
X189612500Y-131560000D02*
X188962500Y-131560000D01*
X189612500Y-131560000D02*
X190262500Y-131560000D01*
X183308891Y-74991954D02*
X183308891Y-80891954D01*
X172708891Y-80891954D02*
X183308891Y-80891954D01*
X172708891Y-74991954D02*
X172708891Y-80891954D01*
D14*
X178108891Y-81431954D02*
G75*
G03*
X178108891Y-81431954I-100000J0D01*
G01*
D12*
X187990643Y-118452500D02*
X188465159Y-118452500D01*
X187990643Y-119497500D02*
X188465159Y-119497500D01*
X182662258Y-110747500D02*
X182187742Y-110747500D01*
X182662258Y-109702500D02*
X182187742Y-109702500D01*
X163962258Y-87822500D02*
X163487742Y-87822500D01*
X163962258Y-86777500D02*
X163487742Y-86777500D01*
D15*
X185088000Y-148445500D02*
X185088000Y-147813040D01*
X185088000Y-144886960D02*
X185088000Y-144254500D01*
X185088000Y-144254500D02*
X180262000Y-144254500D01*
X183475000Y-148450000D02*
X183475000Y-144250000D01*
X180262000Y-148445500D02*
X185088000Y-148445500D01*
X180262000Y-147813040D02*
X180262000Y-148445500D01*
X180262000Y-144254500D02*
X180262000Y-144886960D01*
D12*
X180047936Y-149240000D02*
X181502064Y-149240000D01*
X180047936Y-151060000D02*
X181502064Y-151060000D01*
X193212742Y-148127500D02*
X193687258Y-148127500D01*
X193212742Y-149172500D02*
X193687258Y-149172500D01*
X175704407Y-127981666D02*
X176039940Y-127646133D01*
X176443334Y-128720593D02*
X176778867Y-128385060D01*
D15*
X192956601Y-118643900D02*
X190899201Y-118643900D01*
X190899201Y-121006100D02*
X192956601Y-121006100D01*
D14*
X193527902Y-120725000D02*
G75*
G03*
X193527902Y-120725000I-1J0D01*
G01*
D12*
X192562742Y-113465000D02*
X193037258Y-113465000D01*
X192562742Y-114510000D02*
X193037258Y-114510000D01*
X171837258Y-158319375D02*
X171362742Y-158319375D01*
X171837258Y-157274375D02*
X171362742Y-157274375D01*
X178730761Y-132697666D02*
X181064214Y-130364213D01*
X181064214Y-130364213D02*
X178235787Y-127535786D01*
X164030000Y-94480000D02*
X164355000Y-94480000D01*
X164030000Y-94805000D02*
X164030000Y-94480000D01*
X165570000Y-95695000D02*
X165570000Y-96020000D01*
X164030000Y-95695000D02*
X164030000Y-96020000D01*
X165570000Y-96020000D02*
X165245000Y-96020000D01*
X164030000Y-96020000D02*
X164355000Y-96020000D01*
D14*
X165550000Y-94600000D02*
G75*
G03*
X165550000Y-94600000I-100000J0D01*
G01*
D12*
X184787742Y-132127500D02*
X185262258Y-132127500D01*
X184787742Y-133172500D02*
X185262258Y-133172500D01*
X184695000Y-143512500D02*
X184695000Y-137502500D01*
X191515000Y-141262500D02*
X191515000Y-137502500D01*
X184695000Y-137502500D02*
X185955000Y-137502500D01*
X191515000Y-137502500D02*
X190255000Y-137502500D01*
X174680385Y-82392625D02*
X175154901Y-82392625D01*
X174680385Y-83437625D02*
X175154901Y-83437625D01*
X176537258Y-106122500D02*
X176062742Y-106122500D01*
X176537258Y-105077500D02*
X176062742Y-105077500D01*
D10*
X173525000Y-113850000D02*
X173525000Y-114425000D01*
X173525000Y-113850000D02*
X174200000Y-113850000D01*
X173525000Y-114425000D02*
X172250000Y-114425000D01*
X173525000Y-124200000D02*
X173525000Y-123525000D01*
X173525000Y-124200000D02*
X174200000Y-124200000D01*
X183875000Y-113850000D02*
X183200000Y-113850000D01*
X183875000Y-113850000D02*
X183875000Y-114525000D01*
X183875000Y-124200000D02*
X183200000Y-124200000D01*
X183875000Y-124200000D02*
X183875000Y-123525000D01*
D12*
X190075000Y-112825000D02*
X190075000Y-112825000D01*
X191775000Y-112825000D02*
X191775000Y-112825000D01*
X192275000Y-112825000D02*
X191775000Y-112825000D01*
X190075000Y-112325000D02*
X190075000Y-112825000D01*
X192275000Y-112325000D02*
X192275000Y-112825000D01*
X190075000Y-111125000D02*
X190075000Y-110625000D01*
X192275000Y-111125000D02*
X192275000Y-111125000D01*
X190075000Y-110625000D02*
X190575000Y-110625000D01*
X190575000Y-110625000D02*
X190575000Y-110625000D01*
X191775000Y-110625000D02*
X192275000Y-110625000D01*
X192275000Y-110625000D02*
X192275000Y-111125000D01*
X177621391Y-97429696D02*
X177621391Y-97904212D01*
X176576391Y-97429696D02*
X176576391Y-97904212D01*
X187990643Y-116802500D02*
X188465159Y-116802500D01*
X187990643Y-117847500D02*
X188465159Y-117847500D01*
X193212742Y-151527500D02*
X193687258Y-151527500D01*
X193212742Y-152572500D02*
X193687258Y-152572500D01*
X169797500Y-128637742D02*
X169797500Y-129112258D01*
X168752500Y-128637742D02*
X168752500Y-129112258D01*
X185287258Y-128072500D02*
X184812742Y-128072500D01*
X185287258Y-127027500D02*
X184812742Y-127027500D01*
X193687258Y-154172500D02*
X193212742Y-154172500D01*
X193687258Y-153127500D02*
X193212742Y-153127500D01*
X179321391Y-97454696D02*
X179321391Y-97929212D01*
X178276391Y-97454696D02*
X178276391Y-97929212D01*
X166712742Y-114002500D02*
X167187258Y-114002500D01*
X166712742Y-115047500D02*
X167187258Y-115047500D01*
X162412258Y-95772500D02*
X161937742Y-95772500D01*
X162412258Y-94727500D02*
X161937742Y-94727500D01*
X190012742Y-122127500D02*
X190487258Y-122127500D01*
X190012742Y-123172500D02*
X190487258Y-123172500D01*
X169162770Y-118806666D02*
X169498303Y-118471133D01*
X169901697Y-119545593D02*
X170237230Y-119210060D01*
X166952500Y-129112258D02*
X166952500Y-128637742D01*
X167997500Y-129112258D02*
X167997500Y-128637742D01*
X187987742Y-115102500D02*
X188462258Y-115102500D01*
X187987742Y-116147500D02*
X188462258Y-116147500D01*
X158905000Y-146590000D02*
X158265000Y-146590000D01*
X158265000Y-146590000D02*
X158265000Y-146990000D01*
X165245000Y-146830000D02*
X158505000Y-146830000D01*
X165245000Y-146830000D02*
X165245000Y-152610000D01*
X164125000Y-146830000D02*
X164125000Y-152610000D01*
X159025000Y-146830000D02*
X159025000Y-152610000D01*
X158505000Y-146830000D02*
X158505000Y-152610000D01*
X165245000Y-152610000D02*
X158505000Y-152610000D01*
X169798303Y-114162230D02*
X169462770Y-113826697D01*
X170537230Y-113423303D02*
X170201697Y-113087770D01*
X184937500Y-128540000D02*
X183262500Y-128540000D01*
X184937500Y-128540000D02*
X185587500Y-128540000D01*
X184937500Y-131660000D02*
X184287500Y-131660000D01*
X184937500Y-131660000D02*
X185587500Y-131660000D01*
X180331577Y-129103956D02*
X179996044Y-128768423D01*
X181070504Y-128365029D02*
X180734971Y-128029496D01*
X187187258Y-86397500D02*
X186712742Y-86397500D01*
X187187258Y-85352500D02*
X186712742Y-85352500D01*
X167875242Y-150627500D02*
X168349758Y-150627500D01*
X167875242Y-151672500D02*
X168349758Y-151672500D01*
X189987258Y-127972500D02*
X189512742Y-127972500D01*
X189987258Y-126927500D02*
X189512742Y-126927500D01*
X173851697Y-128362770D02*
X174187230Y-128698303D01*
X173112770Y-129101697D02*
X173448303Y-129437230D01*
X169140000Y-123145000D02*
X169140000Y-123780000D01*
X168505000Y-123145000D02*
X169140000Y-123145000D01*
X164360000Y-90287500D02*
X164360000Y-88487500D01*
X164360000Y-90287500D02*
X164360000Y-91087500D01*
X161240000Y-90287500D02*
X161240000Y-89487500D01*
X161240000Y-90287500D02*
X161240000Y-91087500D01*
X176177500Y-110087258D02*
X176177500Y-109612742D01*
X177222500Y-110087258D02*
X177222500Y-109612742D01*
X166062742Y-117202500D02*
X166537258Y-117202500D01*
X166062742Y-118247500D02*
X166537258Y-118247500D01*
X182165000Y-139877064D02*
X182165000Y-138422936D01*
X183985000Y-139877064D02*
X183985000Y-138422936D01*
X164375000Y-101215000D02*
X160925000Y-101215000D01*
X164375000Y-101215000D02*
X166325000Y-101215000D01*
X164375000Y-106335000D02*
X162425000Y-106335000D01*
X164375000Y-106335000D02*
X166325000Y-106335000D01*
X167372500Y-92987742D02*
X167372500Y-93462258D01*
X166327500Y-92987742D02*
X166327500Y-93462258D01*
X159740000Y-143962500D02*
X159740000Y-143372500D01*
X161960000Y-143962500D02*
X161960000Y-143372500D01*
X157640000Y-143372500D02*
X159740000Y-143372500D01*
X157640000Y-143372500D02*
X157640000Y-133252500D01*
X161960000Y-143372500D02*
X166860000Y-143372500D01*
X166860000Y-143372500D02*
X166860000Y-133252500D01*
X157640000Y-133252500D02*
X159740000Y-133252500D01*
X159740000Y-133252500D02*
X159740000Y-132662500D01*
X161960000Y-133252500D02*
X166860000Y-133252500D01*
X161960000Y-133252500D02*
X161960000Y-132662500D01*
X159740000Y-143962500D02*
G75*
G03*
X161960000Y-143962500I1110000J0D01*
G01*
X161960000Y-132662500D02*
G75*
G03*
X159740000Y-132662500I-1110000J0D01*
G01*
X166537258Y-120072500D02*
X166062742Y-120072500D01*
X166537258Y-119027500D02*
X166062742Y-119027500D01*
X171329407Y-127156666D02*
X171664940Y-126821133D01*
X172068334Y-127895593D02*
X172403867Y-127560060D01*
X162962258Y-108047500D02*
X162487742Y-108047500D01*
X162962258Y-107002500D02*
X162487742Y-107002500D01*
X189450242Y-132027500D02*
X189924758Y-132027500D01*
X189450242Y-133072500D02*
X189924758Y-133072500D01*
X163162258Y-93947500D02*
X162687742Y-93947500D01*
X163162258Y-92902500D02*
X162687742Y-92902500D01*
X161222500Y-127287742D02*
X161222500Y-127762258D01*
X160177500Y-127287742D02*
X160177500Y-127762258D01*
X189447500Y-109375242D02*
X189447500Y-109849758D01*
X188402500Y-109375242D02*
X188402500Y-109849758D01*
X161197500Y-124012742D02*
X161197500Y-124487258D01*
X160152500Y-124012742D02*
X160152500Y-124487258D01*
X182600000Y-87175000D02*
X183100000Y-87175000D01*
X187800000Y-87275000D02*
X187800000Y-88225000D01*
X182600000Y-87675000D02*
X182600000Y-87175000D01*
X187800000Y-89975000D02*
X187800000Y-90475000D01*
X187800000Y-90475000D02*
X187300000Y-90475000D01*
X183100000Y-90475000D02*
X182600000Y-90475000D01*
X182600000Y-90475000D02*
X182600000Y-89975000D01*
X161862500Y-124487258D02*
X161862500Y-124012742D01*
X162907500Y-124487258D02*
X162907500Y-124012742D01*
%LPC*%
G36*
X189296300Y-94223561D02*
G01*
X189301616Y-94243913D01*
X189308657Y-94273311D01*
X189316819Y-94309028D01*
X189325499Y-94348341D01*
X189334096Y-94388523D01*
X189342006Y-94426849D01*
X189348628Y-94460594D01*
X189353077Y-94485332D01*
X189358793Y-94526316D01*
X189364318Y-94578013D01*
X189369351Y-94636348D01*
X189373590Y-94697246D01*
X189376736Y-94756630D01*
X189378486Y-94810427D01*
X189378741Y-94832858D01*
X189378894Y-94893387D01*
X189056831Y-95738681D01*
X188734767Y-96583974D01*
X188743706Y-96617249D01*
X188749504Y-96637985D01*
X188753891Y-96652166D01*
X188755011Y-96655056D01*
X188762463Y-96654498D01*
X188781097Y-96649698D01*
X188808185Y-96641441D01*
X188840998Y-96630513D01*
X188844453Y-96629316D01*
X188931528Y-96599043D01*
X189057234Y-96598938D01*
X189106190Y-96599143D01*
X189143667Y-96600051D01*
X189172966Y-96601963D01*
X189197393Y-96605180D01*
X189220250Y-96610003D01*
X189241320Y-96615707D01*
X189338771Y-96651367D01*
X189429251Y-96699486D01*
X189511849Y-96759032D01*
X189585653Y-96828975D01*
X189649753Y-96908282D01*
X189703238Y-96995924D01*
X189745198Y-97090868D01*
X189774721Y-97192084D01*
X189781730Y-97227545D01*
X189792783Y-97332029D01*
X189790413Y-97437967D01*
X189775316Y-97543698D01*
X189748190Y-97647565D01*
X189709732Y-97747907D01*
X189660639Y-97843066D01*
X189601608Y-97931382D01*
X189533337Y-98011197D01*
X189456522Y-98080851D01*
X189408472Y-98115846D01*
X189361829Y-98146370D01*
X189320668Y-98171591D01*
X189282156Y-98192742D01*
X189243457Y-98211056D01*
X189201737Y-98227767D01*
X189154159Y-98244107D01*
X189097891Y-98261309D01*
X189030095Y-98280607D01*
X189028942Y-98280928D01*
X188988227Y-98292066D01*
X188951244Y-98301552D01*
X188916403Y-98309516D01*
X188882114Y-98316084D01*
X188846787Y-98321385D01*
X188808832Y-98325546D01*
X188766658Y-98328696D01*
X188718677Y-98330961D01*
X188663296Y-98332470D01*
X188598927Y-98333350D01*
X188523979Y-98333728D01*
X188436863Y-98333734D01*
X188373246Y-98333599D01*
X188297886Y-98333316D01*
X188225671Y-98332885D01*
X188158212Y-98332325D01*
X188097122Y-98331658D01*
X188044011Y-98330904D01*
X188000491Y-98330083D01*
X187968174Y-98329216D01*
X187948672Y-98328325D01*
X187946215Y-98328123D01*
X187920310Y-98326244D01*
X187906041Y-98327206D01*
X187900462Y-98331405D01*
X187900000Y-98334341D01*
X187897602Y-98350870D01*
X187890798Y-98379403D01*
X187880176Y-98418024D01*
X187866321Y-98464816D01*
X187849820Y-98517862D01*
X187831259Y-98575247D01*
X187811224Y-98635052D01*
X187790302Y-98695362D01*
X187784879Y-98710639D01*
X187767337Y-98759854D01*
X187751344Y-98804815D01*
X187737604Y-98843536D01*
X187726818Y-98874034D01*
X187719691Y-98894325D01*
X187717011Y-98902140D01*
X187717469Y-98904565D01*
X187723505Y-98896014D01*
X187733934Y-98878658D01*
X187747567Y-98854672D01*
X187763217Y-98826228D01*
X187779696Y-98795500D01*
X187795817Y-98764659D01*
X187810393Y-98735881D01*
X187822237Y-98711336D01*
X187826850Y-98701131D01*
X187849298Y-98650771D01*
X187867268Y-98613011D01*
X187881460Y-98586598D01*
X187892577Y-98570281D01*
X187901320Y-98562808D01*
X187904849Y-98561994D01*
X187912472Y-98568611D01*
X187914412Y-98587763D01*
X187910838Y-98618401D01*
X187901916Y-98659479D01*
X187887814Y-98709946D01*
X187874696Y-98751059D01*
X187821054Y-98890668D01*
X187756327Y-99020604D01*
X187680182Y-99141345D01*
X187592286Y-99253370D01*
X187492309Y-99357159D01*
X187397176Y-99439584D01*
X187362175Y-99465678D01*
X187319972Y-99494267D01*
X187274663Y-99522822D01*
X187230338Y-99548819D01*
X187191092Y-99569729D01*
X187171645Y-99578801D01*
X187099899Y-99608234D01*
X187036980Y-99630656D01*
X186979207Y-99646942D01*
X186922900Y-99657971D01*
X186864377Y-99664620D01*
X186799956Y-99667766D01*
X186798224Y-99667808D01*
X186756303Y-99668315D01*
X186716355Y-99667940D01*
X186682317Y-99666776D01*
X186658125Y-99664919D01*
X186654032Y-99664350D01*
X186551065Y-99640516D01*
X186452736Y-99603521D01*
X186360610Y-99554264D01*
X186276254Y-99493643D01*
X186201236Y-99422556D01*
X186171092Y-99387577D01*
X186135419Y-99341536D01*
X186107492Y-99300415D01*
X186084252Y-99259037D01*
X186062635Y-99212227D01*
X186051678Y-99185660D01*
X186028659Y-99125088D01*
X186012137Y-99072959D01*
X186001196Y-99024919D01*
X185994923Y-98976615D01*
X185992402Y-98923692D01*
X185992245Y-98903821D01*
X186309686Y-98903821D01*
X186313888Y-98949282D01*
X186321711Y-98986109D01*
X186348965Y-99064729D01*
X186389468Y-99137351D01*
X186443582Y-99204600D01*
X186456039Y-99217429D01*
X186513944Y-99269017D01*
X186572089Y-99307180D01*
X186633178Y-99333075D01*
X186699914Y-99347859D01*
X186772007Y-99352676D01*
X186811366Y-99352083D01*
X186844941Y-99349066D01*
X186879038Y-99342718D01*
X186919964Y-99332134D01*
X186925146Y-99330675D01*
X186999801Y-99307009D01*
X187066268Y-99279977D01*
X187127440Y-99247792D01*
X187186211Y-99208667D01*
X187245472Y-99160813D01*
X187308118Y-99102445D01*
X187330174Y-99080422D01*
X187372962Y-99036151D01*
X187407843Y-98997560D01*
X187438092Y-98960652D01*
X187466986Y-98921430D01*
X187497799Y-98875896D01*
X187497836Y-98875839D01*
X187521722Y-98839040D01*
X187543622Y-98804478D01*
X187561825Y-98774920D01*
X187574615Y-98753134D01*
X187579149Y-98744587D01*
X187591178Y-98725310D01*
X187602294Y-98717764D01*
X187610636Y-98722736D01*
X187613196Y-98730218D01*
X187617072Y-98728398D01*
X187626197Y-98714996D01*
X187639652Y-98691872D01*
X187656518Y-98660884D01*
X187675877Y-98623893D01*
X187696809Y-98582757D01*
X187718398Y-98539337D01*
X187739722Y-98495493D01*
X187759865Y-98453082D01*
X187777907Y-98413966D01*
X187792929Y-98380003D01*
X187804014Y-98353054D01*
X187810242Y-98334977D01*
X187811266Y-98329302D01*
X187804141Y-98326615D01*
X187783843Y-98323955D01*
X187751987Y-98321382D01*
X187710189Y-98318956D01*
X187660064Y-98316738D01*
X187603229Y-98314787D01*
X187541298Y-98313165D01*
X187475889Y-98311932D01*
X187408615Y-98311149D01*
X187341093Y-98310875D01*
X187319534Y-98310905D01*
X187241243Y-98312965D01*
X187155333Y-98318406D01*
X187066392Y-98326741D01*
X186979010Y-98337480D01*
X186897772Y-98350137D01*
X186835242Y-98362422D01*
X186736179Y-98389236D01*
X186646230Y-98423473D01*
X186566404Y-98464538D01*
X186497711Y-98511837D01*
X186441162Y-98564774D01*
X186400477Y-98618351D01*
X186387291Y-98642586D01*
X186371587Y-98676261D01*
X186355415Y-98714751D01*
X186342009Y-98750108D01*
X186323402Y-98808244D01*
X186312743Y-98858145D01*
X186309686Y-98903821D01*
X185992245Y-98903821D01*
X185992237Y-98902806D01*
X185997623Y-98805814D01*
X186014301Y-98714839D01*
X186043082Y-98627238D01*
X186084775Y-98540370D01*
X186122564Y-98477835D01*
X186186522Y-98392365D01*
X186261221Y-98315666D01*
X186346904Y-98247612D01*
X186443817Y-98188077D01*
X186552204Y-98136936D01*
X186672310Y-98094061D01*
X186804380Y-98059327D01*
X186948659Y-98032608D01*
X187000570Y-98025323D01*
X187048257Y-98020497D01*
X187108614Y-98016562D01*
X187179550Y-98013508D01*
X187258973Y-98011326D01*
X187344792Y-98010003D01*
X187434917Y-98009530D01*
X187527256Y-98009897D01*
X187619717Y-98011092D01*
X187710209Y-98013105D01*
X187796642Y-98015926D01*
X187876923Y-98019545D01*
X187948962Y-98023950D01*
X188010666Y-98029132D01*
X188023346Y-98030451D01*
X188053929Y-98032923D01*
X188096758Y-98035167D01*
X188149712Y-98037164D01*
X188210668Y-98038892D01*
X188277505Y-98040332D01*
X188348100Y-98041464D01*
X188420332Y-98042268D01*
X188492079Y-98042725D01*
X188561218Y-98042814D01*
X188625627Y-98042515D01*
X188683186Y-98041809D01*
X188731770Y-98040675D01*
X188769260Y-98039095D01*
X188788546Y-98037632D01*
X188894409Y-98023432D01*
X188994333Y-98003555D01*
X189086266Y-97978567D01*
X189168155Y-97949038D01*
X189237947Y-97915536D01*
X189245793Y-97911053D01*
X189318514Y-97860186D01*
X189382248Y-97797922D01*
X189436575Y-97724918D01*
X189481075Y-97641831D01*
X189515329Y-97549320D01*
X189537925Y-97453704D01*
X189544457Y-97413133D01*
X189547661Y-97379540D01*
X189547299Y-97348436D01*
X189543132Y-97315334D01*
X189534923Y-97275743D01*
X189526682Y-97241921D01*
X189498827Y-97150321D01*
X189464289Y-97071129D01*
X189422524Y-97003302D01*
X189372989Y-96945792D01*
X189372586Y-96945396D01*
X189324590Y-96904178D01*
X189271068Y-96868160D01*
X189216013Y-96839631D01*
X189163418Y-96820878D01*
X189149665Y-96817688D01*
X189103373Y-96811293D01*
X189053267Y-96809100D01*
X189005481Y-96811137D01*
X188968501Y-96816850D01*
X188948508Y-96822084D01*
X188921739Y-96829697D01*
X188891754Y-96838598D01*
X188862113Y-96847697D01*
X188836376Y-96855902D01*
X188818103Y-96862123D01*
X188810984Y-96865121D01*
X188812017Y-96872509D01*
X188816222Y-96891981D01*
X188823075Y-96921300D01*
X188832053Y-96958232D01*
X188842633Y-97000541D01*
X188843350Y-97003371D01*
X188877949Y-97139779D01*
X188717273Y-97549562D01*
X188688228Y-97623499D01*
X188660684Y-97693349D01*
X188635128Y-97757894D01*
X188612048Y-97815913D01*
X188591932Y-97866188D01*
X188575268Y-97907499D01*
X188562544Y-97938627D01*
X188554247Y-97958352D01*
X188550913Y-97965415D01*
X188548682Y-97965356D01*
X188545231Y-97960708D01*
X188540150Y-97950389D01*
X188533033Y-97933317D01*
X188523472Y-97908409D01*
X188511059Y-97874582D01*
X188495385Y-97830756D01*
X188476045Y-97775847D01*
X188452629Y-97708773D01*
X188433725Y-97654381D01*
X188418658Y-97611470D01*
X188405082Y-97573748D01*
X188393773Y-97543290D01*
X188385505Y-97522176D01*
X188381054Y-97512484D01*
X188380641Y-97512088D01*
X188377054Y-97518681D01*
X188369665Y-97536830D01*
X188359413Y-97564084D01*
X188347235Y-97597989D01*
X188341477Y-97614475D01*
X188328761Y-97650464D01*
X188317443Y-97679887D01*
X188305906Y-97705779D01*
X188292535Y-97731171D01*
X188275715Y-97759096D01*
X188253830Y-97792585D01*
X188225265Y-97834673D01*
X188220380Y-97841805D01*
X188194458Y-97879585D01*
X188171436Y-97913062D01*
X188152599Y-97940374D01*
X188139233Y-97959657D01*
X188132620Y-97969052D01*
X188132178Y-97969632D01*
X188124886Y-97967849D01*
X188105604Y-97961362D01*
X188076129Y-97950825D01*
X188038256Y-97936890D01*
X187993779Y-97920212D01*
X187944496Y-97901442D01*
X187940858Y-97900046D01*
X187883779Y-97877986D01*
X187839150Y-97860352D01*
X187805536Y-97846479D01*
X187781503Y-97835705D01*
X187765615Y-97827365D01*
X187756437Y-97820796D01*
X187752533Y-97815336D01*
X187752111Y-97812806D01*
X187753685Y-97793471D01*
X187758051Y-97762449D01*
X187764674Y-97722463D01*
X187773019Y-97676235D01*
X187782551Y-97626489D01*
X187792735Y-97575946D01*
X187803037Y-97527331D01*
X187812921Y-97483365D01*
X187821853Y-97446772D01*
X187829110Y-97420863D01*
X187838686Y-97388500D01*
X187844896Y-97363436D01*
X187847238Y-97347996D01*
X187845721Y-97344209D01*
X187837667Y-97348652D01*
X187818363Y-97359879D01*
X187789232Y-97377048D01*
X187751692Y-97399315D01*
X187707166Y-97425838D01*
X187657074Y-97455772D01*
X187602837Y-97488275D01*
X187589812Y-97496093D01*
X187535111Y-97528809D01*
X187484442Y-97558865D01*
X187439182Y-97585462D01*
X187400710Y-97607802D01*
X187370404Y-97625085D01*
X187349643Y-97636512D01*
X187339806Y-97641285D01*
X187339211Y-97641342D01*
X187341251Y-97634071D01*
X187348223Y-97614165D01*
X187359695Y-97582769D01*
X187375235Y-97541031D01*
X187394410Y-97490097D01*
X187416789Y-97431112D01*
X187441939Y-97365222D01*
X187469427Y-97293575D01*
X187498822Y-97217316D01*
X187512054Y-97183096D01*
X187688162Y-96728116D01*
X187716357Y-96708353D01*
X188770390Y-96708353D01*
X188771419Y-96723973D01*
X188774232Y-96736923D01*
X188780061Y-96757673D01*
X188785530Y-96772025D01*
X188787142Y-96774644D01*
X188795953Y-96774903D01*
X188814978Y-96770561D01*
X188840688Y-96762493D01*
X188850976Y-96758817D01*
X188933040Y-96734743D01*
X189016878Y-96722995D01*
X189099976Y-96722604D01*
X189134471Y-96724896D01*
X189162253Y-96728431D01*
X189188193Y-96734363D01*
X189217159Y-96743846D01*
X189254022Y-96758034D01*
X189260582Y-96760659D01*
X189323054Y-96788566D01*
X189375615Y-96818637D01*
X189403644Y-96838234D01*
X189432140Y-96858295D01*
X189455363Y-96872146D01*
X189470816Y-96878364D01*
X189474196Y-96878414D01*
X189486670Y-96882222D01*
X189504465Y-96897234D01*
X189526105Y-96921523D01*
X189550109Y-96953161D01*
X189574999Y-96990221D01*
X189599295Y-97030774D01*
X189618068Y-97065938D01*
X189652307Y-97150043D01*
X189674504Y-97241370D01*
X189684405Y-97338209D01*
X189681755Y-97438850D01*
X189678271Y-97471150D01*
X189673278Y-97507216D01*
X189667971Y-97540441D01*
X189663080Y-97566484D01*
X189660188Y-97578481D01*
X189654221Y-97600311D01*
X189653095Y-97611488D01*
X189656710Y-97615300D01*
X189659074Y-97615502D01*
X189663890Y-97608879D01*
X189670850Y-97591283D01*
X189678661Y-97566125D01*
X189680822Y-97558195D01*
X189692336Y-97506635D01*
X189701330Y-97450384D01*
X189707290Y-97394212D01*
X189709700Y-97342892D01*
X189708295Y-97303592D01*
X189698656Y-97242695D01*
X189681793Y-97175632D01*
X189659350Y-97108072D01*
X189634341Y-97048556D01*
X189619709Y-97018375D01*
X189606289Y-96993015D01*
X189592246Y-96969860D01*
X189575742Y-96946295D01*
X189554939Y-96919705D01*
X189528000Y-96887475D01*
X189493089Y-96846988D01*
X189491269Y-96844893D01*
X189444265Y-96794322D01*
X189399304Y-96754413D01*
X189352299Y-96722369D01*
X189299164Y-96695393D01*
X189237695Y-96671351D01*
X189196015Y-96657584D01*
X189161347Y-96648788D01*
X189127309Y-96643665D01*
X189088230Y-96640948D01*
X189040273Y-96640676D01*
X188992171Y-96644631D01*
X188941088Y-96653366D01*
X188884187Y-96667436D01*
X188818633Y-96687393D01*
X188775059Y-96702046D01*
X188770390Y-96708353D01*
X187716357Y-96708353D01*
X187940609Y-96551168D01*
X188193055Y-96374219D01*
X188479711Y-95558485D01*
X188527710Y-95422073D01*
X188571104Y-95299135D01*
X188610081Y-95189158D01*
X188644828Y-95091626D01*
X188675535Y-95006024D01*
X188702388Y-94931835D01*
X188725577Y-94868547D01*
X188745289Y-94815642D01*
X188761712Y-94772606D01*
X188775035Y-94738924D01*
X188785445Y-94714080D01*
X188793131Y-94697559D01*
X188795909Y-94692433D01*
X188828048Y-94643672D01*
X188869821Y-94589578D01*
X188918664Y-94533180D01*
X188972015Y-94477510D01*
X189002274Y-94448371D01*
X189025484Y-94427415D01*
X189054752Y-94402088D01*
X189088273Y-94373837D01*
X189124242Y-94344111D01*
X189160856Y-94314356D01*
X189196308Y-94286019D01*
X189228794Y-94260549D01*
X189256509Y-94239392D01*
X189277648Y-94223996D01*
X189290406Y-94215808D01*
X189293309Y-94214979D01*
X189296300Y-94223561D01*
G37*
D16*
X187800000Y-122675000D03*
X187800000Y-124325000D03*
D17*
X173350000Y-110325000D03*
X175000000Y-110325000D03*
D18*
X189612500Y-153355000D03*
X189612500Y-152085000D03*
X189612500Y-150815000D03*
X189612500Y-149545000D03*
X184462500Y-149545000D03*
X184462500Y-150815000D03*
X184462500Y-152085000D03*
X184462500Y-153355000D03*
D19*
X164175000Y-97125000D03*
X162525000Y-97125000D03*
D17*
X161950000Y-99950000D03*
X163600000Y-99950000D03*
D16*
X193712500Y-105262500D03*
X193712500Y-106912500D03*
D20*
X177935000Y-137507500D03*
X180015000Y-137507500D03*
D21*
X178975000Y-141312500D03*
D19*
X189725000Y-145012500D03*
X188075000Y-145012500D03*
D22*
X179312500Y-152850000D03*
X182237500Y-152850000D03*
D23*
X163175000Y-117025000D03*
X163175000Y-116375000D03*
X163175000Y-115725000D03*
X163175000Y-115075000D03*
X163175000Y-114425000D03*
D24*
X160500000Y-111550000D03*
D25*
X160500000Y-111987500D03*
D26*
X163500000Y-113500000D03*
D27*
X160500000Y-115725000D03*
D26*
X163500000Y-117950000D03*
D25*
X160500000Y-119462500D03*
D24*
X160500000Y-119900000D03*
D19*
X184575000Y-85875000D03*
X182925000Y-85875000D03*
D28*
X188712500Y-103812500D03*
X188712500Y-102162500D03*
D29*
X169875000Y-155771875D03*
X170825000Y-155771875D03*
X171775000Y-155771875D03*
X171775000Y-153496875D03*
X169875000Y-153496875D03*
D17*
X187377901Y-120625000D03*
X189027901Y-120625000D03*
D30*
X163600000Y-127900000D03*
X163600000Y-129800000D03*
X165475000Y-128850000D03*
D31*
X175455000Y-160450000D03*
D32*
X177995000Y-160450000D03*
X180535000Y-160450000D03*
X183075000Y-160450000D03*
D33*
X177039102Y-82920333D03*
X178009102Y-82920333D03*
D19*
X193600000Y-109437500D03*
X191950000Y-109437500D03*
D28*
X166850000Y-99100000D03*
X166850000Y-97450000D03*
D19*
X194275000Y-150250000D03*
X192625000Y-150250000D03*
D17*
X167750000Y-116125000D03*
X169400000Y-116125000D03*
D34*
X170308891Y-94541954D03*
D35*
X171408891Y-94541954D03*
X172508891Y-94541954D03*
X173608891Y-94541954D03*
X174708891Y-94541954D03*
X175808891Y-94541954D03*
X176908891Y-94541954D03*
X178008891Y-94541954D03*
D34*
X179108891Y-94541954D03*
X179108891Y-85041954D03*
D35*
X178008891Y-85041954D03*
X176908891Y-85041954D03*
X175808891Y-85041954D03*
X174708891Y-85041954D03*
X173608891Y-85041954D03*
X172508891Y-85041954D03*
X171408891Y-85041954D03*
D34*
X170308891Y-85041954D03*
D36*
X190462500Y-106012500D03*
X190962500Y-106012500D03*
X191462500Y-106012500D03*
X191962500Y-106012500D03*
D37*
X192125000Y-105350000D03*
X192125000Y-104850000D03*
X192125000Y-104350000D03*
D36*
X191962500Y-103687500D03*
X191462500Y-103687500D03*
X190962500Y-103687500D03*
X190462500Y-103687500D03*
D37*
X190300000Y-104350000D03*
X190300000Y-104850000D03*
X190300000Y-105350000D03*
D28*
X193712500Y-103787500D03*
X193712500Y-102137500D03*
D38*
X187525000Y-147312500D03*
X190025000Y-147312500D03*
D39*
X174675000Y-141750000D03*
X174675000Y-144675000D03*
D40*
X176308891Y-81521780D03*
X175348891Y-81521780D03*
D19*
X172425000Y-159546875D03*
X170775000Y-159546875D03*
D30*
X188675000Y-129050000D03*
X188675000Y-130950000D03*
X190550000Y-130000000D03*
D41*
X178008891Y-77791954D03*
D42*
X182268891Y-77441954D03*
X173748891Y-77441954D03*
D17*
X187402901Y-118975000D03*
X189052901Y-118975000D03*
D19*
X183250000Y-110225000D03*
X181600000Y-110225000D03*
X164550000Y-87300000D03*
X162900000Y-87300000D03*
D43*
X184884800Y-146350000D03*
X180465200Y-146350000D03*
D44*
X190775000Y-81350000D03*
D45*
X190775000Y-81350000D03*
D22*
X179312500Y-150150000D03*
X182237500Y-150150000D03*
D17*
X192625000Y-148650000D03*
X194275000Y-148650000D03*
D46*
X175658274Y-128766726D03*
X176825000Y-127600000D03*
D47*
X192905801Y-120324999D03*
X192905801Y-119325001D03*
X190950001Y-119325001D03*
X190950001Y-120324999D03*
D17*
X191975000Y-113987500D03*
X193625000Y-113987500D03*
D19*
X172425000Y-157796875D03*
X170775000Y-157796875D03*
D48*
X179862132Y-130293503D03*
X178306497Y-128737868D03*
X177104416Y-129939949D03*
X178660051Y-131495584D03*
D49*
X165200000Y-94850000D03*
X165200000Y-95250000D03*
X165200000Y-95650000D03*
X164800000Y-94850000D03*
X164800000Y-95250000D03*
X164800000Y-95650000D03*
X164400000Y-94850000D03*
X164400000Y-95250000D03*
X164400000Y-95650000D03*
D17*
X184200000Y-132650000D03*
X185850000Y-132650000D03*
D50*
X185565000Y-142512500D03*
X186835000Y-142512500D03*
X188105000Y-142512500D03*
X189375000Y-142512500D03*
X190645000Y-142512500D03*
D51*
X188105000Y-136212500D03*
D17*
X174092643Y-82915125D03*
X175742643Y-82915125D03*
D19*
X177125000Y-105600000D03*
X175475000Y-105600000D03*
D52*
X173000000Y-115025000D03*
X173000000Y-115825000D03*
X173000000Y-116625000D03*
X173000000Y-117425000D03*
X173000000Y-118225000D03*
X173000000Y-119025000D03*
X173000000Y-119825000D03*
X173000000Y-120625000D03*
X173000000Y-121425000D03*
X173000000Y-122225000D03*
X173000000Y-123025000D03*
D53*
X174700000Y-124725000D03*
X175500000Y-124725000D03*
X176300000Y-124725000D03*
X177100000Y-124725000D03*
X177900000Y-124725000D03*
X178700000Y-124725000D03*
X179500000Y-124725000D03*
X180300000Y-124725000D03*
X181100000Y-124725000D03*
X181900000Y-124725000D03*
X182700000Y-124725000D03*
D52*
X184400000Y-123025000D03*
X184400000Y-122225000D03*
X184400000Y-121425000D03*
X184400000Y-120625000D03*
X184400000Y-119825000D03*
X184400000Y-119025000D03*
X184400000Y-118225000D03*
X184400000Y-117425000D03*
X184400000Y-116625000D03*
X184400000Y-115825000D03*
X184400000Y-115025000D03*
D53*
X182700000Y-113325000D03*
X181900000Y-113325000D03*
X181100000Y-113325000D03*
X180300000Y-113325000D03*
X179500000Y-113325000D03*
X178700000Y-113325000D03*
X177900000Y-113325000D03*
X177100000Y-113325000D03*
X176300000Y-113325000D03*
X175500000Y-113325000D03*
X174700000Y-113325000D03*
D54*
X190425000Y-112487500D03*
X190925000Y-112487500D03*
X191425000Y-112487500D03*
X191925000Y-112487500D03*
D55*
X191937500Y-111975000D03*
X191937500Y-111475000D03*
D54*
X191925000Y-110962500D03*
X191425000Y-110962500D03*
X190925000Y-110962500D03*
X190425000Y-110962500D03*
D55*
X190412500Y-111475000D03*
X190412500Y-111975000D03*
D44*
X165375000Y-157550000D03*
D45*
X165375000Y-157550000D03*
D16*
X177098891Y-96841954D03*
X177098891Y-98491954D03*
D17*
X187402901Y-117325000D03*
X189052901Y-117325000D03*
X192625000Y-152050000D03*
X194275000Y-152050000D03*
D16*
X169275000Y-128050000D03*
X169275000Y-129700000D03*
D19*
X185875000Y-127550000D03*
X184225000Y-127550000D03*
X194275000Y-153650000D03*
X192625000Y-153650000D03*
D16*
X178798891Y-96866954D03*
X178798891Y-98516954D03*
D17*
X166125000Y-114525000D03*
X167775000Y-114525000D03*
D19*
X163000000Y-95250000D03*
X161350000Y-95250000D03*
D17*
X189425000Y-122650000D03*
X191075000Y-122650000D03*
D46*
X169116637Y-119591726D03*
X170283363Y-118425000D03*
D28*
X167475000Y-129700000D03*
X167475000Y-128050000D03*
D17*
X187400000Y-115625000D03*
X189050000Y-115625000D03*
D31*
X161875000Y-148450000D03*
D32*
X161875000Y-150990000D03*
D56*
X170583363Y-114208363D03*
X169416637Y-113041637D03*
D30*
X184000000Y-129150000D03*
X184000000Y-131050000D03*
X185875000Y-130100000D03*
D56*
X181116637Y-129150089D03*
X179949911Y-127983363D03*
D19*
X187775000Y-85875000D03*
X186125000Y-85875000D03*
D17*
X167287500Y-151150000D03*
X168937500Y-151150000D03*
D19*
X190575000Y-127450000D03*
X188925000Y-127450000D03*
D44*
X165375000Y-81350000D03*
D45*
X165375000Y-81350000D03*
D57*
X173066637Y-128316637D03*
X174233363Y-129483363D03*
D58*
X169775000Y-124415000D03*
X164695000Y-125431000D03*
X164695000Y-123399000D03*
D59*
X168505000Y-123780000D03*
X168505000Y-125050000D03*
X167235000Y-123780000D03*
X167235000Y-125050000D03*
X165965000Y-123780000D03*
X165965000Y-125050000D03*
D60*
X163750000Y-89150000D03*
X162800000Y-89150000D03*
X161850000Y-89150000D03*
X161850000Y-91425000D03*
X163750000Y-91425000D03*
D28*
X176700000Y-110675000D03*
X176700000Y-109025000D03*
D17*
X165475000Y-117725000D03*
X167125000Y-117725000D03*
D44*
X190775000Y-157550000D03*
D45*
X190775000Y-157550000D03*
D61*
X183075000Y-140612500D03*
X183075000Y-137687500D03*
D62*
X161900000Y-101870000D03*
X161900000Y-103140000D03*
X161900000Y-104410000D03*
X161900000Y-105680000D03*
X166850000Y-105680000D03*
X166850000Y-104410000D03*
X166850000Y-103140000D03*
X166850000Y-101870000D03*
D16*
X166850000Y-92400000D03*
X166850000Y-94050000D03*
D63*
X160850000Y-143812500D03*
X160850000Y-132812500D03*
D64*
X170850000Y-135812500D03*
D65*
X170850000Y-140812500D03*
D19*
X167125000Y-119550000D03*
X165475000Y-119550000D03*
D46*
X171283274Y-127941726D03*
X172450000Y-126775000D03*
D19*
X163550000Y-107525000D03*
X161900000Y-107525000D03*
D17*
X188862500Y-132550000D03*
X190512500Y-132550000D03*
D19*
X163750000Y-93425000D03*
X162100000Y-93425000D03*
D16*
X160700000Y-126700000D03*
X160700000Y-128350000D03*
X188925000Y-108787500D03*
X188925000Y-110437500D03*
X160675000Y-123425000D03*
X160675000Y-125075000D03*
D66*
X187075000Y-87750000D03*
X185825000Y-87750000D03*
X184575000Y-87750000D03*
X183325000Y-87750000D03*
X183325000Y-89900000D03*
X184575000Y-89900000D03*
X185825000Y-89900000D03*
X187075000Y-89900000D03*
D28*
X162385000Y-125075000D03*
X162385000Y-123425000D03*
D67*
X194650000Y-88055000D03*
X194650000Y-96575000D03*
%LPD*%
M02*
