G04 #@! TF.GenerationSoftware,KiCad,Pcbnew,7.0.6*
G04 #@! TF.CreationDate,2023-10-28T16:57:55-05:00*
G04 #@! TF.ProjectId,FC,46432e6b-6963-4616-945f-706362585858,V1*
G04 #@! TF.SameCoordinates,Original*
G04 #@! TF.FileFunction,Copper,L2,Inr*
G04 #@! TF.FilePolarity,Positive*
%FSLAX46Y46*%
G04 Gerber Fmt 4.6, Leading zero omitted, Abs format (unit mm)*
G04 Created by KiCad (PCBNEW 7.0.6) date 2023-10-28 16:57:55*
%MOMM*%
%LPD*%
G01*
G04 APERTURE LIST*
G04 #@! TA.AperFunction,ComponentPad*
%ADD10O,1.900000X1.000000*%
G04 #@! TD*
G04 #@! TA.AperFunction,ComponentPad*
%ADD11O,1.250000X1.050000*%
G04 #@! TD*
G04 #@! TA.AperFunction,ComponentPad*
%ADD12R,2.100000X2.100000*%
G04 #@! TD*
G04 #@! TA.AperFunction,ComponentPad*
%ADD13C,2.100000*%
G04 #@! TD*
G04 #@! TA.AperFunction,ComponentPad*
%ADD14C,3.600000*%
G04 #@! TD*
G04 #@! TA.AperFunction,ComponentPad*
%ADD15C,1.400000*%
G04 #@! TD*
G04 #@! TA.AperFunction,ComponentPad*
%ADD16R,3.500000X3.500000*%
G04 #@! TD*
G04 #@! TA.AperFunction,ComponentPad*
%ADD17C,3.500000*%
G04 #@! TD*
G04 #@! TA.AperFunction,ViaPad*
%ADD18C,0.700000*%
G04 #@! TD*
G04 #@! TA.AperFunction,ViaPad*
%ADD19C,0.500000*%
G04 #@! TD*
G04 APERTURE END LIST*
D10*
X160500000Y-111550000D03*
D11*
X163500000Y-113500000D03*
X163500000Y-117950000D03*
D10*
X160500000Y-119900000D03*
D12*
X175455000Y-160450000D03*
D13*
X177995000Y-160450000D03*
X180535000Y-160450000D03*
X183075000Y-160450000D03*
D14*
X190775000Y-81350000D03*
X165375000Y-157550000D03*
D12*
X161875000Y-148450000D03*
D13*
X161875000Y-150990000D03*
D14*
X165375000Y-81350000D03*
X190775000Y-157550000D03*
D15*
X160850000Y-143812500D03*
X160850000Y-132812500D03*
D16*
X170850000Y-135812500D03*
D17*
X170850000Y-140812500D03*
D18*
X185100000Y-76850000D03*
X187100000Y-76850000D03*
X191100000Y-76850000D03*
X169100000Y-80850000D03*
X175100000Y-134850000D03*
X175300000Y-130850000D03*
X193600000Y-124250000D03*
X169275000Y-130750000D03*
X179950000Y-98500000D03*
X167100000Y-110850000D03*
X181602048Y-109252586D03*
X160900000Y-107550000D03*
X174100000Y-149150000D03*
X195100000Y-84850000D03*
X161100000Y-134850000D03*
X194875000Y-103850000D03*
X169675000Y-159496875D03*
X162375000Y-122325000D03*
X170600000Y-109150000D03*
X194700000Y-90150000D03*
X187100000Y-158850000D03*
X175100000Y-86850000D03*
X181100000Y-80850000D03*
X161100000Y-80850000D03*
X161100000Y-156850000D03*
X169100000Y-160850000D03*
X165100000Y-76850000D03*
X187100000Y-80850000D03*
X169100000Y-82850000D03*
X177100000Y-88850000D03*
X177100000Y-90850000D03*
X175100000Y-90850000D03*
X175700000Y-109550000D03*
X175100000Y-136850000D03*
X163100000Y-108850000D03*
X190100000Y-90150000D03*
X191275000Y-150750000D03*
X161150000Y-93425000D03*
X193675000Y-114950000D03*
X189100000Y-138850000D03*
X194600000Y-86550000D03*
X185100000Y-78850000D03*
X162175000Y-127850000D03*
X191975000Y-108450000D03*
X171100000Y-78850000D03*
X165100000Y-110850000D03*
X161100000Y-84850000D03*
X181100000Y-86850000D03*
X182100000Y-130150000D03*
X171100000Y-76850000D03*
X187100000Y-82850000D03*
X165200000Y-93475000D03*
X187175000Y-149550000D03*
X179100000Y-88850000D03*
X193100000Y-84850000D03*
X186125000Y-84825000D03*
X195100000Y-160850000D03*
X181100000Y-88850000D03*
X181600000Y-99850000D03*
X195100000Y-100850000D03*
X175900000Y-121850000D03*
X187100000Y-156850000D03*
X165975000Y-125950000D03*
X195100000Y-156850000D03*
X163100000Y-110850000D03*
X193100000Y-76850000D03*
X169100000Y-110850000D03*
X187100000Y-160850000D03*
X169850000Y-106275000D03*
X186975000Y-145012500D03*
X173100000Y-88850000D03*
X185100000Y-82850000D03*
X187175000Y-152250000D03*
X193100000Y-100850000D03*
X185100000Y-80850000D03*
X188800000Y-124325000D03*
X174421984Y-81511327D03*
X169850000Y-92275000D03*
X161100000Y-160850000D03*
X167100000Y-84850000D03*
X187175000Y-150450000D03*
X194600000Y-98050000D03*
X175100000Y-118850000D03*
X191050000Y-94675000D03*
X172300000Y-77450000D03*
X179175000Y-86650000D03*
X164175000Y-119550000D03*
X161100000Y-78850000D03*
X195100000Y-76850000D03*
X191275000Y-153450000D03*
X161100000Y-140850000D03*
X164100000Y-114425000D03*
X187100000Y-78850000D03*
X181100000Y-82850000D03*
X195100000Y-111350000D03*
X181100000Y-84850000D03*
X183600000Y-135450000D03*
X183075000Y-127550000D03*
X194300000Y-94150000D03*
X177900000Y-99441954D03*
X195100000Y-78850000D03*
X191100000Y-84850000D03*
X169100000Y-78850000D03*
X187875000Y-127450000D03*
X187175000Y-153150000D03*
X163100000Y-84850000D03*
X179100000Y-90850000D03*
X195100000Y-158850000D03*
X194875000Y-105250000D03*
X169100000Y-76850000D03*
X161100000Y-82850000D03*
X161100000Y-76850000D03*
X168100000Y-136850000D03*
X187100000Y-136850000D03*
X162525000Y-98150000D03*
X165100000Y-108850000D03*
X169575000Y-94550000D03*
X168800000Y-112408363D03*
X161100000Y-154850000D03*
X168100000Y-134850000D03*
X183700000Y-77450000D03*
X187100000Y-138850000D03*
X176875000Y-86650000D03*
X173475000Y-130250000D03*
X187175000Y-151350000D03*
X161100000Y-138850000D03*
X195100000Y-98850000D03*
X171100000Y-88850000D03*
X171100000Y-80850000D03*
X169100000Y-118125000D03*
X189100000Y-84850000D03*
X167100000Y-76850000D03*
X163100000Y-76850000D03*
X193600000Y-122750000D03*
X162900000Y-86100000D03*
X189100000Y-76850000D03*
X161100000Y-136850000D03*
X161100000Y-158850000D03*
X193100000Y-98850000D03*
X169675000Y-157796875D03*
X175100000Y-88850000D03*
X195100000Y-116250000D03*
X194875000Y-106950000D03*
X191050000Y-96475000D03*
X172025000Y-128675000D03*
X164600000Y-107550000D03*
X165650000Y-99100000D03*
X164200000Y-98175000D03*
X189875000Y-102150000D03*
X194875000Y-102150000D03*
X193575000Y-108450000D03*
X168200000Y-118625000D03*
X191675000Y-142912500D03*
X191150000Y-99975000D03*
X192275000Y-122650000D03*
X191675000Y-141812500D03*
X164550000Y-86050000D03*
X189975000Y-108750000D03*
X192927901Y-121225000D03*
X190675000Y-145012500D03*
X168475000Y-125950000D03*
X173500000Y-104950000D03*
X184575000Y-84850000D03*
X164550000Y-99950000D03*
X187775000Y-84825000D03*
X183249879Y-109225614D03*
X191675000Y-145012500D03*
X180000000Y-96900000D03*
X175100000Y-116850000D03*
X191675000Y-143912500D03*
X165700000Y-92400000D03*
X191975000Y-114950000D03*
X181075000Y-117750000D03*
X172975000Y-155750000D03*
X167100000Y-120550000D03*
X182275000Y-131450000D03*
X174575000Y-132550000D03*
X193275000Y-130250000D03*
X179675000Y-117550000D03*
X174375000Y-123250000D03*
X160685000Y-122325000D03*
D19*
X174800000Y-102150000D03*
X169150000Y-100650000D03*
D18*
X171375000Y-123050000D03*
D19*
X184375000Y-103550000D03*
X182375000Y-101450000D03*
X186175000Y-106850000D03*
X184675000Y-106850000D03*
D18*
X171475000Y-121450000D03*
D19*
X175800000Y-103950000D03*
D18*
X169175000Y-103050000D03*
D19*
X183875000Y-105650000D03*
X183675000Y-103950000D03*
X182475000Y-102650000D03*
X186175000Y-105650000D03*
D18*
X174400000Y-122150000D03*
D19*
X176900000Y-103050000D03*
D18*
X168775000Y-105650000D03*
X167275000Y-125950000D03*
D19*
X173350000Y-126750000D03*
X166000000Y-122900000D03*
D18*
X190700000Y-115650000D03*
X182975000Y-117250000D03*
X191675000Y-127450000D03*
X182975000Y-118950000D03*
X186975000Y-127550000D03*
D19*
X185900000Y-111650000D03*
X187600000Y-109950000D03*
X182600000Y-105700000D03*
X186200000Y-103800000D03*
X179900000Y-101200000D03*
X180500000Y-105550000D03*
X179700000Y-105400000D03*
X170650000Y-108200000D03*
X161900000Y-100900000D03*
X174450000Y-98800000D03*
X177350000Y-121650000D03*
X166200000Y-95250000D03*
X174600000Y-97650000D03*
X168450000Y-95300000D03*
X178150000Y-121650000D03*
X192000000Y-107050000D03*
X180300000Y-122350000D03*
X193300000Y-112050000D03*
X181900000Y-123450000D03*
X174900000Y-115550000D03*
X179000000Y-116150000D03*
X176600000Y-114750000D03*
X179200000Y-114850000D03*
X178900000Y-106850000D03*
X173400000Y-106100000D03*
X169150000Y-107450000D03*
X165350000Y-103600000D03*
D18*
X183275000Y-150150000D03*
X187775000Y-132550000D03*
X183075000Y-132650000D03*
X183275000Y-152750000D03*
X175100000Y-139850000D03*
X173100000Y-139850000D03*
X168100000Y-141850000D03*
X173100000Y-141850000D03*
X168100000Y-139850000D03*
X170975000Y-153450000D03*
X165700000Y-144650000D03*
X167475000Y-153450000D03*
G04 #@! TA.AperFunction,Conductor*
G36*
X191475000Y-140512500D02*
G01*
X184800000Y-140512500D01*
X184800000Y-138450000D01*
X176675000Y-138412500D01*
X176675000Y-138012500D01*
X166775000Y-138012500D01*
X166775000Y-133712500D01*
X191475000Y-133712500D01*
X191475000Y-140512500D01*
G37*
G04 #@! TD.AperFunction*
G04 #@! TA.AperFunction,Conductor*
G36*
X174778032Y-138612799D02*
G01*
X174839067Y-138618810D01*
X174957941Y-138630518D01*
X174981769Y-138635257D01*
X175146001Y-138685076D01*
X175168453Y-138694377D01*
X175319798Y-138775272D01*
X175340010Y-138788777D01*
X175472666Y-138897645D01*
X175489854Y-138914833D01*
X175598722Y-139047489D01*
X175612227Y-139067701D01*
X175693121Y-139219043D01*
X175702424Y-139241501D01*
X175752240Y-139405724D01*
X175756982Y-139429565D01*
X175774701Y-139609467D01*
X175775000Y-139615548D01*
X175775000Y-142009451D01*
X175774701Y-142015532D01*
X175756982Y-142195434D01*
X175752240Y-142219275D01*
X175702424Y-142383498D01*
X175693121Y-142405956D01*
X175612227Y-142557298D01*
X175598722Y-142577510D01*
X175489854Y-142710166D01*
X175472666Y-142727354D01*
X175340010Y-142836222D01*
X175319798Y-142849727D01*
X175168456Y-142930621D01*
X175145998Y-142939924D01*
X174981775Y-142989740D01*
X174957934Y-142994482D01*
X174778032Y-143012201D01*
X174771951Y-143012500D01*
X167778049Y-143012500D01*
X167771968Y-143012201D01*
X167592065Y-142994482D01*
X167568224Y-142989740D01*
X167404001Y-142939924D01*
X167381543Y-142930621D01*
X167230201Y-142849727D01*
X167209989Y-142836222D01*
X167077333Y-142727354D01*
X167060145Y-142710166D01*
X166951277Y-142577510D01*
X166937772Y-142557298D01*
X166856878Y-142405956D01*
X166847575Y-142383498D01*
X166797757Y-142219269D01*
X166793018Y-142195441D01*
X166775299Y-142015532D01*
X166775000Y-142009451D01*
X166775000Y-139615548D01*
X166775299Y-139609467D01*
X166779706Y-139564713D01*
X166793018Y-139429556D01*
X166797757Y-139405732D01*
X166847577Y-139241494D01*
X166856875Y-139219049D01*
X166937775Y-139067695D01*
X166951272Y-139047495D01*
X167060149Y-138914828D01*
X167077328Y-138897649D01*
X167209995Y-138788772D01*
X167230195Y-138775275D01*
X167381549Y-138694375D01*
X167403994Y-138685077D01*
X167568232Y-138635257D01*
X167592056Y-138630518D01*
X167706501Y-138619246D01*
X167771969Y-138612799D01*
X167778049Y-138612500D01*
X174771951Y-138612500D01*
X174778032Y-138612799D01*
G37*
G04 #@! TD.AperFunction*
G04 #@! TA.AperFunction,Conductor*
G36*
X176700000Y-85750000D02*
G01*
X179300000Y-85750000D01*
X179300000Y-84849999D01*
X183719815Y-84849999D01*
X183738503Y-85027805D01*
X183738504Y-85027807D01*
X183793747Y-85197829D01*
X183793750Y-85197835D01*
X183883141Y-85352665D01*
X183924812Y-85398946D01*
X184002764Y-85485521D01*
X184002767Y-85485523D01*
X184002770Y-85485526D01*
X184147407Y-85590612D01*
X184310733Y-85663329D01*
X184485609Y-85700500D01*
X184485610Y-85700500D01*
X184664389Y-85700500D01*
X184664391Y-85700500D01*
X184839267Y-85663329D01*
X185002593Y-85590612D01*
X185147230Y-85485526D01*
X185266859Y-85352665D01*
X185356250Y-85197835D01*
X185411497Y-85027803D01*
X185430185Y-84850000D01*
X185427557Y-84825000D01*
X186919815Y-84825000D01*
X186938503Y-85002805D01*
X186938504Y-85002807D01*
X186993747Y-85172829D01*
X186993750Y-85172835D01*
X187083141Y-85327665D01*
X187124812Y-85373946D01*
X187202764Y-85460521D01*
X187202767Y-85460523D01*
X187202770Y-85460526D01*
X187347407Y-85565612D01*
X187510733Y-85638329D01*
X187685609Y-85675500D01*
X187685610Y-85675500D01*
X187864389Y-85675500D01*
X187864391Y-85675500D01*
X188039267Y-85638329D01*
X188202593Y-85565612D01*
X188347230Y-85460526D01*
X188466859Y-85327665D01*
X188556250Y-85172835D01*
X188611497Y-85002803D01*
X188630185Y-84825000D01*
X188611497Y-84647197D01*
X188556250Y-84477165D01*
X188466859Y-84322335D01*
X188420003Y-84270296D01*
X188347235Y-84189478D01*
X188347232Y-84189476D01*
X188347231Y-84189475D01*
X188347230Y-84189474D01*
X188202593Y-84084388D01*
X188039267Y-84011671D01*
X188039265Y-84011670D01*
X187911594Y-83984533D01*
X187864391Y-83974500D01*
X187685609Y-83974500D01*
X187654954Y-83981015D01*
X187510733Y-84011670D01*
X187510728Y-84011672D01*
X187347408Y-84084387D01*
X187202768Y-84189475D01*
X187083140Y-84322336D01*
X186993750Y-84477164D01*
X186993747Y-84477170D01*
X186938504Y-84647192D01*
X186938503Y-84647194D01*
X186919815Y-84825000D01*
X185427557Y-84825000D01*
X185411497Y-84672197D01*
X185356250Y-84502165D01*
X185266859Y-84347335D01*
X185220003Y-84295296D01*
X185147235Y-84214478D01*
X185147232Y-84214476D01*
X185147231Y-84214475D01*
X185147230Y-84214474D01*
X185002593Y-84109388D01*
X184839267Y-84036671D01*
X184839265Y-84036670D01*
X184711594Y-84009533D01*
X184664391Y-83999500D01*
X184485609Y-83999500D01*
X184454954Y-84006015D01*
X184310733Y-84036670D01*
X184310728Y-84036672D01*
X184147408Y-84109387D01*
X184002768Y-84214475D01*
X183883140Y-84347336D01*
X183793750Y-84502164D01*
X183793747Y-84502170D01*
X183738504Y-84672192D01*
X183738503Y-84672194D01*
X183719815Y-84849999D01*
X179300000Y-84849999D01*
X179300000Y-76050500D01*
X195950500Y-76050500D01*
X196017539Y-76070185D01*
X196063294Y-76122989D01*
X196074500Y-76174500D01*
X196074500Y-162725500D01*
X196054815Y-162792539D01*
X196002011Y-162838294D01*
X195950500Y-162849500D01*
X160224500Y-162849500D01*
X160157461Y-162829815D01*
X160111706Y-162777011D01*
X160100500Y-162725500D01*
X160100500Y-161547870D01*
X173904500Y-161547870D01*
X173904501Y-161547876D01*
X173910908Y-161607483D01*
X173961202Y-161742328D01*
X173961206Y-161742335D01*
X174047452Y-161857544D01*
X174047455Y-161857547D01*
X174162664Y-161943793D01*
X174162671Y-161943797D01*
X174297517Y-161994091D01*
X174297516Y-161994091D01*
X174304444Y-161994835D01*
X174357127Y-162000500D01*
X176552872Y-162000499D01*
X176612483Y-161994091D01*
X176747331Y-161943796D01*
X176862546Y-161857546D01*
X176940087Y-161753964D01*
X176996019Y-161712095D01*
X177065711Y-161707111D01*
X177104142Y-161722550D01*
X177288910Y-161835777D01*
X177514381Y-161929169D01*
X177514378Y-161929169D01*
X177514384Y-161929170D01*
X177514388Y-161929172D01*
X177751698Y-161986146D01*
X177995000Y-162005294D01*
X178238302Y-161986146D01*
X178475612Y-161929172D01*
X178701089Y-161835777D01*
X178909179Y-161708259D01*
X179094759Y-161549759D01*
X179170709Y-161460832D01*
X179229216Y-161422638D01*
X179299084Y-161422139D01*
X179358131Y-161459493D01*
X179359290Y-161460832D01*
X179433632Y-161547876D01*
X179435241Y-161549759D01*
X179502827Y-161607483D01*
X179620823Y-161708261D01*
X179620826Y-161708262D01*
X179828910Y-161835777D01*
X180054381Y-161929169D01*
X180054378Y-161929169D01*
X180054384Y-161929170D01*
X180054388Y-161929172D01*
X180291698Y-161986146D01*
X180535000Y-162005294D01*
X180778302Y-161986146D01*
X181015612Y-161929172D01*
X181241089Y-161835777D01*
X181449179Y-161708259D01*
X181634759Y-161549759D01*
X181710709Y-161460832D01*
X181769216Y-161422638D01*
X181839084Y-161422139D01*
X181898131Y-161459493D01*
X181899290Y-161460832D01*
X181973632Y-161547876D01*
X181975241Y-161549759D01*
X182042827Y-161607483D01*
X182160823Y-161708261D01*
X182160826Y-161708262D01*
X182368910Y-161835777D01*
X182594381Y-161929169D01*
X182594378Y-161929169D01*
X182594384Y-161929170D01*
X182594388Y-161929172D01*
X182831698Y-161986146D01*
X183075000Y-162005294D01*
X183318302Y-161986146D01*
X183555612Y-161929172D01*
X183781089Y-161835777D01*
X183989179Y-161708259D01*
X184174759Y-161549759D01*
X184333259Y-161364179D01*
X184460777Y-161156089D01*
X184554172Y-160930612D01*
X184611146Y-160693302D01*
X184630294Y-160450000D01*
X184611146Y-160206698D01*
X184554172Y-159969388D01*
X184460777Y-159743911D01*
X184460777Y-159743910D01*
X184333262Y-159535826D01*
X184333261Y-159535823D01*
X184283755Y-159477859D01*
X184174759Y-159350241D01*
X184052063Y-159245449D01*
X183989176Y-159191738D01*
X183989173Y-159191737D01*
X183781089Y-159064222D01*
X183555618Y-158970830D01*
X183555621Y-158970830D01*
X183449992Y-158945470D01*
X183318302Y-158913854D01*
X183318300Y-158913853D01*
X183318297Y-158913853D01*
X183075000Y-158894706D01*
X182831702Y-158913853D01*
X182831697Y-158913854D01*
X182831698Y-158913854D01*
X182655301Y-158956204D01*
X182594380Y-158970830D01*
X182368910Y-159064222D01*
X182160826Y-159191737D01*
X182160823Y-159191738D01*
X181975241Y-159350241D01*
X181899290Y-159439168D01*
X181840783Y-159477361D01*
X181770915Y-159477859D01*
X181711869Y-159440505D01*
X181710710Y-159439168D01*
X181692844Y-159418250D01*
X181634759Y-159350241D01*
X181512063Y-159245449D01*
X181449176Y-159191738D01*
X181449173Y-159191737D01*
X181241089Y-159064222D01*
X181015618Y-158970830D01*
X181015621Y-158970830D01*
X180909992Y-158945470D01*
X180778302Y-158913854D01*
X180778300Y-158913853D01*
X180778297Y-158913853D01*
X180535000Y-158894706D01*
X180291702Y-158913853D01*
X180291697Y-158913854D01*
X180291698Y-158913854D01*
X180115301Y-158956204D01*
X180054380Y-158970830D01*
X179828910Y-159064222D01*
X179620826Y-159191737D01*
X179620823Y-159191738D01*
X179435241Y-159350241D01*
X179359290Y-159439168D01*
X179300783Y-159477361D01*
X179230915Y-159477859D01*
X179171869Y-159440505D01*
X179170710Y-159439168D01*
X179152844Y-159418250D01*
X179094759Y-159350241D01*
X178972063Y-159245449D01*
X178909176Y-159191738D01*
X178909173Y-159191737D01*
X178701089Y-159064222D01*
X178475618Y-158970830D01*
X178475621Y-158970830D01*
X178369992Y-158945470D01*
X178238302Y-158913854D01*
X178238300Y-158913853D01*
X178238297Y-158913853D01*
X177995000Y-158894706D01*
X177751702Y-158913853D01*
X177751697Y-158913854D01*
X177751698Y-158913854D01*
X177575301Y-158956204D01*
X177514380Y-158970830D01*
X177288910Y-159064222D01*
X177104142Y-159177449D01*
X177036696Y-159195694D01*
X176970094Y-159174578D01*
X176940086Y-159146033D01*
X176862547Y-159042455D01*
X176862544Y-159042452D01*
X176747335Y-158956206D01*
X176747328Y-158956202D01*
X176612482Y-158905908D01*
X176612483Y-158905908D01*
X176552883Y-158899501D01*
X176552881Y-158899500D01*
X176552873Y-158899500D01*
X176552864Y-158899500D01*
X174357129Y-158899500D01*
X174357123Y-158899501D01*
X174297516Y-158905908D01*
X174162671Y-158956202D01*
X174162664Y-158956206D01*
X174047455Y-159042452D01*
X174047452Y-159042455D01*
X173961206Y-159157664D01*
X173961202Y-159157671D01*
X173910908Y-159292517D01*
X173904501Y-159352116D01*
X173904500Y-159352135D01*
X173904500Y-161547870D01*
X160100500Y-161547870D01*
X160100500Y-155749999D01*
X172119815Y-155749999D01*
X172138503Y-155927805D01*
X172138504Y-155927807D01*
X172193747Y-156097829D01*
X172193750Y-156097835D01*
X172283141Y-156252665D01*
X172324812Y-156298946D01*
X172402764Y-156385521D01*
X172402767Y-156385523D01*
X172402770Y-156385526D01*
X172547407Y-156490612D01*
X172710733Y-156563329D01*
X172885609Y-156600500D01*
X172885610Y-156600500D01*
X173064389Y-156600500D01*
X173064391Y-156600500D01*
X173239267Y-156563329D01*
X173402593Y-156490612D01*
X173547230Y-156385526D01*
X173666859Y-156252665D01*
X173756250Y-156097835D01*
X173811497Y-155927803D01*
X173830185Y-155750000D01*
X173811497Y-155572197D01*
X173756250Y-155402165D01*
X173666859Y-155247335D01*
X173620003Y-155195296D01*
X173547235Y-155114478D01*
X173547232Y-155114476D01*
X173547231Y-155114475D01*
X173547230Y-155114474D01*
X173402593Y-155009388D01*
X173239267Y-154936671D01*
X173239265Y-154936670D01*
X173111594Y-154909533D01*
X173064391Y-154899500D01*
X172885609Y-154899500D01*
X172854954Y-154906015D01*
X172710733Y-154936670D01*
X172710728Y-154936672D01*
X172547408Y-155009387D01*
X172402768Y-155114475D01*
X172283140Y-155247336D01*
X172193750Y-155402164D01*
X172193747Y-155402170D01*
X172138504Y-155572192D01*
X172138503Y-155572194D01*
X172119815Y-155749999D01*
X160100500Y-155749999D01*
X160100500Y-153449999D01*
X166619815Y-153449999D01*
X166638503Y-153627805D01*
X166638504Y-153627807D01*
X166693747Y-153797829D01*
X166693750Y-153797835D01*
X166783141Y-153952665D01*
X166824812Y-153998946D01*
X166902764Y-154085521D01*
X166902767Y-154085523D01*
X166902770Y-154085526D01*
X167047407Y-154190612D01*
X167210733Y-154263329D01*
X167385609Y-154300500D01*
X167385610Y-154300500D01*
X167564389Y-154300500D01*
X167564391Y-154300500D01*
X167739267Y-154263329D01*
X167902593Y-154190612D01*
X168047230Y-154085526D01*
X168166859Y-153952665D01*
X168256250Y-153797835D01*
X168311497Y-153627803D01*
X168330185Y-153450000D01*
X168330185Y-153449999D01*
X170119815Y-153449999D01*
X170138503Y-153627805D01*
X170138504Y-153627807D01*
X170193747Y-153797829D01*
X170193750Y-153797835D01*
X170283141Y-153952665D01*
X170324812Y-153998946D01*
X170402764Y-154085521D01*
X170402767Y-154085523D01*
X170402770Y-154085526D01*
X170547407Y-154190612D01*
X170710733Y-154263329D01*
X170885609Y-154300500D01*
X170885610Y-154300500D01*
X171064389Y-154300500D01*
X171064391Y-154300500D01*
X171239267Y-154263329D01*
X171402593Y-154190612D01*
X171547230Y-154085526D01*
X171666859Y-153952665D01*
X171756250Y-153797835D01*
X171811497Y-153627803D01*
X171830185Y-153450000D01*
X171811497Y-153272197D01*
X171756250Y-153102165D01*
X171666859Y-152947335D01*
X171620003Y-152895296D01*
X171547235Y-152814478D01*
X171547232Y-152814476D01*
X171547231Y-152814475D01*
X171547230Y-152814474D01*
X171458490Y-152750000D01*
X182419815Y-152750000D01*
X182438503Y-152927805D01*
X182438504Y-152927807D01*
X182493747Y-153097829D01*
X182493750Y-153097835D01*
X182583141Y-153252665D01*
X182600728Y-153272197D01*
X182702764Y-153385521D01*
X182702767Y-153385523D01*
X182702770Y-153385526D01*
X182847407Y-153490612D01*
X183010733Y-153563329D01*
X183185609Y-153600500D01*
X183185610Y-153600500D01*
X183364389Y-153600500D01*
X183364391Y-153600500D01*
X183539267Y-153563329D01*
X183702593Y-153490612D01*
X183847230Y-153385526D01*
X183966859Y-153252665D01*
X184056250Y-153097835D01*
X184111497Y-152927803D01*
X184130185Y-152750000D01*
X184111497Y-152572197D01*
X184056250Y-152402165D01*
X183966859Y-152247335D01*
X183920003Y-152195296D01*
X183847235Y-152114478D01*
X183847232Y-152114476D01*
X183847231Y-152114475D01*
X183847230Y-152114474D01*
X183702593Y-152009388D01*
X183539267Y-151936671D01*
X183539265Y-151936670D01*
X183411594Y-151909533D01*
X183364391Y-151899500D01*
X183185609Y-151899500D01*
X183163610Y-151904176D01*
X183010733Y-151936670D01*
X183010728Y-151936672D01*
X182847408Y-152009387D01*
X182702768Y-152114475D01*
X182583140Y-152247336D01*
X182493750Y-152402164D01*
X182493747Y-152402170D01*
X182438504Y-152572192D01*
X182438503Y-152572194D01*
X182419815Y-152750000D01*
X171458490Y-152750000D01*
X171402593Y-152709388D01*
X171239267Y-152636671D01*
X171239265Y-152636670D01*
X171111594Y-152609533D01*
X171064391Y-152599500D01*
X170885609Y-152599500D01*
X170854954Y-152606015D01*
X170710733Y-152636670D01*
X170710728Y-152636672D01*
X170547408Y-152709387D01*
X170402768Y-152814475D01*
X170283140Y-152947336D01*
X170193750Y-153102164D01*
X170193747Y-153102170D01*
X170138504Y-153272192D01*
X170138503Y-153272194D01*
X170119815Y-153449999D01*
X168330185Y-153449999D01*
X168311497Y-153272197D01*
X168256250Y-153102165D01*
X168166859Y-152947335D01*
X168120003Y-152895296D01*
X168047235Y-152814478D01*
X168047232Y-152814476D01*
X168047231Y-152814475D01*
X168047230Y-152814474D01*
X167902593Y-152709388D01*
X167739267Y-152636671D01*
X167739265Y-152636670D01*
X167611594Y-152609533D01*
X167564391Y-152599500D01*
X167385609Y-152599500D01*
X167354954Y-152606015D01*
X167210733Y-152636670D01*
X167210728Y-152636672D01*
X167047408Y-152709387D01*
X166902768Y-152814475D01*
X166783140Y-152947336D01*
X166693750Y-153102164D01*
X166693747Y-153102170D01*
X166638504Y-153272192D01*
X166638503Y-153272194D01*
X166619815Y-153449999D01*
X160100500Y-153449999D01*
X160100500Y-151288155D01*
X160120185Y-151221116D01*
X160172989Y-151175361D01*
X160242147Y-151165417D01*
X160305703Y-151194442D01*
X160343477Y-151253220D01*
X160345067Y-151259182D01*
X160395828Y-151470612D01*
X160395830Y-151470619D01*
X160489222Y-151696089D01*
X160616737Y-151904173D01*
X160616738Y-151904176D01*
X160670449Y-151967063D01*
X160775241Y-152089759D01*
X160918897Y-152212453D01*
X160960823Y-152248261D01*
X160960826Y-152248262D01*
X161168910Y-152375777D01*
X161394381Y-152469169D01*
X161394378Y-152469169D01*
X161394384Y-152469170D01*
X161394388Y-152469172D01*
X161631698Y-152526146D01*
X161875000Y-152545294D01*
X162118302Y-152526146D01*
X162355612Y-152469172D01*
X162581089Y-152375777D01*
X162789179Y-152248259D01*
X162974759Y-152089759D01*
X163133259Y-151904179D01*
X163260777Y-151696089D01*
X163354172Y-151470612D01*
X163411146Y-151233302D01*
X163430294Y-150990000D01*
X163411146Y-150746698D01*
X163354172Y-150509388D01*
X163349384Y-150497829D01*
X163260777Y-150283910D01*
X163178716Y-150150000D01*
X182419815Y-150150000D01*
X182438503Y-150327805D01*
X182438504Y-150327807D01*
X182493747Y-150497829D01*
X182493750Y-150497835D01*
X182583141Y-150652665D01*
X182618418Y-150691844D01*
X182702764Y-150785521D01*
X182702767Y-150785523D01*
X182702770Y-150785526D01*
X182847407Y-150890612D01*
X183010733Y-150963329D01*
X183185609Y-151000500D01*
X183185610Y-151000500D01*
X183364389Y-151000500D01*
X183364391Y-151000500D01*
X183539267Y-150963329D01*
X183702593Y-150890612D01*
X183847230Y-150785526D01*
X183850960Y-150781384D01*
X183882191Y-150746698D01*
X183966859Y-150652665D01*
X184056250Y-150497835D01*
X184111497Y-150327803D01*
X184130185Y-150150000D01*
X184111497Y-149972197D01*
X184074245Y-149857547D01*
X184056252Y-149802170D01*
X184056249Y-149802164D01*
X184021707Y-149742335D01*
X183966859Y-149647335D01*
X183909207Y-149583306D01*
X183847235Y-149514478D01*
X183847232Y-149514476D01*
X183847231Y-149514475D01*
X183847230Y-149514474D01*
X183702593Y-149409388D01*
X183539267Y-149336671D01*
X183539265Y-149336670D01*
X183411594Y-149309533D01*
X183364391Y-149299500D01*
X183185609Y-149299500D01*
X183154954Y-149306015D01*
X183010733Y-149336670D01*
X183010728Y-149336672D01*
X182847408Y-149409387D01*
X182702768Y-149514475D01*
X182583140Y-149647336D01*
X182493750Y-149802164D01*
X182493747Y-149802170D01*
X182438504Y-149972192D01*
X182438503Y-149972194D01*
X182419815Y-150150000D01*
X163178716Y-150150000D01*
X163147550Y-150099142D01*
X163129305Y-150031697D01*
X163150421Y-149965094D01*
X163178962Y-149935088D01*
X163282546Y-149857546D01*
X163368796Y-149742331D01*
X163419091Y-149607483D01*
X163425500Y-149547873D01*
X163425499Y-147352128D01*
X163419091Y-147292517D01*
X163415320Y-147282407D01*
X163368797Y-147157671D01*
X163368793Y-147157664D01*
X163282547Y-147042455D01*
X163282544Y-147042452D01*
X163167335Y-146956206D01*
X163167328Y-146956202D01*
X163032482Y-146905908D01*
X163032483Y-146905908D01*
X162972883Y-146899501D01*
X162972881Y-146899500D01*
X162972873Y-146899500D01*
X162972864Y-146899500D01*
X160777129Y-146899500D01*
X160777123Y-146899501D01*
X160717516Y-146905908D01*
X160582671Y-146956202D01*
X160582664Y-146956206D01*
X160467455Y-147042452D01*
X160467452Y-147042455D01*
X160381206Y-147157664D01*
X160381202Y-147157671D01*
X160340682Y-147266313D01*
X160298811Y-147322247D01*
X160233347Y-147346664D01*
X160165074Y-147331812D01*
X160115668Y-147282407D01*
X160100500Y-147222980D01*
X160100500Y-144983043D01*
X160120185Y-144916004D01*
X160172989Y-144870249D01*
X160242147Y-144860305D01*
X160289776Y-144877616D01*
X160312599Y-144891747D01*
X160520060Y-144972118D01*
X160738757Y-145013000D01*
X160738759Y-145013000D01*
X160961241Y-145013000D01*
X160961243Y-145013000D01*
X161179940Y-144972118D01*
X161387401Y-144891747D01*
X161576562Y-144774624D01*
X161713269Y-144649999D01*
X164844815Y-144649999D01*
X164863503Y-144827805D01*
X164863504Y-144827807D01*
X164918747Y-144997829D01*
X164918750Y-144997835D01*
X165008141Y-145152665D01*
X165042031Y-145190303D01*
X165127764Y-145285521D01*
X165127767Y-145285523D01*
X165127770Y-145285526D01*
X165272407Y-145390612D01*
X165435733Y-145463329D01*
X165610609Y-145500500D01*
X165610610Y-145500500D01*
X165789389Y-145500500D01*
X165789391Y-145500500D01*
X165964267Y-145463329D01*
X166127593Y-145390612D01*
X166272230Y-145285526D01*
X166391859Y-145152665D01*
X166472783Y-145012500D01*
X189819815Y-145012500D01*
X189838503Y-145190305D01*
X189838504Y-145190307D01*
X189893747Y-145360329D01*
X189893750Y-145360335D01*
X189983141Y-145515165D01*
X190024812Y-145561446D01*
X190102764Y-145648021D01*
X190102767Y-145648023D01*
X190102770Y-145648026D01*
X190247407Y-145753112D01*
X190410733Y-145825829D01*
X190585609Y-145863000D01*
X190585610Y-145863000D01*
X190764389Y-145863000D01*
X190764391Y-145863000D01*
X190939267Y-145825829D01*
X191102593Y-145753112D01*
X191102597Y-145753108D01*
X191108224Y-145749861D01*
X191108904Y-145751039D01*
X191167911Y-145729980D01*
X191235966Y-145745800D01*
X191246783Y-145752752D01*
X191247402Y-145753109D01*
X191247404Y-145753110D01*
X191247407Y-145753112D01*
X191410733Y-145825829D01*
X191585609Y-145863000D01*
X191585610Y-145863000D01*
X191764389Y-145863000D01*
X191764391Y-145863000D01*
X191939267Y-145825829D01*
X192102593Y-145753112D01*
X192247230Y-145648026D01*
X192366859Y-145515165D01*
X192456250Y-145360335D01*
X192511497Y-145190303D01*
X192530185Y-145012500D01*
X192511497Y-144834697D01*
X192456250Y-144664665D01*
X192375326Y-144524500D01*
X192358853Y-144456599D01*
X192375326Y-144400500D01*
X192388909Y-144376974D01*
X192456250Y-144260335D01*
X192511497Y-144090303D01*
X192530185Y-143912500D01*
X192511497Y-143734697D01*
X192464795Y-143590964D01*
X192456252Y-143564670D01*
X192456251Y-143564669D01*
X192456250Y-143564665D01*
X192404190Y-143474496D01*
X192387719Y-143406601D01*
X192404190Y-143350504D01*
X192456250Y-143260335D01*
X192511497Y-143090303D01*
X192530185Y-142912500D01*
X192511497Y-142734697D01*
X192483873Y-142649681D01*
X192456252Y-142564670D01*
X192456250Y-142564667D01*
X192456250Y-142564665D01*
X192375326Y-142424500D01*
X192358853Y-142356599D01*
X192375326Y-142300500D01*
X192400256Y-142257319D01*
X192456250Y-142160335D01*
X192511497Y-141990303D01*
X192530185Y-141812500D01*
X192511497Y-141634697D01*
X192456250Y-141464665D01*
X192366859Y-141309835D01*
X192320003Y-141257796D01*
X192247235Y-141176978D01*
X192247232Y-141176976D01*
X192247231Y-141176975D01*
X192247230Y-141176974D01*
X192102593Y-141071888D01*
X191939267Y-140999171D01*
X191939265Y-140999170D01*
X191811594Y-140972033D01*
X191764391Y-140962000D01*
X191585609Y-140962000D01*
X191554954Y-140968515D01*
X191410733Y-140999170D01*
X191410728Y-140999172D01*
X191247408Y-141071887D01*
X191102768Y-141176975D01*
X190983140Y-141309836D01*
X190893750Y-141464664D01*
X190893747Y-141464670D01*
X190838504Y-141634692D01*
X190838503Y-141634694D01*
X190819815Y-141812499D01*
X190838503Y-141990305D01*
X190838504Y-141990307D01*
X190893747Y-142160329D01*
X190893749Y-142160332D01*
X190893750Y-142160335D01*
X190933745Y-142229608D01*
X190974674Y-142300501D01*
X190991146Y-142368401D01*
X190974674Y-142424499D01*
X190893749Y-142564667D01*
X190893747Y-142564670D01*
X190838504Y-142734692D01*
X190838503Y-142734694D01*
X190819815Y-142912500D01*
X190838503Y-143090305D01*
X190838504Y-143090307D01*
X190893750Y-143260336D01*
X190945806Y-143350500D01*
X190962279Y-143418400D01*
X190945806Y-143474500D01*
X190893750Y-143564663D01*
X190838504Y-143734692D01*
X190838503Y-143734694D01*
X190827785Y-143836670D01*
X190819815Y-143912500D01*
X190831643Y-144025040D01*
X190819075Y-144093768D01*
X190771343Y-144144792D01*
X190708323Y-144162000D01*
X190585609Y-144162000D01*
X190554954Y-144168515D01*
X190410733Y-144199170D01*
X190410728Y-144199172D01*
X190247408Y-144271887D01*
X190102768Y-144376975D01*
X189983140Y-144509836D01*
X189893750Y-144664664D01*
X189893747Y-144664670D01*
X189838504Y-144834692D01*
X189838503Y-144834694D01*
X189819815Y-145012500D01*
X166472783Y-145012500D01*
X166481250Y-144997835D01*
X166536497Y-144827803D01*
X166555185Y-144650000D01*
X166536497Y-144472197D01*
X166481250Y-144302165D01*
X166391859Y-144147335D01*
X166340507Y-144090303D01*
X166272235Y-144014478D01*
X166272232Y-144014476D01*
X166272231Y-144014475D01*
X166272230Y-144014474D01*
X166127593Y-143909388D01*
X165964267Y-143836671D01*
X165964265Y-143836670D01*
X165836594Y-143809533D01*
X165789391Y-143799500D01*
X165610609Y-143799500D01*
X165579954Y-143806015D01*
X165435733Y-143836670D01*
X165435728Y-143836672D01*
X165272408Y-143909387D01*
X165127768Y-144014475D01*
X165008140Y-144147336D01*
X164918750Y-144302164D01*
X164918747Y-144302170D01*
X164863504Y-144472192D01*
X164863503Y-144472194D01*
X164844815Y-144649999D01*
X161713269Y-144649999D01*
X161740981Y-144624736D01*
X161875058Y-144447189D01*
X161974229Y-144248028D01*
X162035115Y-144034036D01*
X162055643Y-143812500D01*
X162035115Y-143590964D01*
X161974229Y-143376972D01*
X161974224Y-143376961D01*
X161875061Y-143177816D01*
X161875056Y-143177808D01*
X161740979Y-143000261D01*
X161576562Y-142850376D01*
X161576560Y-142850374D01*
X161387404Y-142733254D01*
X161387398Y-142733252D01*
X161179940Y-142652882D01*
X160961243Y-142612000D01*
X160738757Y-142612000D01*
X160520060Y-142652882D01*
X160420213Y-142691563D01*
X160312601Y-142733252D01*
X160312598Y-142733253D01*
X160289776Y-142747384D01*
X160222415Y-142765938D01*
X160155716Y-142745129D01*
X160110855Y-142691563D01*
X160100500Y-142641956D01*
X160100500Y-142015659D01*
X166269500Y-142015659D01*
X166269805Y-142028075D01*
X166270713Y-142046549D01*
X166271625Y-142058909D01*
X166291168Y-142257338D01*
X166294809Y-142281887D01*
X166304391Y-142330059D01*
X166310422Y-142354136D01*
X166310422Y-142354137D01*
X166367447Y-142542121D01*
X166367447Y-142542120D01*
X166375807Y-142565486D01*
X166394610Y-142610878D01*
X166405215Y-142633299D01*
X166405215Y-142633300D01*
X166497810Y-142806533D01*
X166497811Y-142806534D01*
X166510565Y-142827814D01*
X166510564Y-142827813D01*
X166524072Y-142848028D01*
X166537862Y-142868666D01*
X166552647Y-142888603D01*
X166677257Y-143040439D01*
X166677256Y-143040438D01*
X166693940Y-143058847D01*
X166693941Y-143058847D01*
X166728652Y-143093558D01*
X166728652Y-143093559D01*
X166728662Y-143093568D01*
X166728665Y-143093571D01*
X166747055Y-143110238D01*
X166898896Y-143234852D01*
X166918833Y-143249637D01*
X166934835Y-143260329D01*
X166959686Y-143276935D01*
X166959685Y-143276934D01*
X166980965Y-143289688D01*
X166980966Y-143289689D01*
X167154199Y-143382284D01*
X167176628Y-143392892D01*
X167176629Y-143392892D01*
X167221998Y-143411686D01*
X167245390Y-143420057D01*
X167245389Y-143420057D01*
X167337424Y-143447974D01*
X167433362Y-143477076D01*
X167433368Y-143477077D01*
X167433369Y-143477078D01*
X167457441Y-143483108D01*
X167457440Y-143483108D01*
X167489938Y-143489571D01*
X167505622Y-143492691D01*
X167505629Y-143492692D01*
X167505634Y-143492693D01*
X167505633Y-143492693D01*
X167516250Y-143494267D01*
X167530169Y-143496332D01*
X167728588Y-143515874D01*
X167728589Y-143515874D01*
X167740950Y-143516787D01*
X167759424Y-143517695D01*
X167765632Y-143517847D01*
X167771840Y-143518000D01*
X167771841Y-143518000D01*
X174778159Y-143518000D01*
X174778160Y-143518000D01*
X174784367Y-143517847D01*
X174790576Y-143517695D01*
X174809050Y-143516787D01*
X174817290Y-143516178D01*
X174821412Y-143515874D01*
X175019830Y-143496332D01*
X175033748Y-143494267D01*
X175044366Y-143492693D01*
X175044365Y-143492693D01*
X175044369Y-143492692D01*
X175044377Y-143492691D01*
X175060060Y-143489571D01*
X175092559Y-143483108D01*
X175092558Y-143483108D01*
X175116630Y-143477078D01*
X175116630Y-143477077D01*
X175116637Y-143477076D01*
X175212574Y-143447974D01*
X175304610Y-143420057D01*
X175304609Y-143420057D01*
X175328001Y-143411686D01*
X175373370Y-143392892D01*
X175373371Y-143392892D01*
X175395800Y-143382284D01*
X175569033Y-143289689D01*
X175569034Y-143289688D01*
X175590314Y-143276934D01*
X175590313Y-143276935D01*
X175615164Y-143260329D01*
X175631166Y-143249637D01*
X175651103Y-143234852D01*
X175802944Y-143110238D01*
X175821334Y-143093571D01*
X175821336Y-143093568D01*
X175821347Y-143093559D01*
X175821347Y-143093558D01*
X175856058Y-143058847D01*
X175856059Y-143058847D01*
X175872743Y-143040438D01*
X175872742Y-143040439D01*
X175997352Y-142888603D01*
X176012137Y-142868666D01*
X176025926Y-142848028D01*
X176039435Y-142827813D01*
X176039434Y-142827814D01*
X176052188Y-142806534D01*
X176052189Y-142806533D01*
X176144784Y-142633300D01*
X176155392Y-142610871D01*
X176155392Y-142610870D01*
X176174186Y-142565501D01*
X176182557Y-142542109D01*
X176182557Y-142542110D01*
X176218232Y-142424499D01*
X176239576Y-142354137D01*
X176245607Y-142330060D01*
X176245608Y-142330058D01*
X176245608Y-142330059D01*
X176255189Y-142281887D01*
X176255191Y-142281877D01*
X176258832Y-142257330D01*
X176278374Y-142058912D01*
X176279287Y-142046548D01*
X176280195Y-142028075D01*
X176280500Y-142015660D01*
X176280500Y-139609339D01*
X176280195Y-139596924D01*
X176279287Y-139578451D01*
X176278374Y-139566087D01*
X176258832Y-139367669D01*
X176255191Y-139343122D01*
X176252071Y-139327438D01*
X176245608Y-139294940D01*
X176245608Y-139294941D01*
X176239578Y-139270869D01*
X176239577Y-139270868D01*
X176239576Y-139270862D01*
X176182557Y-139082890D01*
X176182556Y-139082889D01*
X176174186Y-139059498D01*
X176155392Y-139014129D01*
X176155392Y-139014128D01*
X176144784Y-138991699D01*
X176052189Y-138818466D01*
X176052188Y-138818465D01*
X176039434Y-138797185D01*
X176039435Y-138797186D01*
X176012140Y-138756338D01*
X176012137Y-138756333D01*
X175997352Y-138736396D01*
X175872738Y-138584555D01*
X175856071Y-138566165D01*
X175856066Y-138566160D01*
X175856059Y-138566152D01*
X175856058Y-138566152D01*
X175821347Y-138531441D01*
X175821347Y-138531440D01*
X175802942Y-138514760D01*
X175651103Y-138390147D01*
X175631166Y-138375362D01*
X175590318Y-138348068D01*
X175577508Y-138340390D01*
X175569040Y-138335314D01*
X175569041Y-138335314D01*
X175395806Y-138242719D01*
X175395807Y-138242719D01*
X175381896Y-138236139D01*
X175373378Y-138232111D01*
X175373371Y-138232108D01*
X175373369Y-138232107D01*
X175373367Y-138232106D01*
X175328003Y-138213313D01*
X175304614Y-138204944D01*
X175116637Y-138147922D01*
X175116636Y-138147922D01*
X175116629Y-138147920D01*
X175110702Y-138146435D01*
X175092559Y-138141891D01*
X175044387Y-138132309D01*
X175019836Y-138128668D01*
X175019838Y-138128668D01*
X174861094Y-138113033D01*
X174821410Y-138109125D01*
X174815229Y-138108669D01*
X174809049Y-138108213D01*
X174790575Y-138107305D01*
X174778160Y-138107000D01*
X167771839Y-138107000D01*
X167759421Y-138107305D01*
X167740970Y-138108213D01*
X167740950Y-138108214D01*
X167728591Y-138109126D01*
X167665681Y-138115321D01*
X167530168Y-138128667D01*
X167530167Y-138128667D01*
X167505619Y-138132308D01*
X167505615Y-138132308D01*
X167505608Y-138132310D01*
X167457442Y-138141891D01*
X167443656Y-138145344D01*
X167433379Y-138147918D01*
X167433381Y-138147918D01*
X167433376Y-138147919D01*
X167433370Y-138147921D01*
X167334470Y-138177921D01*
X167245377Y-138204947D01*
X167245378Y-138204947D01*
X167222000Y-138213312D01*
X167221988Y-138213316D01*
X167221985Y-138213318D01*
X167221984Y-138213318D01*
X167186357Y-138228076D01*
X167176625Y-138232108D01*
X167176623Y-138232109D01*
X167176622Y-138232109D01*
X167154196Y-138242717D01*
X166980961Y-138335313D01*
X166959675Y-138348071D01*
X166918838Y-138375357D01*
X166898902Y-138390142D01*
X166898903Y-138390141D01*
X166747056Y-138514760D01*
X166747050Y-138514765D01*
X166728660Y-138531432D01*
X166728647Y-138531444D01*
X166728647Y-138531445D01*
X166693945Y-138566147D01*
X166693944Y-138566147D01*
X166693934Y-138566157D01*
X166693932Y-138566160D01*
X166693928Y-138566165D01*
X166677260Y-138584556D01*
X166677261Y-138584555D01*
X166552641Y-138736403D01*
X166552642Y-138736402D01*
X166537857Y-138756338D01*
X166510571Y-138797175D01*
X166497813Y-138818461D01*
X166405220Y-138991693D01*
X166405218Y-138991696D01*
X166405217Y-138991696D01*
X166405216Y-138991699D01*
X166394608Y-139014125D01*
X166390576Y-139023857D01*
X166375818Y-139059484D01*
X166375818Y-139059485D01*
X166375812Y-139059500D01*
X166367447Y-139082878D01*
X166367447Y-139082877D01*
X166367443Y-139082890D01*
X166310421Y-139270870D01*
X166310418Y-139270881D01*
X166310418Y-139270879D01*
X166307844Y-139281156D01*
X166304391Y-139294942D01*
X166294810Y-139343108D01*
X166294808Y-139343120D01*
X166294808Y-139343119D01*
X166291167Y-139367667D01*
X166291167Y-139367668D01*
X166271625Y-139566090D01*
X166270713Y-139578450D01*
X166269805Y-139596924D01*
X166269500Y-139609340D01*
X166269500Y-142015659D01*
X160100500Y-142015659D01*
X160100500Y-133983043D01*
X160120185Y-133916004D01*
X160172989Y-133870249D01*
X160242147Y-133860305D01*
X160289776Y-133877616D01*
X160312599Y-133891747D01*
X160520060Y-133972118D01*
X160738757Y-134013000D01*
X160738759Y-134013000D01*
X160961241Y-134013000D01*
X160961243Y-134013000D01*
X161179940Y-133972118D01*
X161387401Y-133891747D01*
X161576562Y-133774624D01*
X161644709Y-133712500D01*
X166775000Y-133712500D01*
X166775000Y-138012500D01*
X176675000Y-138012500D01*
X176675000Y-138412500D01*
X184800000Y-138450000D01*
X184800000Y-140512500D01*
X191475000Y-140512500D01*
X191475000Y-133712500D01*
X166775000Y-133712500D01*
X161644709Y-133712500D01*
X161740981Y-133624736D01*
X161875058Y-133447189D01*
X161974229Y-133248028D01*
X162035115Y-133034036D01*
X162055643Y-132812500D01*
X162035115Y-132590964D01*
X162023460Y-132550000D01*
X173719815Y-132550000D01*
X173738503Y-132727805D01*
X173738504Y-132727807D01*
X173793747Y-132897829D01*
X173793750Y-132897835D01*
X173883141Y-133052665D01*
X173924812Y-133098946D01*
X174002764Y-133185521D01*
X174002767Y-133185523D01*
X174002770Y-133185526D01*
X174147407Y-133290612D01*
X174310733Y-133363329D01*
X174485609Y-133400500D01*
X174485610Y-133400500D01*
X174664389Y-133400500D01*
X174664391Y-133400500D01*
X174839267Y-133363329D01*
X175002593Y-133290612D01*
X175147230Y-133185526D01*
X175266859Y-133052665D01*
X175356250Y-132897835D01*
X175411497Y-132727803D01*
X175430185Y-132550000D01*
X175411497Y-132372197D01*
X175376124Y-132263330D01*
X175356252Y-132202170D01*
X175356249Y-132202164D01*
X175266859Y-132047335D01*
X175220003Y-131995296D01*
X175147235Y-131914478D01*
X175147232Y-131914476D01*
X175147231Y-131914475D01*
X175147230Y-131914474D01*
X175002593Y-131809388D01*
X174839267Y-131736671D01*
X174839265Y-131736670D01*
X174711594Y-131709533D01*
X174664391Y-131699500D01*
X174485609Y-131699500D01*
X174454954Y-131706015D01*
X174310733Y-131736670D01*
X174310728Y-131736672D01*
X174147408Y-131809387D01*
X174002768Y-131914475D01*
X173883140Y-132047336D01*
X173793750Y-132202164D01*
X173793747Y-132202170D01*
X173738504Y-132372192D01*
X173738503Y-132372194D01*
X173719815Y-132550000D01*
X162023460Y-132550000D01*
X161974229Y-132376972D01*
X161974224Y-132376961D01*
X161875061Y-132177816D01*
X161875056Y-132177808D01*
X161740979Y-132000261D01*
X161576562Y-131850376D01*
X161576560Y-131850374D01*
X161387404Y-131733254D01*
X161387398Y-131733252D01*
X161179940Y-131652882D01*
X160961243Y-131612000D01*
X160738757Y-131612000D01*
X160520060Y-131652882D01*
X160420213Y-131691563D01*
X160312601Y-131733252D01*
X160312598Y-131733253D01*
X160289776Y-131747384D01*
X160222415Y-131765938D01*
X160155716Y-131745129D01*
X160110855Y-131691563D01*
X160100500Y-131641956D01*
X160100500Y-131450000D01*
X181419815Y-131450000D01*
X181438503Y-131627805D01*
X181438504Y-131627807D01*
X181493747Y-131797829D01*
X181493750Y-131797835D01*
X181583141Y-131952665D01*
X181624812Y-131998946D01*
X181702764Y-132085521D01*
X181702767Y-132085523D01*
X181702770Y-132085526D01*
X181847407Y-132190612D01*
X182010733Y-132263329D01*
X182010735Y-132263329D01*
X182010736Y-132263330D01*
X182061442Y-132274107D01*
X182152563Y-132293476D01*
X182214044Y-132326667D01*
X182247821Y-132387830D01*
X182244714Y-132453081D01*
X182238503Y-132472194D01*
X182219815Y-132649999D01*
X182238503Y-132827805D01*
X182238504Y-132827807D01*
X182293747Y-132997829D01*
X182293750Y-132997835D01*
X182383141Y-133152665D01*
X182424812Y-133198946D01*
X182502764Y-133285521D01*
X182502767Y-133285523D01*
X182502770Y-133285526D01*
X182647407Y-133390612D01*
X182810733Y-133463329D01*
X182985609Y-133500500D01*
X182985610Y-133500500D01*
X183164389Y-133500500D01*
X183164391Y-133500500D01*
X183339267Y-133463329D01*
X183502593Y-133390612D01*
X183647230Y-133285526D01*
X183766859Y-133152665D01*
X183856250Y-132997835D01*
X183911497Y-132827803D01*
X183930185Y-132650000D01*
X183919674Y-132550000D01*
X186919815Y-132550000D01*
X186938503Y-132727805D01*
X186938504Y-132727807D01*
X186993747Y-132897829D01*
X186993750Y-132897835D01*
X187083141Y-133052665D01*
X187124812Y-133098946D01*
X187202764Y-133185521D01*
X187202767Y-133185523D01*
X187202770Y-133185526D01*
X187347407Y-133290612D01*
X187510733Y-133363329D01*
X187685609Y-133400500D01*
X187685610Y-133400500D01*
X187864389Y-133400500D01*
X187864391Y-133400500D01*
X188039267Y-133363329D01*
X188202593Y-133290612D01*
X188347230Y-133185526D01*
X188466859Y-133052665D01*
X188556250Y-132897835D01*
X188611497Y-132727803D01*
X188630185Y-132550000D01*
X188611497Y-132372197D01*
X188576124Y-132263330D01*
X188556252Y-132202170D01*
X188556249Y-132202164D01*
X188466859Y-132047335D01*
X188420003Y-131995296D01*
X188347235Y-131914478D01*
X188347232Y-131914476D01*
X188347231Y-131914475D01*
X188347230Y-131914474D01*
X188202593Y-131809388D01*
X188039267Y-131736671D01*
X188039265Y-131736670D01*
X187911594Y-131709533D01*
X187864391Y-131699500D01*
X187685609Y-131699500D01*
X187654954Y-131706015D01*
X187510733Y-131736670D01*
X187510728Y-131736672D01*
X187347408Y-131809387D01*
X187202768Y-131914475D01*
X187083140Y-132047336D01*
X186993750Y-132202164D01*
X186993747Y-132202170D01*
X186938504Y-132372192D01*
X186938503Y-132372194D01*
X186919815Y-132550000D01*
X183919674Y-132550000D01*
X183911497Y-132472197D01*
X183856250Y-132302165D01*
X183766859Y-132147335D01*
X183711201Y-132085521D01*
X183647235Y-132014478D01*
X183647232Y-132014476D01*
X183647231Y-132014475D01*
X183647230Y-132014474D01*
X183502593Y-131909388D01*
X183339267Y-131836671D01*
X183339265Y-131836670D01*
X183197436Y-131806524D01*
X183135954Y-131773332D01*
X183102178Y-131712169D01*
X183105286Y-131646915D01*
X183111497Y-131627803D01*
X183130185Y-131450000D01*
X183111497Y-131272197D01*
X183056250Y-131102165D01*
X182966859Y-130947335D01*
X182911201Y-130885521D01*
X182847235Y-130814478D01*
X182847232Y-130814476D01*
X182847231Y-130814475D01*
X182847230Y-130814474D01*
X182702593Y-130709388D01*
X182539267Y-130636671D01*
X182539265Y-130636670D01*
X182411594Y-130609533D01*
X182364391Y-130599500D01*
X182185609Y-130599500D01*
X182154954Y-130606015D01*
X182010733Y-130636670D01*
X182010728Y-130636672D01*
X181847408Y-130709387D01*
X181702768Y-130814475D01*
X181583140Y-130947336D01*
X181493750Y-131102164D01*
X181493747Y-131102170D01*
X181438504Y-131272192D01*
X181438503Y-131272194D01*
X181419815Y-131450000D01*
X160100500Y-131450000D01*
X160100500Y-130249999D01*
X192419815Y-130249999D01*
X192438503Y-130427805D01*
X192438504Y-130427807D01*
X192493747Y-130597829D01*
X192493750Y-130597835D01*
X192583141Y-130752665D01*
X192624812Y-130798946D01*
X192702764Y-130885521D01*
X192702767Y-130885523D01*
X192702770Y-130885526D01*
X192847407Y-130990612D01*
X193010733Y-131063329D01*
X193185609Y-131100500D01*
X193185610Y-131100500D01*
X193364389Y-131100500D01*
X193364391Y-131100500D01*
X193539267Y-131063329D01*
X193702593Y-130990612D01*
X193847230Y-130885526D01*
X193966859Y-130752665D01*
X194056250Y-130597835D01*
X194111497Y-130427803D01*
X194130185Y-130250000D01*
X194111497Y-130072197D01*
X194056250Y-129902165D01*
X193966859Y-129747335D01*
X193920003Y-129695296D01*
X193847235Y-129614478D01*
X193847232Y-129614476D01*
X193847231Y-129614475D01*
X193847230Y-129614474D01*
X193702593Y-129509388D01*
X193539267Y-129436671D01*
X193539265Y-129436670D01*
X193411594Y-129409533D01*
X193364391Y-129399500D01*
X193185609Y-129399500D01*
X193154954Y-129406015D01*
X193010733Y-129436670D01*
X193010728Y-129436672D01*
X192847408Y-129509387D01*
X192702768Y-129614475D01*
X192583140Y-129747336D01*
X192493750Y-129902164D01*
X192493747Y-129902170D01*
X192438504Y-130072192D01*
X192438503Y-130072194D01*
X192419815Y-130249999D01*
X160100500Y-130249999D01*
X160100500Y-128674999D01*
X171169815Y-128674999D01*
X171188503Y-128852805D01*
X171188504Y-128852807D01*
X171243747Y-129022829D01*
X171243750Y-129022835D01*
X171333141Y-129177665D01*
X171374812Y-129223946D01*
X171452764Y-129310521D01*
X171452767Y-129310523D01*
X171452770Y-129310526D01*
X171597407Y-129415612D01*
X171760733Y-129488329D01*
X171935609Y-129525500D01*
X171935610Y-129525500D01*
X172114389Y-129525500D01*
X172114391Y-129525500D01*
X172289267Y-129488329D01*
X172452593Y-129415612D01*
X172597230Y-129310526D01*
X172716859Y-129177665D01*
X172806250Y-129022835D01*
X172861497Y-128852803D01*
X172880185Y-128675000D01*
X172861497Y-128497197D01*
X172830078Y-128400500D01*
X172806252Y-128327170D01*
X172806249Y-128327164D01*
X172727410Y-128190610D01*
X172716859Y-128172335D01*
X172638693Y-128085523D01*
X172597235Y-128039478D01*
X172597232Y-128039476D01*
X172597231Y-128039475D01*
X172597230Y-128039474D01*
X172452593Y-127934388D01*
X172289267Y-127861671D01*
X172289265Y-127861670D01*
X172161594Y-127834533D01*
X172114391Y-127824500D01*
X171935609Y-127824500D01*
X171904954Y-127831015D01*
X171760733Y-127861670D01*
X171760728Y-127861672D01*
X171597408Y-127934387D01*
X171452768Y-128039475D01*
X171333140Y-128172336D01*
X171243750Y-128327164D01*
X171243747Y-128327170D01*
X171188504Y-128497192D01*
X171188503Y-128497194D01*
X171169815Y-128674999D01*
X160100500Y-128674999D01*
X160100500Y-127550000D01*
X186119815Y-127550000D01*
X186138503Y-127727805D01*
X186138504Y-127727807D01*
X186193747Y-127897829D01*
X186193750Y-127897835D01*
X186283141Y-128052665D01*
X186324812Y-128098946D01*
X186402764Y-128185521D01*
X186402767Y-128185523D01*
X186402770Y-128185526D01*
X186547407Y-128290612D01*
X186710733Y-128363329D01*
X186885609Y-128400500D01*
X186885610Y-128400500D01*
X187064389Y-128400500D01*
X187064391Y-128400500D01*
X187239267Y-128363329D01*
X187402593Y-128290612D01*
X187547230Y-128185526D01*
X187559107Y-128172336D01*
X187573148Y-128156741D01*
X187666859Y-128052665D01*
X187756250Y-127897835D01*
X187811497Y-127727803D01*
X187830185Y-127550000D01*
X187819674Y-127449999D01*
X190819815Y-127449999D01*
X190838503Y-127627805D01*
X190838504Y-127627807D01*
X190893747Y-127797829D01*
X190893750Y-127797835D01*
X190983141Y-127952665D01*
X191024812Y-127998946D01*
X191102764Y-128085521D01*
X191102767Y-128085523D01*
X191102770Y-128085526D01*
X191247407Y-128190612D01*
X191410733Y-128263329D01*
X191585609Y-128300500D01*
X191585610Y-128300500D01*
X191764389Y-128300500D01*
X191764391Y-128300500D01*
X191939267Y-128263329D01*
X192102593Y-128190612D01*
X192247230Y-128085526D01*
X192366859Y-127952665D01*
X192456250Y-127797835D01*
X192511497Y-127627803D01*
X192530185Y-127450000D01*
X192511497Y-127272197D01*
X192456250Y-127102165D01*
X192366859Y-126947335D01*
X192320003Y-126895296D01*
X192247235Y-126814478D01*
X192247232Y-126814476D01*
X192247231Y-126814475D01*
X192247230Y-126814474D01*
X192102593Y-126709388D01*
X191939267Y-126636671D01*
X191939265Y-126636670D01*
X191811594Y-126609533D01*
X191764391Y-126599500D01*
X191585609Y-126599500D01*
X191554954Y-126606015D01*
X191410733Y-126636670D01*
X191410728Y-126636672D01*
X191247408Y-126709387D01*
X191102768Y-126814475D01*
X190983140Y-126947336D01*
X190893750Y-127102164D01*
X190893747Y-127102170D01*
X190838504Y-127272192D01*
X190838503Y-127272194D01*
X190819815Y-127449999D01*
X187819674Y-127449999D01*
X187811497Y-127372197D01*
X187756250Y-127202165D01*
X187666859Y-127047335D01*
X187620003Y-126995296D01*
X187547235Y-126914478D01*
X187547232Y-126914476D01*
X187547231Y-126914475D01*
X187547230Y-126914474D01*
X187402593Y-126809388D01*
X187239267Y-126736671D01*
X187239265Y-126736670D01*
X187110906Y-126709387D01*
X187064391Y-126699500D01*
X186885609Y-126699500D01*
X186854954Y-126706015D01*
X186710733Y-126736670D01*
X186710728Y-126736672D01*
X186547408Y-126809387D01*
X186402768Y-126914475D01*
X186283140Y-127047336D01*
X186193750Y-127202164D01*
X186193747Y-127202170D01*
X186138504Y-127372192D01*
X186138503Y-127372194D01*
X186119815Y-127550000D01*
X160100500Y-127550000D01*
X160100500Y-125474894D01*
X163941373Y-125474894D01*
X163971808Y-125647502D01*
X163971809Y-125647505D01*
X163971810Y-125647509D01*
X164041234Y-125808452D01*
X164041236Y-125808454D01*
X164041240Y-125808462D01*
X164145895Y-125949038D01*
X164145903Y-125949047D01*
X164280173Y-126061713D01*
X164436808Y-126140378D01*
X164607361Y-126180800D01*
X164607363Y-126180800D01*
X164738659Y-126180800D01*
X164738667Y-126180800D01*
X164869093Y-126165555D01*
X165033800Y-126105607D01*
X165180243Y-126009290D01*
X165236181Y-125949999D01*
X166419815Y-125949999D01*
X166438503Y-126127805D01*
X166438504Y-126127807D01*
X166493747Y-126297829D01*
X166493750Y-126297835D01*
X166583141Y-126452665D01*
X166624812Y-126498946D01*
X166702764Y-126585521D01*
X166702767Y-126585523D01*
X166702770Y-126585526D01*
X166847407Y-126690612D01*
X167010733Y-126763329D01*
X167185609Y-126800500D01*
X167185610Y-126800500D01*
X167364389Y-126800500D01*
X167364391Y-126800500D01*
X167539267Y-126763329D01*
X167702593Y-126690612D01*
X167802114Y-126618304D01*
X167867920Y-126594824D01*
X167935974Y-126610649D01*
X167947886Y-126618305D01*
X168047401Y-126690608D01*
X168047402Y-126690609D01*
X168047404Y-126690610D01*
X168047407Y-126690612D01*
X168210733Y-126763329D01*
X168385609Y-126800500D01*
X168385610Y-126800500D01*
X168564389Y-126800500D01*
X168564391Y-126800500D01*
X168739267Y-126763329D01*
X168769200Y-126750002D01*
X172594751Y-126750002D01*
X172613685Y-126918056D01*
X172669545Y-127077694D01*
X172669547Y-127077697D01*
X172759518Y-127220884D01*
X172759523Y-127220890D01*
X172879109Y-127340476D01*
X172879115Y-127340481D01*
X173022302Y-127430452D01*
X173022305Y-127430454D01*
X173022309Y-127430455D01*
X173022310Y-127430456D01*
X173078161Y-127449999D01*
X173181943Y-127486314D01*
X173349997Y-127505249D01*
X173350000Y-127505249D01*
X173350003Y-127505249D01*
X173518056Y-127486314D01*
X173518059Y-127486313D01*
X173677690Y-127430456D01*
X173677692Y-127430454D01*
X173677694Y-127430454D01*
X173677697Y-127430452D01*
X173820884Y-127340481D01*
X173820885Y-127340480D01*
X173820890Y-127340477D01*
X173940477Y-127220890D01*
X173952243Y-127202165D01*
X174030452Y-127077697D01*
X174030454Y-127077694D01*
X174030454Y-127077692D01*
X174030456Y-127077690D01*
X174086313Y-126918059D01*
X174086313Y-126918058D01*
X174086314Y-126918056D01*
X174105249Y-126750002D01*
X174105249Y-126749997D01*
X174086314Y-126581943D01*
X174055860Y-126494913D01*
X174030456Y-126422310D01*
X174030455Y-126422309D01*
X174030454Y-126422305D01*
X174030452Y-126422302D01*
X173940481Y-126279115D01*
X173940476Y-126279109D01*
X173820890Y-126159523D01*
X173820884Y-126159518D01*
X173677697Y-126069547D01*
X173677694Y-126069545D01*
X173518056Y-126013685D01*
X173350003Y-125994751D01*
X173349997Y-125994751D01*
X173181943Y-126013685D01*
X173022305Y-126069545D01*
X173022302Y-126069547D01*
X172879115Y-126159518D01*
X172879109Y-126159523D01*
X172759523Y-126279109D01*
X172759518Y-126279115D01*
X172669547Y-126422302D01*
X172669545Y-126422305D01*
X172613685Y-126581943D01*
X172594751Y-126749997D01*
X172594751Y-126750002D01*
X168769200Y-126750002D01*
X168902593Y-126690612D01*
X169047230Y-126585526D01*
X169050457Y-126581943D01*
X169075000Y-126554684D01*
X169166859Y-126452665D01*
X169256250Y-126297835D01*
X169311497Y-126127803D01*
X169330185Y-125950000D01*
X169311497Y-125772197D01*
X169256250Y-125602165D01*
X169166859Y-125447335D01*
X169120003Y-125395296D01*
X169047235Y-125314478D01*
X169047232Y-125314476D01*
X169047231Y-125314475D01*
X169047230Y-125314474D01*
X168902593Y-125209388D01*
X168739267Y-125136671D01*
X168739265Y-125136670D01*
X168611594Y-125109533D01*
X168564391Y-125099500D01*
X168385609Y-125099500D01*
X168354954Y-125106015D01*
X168210733Y-125136670D01*
X168210728Y-125136672D01*
X168047408Y-125209388D01*
X168047403Y-125209390D01*
X167947885Y-125281695D01*
X167882079Y-125305175D01*
X167814025Y-125289349D01*
X167802114Y-125281695D01*
X167709618Y-125214492D01*
X167702593Y-125209388D01*
X167539267Y-125136671D01*
X167539265Y-125136670D01*
X167411594Y-125109533D01*
X167364391Y-125099500D01*
X167185609Y-125099500D01*
X167154954Y-125106015D01*
X167010733Y-125136670D01*
X167010728Y-125136672D01*
X166847408Y-125209387D01*
X166702768Y-125314475D01*
X166583140Y-125447336D01*
X166493750Y-125602164D01*
X166493747Y-125602170D01*
X166438504Y-125772192D01*
X166438503Y-125772194D01*
X166419815Y-125949999D01*
X165236181Y-125949999D01*
X165300526Y-125881797D01*
X165388165Y-125730002D01*
X165438435Y-125562088D01*
X165448627Y-125387106D01*
X165418190Y-125214491D01*
X165348766Y-125053548D01*
X165348762Y-125053542D01*
X165348759Y-125053537D01*
X165244104Y-124912961D01*
X165244096Y-124912952D01*
X165109827Y-124800287D01*
X165109825Y-124800286D01*
X164953195Y-124721623D01*
X164953193Y-124721622D01*
X164953192Y-124721622D01*
X164782639Y-124681200D01*
X164651333Y-124681200D01*
X164546992Y-124693396D01*
X164520905Y-124696445D01*
X164520903Y-124696446D01*
X164356202Y-124756391D01*
X164209756Y-124852710D01*
X164089474Y-124980201D01*
X164001836Y-125131995D01*
X163951565Y-125299910D01*
X163951564Y-125299916D01*
X163941373Y-125474893D01*
X163941373Y-125474894D01*
X160100500Y-125474894D01*
X160100500Y-124458894D01*
X169021373Y-124458894D01*
X169051808Y-124631502D01*
X169051809Y-124631505D01*
X169051810Y-124631509D01*
X169121234Y-124792452D01*
X169121236Y-124792454D01*
X169121240Y-124792462D01*
X169225895Y-124933038D01*
X169225903Y-124933047D01*
X169360173Y-125045713D01*
X169516808Y-125124378D01*
X169687361Y-125164800D01*
X169687363Y-125164800D01*
X169818659Y-125164800D01*
X169818667Y-125164800D01*
X169949093Y-125149555D01*
X170113800Y-125089607D01*
X170260243Y-124993290D01*
X170380526Y-124865797D01*
X170468165Y-124714002D01*
X170518435Y-124546088D01*
X170528627Y-124371106D01*
X170498190Y-124198491D01*
X170428766Y-124037548D01*
X170428762Y-124037542D01*
X170428759Y-124037537D01*
X170324104Y-123896961D01*
X170324096Y-123896952D01*
X170189827Y-123784287D01*
X170189825Y-123784286D01*
X170033195Y-123705623D01*
X170033193Y-123705622D01*
X170033192Y-123705622D01*
X169862639Y-123665200D01*
X169731333Y-123665200D01*
X169626992Y-123677396D01*
X169600905Y-123680445D01*
X169600903Y-123680446D01*
X169436202Y-123740391D01*
X169289756Y-123836710D01*
X169169474Y-123964201D01*
X169081836Y-124115995D01*
X169031565Y-124283910D01*
X169031564Y-124283916D01*
X169021373Y-124458893D01*
X169021373Y-124458894D01*
X160100500Y-124458894D01*
X160100500Y-123442894D01*
X163941373Y-123442894D01*
X163971808Y-123615502D01*
X163971809Y-123615505D01*
X163971810Y-123615509D01*
X164041234Y-123776452D01*
X164041236Y-123776454D01*
X164041240Y-123776462D01*
X164145895Y-123917038D01*
X164145903Y-123917047D01*
X164280173Y-124029713D01*
X164436808Y-124108378D01*
X164607361Y-124148800D01*
X164607363Y-124148800D01*
X164738659Y-124148800D01*
X164738667Y-124148800D01*
X164869093Y-124133555D01*
X165033800Y-124073607D01*
X165180243Y-123977290D01*
X165300526Y-123849797D01*
X165388165Y-123698002D01*
X165416025Y-123604941D01*
X165454107Y-123546368D01*
X165517815Y-123517679D01*
X165586920Y-123527987D01*
X165600787Y-123535515D01*
X165672307Y-123580454D01*
X165672305Y-123580454D01*
X165672309Y-123580455D01*
X165672310Y-123580456D01*
X165721977Y-123597835D01*
X165831943Y-123636314D01*
X165999997Y-123655249D01*
X166000000Y-123655249D01*
X166000003Y-123655249D01*
X166168056Y-123636314D01*
X166220226Y-123618059D01*
X166327690Y-123580456D01*
X166327692Y-123580454D01*
X166327694Y-123580454D01*
X166327697Y-123580452D01*
X166470884Y-123490481D01*
X166470885Y-123490480D01*
X166470890Y-123490477D01*
X166590477Y-123370890D01*
X166644117Y-123285523D01*
X166680452Y-123227697D01*
X166680454Y-123227694D01*
X166680454Y-123227692D01*
X166680456Y-123227690D01*
X166736313Y-123068059D01*
X166736313Y-123068058D01*
X166736314Y-123068056D01*
X166738348Y-123050000D01*
X170519815Y-123050000D01*
X170522148Y-123072194D01*
X170538503Y-123227805D01*
X170538504Y-123227807D01*
X170593747Y-123397829D01*
X170593750Y-123397835D01*
X170683141Y-123552665D01*
X170723807Y-123597829D01*
X170802764Y-123685521D01*
X170802767Y-123685523D01*
X170802770Y-123685526D01*
X170947407Y-123790612D01*
X171110733Y-123863329D01*
X171285609Y-123900500D01*
X171285610Y-123900500D01*
X171464389Y-123900500D01*
X171464391Y-123900500D01*
X171639267Y-123863329D01*
X171802593Y-123790612D01*
X171947230Y-123685526D01*
X172066859Y-123552665D01*
X172156250Y-123397835D01*
X172204285Y-123250000D01*
X173519815Y-123250000D01*
X173521698Y-123267912D01*
X173538503Y-123427805D01*
X173538504Y-123427807D01*
X173593747Y-123597829D01*
X173593750Y-123597835D01*
X173683141Y-123752665D01*
X173705680Y-123777697D01*
X173802764Y-123885521D01*
X173802767Y-123885523D01*
X173802770Y-123885526D01*
X173947407Y-123990612D01*
X174110733Y-124063329D01*
X174285609Y-124100500D01*
X174285610Y-124100500D01*
X174464389Y-124100500D01*
X174464391Y-124100500D01*
X174639267Y-124063329D01*
X174802593Y-123990612D01*
X174947230Y-123885526D01*
X175066859Y-123752665D01*
X175156250Y-123597835D01*
X175204284Y-123450002D01*
X181144751Y-123450002D01*
X181163685Y-123618056D01*
X181219545Y-123777694D01*
X181219547Y-123777697D01*
X181309518Y-123920884D01*
X181309523Y-123920890D01*
X181429109Y-124040476D01*
X181429115Y-124040481D01*
X181572302Y-124130452D01*
X181572305Y-124130454D01*
X181572309Y-124130455D01*
X181572310Y-124130456D01*
X181644913Y-124155860D01*
X181731943Y-124186314D01*
X181899997Y-124205249D01*
X181900000Y-124205249D01*
X181900003Y-124205249D01*
X182068056Y-124186314D01*
X182068059Y-124186313D01*
X182227690Y-124130456D01*
X182227692Y-124130454D01*
X182227694Y-124130454D01*
X182227697Y-124130452D01*
X182370884Y-124040481D01*
X182370885Y-124040480D01*
X182370890Y-124040477D01*
X182490477Y-123920890D01*
X182492892Y-123917047D01*
X182580452Y-123777697D01*
X182580454Y-123777694D01*
X182580454Y-123777692D01*
X182580456Y-123777690D01*
X182636313Y-123618059D01*
X182636313Y-123618058D01*
X182636314Y-123618056D01*
X182655249Y-123450002D01*
X182655249Y-123449997D01*
X182636314Y-123281943D01*
X182599068Y-123175500D01*
X182580456Y-123122310D01*
X182580455Y-123122309D01*
X182580454Y-123122305D01*
X182580452Y-123122302D01*
X182490481Y-122979115D01*
X182490476Y-122979109D01*
X182370890Y-122859523D01*
X182370884Y-122859518D01*
X182227697Y-122769547D01*
X182227694Y-122769545D01*
X182068056Y-122713685D01*
X181900003Y-122694751D01*
X181899997Y-122694751D01*
X181731943Y-122713685D01*
X181572305Y-122769545D01*
X181572302Y-122769547D01*
X181429115Y-122859518D01*
X181429109Y-122859523D01*
X181309523Y-122979109D01*
X181309518Y-122979115D01*
X181219547Y-123122302D01*
X181219545Y-123122305D01*
X181163685Y-123281943D01*
X181144751Y-123449997D01*
X181144751Y-123450002D01*
X175204284Y-123450002D01*
X175211497Y-123427803D01*
X175230185Y-123250000D01*
X175211497Y-123072197D01*
X175168700Y-122940481D01*
X175156252Y-122902170D01*
X175156249Y-122902164D01*
X175131630Y-122859523D01*
X175087736Y-122783495D01*
X175071263Y-122715594D01*
X175090682Y-122659489D01*
X175088610Y-122658293D01*
X175138252Y-122572310D01*
X175181250Y-122497835D01*
X175236497Y-122327803D01*
X175255185Y-122150000D01*
X175236497Y-121972197D01*
X175192462Y-121836671D01*
X175181252Y-121802170D01*
X175181249Y-121802164D01*
X175178750Y-121797835D01*
X175093399Y-121650002D01*
X176594751Y-121650002D01*
X176613685Y-121818056D01*
X176669545Y-121977694D01*
X176669547Y-121977697D01*
X176759518Y-122120884D01*
X176759523Y-122120890D01*
X176879109Y-122240476D01*
X176879115Y-122240481D01*
X177022302Y-122330452D01*
X177022305Y-122330454D01*
X177022309Y-122330455D01*
X177022310Y-122330456D01*
X177078155Y-122349997D01*
X177181943Y-122386314D01*
X177349997Y-122405249D01*
X177350000Y-122405249D01*
X177350003Y-122405249D01*
X177450835Y-122393887D01*
X177518059Y-122386313D01*
X177677690Y-122330456D01*
X177684021Y-122326477D01*
X177751256Y-122307473D01*
X177815972Y-122326474D01*
X177822306Y-122330454D01*
X177822307Y-122330454D01*
X177822310Y-122330456D01*
X177878170Y-122350002D01*
X177981943Y-122386314D01*
X178149997Y-122405249D01*
X178150000Y-122405249D01*
X178150003Y-122405249D01*
X178318056Y-122386314D01*
X178318059Y-122386313D01*
X178421830Y-122350002D01*
X179544751Y-122350002D01*
X179563685Y-122518056D01*
X179619545Y-122677694D01*
X179619547Y-122677697D01*
X179709518Y-122820884D01*
X179709523Y-122820890D01*
X179829109Y-122940476D01*
X179829115Y-122940481D01*
X179972302Y-123030452D01*
X179972305Y-123030454D01*
X179972309Y-123030455D01*
X179972310Y-123030456D01*
X180028161Y-123049999D01*
X180131943Y-123086314D01*
X180299997Y-123105249D01*
X180300000Y-123105249D01*
X180300003Y-123105249D01*
X180468056Y-123086314D01*
X180468059Y-123086313D01*
X180627690Y-123030456D01*
X180627692Y-123030454D01*
X180627694Y-123030454D01*
X180627697Y-123030452D01*
X180770884Y-122940481D01*
X180770885Y-122940480D01*
X180770890Y-122940477D01*
X180890477Y-122820890D01*
X180913974Y-122783495D01*
X180980452Y-122677697D01*
X180980454Y-122677694D01*
X180980454Y-122677692D01*
X180980456Y-122677690D01*
X180990145Y-122650000D01*
X191419815Y-122650000D01*
X191438503Y-122827805D01*
X191438504Y-122827807D01*
X191493747Y-122997829D01*
X191493750Y-122997835D01*
X191583141Y-123152665D01*
X191603702Y-123175500D01*
X191702764Y-123285521D01*
X191702767Y-123285523D01*
X191702770Y-123285526D01*
X191847407Y-123390612D01*
X192010733Y-123463329D01*
X192185609Y-123500500D01*
X192185610Y-123500500D01*
X192364389Y-123500500D01*
X192364391Y-123500500D01*
X192539267Y-123463329D01*
X192702593Y-123390612D01*
X192847230Y-123285526D01*
X192850457Y-123281943D01*
X192879219Y-123249999D01*
X192966859Y-123152665D01*
X193056250Y-122997835D01*
X193111497Y-122827803D01*
X193130185Y-122650000D01*
X193111497Y-122472197D01*
X193065443Y-122330457D01*
X193056252Y-122302170D01*
X193056249Y-122302164D01*
X193037160Y-122269101D01*
X193020765Y-122240704D01*
X193004293Y-122172804D01*
X193027146Y-122106778D01*
X193082067Y-122063587D01*
X193102356Y-122057418D01*
X193192168Y-122038329D01*
X193355494Y-121965612D01*
X193500131Y-121860526D01*
X193619760Y-121727665D01*
X193709151Y-121572835D01*
X193764398Y-121402803D01*
X193783086Y-121225000D01*
X193764398Y-121047197D01*
X193709151Y-120877165D01*
X193619760Y-120722335D01*
X193572904Y-120670296D01*
X193500136Y-120589478D01*
X193500133Y-120589476D01*
X193500132Y-120589475D01*
X193500131Y-120589474D01*
X193355494Y-120484388D01*
X193192168Y-120411671D01*
X193192166Y-120411670D01*
X193064495Y-120384533D01*
X193017292Y-120374500D01*
X192838510Y-120374500D01*
X192807855Y-120381015D01*
X192663634Y-120411670D01*
X192663629Y-120411672D01*
X192500309Y-120484387D01*
X192355669Y-120589475D01*
X192236041Y-120722336D01*
X192146651Y-120877164D01*
X192146648Y-120877170D01*
X192091405Y-121047192D01*
X192091404Y-121047194D01*
X192072716Y-121225000D01*
X192091404Y-121402805D01*
X192091405Y-121402807D01*
X192146648Y-121572829D01*
X192146650Y-121572832D01*
X192146651Y-121572835D01*
X192170236Y-121613685D01*
X192182135Y-121634295D01*
X192198607Y-121702195D01*
X192175754Y-121768222D01*
X192120832Y-121811412D01*
X192100528Y-121817584D01*
X192010733Y-121836670D01*
X192010728Y-121836672D01*
X191847408Y-121909387D01*
X191702768Y-122014475D01*
X191583140Y-122147336D01*
X191493750Y-122302164D01*
X191493747Y-122302170D01*
X191438504Y-122472192D01*
X191438503Y-122472194D01*
X191419815Y-122650000D01*
X180990145Y-122650000D01*
X181036313Y-122518059D01*
X181036313Y-122518058D01*
X181036314Y-122518056D01*
X181055249Y-122350002D01*
X181055249Y-122349997D01*
X181036314Y-122181943D01*
X180980454Y-122022305D01*
X180980452Y-122022302D01*
X180890481Y-121879115D01*
X180890476Y-121879109D01*
X180770890Y-121759523D01*
X180770884Y-121759518D01*
X180627697Y-121669547D01*
X180627694Y-121669545D01*
X180468056Y-121613685D01*
X180300003Y-121594751D01*
X180299997Y-121594751D01*
X180131943Y-121613685D01*
X179972305Y-121669545D01*
X179972302Y-121669547D01*
X179829115Y-121759518D01*
X179829109Y-121759523D01*
X179709523Y-121879109D01*
X179709518Y-121879115D01*
X179619547Y-122022302D01*
X179619545Y-122022305D01*
X179563685Y-122181943D01*
X179544751Y-122349997D01*
X179544751Y-122350002D01*
X178421830Y-122350002D01*
X178477690Y-122330456D01*
X178477692Y-122330454D01*
X178477694Y-122330454D01*
X178477697Y-122330452D01*
X178620884Y-122240481D01*
X178620885Y-122240480D01*
X178620890Y-122240477D01*
X178740477Y-122120890D01*
X178792354Y-122038329D01*
X178830452Y-121977697D01*
X178830454Y-121977694D01*
X178830454Y-121977692D01*
X178830456Y-121977690D01*
X178886313Y-121818059D01*
X178886313Y-121818058D01*
X178886314Y-121818056D01*
X178905249Y-121650002D01*
X178905249Y-121649997D01*
X178886314Y-121481943D01*
X178830454Y-121322305D01*
X178830452Y-121322302D01*
X178740481Y-121179115D01*
X178740476Y-121179109D01*
X178620890Y-121059523D01*
X178620884Y-121059518D01*
X178477697Y-120969547D01*
X178477694Y-120969545D01*
X178318056Y-120913685D01*
X178150003Y-120894751D01*
X178149997Y-120894751D01*
X177981943Y-120913685D01*
X177856841Y-120957461D01*
X177822310Y-120969544D01*
X177822309Y-120969544D01*
X177822305Y-120969546D01*
X177815962Y-120973531D01*
X177748724Y-120992525D01*
X177684028Y-120973526D01*
X177677692Y-120969545D01*
X177677691Y-120969544D01*
X177677690Y-120969544D01*
X177614223Y-120947336D01*
X177518056Y-120913685D01*
X177350003Y-120894751D01*
X177349997Y-120894751D01*
X177181943Y-120913685D01*
X177022305Y-120969545D01*
X177022302Y-120969547D01*
X176879115Y-121059518D01*
X176879109Y-121059523D01*
X176759523Y-121179109D01*
X176759518Y-121179115D01*
X176669547Y-121322302D01*
X176669545Y-121322305D01*
X176613685Y-121481943D01*
X176594751Y-121649997D01*
X176594751Y-121650002D01*
X175093399Y-121650002D01*
X175091859Y-121647335D01*
X175035181Y-121584388D01*
X174972235Y-121514478D01*
X174972232Y-121514476D01*
X174972231Y-121514475D01*
X174972230Y-121514474D01*
X174827593Y-121409388D01*
X174664267Y-121336671D01*
X174664265Y-121336670D01*
X174536594Y-121309533D01*
X174489391Y-121299500D01*
X174310609Y-121299500D01*
X174279954Y-121306015D01*
X174135733Y-121336670D01*
X174135728Y-121336672D01*
X173972408Y-121409387D01*
X173827768Y-121514475D01*
X173708140Y-121647336D01*
X173618750Y-121802164D01*
X173618747Y-121802170D01*
X173563504Y-121972192D01*
X173563503Y-121972194D01*
X173544815Y-122149999D01*
X173563503Y-122327805D01*
X173563504Y-122327807D01*
X173618747Y-122497829D01*
X173618752Y-122497840D01*
X173687263Y-122616505D01*
X173703736Y-122684405D01*
X173684317Y-122740510D01*
X173686390Y-122741707D01*
X173593750Y-122902164D01*
X173593747Y-122902170D01*
X173538504Y-123072192D01*
X173538503Y-123072194D01*
X173519815Y-123249999D01*
X173519815Y-123250000D01*
X172204285Y-123250000D01*
X172211497Y-123227803D01*
X172230185Y-123050000D01*
X172211497Y-122872197D01*
X172178143Y-122769544D01*
X172156252Y-122702170D01*
X172156249Y-122702164D01*
X172152341Y-122695395D01*
X172066859Y-122547335D01*
X172020003Y-122495296D01*
X171947235Y-122414478D01*
X171947230Y-122414474D01*
X171908926Y-122386644D01*
X171866261Y-122331314D01*
X171860283Y-122261700D01*
X171892890Y-122199906D01*
X171908919Y-122186015D01*
X172047230Y-122085526D01*
X172056258Y-122075500D01*
X172073148Y-122056741D01*
X172166859Y-121952665D01*
X172256250Y-121797835D01*
X172311497Y-121627803D01*
X172330185Y-121450000D01*
X172311497Y-121272197D01*
X172256250Y-121102165D01*
X172166859Y-120947335D01*
X172103682Y-120877170D01*
X172047235Y-120814478D01*
X172047232Y-120814476D01*
X172047231Y-120814475D01*
X172047230Y-120814474D01*
X171902593Y-120709388D01*
X171739267Y-120636671D01*
X171739265Y-120636670D01*
X171611594Y-120609533D01*
X171564391Y-120599500D01*
X171385609Y-120599500D01*
X171354954Y-120606015D01*
X171210733Y-120636670D01*
X171210728Y-120636672D01*
X171047408Y-120709387D01*
X170902768Y-120814475D01*
X170783140Y-120947336D01*
X170693750Y-121102164D01*
X170693747Y-121102170D01*
X170638504Y-121272192D01*
X170638503Y-121272194D01*
X170624083Y-121409389D01*
X170619815Y-121450000D01*
X170622390Y-121474500D01*
X170638503Y-121627805D01*
X170638504Y-121627807D01*
X170693747Y-121797829D01*
X170693750Y-121797835D01*
X170783141Y-121952665D01*
X170805680Y-121977697D01*
X170902764Y-122085521D01*
X170902768Y-122085523D01*
X170902770Y-122085526D01*
X170932021Y-122106778D01*
X170941072Y-122113354D01*
X170983738Y-122168684D01*
X170989717Y-122238297D01*
X170957112Y-122300092D01*
X170941073Y-122313990D01*
X170802768Y-122414475D01*
X170683140Y-122547336D01*
X170593750Y-122702164D01*
X170593747Y-122702170D01*
X170538504Y-122872192D01*
X170538503Y-122872194D01*
X170521869Y-123030454D01*
X170519815Y-123050000D01*
X166738348Y-123050000D01*
X166755249Y-122900002D01*
X166755249Y-122899997D01*
X166736314Y-122731943D01*
X166680454Y-122572305D01*
X166680452Y-122572302D01*
X166590481Y-122429115D01*
X166590476Y-122429109D01*
X166470890Y-122309523D01*
X166470884Y-122309518D01*
X166327697Y-122219547D01*
X166327694Y-122219545D01*
X166168056Y-122163685D01*
X166000003Y-122144751D01*
X165999997Y-122144751D01*
X165831943Y-122163685D01*
X165672305Y-122219545D01*
X165672302Y-122219547D01*
X165529115Y-122309518D01*
X165529109Y-122309523D01*
X165409523Y-122429109D01*
X165409518Y-122429115D01*
X165319547Y-122572302D01*
X165319542Y-122572313D01*
X165276473Y-122695395D01*
X165235751Y-122752171D01*
X165170798Y-122777918D01*
X165103781Y-122765250D01*
X164953195Y-122689623D01*
X164953193Y-122689622D01*
X164953192Y-122689622D01*
X164782639Y-122649200D01*
X164651333Y-122649200D01*
X164546992Y-122661396D01*
X164520905Y-122664445D01*
X164520903Y-122664446D01*
X164356202Y-122724391D01*
X164209756Y-122820710D01*
X164089474Y-122948201D01*
X164001836Y-123099995D01*
X163951565Y-123267910D01*
X163951564Y-123267916D01*
X163941373Y-123442893D01*
X163941373Y-123442894D01*
X160100500Y-123442894D01*
X160100500Y-123186695D01*
X160120185Y-123119656D01*
X160172989Y-123073901D01*
X160242147Y-123063957D01*
X160274929Y-123073413D01*
X160420733Y-123138329D01*
X160595609Y-123175500D01*
X160595610Y-123175500D01*
X160774389Y-123175500D01*
X160774391Y-123175500D01*
X160949267Y-123138329D01*
X161112593Y-123065612D01*
X161257230Y-122960526D01*
X161376859Y-122827665D01*
X161466250Y-122672835D01*
X161521497Y-122502803D01*
X161540185Y-122325000D01*
X161521497Y-122147197D01*
X161492325Y-122057414D01*
X161466252Y-121977170D01*
X161466249Y-121977164D01*
X161376859Y-121822335D01*
X161320298Y-121759518D01*
X161257235Y-121689478D01*
X161257232Y-121689476D01*
X161257231Y-121689475D01*
X161257230Y-121689474D01*
X161112593Y-121584388D01*
X160949267Y-121511671D01*
X160949265Y-121511670D01*
X160821594Y-121484533D01*
X160774391Y-121474500D01*
X160595609Y-121474500D01*
X160564954Y-121481015D01*
X160420733Y-121511670D01*
X160420728Y-121511672D01*
X160274936Y-121576584D01*
X160205686Y-121585869D01*
X160142409Y-121556241D01*
X160105196Y-121497106D01*
X160100500Y-121463305D01*
X160100500Y-121024500D01*
X160120185Y-120957461D01*
X160172989Y-120911706D01*
X160224500Y-120900500D01*
X161000743Y-120900500D01*
X161152439Y-120885074D01*
X161346579Y-120824162D01*
X161346580Y-120824161D01*
X161346588Y-120824159D01*
X161524502Y-120725409D01*
X161678895Y-120592866D01*
X161712077Y-120549999D01*
X166244815Y-120549999D01*
X166263503Y-120727805D01*
X166263504Y-120727807D01*
X166318747Y-120897829D01*
X166318750Y-120897835D01*
X166408141Y-121052665D01*
X166449812Y-121098946D01*
X166527764Y-121185521D01*
X166527767Y-121185523D01*
X166527770Y-121185526D01*
X166672407Y-121290612D01*
X166835733Y-121363329D01*
X167010609Y-121400500D01*
X167010610Y-121400500D01*
X167189389Y-121400500D01*
X167189391Y-121400500D01*
X167364267Y-121363329D01*
X167527593Y-121290612D01*
X167672230Y-121185526D01*
X167791859Y-121052665D01*
X167881250Y-120897835D01*
X167936497Y-120727803D01*
X167955185Y-120550000D01*
X167936497Y-120372197D01*
X167881250Y-120202165D01*
X167791859Y-120047335D01*
X167745003Y-119995296D01*
X167672235Y-119914478D01*
X167672232Y-119914476D01*
X167672231Y-119914475D01*
X167672230Y-119914474D01*
X167527593Y-119809388D01*
X167364267Y-119736671D01*
X167364265Y-119736670D01*
X167236594Y-119709533D01*
X167189391Y-119699500D01*
X167010609Y-119699500D01*
X166979954Y-119706015D01*
X166835733Y-119736670D01*
X166835728Y-119736672D01*
X166672408Y-119809387D01*
X166527768Y-119914475D01*
X166408140Y-120047336D01*
X166318750Y-120202164D01*
X166318747Y-120202170D01*
X166263504Y-120372192D01*
X166263503Y-120372194D01*
X166244815Y-120549999D01*
X161712077Y-120549999D01*
X161803448Y-120431958D01*
X161893060Y-120249271D01*
X161944063Y-120052285D01*
X161954369Y-119849064D01*
X161923556Y-119647929D01*
X161852886Y-119457113D01*
X161745252Y-119284429D01*
X161605059Y-119136947D01*
X161506587Y-119068409D01*
X161438050Y-119020705D01*
X161251056Y-118940459D01*
X161051741Y-118899500D01*
X160224500Y-118899500D01*
X160157461Y-118879815D01*
X160111706Y-118827011D01*
X160100500Y-118775500D01*
X160100500Y-117150000D01*
X162000000Y-117150000D01*
X162758296Y-117150000D01*
X162671352Y-117221352D01*
X162543203Y-117377504D01*
X162543198Y-117377511D01*
X162447978Y-117555654D01*
X162389337Y-117748968D01*
X162369538Y-117950000D01*
X162389337Y-118151031D01*
X162447978Y-118344345D01*
X162543198Y-118522488D01*
X162543203Y-118522495D01*
X162671352Y-118678647D01*
X162780016Y-118767824D01*
X162827506Y-118806798D01*
X162827509Y-118806799D01*
X162827511Y-118806801D01*
X163005654Y-118902021D01*
X163005656Y-118902021D01*
X163005659Y-118902023D01*
X163198967Y-118960662D01*
X163349620Y-118975500D01*
X163349623Y-118975500D01*
X163650377Y-118975500D01*
X163650380Y-118975500D01*
X163801033Y-118960662D01*
X163994341Y-118902023D01*
X164172494Y-118806798D01*
X164328647Y-118678647D01*
X164372675Y-118624999D01*
X167344815Y-118624999D01*
X167363503Y-118802805D01*
X167363504Y-118802807D01*
X167418747Y-118972829D01*
X167418750Y-118972835D01*
X167508141Y-119127665D01*
X167549812Y-119173946D01*
X167627764Y-119260521D01*
X167627767Y-119260523D01*
X167627770Y-119260526D01*
X167772407Y-119365612D01*
X167935733Y-119438329D01*
X168110609Y-119475500D01*
X168110610Y-119475500D01*
X168289389Y-119475500D01*
X168289391Y-119475500D01*
X168464267Y-119438329D01*
X168627593Y-119365612D01*
X168772230Y-119260526D01*
X168891859Y-119127665D01*
X168981250Y-118972835D01*
X168988670Y-118950000D01*
X182119815Y-118950000D01*
X182122215Y-118972835D01*
X182138503Y-119127805D01*
X182138504Y-119127807D01*
X182193747Y-119297829D01*
X182193750Y-119297835D01*
X182283141Y-119452665D01*
X182287151Y-119457118D01*
X182402764Y-119585521D01*
X182402767Y-119585523D01*
X182402770Y-119585526D01*
X182547407Y-119690612D01*
X182710733Y-119763329D01*
X182885609Y-119800500D01*
X182885610Y-119800500D01*
X183064389Y-119800500D01*
X183064391Y-119800500D01*
X183239267Y-119763329D01*
X183402593Y-119690612D01*
X183547230Y-119585526D01*
X183666859Y-119452665D01*
X183756250Y-119297835D01*
X183811497Y-119127803D01*
X183830185Y-118950000D01*
X183811497Y-118772197D01*
X183763670Y-118625000D01*
X183756252Y-118602170D01*
X183756249Y-118602164D01*
X183666859Y-118447335D01*
X183611201Y-118385521D01*
X183547235Y-118314478D01*
X183547232Y-118314476D01*
X183547231Y-118314475D01*
X183547230Y-118314474D01*
X183402593Y-118209388D01*
X183402592Y-118209387D01*
X183399135Y-118207392D01*
X183397532Y-118205711D01*
X183397335Y-118205568D01*
X183397361Y-118205531D01*
X183350915Y-118156829D01*
X183337687Y-118088223D01*
X183363649Y-118023356D01*
X183399135Y-117992608D01*
X183402588Y-117990613D01*
X183402593Y-117990612D01*
X183547230Y-117885526D01*
X183666859Y-117752665D01*
X183756250Y-117597835D01*
X183811497Y-117427803D01*
X183830185Y-117250000D01*
X183811497Y-117072197D01*
X183780110Y-116975599D01*
X183756252Y-116902170D01*
X183756249Y-116902164D01*
X183754711Y-116899500D01*
X183666859Y-116747335D01*
X183606064Y-116679815D01*
X183547235Y-116614478D01*
X183547232Y-116614476D01*
X183547231Y-116614475D01*
X183547230Y-116614474D01*
X183402593Y-116509388D01*
X183239267Y-116436671D01*
X183239265Y-116436670D01*
X183111594Y-116409533D01*
X183064391Y-116399500D01*
X182885609Y-116399500D01*
X182854954Y-116406015D01*
X182710733Y-116436670D01*
X182710728Y-116436672D01*
X182547408Y-116509387D01*
X182402768Y-116614475D01*
X182283140Y-116747336D01*
X182193750Y-116902164D01*
X182193747Y-116902170D01*
X182138504Y-117072192D01*
X182138503Y-117072194D01*
X182119815Y-117249999D01*
X182138503Y-117427805D01*
X182138504Y-117427807D01*
X182193747Y-117597829D01*
X182193750Y-117597835D01*
X182283141Y-117752665D01*
X182324812Y-117798946D01*
X182402764Y-117885521D01*
X182402767Y-117885523D01*
X182402770Y-117885526D01*
X182545846Y-117989478D01*
X182547410Y-117990614D01*
X182550869Y-117992611D01*
X182552471Y-117994291D01*
X182552665Y-117994432D01*
X182552639Y-117994467D01*
X182599087Y-118043176D01*
X182612312Y-118111783D01*
X182586346Y-118176648D01*
X182550874Y-118207386D01*
X182547414Y-118209383D01*
X182402768Y-118314475D01*
X182283140Y-118447336D01*
X182193750Y-118602164D01*
X182193747Y-118602170D01*
X182138504Y-118772192D01*
X182138503Y-118772194D01*
X182120818Y-118940459D01*
X182119815Y-118950000D01*
X168988670Y-118950000D01*
X169036497Y-118802803D01*
X169055185Y-118625000D01*
X169036497Y-118447197D01*
X168993373Y-118314475D01*
X168981252Y-118277170D01*
X168981249Y-118277164D01*
X168891859Y-118122335D01*
X168802738Y-118023356D01*
X168772235Y-117989478D01*
X168772232Y-117989476D01*
X168772231Y-117989475D01*
X168772230Y-117989474D01*
X168627593Y-117884388D01*
X168464267Y-117811671D01*
X168464265Y-117811670D01*
X168336594Y-117784533D01*
X168289391Y-117774500D01*
X168110609Y-117774500D01*
X168079954Y-117781015D01*
X167935733Y-117811670D01*
X167935728Y-117811672D01*
X167772408Y-117884387D01*
X167627768Y-117989475D01*
X167508140Y-118122336D01*
X167418750Y-118277164D01*
X167418747Y-118277170D01*
X167363504Y-118447192D01*
X167363503Y-118447194D01*
X167344815Y-118624999D01*
X164372675Y-118624999D01*
X164456798Y-118522494D01*
X164552023Y-118344341D01*
X164610662Y-118151033D01*
X164630462Y-117950000D01*
X164610662Y-117748967D01*
X164552023Y-117555659D01*
X164552021Y-117555656D01*
X164552021Y-117555654D01*
X164456801Y-117377511D01*
X164456799Y-117377509D01*
X164456798Y-117377506D01*
X164417824Y-117330016D01*
X164328647Y-117221352D01*
X164241703Y-117150000D01*
X166100000Y-117150000D01*
X169400000Y-117850000D01*
X174000000Y-117850000D01*
X174000000Y-116250000D01*
X171700000Y-116250000D01*
X171175001Y-115550002D01*
X174144751Y-115550002D01*
X174163685Y-115718056D01*
X174219545Y-115877694D01*
X174219547Y-115877697D01*
X174309518Y-116020884D01*
X174309523Y-116020890D01*
X174432878Y-116144245D01*
X174466363Y-116205568D01*
X174461379Y-116275260D01*
X174437349Y-116314896D01*
X174408141Y-116347335D01*
X174408139Y-116347336D01*
X174408138Y-116347339D01*
X174318750Y-116502164D01*
X174318747Y-116502170D01*
X174263504Y-116672192D01*
X174263503Y-116672194D01*
X174244815Y-116850000D01*
X174263503Y-117027805D01*
X174263504Y-117027807D01*
X174318747Y-117197829D01*
X174318750Y-117197835D01*
X174408141Y-117352665D01*
X174430508Y-117377506D01*
X174527764Y-117485521D01*
X174527767Y-117485523D01*
X174527770Y-117485526D01*
X174672407Y-117590612D01*
X174835733Y-117663329D01*
X175010609Y-117700500D01*
X175010610Y-117700500D01*
X175189389Y-117700500D01*
X175189391Y-117700500D01*
X175364267Y-117663329D01*
X175527593Y-117590612D01*
X175672230Y-117485526D01*
X175791859Y-117352665D01*
X175881250Y-117197835D01*
X175936497Y-117027803D01*
X175955185Y-116850000D01*
X175936497Y-116672197D01*
X175899344Y-116557853D01*
X175881252Y-116502170D01*
X175881249Y-116502164D01*
X175791859Y-116347335D01*
X175726962Y-116275260D01*
X175672235Y-116214478D01*
X175672226Y-116214471D01*
X175583494Y-116150002D01*
X178244751Y-116150002D01*
X178263685Y-116318056D01*
X178319545Y-116477694D01*
X178319547Y-116477697D01*
X178409518Y-116620884D01*
X178409523Y-116620890D01*
X178529109Y-116740476D01*
X178529115Y-116740481D01*
X178672302Y-116830452D01*
X178672305Y-116830454D01*
X178672309Y-116830455D01*
X178672310Y-116830456D01*
X178728164Y-116850000D01*
X178831944Y-116886314D01*
X178872994Y-116890939D01*
X178937409Y-116918005D01*
X178976964Y-116975599D01*
X178979103Y-117045436D01*
X178966499Y-117076158D01*
X178893752Y-117202159D01*
X178893747Y-117202170D01*
X178838504Y-117372192D01*
X178838503Y-117372194D01*
X178819815Y-117550000D01*
X178838503Y-117727805D01*
X178838504Y-117727807D01*
X178893747Y-117897829D01*
X178893750Y-117897835D01*
X178983141Y-118052665D01*
X179015158Y-118088223D01*
X179102764Y-118185521D01*
X179102767Y-118185523D01*
X179102770Y-118185526D01*
X179247407Y-118290612D01*
X179410733Y-118363329D01*
X179585609Y-118400500D01*
X179585610Y-118400500D01*
X179764389Y-118400500D01*
X179764391Y-118400500D01*
X179939267Y-118363329D01*
X180102593Y-118290612D01*
X180204254Y-118216749D01*
X180270060Y-118193269D01*
X180338114Y-118209094D01*
X180377863Y-118248462D01*
X180379319Y-118247405D01*
X180383139Y-118252663D01*
X180502764Y-118385521D01*
X180502767Y-118385523D01*
X180502770Y-118385526D01*
X180647407Y-118490612D01*
X180810733Y-118563329D01*
X180985609Y-118600500D01*
X180985610Y-118600500D01*
X181164389Y-118600500D01*
X181164391Y-118600500D01*
X181339267Y-118563329D01*
X181502593Y-118490612D01*
X181647230Y-118385526D01*
X181766859Y-118252665D01*
X181856250Y-118097835D01*
X181911497Y-117927803D01*
X181930185Y-117750000D01*
X181911497Y-117572197D01*
X181864581Y-117427805D01*
X181856252Y-117402170D01*
X181856249Y-117402164D01*
X181827670Y-117352663D01*
X181766859Y-117247335D01*
X181706423Y-117180214D01*
X181647235Y-117114478D01*
X181647232Y-117114476D01*
X181647231Y-117114475D01*
X181647230Y-117114474D01*
X181502593Y-117009388D01*
X181339267Y-116936671D01*
X181339265Y-116936670D01*
X181176952Y-116902170D01*
X181164391Y-116899500D01*
X180985609Y-116899500D01*
X180973048Y-116902170D01*
X180810733Y-116936670D01*
X180810728Y-116936672D01*
X180647408Y-117009388D01*
X180647403Y-117009390D01*
X180545744Y-117083250D01*
X180479938Y-117106730D01*
X180411884Y-117090904D01*
X180372138Y-117051535D01*
X180370681Y-117052595D01*
X180366860Y-117047336D01*
X180247235Y-116914478D01*
X180247232Y-116914476D01*
X180247231Y-116914475D01*
X180247230Y-116914474D01*
X180102593Y-116809388D01*
X179939267Y-116736671D01*
X179939265Y-116736670D01*
X179764389Y-116699499D01*
X179757923Y-116698820D01*
X179758078Y-116697337D01*
X179698406Y-116679815D01*
X179652651Y-116627011D01*
X179642707Y-116557853D01*
X179660451Y-116509528D01*
X179666123Y-116500500D01*
X179680456Y-116477690D01*
X179736313Y-116318059D01*
X179736313Y-116318058D01*
X179736314Y-116318056D01*
X179755249Y-116150002D01*
X179755249Y-116149997D01*
X179736314Y-115981943D01*
X179680454Y-115822305D01*
X179680452Y-115822302D01*
X179590481Y-115679115D01*
X179590476Y-115679109D01*
X179584905Y-115673538D01*
X179572052Y-115649999D01*
X189844815Y-115649999D01*
X189863503Y-115827805D01*
X189863504Y-115827807D01*
X189918747Y-115997829D01*
X189918750Y-115997835D01*
X190008141Y-116152665D01*
X190049812Y-116198946D01*
X190127764Y-116285521D01*
X190127767Y-116285523D01*
X190127770Y-116285526D01*
X190272407Y-116390612D01*
X190435733Y-116463329D01*
X190610609Y-116500500D01*
X190610610Y-116500500D01*
X190789389Y-116500500D01*
X190789391Y-116500500D01*
X190964267Y-116463329D01*
X191127593Y-116390612D01*
X191272230Y-116285526D01*
X191391859Y-116152665D01*
X191481250Y-115997835D01*
X191534262Y-115834679D01*
X191573698Y-115777007D01*
X191638056Y-115749808D01*
X191702628Y-115759721D01*
X191710728Y-115763327D01*
X191710733Y-115763329D01*
X191885609Y-115800500D01*
X191885610Y-115800500D01*
X192064389Y-115800500D01*
X192064391Y-115800500D01*
X192239267Y-115763329D01*
X192402593Y-115690612D01*
X192547230Y-115585526D01*
X192666859Y-115452665D01*
X192756250Y-115297835D01*
X192811497Y-115127803D01*
X192830185Y-114950000D01*
X192811497Y-114772197D01*
X192756250Y-114602165D01*
X192666859Y-114447335D01*
X192620003Y-114395296D01*
X192547235Y-114314478D01*
X192547232Y-114314476D01*
X192547231Y-114314475D01*
X192547230Y-114314474D01*
X192402593Y-114209388D01*
X192239267Y-114136671D01*
X192239265Y-114136670D01*
X192111594Y-114109533D01*
X192064391Y-114099500D01*
X191885609Y-114099500D01*
X191854954Y-114106015D01*
X191710733Y-114136670D01*
X191710728Y-114136672D01*
X191547408Y-114209387D01*
X191402768Y-114314475D01*
X191283140Y-114447336D01*
X191193750Y-114602164D01*
X191193747Y-114602171D01*
X191140738Y-114765317D01*
X191101300Y-114822993D01*
X191036942Y-114850191D01*
X190972378Y-114840281D01*
X190964274Y-114836673D01*
X190964265Y-114836670D01*
X190836594Y-114809533D01*
X190789391Y-114799500D01*
X190610609Y-114799500D01*
X190579954Y-114806015D01*
X190435733Y-114836670D01*
X190435728Y-114836672D01*
X190272408Y-114909387D01*
X190127768Y-115014475D01*
X190008140Y-115147336D01*
X189918750Y-115302164D01*
X189918747Y-115302170D01*
X189863504Y-115472192D01*
X189863503Y-115472194D01*
X189844815Y-115649999D01*
X179572052Y-115649999D01*
X179551420Y-115612215D01*
X179556404Y-115542523D01*
X179598276Y-115486590D01*
X179606600Y-115480873D01*
X179670890Y-115440477D01*
X179790477Y-115320890D01*
X179802243Y-115302165D01*
X179880452Y-115177697D01*
X179880454Y-115177694D01*
X179880454Y-115177692D01*
X179880456Y-115177690D01*
X179936313Y-115018059D01*
X179936313Y-115018058D01*
X179936314Y-115018056D01*
X179955249Y-114850002D01*
X179955249Y-114849997D01*
X179936314Y-114681943D01*
X179880454Y-114522305D01*
X179880452Y-114522302D01*
X179790481Y-114379115D01*
X179790476Y-114379109D01*
X179670890Y-114259523D01*
X179670884Y-114259518D01*
X179527697Y-114169547D01*
X179527694Y-114169545D01*
X179368056Y-114113685D01*
X179200003Y-114094751D01*
X179199997Y-114094751D01*
X179031943Y-114113685D01*
X178872305Y-114169545D01*
X178872302Y-114169547D01*
X178729115Y-114259518D01*
X178729109Y-114259523D01*
X178609523Y-114379109D01*
X178609518Y-114379115D01*
X178519547Y-114522302D01*
X178519545Y-114522305D01*
X178463685Y-114681943D01*
X178444751Y-114849997D01*
X178444751Y-114850002D01*
X178463685Y-115018056D01*
X178519545Y-115177694D01*
X178519547Y-115177697D01*
X178609518Y-115320884D01*
X178609523Y-115320890D01*
X178615094Y-115326461D01*
X178648579Y-115387784D01*
X178643595Y-115457476D01*
X178601723Y-115513409D01*
X178593386Y-115519135D01*
X178529111Y-115559521D01*
X178409523Y-115679109D01*
X178409518Y-115679115D01*
X178319547Y-115822302D01*
X178319545Y-115822305D01*
X178263685Y-115981943D01*
X178244751Y-116149997D01*
X178244751Y-116150002D01*
X175583494Y-116150002D01*
X175557714Y-116131271D01*
X175515048Y-116075941D01*
X175509070Y-116006328D01*
X175525607Y-115964981D01*
X175580452Y-115877697D01*
X175580456Y-115877690D01*
X175636313Y-115718059D01*
X175636313Y-115718058D01*
X175636314Y-115718056D01*
X175655249Y-115550002D01*
X175655249Y-115549997D01*
X175636314Y-115381943D01*
X175580454Y-115222305D01*
X175580452Y-115222302D01*
X175490481Y-115079115D01*
X175490476Y-115079109D01*
X175370890Y-114959523D01*
X175370884Y-114959518D01*
X175227697Y-114869547D01*
X175227694Y-114869545D01*
X175068056Y-114813685D01*
X174900003Y-114794751D01*
X174899997Y-114794751D01*
X174731943Y-114813685D01*
X174572305Y-114869545D01*
X174572302Y-114869547D01*
X174429115Y-114959518D01*
X174429109Y-114959523D01*
X174309523Y-115079109D01*
X174309518Y-115079115D01*
X174219547Y-115222302D01*
X174219545Y-115222305D01*
X174163685Y-115381943D01*
X174144751Y-115549997D01*
X174144751Y-115550002D01*
X171175001Y-115550002D01*
X171100000Y-115450000D01*
X170100000Y-115250000D01*
X169200000Y-114950000D01*
X169040002Y-114750002D01*
X175844751Y-114750002D01*
X175863685Y-114918056D01*
X175919545Y-115077694D01*
X175919547Y-115077697D01*
X176009518Y-115220884D01*
X176009523Y-115220890D01*
X176129109Y-115340476D01*
X176129115Y-115340481D01*
X176272302Y-115430452D01*
X176272305Y-115430454D01*
X176272309Y-115430455D01*
X176272310Y-115430456D01*
X176335774Y-115452663D01*
X176431943Y-115486314D01*
X176599997Y-115505249D01*
X176600000Y-115505249D01*
X176600003Y-115505249D01*
X176768056Y-115486314D01*
X176808400Y-115472197D01*
X176927690Y-115430456D01*
X176927692Y-115430454D01*
X176927694Y-115430454D01*
X176927697Y-115430452D01*
X177070884Y-115340481D01*
X177070885Y-115340480D01*
X177070890Y-115340477D01*
X177190477Y-115220890D01*
X177217622Y-115177690D01*
X177280452Y-115077697D01*
X177280454Y-115077694D01*
X177280454Y-115077692D01*
X177280456Y-115077690D01*
X177336313Y-114918059D01*
X177336313Y-114918058D01*
X177336314Y-114918056D01*
X177355249Y-114750002D01*
X177355249Y-114749997D01*
X177336314Y-114581943D01*
X177289213Y-114447336D01*
X177280456Y-114422310D01*
X177280455Y-114422309D01*
X177280454Y-114422305D01*
X177280452Y-114422302D01*
X177190481Y-114279115D01*
X177190476Y-114279109D01*
X177070890Y-114159523D01*
X177070884Y-114159518D01*
X176927697Y-114069547D01*
X176927694Y-114069545D01*
X176768056Y-114013685D01*
X176600003Y-113994751D01*
X176599997Y-113994751D01*
X176431943Y-114013685D01*
X176272305Y-114069545D01*
X176272302Y-114069547D01*
X176129115Y-114159518D01*
X176129109Y-114159523D01*
X176009523Y-114279109D01*
X176009518Y-114279115D01*
X175919547Y-114422302D01*
X175919545Y-114422305D01*
X175863685Y-114581943D01*
X175844751Y-114749997D01*
X175844751Y-114750002D01*
X169040002Y-114750002D01*
X168800000Y-114450000D01*
X168500000Y-113650000D01*
X165400000Y-113650000D01*
X165400000Y-114850000D01*
X162000000Y-114850000D01*
X162000000Y-117150000D01*
X160100500Y-117150000D01*
X160100500Y-113500000D01*
X162369538Y-113500000D01*
X162389337Y-113701031D01*
X162447978Y-113894345D01*
X162543198Y-114072488D01*
X162543203Y-114072495D01*
X162671352Y-114228647D01*
X162775934Y-114314474D01*
X162827506Y-114356798D01*
X162827509Y-114356799D01*
X162827511Y-114356801D01*
X163005654Y-114452021D01*
X163005656Y-114452021D01*
X163005659Y-114452023D01*
X163198967Y-114510662D01*
X163349620Y-114525500D01*
X163349623Y-114525500D01*
X163650377Y-114525500D01*
X163650380Y-114525500D01*
X163801033Y-114510662D01*
X163994341Y-114452023D01*
X164172494Y-114356798D01*
X164328647Y-114228647D01*
X164456798Y-114072494D01*
X164552023Y-113894341D01*
X164610662Y-113701033D01*
X164630462Y-113500000D01*
X164610662Y-113298967D01*
X164552023Y-113105659D01*
X164552021Y-113105656D01*
X164552021Y-113105654D01*
X164456801Y-112927511D01*
X164456799Y-112927509D01*
X164456798Y-112927506D01*
X164356465Y-112805249D01*
X164328647Y-112771352D01*
X164172495Y-112643203D01*
X164172488Y-112643198D01*
X163994345Y-112547978D01*
X163801031Y-112489337D01*
X163690900Y-112478490D01*
X163650380Y-112474500D01*
X163349620Y-112474500D01*
X163312433Y-112478162D01*
X163198968Y-112489337D01*
X163005654Y-112547978D01*
X162827511Y-112643198D01*
X162827504Y-112643203D01*
X162671352Y-112771352D01*
X162543203Y-112927504D01*
X162543198Y-112927511D01*
X162447978Y-113105654D01*
X162389337Y-113298968D01*
X162369538Y-113500000D01*
X160100500Y-113500000D01*
X160100500Y-112674500D01*
X160120185Y-112607461D01*
X160172989Y-112561706D01*
X160224500Y-112550500D01*
X161000743Y-112550500D01*
X161152439Y-112535074D01*
X161346579Y-112474162D01*
X161346580Y-112474161D01*
X161346588Y-112474159D01*
X161524502Y-112375409D01*
X161678895Y-112242866D01*
X161803448Y-112081958D01*
X161893060Y-111899271D01*
X161944063Y-111702285D01*
X161946714Y-111650002D01*
X185144751Y-111650002D01*
X185163685Y-111818056D01*
X185219545Y-111977694D01*
X185219547Y-111977697D01*
X185309518Y-112120884D01*
X185309523Y-112120890D01*
X185429109Y-112240476D01*
X185429115Y-112240481D01*
X185572302Y-112330452D01*
X185572305Y-112330454D01*
X185572309Y-112330455D01*
X185572310Y-112330456D01*
X185644913Y-112355860D01*
X185731943Y-112386314D01*
X185899997Y-112405249D01*
X185900000Y-112405249D01*
X185900003Y-112405249D01*
X186068056Y-112386314D01*
X186092682Y-112377697D01*
X186227690Y-112330456D01*
X186227692Y-112330454D01*
X186227694Y-112330454D01*
X186227697Y-112330452D01*
X186370884Y-112240481D01*
X186370885Y-112240480D01*
X186370890Y-112240477D01*
X186490477Y-112120890D01*
X186535019Y-112050002D01*
X192544751Y-112050002D01*
X192563685Y-112218056D01*
X192619545Y-112377694D01*
X192619547Y-112377697D01*
X192709518Y-112520884D01*
X192709523Y-112520890D01*
X192829109Y-112640476D01*
X192829115Y-112640481D01*
X192972302Y-112730452D01*
X192972305Y-112730454D01*
X192972309Y-112730455D01*
X192972310Y-112730456D01*
X193044913Y-112755860D01*
X193131943Y-112786314D01*
X193299997Y-112805249D01*
X193300000Y-112805249D01*
X193300003Y-112805249D01*
X193468056Y-112786314D01*
X193510815Y-112771352D01*
X193627690Y-112730456D01*
X193627692Y-112730454D01*
X193627694Y-112730454D01*
X193627697Y-112730452D01*
X193770884Y-112640481D01*
X193770885Y-112640480D01*
X193770890Y-112640477D01*
X193890477Y-112520890D01*
X193919626Y-112474500D01*
X193980452Y-112377697D01*
X193980454Y-112377694D01*
X193980454Y-112377692D01*
X193980456Y-112377690D01*
X194036313Y-112218059D01*
X194036313Y-112218058D01*
X194036314Y-112218056D01*
X194055249Y-112050002D01*
X194055249Y-112049997D01*
X194036314Y-111881943D01*
X193980454Y-111722305D01*
X193980452Y-111722302D01*
X193890481Y-111579115D01*
X193890476Y-111579109D01*
X193770890Y-111459523D01*
X193770884Y-111459518D01*
X193627697Y-111369547D01*
X193627694Y-111369545D01*
X193468056Y-111313685D01*
X193300003Y-111294751D01*
X193299997Y-111294751D01*
X193131943Y-111313685D01*
X192972305Y-111369545D01*
X192972302Y-111369547D01*
X192829115Y-111459518D01*
X192829109Y-111459523D01*
X192709523Y-111579109D01*
X192709518Y-111579115D01*
X192619547Y-111722302D01*
X192619545Y-111722305D01*
X192563685Y-111881943D01*
X192544751Y-112049997D01*
X192544751Y-112050002D01*
X186535019Y-112050002D01*
X186580452Y-111977697D01*
X186580454Y-111977694D01*
X186580454Y-111977692D01*
X186580456Y-111977690D01*
X186636313Y-111818059D01*
X186636313Y-111818058D01*
X186636314Y-111818056D01*
X186655249Y-111650002D01*
X186655249Y-111649997D01*
X186636314Y-111481943D01*
X186580454Y-111322305D01*
X186580452Y-111322302D01*
X186490481Y-111179115D01*
X186490476Y-111179109D01*
X186370890Y-111059523D01*
X186370884Y-111059518D01*
X186227697Y-110969547D01*
X186227694Y-110969545D01*
X186068056Y-110913685D01*
X185900003Y-110894751D01*
X185899997Y-110894751D01*
X185731943Y-110913685D01*
X185572305Y-110969545D01*
X185572302Y-110969547D01*
X185429115Y-111059518D01*
X185429109Y-111059523D01*
X185309523Y-111179109D01*
X185309518Y-111179115D01*
X185219547Y-111322302D01*
X185219545Y-111322305D01*
X185163685Y-111481943D01*
X185144751Y-111649997D01*
X185144751Y-111650002D01*
X161946714Y-111650002D01*
X161954369Y-111499064D01*
X161923556Y-111297929D01*
X161852886Y-111107113D01*
X161745252Y-110934429D01*
X161605059Y-110786947D01*
X161487680Y-110705249D01*
X161438050Y-110670705D01*
X161251056Y-110590459D01*
X161051741Y-110549500D01*
X160224500Y-110549500D01*
X160157461Y-110529815D01*
X160111706Y-110477011D01*
X160100500Y-110425500D01*
X160100500Y-109225613D01*
X182394694Y-109225613D01*
X182413382Y-109403419D01*
X182413383Y-109403421D01*
X182468626Y-109573443D01*
X182468629Y-109573449D01*
X182558020Y-109728279D01*
X182599691Y-109774560D01*
X182677643Y-109861135D01*
X182677646Y-109861137D01*
X182677649Y-109861140D01*
X182822286Y-109966226D01*
X182985612Y-110038943D01*
X183160488Y-110076114D01*
X183160489Y-110076114D01*
X183339268Y-110076114D01*
X183339270Y-110076114D01*
X183514146Y-110038943D01*
X183677472Y-109966226D01*
X183699802Y-109950002D01*
X186844751Y-109950002D01*
X186863685Y-110118056D01*
X186919545Y-110277694D01*
X186919547Y-110277697D01*
X187009518Y-110420884D01*
X187009523Y-110420890D01*
X187129109Y-110540476D01*
X187129115Y-110540481D01*
X187272302Y-110630452D01*
X187272305Y-110630454D01*
X187272309Y-110630455D01*
X187272310Y-110630456D01*
X187344913Y-110655860D01*
X187431943Y-110686314D01*
X187599997Y-110705249D01*
X187600000Y-110705249D01*
X187600003Y-110705249D01*
X187768056Y-110686314D01*
X187812664Y-110670705D01*
X187927690Y-110630456D01*
X187927692Y-110630454D01*
X187927694Y-110630454D01*
X187927697Y-110630452D01*
X188070884Y-110540481D01*
X188070885Y-110540480D01*
X188070890Y-110540477D01*
X188190477Y-110420890D01*
X188280452Y-110277697D01*
X188280454Y-110277694D01*
X188280454Y-110277692D01*
X188280456Y-110277690D01*
X188336313Y-110118059D01*
X188336313Y-110118058D01*
X188336314Y-110118056D01*
X188355249Y-109950002D01*
X188355249Y-109949997D01*
X188336314Y-109781943D01*
X188280454Y-109622305D01*
X188280452Y-109622302D01*
X188190481Y-109479115D01*
X188190476Y-109479109D01*
X188070890Y-109359523D01*
X188070884Y-109359518D01*
X187927697Y-109269547D01*
X187927694Y-109269545D01*
X187768056Y-109213685D01*
X187600003Y-109194751D01*
X187599997Y-109194751D01*
X187431943Y-109213685D01*
X187272305Y-109269545D01*
X187272302Y-109269547D01*
X187129115Y-109359518D01*
X187129109Y-109359523D01*
X187009523Y-109479109D01*
X187009518Y-109479115D01*
X186919547Y-109622302D01*
X186919545Y-109622305D01*
X186863685Y-109781943D01*
X186844751Y-109949997D01*
X186844751Y-109950002D01*
X183699802Y-109950002D01*
X183822109Y-109861140D01*
X183941738Y-109728279D01*
X184031129Y-109573449D01*
X184086376Y-109403417D01*
X184105064Y-109225614D01*
X184086376Y-109047811D01*
X184031999Y-108880456D01*
X184031131Y-108877784D01*
X184031128Y-108877778D01*
X183984973Y-108797835D01*
X183957356Y-108750000D01*
X189119815Y-108750000D01*
X189138503Y-108927805D01*
X189138504Y-108927807D01*
X189193747Y-109097829D01*
X189193750Y-109097835D01*
X189283141Y-109252665D01*
X189298339Y-109269544D01*
X189402764Y-109385521D01*
X189402767Y-109385523D01*
X189402770Y-109385526D01*
X189547407Y-109490612D01*
X189710733Y-109563329D01*
X189885609Y-109600500D01*
X189885610Y-109600500D01*
X190064389Y-109600500D01*
X190064391Y-109600500D01*
X190239267Y-109563329D01*
X190402593Y-109490612D01*
X190547230Y-109385526D01*
X190666859Y-109252665D01*
X190756250Y-109097835D01*
X190811497Y-108927803D01*
X190830185Y-108750000D01*
X190811497Y-108572197D01*
X190783166Y-108485003D01*
X190771793Y-108449999D01*
X192719815Y-108449999D01*
X192738503Y-108627805D01*
X192738504Y-108627807D01*
X192793747Y-108797829D01*
X192793750Y-108797835D01*
X192883141Y-108952665D01*
X192885468Y-108955249D01*
X193002764Y-109085521D01*
X193002767Y-109085523D01*
X193002770Y-109085526D01*
X193147407Y-109190612D01*
X193310733Y-109263329D01*
X193485609Y-109300500D01*
X193485610Y-109300500D01*
X193664389Y-109300500D01*
X193664391Y-109300500D01*
X193839267Y-109263329D01*
X194002593Y-109190612D01*
X194147230Y-109085526D01*
X194266859Y-108952665D01*
X194356250Y-108797835D01*
X194411497Y-108627803D01*
X194430185Y-108450000D01*
X194411497Y-108272197D01*
X194383334Y-108185521D01*
X194356252Y-108102170D01*
X194356249Y-108102164D01*
X194266859Y-107947335D01*
X194199306Y-107872310D01*
X194147235Y-107814478D01*
X194147232Y-107814476D01*
X194147231Y-107814475D01*
X194147230Y-107814474D01*
X194002593Y-107709388D01*
X193839267Y-107636671D01*
X193839265Y-107636670D01*
X193691438Y-107605249D01*
X193664391Y-107599500D01*
X193485609Y-107599500D01*
X193458562Y-107605249D01*
X193310733Y-107636670D01*
X193310728Y-107636672D01*
X193147408Y-107709387D01*
X193002768Y-107814475D01*
X192883140Y-107947336D01*
X192793750Y-108102164D01*
X192793747Y-108102170D01*
X192738504Y-108272192D01*
X192738503Y-108272194D01*
X192719815Y-108449999D01*
X190771793Y-108449999D01*
X190756252Y-108402170D01*
X190756249Y-108402164D01*
X190666859Y-108247335D01*
X190611915Y-108186314D01*
X190547235Y-108114478D01*
X190547232Y-108114476D01*
X190547231Y-108114475D01*
X190547230Y-108114474D01*
X190402593Y-108009388D01*
X190239267Y-107936671D01*
X190239265Y-107936670D01*
X190111594Y-107909533D01*
X190064391Y-107899500D01*
X189885609Y-107899500D01*
X189854954Y-107906015D01*
X189710733Y-107936670D01*
X189710728Y-107936672D01*
X189547408Y-108009387D01*
X189402768Y-108114475D01*
X189283140Y-108247336D01*
X189193750Y-108402164D01*
X189193747Y-108402170D01*
X189138504Y-108572192D01*
X189138503Y-108572194D01*
X189119815Y-108750000D01*
X183957356Y-108750000D01*
X183941738Y-108722949D01*
X183894858Y-108670884D01*
X183822114Y-108590092D01*
X183822111Y-108590090D01*
X183822110Y-108590089D01*
X183822109Y-108590088D01*
X183677472Y-108485002D01*
X183514146Y-108412285D01*
X183514144Y-108412284D01*
X183386473Y-108385147D01*
X183339270Y-108375114D01*
X183160488Y-108375114D01*
X183129833Y-108381629D01*
X182985612Y-108412284D01*
X182985607Y-108412286D01*
X182822287Y-108485001D01*
X182677647Y-108590089D01*
X182558019Y-108722950D01*
X182468629Y-108877778D01*
X182468626Y-108877784D01*
X182413383Y-109047806D01*
X182413382Y-109047808D01*
X182394694Y-109225613D01*
X160100500Y-109225613D01*
X160100500Y-107549999D01*
X163744815Y-107549999D01*
X163763503Y-107727805D01*
X163763504Y-107727807D01*
X163818747Y-107897829D01*
X163818750Y-107897835D01*
X163908141Y-108052665D01*
X163949812Y-108098946D01*
X164027764Y-108185521D01*
X164027767Y-108185523D01*
X164027770Y-108185526D01*
X164172407Y-108290612D01*
X164335733Y-108363329D01*
X164510609Y-108400500D01*
X164510610Y-108400500D01*
X164689389Y-108400500D01*
X164689391Y-108400500D01*
X164864267Y-108363329D01*
X165027593Y-108290612D01*
X165172230Y-108185526D01*
X165291859Y-108052665D01*
X165381250Y-107897835D01*
X165436497Y-107727803D01*
X165455185Y-107550000D01*
X165436497Y-107372197D01*
X165391629Y-107234108D01*
X165381252Y-107202170D01*
X165381249Y-107202164D01*
X165367123Y-107177697D01*
X165291859Y-107047335D01*
X165245003Y-106995296D01*
X165172235Y-106914478D01*
X165172232Y-106914476D01*
X165172231Y-106914475D01*
X165172230Y-106914474D01*
X165027593Y-106809388D01*
X164864267Y-106736671D01*
X164864265Y-106736670D01*
X164736594Y-106709533D01*
X164689391Y-106699500D01*
X164510609Y-106699500D01*
X164479954Y-106706015D01*
X164335733Y-106736670D01*
X164335728Y-106736672D01*
X164172408Y-106809387D01*
X164027768Y-106914475D01*
X163908140Y-107047336D01*
X163818750Y-107202164D01*
X163818747Y-107202170D01*
X163763504Y-107372192D01*
X163763503Y-107372194D01*
X163744815Y-107549999D01*
X160100500Y-107549999D01*
X160100500Y-105650000D01*
X167919815Y-105650000D01*
X167938503Y-105827805D01*
X167938504Y-105827807D01*
X167993747Y-105997829D01*
X167993750Y-105997835D01*
X168083141Y-106152665D01*
X168124812Y-106198946D01*
X168202764Y-106285521D01*
X168202767Y-106285523D01*
X168202770Y-106285526D01*
X168347407Y-106390612D01*
X168510733Y-106463329D01*
X168557498Y-106473269D01*
X168618977Y-106506459D01*
X168652754Y-106567622D01*
X168654028Y-106574172D01*
X168687885Y-106777312D01*
X168679489Y-106846676D01*
X168653254Y-106885379D01*
X168559518Y-106979115D01*
X168469547Y-107122302D01*
X168469545Y-107122305D01*
X168413685Y-107281943D01*
X168394751Y-107449997D01*
X168394751Y-107450002D01*
X168413685Y-107618056D01*
X168469545Y-107777694D01*
X168469547Y-107777697D01*
X168559518Y-107920884D01*
X168559523Y-107920890D01*
X168679109Y-108040476D01*
X168679115Y-108040481D01*
X168822302Y-108130452D01*
X168822305Y-108130454D01*
X168822309Y-108130455D01*
X168822310Y-108130456D01*
X168894913Y-108155860D01*
X168981943Y-108186314D01*
X169149997Y-108205249D01*
X169150000Y-108205249D01*
X169150003Y-108205249D01*
X169318056Y-108186314D01*
X169320322Y-108185521D01*
X169477690Y-108130456D01*
X169477692Y-108130454D01*
X169477694Y-108130454D01*
X169477697Y-108130452D01*
X169620884Y-108040481D01*
X169620884Y-108040480D01*
X169620890Y-108040477D01*
X169699206Y-107962160D01*
X169760525Y-107928678D01*
X169830217Y-107933662D01*
X169886151Y-107975533D01*
X169910568Y-108040997D01*
X169910104Y-108063727D01*
X169894751Y-108199995D01*
X169894751Y-108200002D01*
X169913685Y-108368056D01*
X169969545Y-108527694D01*
X169969547Y-108527697D01*
X170059518Y-108670884D01*
X170059523Y-108670890D01*
X170179109Y-108790476D01*
X170179115Y-108790481D01*
X170322302Y-108880452D01*
X170322305Y-108880454D01*
X170322309Y-108880455D01*
X170322310Y-108880456D01*
X170394913Y-108905860D01*
X170481943Y-108936314D01*
X170649997Y-108955249D01*
X170650000Y-108955249D01*
X170650003Y-108955249D01*
X170818056Y-108936314D01*
X170842368Y-108927807D01*
X170977690Y-108880456D01*
X170977692Y-108880454D01*
X170977694Y-108880454D01*
X170977697Y-108880452D01*
X171120884Y-108790481D01*
X171120885Y-108790480D01*
X171120890Y-108790477D01*
X171240477Y-108670890D01*
X171267548Y-108627807D01*
X171330452Y-108527697D01*
X171330454Y-108527694D01*
X171330454Y-108527692D01*
X171330456Y-108527690D01*
X171386313Y-108368059D01*
X171386313Y-108368058D01*
X171386314Y-108368056D01*
X171405249Y-108200002D01*
X171405249Y-108199997D01*
X171386314Y-108031943D01*
X171339970Y-107899500D01*
X171330456Y-107872310D01*
X171330455Y-107872309D01*
X171330454Y-107872305D01*
X171330452Y-107872302D01*
X171240481Y-107729115D01*
X171240476Y-107729109D01*
X171120890Y-107609523D01*
X171120884Y-107609518D01*
X170977697Y-107519547D01*
X170977694Y-107519545D01*
X170818056Y-107463685D01*
X170650003Y-107444751D01*
X170649997Y-107444751D01*
X170481943Y-107463685D01*
X170322305Y-107519545D01*
X170322302Y-107519547D01*
X170179115Y-107609518D01*
X170100796Y-107687837D01*
X170039472Y-107721321D01*
X169969781Y-107716337D01*
X169913847Y-107674465D01*
X169889431Y-107609000D01*
X169889895Y-107586271D01*
X169905249Y-107450002D01*
X169905249Y-107449997D01*
X169886314Y-107281943D01*
X169830454Y-107122305D01*
X169830452Y-107122302D01*
X169740481Y-106979115D01*
X169740476Y-106979109D01*
X169620890Y-106859523D01*
X169620884Y-106859518D01*
X169477697Y-106769547D01*
X169477691Y-106769544D01*
X169416174Y-106748018D01*
X169383045Y-106736426D01*
X169326270Y-106695705D01*
X169300522Y-106630753D01*
X169300000Y-106619385D01*
X169300000Y-106383021D01*
X169319685Y-106315982D01*
X169343352Y-106290932D01*
X169342400Y-106289875D01*
X169347224Y-106285529D01*
X169347230Y-106285526D01*
X169466859Y-106152665D01*
X169497264Y-106100002D01*
X172644751Y-106100002D01*
X172663685Y-106268056D01*
X172719545Y-106427694D01*
X172719547Y-106427697D01*
X172809518Y-106570884D01*
X172809523Y-106570890D01*
X172929109Y-106690476D01*
X172929115Y-106690481D01*
X173072302Y-106780452D01*
X173072305Y-106780454D01*
X173072309Y-106780455D01*
X173072310Y-106780456D01*
X173137921Y-106803414D01*
X173231943Y-106836314D01*
X173399997Y-106855249D01*
X173400000Y-106855249D01*
X173400003Y-106855249D01*
X173446571Y-106850002D01*
X178144751Y-106850002D01*
X178163685Y-107018056D01*
X178219545Y-107177694D01*
X178219547Y-107177697D01*
X178309518Y-107320884D01*
X178309523Y-107320890D01*
X178429109Y-107440476D01*
X178429115Y-107440481D01*
X178572302Y-107530452D01*
X178572305Y-107530454D01*
X178572309Y-107530455D01*
X178572310Y-107530456D01*
X178628161Y-107549999D01*
X178731943Y-107586314D01*
X178899997Y-107605249D01*
X178900000Y-107605249D01*
X178900003Y-107605249D01*
X179068056Y-107586314D01*
X179070322Y-107585521D01*
X179227690Y-107530456D01*
X179227692Y-107530454D01*
X179227694Y-107530454D01*
X179227697Y-107530452D01*
X179370884Y-107440481D01*
X179370885Y-107440480D01*
X179370890Y-107440477D01*
X179490477Y-107320890D01*
X179490481Y-107320884D01*
X179580452Y-107177697D01*
X179580454Y-107177694D01*
X179580454Y-107177692D01*
X179580456Y-107177690D01*
X179636313Y-107018059D01*
X179636313Y-107018058D01*
X179636314Y-107018056D01*
X179655249Y-106850002D01*
X179655249Y-106849997D01*
X179636314Y-106681943D01*
X179580454Y-106522305D01*
X179580452Y-106522302D01*
X179490481Y-106379115D01*
X179490476Y-106379109D01*
X179462163Y-106350796D01*
X179428678Y-106289473D01*
X179433662Y-106219781D01*
X179475534Y-106163848D01*
X179540998Y-106139431D01*
X179563728Y-106139895D01*
X179699997Y-106155249D01*
X179700000Y-106155249D01*
X179700003Y-106155249D01*
X179826044Y-106141047D01*
X179868059Y-106136313D01*
X179911678Y-106121049D01*
X179981457Y-106117487D01*
X180022691Y-106137604D01*
X180023214Y-106136773D01*
X180172302Y-106230452D01*
X180172305Y-106230454D01*
X180172309Y-106230455D01*
X180172310Y-106230456D01*
X180200946Y-106240476D01*
X180331943Y-106286314D01*
X180499997Y-106305249D01*
X180500000Y-106305249D01*
X180500003Y-106305249D01*
X180668056Y-106286314D01*
X180670322Y-106285521D01*
X180827690Y-106230456D01*
X180827692Y-106230454D01*
X180827694Y-106230454D01*
X180827697Y-106230452D01*
X180970884Y-106140481D01*
X180970885Y-106140480D01*
X180970890Y-106140477D01*
X181090477Y-106020890D01*
X181090481Y-106020884D01*
X181180452Y-105877697D01*
X181180454Y-105877694D01*
X181180454Y-105877692D01*
X181180456Y-105877690D01*
X181236313Y-105718059D01*
X181236313Y-105718058D01*
X181236314Y-105718056D01*
X181238348Y-105700002D01*
X181844751Y-105700002D01*
X181863685Y-105868056D01*
X181919545Y-106027694D01*
X181919547Y-106027697D01*
X182009518Y-106170884D01*
X182009523Y-106170890D01*
X182129109Y-106290476D01*
X182129115Y-106290481D01*
X182272302Y-106380452D01*
X182272305Y-106380454D01*
X182272309Y-106380455D01*
X182272310Y-106380456D01*
X182343133Y-106405238D01*
X182431943Y-106436314D01*
X182599997Y-106455249D01*
X182600000Y-106455249D01*
X182600003Y-106455249D01*
X182768056Y-106436314D01*
X182792682Y-106427697D01*
X182927690Y-106380456D01*
X182927692Y-106380454D01*
X182927694Y-106380454D01*
X182927697Y-106380452D01*
X183070884Y-106290481D01*
X183070885Y-106290480D01*
X183070890Y-106290477D01*
X183174819Y-106186548D01*
X183236142Y-106153063D01*
X183305834Y-106158047D01*
X183350181Y-106186548D01*
X183404109Y-106240476D01*
X183404115Y-106240481D01*
X183547302Y-106330452D01*
X183547305Y-106330454D01*
X183547309Y-106330455D01*
X183547310Y-106330456D01*
X183686350Y-106379108D01*
X183706944Y-106386314D01*
X183858726Y-106403415D01*
X183874903Y-106405238D01*
X183939317Y-106432304D01*
X183978872Y-106489899D01*
X183981010Y-106559736D01*
X183978062Y-106569412D01*
X183938686Y-106681942D01*
X183919751Y-106849997D01*
X183919751Y-106850002D01*
X183938685Y-107018056D01*
X183994545Y-107177694D01*
X183994547Y-107177697D01*
X184084518Y-107320884D01*
X184084523Y-107320890D01*
X184204109Y-107440476D01*
X184204115Y-107440481D01*
X184347302Y-107530452D01*
X184347305Y-107530454D01*
X184347309Y-107530455D01*
X184347310Y-107530456D01*
X184403161Y-107549999D01*
X184506943Y-107586314D01*
X184674997Y-107605249D01*
X184675000Y-107605249D01*
X184675003Y-107605249D01*
X184843056Y-107586314D01*
X184845322Y-107585521D01*
X185002690Y-107530456D01*
X185002692Y-107530454D01*
X185002694Y-107530454D01*
X185002697Y-107530452D01*
X185145884Y-107440481D01*
X185145885Y-107440480D01*
X185145890Y-107440477D01*
X185265477Y-107320890D01*
X185320006Y-107234107D01*
X185372341Y-107187817D01*
X185441395Y-107177169D01*
X185505243Y-107205544D01*
X185529994Y-107234108D01*
X185584523Y-107320890D01*
X185704109Y-107440476D01*
X185704115Y-107440481D01*
X185847302Y-107530452D01*
X185847305Y-107530454D01*
X185847309Y-107530455D01*
X185847310Y-107530456D01*
X185903161Y-107549999D01*
X186006943Y-107586314D01*
X186174997Y-107605249D01*
X186175000Y-107605249D01*
X186175003Y-107605249D01*
X186343056Y-107586314D01*
X186345322Y-107585521D01*
X186502690Y-107530456D01*
X186502692Y-107530454D01*
X186502694Y-107530454D01*
X186502697Y-107530452D01*
X186645884Y-107440481D01*
X186645885Y-107440480D01*
X186645890Y-107440477D01*
X186765477Y-107320890D01*
X186765481Y-107320884D01*
X186855452Y-107177697D01*
X186855454Y-107177694D01*
X186855454Y-107177692D01*
X186855456Y-107177690D01*
X186900136Y-107050002D01*
X191244751Y-107050002D01*
X191263685Y-107218056D01*
X191319545Y-107377694D01*
X191319547Y-107377697D01*
X191409518Y-107520884D01*
X191409523Y-107520890D01*
X191529109Y-107640476D01*
X191529115Y-107640481D01*
X191672302Y-107730452D01*
X191672305Y-107730454D01*
X191672309Y-107730455D01*
X191672310Y-107730456D01*
X191744913Y-107755860D01*
X191831943Y-107786314D01*
X191999997Y-107805249D01*
X192000000Y-107805249D01*
X192000003Y-107805249D01*
X192168056Y-107786314D01*
X192192682Y-107777697D01*
X192327690Y-107730456D01*
X192327692Y-107730454D01*
X192327694Y-107730454D01*
X192327697Y-107730452D01*
X192470884Y-107640481D01*
X192470885Y-107640480D01*
X192470890Y-107640477D01*
X192590477Y-107520890D01*
X192591323Y-107519544D01*
X192680452Y-107377697D01*
X192680454Y-107377694D01*
X192680454Y-107377692D01*
X192680456Y-107377690D01*
X192736313Y-107218059D01*
X192736313Y-107218058D01*
X192736314Y-107218056D01*
X192755249Y-107050002D01*
X192755249Y-107049997D01*
X192743982Y-106950000D01*
X194019815Y-106950000D01*
X194038503Y-107127805D01*
X194038504Y-107127807D01*
X194093747Y-107297829D01*
X194093750Y-107297835D01*
X194183141Y-107452665D01*
X194224812Y-107498946D01*
X194302764Y-107585521D01*
X194302767Y-107585523D01*
X194302770Y-107585526D01*
X194447407Y-107690612D01*
X194610733Y-107763329D01*
X194785609Y-107800500D01*
X194785610Y-107800500D01*
X194964389Y-107800500D01*
X194964391Y-107800500D01*
X195139267Y-107763329D01*
X195302593Y-107690612D01*
X195447230Y-107585526D01*
X195566859Y-107452665D01*
X195656250Y-107297835D01*
X195711497Y-107127803D01*
X195730185Y-106950000D01*
X195711497Y-106772197D01*
X195656250Y-106602165D01*
X195566859Y-106447335D01*
X195511915Y-106386314D01*
X195447235Y-106314478D01*
X195447232Y-106314476D01*
X195447231Y-106314475D01*
X195447230Y-106314474D01*
X195302593Y-106209388D01*
X195139267Y-106136671D01*
X195139265Y-106136670D01*
X195011594Y-106109533D01*
X194964391Y-106099500D01*
X194785609Y-106099500D01*
X194754954Y-106106015D01*
X194610733Y-106136670D01*
X194610728Y-106136672D01*
X194447408Y-106209387D01*
X194302768Y-106314475D01*
X194183140Y-106447336D01*
X194093750Y-106602164D01*
X194093747Y-106602170D01*
X194038504Y-106772192D01*
X194038503Y-106772194D01*
X194019815Y-106950000D01*
X192743982Y-106950000D01*
X192736314Y-106881943D01*
X192680454Y-106722305D01*
X192680452Y-106722302D01*
X192590481Y-106579115D01*
X192590476Y-106579109D01*
X192470890Y-106459523D01*
X192470884Y-106459518D01*
X192327697Y-106369547D01*
X192327694Y-106369545D01*
X192168056Y-106313685D01*
X192000003Y-106294751D01*
X191999997Y-106294751D01*
X191831943Y-106313685D01*
X191672305Y-106369545D01*
X191672302Y-106369547D01*
X191529115Y-106459518D01*
X191529109Y-106459523D01*
X191409523Y-106579109D01*
X191409518Y-106579115D01*
X191319547Y-106722302D01*
X191319545Y-106722305D01*
X191263685Y-106881943D01*
X191244751Y-107049997D01*
X191244751Y-107050002D01*
X186900136Y-107050002D01*
X186911313Y-107018059D01*
X186911313Y-107018058D01*
X186911314Y-107018056D01*
X186930249Y-106850002D01*
X186930249Y-106849997D01*
X186911314Y-106681943D01*
X186855454Y-106522305D01*
X186855452Y-106522302D01*
X186765481Y-106379115D01*
X186765475Y-106379108D01*
X186724047Y-106337679D01*
X186690563Y-106276356D01*
X186695548Y-106206664D01*
X186724047Y-106162319D01*
X186765477Y-106120890D01*
X186771963Y-106110568D01*
X186855452Y-105977697D01*
X186855454Y-105977694D01*
X186855454Y-105977692D01*
X186855456Y-105977690D01*
X186911313Y-105818059D01*
X186911313Y-105818058D01*
X186911314Y-105818056D01*
X186930249Y-105650002D01*
X186930249Y-105649997D01*
X186911314Y-105481943D01*
X186855454Y-105322305D01*
X186855452Y-105322302D01*
X186765481Y-105179115D01*
X186765476Y-105179109D01*
X186645890Y-105059523D01*
X186645884Y-105059518D01*
X186502697Y-104969547D01*
X186502694Y-104969545D01*
X186343056Y-104913685D01*
X186175003Y-104894751D01*
X186174997Y-104894751D01*
X186006943Y-104913685D01*
X185847305Y-104969545D01*
X185847302Y-104969547D01*
X185704115Y-105059518D01*
X185704109Y-105059523D01*
X185584523Y-105179109D01*
X185584518Y-105179115D01*
X185494547Y-105322302D01*
X185494545Y-105322305D01*
X185438685Y-105481943D01*
X185419751Y-105649997D01*
X185419751Y-105650002D01*
X185438685Y-105818056D01*
X185494545Y-105977694D01*
X185494547Y-105977697D01*
X185584518Y-106120884D01*
X185584524Y-106120891D01*
X185625952Y-106162320D01*
X185659436Y-106223643D01*
X185654451Y-106293335D01*
X185625952Y-106337680D01*
X185584524Y-106379108D01*
X185584521Y-106379112D01*
X185529993Y-106465892D01*
X185477658Y-106512183D01*
X185408605Y-106522830D01*
X185344756Y-106494455D01*
X185320007Y-106465892D01*
X185272703Y-106390610D01*
X185265477Y-106379110D01*
X185145890Y-106259523D01*
X185145884Y-106259518D01*
X185002697Y-106169547D01*
X185002694Y-106169545D01*
X184843056Y-106113685D01*
X184675095Y-106094761D01*
X184610681Y-106067694D01*
X184571126Y-106010099D01*
X184568989Y-105940262D01*
X184571933Y-105930599D01*
X184611313Y-105818059D01*
X184621495Y-105727690D01*
X184630249Y-105650002D01*
X184630249Y-105649997D01*
X184611314Y-105481943D01*
X184555454Y-105322305D01*
X184555452Y-105322302D01*
X184465481Y-105179115D01*
X184465476Y-105179109D01*
X184345890Y-105059523D01*
X184345884Y-105059518D01*
X184202697Y-104969547D01*
X184202694Y-104969545D01*
X184043056Y-104913685D01*
X183940112Y-104902087D01*
X183875698Y-104875021D01*
X183836143Y-104817426D01*
X183834006Y-104747589D01*
X183869964Y-104687682D01*
X183913042Y-104661825D01*
X184002690Y-104630456D01*
X184002693Y-104630453D01*
X184002697Y-104630452D01*
X184145884Y-104540481D01*
X184145885Y-104540480D01*
X184145890Y-104540477D01*
X184265477Y-104420890D01*
X184303559Y-104360281D01*
X184355893Y-104313990D01*
X184394670Y-104303033D01*
X184543055Y-104286314D01*
X184543057Y-104286313D01*
X184543059Y-104286313D01*
X184702690Y-104230456D01*
X184702692Y-104230454D01*
X184702694Y-104230454D01*
X184702697Y-104230452D01*
X184845884Y-104140481D01*
X184845885Y-104140480D01*
X184845890Y-104140477D01*
X184965477Y-104020890D01*
X185010019Y-103950002D01*
X185055452Y-103877697D01*
X185055454Y-103877694D01*
X185055454Y-103877692D01*
X185055456Y-103877690D01*
X185082640Y-103800002D01*
X185444751Y-103800002D01*
X185463685Y-103968056D01*
X185519545Y-104127694D01*
X185519547Y-104127697D01*
X185609518Y-104270884D01*
X185609523Y-104270890D01*
X185729109Y-104390476D01*
X185729115Y-104390481D01*
X185872302Y-104480452D01*
X185872305Y-104480454D01*
X185872309Y-104480455D01*
X185872310Y-104480456D01*
X185944913Y-104505860D01*
X186031943Y-104536314D01*
X186199997Y-104555249D01*
X186200000Y-104555249D01*
X186200003Y-104555249D01*
X186368056Y-104536314D01*
X186368059Y-104536313D01*
X186527690Y-104480456D01*
X186527692Y-104480454D01*
X186527694Y-104480454D01*
X186527697Y-104480452D01*
X186670884Y-104390481D01*
X186670885Y-104390480D01*
X186670890Y-104390477D01*
X186790477Y-104270890D01*
X186829121Y-104209389D01*
X186880452Y-104127697D01*
X186880454Y-104127694D01*
X186880454Y-104127692D01*
X186880456Y-104127690D01*
X186936313Y-103968059D01*
X186936313Y-103968058D01*
X186936314Y-103968056D01*
X186955249Y-103800002D01*
X186955249Y-103799997D01*
X186936314Y-103631943D01*
X186880454Y-103472305D01*
X186880452Y-103472302D01*
X186790481Y-103329115D01*
X186790476Y-103329109D01*
X186670890Y-103209523D01*
X186670884Y-103209518D01*
X186527697Y-103119547D01*
X186527694Y-103119545D01*
X186368056Y-103063685D01*
X186200003Y-103044751D01*
X186199997Y-103044751D01*
X186031943Y-103063685D01*
X185872305Y-103119545D01*
X185872302Y-103119547D01*
X185729115Y-103209518D01*
X185729109Y-103209523D01*
X185609523Y-103329109D01*
X185609518Y-103329115D01*
X185519547Y-103472302D01*
X185519545Y-103472305D01*
X185463685Y-103631943D01*
X185444751Y-103799997D01*
X185444751Y-103800002D01*
X185082640Y-103800002D01*
X185111313Y-103718059D01*
X185111313Y-103718058D01*
X185111314Y-103718056D01*
X185130249Y-103550002D01*
X185130249Y-103549997D01*
X185111314Y-103381943D01*
X185061813Y-103240477D01*
X185055456Y-103222310D01*
X185055455Y-103222309D01*
X185055454Y-103222305D01*
X185055452Y-103222302D01*
X184965481Y-103079115D01*
X184965476Y-103079109D01*
X184845890Y-102959523D01*
X184845884Y-102959518D01*
X184702697Y-102869547D01*
X184702694Y-102869545D01*
X184543056Y-102813685D01*
X184375003Y-102794751D01*
X184374997Y-102794751D01*
X184206943Y-102813685D01*
X184047305Y-102869545D01*
X184047302Y-102869547D01*
X183904115Y-102959518D01*
X183904109Y-102959523D01*
X183784525Y-103079107D01*
X183784519Y-103079114D01*
X183746437Y-103139720D01*
X183694102Y-103186010D01*
X183655329Y-103196966D01*
X183506944Y-103213685D01*
X183347305Y-103269545D01*
X183347302Y-103269547D01*
X183204115Y-103359518D01*
X183204109Y-103359523D01*
X183084523Y-103479109D01*
X183084518Y-103479115D01*
X182994547Y-103622302D01*
X182994545Y-103622305D01*
X182938685Y-103781943D01*
X182919751Y-103949997D01*
X182919751Y-103950002D01*
X182938685Y-104118056D01*
X182994545Y-104277694D01*
X182994547Y-104277697D01*
X183084518Y-104420884D01*
X183084523Y-104420890D01*
X183204109Y-104540476D01*
X183204115Y-104540481D01*
X183347302Y-104630452D01*
X183347305Y-104630454D01*
X183347309Y-104630455D01*
X183347310Y-104630456D01*
X183506941Y-104686313D01*
X183506944Y-104686314D01*
X183577887Y-104694306D01*
X183609886Y-104697912D01*
X183674300Y-104724978D01*
X183713855Y-104782572D01*
X183715994Y-104852409D01*
X183680036Y-104912316D01*
X183636959Y-104938173D01*
X183547311Y-104969543D01*
X183547302Y-104969547D01*
X183404115Y-105059518D01*
X183404109Y-105059523D01*
X183300181Y-105163452D01*
X183238858Y-105196937D01*
X183169166Y-105191953D01*
X183124819Y-105163452D01*
X183070890Y-105109523D01*
X183070884Y-105109518D01*
X182927697Y-105019547D01*
X182927694Y-105019545D01*
X182768056Y-104963685D01*
X182600003Y-104944751D01*
X182599997Y-104944751D01*
X182431943Y-104963685D01*
X182272305Y-105019545D01*
X182272302Y-105019547D01*
X182129115Y-105109518D01*
X182129109Y-105109523D01*
X182009523Y-105229109D01*
X182009518Y-105229115D01*
X181919547Y-105372302D01*
X181919545Y-105372305D01*
X181863685Y-105531943D01*
X181844751Y-105699997D01*
X181844751Y-105700002D01*
X181238348Y-105700002D01*
X181255249Y-105550002D01*
X181255249Y-105549997D01*
X181236314Y-105381943D01*
X181200274Y-105278946D01*
X181180456Y-105222310D01*
X181180455Y-105222309D01*
X181180454Y-105222305D01*
X181180452Y-105222302D01*
X181090481Y-105079115D01*
X181090476Y-105079109D01*
X180970890Y-104959523D01*
X180970884Y-104959518D01*
X180827697Y-104869547D01*
X180827694Y-104869545D01*
X180668056Y-104813685D01*
X180500003Y-104794751D01*
X180499997Y-104794751D01*
X180331941Y-104813686D01*
X180288318Y-104828950D01*
X180218539Y-104832511D01*
X180177308Y-104812395D01*
X180176786Y-104813227D01*
X180027697Y-104719547D01*
X180027694Y-104719545D01*
X179868056Y-104663685D01*
X179700003Y-104644751D01*
X179699997Y-104644751D01*
X179531943Y-104663685D01*
X179372305Y-104719545D01*
X179372302Y-104719547D01*
X179229115Y-104809518D01*
X179229109Y-104809523D01*
X179109523Y-104929109D01*
X179109518Y-104929115D01*
X179019547Y-105072302D01*
X179019545Y-105072305D01*
X178963685Y-105231943D01*
X178944751Y-105399997D01*
X178944751Y-105400002D01*
X178963685Y-105568056D01*
X179019545Y-105727694D01*
X179019547Y-105727697D01*
X179109518Y-105870884D01*
X179109523Y-105870890D01*
X179137836Y-105899203D01*
X179171321Y-105960526D01*
X179166337Y-106030218D01*
X179124465Y-106086151D01*
X179059001Y-106110568D01*
X179036272Y-106110104D01*
X178900004Y-106094751D01*
X178899997Y-106094751D01*
X178731943Y-106113685D01*
X178572305Y-106169545D01*
X178572302Y-106169547D01*
X178429115Y-106259518D01*
X178429109Y-106259523D01*
X178309523Y-106379109D01*
X178309518Y-106379115D01*
X178219547Y-106522302D01*
X178219545Y-106522305D01*
X178163685Y-106681943D01*
X178144751Y-106849997D01*
X178144751Y-106850002D01*
X173446571Y-106850002D01*
X173568056Y-106836314D01*
X173568059Y-106836313D01*
X173727690Y-106780456D01*
X173727692Y-106780454D01*
X173727694Y-106780454D01*
X173727697Y-106780452D01*
X173870884Y-106690481D01*
X173870885Y-106690480D01*
X173870890Y-106690477D01*
X173990477Y-106570890D01*
X173991406Y-106569412D01*
X174080452Y-106427697D01*
X174080454Y-106427694D01*
X174080454Y-106427692D01*
X174080456Y-106427690D01*
X174136313Y-106268059D01*
X174136313Y-106268058D01*
X174136314Y-106268056D01*
X174155249Y-106100002D01*
X174155249Y-106099997D01*
X174136314Y-105931943D01*
X174099874Y-105827805D01*
X174080456Y-105772310D01*
X174057792Y-105736240D01*
X174038792Y-105669003D01*
X174059160Y-105602168D01*
X174070636Y-105587296D01*
X174087960Y-105568056D01*
X174191859Y-105452665D01*
X174281250Y-105297835D01*
X174336497Y-105127803D01*
X174355185Y-104950000D01*
X174336497Y-104772197D01*
X174295087Y-104644751D01*
X174281252Y-104602170D01*
X174281249Y-104602164D01*
X174254163Y-104555249D01*
X174191859Y-104447335D01*
X174113476Y-104360282D01*
X174072235Y-104314478D01*
X174072232Y-104314476D01*
X174072231Y-104314475D01*
X174072230Y-104314474D01*
X173927593Y-104209388D01*
X173764267Y-104136671D01*
X173764265Y-104136670D01*
X173636594Y-104109533D01*
X173589391Y-104099500D01*
X173410609Y-104099500D01*
X173379954Y-104106015D01*
X173235733Y-104136670D01*
X173235728Y-104136672D01*
X173072408Y-104209387D01*
X172927768Y-104314475D01*
X172808140Y-104447336D01*
X172718750Y-104602164D01*
X172718747Y-104602170D01*
X172663504Y-104772192D01*
X172663503Y-104772194D01*
X172649083Y-104909389D01*
X172644815Y-104950000D01*
X172651044Y-105009267D01*
X172663503Y-105127805D01*
X172663504Y-105127807D01*
X172718747Y-105297829D01*
X172718750Y-105297835D01*
X172808139Y-105452663D01*
X172808140Y-105452664D01*
X172813656Y-105458790D01*
X172843886Y-105521782D01*
X172835261Y-105591117D01*
X172813385Y-105623277D01*
X172813867Y-105623662D01*
X172809520Y-105629112D01*
X172719547Y-105772302D01*
X172719545Y-105772305D01*
X172663685Y-105931943D01*
X172644751Y-106099997D01*
X172644751Y-106100002D01*
X169497264Y-106100002D01*
X169556250Y-105997835D01*
X169611497Y-105827803D01*
X169630185Y-105650000D01*
X169611497Y-105472197D01*
X169556250Y-105302165D01*
X169466859Y-105147335D01*
X169420003Y-105095296D01*
X169347235Y-105014478D01*
X169347232Y-105014476D01*
X169347231Y-105014475D01*
X169347230Y-105014474D01*
X169202593Y-104909388D01*
X169039267Y-104836671D01*
X169039265Y-104836670D01*
X168911522Y-104809518D01*
X168864391Y-104799500D01*
X168685609Y-104799500D01*
X168654954Y-104806015D01*
X168510733Y-104836670D01*
X168510728Y-104836672D01*
X168347408Y-104909387D01*
X168202768Y-105014475D01*
X168083140Y-105147336D01*
X167993750Y-105302164D01*
X167993747Y-105302170D01*
X167938504Y-105472192D01*
X167938503Y-105472194D01*
X167919815Y-105650000D01*
X160100500Y-105650000D01*
X160100500Y-103600002D01*
X164594751Y-103600002D01*
X164613685Y-103768056D01*
X164669545Y-103927694D01*
X164669547Y-103927697D01*
X164759518Y-104070884D01*
X164759523Y-104070890D01*
X164879109Y-104190476D01*
X164879115Y-104190481D01*
X165022302Y-104280452D01*
X165022305Y-104280454D01*
X165022309Y-104280455D01*
X165022310Y-104280456D01*
X165082079Y-104301370D01*
X165181943Y-104336314D01*
X165349997Y-104355249D01*
X165350000Y-104355249D01*
X165350003Y-104355249D01*
X165518056Y-104336314D01*
X165518059Y-104336313D01*
X165677690Y-104280456D01*
X165677692Y-104280454D01*
X165677694Y-104280454D01*
X165677697Y-104280452D01*
X165820884Y-104190481D01*
X165820885Y-104190480D01*
X165820890Y-104190477D01*
X165940477Y-104070890D01*
X165940481Y-104070884D01*
X166016437Y-103950002D01*
X175044751Y-103950002D01*
X175063685Y-104118056D01*
X175119545Y-104277694D01*
X175119547Y-104277697D01*
X175209518Y-104420884D01*
X175209523Y-104420890D01*
X175329109Y-104540476D01*
X175329115Y-104540481D01*
X175472302Y-104630452D01*
X175472305Y-104630454D01*
X175472309Y-104630455D01*
X175472310Y-104630456D01*
X175513163Y-104644751D01*
X175631943Y-104686314D01*
X175799997Y-104705249D01*
X175800000Y-104705249D01*
X175800003Y-104705249D01*
X175968056Y-104686314D01*
X175968059Y-104686313D01*
X176127690Y-104630456D01*
X176127692Y-104630454D01*
X176127694Y-104630454D01*
X176127697Y-104630452D01*
X176270884Y-104540481D01*
X176270885Y-104540480D01*
X176270890Y-104540477D01*
X176390477Y-104420890D01*
X176390481Y-104420884D01*
X176480452Y-104277697D01*
X176480454Y-104277694D01*
X176480454Y-104277692D01*
X176480456Y-104277690D01*
X176536313Y-104118059D01*
X176536313Y-104118058D01*
X176536314Y-104118056D01*
X176555249Y-103950002D01*
X176555249Y-103949999D01*
X176552736Y-103927697D01*
X176550892Y-103911333D01*
X176562946Y-103842513D01*
X176610294Y-103791133D01*
X176677904Y-103773508D01*
X176715067Y-103780408D01*
X176731941Y-103786313D01*
X176799164Y-103793887D01*
X176899997Y-103805249D01*
X176900000Y-103805249D01*
X176900003Y-103805249D01*
X177068056Y-103786314D01*
X177080548Y-103781943D01*
X177227690Y-103730456D01*
X177227692Y-103730454D01*
X177227694Y-103730454D01*
X177227697Y-103730452D01*
X177370884Y-103640481D01*
X177370885Y-103640480D01*
X177370890Y-103640477D01*
X177490477Y-103520890D01*
X177516726Y-103479115D01*
X177580452Y-103377697D01*
X177580454Y-103377694D01*
X177580454Y-103377692D01*
X177580456Y-103377690D01*
X177636313Y-103218059D01*
X177636313Y-103218058D01*
X177636314Y-103218056D01*
X177655249Y-103050002D01*
X177655249Y-103049997D01*
X177636314Y-102881943D01*
X177586813Y-102740477D01*
X177580456Y-102722310D01*
X177580455Y-102722309D01*
X177580454Y-102722305D01*
X177580452Y-102722302D01*
X177490481Y-102579115D01*
X177490476Y-102579109D01*
X177370890Y-102459523D01*
X177370884Y-102459518D01*
X177227697Y-102369547D01*
X177227694Y-102369545D01*
X177068056Y-102313685D01*
X176900003Y-102294751D01*
X176899997Y-102294751D01*
X176731943Y-102313685D01*
X176572305Y-102369545D01*
X176572302Y-102369547D01*
X176429115Y-102459518D01*
X176429109Y-102459523D01*
X176309523Y-102579109D01*
X176309518Y-102579115D01*
X176219547Y-102722302D01*
X176219545Y-102722305D01*
X176163685Y-102881943D01*
X176144751Y-103049997D01*
X176144751Y-103050003D01*
X176149107Y-103088666D01*
X176137052Y-103157488D01*
X176089703Y-103208867D01*
X176022093Y-103226491D01*
X175984933Y-103219591D01*
X175968057Y-103213686D01*
X175800003Y-103194751D01*
X175799997Y-103194751D01*
X175631943Y-103213685D01*
X175472305Y-103269545D01*
X175472302Y-103269547D01*
X175329115Y-103359518D01*
X175329109Y-103359523D01*
X175209523Y-103479109D01*
X175209518Y-103479115D01*
X175119547Y-103622302D01*
X175119545Y-103622305D01*
X175063685Y-103781943D01*
X175044751Y-103949997D01*
X175044751Y-103950002D01*
X166016437Y-103950002D01*
X166030452Y-103927697D01*
X166030454Y-103927694D01*
X166030454Y-103927692D01*
X166030456Y-103927690D01*
X166086313Y-103768059D01*
X166086313Y-103768058D01*
X166086314Y-103768056D01*
X166105249Y-103600002D01*
X166105249Y-103599997D01*
X166086314Y-103431943D01*
X166030454Y-103272305D01*
X166030452Y-103272302D01*
X165940481Y-103129115D01*
X165940476Y-103129109D01*
X165861366Y-103049999D01*
X168319815Y-103049999D01*
X168338503Y-103227805D01*
X168338504Y-103227807D01*
X168393747Y-103397829D01*
X168393750Y-103397835D01*
X168483141Y-103552665D01*
X168524812Y-103598946D01*
X168602764Y-103685521D01*
X168602767Y-103685523D01*
X168602770Y-103685526D01*
X168747407Y-103790612D01*
X168910733Y-103863329D01*
X169085609Y-103900500D01*
X169085610Y-103900500D01*
X169264389Y-103900500D01*
X169264391Y-103900500D01*
X169439267Y-103863329D01*
X169602593Y-103790612D01*
X169747230Y-103685526D01*
X169866859Y-103552665D01*
X169956250Y-103397835D01*
X170011497Y-103227803D01*
X170030185Y-103050000D01*
X170011497Y-102872197D01*
X169968700Y-102740481D01*
X169956252Y-102702170D01*
X169956249Y-102702164D01*
X169927670Y-102652663D01*
X169866859Y-102547335D01*
X169807978Y-102481941D01*
X169747235Y-102414478D01*
X169747232Y-102414476D01*
X169747231Y-102414475D01*
X169747230Y-102414474D01*
X169602593Y-102309388D01*
X169439267Y-102236671D01*
X169439265Y-102236670D01*
X169311594Y-102209533D01*
X169264391Y-102199500D01*
X169085609Y-102199500D01*
X169054954Y-102206015D01*
X168910733Y-102236670D01*
X168910728Y-102236672D01*
X168747408Y-102309387D01*
X168602768Y-102414475D01*
X168483140Y-102547336D01*
X168393750Y-102702164D01*
X168393747Y-102702170D01*
X168338504Y-102872192D01*
X168338503Y-102872194D01*
X168319815Y-103049999D01*
X165861366Y-103049999D01*
X165820890Y-103009523D01*
X165820884Y-103009518D01*
X165677697Y-102919547D01*
X165677694Y-102919545D01*
X165518056Y-102863685D01*
X165350003Y-102844751D01*
X165349997Y-102844751D01*
X165181943Y-102863685D01*
X165022305Y-102919545D01*
X165022302Y-102919547D01*
X164879115Y-103009518D01*
X164879109Y-103009523D01*
X164759523Y-103129109D01*
X164759518Y-103129115D01*
X164669547Y-103272302D01*
X164669545Y-103272305D01*
X164613685Y-103431943D01*
X164594751Y-103599997D01*
X164594751Y-103600002D01*
X160100500Y-103600002D01*
X160100500Y-102150002D01*
X174044751Y-102150002D01*
X174063685Y-102318056D01*
X174119545Y-102477694D01*
X174119547Y-102477697D01*
X174209518Y-102620884D01*
X174209523Y-102620890D01*
X174329109Y-102740476D01*
X174329115Y-102740481D01*
X174472302Y-102830452D01*
X174472305Y-102830454D01*
X174472309Y-102830455D01*
X174472310Y-102830456D01*
X174513163Y-102844751D01*
X174631943Y-102886314D01*
X174799997Y-102905249D01*
X174800000Y-102905249D01*
X174800003Y-102905249D01*
X174968056Y-102886314D01*
X174980548Y-102881943D01*
X175127690Y-102830456D01*
X175127692Y-102830454D01*
X175127694Y-102830454D01*
X175127697Y-102830452D01*
X175270884Y-102740481D01*
X175270885Y-102740480D01*
X175270890Y-102740477D01*
X175390477Y-102620890D01*
X175416726Y-102579115D01*
X175480452Y-102477697D01*
X175480454Y-102477694D01*
X175480454Y-102477692D01*
X175480456Y-102477690D01*
X175536313Y-102318059D01*
X175536313Y-102318058D01*
X175536314Y-102318056D01*
X175555249Y-102150002D01*
X175555249Y-102149997D01*
X175536314Y-101981943D01*
X175480454Y-101822305D01*
X175480452Y-101822302D01*
X175390481Y-101679115D01*
X175390476Y-101679109D01*
X175270890Y-101559523D01*
X175270884Y-101559518D01*
X175127697Y-101469547D01*
X175127694Y-101469545D01*
X174968056Y-101413685D01*
X174800003Y-101394751D01*
X174799997Y-101394751D01*
X174631943Y-101413685D01*
X174472305Y-101469545D01*
X174472302Y-101469547D01*
X174329115Y-101559518D01*
X174329109Y-101559523D01*
X174209523Y-101679109D01*
X174209518Y-101679115D01*
X174119547Y-101822302D01*
X174119545Y-101822305D01*
X174063685Y-101981943D01*
X174044751Y-102149997D01*
X174044751Y-102150002D01*
X160100500Y-102150002D01*
X160100500Y-100900002D01*
X161144751Y-100900002D01*
X161163685Y-101068056D01*
X161219545Y-101227694D01*
X161219547Y-101227697D01*
X161309518Y-101370884D01*
X161309523Y-101370890D01*
X161429109Y-101490476D01*
X161429115Y-101490481D01*
X161572302Y-101580452D01*
X161572305Y-101580454D01*
X161572309Y-101580455D01*
X161572310Y-101580456D01*
X161644913Y-101605860D01*
X161731943Y-101636314D01*
X161899997Y-101655249D01*
X161900000Y-101655249D01*
X161900003Y-101655249D01*
X162068056Y-101636314D01*
X162120226Y-101618059D01*
X162227690Y-101580456D01*
X162227692Y-101580454D01*
X162227694Y-101580454D01*
X162227697Y-101580452D01*
X162370884Y-101490481D01*
X162370885Y-101490480D01*
X162370890Y-101490477D01*
X162490477Y-101370890D01*
X162511978Y-101336672D01*
X162580452Y-101227697D01*
X162580454Y-101227694D01*
X162580454Y-101227692D01*
X162580456Y-101227690D01*
X162636313Y-101068059D01*
X162636313Y-101068058D01*
X162636314Y-101068056D01*
X162655249Y-100900002D01*
X162655249Y-100899997D01*
X162636314Y-100731943D01*
X162593827Y-100610523D01*
X162580456Y-100572310D01*
X162580455Y-100572309D01*
X162580454Y-100572305D01*
X162580452Y-100572302D01*
X162490481Y-100429115D01*
X162490476Y-100429109D01*
X162370890Y-100309523D01*
X162370884Y-100309518D01*
X162227697Y-100219547D01*
X162227694Y-100219545D01*
X162068056Y-100163685D01*
X161900003Y-100144751D01*
X161899997Y-100144751D01*
X161731943Y-100163685D01*
X161572305Y-100219545D01*
X161572302Y-100219547D01*
X161429115Y-100309518D01*
X161429109Y-100309523D01*
X161309523Y-100429109D01*
X161309518Y-100429115D01*
X161219547Y-100572302D01*
X161219545Y-100572305D01*
X161163685Y-100731943D01*
X161144751Y-100899997D01*
X161144751Y-100900002D01*
X160100500Y-100900002D01*
X160100500Y-98174999D01*
X163344815Y-98174999D01*
X163363503Y-98352805D01*
X163363504Y-98352807D01*
X163418747Y-98522829D01*
X163418750Y-98522835D01*
X163508141Y-98677665D01*
X163549812Y-98723946D01*
X163627764Y-98810521D01*
X163627767Y-98810523D01*
X163627770Y-98810526D01*
X163772407Y-98915612D01*
X163935733Y-98988329D01*
X163935735Y-98988329D01*
X163935736Y-98988330D01*
X163996881Y-99001326D01*
X164043127Y-99011156D01*
X164104609Y-99044348D01*
X164138386Y-99105511D01*
X164133734Y-99175225D01*
X164092130Y-99231358D01*
X164090233Y-99232764D01*
X163977768Y-99314475D01*
X163858140Y-99447336D01*
X163768750Y-99602164D01*
X163768747Y-99602170D01*
X163713504Y-99772192D01*
X163713503Y-99772194D01*
X163694815Y-99950000D01*
X163713503Y-100127805D01*
X163713504Y-100127807D01*
X163768747Y-100297829D01*
X163768750Y-100297835D01*
X163858141Y-100452665D01*
X163884503Y-100481943D01*
X163977764Y-100585521D01*
X163977767Y-100585523D01*
X163977770Y-100585526D01*
X164122407Y-100690612D01*
X164285733Y-100763329D01*
X164460609Y-100800500D01*
X164460610Y-100800500D01*
X164639389Y-100800500D01*
X164639391Y-100800500D01*
X164814267Y-100763329D01*
X164977593Y-100690612D01*
X165033487Y-100650002D01*
X168394751Y-100650002D01*
X168413685Y-100818056D01*
X168469545Y-100977694D01*
X168469547Y-100977697D01*
X168559518Y-101120884D01*
X168559523Y-101120890D01*
X168679109Y-101240476D01*
X168679115Y-101240481D01*
X168822302Y-101330452D01*
X168822305Y-101330454D01*
X168822309Y-101330455D01*
X168822310Y-101330456D01*
X168894913Y-101355860D01*
X168981943Y-101386314D01*
X169149997Y-101405249D01*
X169150000Y-101405249D01*
X169150003Y-101405249D01*
X169318056Y-101386314D01*
X169318059Y-101386313D01*
X169477690Y-101330456D01*
X169477692Y-101330454D01*
X169477694Y-101330454D01*
X169477697Y-101330452D01*
X169620884Y-101240481D01*
X169620885Y-101240480D01*
X169620890Y-101240477D01*
X169661365Y-101200002D01*
X179144751Y-101200002D01*
X179163685Y-101368056D01*
X179219545Y-101527694D01*
X179219547Y-101527697D01*
X179309518Y-101670884D01*
X179309523Y-101670890D01*
X179429109Y-101790476D01*
X179429115Y-101790481D01*
X179572302Y-101880452D01*
X179572305Y-101880454D01*
X179572309Y-101880455D01*
X179572310Y-101880456D01*
X179644913Y-101905860D01*
X179731943Y-101936314D01*
X179899997Y-101955249D01*
X179900000Y-101955249D01*
X179900003Y-101955249D01*
X180068056Y-101936314D01*
X180095220Y-101926809D01*
X180227690Y-101880456D01*
X180227692Y-101880454D01*
X180227694Y-101880454D01*
X180227697Y-101880452D01*
X180370884Y-101790481D01*
X180370885Y-101790480D01*
X180370890Y-101790477D01*
X180490477Y-101670890D01*
X180512203Y-101636314D01*
X180580452Y-101527697D01*
X180580454Y-101527694D01*
X180580454Y-101527692D01*
X180580456Y-101527690D01*
X180607640Y-101450002D01*
X181619751Y-101450002D01*
X181638685Y-101618056D01*
X181694545Y-101777694D01*
X181694547Y-101777697D01*
X181784518Y-101920884D01*
X181784523Y-101920890D01*
X181876362Y-102012729D01*
X181909847Y-102074052D01*
X181904863Y-102143744D01*
X181888194Y-102173193D01*
X181888227Y-102173214D01*
X181887777Y-102173929D01*
X181885637Y-102177711D01*
X181884524Y-102179106D01*
X181794547Y-102322302D01*
X181794545Y-102322305D01*
X181738685Y-102481943D01*
X181719751Y-102649997D01*
X181719751Y-102650002D01*
X181738685Y-102818056D01*
X181794545Y-102977694D01*
X181794547Y-102977697D01*
X181884518Y-103120884D01*
X181884523Y-103120890D01*
X182004109Y-103240476D01*
X182004115Y-103240481D01*
X182147302Y-103330452D01*
X182147305Y-103330454D01*
X182147309Y-103330455D01*
X182147310Y-103330456D01*
X182219913Y-103355860D01*
X182306943Y-103386314D01*
X182474997Y-103405249D01*
X182475000Y-103405249D01*
X182475003Y-103405249D01*
X182643056Y-103386314D01*
X182655548Y-103381943D01*
X182802690Y-103330456D01*
X182802692Y-103330454D01*
X182802694Y-103330454D01*
X182802697Y-103330452D01*
X182945884Y-103240481D01*
X182945885Y-103240480D01*
X182945890Y-103240477D01*
X183065477Y-103120890D01*
X183091727Y-103079114D01*
X183155452Y-102977697D01*
X183155454Y-102977694D01*
X183155454Y-102977692D01*
X183155456Y-102977690D01*
X183211313Y-102818059D01*
X183211313Y-102818058D01*
X183211314Y-102818056D01*
X183230249Y-102650002D01*
X183230249Y-102649997D01*
X183211314Y-102481943D01*
X183155454Y-102322305D01*
X183155452Y-102322302D01*
X183065481Y-102179115D01*
X183065476Y-102179109D01*
X183036367Y-102150000D01*
X189019815Y-102150000D01*
X189038503Y-102327805D01*
X189038504Y-102327807D01*
X189093747Y-102497829D01*
X189093750Y-102497835D01*
X189183141Y-102652665D01*
X189224812Y-102698946D01*
X189302764Y-102785521D01*
X189302767Y-102785523D01*
X189302770Y-102785526D01*
X189447407Y-102890612D01*
X189610733Y-102963329D01*
X189785609Y-103000500D01*
X189785610Y-103000500D01*
X189964389Y-103000500D01*
X189964391Y-103000500D01*
X190139267Y-102963329D01*
X190302593Y-102890612D01*
X190447230Y-102785526D01*
X190566859Y-102652665D01*
X190656250Y-102497835D01*
X190711497Y-102327803D01*
X190730185Y-102150000D01*
X194019815Y-102150000D01*
X194038503Y-102327805D01*
X194038504Y-102327807D01*
X194093747Y-102497829D01*
X194093750Y-102497835D01*
X194183141Y-102652665D01*
X194224812Y-102698946D01*
X194302764Y-102785521D01*
X194302767Y-102785523D01*
X194302770Y-102785526D01*
X194447407Y-102890612D01*
X194610733Y-102963329D01*
X194785609Y-103000500D01*
X194785610Y-103000500D01*
X194964389Y-103000500D01*
X194964391Y-103000500D01*
X195139267Y-102963329D01*
X195302593Y-102890612D01*
X195447230Y-102785526D01*
X195566859Y-102652665D01*
X195656250Y-102497835D01*
X195711497Y-102327803D01*
X195730185Y-102150000D01*
X195711497Y-101972197D01*
X195656250Y-101802165D01*
X195566859Y-101647335D01*
X195506637Y-101580452D01*
X195447235Y-101514478D01*
X195447232Y-101514476D01*
X195447231Y-101514475D01*
X195447230Y-101514474D01*
X195302593Y-101409388D01*
X195139267Y-101336671D01*
X195139265Y-101336670D01*
X195011594Y-101309533D01*
X194964391Y-101299500D01*
X194785609Y-101299500D01*
X194754954Y-101306015D01*
X194610733Y-101336670D01*
X194610728Y-101336672D01*
X194447408Y-101409387D01*
X194302768Y-101514475D01*
X194183140Y-101647336D01*
X194093750Y-101802164D01*
X194093747Y-101802170D01*
X194038504Y-101972192D01*
X194038503Y-101972194D01*
X194019815Y-102150000D01*
X190730185Y-102150000D01*
X190711497Y-101972197D01*
X190656250Y-101802165D01*
X190566859Y-101647335D01*
X190506637Y-101580452D01*
X190447235Y-101514478D01*
X190447232Y-101514476D01*
X190447231Y-101514475D01*
X190447230Y-101514474D01*
X190302593Y-101409388D01*
X190139267Y-101336671D01*
X190139265Y-101336670D01*
X190011594Y-101309533D01*
X189964391Y-101299500D01*
X189785609Y-101299500D01*
X189754954Y-101306015D01*
X189610733Y-101336670D01*
X189610728Y-101336672D01*
X189447408Y-101409387D01*
X189302768Y-101514475D01*
X189183140Y-101647336D01*
X189093750Y-101802164D01*
X189093747Y-101802170D01*
X189038504Y-101972192D01*
X189038503Y-101972194D01*
X189019815Y-102150000D01*
X183036367Y-102150000D01*
X182973637Y-102087270D01*
X182940152Y-102025947D01*
X182945136Y-101956255D01*
X182961807Y-101926809D01*
X182961772Y-101926787D01*
X182962254Y-101926018D01*
X182964380Y-101922265D01*
X182965471Y-101920895D01*
X182965477Y-101920890D01*
X183055456Y-101777690D01*
X183111313Y-101618059D01*
X183111313Y-101618058D01*
X183111314Y-101618056D01*
X183130249Y-101450002D01*
X183130249Y-101449997D01*
X183111314Y-101281943D01*
X183055454Y-101122305D01*
X183055452Y-101122302D01*
X182965481Y-100979115D01*
X182965476Y-100979109D01*
X182845890Y-100859523D01*
X182845884Y-100859518D01*
X182702697Y-100769547D01*
X182702694Y-100769545D01*
X182543056Y-100713685D01*
X182375003Y-100694751D01*
X182374997Y-100694751D01*
X182206943Y-100713685D01*
X182047305Y-100769545D01*
X182047302Y-100769547D01*
X181904115Y-100859518D01*
X181904109Y-100859523D01*
X181784523Y-100979109D01*
X181784518Y-100979115D01*
X181694547Y-101122302D01*
X181694545Y-101122305D01*
X181638685Y-101281943D01*
X181619751Y-101449997D01*
X181619751Y-101450002D01*
X180607640Y-101450002D01*
X180636313Y-101368059D01*
X180636313Y-101368058D01*
X180636314Y-101368056D01*
X180655249Y-101200002D01*
X180655249Y-101199997D01*
X180636314Y-101031943D01*
X180580454Y-100872305D01*
X180580452Y-100872302D01*
X180490481Y-100729115D01*
X180490476Y-100729109D01*
X180370890Y-100609523D01*
X180370884Y-100609518D01*
X180227697Y-100519547D01*
X180227694Y-100519545D01*
X180068056Y-100463685D01*
X179900003Y-100444751D01*
X179899997Y-100444751D01*
X179731943Y-100463685D01*
X179572305Y-100519545D01*
X179572302Y-100519547D01*
X179429115Y-100609518D01*
X179429109Y-100609523D01*
X179309523Y-100729109D01*
X179309518Y-100729115D01*
X179219547Y-100872302D01*
X179219545Y-100872305D01*
X179163685Y-101031943D01*
X179144751Y-101199997D01*
X179144751Y-101200002D01*
X169661365Y-101200002D01*
X169740477Y-101120890D01*
X169773675Y-101068056D01*
X169830452Y-100977697D01*
X169830454Y-100977694D01*
X169830454Y-100977692D01*
X169830456Y-100977690D01*
X169886313Y-100818059D01*
X169886313Y-100818058D01*
X169886314Y-100818056D01*
X169905249Y-100650002D01*
X169905249Y-100649997D01*
X169886314Y-100481943D01*
X169855860Y-100394913D01*
X169830456Y-100322310D01*
X169830455Y-100322309D01*
X169830454Y-100322305D01*
X169830452Y-100322302D01*
X169740481Y-100179115D01*
X169740476Y-100179109D01*
X169620890Y-100059523D01*
X169620884Y-100059518D01*
X169486375Y-99975000D01*
X190294815Y-99975000D01*
X190313503Y-100152805D01*
X190313504Y-100152807D01*
X190368747Y-100322829D01*
X190368750Y-100322835D01*
X190458141Y-100477665D01*
X190495849Y-100519544D01*
X190577764Y-100610521D01*
X190577767Y-100610523D01*
X190577770Y-100610526D01*
X190722407Y-100715612D01*
X190885733Y-100788329D01*
X191060609Y-100825500D01*
X191060610Y-100825500D01*
X191239389Y-100825500D01*
X191239391Y-100825500D01*
X191414267Y-100788329D01*
X191577593Y-100715612D01*
X191722230Y-100610526D01*
X191723134Y-100609523D01*
X191756647Y-100572302D01*
X191841859Y-100477665D01*
X191931250Y-100322835D01*
X191986497Y-100152803D01*
X192005185Y-99975000D01*
X191986497Y-99797197D01*
X191931250Y-99627165D01*
X191841859Y-99472335D01*
X191795003Y-99420296D01*
X191722235Y-99339478D01*
X191722232Y-99339476D01*
X191722231Y-99339475D01*
X191722230Y-99339474D01*
X191577593Y-99234388D01*
X191414267Y-99161671D01*
X191414265Y-99161670D01*
X191280693Y-99133279D01*
X191239391Y-99124500D01*
X191060609Y-99124500D01*
X191029954Y-99131015D01*
X190885733Y-99161670D01*
X190885728Y-99161672D01*
X190722408Y-99234387D01*
X190577768Y-99339475D01*
X190458140Y-99472336D01*
X190368750Y-99627164D01*
X190368747Y-99627170D01*
X190313504Y-99797192D01*
X190313503Y-99797194D01*
X190294815Y-99975000D01*
X169486375Y-99975000D01*
X169477697Y-99969547D01*
X169477694Y-99969545D01*
X169318056Y-99913685D01*
X169150003Y-99894751D01*
X169149997Y-99894751D01*
X168981943Y-99913685D01*
X168822305Y-99969545D01*
X168822302Y-99969547D01*
X168679115Y-100059518D01*
X168679109Y-100059523D01*
X168559523Y-100179109D01*
X168559518Y-100179115D01*
X168469547Y-100322302D01*
X168469545Y-100322305D01*
X168413685Y-100481943D01*
X168394751Y-100649997D01*
X168394751Y-100650002D01*
X165033487Y-100650002D01*
X165122230Y-100585526D01*
X165134135Y-100572305D01*
X165148148Y-100556741D01*
X165241859Y-100452665D01*
X165331250Y-100297835D01*
X165386497Y-100127803D01*
X165394135Y-100055132D01*
X165420719Y-99990521D01*
X165478016Y-99950536D01*
X165543235Y-99946807D01*
X165560609Y-99950500D01*
X165560610Y-99950500D01*
X165739389Y-99950500D01*
X165739391Y-99950500D01*
X165914267Y-99913329D01*
X166077593Y-99840612D01*
X166222230Y-99735526D01*
X166341859Y-99602665D01*
X166431250Y-99447835D01*
X166431413Y-99447335D01*
X166434965Y-99436399D01*
X166486497Y-99277803D01*
X166505185Y-99100000D01*
X166486497Y-98922197D01*
X166446793Y-98800002D01*
X173694751Y-98800002D01*
X173713685Y-98968056D01*
X173769545Y-99127694D01*
X173769547Y-99127697D01*
X173859518Y-99270884D01*
X173859523Y-99270890D01*
X173979109Y-99390476D01*
X173979115Y-99390481D01*
X174122302Y-99480452D01*
X174122305Y-99480454D01*
X174122309Y-99480455D01*
X174122310Y-99480456D01*
X174194913Y-99505860D01*
X174281943Y-99536314D01*
X174449997Y-99555249D01*
X174450000Y-99555249D01*
X174450003Y-99555249D01*
X174618056Y-99536314D01*
X174618059Y-99536313D01*
X174777690Y-99480456D01*
X174777692Y-99480454D01*
X174777694Y-99480454D01*
X174777697Y-99480452D01*
X174920884Y-99390481D01*
X174920885Y-99390480D01*
X174920890Y-99390477D01*
X175040477Y-99270890D01*
X175063413Y-99234388D01*
X175130452Y-99127697D01*
X175130454Y-99127694D01*
X175130454Y-99127692D01*
X175130456Y-99127690D01*
X175186313Y-98968059D01*
X175186313Y-98968058D01*
X175186314Y-98968056D01*
X175205249Y-98800002D01*
X175205249Y-98799997D01*
X175186314Y-98631943D01*
X175148133Y-98522829D01*
X175130456Y-98472310D01*
X175130454Y-98472307D01*
X175130454Y-98472306D01*
X175070622Y-98377086D01*
X175051621Y-98309850D01*
X175071988Y-98243014D01*
X175087925Y-98223441D01*
X175190477Y-98120890D01*
X175280452Y-97977697D01*
X175280454Y-97977694D01*
X175280454Y-97977692D01*
X175280456Y-97977690D01*
X175336313Y-97818059D01*
X175336313Y-97818058D01*
X175336314Y-97818056D01*
X175355249Y-97650002D01*
X175355249Y-97649997D01*
X175336314Y-97481943D01*
X175294229Y-97361671D01*
X175280456Y-97322310D01*
X175280455Y-97322309D01*
X175280454Y-97322305D01*
X175280452Y-97322302D01*
X175190481Y-97179115D01*
X175190476Y-97179109D01*
X175070890Y-97059523D01*
X175070884Y-97059518D01*
X174927697Y-96969547D01*
X174927694Y-96969545D01*
X174768056Y-96913685D01*
X174646592Y-96900000D01*
X179144815Y-96900000D01*
X179163503Y-97077805D01*
X179163504Y-97077807D01*
X179218747Y-97247829D01*
X179218750Y-97247835D01*
X179308141Y-97402665D01*
X179336704Y-97434387D01*
X179427764Y-97535521D01*
X179427767Y-97535523D01*
X179427770Y-97535526D01*
X179572407Y-97640612D01*
X179735733Y-97713329D01*
X179910609Y-97750500D01*
X179910610Y-97750500D01*
X180089389Y-97750500D01*
X180089391Y-97750500D01*
X180264267Y-97713329D01*
X180427593Y-97640612D01*
X180572230Y-97535526D01*
X180691859Y-97402665D01*
X180781250Y-97247835D01*
X180836497Y-97077803D01*
X180855185Y-96900000D01*
X180836497Y-96722197D01*
X180781250Y-96552165D01*
X180736698Y-96474999D01*
X190194815Y-96474999D01*
X190213503Y-96652805D01*
X190213504Y-96652807D01*
X190268747Y-96822829D01*
X190268750Y-96822835D01*
X190358141Y-96977665D01*
X190399812Y-97023946D01*
X190477764Y-97110521D01*
X190477767Y-97110523D01*
X190477770Y-97110526D01*
X190622407Y-97215612D01*
X190785733Y-97288329D01*
X190960609Y-97325500D01*
X190960610Y-97325500D01*
X191139389Y-97325500D01*
X191139391Y-97325500D01*
X191314267Y-97288329D01*
X191477593Y-97215612D01*
X191622230Y-97110526D01*
X191741859Y-96977665D01*
X191831250Y-96822835D01*
X191886497Y-96652803D01*
X191905185Y-96475000D01*
X191886497Y-96297197D01*
X191831250Y-96127165D01*
X191741859Y-95972335D01*
X191695003Y-95920296D01*
X191622235Y-95839478D01*
X191622232Y-95839476D01*
X191622231Y-95839475D01*
X191622230Y-95839474D01*
X191477593Y-95734388D01*
X191314267Y-95661671D01*
X191314265Y-95661670D01*
X191186594Y-95634533D01*
X191139391Y-95624500D01*
X190960609Y-95624500D01*
X190929954Y-95631015D01*
X190785733Y-95661670D01*
X190785728Y-95661672D01*
X190622408Y-95734387D01*
X190477768Y-95839475D01*
X190358140Y-95972336D01*
X190268750Y-96127164D01*
X190268747Y-96127170D01*
X190213504Y-96297192D01*
X190213503Y-96297194D01*
X190194815Y-96474999D01*
X180736698Y-96474999D01*
X180691859Y-96397335D01*
X180645003Y-96345296D01*
X180572235Y-96264478D01*
X180572232Y-96264476D01*
X180572231Y-96264475D01*
X180572230Y-96264474D01*
X180427593Y-96159388D01*
X180264267Y-96086671D01*
X180264265Y-96086670D01*
X180116438Y-96055249D01*
X180089391Y-96049500D01*
X179910609Y-96049500D01*
X179883562Y-96055249D01*
X179735733Y-96086670D01*
X179735728Y-96086672D01*
X179572408Y-96159387D01*
X179427768Y-96264475D01*
X179308140Y-96397336D01*
X179218750Y-96552164D01*
X179218747Y-96552170D01*
X179163504Y-96722192D01*
X179163503Y-96722194D01*
X179144815Y-96900000D01*
X174646592Y-96900000D01*
X174600003Y-96894751D01*
X174599997Y-96894751D01*
X174431943Y-96913685D01*
X174272305Y-96969545D01*
X174272302Y-96969547D01*
X174129115Y-97059518D01*
X174129109Y-97059523D01*
X174009523Y-97179109D01*
X174009518Y-97179115D01*
X173919547Y-97322302D01*
X173919545Y-97322305D01*
X173863685Y-97481943D01*
X173844751Y-97649997D01*
X173844751Y-97650002D01*
X173863685Y-97818056D01*
X173919545Y-97977693D01*
X173979377Y-98072913D01*
X173998378Y-98140150D01*
X173978011Y-98206985D01*
X173962066Y-98226567D01*
X173859518Y-98329115D01*
X173769547Y-98472302D01*
X173769545Y-98472305D01*
X173713685Y-98631943D01*
X173694751Y-98799997D01*
X173694751Y-98800002D01*
X166446793Y-98800002D01*
X166431250Y-98752165D01*
X166341859Y-98597335D01*
X166274779Y-98522835D01*
X166222235Y-98464478D01*
X166222232Y-98464476D01*
X166222231Y-98464475D01*
X166222230Y-98464474D01*
X166077593Y-98359388D01*
X165914267Y-98286671D01*
X165914265Y-98286670D01*
X165786594Y-98259533D01*
X165739391Y-98249500D01*
X165560609Y-98249500D01*
X165529954Y-98256015D01*
X165385733Y-98286670D01*
X165385732Y-98286670D01*
X165222849Y-98359191D01*
X165153599Y-98368475D01*
X165090323Y-98338846D01*
X165053110Y-98279711D01*
X165049093Y-98232955D01*
X165055185Y-98175000D01*
X165036497Y-97997197D01*
X164981250Y-97827165D01*
X164891859Y-97672335D01*
X164845003Y-97620296D01*
X164772235Y-97539478D01*
X164772232Y-97539476D01*
X164772231Y-97539475D01*
X164772230Y-97539474D01*
X164627593Y-97434388D01*
X164464267Y-97361671D01*
X164464265Y-97361670D01*
X164336594Y-97334533D01*
X164289391Y-97324500D01*
X164110609Y-97324500D01*
X164079954Y-97331015D01*
X163935733Y-97361670D01*
X163935728Y-97361672D01*
X163772408Y-97434387D01*
X163627768Y-97539475D01*
X163508140Y-97672336D01*
X163418750Y-97827164D01*
X163418747Y-97827170D01*
X163363504Y-97997192D01*
X163363503Y-97997194D01*
X163344815Y-98174999D01*
X160100500Y-98174999D01*
X160100500Y-95250002D01*
X165444751Y-95250002D01*
X165463685Y-95418056D01*
X165519545Y-95577694D01*
X165519547Y-95577697D01*
X165609518Y-95720884D01*
X165609523Y-95720890D01*
X165729109Y-95840476D01*
X165729115Y-95840481D01*
X165872302Y-95930452D01*
X165872305Y-95930454D01*
X165872309Y-95930455D01*
X165872310Y-95930456D01*
X165944913Y-95955860D01*
X166031943Y-95986314D01*
X166199997Y-96005249D01*
X166200000Y-96005249D01*
X166200003Y-96005249D01*
X166368056Y-95986314D01*
X166408006Y-95972335D01*
X166527690Y-95930456D01*
X166527692Y-95930454D01*
X166527694Y-95930454D01*
X166527697Y-95930452D01*
X166670884Y-95840481D01*
X166670885Y-95840480D01*
X166670890Y-95840477D01*
X166790477Y-95720890D01*
X166790481Y-95720884D01*
X166880452Y-95577697D01*
X166880454Y-95577694D01*
X166880454Y-95577692D01*
X166880456Y-95577690D01*
X166936313Y-95418059D01*
X166936313Y-95418058D01*
X166936314Y-95418056D01*
X166949615Y-95300002D01*
X167694751Y-95300002D01*
X167713685Y-95468056D01*
X167769545Y-95627694D01*
X167769547Y-95627697D01*
X167859518Y-95770884D01*
X167859523Y-95770890D01*
X167979109Y-95890476D01*
X167979115Y-95890481D01*
X168122302Y-95980452D01*
X168122305Y-95980454D01*
X168122309Y-95980455D01*
X168122310Y-95980456D01*
X168193165Y-96005249D01*
X168281943Y-96036314D01*
X168449997Y-96055249D01*
X168450000Y-96055249D01*
X168450003Y-96055249D01*
X168618056Y-96036314D01*
X168618059Y-96036313D01*
X168777690Y-95980456D01*
X168777692Y-95980454D01*
X168777694Y-95980454D01*
X168777697Y-95980452D01*
X168920884Y-95890481D01*
X168920885Y-95890480D01*
X168920890Y-95890477D01*
X169040477Y-95770890D01*
X169063413Y-95734388D01*
X169130452Y-95627697D01*
X169130454Y-95627694D01*
X169130454Y-95627692D01*
X169130456Y-95627690D01*
X169186313Y-95468059D01*
X169186313Y-95468058D01*
X169186314Y-95468056D01*
X169205249Y-95300002D01*
X169205249Y-95299997D01*
X169186314Y-95131943D01*
X169130454Y-94972305D01*
X169130452Y-94972302D01*
X169040481Y-94829115D01*
X169040476Y-94829109D01*
X168920890Y-94709523D01*
X168920884Y-94709518D01*
X168777697Y-94619547D01*
X168777694Y-94619545D01*
X168618056Y-94563685D01*
X168450003Y-94544751D01*
X168449997Y-94544751D01*
X168281943Y-94563685D01*
X168122305Y-94619545D01*
X168122302Y-94619547D01*
X167979115Y-94709518D01*
X167979109Y-94709523D01*
X167859523Y-94829109D01*
X167859518Y-94829115D01*
X167769547Y-94972302D01*
X167769545Y-94972305D01*
X167713685Y-95131943D01*
X167694751Y-95299997D01*
X167694751Y-95300002D01*
X166949615Y-95300002D01*
X166955249Y-95250002D01*
X166955249Y-95249997D01*
X166936314Y-95081943D01*
X166880454Y-94922305D01*
X166880452Y-94922302D01*
X166790481Y-94779115D01*
X166790476Y-94779109D01*
X166670890Y-94659523D01*
X166670884Y-94659518D01*
X166527697Y-94569547D01*
X166527694Y-94569545D01*
X166368056Y-94513685D01*
X166200003Y-94494751D01*
X166199997Y-94494751D01*
X166031943Y-94513685D01*
X165872305Y-94569545D01*
X165872302Y-94569547D01*
X165729115Y-94659518D01*
X165729109Y-94659523D01*
X165609523Y-94779109D01*
X165609518Y-94779115D01*
X165519547Y-94922302D01*
X165519545Y-94922305D01*
X165463685Y-95081943D01*
X165444751Y-95249997D01*
X165444751Y-95250002D01*
X160100500Y-95250002D01*
X160100500Y-92400000D01*
X164844815Y-92400000D01*
X164863503Y-92577805D01*
X164863504Y-92577807D01*
X164918747Y-92747829D01*
X164918750Y-92747835D01*
X165008141Y-92902665D01*
X165049812Y-92948946D01*
X165127764Y-93035521D01*
X165127767Y-93035523D01*
X165127770Y-93035526D01*
X165272407Y-93140612D01*
X165435733Y-93213329D01*
X165610609Y-93250500D01*
X165610610Y-93250500D01*
X165789389Y-93250500D01*
X165789391Y-93250500D01*
X165964267Y-93213329D01*
X166127593Y-93140612D01*
X166272230Y-93035526D01*
X166391859Y-92902665D01*
X166481250Y-92747835D01*
X166536497Y-92577803D01*
X166555185Y-92400000D01*
X166536497Y-92222197D01*
X166481250Y-92052165D01*
X166391859Y-91897335D01*
X166345003Y-91845296D01*
X166272235Y-91764478D01*
X166272232Y-91764476D01*
X166272231Y-91764475D01*
X166272230Y-91764474D01*
X166127593Y-91659388D01*
X165964267Y-91586671D01*
X165964265Y-91586670D01*
X165836594Y-91559533D01*
X165789391Y-91549500D01*
X165610609Y-91549500D01*
X165579954Y-91556015D01*
X165435733Y-91586670D01*
X165435728Y-91586672D01*
X165272408Y-91659387D01*
X165127768Y-91764475D01*
X165008140Y-91897336D01*
X164918750Y-92052164D01*
X164918747Y-92052170D01*
X164863504Y-92222192D01*
X164863503Y-92222194D01*
X164844815Y-92400000D01*
X160100500Y-92400000D01*
X160100500Y-86050000D01*
X163694815Y-86050000D01*
X163713503Y-86227805D01*
X163713504Y-86227807D01*
X163768747Y-86397829D01*
X163768750Y-86397835D01*
X163858141Y-86552665D01*
X163899812Y-86598946D01*
X163977764Y-86685521D01*
X163977767Y-86685523D01*
X163977770Y-86685526D01*
X164122407Y-86790612D01*
X164285733Y-86863329D01*
X164460609Y-86900500D01*
X164460610Y-86900500D01*
X164639389Y-86900500D01*
X164639391Y-86900500D01*
X164814267Y-86863329D01*
X164977593Y-86790612D01*
X165122230Y-86685526D01*
X165241859Y-86552665D01*
X165331250Y-86397835D01*
X165386497Y-86227803D01*
X165405185Y-86050000D01*
X165386497Y-85872197D01*
X165331250Y-85702165D01*
X165241859Y-85547335D01*
X165163693Y-85460523D01*
X165122235Y-85414478D01*
X165122232Y-85414476D01*
X165122231Y-85414475D01*
X165122230Y-85414474D01*
X164977593Y-85309388D01*
X164814267Y-85236671D01*
X164814265Y-85236670D01*
X164686594Y-85209533D01*
X164639391Y-85199500D01*
X164460609Y-85199500D01*
X164429954Y-85206015D01*
X164285733Y-85236670D01*
X164285728Y-85236672D01*
X164122408Y-85309387D01*
X163977768Y-85414475D01*
X163858140Y-85547336D01*
X163768750Y-85702164D01*
X163768747Y-85702170D01*
X163713504Y-85872192D01*
X163713503Y-85872194D01*
X163694815Y-86050000D01*
X160100500Y-86050000D01*
X160100500Y-76174500D01*
X160120185Y-76107461D01*
X160172989Y-76061706D01*
X160224500Y-76050500D01*
X176700000Y-76050500D01*
X176700000Y-85750000D01*
G37*
G04 #@! TD.AperFunction*
G04 #@! TA.AperFunction,Conductor*
G36*
X179300000Y-85750000D02*
G01*
X176700000Y-85750000D01*
X176700000Y-76050500D01*
X179300000Y-76050500D01*
X179300000Y-85750000D01*
G37*
G04 #@! TD.AperFunction*
G04 #@! TA.AperFunction,Conductor*
G36*
X168800000Y-114450000D02*
G01*
X169200000Y-114950000D01*
X170100000Y-115250000D01*
X171100000Y-115450000D01*
X171700000Y-116250000D01*
X174000000Y-116250000D01*
X174000000Y-117850000D01*
X169400000Y-117850000D01*
X166100000Y-117150000D01*
X162000000Y-117150000D01*
X162000000Y-114850000D01*
X165400000Y-114850000D01*
X165400000Y-113650000D01*
X168500000Y-113650000D01*
X168800000Y-114450000D01*
G37*
G04 #@! TD.AperFunction*
M02*
