%TF.GenerationSoftware,KiCad,Pcbnew,7.0.6*%
%TF.CreationDate,2023-10-28T16:58:44-05:00*%
%TF.ProjectId,FC,46432e6b-6963-4616-945f-706362585858,V1*%
%TF.SameCoordinates,Original*%
%TF.FileFunction,Drillmap*%
%TF.FilePolarity,Positive*%
%FSLAX45Y45*%
G04 Gerber Fmt 4.5, Leading zero omitted, Abs format (unit mm)*
G04 Created by KiCad (PCBNEW 7.0.6) date 2023-10-28 16:58:44*
%MOMM*%
%LPD*%
G01*
G04 APERTURE LIST*
%ADD10C,0.100000*%
%ADD11C,0.200000*%
%ADD12C,0.030000*%
%ADD13C,0.040000*%
%ADD14C,0.060000*%
%ADD15C,0.065000*%
%ADD16C,0.110000*%
%ADD17C,0.190000*%
%ADD18C,0.320000*%
G04 APERTURE END LIST*
D10*
X15910000Y-7505000D02*
X19707500Y-7505000D01*
X19707500Y-16385000D01*
X15910000Y-16385000D01*
X15910000Y-7505000D01*
D11*
D12*
X16175000Y-10075000D02*
X16205000Y-10105000D01*
X16205000Y-10075000D02*
X16175000Y-10105000D01*
X16520000Y-10345000D02*
X16550000Y-10375000D01*
X16550000Y-10345000D02*
X16520000Y-10375000D01*
X16585000Y-12275000D02*
X16615000Y-12305000D01*
X16615000Y-12275000D02*
X16585000Y-12305000D01*
X16605000Y-9510000D02*
X16635000Y-9540000D01*
X16635000Y-9510000D02*
X16605000Y-9540000D01*
X16830000Y-9515000D02*
X16860000Y-9545000D01*
X16860000Y-9515000D02*
X16830000Y-9545000D01*
X16900000Y-10050000D02*
X16930000Y-10080000D01*
X16930000Y-10050000D02*
X16900000Y-10080000D01*
X16900000Y-10730000D02*
X16930000Y-10760000D01*
X16930000Y-10730000D02*
X16900000Y-10760000D01*
X17050000Y-10805000D02*
X17080000Y-10835000D01*
X17080000Y-10805000D02*
X17050000Y-10835000D01*
X17320000Y-12660000D02*
X17350000Y-12690000D01*
X17350000Y-12660000D02*
X17320000Y-12690000D01*
X17325000Y-10595000D02*
X17355000Y-10625000D01*
X17355000Y-10595000D02*
X17325000Y-10625000D01*
X17430000Y-9865000D02*
X17460000Y-9895000D01*
X17460000Y-9865000D02*
X17430000Y-9895000D01*
X17445000Y-9750000D02*
X17475000Y-9780000D01*
X17475000Y-9750000D02*
X17445000Y-9780000D01*
X17465000Y-10200000D02*
X17495000Y-10230000D01*
X17495000Y-10200000D02*
X17465000Y-10230000D01*
X17475000Y-11540000D02*
X17505000Y-11570000D01*
X17505000Y-11540000D02*
X17475000Y-11570000D01*
X17565000Y-10380000D02*
X17595000Y-10410000D01*
X17595000Y-10380000D02*
X17565000Y-10410000D01*
X17645000Y-11460000D02*
X17675000Y-11490000D01*
X17675000Y-11460000D02*
X17645000Y-11490000D01*
X17675000Y-10290000D02*
X17705000Y-10320000D01*
X17705000Y-10290000D02*
X17675000Y-10320000D01*
X17720000Y-12150000D02*
X17750000Y-12180000D01*
X17750000Y-12150000D02*
X17720000Y-12180000D01*
X17800000Y-12150000D02*
X17830000Y-12180000D01*
X17830000Y-12150000D02*
X17800000Y-12180000D01*
X17875000Y-10670000D02*
X17905000Y-10700000D01*
X17905000Y-10670000D02*
X17875000Y-10700000D01*
X17885000Y-11600000D02*
X17915000Y-11630000D01*
X17915000Y-11600000D02*
X17885000Y-11630000D01*
X17905000Y-11470000D02*
X17935000Y-11500000D01*
X17935000Y-11470000D02*
X17905000Y-11500000D01*
X17955000Y-10525000D02*
X17985000Y-10555000D01*
X17985000Y-10525000D02*
X17955000Y-10555000D01*
X17975000Y-10105000D02*
X18005000Y-10135000D01*
X18005000Y-10105000D02*
X17975000Y-10135000D01*
X18015000Y-12220000D02*
X18045000Y-12250000D01*
X18045000Y-12220000D02*
X18015000Y-12250000D01*
X18035000Y-10540000D02*
X18065000Y-10570000D01*
X18065000Y-10540000D02*
X18035000Y-10570000D01*
X18175000Y-12330000D02*
X18205000Y-12360000D01*
X18205000Y-12330000D02*
X18175000Y-12360000D01*
X18222500Y-10130000D02*
X18252500Y-10160000D01*
X18252500Y-10130000D02*
X18222500Y-10160000D01*
X18232500Y-10250000D02*
X18262500Y-10280000D01*
X18262500Y-10250000D02*
X18232500Y-10280000D01*
X18245000Y-10555000D02*
X18275000Y-10585000D01*
X18275000Y-10555000D02*
X18245000Y-10585000D01*
X18352500Y-10380000D02*
X18382500Y-10410000D01*
X18382500Y-10380000D02*
X18352500Y-10410000D01*
X18372500Y-10550000D02*
X18402500Y-10580000D01*
X18402500Y-10550000D02*
X18372500Y-10580000D01*
X18422500Y-10340000D02*
X18452500Y-10370000D01*
X18452500Y-10340000D02*
X18422500Y-10370000D01*
X18452500Y-10670000D02*
X18482500Y-10700000D01*
X18482500Y-10670000D02*
X18452500Y-10700000D01*
X18575000Y-11150000D02*
X18605000Y-11180000D01*
X18605000Y-11150000D02*
X18575000Y-11180000D01*
X18602500Y-10550000D02*
X18632500Y-10580000D01*
X18632500Y-10550000D02*
X18602500Y-10580000D01*
X18602500Y-10670000D02*
X18632500Y-10700000D01*
X18632500Y-10670000D02*
X18602500Y-10700000D01*
X18605000Y-10365000D02*
X18635000Y-10395000D01*
X18635000Y-10365000D02*
X18605000Y-10395000D01*
X18745000Y-10980000D02*
X18775000Y-11010000D01*
X18775000Y-10980000D02*
X18745000Y-11010000D01*
X19185000Y-10690000D02*
X19215000Y-10720000D01*
X19215000Y-10690000D02*
X19185000Y-10720000D01*
X19315000Y-11190000D02*
X19345000Y-11220000D01*
X19345000Y-11190000D02*
X19315000Y-11220000D01*
D13*
X16088500Y-12232500D02*
G75*
G03*
X16088500Y-12232500I-20000J0D01*
G01*
X16110000Y-10755000D02*
G75*
G03*
X16110000Y-10755000I-20000J0D01*
G01*
X16130000Y-7685000D02*
G75*
G03*
X16130000Y-7685000I-20000J0D01*
G01*
X16130000Y-7885000D02*
G75*
G03*
X16130000Y-7885000I-20000J0D01*
G01*
X16130000Y-8085000D02*
G75*
G03*
X16130000Y-8085000I-20000J0D01*
G01*
X16130000Y-8285000D02*
G75*
G03*
X16130000Y-8285000I-20000J0D01*
G01*
X16130000Y-8485000D02*
G75*
G03*
X16130000Y-8485000I-20000J0D01*
G01*
X16130000Y-13485000D02*
G75*
G03*
X16130000Y-13485000I-20000J0D01*
G01*
X16130000Y-13685000D02*
G75*
G03*
X16130000Y-13685000I-20000J0D01*
G01*
X16130000Y-13885000D02*
G75*
G03*
X16130000Y-13885000I-20000J0D01*
G01*
X16130000Y-14085000D02*
G75*
G03*
X16130000Y-14085000I-20000J0D01*
G01*
X16130000Y-15485000D02*
G75*
G03*
X16130000Y-15485000I-20000J0D01*
G01*
X16130000Y-15685000D02*
G75*
G03*
X16130000Y-15685000I-20000J0D01*
G01*
X16130000Y-15885000D02*
G75*
G03*
X16130000Y-15885000I-20000J0D01*
G01*
X16130000Y-16085000D02*
G75*
G03*
X16130000Y-16085000I-20000J0D01*
G01*
X16135000Y-9342500D02*
G75*
G03*
X16135000Y-9342500I-20000J0D01*
G01*
X16237500Y-12785000D02*
G75*
G03*
X16237500Y-12785000I-20000J0D01*
G01*
X16257500Y-12232500D02*
G75*
G03*
X16257500Y-12232500I-20000J0D01*
G01*
X16272500Y-9815000D02*
G75*
G03*
X16272500Y-9815000I-20000J0D01*
G01*
X16310000Y-8610000D02*
G75*
G03*
X16310000Y-8610000I-20000J0D01*
G01*
X16330000Y-7685000D02*
G75*
G03*
X16330000Y-7685000I-20000J0D01*
G01*
X16330000Y-8485000D02*
G75*
G03*
X16330000Y-8485000I-20000J0D01*
G01*
X16330000Y-10885000D02*
G75*
G03*
X16330000Y-10885000I-20000J0D01*
G01*
X16330000Y-11085000D02*
G75*
G03*
X16330000Y-11085000I-20000J0D01*
G01*
X16430000Y-11442500D02*
G75*
G03*
X16430000Y-11442500I-20000J0D01*
G01*
X16437500Y-11955000D02*
G75*
G03*
X16437500Y-11955000I-20000J0D01*
G01*
X16440000Y-9817500D02*
G75*
G03*
X16440000Y-9817500I-20000J0D01*
G01*
X16475000Y-8605000D02*
G75*
G03*
X16475000Y-8605000I-20000J0D01*
G01*
X16475000Y-9995000D02*
G75*
G03*
X16475000Y-9995000I-20000J0D01*
G01*
X16480000Y-10755000D02*
G75*
G03*
X16480000Y-10755000I-20000J0D01*
G01*
X16530000Y-7685000D02*
G75*
G03*
X16530000Y-7685000I-20000J0D01*
G01*
X16530000Y-10885000D02*
G75*
G03*
X16530000Y-10885000I-20000J0D01*
G01*
X16530000Y-11085000D02*
G75*
G03*
X16530000Y-11085000I-20000J0D01*
G01*
X16540000Y-9347500D02*
G75*
G03*
X16540000Y-9347500I-20000J0D01*
G01*
X16585000Y-9910000D02*
G75*
G03*
X16585000Y-9910000I-20000J0D01*
G01*
X16590000Y-9240000D02*
G75*
G03*
X16590000Y-9240000I-20000J0D01*
G01*
X16590000Y-14465000D02*
G75*
G03*
X16590000Y-14465000I-20000J0D01*
G01*
X16617500Y-12595000D02*
G75*
G03*
X16617500Y-12595000I-20000J0D01*
G01*
X16730000Y-7685000D02*
G75*
G03*
X16730000Y-7685000I-20000J0D01*
G01*
X16730000Y-8485000D02*
G75*
G03*
X16730000Y-8485000I-20000J0D01*
G01*
X16730000Y-11085000D02*
G75*
G03*
X16730000Y-11085000I-20000J0D01*
G01*
X16730000Y-12055000D02*
G75*
G03*
X16730000Y-12055000I-20000J0D01*
G01*
X16747500Y-12595000D02*
G75*
G03*
X16747500Y-12595000I-20000J0D01*
G01*
X16767500Y-15345000D02*
G75*
G03*
X16767500Y-15345000I-20000J0D01*
G01*
X16830000Y-13485000D02*
G75*
G03*
X16830000Y-13485000I-20000J0D01*
G01*
X16830000Y-13685000D02*
G75*
G03*
X16830000Y-13685000I-20000J0D01*
G01*
X16830000Y-13985000D02*
G75*
G03*
X16830000Y-13985000I-20000J0D01*
G01*
X16830000Y-14185000D02*
G75*
G03*
X16830000Y-14185000I-20000J0D01*
G01*
X16840000Y-11862500D02*
G75*
G03*
X16840000Y-11862500I-20000J0D01*
G01*
X16867500Y-12595000D02*
G75*
G03*
X16867500Y-12595000I-20000J0D01*
G01*
X16897500Y-10565000D02*
G75*
G03*
X16897500Y-10565000I-20000J0D01*
G01*
X16900000Y-11240836D02*
G75*
G03*
X16900000Y-11240836I-20000J0D01*
G01*
X16930000Y-7685000D02*
G75*
G03*
X16930000Y-7685000I-20000J0D01*
G01*
X16930000Y-7885000D02*
G75*
G03*
X16930000Y-7885000I-20000J0D01*
G01*
X16930000Y-8085000D02*
G75*
G03*
X16930000Y-8085000I-20000J0D01*
G01*
X16930000Y-8285000D02*
G75*
G03*
X16930000Y-8285000I-20000J0D01*
G01*
X16930000Y-11085000D02*
G75*
G03*
X16930000Y-11085000I-20000J0D01*
G01*
X16930000Y-11812500D02*
G75*
G03*
X16930000Y-11812500I-20000J0D01*
G01*
X16930000Y-16085000D02*
G75*
G03*
X16930000Y-16085000I-20000J0D01*
G01*
X16937500Y-10305000D02*
G75*
G03*
X16937500Y-10305000I-20000J0D01*
G01*
X16947500Y-13075000D02*
G75*
G03*
X16947500Y-13075000I-20000J0D01*
G01*
X16977500Y-9455000D02*
G75*
G03*
X16977500Y-9455000I-20000J0D01*
G01*
X16987500Y-15779687D02*
G75*
G03*
X16987500Y-15779687I-20000J0D01*
G01*
X16987500Y-15949687D02*
G75*
G03*
X16987500Y-15949687I-20000J0D01*
G01*
X17005000Y-9227500D02*
G75*
G03*
X17005000Y-9227500I-20000J0D01*
G01*
X17005000Y-10627500D02*
G75*
G03*
X17005000Y-10627500I-20000J0D01*
G01*
X17080000Y-10915000D02*
G75*
G03*
X17080000Y-10915000I-20000J0D01*
G01*
X17117500Y-15345000D02*
G75*
G03*
X17117500Y-15345000I-20000J0D01*
G01*
X17130000Y-7685000D02*
G75*
G03*
X17130000Y-7685000I-20000J0D01*
G01*
X17130000Y-7885000D02*
G75*
G03*
X17130000Y-7885000I-20000J0D01*
G01*
X17130000Y-8085000D02*
G75*
G03*
X17130000Y-8085000I-20000J0D01*
G01*
X17130000Y-8885000D02*
G75*
G03*
X17130000Y-8885000I-20000J0D01*
G01*
X17157500Y-12305000D02*
G75*
G03*
X17157500Y-12305000I-20000J0D01*
G01*
X17167500Y-12145000D02*
G75*
G03*
X17167500Y-12145000I-20000J0D01*
G01*
X17222500Y-12867500D02*
G75*
G03*
X17222500Y-12867500I-20000J0D01*
G01*
X17250000Y-7745000D02*
G75*
G03*
X17250000Y-7745000I-20000J0D01*
G01*
X17317500Y-15575000D02*
G75*
G03*
X17317500Y-15575000I-20000J0D01*
G01*
X17330000Y-8885000D02*
G75*
G03*
X17330000Y-8885000I-20000J0D01*
G01*
X17330000Y-13985000D02*
G75*
G03*
X17330000Y-13985000I-20000J0D01*
G01*
X17330000Y-14185000D02*
G75*
G03*
X17330000Y-14185000I-20000J0D01*
G01*
X17367500Y-13025000D02*
G75*
G03*
X17367500Y-13025000I-20000J0D01*
G01*
X17370000Y-10495000D02*
G75*
G03*
X17370000Y-10495000I-20000J0D01*
G01*
X17430000Y-14915000D02*
G75*
G03*
X17430000Y-14915000I-20000J0D01*
G01*
X17457500Y-12325000D02*
G75*
G03*
X17457500Y-12325000I-20000J0D01*
G01*
X17460000Y-12215000D02*
G75*
G03*
X17460000Y-12215000I-20000J0D01*
G01*
X17462198Y-8151133D02*
G75*
G03*
X17462198Y-8151133I-20000J0D01*
G01*
X17477500Y-13255000D02*
G75*
G03*
X17477500Y-13255000I-20000J0D01*
G01*
X17530000Y-8685000D02*
G75*
G03*
X17530000Y-8685000I-20000J0D01*
G01*
X17530000Y-8885000D02*
G75*
G03*
X17530000Y-8885000I-20000J0D01*
G01*
X17530000Y-9085000D02*
G75*
G03*
X17530000Y-9085000I-20000J0D01*
G01*
X17530000Y-11685000D02*
G75*
G03*
X17530000Y-11685000I-20000J0D01*
G01*
X17530000Y-11885000D02*
G75*
G03*
X17530000Y-11885000I-20000J0D01*
G01*
X17530000Y-13485000D02*
G75*
G03*
X17530000Y-13485000I-20000J0D01*
G01*
X17530000Y-13685000D02*
G75*
G03*
X17530000Y-13685000I-20000J0D01*
G01*
X17530000Y-13985000D02*
G75*
G03*
X17530000Y-13985000I-20000J0D01*
G01*
X17550000Y-13085000D02*
G75*
G03*
X17550000Y-13085000I-20000J0D01*
G01*
X17590000Y-10955000D02*
G75*
G03*
X17590000Y-10955000I-20000J0D01*
G01*
X17610000Y-12185000D02*
G75*
G03*
X17610000Y-12185000I-20000J0D01*
G01*
X17707500Y-8665000D02*
G75*
G03*
X17707500Y-8665000I-20000J0D01*
G01*
X17730000Y-8885000D02*
G75*
G03*
X17730000Y-8885000I-20000J0D01*
G01*
X17730000Y-9085000D02*
G75*
G03*
X17730000Y-9085000I-20000J0D01*
G01*
X17810000Y-9944195D02*
G75*
G03*
X17810000Y-9944195I-20000J0D01*
G01*
X17930000Y-8885000D02*
G75*
G03*
X17930000Y-8885000I-20000J0D01*
G01*
X17930000Y-9085000D02*
G75*
G03*
X17930000Y-9085000I-20000J0D01*
G01*
X17937500Y-8665000D02*
G75*
G03*
X17937500Y-8665000I-20000J0D01*
G01*
X17987500Y-11755000D02*
G75*
G03*
X17987500Y-11755000I-20000J0D01*
G01*
X18015000Y-9850000D02*
G75*
G03*
X18015000Y-9850000I-20000J0D01*
G01*
X18020000Y-9690000D02*
G75*
G03*
X18020000Y-9690000I-20000J0D01*
G01*
X18127500Y-11775000D02*
G75*
G03*
X18127500Y-11775000I-20000J0D01*
G01*
X18130000Y-8085000D02*
G75*
G03*
X18130000Y-8085000I-20000J0D01*
G01*
X18130000Y-8285000D02*
G75*
G03*
X18130000Y-8285000I-20000J0D01*
G01*
X18130000Y-8485000D02*
G75*
G03*
X18130000Y-8485000I-20000J0D01*
G01*
X18130000Y-8685000D02*
G75*
G03*
X18130000Y-8685000I-20000J0D01*
G01*
X18130000Y-8885000D02*
G75*
G03*
X18130000Y-8885000I-20000J0D01*
G01*
X18180000Y-9985000D02*
G75*
G03*
X18180000Y-9985000I-20000J0D01*
G01*
X18180205Y-10925259D02*
G75*
G03*
X18180205Y-10925259I-20000J0D01*
G01*
X18230000Y-13015000D02*
G75*
G03*
X18230000Y-13015000I-20000J0D01*
G01*
X18247500Y-13145000D02*
G75*
G03*
X18247500Y-13145000I-20000J0D01*
G01*
X18317500Y-11725000D02*
G75*
G03*
X18317500Y-11725000I-20000J0D01*
G01*
X18317500Y-11895000D02*
G75*
G03*
X18317500Y-11895000I-20000J0D01*
G01*
X18327500Y-12755000D02*
G75*
G03*
X18327500Y-12755000I-20000J0D01*
G01*
X18327500Y-13265000D02*
G75*
G03*
X18327500Y-13265000I-20000J0D01*
G01*
X18344988Y-10922561D02*
G75*
G03*
X18344988Y-10922561I-20000J0D01*
G01*
X18347500Y-15015000D02*
G75*
G03*
X18347500Y-15015000I-20000J0D01*
G01*
X18347500Y-15275000D02*
G75*
G03*
X18347500Y-15275000I-20000J0D01*
G01*
X18380000Y-13545000D02*
G75*
G03*
X18380000Y-13545000I-20000J0D01*
G01*
X18390000Y-7745000D02*
G75*
G03*
X18390000Y-7745000I-20000J0D01*
G01*
X18477500Y-8485000D02*
G75*
G03*
X18477500Y-8485000I-20000J0D01*
G01*
X18530000Y-7685000D02*
G75*
G03*
X18530000Y-7685000I-20000J0D01*
G01*
X18530000Y-7885000D02*
G75*
G03*
X18530000Y-7885000I-20000J0D01*
G01*
X18530000Y-8085000D02*
G75*
G03*
X18530000Y-8085000I-20000J0D01*
G01*
X18530000Y-8285000D02*
G75*
G03*
X18530000Y-8285000I-20000J0D01*
G01*
X18632500Y-8482500D02*
G75*
G03*
X18632500Y-8482500I-20000J0D01*
G01*
X18717500Y-12755000D02*
G75*
G03*
X18717500Y-12755000I-20000J0D01*
G01*
X18717500Y-14501250D02*
G75*
G03*
X18717500Y-14501250I-20000J0D01*
G01*
X18730000Y-7685000D02*
G75*
G03*
X18730000Y-7685000I-20000J0D01*
G01*
X18730000Y-7885000D02*
G75*
G03*
X18730000Y-7885000I-20000J0D01*
G01*
X18730000Y-8085000D02*
G75*
G03*
X18730000Y-8085000I-20000J0D01*
G01*
X18730000Y-8285000D02*
G75*
G03*
X18730000Y-8285000I-20000J0D01*
G01*
X18730000Y-13685000D02*
G75*
G03*
X18730000Y-13685000I-20000J0D01*
G01*
X18730000Y-13885000D02*
G75*
G03*
X18730000Y-13885000I-20000J0D01*
G01*
X18730000Y-15685000D02*
G75*
G03*
X18730000Y-15685000I-20000J0D01*
G01*
X18730000Y-15885000D02*
G75*
G03*
X18730000Y-15885000I-20000J0D01*
G01*
X18730000Y-16085000D02*
G75*
G03*
X18730000Y-16085000I-20000J0D01*
G01*
X18737500Y-14955000D02*
G75*
G03*
X18737500Y-14955000I-20000J0D01*
G01*
X18737500Y-15045000D02*
G75*
G03*
X18737500Y-15045000I-20000J0D01*
G01*
X18737500Y-15135000D02*
G75*
G03*
X18737500Y-15135000I-20000J0D01*
G01*
X18737500Y-15225000D02*
G75*
G03*
X18737500Y-15225000I-20000J0D01*
G01*
X18737500Y-15315000D02*
G75*
G03*
X18737500Y-15315000I-20000J0D01*
G01*
X18797500Y-8482500D02*
G75*
G03*
X18797500Y-8482500I-20000J0D01*
G01*
X18797500Y-13255000D02*
G75*
G03*
X18797500Y-13255000I-20000J0D01*
G01*
X18807500Y-12745000D02*
G75*
G03*
X18807500Y-12745000I-20000J0D01*
G01*
X18900000Y-12432500D02*
G75*
G03*
X18900000Y-12432500I-20000J0D01*
G01*
X18930000Y-7685000D02*
G75*
G03*
X18930000Y-7685000I-20000J0D01*
G01*
X18930000Y-8485000D02*
G75*
G03*
X18930000Y-8485000I-20000J0D01*
G01*
X18930000Y-13885000D02*
G75*
G03*
X18930000Y-13885000I-20000J0D01*
G01*
X19007500Y-10215000D02*
G75*
G03*
X19007500Y-10215000I-20000J0D01*
G01*
X19017500Y-10875000D02*
G75*
G03*
X19017500Y-10875000I-20000J0D01*
G01*
X19030000Y-9015000D02*
G75*
G03*
X19030000Y-9015000I-20000J0D01*
G01*
X19087500Y-14501250D02*
G75*
G03*
X19087500Y-14501250I-20000J0D01*
G01*
X19090000Y-11565000D02*
G75*
G03*
X19090000Y-11565000I-20000J0D01*
G01*
X19125000Y-9467500D02*
G75*
G03*
X19125000Y-9467500I-20000J0D01*
G01*
X19125000Y-9647500D02*
G75*
G03*
X19125000Y-9647500I-20000J0D01*
G01*
X19130000Y-7685000D02*
G75*
G03*
X19130000Y-7685000I-20000J0D01*
G01*
X19130000Y-8485000D02*
G75*
G03*
X19130000Y-8485000I-20000J0D01*
G01*
X19135000Y-9997500D02*
G75*
G03*
X19135000Y-9997500I-20000J0D01*
G01*
X19147500Y-15075000D02*
G75*
G03*
X19147500Y-15075000I-20000J0D01*
G01*
X19147500Y-15345000D02*
G75*
G03*
X19147500Y-15345000I-20000J0D01*
G01*
X19187500Y-12745000D02*
G75*
G03*
X19187500Y-12745000I-20000J0D01*
G01*
X19187500Y-14181250D02*
G75*
G03*
X19187500Y-14181250I-20000J0D01*
G01*
X19187500Y-14291250D02*
G75*
G03*
X19187500Y-14291250I-20000J0D01*
G01*
X19187500Y-14391250D02*
G75*
G03*
X19187500Y-14391250I-20000J0D01*
G01*
X19187500Y-14501250D02*
G75*
G03*
X19187500Y-14501250I-20000J0D01*
G01*
X19217500Y-10845000D02*
G75*
G03*
X19217500Y-10845000I-20000J0D01*
G01*
X19217500Y-11495000D02*
G75*
G03*
X19217500Y-11495000I-20000J0D01*
G01*
X19247500Y-12265000D02*
G75*
G03*
X19247500Y-12265000I-20000J0D01*
G01*
X19312790Y-12122500D02*
G75*
G03*
X19312790Y-12122500I-20000J0D01*
G01*
X19330000Y-7685000D02*
G75*
G03*
X19330000Y-7685000I-20000J0D01*
G01*
X19330000Y-8485000D02*
G75*
G03*
X19330000Y-8485000I-20000J0D01*
G01*
X19330000Y-9885000D02*
G75*
G03*
X19330000Y-9885000I-20000J0D01*
G01*
X19330000Y-10085000D02*
G75*
G03*
X19330000Y-10085000I-20000J0D01*
G01*
X19347500Y-13025000D02*
G75*
G03*
X19347500Y-13025000I-20000J0D01*
G01*
X19377500Y-10845000D02*
G75*
G03*
X19377500Y-10845000I-20000J0D01*
G01*
X19380000Y-12275000D02*
G75*
G03*
X19380000Y-12275000I-20000J0D01*
G01*
X19380000Y-12425000D02*
G75*
G03*
X19380000Y-12425000I-20000J0D01*
G01*
X19387500Y-11495000D02*
G75*
G03*
X19387500Y-11495000I-20000J0D01*
G01*
X19450000Y-9415000D02*
G75*
G03*
X19450000Y-9415000I-20000J0D01*
G01*
X19480000Y-8655000D02*
G75*
G03*
X19480000Y-8655000I-20000J0D01*
G01*
X19480000Y-9805000D02*
G75*
G03*
X19480000Y-9805000I-20000J0D01*
G01*
X19490000Y-9015000D02*
G75*
G03*
X19490000Y-9015000I-20000J0D01*
G01*
X19507500Y-10215000D02*
G75*
G03*
X19507500Y-10215000I-20000J0D01*
G01*
X19507500Y-10385000D02*
G75*
G03*
X19507500Y-10385000I-20000J0D01*
G01*
X19507500Y-10525000D02*
G75*
G03*
X19507500Y-10525000I-20000J0D01*
G01*
X19507500Y-10695000D02*
G75*
G03*
X19507500Y-10695000I-20000J0D01*
G01*
X19530000Y-7685000D02*
G75*
G03*
X19530000Y-7685000I-20000J0D01*
G01*
X19530000Y-7885000D02*
G75*
G03*
X19530000Y-7885000I-20000J0D01*
G01*
X19530000Y-8485000D02*
G75*
G03*
X19530000Y-8485000I-20000J0D01*
G01*
X19530000Y-9885000D02*
G75*
G03*
X19530000Y-9885000I-20000J0D01*
G01*
X19530000Y-10085000D02*
G75*
G03*
X19530000Y-10085000I-20000J0D01*
G01*
X19530000Y-11135000D02*
G75*
G03*
X19530000Y-11135000I-20000J0D01*
G01*
X19530000Y-11625000D02*
G75*
G03*
X19530000Y-11625000I-20000J0D01*
G01*
X19530000Y-15685000D02*
G75*
G03*
X19530000Y-15685000I-20000J0D01*
G01*
X19530000Y-15885000D02*
G75*
G03*
X19530000Y-15885000I-20000J0D01*
G01*
X19530000Y-16085000D02*
G75*
G03*
X19530000Y-16085000I-20000J0D01*
G01*
D14*
X16050000Y-11125000D02*
X16050000Y-11185000D01*
X16020000Y-11155000D02*
X16080000Y-11155000D01*
D11*
X16085000Y-11125000D02*
X16015000Y-11125000D01*
X16015000Y-11125000D02*
G75*
G03*
X16015000Y-11185000I0J-30000D01*
G01*
X16015000Y-11185000D02*
X16085000Y-11185000D01*
X16085000Y-11185000D02*
G75*
G03*
X16085000Y-11125000I0J30000D01*
G01*
D14*
X16050000Y-11960000D02*
X16050000Y-12020000D01*
X16020000Y-11990000D02*
X16080000Y-11990000D01*
D11*
X16085000Y-11960000D02*
X16015000Y-11960000D01*
X16015000Y-11960000D02*
G75*
G03*
X16015000Y-12020000I0J-30000D01*
G01*
X16015000Y-12020000D02*
X16085000Y-12020000D01*
X16085000Y-12020000D02*
G75*
G03*
X16085000Y-11960000I0J30000D01*
G01*
D15*
X16372981Y-11372981D02*
X16372981Y-11327019D01*
X16327019Y-11327019D01*
X16327019Y-11372981D01*
X16372981Y-11372981D01*
D11*
X16360000Y-11317500D02*
X16340000Y-11317500D01*
X16340000Y-11317500D02*
G75*
G03*
X16340000Y-11382500I0J-32500D01*
G01*
X16340000Y-11382500D02*
X16360000Y-11382500D01*
X16360000Y-11382500D02*
G75*
G03*
X16360000Y-11317500I0J32500D01*
G01*
D15*
X16372981Y-11817981D02*
X16372981Y-11772019D01*
X16327019Y-11772019D01*
X16327019Y-11817981D01*
X16372981Y-11817981D01*
D11*
X16360000Y-11762500D02*
X16340000Y-11762500D01*
X16340000Y-11762500D02*
G75*
G03*
X16340000Y-11827500I0J-32500D01*
G01*
X16340000Y-11827500D02*
X16360000Y-11827500D01*
X16360000Y-11827500D02*
G75*
G03*
X16360000Y-11762500I0J32500D01*
G01*
D10*
X16085000Y-13331250D02*
X16135000Y-13281250D01*
X16085000Y-13231250D01*
X16035000Y-13281250D01*
X16085000Y-13331250D01*
X16085000Y-14431250D02*
X16135000Y-14381250D01*
X16085000Y-14331250D01*
X16035000Y-14381250D01*
X16085000Y-14431250D01*
D16*
X16132500Y-14790000D02*
X16242500Y-14900000D01*
X16242500Y-14790000D02*
X16132500Y-14900000D01*
X16242500Y-14845000D02*
G75*
G03*
X16242500Y-14845000I-55000J0D01*
G01*
X16132500Y-15044000D02*
X16242500Y-15154000D01*
X16242500Y-15044000D02*
X16132500Y-15154000D01*
X16242500Y-15099000D02*
G75*
G03*
X16242500Y-15099000I-55000J0D01*
G01*
X17490500Y-15990000D02*
X17600500Y-16100000D01*
X17600500Y-15990000D02*
X17490500Y-16100000D01*
X17600500Y-16045000D02*
G75*
G03*
X17600500Y-16045000I-55000J0D01*
G01*
X17744500Y-15990000D02*
X17854500Y-16100000D01*
X17854500Y-15990000D02*
X17744500Y-16100000D01*
X17854500Y-16045000D02*
G75*
G03*
X17854500Y-16045000I-55000J0D01*
G01*
X17998500Y-15990000D02*
X18108500Y-16100000D01*
X18108500Y-15990000D02*
X17998500Y-16100000D01*
X18108500Y-16045000D02*
G75*
G03*
X18108500Y-16045000I-55000J0D01*
G01*
X18252500Y-15990000D02*
X18362500Y-16100000D01*
X18362500Y-15990000D02*
X18252500Y-16100000D01*
X18362500Y-16045000D02*
G75*
G03*
X18362500Y-16045000I-55000J0D01*
G01*
D17*
X16990000Y-13486250D02*
X17180000Y-13676250D01*
X17180000Y-13486250D02*
X16990000Y-13676250D01*
X17085000Y-13486250D02*
X17085000Y-13676250D01*
X16990000Y-13581250D02*
X17180000Y-13581250D01*
X16990000Y-13986250D02*
X17180000Y-14176250D01*
X17180000Y-13986250D02*
X16990000Y-14176250D01*
X17085000Y-13986250D02*
X17085000Y-14176250D01*
X16990000Y-14081250D02*
X17180000Y-14081250D01*
D18*
X16377500Y-7975000D02*
X16697500Y-8295000D01*
X16697500Y-7975000D02*
X16377500Y-8295000D01*
X16650638Y-8248138D02*
X16650638Y-8021862D01*
X16424362Y-8021862D01*
X16424362Y-8248138D01*
X16650638Y-8248138D01*
X16377500Y-15595000D02*
X16697500Y-15915000D01*
X16697500Y-15595000D02*
X16377500Y-15915000D01*
X16650638Y-15868138D02*
X16650638Y-15641862D01*
X16424362Y-15641862D01*
X16424362Y-15868138D01*
X16650638Y-15868138D01*
X18917500Y-7975000D02*
X19237500Y-8295000D01*
X19237500Y-7975000D02*
X18917500Y-8295000D01*
X19190638Y-8248138D02*
X19190638Y-8021862D01*
X18964362Y-8021862D01*
X18964362Y-8248138D01*
X19190638Y-8248138D01*
X18917500Y-15595000D02*
X19237500Y-15915000D01*
X19237500Y-15595000D02*
X18917500Y-15915000D01*
X19190638Y-15868138D02*
X19190638Y-15641862D01*
X18964362Y-15641862D01*
X18964362Y-15868138D01*
X19190638Y-15868138D01*
D11*
X16165777Y-16701484D02*
X16165777Y-16501484D01*
X16165777Y-16501484D02*
X16213396Y-16501484D01*
X16213396Y-16501484D02*
X16241967Y-16511008D01*
X16241967Y-16511008D02*
X16261015Y-16530055D01*
X16261015Y-16530055D02*
X16270539Y-16549103D01*
X16270539Y-16549103D02*
X16280062Y-16587198D01*
X16280062Y-16587198D02*
X16280062Y-16615769D01*
X16280062Y-16615769D02*
X16270539Y-16653865D01*
X16270539Y-16653865D02*
X16261015Y-16672912D01*
X16261015Y-16672912D02*
X16241967Y-16691960D01*
X16241967Y-16691960D02*
X16213396Y-16701484D01*
X16213396Y-16701484D02*
X16165777Y-16701484D01*
X16365777Y-16701484D02*
X16365777Y-16568150D01*
X16365777Y-16606246D02*
X16375301Y-16587198D01*
X16375301Y-16587198D02*
X16384824Y-16577674D01*
X16384824Y-16577674D02*
X16403872Y-16568150D01*
X16403872Y-16568150D02*
X16422920Y-16568150D01*
X16489586Y-16701484D02*
X16489586Y-16568150D01*
X16489586Y-16501484D02*
X16480062Y-16511008D01*
X16480062Y-16511008D02*
X16489586Y-16520531D01*
X16489586Y-16520531D02*
X16499110Y-16511008D01*
X16499110Y-16511008D02*
X16489586Y-16501484D01*
X16489586Y-16501484D02*
X16489586Y-16520531D01*
X16613396Y-16701484D02*
X16594348Y-16691960D01*
X16594348Y-16691960D02*
X16584824Y-16672912D01*
X16584824Y-16672912D02*
X16584824Y-16501484D01*
X16718158Y-16701484D02*
X16699110Y-16691960D01*
X16699110Y-16691960D02*
X16689586Y-16672912D01*
X16689586Y-16672912D02*
X16689586Y-16501484D01*
X16946729Y-16701484D02*
X16946729Y-16501484D01*
X16946729Y-16501484D02*
X17013396Y-16644341D01*
X17013396Y-16644341D02*
X17080063Y-16501484D01*
X17080063Y-16501484D02*
X17080063Y-16701484D01*
X17261015Y-16701484D02*
X17261015Y-16596722D01*
X17261015Y-16596722D02*
X17251491Y-16577674D01*
X17251491Y-16577674D02*
X17232444Y-16568150D01*
X17232444Y-16568150D02*
X17194348Y-16568150D01*
X17194348Y-16568150D02*
X17175301Y-16577674D01*
X17261015Y-16691960D02*
X17241967Y-16701484D01*
X17241967Y-16701484D02*
X17194348Y-16701484D01*
X17194348Y-16701484D02*
X17175301Y-16691960D01*
X17175301Y-16691960D02*
X17165777Y-16672912D01*
X17165777Y-16672912D02*
X17165777Y-16653865D01*
X17165777Y-16653865D02*
X17175301Y-16634817D01*
X17175301Y-16634817D02*
X17194348Y-16625293D01*
X17194348Y-16625293D02*
X17241967Y-16625293D01*
X17241967Y-16625293D02*
X17261015Y-16615769D01*
X17356253Y-16568150D02*
X17356253Y-16768150D01*
X17356253Y-16577674D02*
X17375301Y-16568150D01*
X17375301Y-16568150D02*
X17413396Y-16568150D01*
X17413396Y-16568150D02*
X17432444Y-16577674D01*
X17432444Y-16577674D02*
X17441967Y-16587198D01*
X17441967Y-16587198D02*
X17451491Y-16606246D01*
X17451491Y-16606246D02*
X17451491Y-16663388D01*
X17451491Y-16663388D02*
X17441967Y-16682436D01*
X17441967Y-16682436D02*
X17432444Y-16691960D01*
X17432444Y-16691960D02*
X17413396Y-16701484D01*
X17413396Y-16701484D02*
X17375301Y-16701484D01*
X17375301Y-16701484D02*
X17356253Y-16691960D01*
X17537205Y-16682436D02*
X17546729Y-16691960D01*
X17546729Y-16691960D02*
X17537205Y-16701484D01*
X17537205Y-16701484D02*
X17527682Y-16691960D01*
X17527682Y-16691960D02*
X17537205Y-16682436D01*
X17537205Y-16682436D02*
X17537205Y-16701484D01*
X17537205Y-16577674D02*
X17546729Y-16587198D01*
X17546729Y-16587198D02*
X17537205Y-16596722D01*
X17537205Y-16596722D02*
X17527682Y-16587198D01*
X17527682Y-16587198D02*
X17537205Y-16577674D01*
X17537205Y-16577674D02*
X17537205Y-16596722D01*
D12*
X15875000Y-17015000D02*
X15905000Y-17045000D01*
X15905000Y-17015000D02*
X15875000Y-17045000D01*
D11*
X16203872Y-16921484D02*
X16222920Y-16921484D01*
X16222920Y-16921484D02*
X16241967Y-16931008D01*
X16241967Y-16931008D02*
X16251491Y-16940531D01*
X16251491Y-16940531D02*
X16261015Y-16959579D01*
X16261015Y-16959579D02*
X16270539Y-16997674D01*
X16270539Y-16997674D02*
X16270539Y-17045293D01*
X16270539Y-17045293D02*
X16261015Y-17083389D01*
X16261015Y-17083389D02*
X16251491Y-17102436D01*
X16251491Y-17102436D02*
X16241967Y-17111960D01*
X16241967Y-17111960D02*
X16222920Y-17121484D01*
X16222920Y-17121484D02*
X16203872Y-17121484D01*
X16203872Y-17121484D02*
X16184824Y-17111960D01*
X16184824Y-17111960D02*
X16175301Y-17102436D01*
X16175301Y-17102436D02*
X16165777Y-17083389D01*
X16165777Y-17083389D02*
X16156253Y-17045293D01*
X16156253Y-17045293D02*
X16156253Y-16997674D01*
X16156253Y-16997674D02*
X16165777Y-16959579D01*
X16165777Y-16959579D02*
X16175301Y-16940531D01*
X16175301Y-16940531D02*
X16184824Y-16931008D01*
X16184824Y-16931008D02*
X16203872Y-16921484D01*
X16356253Y-17102436D02*
X16365777Y-17111960D01*
X16365777Y-17111960D02*
X16356253Y-17121484D01*
X16356253Y-17121484D02*
X16346729Y-17111960D01*
X16346729Y-17111960D02*
X16356253Y-17102436D01*
X16356253Y-17102436D02*
X16356253Y-17121484D01*
X16432443Y-16921484D02*
X16556253Y-16921484D01*
X16556253Y-16921484D02*
X16489586Y-16997674D01*
X16489586Y-16997674D02*
X16518158Y-16997674D01*
X16518158Y-16997674D02*
X16537205Y-17007198D01*
X16537205Y-17007198D02*
X16546729Y-17016722D01*
X16546729Y-17016722D02*
X16556253Y-17035770D01*
X16556253Y-17035770D02*
X16556253Y-17083389D01*
X16556253Y-17083389D02*
X16546729Y-17102436D01*
X16546729Y-17102436D02*
X16537205Y-17111960D01*
X16537205Y-17111960D02*
X16518158Y-17121484D01*
X16518158Y-17121484D02*
X16461015Y-17121484D01*
X16461015Y-17121484D02*
X16441967Y-17111960D01*
X16441967Y-17111960D02*
X16432443Y-17102436D01*
X16680062Y-16921484D02*
X16699110Y-16921484D01*
X16699110Y-16921484D02*
X16718158Y-16931008D01*
X16718158Y-16931008D02*
X16727682Y-16940531D01*
X16727682Y-16940531D02*
X16737205Y-16959579D01*
X16737205Y-16959579D02*
X16746729Y-16997674D01*
X16746729Y-16997674D02*
X16746729Y-17045293D01*
X16746729Y-17045293D02*
X16737205Y-17083389D01*
X16737205Y-17083389D02*
X16727682Y-17102436D01*
X16727682Y-17102436D02*
X16718158Y-17111960D01*
X16718158Y-17111960D02*
X16699110Y-17121484D01*
X16699110Y-17121484D02*
X16680062Y-17121484D01*
X16680062Y-17121484D02*
X16661015Y-17111960D01*
X16661015Y-17111960D02*
X16651491Y-17102436D01*
X16651491Y-17102436D02*
X16641967Y-17083389D01*
X16641967Y-17083389D02*
X16632443Y-17045293D01*
X16632443Y-17045293D02*
X16632443Y-16997674D01*
X16632443Y-16997674D02*
X16641967Y-16959579D01*
X16641967Y-16959579D02*
X16651491Y-16940531D01*
X16651491Y-16940531D02*
X16661015Y-16931008D01*
X16661015Y-16931008D02*
X16680062Y-16921484D01*
X16870539Y-16921484D02*
X16889586Y-16921484D01*
X16889586Y-16921484D02*
X16908634Y-16931008D01*
X16908634Y-16931008D02*
X16918158Y-16940531D01*
X16918158Y-16940531D02*
X16927682Y-16959579D01*
X16927682Y-16959579D02*
X16937205Y-16997674D01*
X16937205Y-16997674D02*
X16937205Y-17045293D01*
X16937205Y-17045293D02*
X16927682Y-17083389D01*
X16927682Y-17083389D02*
X16918158Y-17102436D01*
X16918158Y-17102436D02*
X16908634Y-17111960D01*
X16908634Y-17111960D02*
X16889586Y-17121484D01*
X16889586Y-17121484D02*
X16870539Y-17121484D01*
X16870539Y-17121484D02*
X16851491Y-17111960D01*
X16851491Y-17111960D02*
X16841967Y-17102436D01*
X16841967Y-17102436D02*
X16832444Y-17083389D01*
X16832444Y-17083389D02*
X16822920Y-17045293D01*
X16822920Y-17045293D02*
X16822920Y-16997674D01*
X16822920Y-16997674D02*
X16832444Y-16959579D01*
X16832444Y-16959579D02*
X16841967Y-16940531D01*
X16841967Y-16940531D02*
X16851491Y-16931008D01*
X16851491Y-16931008D02*
X16870539Y-16921484D01*
X17022920Y-17121484D02*
X17022920Y-16988150D01*
X17022920Y-17007198D02*
X17032444Y-16997674D01*
X17032444Y-16997674D02*
X17051491Y-16988150D01*
X17051491Y-16988150D02*
X17080063Y-16988150D01*
X17080063Y-16988150D02*
X17099110Y-16997674D01*
X17099110Y-16997674D02*
X17108634Y-17016722D01*
X17108634Y-17016722D02*
X17108634Y-17121484D01*
X17108634Y-17016722D02*
X17118158Y-16997674D01*
X17118158Y-16997674D02*
X17137205Y-16988150D01*
X17137205Y-16988150D02*
X17165777Y-16988150D01*
X17165777Y-16988150D02*
X17184825Y-16997674D01*
X17184825Y-16997674D02*
X17194348Y-17016722D01*
X17194348Y-17016722D02*
X17194348Y-17121484D01*
X17289586Y-17121484D02*
X17289586Y-16988150D01*
X17289586Y-17007198D02*
X17299110Y-16997674D01*
X17299110Y-16997674D02*
X17318158Y-16988150D01*
X17318158Y-16988150D02*
X17346729Y-16988150D01*
X17346729Y-16988150D02*
X17365777Y-16997674D01*
X17365777Y-16997674D02*
X17375301Y-17016722D01*
X17375301Y-17016722D02*
X17375301Y-17121484D01*
X17375301Y-17016722D02*
X17384825Y-16997674D01*
X17384825Y-16997674D02*
X17403872Y-16988150D01*
X17403872Y-16988150D02*
X17432444Y-16988150D01*
X17432444Y-16988150D02*
X17451491Y-16997674D01*
X17451491Y-16997674D02*
X17461015Y-17016722D01*
X17461015Y-17016722D02*
X17461015Y-17121484D01*
X17851491Y-16911960D02*
X17680063Y-17169103D01*
X18108634Y-16921484D02*
X18127682Y-16921484D01*
X18127682Y-16921484D02*
X18146729Y-16931008D01*
X18146729Y-16931008D02*
X18156253Y-16940531D01*
X18156253Y-16940531D02*
X18165777Y-16959579D01*
X18165777Y-16959579D02*
X18175301Y-16997674D01*
X18175301Y-16997674D02*
X18175301Y-17045293D01*
X18175301Y-17045293D02*
X18165777Y-17083389D01*
X18165777Y-17083389D02*
X18156253Y-17102436D01*
X18156253Y-17102436D02*
X18146729Y-17111960D01*
X18146729Y-17111960D02*
X18127682Y-17121484D01*
X18127682Y-17121484D02*
X18108634Y-17121484D01*
X18108634Y-17121484D02*
X18089587Y-17111960D01*
X18089587Y-17111960D02*
X18080063Y-17102436D01*
X18080063Y-17102436D02*
X18070539Y-17083389D01*
X18070539Y-17083389D02*
X18061015Y-17045293D01*
X18061015Y-17045293D02*
X18061015Y-16997674D01*
X18061015Y-16997674D02*
X18070539Y-16959579D01*
X18070539Y-16959579D02*
X18080063Y-16940531D01*
X18080063Y-16940531D02*
X18089587Y-16931008D01*
X18089587Y-16931008D02*
X18108634Y-16921484D01*
X18261015Y-17102436D02*
X18270539Y-17111960D01*
X18270539Y-17111960D02*
X18261015Y-17121484D01*
X18261015Y-17121484D02*
X18251491Y-17111960D01*
X18251491Y-17111960D02*
X18261015Y-17102436D01*
X18261015Y-17102436D02*
X18261015Y-17121484D01*
X18394348Y-16921484D02*
X18413396Y-16921484D01*
X18413396Y-16921484D02*
X18432444Y-16931008D01*
X18432444Y-16931008D02*
X18441968Y-16940531D01*
X18441968Y-16940531D02*
X18451491Y-16959579D01*
X18451491Y-16959579D02*
X18461015Y-16997674D01*
X18461015Y-16997674D02*
X18461015Y-17045293D01*
X18461015Y-17045293D02*
X18451491Y-17083389D01*
X18451491Y-17083389D02*
X18441968Y-17102436D01*
X18441968Y-17102436D02*
X18432444Y-17111960D01*
X18432444Y-17111960D02*
X18413396Y-17121484D01*
X18413396Y-17121484D02*
X18394348Y-17121484D01*
X18394348Y-17121484D02*
X18375301Y-17111960D01*
X18375301Y-17111960D02*
X18365777Y-17102436D01*
X18365777Y-17102436D02*
X18356253Y-17083389D01*
X18356253Y-17083389D02*
X18346729Y-17045293D01*
X18346729Y-17045293D02*
X18346729Y-16997674D01*
X18346729Y-16997674D02*
X18356253Y-16959579D01*
X18356253Y-16959579D02*
X18365777Y-16940531D01*
X18365777Y-16940531D02*
X18375301Y-16931008D01*
X18375301Y-16931008D02*
X18394348Y-16921484D01*
X18651491Y-17121484D02*
X18537206Y-17121484D01*
X18594348Y-17121484D02*
X18594348Y-16921484D01*
X18594348Y-16921484D02*
X18575301Y-16950055D01*
X18575301Y-16950055D02*
X18556253Y-16969103D01*
X18556253Y-16969103D02*
X18537206Y-16978627D01*
X18841968Y-17121484D02*
X18727682Y-17121484D01*
X18784825Y-17121484D02*
X18784825Y-16921484D01*
X18784825Y-16921484D02*
X18765777Y-16950055D01*
X18765777Y-16950055D02*
X18746729Y-16969103D01*
X18746729Y-16969103D02*
X18727682Y-16978627D01*
X18956253Y-17007198D02*
X18937206Y-16997674D01*
X18937206Y-16997674D02*
X18927682Y-16988150D01*
X18927682Y-16988150D02*
X18918158Y-16969103D01*
X18918158Y-16969103D02*
X18918158Y-16959579D01*
X18918158Y-16959579D02*
X18927682Y-16940531D01*
X18927682Y-16940531D02*
X18937206Y-16931008D01*
X18937206Y-16931008D02*
X18956253Y-16921484D01*
X18956253Y-16921484D02*
X18994349Y-16921484D01*
X18994349Y-16921484D02*
X19013396Y-16931008D01*
X19013396Y-16931008D02*
X19022920Y-16940531D01*
X19022920Y-16940531D02*
X19032444Y-16959579D01*
X19032444Y-16959579D02*
X19032444Y-16969103D01*
X19032444Y-16969103D02*
X19022920Y-16988150D01*
X19022920Y-16988150D02*
X19013396Y-16997674D01*
X19013396Y-16997674D02*
X18994349Y-17007198D01*
X18994349Y-17007198D02*
X18956253Y-17007198D01*
X18956253Y-17007198D02*
X18937206Y-17016722D01*
X18937206Y-17016722D02*
X18927682Y-17026246D01*
X18927682Y-17026246D02*
X18918158Y-17045293D01*
X18918158Y-17045293D02*
X18918158Y-17083389D01*
X18918158Y-17083389D02*
X18927682Y-17102436D01*
X18927682Y-17102436D02*
X18937206Y-17111960D01*
X18937206Y-17111960D02*
X18956253Y-17121484D01*
X18956253Y-17121484D02*
X18994349Y-17121484D01*
X18994349Y-17121484D02*
X19013396Y-17111960D01*
X19013396Y-17111960D02*
X19022920Y-17102436D01*
X19022920Y-17102436D02*
X19032444Y-17083389D01*
X19032444Y-17083389D02*
X19032444Y-17045293D01*
X19032444Y-17045293D02*
X19022920Y-17026246D01*
X19022920Y-17026246D02*
X19013396Y-17016722D01*
X19013396Y-17016722D02*
X18994349Y-17007198D01*
X19108634Y-16921484D02*
X19108634Y-16959579D01*
X19184825Y-16921484D02*
X19184825Y-16959579D01*
X19480063Y-17197674D02*
X19470539Y-17188150D01*
X19470539Y-17188150D02*
X19451491Y-17159579D01*
X19451491Y-17159579D02*
X19441968Y-17140531D01*
X19441968Y-17140531D02*
X19432444Y-17111960D01*
X19432444Y-17111960D02*
X19422920Y-17064341D01*
X19422920Y-17064341D02*
X19422920Y-17026246D01*
X19422920Y-17026246D02*
X19432444Y-16978627D01*
X19432444Y-16978627D02*
X19441968Y-16950055D01*
X19441968Y-16950055D02*
X19451491Y-16931008D01*
X19451491Y-16931008D02*
X19470539Y-16902436D01*
X19470539Y-16902436D02*
X19480063Y-16892912D01*
X19641968Y-16988150D02*
X19641968Y-17121484D01*
X19594349Y-16911960D02*
X19546730Y-17054817D01*
X19546730Y-17054817D02*
X19670539Y-17054817D01*
X19851491Y-17121484D02*
X19737206Y-17121484D01*
X19794349Y-17121484D02*
X19794349Y-16921484D01*
X19794349Y-16921484D02*
X19775301Y-16950055D01*
X19775301Y-16950055D02*
X19756253Y-16969103D01*
X19756253Y-16969103D02*
X19737206Y-16978627D01*
X20089587Y-17121484D02*
X20089587Y-16921484D01*
X20175301Y-17121484D02*
X20175301Y-17016722D01*
X20175301Y-17016722D02*
X20165777Y-16997674D01*
X20165777Y-16997674D02*
X20146730Y-16988150D01*
X20146730Y-16988150D02*
X20118158Y-16988150D01*
X20118158Y-16988150D02*
X20099111Y-16997674D01*
X20099111Y-16997674D02*
X20089587Y-17007198D01*
X20299111Y-17121484D02*
X20280063Y-17111960D01*
X20280063Y-17111960D02*
X20270539Y-17102436D01*
X20270539Y-17102436D02*
X20261015Y-17083389D01*
X20261015Y-17083389D02*
X20261015Y-17026246D01*
X20261015Y-17026246D02*
X20270539Y-17007198D01*
X20270539Y-17007198D02*
X20280063Y-16997674D01*
X20280063Y-16997674D02*
X20299111Y-16988150D01*
X20299111Y-16988150D02*
X20327682Y-16988150D01*
X20327682Y-16988150D02*
X20346730Y-16997674D01*
X20346730Y-16997674D02*
X20356253Y-17007198D01*
X20356253Y-17007198D02*
X20365777Y-17026246D01*
X20365777Y-17026246D02*
X20365777Y-17083389D01*
X20365777Y-17083389D02*
X20356253Y-17102436D01*
X20356253Y-17102436D02*
X20346730Y-17111960D01*
X20346730Y-17111960D02*
X20327682Y-17121484D01*
X20327682Y-17121484D02*
X20299111Y-17121484D01*
X20480063Y-17121484D02*
X20461015Y-17111960D01*
X20461015Y-17111960D02*
X20451492Y-17092912D01*
X20451492Y-17092912D02*
X20451492Y-16921484D01*
X20632444Y-17111960D02*
X20613396Y-17121484D01*
X20613396Y-17121484D02*
X20575301Y-17121484D01*
X20575301Y-17121484D02*
X20556253Y-17111960D01*
X20556253Y-17111960D02*
X20546730Y-17092912D01*
X20546730Y-17092912D02*
X20546730Y-17016722D01*
X20546730Y-17016722D02*
X20556253Y-16997674D01*
X20556253Y-16997674D02*
X20575301Y-16988150D01*
X20575301Y-16988150D02*
X20613396Y-16988150D01*
X20613396Y-16988150D02*
X20632444Y-16997674D01*
X20632444Y-16997674D02*
X20641968Y-17016722D01*
X20641968Y-17016722D02*
X20641968Y-17035770D01*
X20641968Y-17035770D02*
X20546730Y-17054817D01*
X20718158Y-17111960D02*
X20737206Y-17121484D01*
X20737206Y-17121484D02*
X20775301Y-17121484D01*
X20775301Y-17121484D02*
X20794349Y-17111960D01*
X20794349Y-17111960D02*
X20803873Y-17092912D01*
X20803873Y-17092912D02*
X20803873Y-17083389D01*
X20803873Y-17083389D02*
X20794349Y-17064341D01*
X20794349Y-17064341D02*
X20775301Y-17054817D01*
X20775301Y-17054817D02*
X20746730Y-17054817D01*
X20746730Y-17054817D02*
X20727682Y-17045293D01*
X20727682Y-17045293D02*
X20718158Y-17026246D01*
X20718158Y-17026246D02*
X20718158Y-17016722D01*
X20718158Y-17016722D02*
X20727682Y-16997674D01*
X20727682Y-16997674D02*
X20746730Y-16988150D01*
X20746730Y-16988150D02*
X20775301Y-16988150D01*
X20775301Y-16988150D02*
X20794349Y-16997674D01*
X20870539Y-17197674D02*
X20880063Y-17188150D01*
X20880063Y-17188150D02*
X20899111Y-17159579D01*
X20899111Y-17159579D02*
X20908634Y-17140531D01*
X20908634Y-17140531D02*
X20918158Y-17111960D01*
X20918158Y-17111960D02*
X20927682Y-17064341D01*
X20927682Y-17064341D02*
X20927682Y-17026246D01*
X20927682Y-17026246D02*
X20918158Y-16978627D01*
X20918158Y-16978627D02*
X20908634Y-16950055D01*
X20908634Y-16950055D02*
X20899111Y-16931008D01*
X20899111Y-16931008D02*
X20880063Y-16902436D01*
X20880063Y-16902436D02*
X20870539Y-16892912D01*
D13*
X15905000Y-17294000D02*
G75*
G03*
X15905000Y-17294000I-20000J0D01*
G01*
D11*
X16203872Y-17185484D02*
X16222920Y-17185484D01*
X16222920Y-17185484D02*
X16241967Y-17195008D01*
X16241967Y-17195008D02*
X16251491Y-17204531D01*
X16251491Y-17204531D02*
X16261015Y-17223579D01*
X16261015Y-17223579D02*
X16270539Y-17261674D01*
X16270539Y-17261674D02*
X16270539Y-17309293D01*
X16270539Y-17309293D02*
X16261015Y-17347389D01*
X16261015Y-17347389D02*
X16251491Y-17366436D01*
X16251491Y-17366436D02*
X16241967Y-17375960D01*
X16241967Y-17375960D02*
X16222920Y-17385484D01*
X16222920Y-17385484D02*
X16203872Y-17385484D01*
X16203872Y-17385484D02*
X16184824Y-17375960D01*
X16184824Y-17375960D02*
X16175301Y-17366436D01*
X16175301Y-17366436D02*
X16165777Y-17347389D01*
X16165777Y-17347389D02*
X16156253Y-17309293D01*
X16156253Y-17309293D02*
X16156253Y-17261674D01*
X16156253Y-17261674D02*
X16165777Y-17223579D01*
X16165777Y-17223579D02*
X16175301Y-17204531D01*
X16175301Y-17204531D02*
X16184824Y-17195008D01*
X16184824Y-17195008D02*
X16203872Y-17185484D01*
X16356253Y-17366436D02*
X16365777Y-17375960D01*
X16365777Y-17375960D02*
X16356253Y-17385484D01*
X16356253Y-17385484D02*
X16346729Y-17375960D01*
X16346729Y-17375960D02*
X16356253Y-17366436D01*
X16356253Y-17366436D02*
X16356253Y-17385484D01*
X16537205Y-17252150D02*
X16537205Y-17385484D01*
X16489586Y-17175960D02*
X16441967Y-17318817D01*
X16441967Y-17318817D02*
X16565777Y-17318817D01*
X16680062Y-17185484D02*
X16699110Y-17185484D01*
X16699110Y-17185484D02*
X16718158Y-17195008D01*
X16718158Y-17195008D02*
X16727682Y-17204531D01*
X16727682Y-17204531D02*
X16737205Y-17223579D01*
X16737205Y-17223579D02*
X16746729Y-17261674D01*
X16746729Y-17261674D02*
X16746729Y-17309293D01*
X16746729Y-17309293D02*
X16737205Y-17347389D01*
X16737205Y-17347389D02*
X16727682Y-17366436D01*
X16727682Y-17366436D02*
X16718158Y-17375960D01*
X16718158Y-17375960D02*
X16699110Y-17385484D01*
X16699110Y-17385484D02*
X16680062Y-17385484D01*
X16680062Y-17385484D02*
X16661015Y-17375960D01*
X16661015Y-17375960D02*
X16651491Y-17366436D01*
X16651491Y-17366436D02*
X16641967Y-17347389D01*
X16641967Y-17347389D02*
X16632443Y-17309293D01*
X16632443Y-17309293D02*
X16632443Y-17261674D01*
X16632443Y-17261674D02*
X16641967Y-17223579D01*
X16641967Y-17223579D02*
X16651491Y-17204531D01*
X16651491Y-17204531D02*
X16661015Y-17195008D01*
X16661015Y-17195008D02*
X16680062Y-17185484D01*
X16870539Y-17185484D02*
X16889586Y-17185484D01*
X16889586Y-17185484D02*
X16908634Y-17195008D01*
X16908634Y-17195008D02*
X16918158Y-17204531D01*
X16918158Y-17204531D02*
X16927682Y-17223579D01*
X16927682Y-17223579D02*
X16937205Y-17261674D01*
X16937205Y-17261674D02*
X16937205Y-17309293D01*
X16937205Y-17309293D02*
X16927682Y-17347389D01*
X16927682Y-17347389D02*
X16918158Y-17366436D01*
X16918158Y-17366436D02*
X16908634Y-17375960D01*
X16908634Y-17375960D02*
X16889586Y-17385484D01*
X16889586Y-17385484D02*
X16870539Y-17385484D01*
X16870539Y-17385484D02*
X16851491Y-17375960D01*
X16851491Y-17375960D02*
X16841967Y-17366436D01*
X16841967Y-17366436D02*
X16832444Y-17347389D01*
X16832444Y-17347389D02*
X16822920Y-17309293D01*
X16822920Y-17309293D02*
X16822920Y-17261674D01*
X16822920Y-17261674D02*
X16832444Y-17223579D01*
X16832444Y-17223579D02*
X16841967Y-17204531D01*
X16841967Y-17204531D02*
X16851491Y-17195008D01*
X16851491Y-17195008D02*
X16870539Y-17185484D01*
X17022920Y-17385484D02*
X17022920Y-17252150D01*
X17022920Y-17271198D02*
X17032444Y-17261674D01*
X17032444Y-17261674D02*
X17051491Y-17252150D01*
X17051491Y-17252150D02*
X17080063Y-17252150D01*
X17080063Y-17252150D02*
X17099110Y-17261674D01*
X17099110Y-17261674D02*
X17108634Y-17280722D01*
X17108634Y-17280722D02*
X17108634Y-17385484D01*
X17108634Y-17280722D02*
X17118158Y-17261674D01*
X17118158Y-17261674D02*
X17137205Y-17252150D01*
X17137205Y-17252150D02*
X17165777Y-17252150D01*
X17165777Y-17252150D02*
X17184825Y-17261674D01*
X17184825Y-17261674D02*
X17194348Y-17280722D01*
X17194348Y-17280722D02*
X17194348Y-17385484D01*
X17289586Y-17385484D02*
X17289586Y-17252150D01*
X17289586Y-17271198D02*
X17299110Y-17261674D01*
X17299110Y-17261674D02*
X17318158Y-17252150D01*
X17318158Y-17252150D02*
X17346729Y-17252150D01*
X17346729Y-17252150D02*
X17365777Y-17261674D01*
X17365777Y-17261674D02*
X17375301Y-17280722D01*
X17375301Y-17280722D02*
X17375301Y-17385484D01*
X17375301Y-17280722D02*
X17384825Y-17261674D01*
X17384825Y-17261674D02*
X17403872Y-17252150D01*
X17403872Y-17252150D02*
X17432444Y-17252150D01*
X17432444Y-17252150D02*
X17451491Y-17261674D01*
X17451491Y-17261674D02*
X17461015Y-17280722D01*
X17461015Y-17280722D02*
X17461015Y-17385484D01*
X17851491Y-17175960D02*
X17680063Y-17433103D01*
X18108634Y-17185484D02*
X18127682Y-17185484D01*
X18127682Y-17185484D02*
X18146729Y-17195008D01*
X18146729Y-17195008D02*
X18156253Y-17204531D01*
X18156253Y-17204531D02*
X18165777Y-17223579D01*
X18165777Y-17223579D02*
X18175301Y-17261674D01*
X18175301Y-17261674D02*
X18175301Y-17309293D01*
X18175301Y-17309293D02*
X18165777Y-17347389D01*
X18165777Y-17347389D02*
X18156253Y-17366436D01*
X18156253Y-17366436D02*
X18146729Y-17375960D01*
X18146729Y-17375960D02*
X18127682Y-17385484D01*
X18127682Y-17385484D02*
X18108634Y-17385484D01*
X18108634Y-17385484D02*
X18089587Y-17375960D01*
X18089587Y-17375960D02*
X18080063Y-17366436D01*
X18080063Y-17366436D02*
X18070539Y-17347389D01*
X18070539Y-17347389D02*
X18061015Y-17309293D01*
X18061015Y-17309293D02*
X18061015Y-17261674D01*
X18061015Y-17261674D02*
X18070539Y-17223579D01*
X18070539Y-17223579D02*
X18080063Y-17204531D01*
X18080063Y-17204531D02*
X18089587Y-17195008D01*
X18089587Y-17195008D02*
X18108634Y-17185484D01*
X18261015Y-17366436D02*
X18270539Y-17375960D01*
X18270539Y-17375960D02*
X18261015Y-17385484D01*
X18261015Y-17385484D02*
X18251491Y-17375960D01*
X18251491Y-17375960D02*
X18261015Y-17366436D01*
X18261015Y-17366436D02*
X18261015Y-17385484D01*
X18394348Y-17185484D02*
X18413396Y-17185484D01*
X18413396Y-17185484D02*
X18432444Y-17195008D01*
X18432444Y-17195008D02*
X18441968Y-17204531D01*
X18441968Y-17204531D02*
X18451491Y-17223579D01*
X18451491Y-17223579D02*
X18461015Y-17261674D01*
X18461015Y-17261674D02*
X18461015Y-17309293D01*
X18461015Y-17309293D02*
X18451491Y-17347389D01*
X18451491Y-17347389D02*
X18441968Y-17366436D01*
X18441968Y-17366436D02*
X18432444Y-17375960D01*
X18432444Y-17375960D02*
X18413396Y-17385484D01*
X18413396Y-17385484D02*
X18394348Y-17385484D01*
X18394348Y-17385484D02*
X18375301Y-17375960D01*
X18375301Y-17375960D02*
X18365777Y-17366436D01*
X18365777Y-17366436D02*
X18356253Y-17347389D01*
X18356253Y-17347389D02*
X18346729Y-17309293D01*
X18346729Y-17309293D02*
X18346729Y-17261674D01*
X18346729Y-17261674D02*
X18356253Y-17223579D01*
X18356253Y-17223579D02*
X18365777Y-17204531D01*
X18365777Y-17204531D02*
X18375301Y-17195008D01*
X18375301Y-17195008D02*
X18394348Y-17185484D01*
X18651491Y-17385484D02*
X18537206Y-17385484D01*
X18594348Y-17385484D02*
X18594348Y-17185484D01*
X18594348Y-17185484D02*
X18575301Y-17214055D01*
X18575301Y-17214055D02*
X18556253Y-17233103D01*
X18556253Y-17233103D02*
X18537206Y-17242627D01*
X18832444Y-17185484D02*
X18737206Y-17185484D01*
X18737206Y-17185484D02*
X18727682Y-17280722D01*
X18727682Y-17280722D02*
X18737206Y-17271198D01*
X18737206Y-17271198D02*
X18756253Y-17261674D01*
X18756253Y-17261674D02*
X18803872Y-17261674D01*
X18803872Y-17261674D02*
X18822920Y-17271198D01*
X18822920Y-17271198D02*
X18832444Y-17280722D01*
X18832444Y-17280722D02*
X18841968Y-17299770D01*
X18841968Y-17299770D02*
X18841968Y-17347389D01*
X18841968Y-17347389D02*
X18832444Y-17366436D01*
X18832444Y-17366436D02*
X18822920Y-17375960D01*
X18822920Y-17375960D02*
X18803872Y-17385484D01*
X18803872Y-17385484D02*
X18756253Y-17385484D01*
X18756253Y-17385484D02*
X18737206Y-17375960D01*
X18737206Y-17375960D02*
X18727682Y-17366436D01*
X18908634Y-17185484D02*
X19041968Y-17185484D01*
X19041968Y-17185484D02*
X18956253Y-17385484D01*
X19108634Y-17185484D02*
X19108634Y-17223579D01*
X19184825Y-17185484D02*
X19184825Y-17223579D01*
X19480063Y-17461674D02*
X19470539Y-17452150D01*
X19470539Y-17452150D02*
X19451491Y-17423579D01*
X19451491Y-17423579D02*
X19441968Y-17404531D01*
X19441968Y-17404531D02*
X19432444Y-17375960D01*
X19432444Y-17375960D02*
X19422920Y-17328341D01*
X19422920Y-17328341D02*
X19422920Y-17290246D01*
X19422920Y-17290246D02*
X19432444Y-17242627D01*
X19432444Y-17242627D02*
X19441968Y-17214055D01*
X19441968Y-17214055D02*
X19451491Y-17195008D01*
X19451491Y-17195008D02*
X19470539Y-17166436D01*
X19470539Y-17166436D02*
X19480063Y-17156912D01*
X19546730Y-17204531D02*
X19556253Y-17195008D01*
X19556253Y-17195008D02*
X19575301Y-17185484D01*
X19575301Y-17185484D02*
X19622920Y-17185484D01*
X19622920Y-17185484D02*
X19641968Y-17195008D01*
X19641968Y-17195008D02*
X19651491Y-17204531D01*
X19651491Y-17204531D02*
X19661015Y-17223579D01*
X19661015Y-17223579D02*
X19661015Y-17242627D01*
X19661015Y-17242627D02*
X19651491Y-17271198D01*
X19651491Y-17271198D02*
X19537206Y-17385484D01*
X19537206Y-17385484D02*
X19661015Y-17385484D01*
X19784825Y-17185484D02*
X19803872Y-17185484D01*
X19803872Y-17185484D02*
X19822920Y-17195008D01*
X19822920Y-17195008D02*
X19832444Y-17204531D01*
X19832444Y-17204531D02*
X19841968Y-17223579D01*
X19841968Y-17223579D02*
X19851491Y-17261674D01*
X19851491Y-17261674D02*
X19851491Y-17309293D01*
X19851491Y-17309293D02*
X19841968Y-17347389D01*
X19841968Y-17347389D02*
X19832444Y-17366436D01*
X19832444Y-17366436D02*
X19822920Y-17375960D01*
X19822920Y-17375960D02*
X19803872Y-17385484D01*
X19803872Y-17385484D02*
X19784825Y-17385484D01*
X19784825Y-17385484D02*
X19765777Y-17375960D01*
X19765777Y-17375960D02*
X19756253Y-17366436D01*
X19756253Y-17366436D02*
X19746730Y-17347389D01*
X19746730Y-17347389D02*
X19737206Y-17309293D01*
X19737206Y-17309293D02*
X19737206Y-17261674D01*
X19737206Y-17261674D02*
X19746730Y-17223579D01*
X19746730Y-17223579D02*
X19756253Y-17204531D01*
X19756253Y-17204531D02*
X19765777Y-17195008D01*
X19765777Y-17195008D02*
X19784825Y-17185484D01*
X20022920Y-17252150D02*
X20022920Y-17385484D01*
X19975301Y-17175960D02*
X19927682Y-17318817D01*
X19927682Y-17318817D02*
X20051491Y-17318817D01*
X20280063Y-17385484D02*
X20280063Y-17185484D01*
X20365777Y-17385484D02*
X20365777Y-17280722D01*
X20365777Y-17280722D02*
X20356253Y-17261674D01*
X20356253Y-17261674D02*
X20337206Y-17252150D01*
X20337206Y-17252150D02*
X20308634Y-17252150D01*
X20308634Y-17252150D02*
X20289587Y-17261674D01*
X20289587Y-17261674D02*
X20280063Y-17271198D01*
X20489587Y-17385484D02*
X20470539Y-17375960D01*
X20470539Y-17375960D02*
X20461015Y-17366436D01*
X20461015Y-17366436D02*
X20451492Y-17347389D01*
X20451492Y-17347389D02*
X20451492Y-17290246D01*
X20451492Y-17290246D02*
X20461015Y-17271198D01*
X20461015Y-17271198D02*
X20470539Y-17261674D01*
X20470539Y-17261674D02*
X20489587Y-17252150D01*
X20489587Y-17252150D02*
X20518158Y-17252150D01*
X20518158Y-17252150D02*
X20537206Y-17261674D01*
X20537206Y-17261674D02*
X20546730Y-17271198D01*
X20546730Y-17271198D02*
X20556253Y-17290246D01*
X20556253Y-17290246D02*
X20556253Y-17347389D01*
X20556253Y-17347389D02*
X20546730Y-17366436D01*
X20546730Y-17366436D02*
X20537206Y-17375960D01*
X20537206Y-17375960D02*
X20518158Y-17385484D01*
X20518158Y-17385484D02*
X20489587Y-17385484D01*
X20670539Y-17385484D02*
X20651492Y-17375960D01*
X20651492Y-17375960D02*
X20641968Y-17356912D01*
X20641968Y-17356912D02*
X20641968Y-17185484D01*
X20822920Y-17375960D02*
X20803873Y-17385484D01*
X20803873Y-17385484D02*
X20765777Y-17385484D01*
X20765777Y-17385484D02*
X20746730Y-17375960D01*
X20746730Y-17375960D02*
X20737206Y-17356912D01*
X20737206Y-17356912D02*
X20737206Y-17280722D01*
X20737206Y-17280722D02*
X20746730Y-17261674D01*
X20746730Y-17261674D02*
X20765777Y-17252150D01*
X20765777Y-17252150D02*
X20803873Y-17252150D01*
X20803873Y-17252150D02*
X20822920Y-17261674D01*
X20822920Y-17261674D02*
X20832444Y-17280722D01*
X20832444Y-17280722D02*
X20832444Y-17299770D01*
X20832444Y-17299770D02*
X20737206Y-17318817D01*
X20908634Y-17375960D02*
X20927682Y-17385484D01*
X20927682Y-17385484D02*
X20965777Y-17385484D01*
X20965777Y-17385484D02*
X20984825Y-17375960D01*
X20984825Y-17375960D02*
X20994349Y-17356912D01*
X20994349Y-17356912D02*
X20994349Y-17347389D01*
X20994349Y-17347389D02*
X20984825Y-17328341D01*
X20984825Y-17328341D02*
X20965777Y-17318817D01*
X20965777Y-17318817D02*
X20937206Y-17318817D01*
X20937206Y-17318817D02*
X20918158Y-17309293D01*
X20918158Y-17309293D02*
X20908634Y-17290246D01*
X20908634Y-17290246D02*
X20908634Y-17280722D01*
X20908634Y-17280722D02*
X20918158Y-17261674D01*
X20918158Y-17261674D02*
X20937206Y-17252150D01*
X20937206Y-17252150D02*
X20965777Y-17252150D01*
X20965777Y-17252150D02*
X20984825Y-17261674D01*
X21061015Y-17461674D02*
X21070539Y-17452150D01*
X21070539Y-17452150D02*
X21089587Y-17423579D01*
X21089587Y-17423579D02*
X21099111Y-17404531D01*
X21099111Y-17404531D02*
X21108634Y-17375960D01*
X21108634Y-17375960D02*
X21118158Y-17328341D01*
X21118158Y-17328341D02*
X21118158Y-17290246D01*
X21118158Y-17290246D02*
X21108634Y-17242627D01*
X21108634Y-17242627D02*
X21099111Y-17214055D01*
X21099111Y-17214055D02*
X21089587Y-17195008D01*
X21089587Y-17195008D02*
X21070539Y-17166436D01*
X21070539Y-17166436D02*
X21061015Y-17156912D01*
D14*
X15875000Y-17528000D02*
X15875000Y-17588000D01*
X15845000Y-17558000D02*
X15905000Y-17558000D01*
D11*
X16203872Y-17449484D02*
X16222920Y-17449484D01*
X16222920Y-17449484D02*
X16241967Y-17459008D01*
X16241967Y-17459008D02*
X16251491Y-17468531D01*
X16251491Y-17468531D02*
X16261015Y-17487579D01*
X16261015Y-17487579D02*
X16270539Y-17525674D01*
X16270539Y-17525674D02*
X16270539Y-17573293D01*
X16270539Y-17573293D02*
X16261015Y-17611389D01*
X16261015Y-17611389D02*
X16251491Y-17630436D01*
X16251491Y-17630436D02*
X16241967Y-17639960D01*
X16241967Y-17639960D02*
X16222920Y-17649484D01*
X16222920Y-17649484D02*
X16203872Y-17649484D01*
X16203872Y-17649484D02*
X16184824Y-17639960D01*
X16184824Y-17639960D02*
X16175301Y-17630436D01*
X16175301Y-17630436D02*
X16165777Y-17611389D01*
X16165777Y-17611389D02*
X16156253Y-17573293D01*
X16156253Y-17573293D02*
X16156253Y-17525674D01*
X16156253Y-17525674D02*
X16165777Y-17487579D01*
X16165777Y-17487579D02*
X16175301Y-17468531D01*
X16175301Y-17468531D02*
X16184824Y-17459008D01*
X16184824Y-17459008D02*
X16203872Y-17449484D01*
X16356253Y-17630436D02*
X16365777Y-17639960D01*
X16365777Y-17639960D02*
X16356253Y-17649484D01*
X16356253Y-17649484D02*
X16346729Y-17639960D01*
X16346729Y-17639960D02*
X16356253Y-17630436D01*
X16356253Y-17630436D02*
X16356253Y-17649484D01*
X16537205Y-17449484D02*
X16499110Y-17449484D01*
X16499110Y-17449484D02*
X16480062Y-17459008D01*
X16480062Y-17459008D02*
X16470539Y-17468531D01*
X16470539Y-17468531D02*
X16451491Y-17497103D01*
X16451491Y-17497103D02*
X16441967Y-17535198D01*
X16441967Y-17535198D02*
X16441967Y-17611389D01*
X16441967Y-17611389D02*
X16451491Y-17630436D01*
X16451491Y-17630436D02*
X16461015Y-17639960D01*
X16461015Y-17639960D02*
X16480062Y-17649484D01*
X16480062Y-17649484D02*
X16518158Y-17649484D01*
X16518158Y-17649484D02*
X16537205Y-17639960D01*
X16537205Y-17639960D02*
X16546729Y-17630436D01*
X16546729Y-17630436D02*
X16556253Y-17611389D01*
X16556253Y-17611389D02*
X16556253Y-17563770D01*
X16556253Y-17563770D02*
X16546729Y-17544722D01*
X16546729Y-17544722D02*
X16537205Y-17535198D01*
X16537205Y-17535198D02*
X16518158Y-17525674D01*
X16518158Y-17525674D02*
X16480062Y-17525674D01*
X16480062Y-17525674D02*
X16461015Y-17535198D01*
X16461015Y-17535198D02*
X16451491Y-17544722D01*
X16451491Y-17544722D02*
X16441967Y-17563770D01*
X16680062Y-17449484D02*
X16699110Y-17449484D01*
X16699110Y-17449484D02*
X16718158Y-17459008D01*
X16718158Y-17459008D02*
X16727682Y-17468531D01*
X16727682Y-17468531D02*
X16737205Y-17487579D01*
X16737205Y-17487579D02*
X16746729Y-17525674D01*
X16746729Y-17525674D02*
X16746729Y-17573293D01*
X16746729Y-17573293D02*
X16737205Y-17611389D01*
X16737205Y-17611389D02*
X16727682Y-17630436D01*
X16727682Y-17630436D02*
X16718158Y-17639960D01*
X16718158Y-17639960D02*
X16699110Y-17649484D01*
X16699110Y-17649484D02*
X16680062Y-17649484D01*
X16680062Y-17649484D02*
X16661015Y-17639960D01*
X16661015Y-17639960D02*
X16651491Y-17630436D01*
X16651491Y-17630436D02*
X16641967Y-17611389D01*
X16641967Y-17611389D02*
X16632443Y-17573293D01*
X16632443Y-17573293D02*
X16632443Y-17525674D01*
X16632443Y-17525674D02*
X16641967Y-17487579D01*
X16641967Y-17487579D02*
X16651491Y-17468531D01*
X16651491Y-17468531D02*
X16661015Y-17459008D01*
X16661015Y-17459008D02*
X16680062Y-17449484D01*
X16870539Y-17449484D02*
X16889586Y-17449484D01*
X16889586Y-17449484D02*
X16908634Y-17459008D01*
X16908634Y-17459008D02*
X16918158Y-17468531D01*
X16918158Y-17468531D02*
X16927682Y-17487579D01*
X16927682Y-17487579D02*
X16937205Y-17525674D01*
X16937205Y-17525674D02*
X16937205Y-17573293D01*
X16937205Y-17573293D02*
X16927682Y-17611389D01*
X16927682Y-17611389D02*
X16918158Y-17630436D01*
X16918158Y-17630436D02*
X16908634Y-17639960D01*
X16908634Y-17639960D02*
X16889586Y-17649484D01*
X16889586Y-17649484D02*
X16870539Y-17649484D01*
X16870539Y-17649484D02*
X16851491Y-17639960D01*
X16851491Y-17639960D02*
X16841967Y-17630436D01*
X16841967Y-17630436D02*
X16832444Y-17611389D01*
X16832444Y-17611389D02*
X16822920Y-17573293D01*
X16822920Y-17573293D02*
X16822920Y-17525674D01*
X16822920Y-17525674D02*
X16832444Y-17487579D01*
X16832444Y-17487579D02*
X16841967Y-17468531D01*
X16841967Y-17468531D02*
X16851491Y-17459008D01*
X16851491Y-17459008D02*
X16870539Y-17449484D01*
X17022920Y-17649484D02*
X17022920Y-17516150D01*
X17022920Y-17535198D02*
X17032444Y-17525674D01*
X17032444Y-17525674D02*
X17051491Y-17516150D01*
X17051491Y-17516150D02*
X17080063Y-17516150D01*
X17080063Y-17516150D02*
X17099110Y-17525674D01*
X17099110Y-17525674D02*
X17108634Y-17544722D01*
X17108634Y-17544722D02*
X17108634Y-17649484D01*
X17108634Y-17544722D02*
X17118158Y-17525674D01*
X17118158Y-17525674D02*
X17137205Y-17516150D01*
X17137205Y-17516150D02*
X17165777Y-17516150D01*
X17165777Y-17516150D02*
X17184825Y-17525674D01*
X17184825Y-17525674D02*
X17194348Y-17544722D01*
X17194348Y-17544722D02*
X17194348Y-17649484D01*
X17289586Y-17649484D02*
X17289586Y-17516150D01*
X17289586Y-17535198D02*
X17299110Y-17525674D01*
X17299110Y-17525674D02*
X17318158Y-17516150D01*
X17318158Y-17516150D02*
X17346729Y-17516150D01*
X17346729Y-17516150D02*
X17365777Y-17525674D01*
X17365777Y-17525674D02*
X17375301Y-17544722D01*
X17375301Y-17544722D02*
X17375301Y-17649484D01*
X17375301Y-17544722D02*
X17384825Y-17525674D01*
X17384825Y-17525674D02*
X17403872Y-17516150D01*
X17403872Y-17516150D02*
X17432444Y-17516150D01*
X17432444Y-17516150D02*
X17451491Y-17525674D01*
X17451491Y-17525674D02*
X17461015Y-17544722D01*
X17461015Y-17544722D02*
X17461015Y-17649484D01*
X17851491Y-17439960D02*
X17680063Y-17697103D01*
X18108634Y-17449484D02*
X18127682Y-17449484D01*
X18127682Y-17449484D02*
X18146729Y-17459008D01*
X18146729Y-17459008D02*
X18156253Y-17468531D01*
X18156253Y-17468531D02*
X18165777Y-17487579D01*
X18165777Y-17487579D02*
X18175301Y-17525674D01*
X18175301Y-17525674D02*
X18175301Y-17573293D01*
X18175301Y-17573293D02*
X18165777Y-17611389D01*
X18165777Y-17611389D02*
X18156253Y-17630436D01*
X18156253Y-17630436D02*
X18146729Y-17639960D01*
X18146729Y-17639960D02*
X18127682Y-17649484D01*
X18127682Y-17649484D02*
X18108634Y-17649484D01*
X18108634Y-17649484D02*
X18089587Y-17639960D01*
X18089587Y-17639960D02*
X18080063Y-17630436D01*
X18080063Y-17630436D02*
X18070539Y-17611389D01*
X18070539Y-17611389D02*
X18061015Y-17573293D01*
X18061015Y-17573293D02*
X18061015Y-17525674D01*
X18061015Y-17525674D02*
X18070539Y-17487579D01*
X18070539Y-17487579D02*
X18080063Y-17468531D01*
X18080063Y-17468531D02*
X18089587Y-17459008D01*
X18089587Y-17459008D02*
X18108634Y-17449484D01*
X18261015Y-17630436D02*
X18270539Y-17639960D01*
X18270539Y-17639960D02*
X18261015Y-17649484D01*
X18261015Y-17649484D02*
X18251491Y-17639960D01*
X18251491Y-17639960D02*
X18261015Y-17630436D01*
X18261015Y-17630436D02*
X18261015Y-17649484D01*
X18394348Y-17449484D02*
X18413396Y-17449484D01*
X18413396Y-17449484D02*
X18432444Y-17459008D01*
X18432444Y-17459008D02*
X18441968Y-17468531D01*
X18441968Y-17468531D02*
X18451491Y-17487579D01*
X18451491Y-17487579D02*
X18461015Y-17525674D01*
X18461015Y-17525674D02*
X18461015Y-17573293D01*
X18461015Y-17573293D02*
X18451491Y-17611389D01*
X18451491Y-17611389D02*
X18441968Y-17630436D01*
X18441968Y-17630436D02*
X18432444Y-17639960D01*
X18432444Y-17639960D02*
X18413396Y-17649484D01*
X18413396Y-17649484D02*
X18394348Y-17649484D01*
X18394348Y-17649484D02*
X18375301Y-17639960D01*
X18375301Y-17639960D02*
X18365777Y-17630436D01*
X18365777Y-17630436D02*
X18356253Y-17611389D01*
X18356253Y-17611389D02*
X18346729Y-17573293D01*
X18346729Y-17573293D02*
X18346729Y-17525674D01*
X18346729Y-17525674D02*
X18356253Y-17487579D01*
X18356253Y-17487579D02*
X18365777Y-17468531D01*
X18365777Y-17468531D02*
X18375301Y-17459008D01*
X18375301Y-17459008D02*
X18394348Y-17449484D01*
X18537206Y-17468531D02*
X18546729Y-17459008D01*
X18546729Y-17459008D02*
X18565777Y-17449484D01*
X18565777Y-17449484D02*
X18613396Y-17449484D01*
X18613396Y-17449484D02*
X18632444Y-17459008D01*
X18632444Y-17459008D02*
X18641968Y-17468531D01*
X18641968Y-17468531D02*
X18651491Y-17487579D01*
X18651491Y-17487579D02*
X18651491Y-17506627D01*
X18651491Y-17506627D02*
X18641968Y-17535198D01*
X18641968Y-17535198D02*
X18527682Y-17649484D01*
X18527682Y-17649484D02*
X18651491Y-17649484D01*
X18718158Y-17449484D02*
X18841968Y-17449484D01*
X18841968Y-17449484D02*
X18775301Y-17525674D01*
X18775301Y-17525674D02*
X18803872Y-17525674D01*
X18803872Y-17525674D02*
X18822920Y-17535198D01*
X18822920Y-17535198D02*
X18832444Y-17544722D01*
X18832444Y-17544722D02*
X18841968Y-17563770D01*
X18841968Y-17563770D02*
X18841968Y-17611389D01*
X18841968Y-17611389D02*
X18832444Y-17630436D01*
X18832444Y-17630436D02*
X18822920Y-17639960D01*
X18822920Y-17639960D02*
X18803872Y-17649484D01*
X18803872Y-17649484D02*
X18746729Y-17649484D01*
X18746729Y-17649484D02*
X18727682Y-17639960D01*
X18727682Y-17639960D02*
X18718158Y-17630436D01*
X19013396Y-17449484D02*
X18975301Y-17449484D01*
X18975301Y-17449484D02*
X18956253Y-17459008D01*
X18956253Y-17459008D02*
X18946729Y-17468531D01*
X18946729Y-17468531D02*
X18927682Y-17497103D01*
X18927682Y-17497103D02*
X18918158Y-17535198D01*
X18918158Y-17535198D02*
X18918158Y-17611389D01*
X18918158Y-17611389D02*
X18927682Y-17630436D01*
X18927682Y-17630436D02*
X18937206Y-17639960D01*
X18937206Y-17639960D02*
X18956253Y-17649484D01*
X18956253Y-17649484D02*
X18994349Y-17649484D01*
X18994349Y-17649484D02*
X19013396Y-17639960D01*
X19013396Y-17639960D02*
X19022920Y-17630436D01*
X19022920Y-17630436D02*
X19032444Y-17611389D01*
X19032444Y-17611389D02*
X19032444Y-17563770D01*
X19032444Y-17563770D02*
X19022920Y-17544722D01*
X19022920Y-17544722D02*
X19013396Y-17535198D01*
X19013396Y-17535198D02*
X18994349Y-17525674D01*
X18994349Y-17525674D02*
X18956253Y-17525674D01*
X18956253Y-17525674D02*
X18937206Y-17535198D01*
X18937206Y-17535198D02*
X18927682Y-17544722D01*
X18927682Y-17544722D02*
X18918158Y-17563770D01*
X19108634Y-17449484D02*
X19108634Y-17487579D01*
X19184825Y-17449484D02*
X19184825Y-17487579D01*
X19480063Y-17725674D02*
X19470539Y-17716150D01*
X19470539Y-17716150D02*
X19451491Y-17687579D01*
X19451491Y-17687579D02*
X19441968Y-17668531D01*
X19441968Y-17668531D02*
X19432444Y-17639960D01*
X19432444Y-17639960D02*
X19422920Y-17592341D01*
X19422920Y-17592341D02*
X19422920Y-17554246D01*
X19422920Y-17554246D02*
X19432444Y-17506627D01*
X19432444Y-17506627D02*
X19441968Y-17478055D01*
X19441968Y-17478055D02*
X19451491Y-17459008D01*
X19451491Y-17459008D02*
X19470539Y-17430436D01*
X19470539Y-17430436D02*
X19480063Y-17420912D01*
X19594349Y-17449484D02*
X19613396Y-17449484D01*
X19613396Y-17449484D02*
X19632444Y-17459008D01*
X19632444Y-17459008D02*
X19641968Y-17468531D01*
X19641968Y-17468531D02*
X19651491Y-17487579D01*
X19651491Y-17487579D02*
X19661015Y-17525674D01*
X19661015Y-17525674D02*
X19661015Y-17573293D01*
X19661015Y-17573293D02*
X19651491Y-17611389D01*
X19651491Y-17611389D02*
X19641968Y-17630436D01*
X19641968Y-17630436D02*
X19632444Y-17639960D01*
X19632444Y-17639960D02*
X19613396Y-17649484D01*
X19613396Y-17649484D02*
X19594349Y-17649484D01*
X19594349Y-17649484D02*
X19575301Y-17639960D01*
X19575301Y-17639960D02*
X19565777Y-17630436D01*
X19565777Y-17630436D02*
X19556253Y-17611389D01*
X19556253Y-17611389D02*
X19546730Y-17573293D01*
X19546730Y-17573293D02*
X19546730Y-17525674D01*
X19546730Y-17525674D02*
X19556253Y-17487579D01*
X19556253Y-17487579D02*
X19565777Y-17468531D01*
X19565777Y-17468531D02*
X19575301Y-17459008D01*
X19575301Y-17459008D02*
X19594349Y-17449484D01*
X19899111Y-17649484D02*
X19899111Y-17449484D01*
X19984825Y-17649484D02*
X19984825Y-17544722D01*
X19984825Y-17544722D02*
X19975301Y-17525674D01*
X19975301Y-17525674D02*
X19956253Y-17516150D01*
X19956253Y-17516150D02*
X19927682Y-17516150D01*
X19927682Y-17516150D02*
X19908634Y-17525674D01*
X19908634Y-17525674D02*
X19899111Y-17535198D01*
X20108634Y-17649484D02*
X20089587Y-17639960D01*
X20089587Y-17639960D02*
X20080063Y-17630436D01*
X20080063Y-17630436D02*
X20070539Y-17611389D01*
X20070539Y-17611389D02*
X20070539Y-17554246D01*
X20070539Y-17554246D02*
X20080063Y-17535198D01*
X20080063Y-17535198D02*
X20089587Y-17525674D01*
X20089587Y-17525674D02*
X20108634Y-17516150D01*
X20108634Y-17516150D02*
X20137206Y-17516150D01*
X20137206Y-17516150D02*
X20156253Y-17525674D01*
X20156253Y-17525674D02*
X20165777Y-17535198D01*
X20165777Y-17535198D02*
X20175301Y-17554246D01*
X20175301Y-17554246D02*
X20175301Y-17611389D01*
X20175301Y-17611389D02*
X20165777Y-17630436D01*
X20165777Y-17630436D02*
X20156253Y-17639960D01*
X20156253Y-17639960D02*
X20137206Y-17649484D01*
X20137206Y-17649484D02*
X20108634Y-17649484D01*
X20289587Y-17649484D02*
X20270539Y-17639960D01*
X20270539Y-17639960D02*
X20261015Y-17620912D01*
X20261015Y-17620912D02*
X20261015Y-17449484D01*
X20441968Y-17639960D02*
X20422920Y-17649484D01*
X20422920Y-17649484D02*
X20384825Y-17649484D01*
X20384825Y-17649484D02*
X20365777Y-17639960D01*
X20365777Y-17639960D02*
X20356253Y-17620912D01*
X20356253Y-17620912D02*
X20356253Y-17544722D01*
X20356253Y-17544722D02*
X20365777Y-17525674D01*
X20365777Y-17525674D02*
X20384825Y-17516150D01*
X20384825Y-17516150D02*
X20422920Y-17516150D01*
X20422920Y-17516150D02*
X20441968Y-17525674D01*
X20441968Y-17525674D02*
X20451492Y-17544722D01*
X20451492Y-17544722D02*
X20451492Y-17563770D01*
X20451492Y-17563770D02*
X20356253Y-17582817D01*
X20527682Y-17639960D02*
X20546730Y-17649484D01*
X20546730Y-17649484D02*
X20584825Y-17649484D01*
X20584825Y-17649484D02*
X20603873Y-17639960D01*
X20603873Y-17639960D02*
X20613396Y-17620912D01*
X20613396Y-17620912D02*
X20613396Y-17611389D01*
X20613396Y-17611389D02*
X20603873Y-17592341D01*
X20603873Y-17592341D02*
X20584825Y-17582817D01*
X20584825Y-17582817D02*
X20556253Y-17582817D01*
X20556253Y-17582817D02*
X20537206Y-17573293D01*
X20537206Y-17573293D02*
X20527682Y-17554246D01*
X20527682Y-17554246D02*
X20527682Y-17544722D01*
X20527682Y-17544722D02*
X20537206Y-17525674D01*
X20537206Y-17525674D02*
X20556253Y-17516150D01*
X20556253Y-17516150D02*
X20584825Y-17516150D01*
X20584825Y-17516150D02*
X20603873Y-17525674D01*
X20851492Y-17573293D02*
X21003873Y-17573293D01*
X20927682Y-17649484D02*
X20927682Y-17497103D01*
X21241968Y-17468531D02*
X21251492Y-17459008D01*
X21251492Y-17459008D02*
X21270539Y-17449484D01*
X21270539Y-17449484D02*
X21318158Y-17449484D01*
X21318158Y-17449484D02*
X21337206Y-17459008D01*
X21337206Y-17459008D02*
X21346730Y-17468531D01*
X21346730Y-17468531D02*
X21356254Y-17487579D01*
X21356254Y-17487579D02*
X21356254Y-17506627D01*
X21356254Y-17506627D02*
X21346730Y-17535198D01*
X21346730Y-17535198D02*
X21232444Y-17649484D01*
X21232444Y-17649484D02*
X21356254Y-17649484D01*
X21584825Y-17639960D02*
X21603873Y-17649484D01*
X21603873Y-17649484D02*
X21641968Y-17649484D01*
X21641968Y-17649484D02*
X21661016Y-17639960D01*
X21661016Y-17639960D02*
X21670539Y-17620912D01*
X21670539Y-17620912D02*
X21670539Y-17611389D01*
X21670539Y-17611389D02*
X21661016Y-17592341D01*
X21661016Y-17592341D02*
X21641968Y-17582817D01*
X21641968Y-17582817D02*
X21613396Y-17582817D01*
X21613396Y-17582817D02*
X21594349Y-17573293D01*
X21594349Y-17573293D02*
X21584825Y-17554246D01*
X21584825Y-17554246D02*
X21584825Y-17544722D01*
X21584825Y-17544722D02*
X21594349Y-17525674D01*
X21594349Y-17525674D02*
X21613396Y-17516150D01*
X21613396Y-17516150D02*
X21641968Y-17516150D01*
X21641968Y-17516150D02*
X21661016Y-17525674D01*
X21784825Y-17649484D02*
X21765777Y-17639960D01*
X21765777Y-17639960D02*
X21756254Y-17620912D01*
X21756254Y-17620912D02*
X21756254Y-17449484D01*
X21889587Y-17649484D02*
X21870539Y-17639960D01*
X21870539Y-17639960D02*
X21861016Y-17630436D01*
X21861016Y-17630436D02*
X21851492Y-17611389D01*
X21851492Y-17611389D02*
X21851492Y-17554246D01*
X21851492Y-17554246D02*
X21861016Y-17535198D01*
X21861016Y-17535198D02*
X21870539Y-17525674D01*
X21870539Y-17525674D02*
X21889587Y-17516150D01*
X21889587Y-17516150D02*
X21918158Y-17516150D01*
X21918158Y-17516150D02*
X21937206Y-17525674D01*
X21937206Y-17525674D02*
X21946730Y-17535198D01*
X21946730Y-17535198D02*
X21956254Y-17554246D01*
X21956254Y-17554246D02*
X21956254Y-17611389D01*
X21956254Y-17611389D02*
X21946730Y-17630436D01*
X21946730Y-17630436D02*
X21937206Y-17639960D01*
X21937206Y-17639960D02*
X21918158Y-17649484D01*
X21918158Y-17649484D02*
X21889587Y-17649484D01*
X22013397Y-17516150D02*
X22089587Y-17516150D01*
X22041968Y-17449484D02*
X22041968Y-17620912D01*
X22041968Y-17620912D02*
X22051492Y-17639960D01*
X22051492Y-17639960D02*
X22070539Y-17649484D01*
X22070539Y-17649484D02*
X22089587Y-17649484D01*
X22146730Y-17639960D02*
X22165777Y-17649484D01*
X22165777Y-17649484D02*
X22203873Y-17649484D01*
X22203873Y-17649484D02*
X22222920Y-17639960D01*
X22222920Y-17639960D02*
X22232444Y-17620912D01*
X22232444Y-17620912D02*
X22232444Y-17611389D01*
X22232444Y-17611389D02*
X22222920Y-17592341D01*
X22222920Y-17592341D02*
X22203873Y-17582817D01*
X22203873Y-17582817D02*
X22175301Y-17582817D01*
X22175301Y-17582817D02*
X22156254Y-17573293D01*
X22156254Y-17573293D02*
X22146730Y-17554246D01*
X22146730Y-17554246D02*
X22146730Y-17544722D01*
X22146730Y-17544722D02*
X22156254Y-17525674D01*
X22156254Y-17525674D02*
X22175301Y-17516150D01*
X22175301Y-17516150D02*
X22203873Y-17516150D01*
X22203873Y-17516150D02*
X22222920Y-17525674D01*
X22299111Y-17725674D02*
X22308635Y-17716150D01*
X22308635Y-17716150D02*
X22327682Y-17687579D01*
X22327682Y-17687579D02*
X22337206Y-17668531D01*
X22337206Y-17668531D02*
X22346730Y-17639960D01*
X22346730Y-17639960D02*
X22356254Y-17592341D01*
X22356254Y-17592341D02*
X22356254Y-17554246D01*
X22356254Y-17554246D02*
X22346730Y-17506627D01*
X22346730Y-17506627D02*
X22337206Y-17478055D01*
X22337206Y-17478055D02*
X22327682Y-17459008D01*
X22327682Y-17459008D02*
X22308635Y-17430436D01*
X22308635Y-17430436D02*
X22299111Y-17420912D01*
D15*
X15895481Y-17844981D02*
X15895481Y-17799019D01*
X15849519Y-17799019D01*
X15849519Y-17844981D01*
X15895481Y-17844981D01*
D11*
X16203872Y-17713484D02*
X16222920Y-17713484D01*
X16222920Y-17713484D02*
X16241967Y-17723008D01*
X16241967Y-17723008D02*
X16251491Y-17732531D01*
X16251491Y-17732531D02*
X16261015Y-17751579D01*
X16261015Y-17751579D02*
X16270539Y-17789674D01*
X16270539Y-17789674D02*
X16270539Y-17837293D01*
X16270539Y-17837293D02*
X16261015Y-17875389D01*
X16261015Y-17875389D02*
X16251491Y-17894436D01*
X16251491Y-17894436D02*
X16241967Y-17903960D01*
X16241967Y-17903960D02*
X16222920Y-17913484D01*
X16222920Y-17913484D02*
X16203872Y-17913484D01*
X16203872Y-17913484D02*
X16184824Y-17903960D01*
X16184824Y-17903960D02*
X16175301Y-17894436D01*
X16175301Y-17894436D02*
X16165777Y-17875389D01*
X16165777Y-17875389D02*
X16156253Y-17837293D01*
X16156253Y-17837293D02*
X16156253Y-17789674D01*
X16156253Y-17789674D02*
X16165777Y-17751579D01*
X16165777Y-17751579D02*
X16175301Y-17732531D01*
X16175301Y-17732531D02*
X16184824Y-17723008D01*
X16184824Y-17723008D02*
X16203872Y-17713484D01*
X16356253Y-17894436D02*
X16365777Y-17903960D01*
X16365777Y-17903960D02*
X16356253Y-17913484D01*
X16356253Y-17913484D02*
X16346729Y-17903960D01*
X16346729Y-17903960D02*
X16356253Y-17894436D01*
X16356253Y-17894436D02*
X16356253Y-17913484D01*
X16537205Y-17713484D02*
X16499110Y-17713484D01*
X16499110Y-17713484D02*
X16480062Y-17723008D01*
X16480062Y-17723008D02*
X16470539Y-17732531D01*
X16470539Y-17732531D02*
X16451491Y-17761103D01*
X16451491Y-17761103D02*
X16441967Y-17799198D01*
X16441967Y-17799198D02*
X16441967Y-17875389D01*
X16441967Y-17875389D02*
X16451491Y-17894436D01*
X16451491Y-17894436D02*
X16461015Y-17903960D01*
X16461015Y-17903960D02*
X16480062Y-17913484D01*
X16480062Y-17913484D02*
X16518158Y-17913484D01*
X16518158Y-17913484D02*
X16537205Y-17903960D01*
X16537205Y-17903960D02*
X16546729Y-17894436D01*
X16546729Y-17894436D02*
X16556253Y-17875389D01*
X16556253Y-17875389D02*
X16556253Y-17827770D01*
X16556253Y-17827770D02*
X16546729Y-17808722D01*
X16546729Y-17808722D02*
X16537205Y-17799198D01*
X16537205Y-17799198D02*
X16518158Y-17789674D01*
X16518158Y-17789674D02*
X16480062Y-17789674D01*
X16480062Y-17789674D02*
X16461015Y-17799198D01*
X16461015Y-17799198D02*
X16451491Y-17808722D01*
X16451491Y-17808722D02*
X16441967Y-17827770D01*
X16737205Y-17713484D02*
X16641967Y-17713484D01*
X16641967Y-17713484D02*
X16632443Y-17808722D01*
X16632443Y-17808722D02*
X16641967Y-17799198D01*
X16641967Y-17799198D02*
X16661015Y-17789674D01*
X16661015Y-17789674D02*
X16708634Y-17789674D01*
X16708634Y-17789674D02*
X16727682Y-17799198D01*
X16727682Y-17799198D02*
X16737205Y-17808722D01*
X16737205Y-17808722D02*
X16746729Y-17827770D01*
X16746729Y-17827770D02*
X16746729Y-17875389D01*
X16746729Y-17875389D02*
X16737205Y-17894436D01*
X16737205Y-17894436D02*
X16727682Y-17903960D01*
X16727682Y-17903960D02*
X16708634Y-17913484D01*
X16708634Y-17913484D02*
X16661015Y-17913484D01*
X16661015Y-17913484D02*
X16641967Y-17903960D01*
X16641967Y-17903960D02*
X16632443Y-17894436D01*
X16870539Y-17713484D02*
X16889586Y-17713484D01*
X16889586Y-17713484D02*
X16908634Y-17723008D01*
X16908634Y-17723008D02*
X16918158Y-17732531D01*
X16918158Y-17732531D02*
X16927682Y-17751579D01*
X16927682Y-17751579D02*
X16937205Y-17789674D01*
X16937205Y-17789674D02*
X16937205Y-17837293D01*
X16937205Y-17837293D02*
X16927682Y-17875389D01*
X16927682Y-17875389D02*
X16918158Y-17894436D01*
X16918158Y-17894436D02*
X16908634Y-17903960D01*
X16908634Y-17903960D02*
X16889586Y-17913484D01*
X16889586Y-17913484D02*
X16870539Y-17913484D01*
X16870539Y-17913484D02*
X16851491Y-17903960D01*
X16851491Y-17903960D02*
X16841967Y-17894436D01*
X16841967Y-17894436D02*
X16832444Y-17875389D01*
X16832444Y-17875389D02*
X16822920Y-17837293D01*
X16822920Y-17837293D02*
X16822920Y-17789674D01*
X16822920Y-17789674D02*
X16832444Y-17751579D01*
X16832444Y-17751579D02*
X16841967Y-17732531D01*
X16841967Y-17732531D02*
X16851491Y-17723008D01*
X16851491Y-17723008D02*
X16870539Y-17713484D01*
X17022920Y-17913484D02*
X17022920Y-17780150D01*
X17022920Y-17799198D02*
X17032444Y-17789674D01*
X17032444Y-17789674D02*
X17051491Y-17780150D01*
X17051491Y-17780150D02*
X17080063Y-17780150D01*
X17080063Y-17780150D02*
X17099110Y-17789674D01*
X17099110Y-17789674D02*
X17108634Y-17808722D01*
X17108634Y-17808722D02*
X17108634Y-17913484D01*
X17108634Y-17808722D02*
X17118158Y-17789674D01*
X17118158Y-17789674D02*
X17137205Y-17780150D01*
X17137205Y-17780150D02*
X17165777Y-17780150D01*
X17165777Y-17780150D02*
X17184825Y-17789674D01*
X17184825Y-17789674D02*
X17194348Y-17808722D01*
X17194348Y-17808722D02*
X17194348Y-17913484D01*
X17289586Y-17913484D02*
X17289586Y-17780150D01*
X17289586Y-17799198D02*
X17299110Y-17789674D01*
X17299110Y-17789674D02*
X17318158Y-17780150D01*
X17318158Y-17780150D02*
X17346729Y-17780150D01*
X17346729Y-17780150D02*
X17365777Y-17789674D01*
X17365777Y-17789674D02*
X17375301Y-17808722D01*
X17375301Y-17808722D02*
X17375301Y-17913484D01*
X17375301Y-17808722D02*
X17384825Y-17789674D01*
X17384825Y-17789674D02*
X17403872Y-17780150D01*
X17403872Y-17780150D02*
X17432444Y-17780150D01*
X17432444Y-17780150D02*
X17451491Y-17789674D01*
X17451491Y-17789674D02*
X17461015Y-17808722D01*
X17461015Y-17808722D02*
X17461015Y-17913484D01*
X17851491Y-17703960D02*
X17680063Y-17961103D01*
X18108634Y-17713484D02*
X18127682Y-17713484D01*
X18127682Y-17713484D02*
X18146729Y-17723008D01*
X18146729Y-17723008D02*
X18156253Y-17732531D01*
X18156253Y-17732531D02*
X18165777Y-17751579D01*
X18165777Y-17751579D02*
X18175301Y-17789674D01*
X18175301Y-17789674D02*
X18175301Y-17837293D01*
X18175301Y-17837293D02*
X18165777Y-17875389D01*
X18165777Y-17875389D02*
X18156253Y-17894436D01*
X18156253Y-17894436D02*
X18146729Y-17903960D01*
X18146729Y-17903960D02*
X18127682Y-17913484D01*
X18127682Y-17913484D02*
X18108634Y-17913484D01*
X18108634Y-17913484D02*
X18089587Y-17903960D01*
X18089587Y-17903960D02*
X18080063Y-17894436D01*
X18080063Y-17894436D02*
X18070539Y-17875389D01*
X18070539Y-17875389D02*
X18061015Y-17837293D01*
X18061015Y-17837293D02*
X18061015Y-17789674D01*
X18061015Y-17789674D02*
X18070539Y-17751579D01*
X18070539Y-17751579D02*
X18080063Y-17732531D01*
X18080063Y-17732531D02*
X18089587Y-17723008D01*
X18089587Y-17723008D02*
X18108634Y-17713484D01*
X18261015Y-17894436D02*
X18270539Y-17903960D01*
X18270539Y-17903960D02*
X18261015Y-17913484D01*
X18261015Y-17913484D02*
X18251491Y-17903960D01*
X18251491Y-17903960D02*
X18261015Y-17894436D01*
X18261015Y-17894436D02*
X18261015Y-17913484D01*
X18394348Y-17713484D02*
X18413396Y-17713484D01*
X18413396Y-17713484D02*
X18432444Y-17723008D01*
X18432444Y-17723008D02*
X18441968Y-17732531D01*
X18441968Y-17732531D02*
X18451491Y-17751579D01*
X18451491Y-17751579D02*
X18461015Y-17789674D01*
X18461015Y-17789674D02*
X18461015Y-17837293D01*
X18461015Y-17837293D02*
X18451491Y-17875389D01*
X18451491Y-17875389D02*
X18441968Y-17894436D01*
X18441968Y-17894436D02*
X18432444Y-17903960D01*
X18432444Y-17903960D02*
X18413396Y-17913484D01*
X18413396Y-17913484D02*
X18394348Y-17913484D01*
X18394348Y-17913484D02*
X18375301Y-17903960D01*
X18375301Y-17903960D02*
X18365777Y-17894436D01*
X18365777Y-17894436D02*
X18356253Y-17875389D01*
X18356253Y-17875389D02*
X18346729Y-17837293D01*
X18346729Y-17837293D02*
X18346729Y-17789674D01*
X18346729Y-17789674D02*
X18356253Y-17751579D01*
X18356253Y-17751579D02*
X18365777Y-17732531D01*
X18365777Y-17732531D02*
X18375301Y-17723008D01*
X18375301Y-17723008D02*
X18394348Y-17713484D01*
X18537206Y-17732531D02*
X18546729Y-17723008D01*
X18546729Y-17723008D02*
X18565777Y-17713484D01*
X18565777Y-17713484D02*
X18613396Y-17713484D01*
X18613396Y-17713484D02*
X18632444Y-17723008D01*
X18632444Y-17723008D02*
X18641968Y-17732531D01*
X18641968Y-17732531D02*
X18651491Y-17751579D01*
X18651491Y-17751579D02*
X18651491Y-17770627D01*
X18651491Y-17770627D02*
X18641968Y-17799198D01*
X18641968Y-17799198D02*
X18527682Y-17913484D01*
X18527682Y-17913484D02*
X18651491Y-17913484D01*
X18832444Y-17713484D02*
X18737206Y-17713484D01*
X18737206Y-17713484D02*
X18727682Y-17808722D01*
X18727682Y-17808722D02*
X18737206Y-17799198D01*
X18737206Y-17799198D02*
X18756253Y-17789674D01*
X18756253Y-17789674D02*
X18803872Y-17789674D01*
X18803872Y-17789674D02*
X18822920Y-17799198D01*
X18822920Y-17799198D02*
X18832444Y-17808722D01*
X18832444Y-17808722D02*
X18841968Y-17827770D01*
X18841968Y-17827770D02*
X18841968Y-17875389D01*
X18841968Y-17875389D02*
X18832444Y-17894436D01*
X18832444Y-17894436D02*
X18822920Y-17903960D01*
X18822920Y-17903960D02*
X18803872Y-17913484D01*
X18803872Y-17913484D02*
X18756253Y-17913484D01*
X18756253Y-17913484D02*
X18737206Y-17903960D01*
X18737206Y-17903960D02*
X18727682Y-17894436D01*
X19013396Y-17713484D02*
X18975301Y-17713484D01*
X18975301Y-17713484D02*
X18956253Y-17723008D01*
X18956253Y-17723008D02*
X18946729Y-17732531D01*
X18946729Y-17732531D02*
X18927682Y-17761103D01*
X18927682Y-17761103D02*
X18918158Y-17799198D01*
X18918158Y-17799198D02*
X18918158Y-17875389D01*
X18918158Y-17875389D02*
X18927682Y-17894436D01*
X18927682Y-17894436D02*
X18937206Y-17903960D01*
X18937206Y-17903960D02*
X18956253Y-17913484D01*
X18956253Y-17913484D02*
X18994349Y-17913484D01*
X18994349Y-17913484D02*
X19013396Y-17903960D01*
X19013396Y-17903960D02*
X19022920Y-17894436D01*
X19022920Y-17894436D02*
X19032444Y-17875389D01*
X19032444Y-17875389D02*
X19032444Y-17827770D01*
X19032444Y-17827770D02*
X19022920Y-17808722D01*
X19022920Y-17808722D02*
X19013396Y-17799198D01*
X19013396Y-17799198D02*
X18994349Y-17789674D01*
X18994349Y-17789674D02*
X18956253Y-17789674D01*
X18956253Y-17789674D02*
X18937206Y-17799198D01*
X18937206Y-17799198D02*
X18927682Y-17808722D01*
X18927682Y-17808722D02*
X18918158Y-17827770D01*
X19108634Y-17713484D02*
X19108634Y-17751579D01*
X19184825Y-17713484D02*
X19184825Y-17751579D01*
X19480063Y-17989674D02*
X19470539Y-17980150D01*
X19470539Y-17980150D02*
X19451491Y-17951579D01*
X19451491Y-17951579D02*
X19441968Y-17932531D01*
X19441968Y-17932531D02*
X19432444Y-17903960D01*
X19432444Y-17903960D02*
X19422920Y-17856341D01*
X19422920Y-17856341D02*
X19422920Y-17818246D01*
X19422920Y-17818246D02*
X19432444Y-17770627D01*
X19432444Y-17770627D02*
X19441968Y-17742055D01*
X19441968Y-17742055D02*
X19451491Y-17723008D01*
X19451491Y-17723008D02*
X19470539Y-17694436D01*
X19470539Y-17694436D02*
X19480063Y-17684912D01*
X19594349Y-17713484D02*
X19613396Y-17713484D01*
X19613396Y-17713484D02*
X19632444Y-17723008D01*
X19632444Y-17723008D02*
X19641968Y-17732531D01*
X19641968Y-17732531D02*
X19651491Y-17751579D01*
X19651491Y-17751579D02*
X19661015Y-17789674D01*
X19661015Y-17789674D02*
X19661015Y-17837293D01*
X19661015Y-17837293D02*
X19651491Y-17875389D01*
X19651491Y-17875389D02*
X19641968Y-17894436D01*
X19641968Y-17894436D02*
X19632444Y-17903960D01*
X19632444Y-17903960D02*
X19613396Y-17913484D01*
X19613396Y-17913484D02*
X19594349Y-17913484D01*
X19594349Y-17913484D02*
X19575301Y-17903960D01*
X19575301Y-17903960D02*
X19565777Y-17894436D01*
X19565777Y-17894436D02*
X19556253Y-17875389D01*
X19556253Y-17875389D02*
X19546730Y-17837293D01*
X19546730Y-17837293D02*
X19546730Y-17789674D01*
X19546730Y-17789674D02*
X19556253Y-17751579D01*
X19556253Y-17751579D02*
X19565777Y-17732531D01*
X19565777Y-17732531D02*
X19575301Y-17723008D01*
X19575301Y-17723008D02*
X19594349Y-17713484D01*
X19899111Y-17913484D02*
X19899111Y-17713484D01*
X19984825Y-17913484D02*
X19984825Y-17808722D01*
X19984825Y-17808722D02*
X19975301Y-17789674D01*
X19975301Y-17789674D02*
X19956253Y-17780150D01*
X19956253Y-17780150D02*
X19927682Y-17780150D01*
X19927682Y-17780150D02*
X19908634Y-17789674D01*
X19908634Y-17789674D02*
X19899111Y-17799198D01*
X20108634Y-17913484D02*
X20089587Y-17903960D01*
X20089587Y-17903960D02*
X20080063Y-17894436D01*
X20080063Y-17894436D02*
X20070539Y-17875389D01*
X20070539Y-17875389D02*
X20070539Y-17818246D01*
X20070539Y-17818246D02*
X20080063Y-17799198D01*
X20080063Y-17799198D02*
X20089587Y-17789674D01*
X20089587Y-17789674D02*
X20108634Y-17780150D01*
X20108634Y-17780150D02*
X20137206Y-17780150D01*
X20137206Y-17780150D02*
X20156253Y-17789674D01*
X20156253Y-17789674D02*
X20165777Y-17799198D01*
X20165777Y-17799198D02*
X20175301Y-17818246D01*
X20175301Y-17818246D02*
X20175301Y-17875389D01*
X20175301Y-17875389D02*
X20165777Y-17894436D01*
X20165777Y-17894436D02*
X20156253Y-17903960D01*
X20156253Y-17903960D02*
X20137206Y-17913484D01*
X20137206Y-17913484D02*
X20108634Y-17913484D01*
X20289587Y-17913484D02*
X20270539Y-17903960D01*
X20270539Y-17903960D02*
X20261015Y-17884912D01*
X20261015Y-17884912D02*
X20261015Y-17713484D01*
X20441968Y-17903960D02*
X20422920Y-17913484D01*
X20422920Y-17913484D02*
X20384825Y-17913484D01*
X20384825Y-17913484D02*
X20365777Y-17903960D01*
X20365777Y-17903960D02*
X20356253Y-17884912D01*
X20356253Y-17884912D02*
X20356253Y-17808722D01*
X20356253Y-17808722D02*
X20365777Y-17789674D01*
X20365777Y-17789674D02*
X20384825Y-17780150D01*
X20384825Y-17780150D02*
X20422920Y-17780150D01*
X20422920Y-17780150D02*
X20441968Y-17789674D01*
X20441968Y-17789674D02*
X20451492Y-17808722D01*
X20451492Y-17808722D02*
X20451492Y-17827770D01*
X20451492Y-17827770D02*
X20356253Y-17846817D01*
X20527682Y-17903960D02*
X20546730Y-17913484D01*
X20546730Y-17913484D02*
X20584825Y-17913484D01*
X20584825Y-17913484D02*
X20603873Y-17903960D01*
X20603873Y-17903960D02*
X20613396Y-17884912D01*
X20613396Y-17884912D02*
X20613396Y-17875389D01*
X20613396Y-17875389D02*
X20603873Y-17856341D01*
X20603873Y-17856341D02*
X20584825Y-17846817D01*
X20584825Y-17846817D02*
X20556253Y-17846817D01*
X20556253Y-17846817D02*
X20537206Y-17837293D01*
X20537206Y-17837293D02*
X20527682Y-17818246D01*
X20527682Y-17818246D02*
X20527682Y-17808722D01*
X20527682Y-17808722D02*
X20537206Y-17789674D01*
X20537206Y-17789674D02*
X20556253Y-17780150D01*
X20556253Y-17780150D02*
X20584825Y-17780150D01*
X20584825Y-17780150D02*
X20603873Y-17789674D01*
X20851492Y-17837293D02*
X21003873Y-17837293D01*
X20927682Y-17913484D02*
X20927682Y-17761103D01*
X21241968Y-17732531D02*
X21251492Y-17723008D01*
X21251492Y-17723008D02*
X21270539Y-17713484D01*
X21270539Y-17713484D02*
X21318158Y-17713484D01*
X21318158Y-17713484D02*
X21337206Y-17723008D01*
X21337206Y-17723008D02*
X21346730Y-17732531D01*
X21346730Y-17732531D02*
X21356254Y-17751579D01*
X21356254Y-17751579D02*
X21356254Y-17770627D01*
X21356254Y-17770627D02*
X21346730Y-17799198D01*
X21346730Y-17799198D02*
X21232444Y-17913484D01*
X21232444Y-17913484D02*
X21356254Y-17913484D01*
X21584825Y-17903960D02*
X21603873Y-17913484D01*
X21603873Y-17913484D02*
X21641968Y-17913484D01*
X21641968Y-17913484D02*
X21661016Y-17903960D01*
X21661016Y-17903960D02*
X21670539Y-17884912D01*
X21670539Y-17884912D02*
X21670539Y-17875389D01*
X21670539Y-17875389D02*
X21661016Y-17856341D01*
X21661016Y-17856341D02*
X21641968Y-17846817D01*
X21641968Y-17846817D02*
X21613396Y-17846817D01*
X21613396Y-17846817D02*
X21594349Y-17837293D01*
X21594349Y-17837293D02*
X21584825Y-17818246D01*
X21584825Y-17818246D02*
X21584825Y-17808722D01*
X21584825Y-17808722D02*
X21594349Y-17789674D01*
X21594349Y-17789674D02*
X21613396Y-17780150D01*
X21613396Y-17780150D02*
X21641968Y-17780150D01*
X21641968Y-17780150D02*
X21661016Y-17789674D01*
X21784825Y-17913484D02*
X21765777Y-17903960D01*
X21765777Y-17903960D02*
X21756254Y-17884912D01*
X21756254Y-17884912D02*
X21756254Y-17713484D01*
X21889587Y-17913484D02*
X21870539Y-17903960D01*
X21870539Y-17903960D02*
X21861016Y-17894436D01*
X21861016Y-17894436D02*
X21851492Y-17875389D01*
X21851492Y-17875389D02*
X21851492Y-17818246D01*
X21851492Y-17818246D02*
X21861016Y-17799198D01*
X21861016Y-17799198D02*
X21870539Y-17789674D01*
X21870539Y-17789674D02*
X21889587Y-17780150D01*
X21889587Y-17780150D02*
X21918158Y-17780150D01*
X21918158Y-17780150D02*
X21937206Y-17789674D01*
X21937206Y-17789674D02*
X21946730Y-17799198D01*
X21946730Y-17799198D02*
X21956254Y-17818246D01*
X21956254Y-17818246D02*
X21956254Y-17875389D01*
X21956254Y-17875389D02*
X21946730Y-17894436D01*
X21946730Y-17894436D02*
X21937206Y-17903960D01*
X21937206Y-17903960D02*
X21918158Y-17913484D01*
X21918158Y-17913484D02*
X21889587Y-17913484D01*
X22013397Y-17780150D02*
X22089587Y-17780150D01*
X22041968Y-17713484D02*
X22041968Y-17884912D01*
X22041968Y-17884912D02*
X22051492Y-17903960D01*
X22051492Y-17903960D02*
X22070539Y-17913484D01*
X22070539Y-17913484D02*
X22089587Y-17913484D01*
X22146730Y-17903960D02*
X22165777Y-17913484D01*
X22165777Y-17913484D02*
X22203873Y-17913484D01*
X22203873Y-17913484D02*
X22222920Y-17903960D01*
X22222920Y-17903960D02*
X22232444Y-17884912D01*
X22232444Y-17884912D02*
X22232444Y-17875389D01*
X22232444Y-17875389D02*
X22222920Y-17856341D01*
X22222920Y-17856341D02*
X22203873Y-17846817D01*
X22203873Y-17846817D02*
X22175301Y-17846817D01*
X22175301Y-17846817D02*
X22156254Y-17837293D01*
X22156254Y-17837293D02*
X22146730Y-17818246D01*
X22146730Y-17818246D02*
X22146730Y-17808722D01*
X22146730Y-17808722D02*
X22156254Y-17789674D01*
X22156254Y-17789674D02*
X22175301Y-17780150D01*
X22175301Y-17780150D02*
X22203873Y-17780150D01*
X22203873Y-17780150D02*
X22222920Y-17789674D01*
X22299111Y-17989674D02*
X22308635Y-17980150D01*
X22308635Y-17980150D02*
X22327682Y-17951579D01*
X22327682Y-17951579D02*
X22337206Y-17932531D01*
X22337206Y-17932531D02*
X22346730Y-17903960D01*
X22346730Y-17903960D02*
X22356254Y-17856341D01*
X22356254Y-17856341D02*
X22356254Y-17818246D01*
X22356254Y-17818246D02*
X22346730Y-17770627D01*
X22346730Y-17770627D02*
X22337206Y-17742055D01*
X22337206Y-17742055D02*
X22327682Y-17723008D01*
X22327682Y-17723008D02*
X22308635Y-17694436D01*
X22308635Y-17694436D02*
X22299111Y-17684912D01*
D10*
X15855000Y-18136000D02*
X15905000Y-18086000D01*
X15855000Y-18036000D01*
X15805000Y-18086000D01*
X15855000Y-18136000D01*
D11*
X16270539Y-18177484D02*
X16156253Y-18177484D01*
X16213396Y-18177484D02*
X16213396Y-17977484D01*
X16213396Y-17977484D02*
X16194348Y-18006055D01*
X16194348Y-18006055D02*
X16175301Y-18025103D01*
X16175301Y-18025103D02*
X16156253Y-18034627D01*
X16356253Y-18158436D02*
X16365777Y-18167960D01*
X16365777Y-18167960D02*
X16356253Y-18177484D01*
X16356253Y-18177484D02*
X16346729Y-18167960D01*
X16346729Y-18167960D02*
X16356253Y-18158436D01*
X16356253Y-18158436D02*
X16356253Y-18177484D01*
X16489586Y-17977484D02*
X16508634Y-17977484D01*
X16508634Y-17977484D02*
X16527682Y-17987008D01*
X16527682Y-17987008D02*
X16537205Y-17996531D01*
X16537205Y-17996531D02*
X16546729Y-18015579D01*
X16546729Y-18015579D02*
X16556253Y-18053674D01*
X16556253Y-18053674D02*
X16556253Y-18101293D01*
X16556253Y-18101293D02*
X16546729Y-18139389D01*
X16546729Y-18139389D02*
X16537205Y-18158436D01*
X16537205Y-18158436D02*
X16527682Y-18167960D01*
X16527682Y-18167960D02*
X16508634Y-18177484D01*
X16508634Y-18177484D02*
X16489586Y-18177484D01*
X16489586Y-18177484D02*
X16470539Y-18167960D01*
X16470539Y-18167960D02*
X16461015Y-18158436D01*
X16461015Y-18158436D02*
X16451491Y-18139389D01*
X16451491Y-18139389D02*
X16441967Y-18101293D01*
X16441967Y-18101293D02*
X16441967Y-18053674D01*
X16441967Y-18053674D02*
X16451491Y-18015579D01*
X16451491Y-18015579D02*
X16461015Y-17996531D01*
X16461015Y-17996531D02*
X16470539Y-17987008D01*
X16470539Y-17987008D02*
X16489586Y-17977484D01*
X16680062Y-17977484D02*
X16699110Y-17977484D01*
X16699110Y-17977484D02*
X16718158Y-17987008D01*
X16718158Y-17987008D02*
X16727682Y-17996531D01*
X16727682Y-17996531D02*
X16737205Y-18015579D01*
X16737205Y-18015579D02*
X16746729Y-18053674D01*
X16746729Y-18053674D02*
X16746729Y-18101293D01*
X16746729Y-18101293D02*
X16737205Y-18139389D01*
X16737205Y-18139389D02*
X16727682Y-18158436D01*
X16727682Y-18158436D02*
X16718158Y-18167960D01*
X16718158Y-18167960D02*
X16699110Y-18177484D01*
X16699110Y-18177484D02*
X16680062Y-18177484D01*
X16680062Y-18177484D02*
X16661015Y-18167960D01*
X16661015Y-18167960D02*
X16651491Y-18158436D01*
X16651491Y-18158436D02*
X16641967Y-18139389D01*
X16641967Y-18139389D02*
X16632443Y-18101293D01*
X16632443Y-18101293D02*
X16632443Y-18053674D01*
X16632443Y-18053674D02*
X16641967Y-18015579D01*
X16641967Y-18015579D02*
X16651491Y-17996531D01*
X16651491Y-17996531D02*
X16661015Y-17987008D01*
X16661015Y-17987008D02*
X16680062Y-17977484D01*
X16870539Y-17977484D02*
X16889586Y-17977484D01*
X16889586Y-17977484D02*
X16908634Y-17987008D01*
X16908634Y-17987008D02*
X16918158Y-17996531D01*
X16918158Y-17996531D02*
X16927682Y-18015579D01*
X16927682Y-18015579D02*
X16937205Y-18053674D01*
X16937205Y-18053674D02*
X16937205Y-18101293D01*
X16937205Y-18101293D02*
X16927682Y-18139389D01*
X16927682Y-18139389D02*
X16918158Y-18158436D01*
X16918158Y-18158436D02*
X16908634Y-18167960D01*
X16908634Y-18167960D02*
X16889586Y-18177484D01*
X16889586Y-18177484D02*
X16870539Y-18177484D01*
X16870539Y-18177484D02*
X16851491Y-18167960D01*
X16851491Y-18167960D02*
X16841967Y-18158436D01*
X16841967Y-18158436D02*
X16832444Y-18139389D01*
X16832444Y-18139389D02*
X16822920Y-18101293D01*
X16822920Y-18101293D02*
X16822920Y-18053674D01*
X16822920Y-18053674D02*
X16832444Y-18015579D01*
X16832444Y-18015579D02*
X16841967Y-17996531D01*
X16841967Y-17996531D02*
X16851491Y-17987008D01*
X16851491Y-17987008D02*
X16870539Y-17977484D01*
X17022920Y-18177484D02*
X17022920Y-18044150D01*
X17022920Y-18063198D02*
X17032444Y-18053674D01*
X17032444Y-18053674D02*
X17051491Y-18044150D01*
X17051491Y-18044150D02*
X17080063Y-18044150D01*
X17080063Y-18044150D02*
X17099110Y-18053674D01*
X17099110Y-18053674D02*
X17108634Y-18072722D01*
X17108634Y-18072722D02*
X17108634Y-18177484D01*
X17108634Y-18072722D02*
X17118158Y-18053674D01*
X17118158Y-18053674D02*
X17137205Y-18044150D01*
X17137205Y-18044150D02*
X17165777Y-18044150D01*
X17165777Y-18044150D02*
X17184825Y-18053674D01*
X17184825Y-18053674D02*
X17194348Y-18072722D01*
X17194348Y-18072722D02*
X17194348Y-18177484D01*
X17289586Y-18177484D02*
X17289586Y-18044150D01*
X17289586Y-18063198D02*
X17299110Y-18053674D01*
X17299110Y-18053674D02*
X17318158Y-18044150D01*
X17318158Y-18044150D02*
X17346729Y-18044150D01*
X17346729Y-18044150D02*
X17365777Y-18053674D01*
X17365777Y-18053674D02*
X17375301Y-18072722D01*
X17375301Y-18072722D02*
X17375301Y-18177484D01*
X17375301Y-18072722D02*
X17384825Y-18053674D01*
X17384825Y-18053674D02*
X17403872Y-18044150D01*
X17403872Y-18044150D02*
X17432444Y-18044150D01*
X17432444Y-18044150D02*
X17451491Y-18053674D01*
X17451491Y-18053674D02*
X17461015Y-18072722D01*
X17461015Y-18072722D02*
X17461015Y-18177484D01*
X17851491Y-17967960D02*
X17680063Y-18225103D01*
X18108634Y-17977484D02*
X18127682Y-17977484D01*
X18127682Y-17977484D02*
X18146729Y-17987008D01*
X18146729Y-17987008D02*
X18156253Y-17996531D01*
X18156253Y-17996531D02*
X18165777Y-18015579D01*
X18165777Y-18015579D02*
X18175301Y-18053674D01*
X18175301Y-18053674D02*
X18175301Y-18101293D01*
X18175301Y-18101293D02*
X18165777Y-18139389D01*
X18165777Y-18139389D02*
X18156253Y-18158436D01*
X18156253Y-18158436D02*
X18146729Y-18167960D01*
X18146729Y-18167960D02*
X18127682Y-18177484D01*
X18127682Y-18177484D02*
X18108634Y-18177484D01*
X18108634Y-18177484D02*
X18089587Y-18167960D01*
X18089587Y-18167960D02*
X18080063Y-18158436D01*
X18080063Y-18158436D02*
X18070539Y-18139389D01*
X18070539Y-18139389D02*
X18061015Y-18101293D01*
X18061015Y-18101293D02*
X18061015Y-18053674D01*
X18061015Y-18053674D02*
X18070539Y-18015579D01*
X18070539Y-18015579D02*
X18080063Y-17996531D01*
X18080063Y-17996531D02*
X18089587Y-17987008D01*
X18089587Y-17987008D02*
X18108634Y-17977484D01*
X18261015Y-18158436D02*
X18270539Y-18167960D01*
X18270539Y-18167960D02*
X18261015Y-18177484D01*
X18261015Y-18177484D02*
X18251491Y-18167960D01*
X18251491Y-18167960D02*
X18261015Y-18158436D01*
X18261015Y-18158436D02*
X18261015Y-18177484D01*
X18394348Y-17977484D02*
X18413396Y-17977484D01*
X18413396Y-17977484D02*
X18432444Y-17987008D01*
X18432444Y-17987008D02*
X18441968Y-17996531D01*
X18441968Y-17996531D02*
X18451491Y-18015579D01*
X18451491Y-18015579D02*
X18461015Y-18053674D01*
X18461015Y-18053674D02*
X18461015Y-18101293D01*
X18461015Y-18101293D02*
X18451491Y-18139389D01*
X18451491Y-18139389D02*
X18441968Y-18158436D01*
X18441968Y-18158436D02*
X18432444Y-18167960D01*
X18432444Y-18167960D02*
X18413396Y-18177484D01*
X18413396Y-18177484D02*
X18394348Y-18177484D01*
X18394348Y-18177484D02*
X18375301Y-18167960D01*
X18375301Y-18167960D02*
X18365777Y-18158436D01*
X18365777Y-18158436D02*
X18356253Y-18139389D01*
X18356253Y-18139389D02*
X18346729Y-18101293D01*
X18346729Y-18101293D02*
X18346729Y-18053674D01*
X18346729Y-18053674D02*
X18356253Y-18015579D01*
X18356253Y-18015579D02*
X18365777Y-17996531D01*
X18365777Y-17996531D02*
X18375301Y-17987008D01*
X18375301Y-17987008D02*
X18394348Y-17977484D01*
X18527682Y-17977484D02*
X18651491Y-17977484D01*
X18651491Y-17977484D02*
X18584825Y-18053674D01*
X18584825Y-18053674D02*
X18613396Y-18053674D01*
X18613396Y-18053674D02*
X18632444Y-18063198D01*
X18632444Y-18063198D02*
X18641968Y-18072722D01*
X18641968Y-18072722D02*
X18651491Y-18091770D01*
X18651491Y-18091770D02*
X18651491Y-18139389D01*
X18651491Y-18139389D02*
X18641968Y-18158436D01*
X18641968Y-18158436D02*
X18632444Y-18167960D01*
X18632444Y-18167960D02*
X18613396Y-18177484D01*
X18613396Y-18177484D02*
X18556253Y-18177484D01*
X18556253Y-18177484D02*
X18537206Y-18167960D01*
X18537206Y-18167960D02*
X18527682Y-18158436D01*
X18746729Y-18177484D02*
X18784825Y-18177484D01*
X18784825Y-18177484D02*
X18803872Y-18167960D01*
X18803872Y-18167960D02*
X18813396Y-18158436D01*
X18813396Y-18158436D02*
X18832444Y-18129865D01*
X18832444Y-18129865D02*
X18841968Y-18091770D01*
X18841968Y-18091770D02*
X18841968Y-18015579D01*
X18841968Y-18015579D02*
X18832444Y-17996531D01*
X18832444Y-17996531D02*
X18822920Y-17987008D01*
X18822920Y-17987008D02*
X18803872Y-17977484D01*
X18803872Y-17977484D02*
X18765777Y-17977484D01*
X18765777Y-17977484D02*
X18746729Y-17987008D01*
X18746729Y-17987008D02*
X18737206Y-17996531D01*
X18737206Y-17996531D02*
X18727682Y-18015579D01*
X18727682Y-18015579D02*
X18727682Y-18063198D01*
X18727682Y-18063198D02*
X18737206Y-18082246D01*
X18737206Y-18082246D02*
X18746729Y-18091770D01*
X18746729Y-18091770D02*
X18765777Y-18101293D01*
X18765777Y-18101293D02*
X18803872Y-18101293D01*
X18803872Y-18101293D02*
X18822920Y-18091770D01*
X18822920Y-18091770D02*
X18832444Y-18082246D01*
X18832444Y-18082246D02*
X18841968Y-18063198D01*
X19013396Y-18044150D02*
X19013396Y-18177484D01*
X18965777Y-17967960D02*
X18918158Y-18110817D01*
X18918158Y-18110817D02*
X19041968Y-18110817D01*
X19108634Y-17977484D02*
X19108634Y-18015579D01*
X19184825Y-17977484D02*
X19184825Y-18015579D01*
X19480063Y-18253674D02*
X19470539Y-18244150D01*
X19470539Y-18244150D02*
X19451491Y-18215579D01*
X19451491Y-18215579D02*
X19441968Y-18196531D01*
X19441968Y-18196531D02*
X19432444Y-18167960D01*
X19432444Y-18167960D02*
X19422920Y-18120341D01*
X19422920Y-18120341D02*
X19422920Y-18082246D01*
X19422920Y-18082246D02*
X19432444Y-18034627D01*
X19432444Y-18034627D02*
X19441968Y-18006055D01*
X19441968Y-18006055D02*
X19451491Y-17987008D01*
X19451491Y-17987008D02*
X19470539Y-17958436D01*
X19470539Y-17958436D02*
X19480063Y-17948912D01*
X19546730Y-17996531D02*
X19556253Y-17987008D01*
X19556253Y-17987008D02*
X19575301Y-17977484D01*
X19575301Y-17977484D02*
X19622920Y-17977484D01*
X19622920Y-17977484D02*
X19641968Y-17987008D01*
X19641968Y-17987008D02*
X19651491Y-17996531D01*
X19651491Y-17996531D02*
X19661015Y-18015579D01*
X19661015Y-18015579D02*
X19661015Y-18034627D01*
X19661015Y-18034627D02*
X19651491Y-18063198D01*
X19651491Y-18063198D02*
X19537206Y-18177484D01*
X19537206Y-18177484D02*
X19661015Y-18177484D01*
X19899111Y-18177484D02*
X19899111Y-17977484D01*
X19984825Y-18177484D02*
X19984825Y-18072722D01*
X19984825Y-18072722D02*
X19975301Y-18053674D01*
X19975301Y-18053674D02*
X19956253Y-18044150D01*
X19956253Y-18044150D02*
X19927682Y-18044150D01*
X19927682Y-18044150D02*
X19908634Y-18053674D01*
X19908634Y-18053674D02*
X19899111Y-18063198D01*
X20108634Y-18177484D02*
X20089587Y-18167960D01*
X20089587Y-18167960D02*
X20080063Y-18158436D01*
X20080063Y-18158436D02*
X20070539Y-18139389D01*
X20070539Y-18139389D02*
X20070539Y-18082246D01*
X20070539Y-18082246D02*
X20080063Y-18063198D01*
X20080063Y-18063198D02*
X20089587Y-18053674D01*
X20089587Y-18053674D02*
X20108634Y-18044150D01*
X20108634Y-18044150D02*
X20137206Y-18044150D01*
X20137206Y-18044150D02*
X20156253Y-18053674D01*
X20156253Y-18053674D02*
X20165777Y-18063198D01*
X20165777Y-18063198D02*
X20175301Y-18082246D01*
X20175301Y-18082246D02*
X20175301Y-18139389D01*
X20175301Y-18139389D02*
X20165777Y-18158436D01*
X20165777Y-18158436D02*
X20156253Y-18167960D01*
X20156253Y-18167960D02*
X20137206Y-18177484D01*
X20137206Y-18177484D02*
X20108634Y-18177484D01*
X20289587Y-18177484D02*
X20270539Y-18167960D01*
X20270539Y-18167960D02*
X20261015Y-18148912D01*
X20261015Y-18148912D02*
X20261015Y-17977484D01*
X20441968Y-18167960D02*
X20422920Y-18177484D01*
X20422920Y-18177484D02*
X20384825Y-18177484D01*
X20384825Y-18177484D02*
X20365777Y-18167960D01*
X20365777Y-18167960D02*
X20356253Y-18148912D01*
X20356253Y-18148912D02*
X20356253Y-18072722D01*
X20356253Y-18072722D02*
X20365777Y-18053674D01*
X20365777Y-18053674D02*
X20384825Y-18044150D01*
X20384825Y-18044150D02*
X20422920Y-18044150D01*
X20422920Y-18044150D02*
X20441968Y-18053674D01*
X20441968Y-18053674D02*
X20451492Y-18072722D01*
X20451492Y-18072722D02*
X20451492Y-18091770D01*
X20451492Y-18091770D02*
X20356253Y-18110817D01*
X20527682Y-18167960D02*
X20546730Y-18177484D01*
X20546730Y-18177484D02*
X20584825Y-18177484D01*
X20584825Y-18177484D02*
X20603873Y-18167960D01*
X20603873Y-18167960D02*
X20613396Y-18148912D01*
X20613396Y-18148912D02*
X20613396Y-18139389D01*
X20613396Y-18139389D02*
X20603873Y-18120341D01*
X20603873Y-18120341D02*
X20584825Y-18110817D01*
X20584825Y-18110817D02*
X20556253Y-18110817D01*
X20556253Y-18110817D02*
X20537206Y-18101293D01*
X20537206Y-18101293D02*
X20527682Y-18082246D01*
X20527682Y-18082246D02*
X20527682Y-18072722D01*
X20527682Y-18072722D02*
X20537206Y-18053674D01*
X20537206Y-18053674D02*
X20556253Y-18044150D01*
X20556253Y-18044150D02*
X20584825Y-18044150D01*
X20584825Y-18044150D02*
X20603873Y-18053674D01*
X20680063Y-18253674D02*
X20689587Y-18244150D01*
X20689587Y-18244150D02*
X20708634Y-18215579D01*
X20708634Y-18215579D02*
X20718158Y-18196531D01*
X20718158Y-18196531D02*
X20727682Y-18167960D01*
X20727682Y-18167960D02*
X20737206Y-18120341D01*
X20737206Y-18120341D02*
X20737206Y-18082246D01*
X20737206Y-18082246D02*
X20727682Y-18034627D01*
X20727682Y-18034627D02*
X20718158Y-18006055D01*
X20718158Y-18006055D02*
X20708634Y-17987008D01*
X20708634Y-17987008D02*
X20689587Y-17958436D01*
X20689587Y-17958436D02*
X20680063Y-17948912D01*
D16*
X15795000Y-18295000D02*
X15905000Y-18405000D01*
X15905000Y-18295000D02*
X15795000Y-18405000D01*
X15905000Y-18350000D02*
G75*
G03*
X15905000Y-18350000I-55000J0D01*
G01*
D11*
X16270539Y-18441484D02*
X16156253Y-18441484D01*
X16213396Y-18441484D02*
X16213396Y-18241484D01*
X16213396Y-18241484D02*
X16194348Y-18270055D01*
X16194348Y-18270055D02*
X16175301Y-18289103D01*
X16175301Y-18289103D02*
X16156253Y-18298627D01*
X16356253Y-18422436D02*
X16365777Y-18431960D01*
X16365777Y-18431960D02*
X16356253Y-18441484D01*
X16356253Y-18441484D02*
X16346729Y-18431960D01*
X16346729Y-18431960D02*
X16356253Y-18422436D01*
X16356253Y-18422436D02*
X16356253Y-18441484D01*
X16556253Y-18441484D02*
X16441967Y-18441484D01*
X16499110Y-18441484D02*
X16499110Y-18241484D01*
X16499110Y-18241484D02*
X16480062Y-18270055D01*
X16480062Y-18270055D02*
X16461015Y-18289103D01*
X16461015Y-18289103D02*
X16441967Y-18298627D01*
X16680062Y-18241484D02*
X16699110Y-18241484D01*
X16699110Y-18241484D02*
X16718158Y-18251008D01*
X16718158Y-18251008D02*
X16727682Y-18260531D01*
X16727682Y-18260531D02*
X16737205Y-18279579D01*
X16737205Y-18279579D02*
X16746729Y-18317674D01*
X16746729Y-18317674D02*
X16746729Y-18365293D01*
X16746729Y-18365293D02*
X16737205Y-18403389D01*
X16737205Y-18403389D02*
X16727682Y-18422436D01*
X16727682Y-18422436D02*
X16718158Y-18431960D01*
X16718158Y-18431960D02*
X16699110Y-18441484D01*
X16699110Y-18441484D02*
X16680062Y-18441484D01*
X16680062Y-18441484D02*
X16661015Y-18431960D01*
X16661015Y-18431960D02*
X16651491Y-18422436D01*
X16651491Y-18422436D02*
X16641967Y-18403389D01*
X16641967Y-18403389D02*
X16632443Y-18365293D01*
X16632443Y-18365293D02*
X16632443Y-18317674D01*
X16632443Y-18317674D02*
X16641967Y-18279579D01*
X16641967Y-18279579D02*
X16651491Y-18260531D01*
X16651491Y-18260531D02*
X16661015Y-18251008D01*
X16661015Y-18251008D02*
X16680062Y-18241484D01*
X16870539Y-18241484D02*
X16889586Y-18241484D01*
X16889586Y-18241484D02*
X16908634Y-18251008D01*
X16908634Y-18251008D02*
X16918158Y-18260531D01*
X16918158Y-18260531D02*
X16927682Y-18279579D01*
X16927682Y-18279579D02*
X16937205Y-18317674D01*
X16937205Y-18317674D02*
X16937205Y-18365293D01*
X16937205Y-18365293D02*
X16927682Y-18403389D01*
X16927682Y-18403389D02*
X16918158Y-18422436D01*
X16918158Y-18422436D02*
X16908634Y-18431960D01*
X16908634Y-18431960D02*
X16889586Y-18441484D01*
X16889586Y-18441484D02*
X16870539Y-18441484D01*
X16870539Y-18441484D02*
X16851491Y-18431960D01*
X16851491Y-18431960D02*
X16841967Y-18422436D01*
X16841967Y-18422436D02*
X16832444Y-18403389D01*
X16832444Y-18403389D02*
X16822920Y-18365293D01*
X16822920Y-18365293D02*
X16822920Y-18317674D01*
X16822920Y-18317674D02*
X16832444Y-18279579D01*
X16832444Y-18279579D02*
X16841967Y-18260531D01*
X16841967Y-18260531D02*
X16851491Y-18251008D01*
X16851491Y-18251008D02*
X16870539Y-18241484D01*
X17022920Y-18441484D02*
X17022920Y-18308150D01*
X17022920Y-18327198D02*
X17032444Y-18317674D01*
X17032444Y-18317674D02*
X17051491Y-18308150D01*
X17051491Y-18308150D02*
X17080063Y-18308150D01*
X17080063Y-18308150D02*
X17099110Y-18317674D01*
X17099110Y-18317674D02*
X17108634Y-18336722D01*
X17108634Y-18336722D02*
X17108634Y-18441484D01*
X17108634Y-18336722D02*
X17118158Y-18317674D01*
X17118158Y-18317674D02*
X17137205Y-18308150D01*
X17137205Y-18308150D02*
X17165777Y-18308150D01*
X17165777Y-18308150D02*
X17184825Y-18317674D01*
X17184825Y-18317674D02*
X17194348Y-18336722D01*
X17194348Y-18336722D02*
X17194348Y-18441484D01*
X17289586Y-18441484D02*
X17289586Y-18308150D01*
X17289586Y-18327198D02*
X17299110Y-18317674D01*
X17299110Y-18317674D02*
X17318158Y-18308150D01*
X17318158Y-18308150D02*
X17346729Y-18308150D01*
X17346729Y-18308150D02*
X17365777Y-18317674D01*
X17365777Y-18317674D02*
X17375301Y-18336722D01*
X17375301Y-18336722D02*
X17375301Y-18441484D01*
X17375301Y-18336722D02*
X17384825Y-18317674D01*
X17384825Y-18317674D02*
X17403872Y-18308150D01*
X17403872Y-18308150D02*
X17432444Y-18308150D01*
X17432444Y-18308150D02*
X17451491Y-18317674D01*
X17451491Y-18317674D02*
X17461015Y-18336722D01*
X17461015Y-18336722D02*
X17461015Y-18441484D01*
X17851491Y-18231960D02*
X17680063Y-18489103D01*
X18108634Y-18241484D02*
X18127682Y-18241484D01*
X18127682Y-18241484D02*
X18146729Y-18251008D01*
X18146729Y-18251008D02*
X18156253Y-18260531D01*
X18156253Y-18260531D02*
X18165777Y-18279579D01*
X18165777Y-18279579D02*
X18175301Y-18317674D01*
X18175301Y-18317674D02*
X18175301Y-18365293D01*
X18175301Y-18365293D02*
X18165777Y-18403389D01*
X18165777Y-18403389D02*
X18156253Y-18422436D01*
X18156253Y-18422436D02*
X18146729Y-18431960D01*
X18146729Y-18431960D02*
X18127682Y-18441484D01*
X18127682Y-18441484D02*
X18108634Y-18441484D01*
X18108634Y-18441484D02*
X18089587Y-18431960D01*
X18089587Y-18431960D02*
X18080063Y-18422436D01*
X18080063Y-18422436D02*
X18070539Y-18403389D01*
X18070539Y-18403389D02*
X18061015Y-18365293D01*
X18061015Y-18365293D02*
X18061015Y-18317674D01*
X18061015Y-18317674D02*
X18070539Y-18279579D01*
X18070539Y-18279579D02*
X18080063Y-18260531D01*
X18080063Y-18260531D02*
X18089587Y-18251008D01*
X18089587Y-18251008D02*
X18108634Y-18241484D01*
X18261015Y-18422436D02*
X18270539Y-18431960D01*
X18270539Y-18431960D02*
X18261015Y-18441484D01*
X18261015Y-18441484D02*
X18251491Y-18431960D01*
X18251491Y-18431960D02*
X18261015Y-18422436D01*
X18261015Y-18422436D02*
X18261015Y-18441484D01*
X18394348Y-18241484D02*
X18413396Y-18241484D01*
X18413396Y-18241484D02*
X18432444Y-18251008D01*
X18432444Y-18251008D02*
X18441968Y-18260531D01*
X18441968Y-18260531D02*
X18451491Y-18279579D01*
X18451491Y-18279579D02*
X18461015Y-18317674D01*
X18461015Y-18317674D02*
X18461015Y-18365293D01*
X18461015Y-18365293D02*
X18451491Y-18403389D01*
X18451491Y-18403389D02*
X18441968Y-18422436D01*
X18441968Y-18422436D02*
X18432444Y-18431960D01*
X18432444Y-18431960D02*
X18413396Y-18441484D01*
X18413396Y-18441484D02*
X18394348Y-18441484D01*
X18394348Y-18441484D02*
X18375301Y-18431960D01*
X18375301Y-18431960D02*
X18365777Y-18422436D01*
X18365777Y-18422436D02*
X18356253Y-18403389D01*
X18356253Y-18403389D02*
X18346729Y-18365293D01*
X18346729Y-18365293D02*
X18346729Y-18317674D01*
X18346729Y-18317674D02*
X18356253Y-18279579D01*
X18356253Y-18279579D02*
X18365777Y-18260531D01*
X18365777Y-18260531D02*
X18375301Y-18251008D01*
X18375301Y-18251008D02*
X18394348Y-18241484D01*
X18632444Y-18308150D02*
X18632444Y-18441484D01*
X18584825Y-18231960D02*
X18537206Y-18374817D01*
X18537206Y-18374817D02*
X18661015Y-18374817D01*
X18718158Y-18241484D02*
X18841968Y-18241484D01*
X18841968Y-18241484D02*
X18775301Y-18317674D01*
X18775301Y-18317674D02*
X18803872Y-18317674D01*
X18803872Y-18317674D02*
X18822920Y-18327198D01*
X18822920Y-18327198D02*
X18832444Y-18336722D01*
X18832444Y-18336722D02*
X18841968Y-18355770D01*
X18841968Y-18355770D02*
X18841968Y-18403389D01*
X18841968Y-18403389D02*
X18832444Y-18422436D01*
X18832444Y-18422436D02*
X18822920Y-18431960D01*
X18822920Y-18431960D02*
X18803872Y-18441484D01*
X18803872Y-18441484D02*
X18746729Y-18441484D01*
X18746729Y-18441484D02*
X18727682Y-18431960D01*
X18727682Y-18431960D02*
X18718158Y-18422436D01*
X18908634Y-18241484D02*
X19032444Y-18241484D01*
X19032444Y-18241484D02*
X18965777Y-18317674D01*
X18965777Y-18317674D02*
X18994349Y-18317674D01*
X18994349Y-18317674D02*
X19013396Y-18327198D01*
X19013396Y-18327198D02*
X19022920Y-18336722D01*
X19022920Y-18336722D02*
X19032444Y-18355770D01*
X19032444Y-18355770D02*
X19032444Y-18403389D01*
X19032444Y-18403389D02*
X19022920Y-18422436D01*
X19022920Y-18422436D02*
X19013396Y-18431960D01*
X19013396Y-18431960D02*
X18994349Y-18441484D01*
X18994349Y-18441484D02*
X18937206Y-18441484D01*
X18937206Y-18441484D02*
X18918158Y-18431960D01*
X18918158Y-18431960D02*
X18908634Y-18422436D01*
X19108634Y-18241484D02*
X19108634Y-18279579D01*
X19184825Y-18241484D02*
X19184825Y-18279579D01*
X19480063Y-18517674D02*
X19470539Y-18508150D01*
X19470539Y-18508150D02*
X19451491Y-18479579D01*
X19451491Y-18479579D02*
X19441968Y-18460531D01*
X19441968Y-18460531D02*
X19432444Y-18431960D01*
X19432444Y-18431960D02*
X19422920Y-18384341D01*
X19422920Y-18384341D02*
X19422920Y-18346246D01*
X19422920Y-18346246D02*
X19432444Y-18298627D01*
X19432444Y-18298627D02*
X19441968Y-18270055D01*
X19441968Y-18270055D02*
X19451491Y-18251008D01*
X19451491Y-18251008D02*
X19470539Y-18222436D01*
X19470539Y-18222436D02*
X19480063Y-18212912D01*
X19641968Y-18241484D02*
X19603872Y-18241484D01*
X19603872Y-18241484D02*
X19584825Y-18251008D01*
X19584825Y-18251008D02*
X19575301Y-18260531D01*
X19575301Y-18260531D02*
X19556253Y-18289103D01*
X19556253Y-18289103D02*
X19546730Y-18327198D01*
X19546730Y-18327198D02*
X19546730Y-18403389D01*
X19546730Y-18403389D02*
X19556253Y-18422436D01*
X19556253Y-18422436D02*
X19565777Y-18431960D01*
X19565777Y-18431960D02*
X19584825Y-18441484D01*
X19584825Y-18441484D02*
X19622920Y-18441484D01*
X19622920Y-18441484D02*
X19641968Y-18431960D01*
X19641968Y-18431960D02*
X19651491Y-18422436D01*
X19651491Y-18422436D02*
X19661015Y-18403389D01*
X19661015Y-18403389D02*
X19661015Y-18355770D01*
X19661015Y-18355770D02*
X19651491Y-18336722D01*
X19651491Y-18336722D02*
X19641968Y-18327198D01*
X19641968Y-18327198D02*
X19622920Y-18317674D01*
X19622920Y-18317674D02*
X19584825Y-18317674D01*
X19584825Y-18317674D02*
X19565777Y-18327198D01*
X19565777Y-18327198D02*
X19556253Y-18336722D01*
X19556253Y-18336722D02*
X19546730Y-18355770D01*
X19899111Y-18441484D02*
X19899111Y-18241484D01*
X19984825Y-18441484D02*
X19984825Y-18336722D01*
X19984825Y-18336722D02*
X19975301Y-18317674D01*
X19975301Y-18317674D02*
X19956253Y-18308150D01*
X19956253Y-18308150D02*
X19927682Y-18308150D01*
X19927682Y-18308150D02*
X19908634Y-18317674D01*
X19908634Y-18317674D02*
X19899111Y-18327198D01*
X20108634Y-18441484D02*
X20089587Y-18431960D01*
X20089587Y-18431960D02*
X20080063Y-18422436D01*
X20080063Y-18422436D02*
X20070539Y-18403389D01*
X20070539Y-18403389D02*
X20070539Y-18346246D01*
X20070539Y-18346246D02*
X20080063Y-18327198D01*
X20080063Y-18327198D02*
X20089587Y-18317674D01*
X20089587Y-18317674D02*
X20108634Y-18308150D01*
X20108634Y-18308150D02*
X20137206Y-18308150D01*
X20137206Y-18308150D02*
X20156253Y-18317674D01*
X20156253Y-18317674D02*
X20165777Y-18327198D01*
X20165777Y-18327198D02*
X20175301Y-18346246D01*
X20175301Y-18346246D02*
X20175301Y-18403389D01*
X20175301Y-18403389D02*
X20165777Y-18422436D01*
X20165777Y-18422436D02*
X20156253Y-18431960D01*
X20156253Y-18431960D02*
X20137206Y-18441484D01*
X20137206Y-18441484D02*
X20108634Y-18441484D01*
X20289587Y-18441484D02*
X20270539Y-18431960D01*
X20270539Y-18431960D02*
X20261015Y-18412912D01*
X20261015Y-18412912D02*
X20261015Y-18241484D01*
X20441968Y-18431960D02*
X20422920Y-18441484D01*
X20422920Y-18441484D02*
X20384825Y-18441484D01*
X20384825Y-18441484D02*
X20365777Y-18431960D01*
X20365777Y-18431960D02*
X20356253Y-18412912D01*
X20356253Y-18412912D02*
X20356253Y-18336722D01*
X20356253Y-18336722D02*
X20365777Y-18317674D01*
X20365777Y-18317674D02*
X20384825Y-18308150D01*
X20384825Y-18308150D02*
X20422920Y-18308150D01*
X20422920Y-18308150D02*
X20441968Y-18317674D01*
X20441968Y-18317674D02*
X20451492Y-18336722D01*
X20451492Y-18336722D02*
X20451492Y-18355770D01*
X20451492Y-18355770D02*
X20356253Y-18374817D01*
X20527682Y-18431960D02*
X20546730Y-18441484D01*
X20546730Y-18441484D02*
X20584825Y-18441484D01*
X20584825Y-18441484D02*
X20603873Y-18431960D01*
X20603873Y-18431960D02*
X20613396Y-18412912D01*
X20613396Y-18412912D02*
X20613396Y-18403389D01*
X20613396Y-18403389D02*
X20603873Y-18384341D01*
X20603873Y-18384341D02*
X20584825Y-18374817D01*
X20584825Y-18374817D02*
X20556253Y-18374817D01*
X20556253Y-18374817D02*
X20537206Y-18365293D01*
X20537206Y-18365293D02*
X20527682Y-18346246D01*
X20527682Y-18346246D02*
X20527682Y-18336722D01*
X20527682Y-18336722D02*
X20537206Y-18317674D01*
X20537206Y-18317674D02*
X20556253Y-18308150D01*
X20556253Y-18308150D02*
X20584825Y-18308150D01*
X20584825Y-18308150D02*
X20603873Y-18317674D01*
X20680063Y-18517674D02*
X20689587Y-18508150D01*
X20689587Y-18508150D02*
X20708634Y-18479579D01*
X20708634Y-18479579D02*
X20718158Y-18460531D01*
X20718158Y-18460531D02*
X20727682Y-18431960D01*
X20727682Y-18431960D02*
X20737206Y-18384341D01*
X20737206Y-18384341D02*
X20737206Y-18346246D01*
X20737206Y-18346246D02*
X20727682Y-18298627D01*
X20727682Y-18298627D02*
X20718158Y-18270055D01*
X20718158Y-18270055D02*
X20708634Y-18251008D01*
X20708634Y-18251008D02*
X20689587Y-18222436D01*
X20689587Y-18222436D02*
X20680063Y-18212912D01*
D17*
X15715000Y-18519000D02*
X15905000Y-18709000D01*
X15905000Y-18519000D02*
X15715000Y-18709000D01*
X15810000Y-18519000D02*
X15810000Y-18709000D01*
X15715000Y-18614000D02*
X15905000Y-18614000D01*
D11*
X16270539Y-18705484D02*
X16156253Y-18705484D01*
X16213396Y-18705484D02*
X16213396Y-18505484D01*
X16213396Y-18505484D02*
X16194348Y-18534055D01*
X16194348Y-18534055D02*
X16175301Y-18553103D01*
X16175301Y-18553103D02*
X16156253Y-18562627D01*
X16356253Y-18686436D02*
X16365777Y-18695960D01*
X16365777Y-18695960D02*
X16356253Y-18705484D01*
X16356253Y-18705484D02*
X16346729Y-18695960D01*
X16346729Y-18695960D02*
X16356253Y-18686436D01*
X16356253Y-18686436D02*
X16356253Y-18705484D01*
X16461015Y-18705484D02*
X16499110Y-18705484D01*
X16499110Y-18705484D02*
X16518158Y-18695960D01*
X16518158Y-18695960D02*
X16527682Y-18686436D01*
X16527682Y-18686436D02*
X16546729Y-18657865D01*
X16546729Y-18657865D02*
X16556253Y-18619770D01*
X16556253Y-18619770D02*
X16556253Y-18543579D01*
X16556253Y-18543579D02*
X16546729Y-18524531D01*
X16546729Y-18524531D02*
X16537205Y-18515008D01*
X16537205Y-18515008D02*
X16518158Y-18505484D01*
X16518158Y-18505484D02*
X16480062Y-18505484D01*
X16480062Y-18505484D02*
X16461015Y-18515008D01*
X16461015Y-18515008D02*
X16451491Y-18524531D01*
X16451491Y-18524531D02*
X16441967Y-18543579D01*
X16441967Y-18543579D02*
X16441967Y-18591198D01*
X16441967Y-18591198D02*
X16451491Y-18610246D01*
X16451491Y-18610246D02*
X16461015Y-18619770D01*
X16461015Y-18619770D02*
X16480062Y-18629293D01*
X16480062Y-18629293D02*
X16518158Y-18629293D01*
X16518158Y-18629293D02*
X16537205Y-18619770D01*
X16537205Y-18619770D02*
X16546729Y-18610246D01*
X16546729Y-18610246D02*
X16556253Y-18591198D01*
X16680062Y-18505484D02*
X16699110Y-18505484D01*
X16699110Y-18505484D02*
X16718158Y-18515008D01*
X16718158Y-18515008D02*
X16727682Y-18524531D01*
X16727682Y-18524531D02*
X16737205Y-18543579D01*
X16737205Y-18543579D02*
X16746729Y-18581674D01*
X16746729Y-18581674D02*
X16746729Y-18629293D01*
X16746729Y-18629293D02*
X16737205Y-18667389D01*
X16737205Y-18667389D02*
X16727682Y-18686436D01*
X16727682Y-18686436D02*
X16718158Y-18695960D01*
X16718158Y-18695960D02*
X16699110Y-18705484D01*
X16699110Y-18705484D02*
X16680062Y-18705484D01*
X16680062Y-18705484D02*
X16661015Y-18695960D01*
X16661015Y-18695960D02*
X16651491Y-18686436D01*
X16651491Y-18686436D02*
X16641967Y-18667389D01*
X16641967Y-18667389D02*
X16632443Y-18629293D01*
X16632443Y-18629293D02*
X16632443Y-18581674D01*
X16632443Y-18581674D02*
X16641967Y-18543579D01*
X16641967Y-18543579D02*
X16651491Y-18524531D01*
X16651491Y-18524531D02*
X16661015Y-18515008D01*
X16661015Y-18515008D02*
X16680062Y-18505484D01*
X16870539Y-18505484D02*
X16889586Y-18505484D01*
X16889586Y-18505484D02*
X16908634Y-18515008D01*
X16908634Y-18515008D02*
X16918158Y-18524531D01*
X16918158Y-18524531D02*
X16927682Y-18543579D01*
X16927682Y-18543579D02*
X16937205Y-18581674D01*
X16937205Y-18581674D02*
X16937205Y-18629293D01*
X16937205Y-18629293D02*
X16927682Y-18667389D01*
X16927682Y-18667389D02*
X16918158Y-18686436D01*
X16918158Y-18686436D02*
X16908634Y-18695960D01*
X16908634Y-18695960D02*
X16889586Y-18705484D01*
X16889586Y-18705484D02*
X16870539Y-18705484D01*
X16870539Y-18705484D02*
X16851491Y-18695960D01*
X16851491Y-18695960D02*
X16841967Y-18686436D01*
X16841967Y-18686436D02*
X16832444Y-18667389D01*
X16832444Y-18667389D02*
X16822920Y-18629293D01*
X16822920Y-18629293D02*
X16822920Y-18581674D01*
X16822920Y-18581674D02*
X16832444Y-18543579D01*
X16832444Y-18543579D02*
X16841967Y-18524531D01*
X16841967Y-18524531D02*
X16851491Y-18515008D01*
X16851491Y-18515008D02*
X16870539Y-18505484D01*
X17022920Y-18705484D02*
X17022920Y-18572150D01*
X17022920Y-18591198D02*
X17032444Y-18581674D01*
X17032444Y-18581674D02*
X17051491Y-18572150D01*
X17051491Y-18572150D02*
X17080063Y-18572150D01*
X17080063Y-18572150D02*
X17099110Y-18581674D01*
X17099110Y-18581674D02*
X17108634Y-18600722D01*
X17108634Y-18600722D02*
X17108634Y-18705484D01*
X17108634Y-18600722D02*
X17118158Y-18581674D01*
X17118158Y-18581674D02*
X17137205Y-18572150D01*
X17137205Y-18572150D02*
X17165777Y-18572150D01*
X17165777Y-18572150D02*
X17184825Y-18581674D01*
X17184825Y-18581674D02*
X17194348Y-18600722D01*
X17194348Y-18600722D02*
X17194348Y-18705484D01*
X17289586Y-18705484D02*
X17289586Y-18572150D01*
X17289586Y-18591198D02*
X17299110Y-18581674D01*
X17299110Y-18581674D02*
X17318158Y-18572150D01*
X17318158Y-18572150D02*
X17346729Y-18572150D01*
X17346729Y-18572150D02*
X17365777Y-18581674D01*
X17365777Y-18581674D02*
X17375301Y-18600722D01*
X17375301Y-18600722D02*
X17375301Y-18705484D01*
X17375301Y-18600722D02*
X17384825Y-18581674D01*
X17384825Y-18581674D02*
X17403872Y-18572150D01*
X17403872Y-18572150D02*
X17432444Y-18572150D01*
X17432444Y-18572150D02*
X17451491Y-18581674D01*
X17451491Y-18581674D02*
X17461015Y-18600722D01*
X17461015Y-18600722D02*
X17461015Y-18705484D01*
X17851491Y-18495960D02*
X17680063Y-18753103D01*
X18108634Y-18505484D02*
X18127682Y-18505484D01*
X18127682Y-18505484D02*
X18146729Y-18515008D01*
X18146729Y-18515008D02*
X18156253Y-18524531D01*
X18156253Y-18524531D02*
X18165777Y-18543579D01*
X18165777Y-18543579D02*
X18175301Y-18581674D01*
X18175301Y-18581674D02*
X18175301Y-18629293D01*
X18175301Y-18629293D02*
X18165777Y-18667389D01*
X18165777Y-18667389D02*
X18156253Y-18686436D01*
X18156253Y-18686436D02*
X18146729Y-18695960D01*
X18146729Y-18695960D02*
X18127682Y-18705484D01*
X18127682Y-18705484D02*
X18108634Y-18705484D01*
X18108634Y-18705484D02*
X18089587Y-18695960D01*
X18089587Y-18695960D02*
X18080063Y-18686436D01*
X18080063Y-18686436D02*
X18070539Y-18667389D01*
X18070539Y-18667389D02*
X18061015Y-18629293D01*
X18061015Y-18629293D02*
X18061015Y-18581674D01*
X18061015Y-18581674D02*
X18070539Y-18543579D01*
X18070539Y-18543579D02*
X18080063Y-18524531D01*
X18080063Y-18524531D02*
X18089587Y-18515008D01*
X18089587Y-18515008D02*
X18108634Y-18505484D01*
X18261015Y-18686436D02*
X18270539Y-18695960D01*
X18270539Y-18695960D02*
X18261015Y-18705484D01*
X18261015Y-18705484D02*
X18251491Y-18695960D01*
X18251491Y-18695960D02*
X18261015Y-18686436D01*
X18261015Y-18686436D02*
X18261015Y-18705484D01*
X18394348Y-18505484D02*
X18413396Y-18505484D01*
X18413396Y-18505484D02*
X18432444Y-18515008D01*
X18432444Y-18515008D02*
X18441968Y-18524531D01*
X18441968Y-18524531D02*
X18451491Y-18543579D01*
X18451491Y-18543579D02*
X18461015Y-18581674D01*
X18461015Y-18581674D02*
X18461015Y-18629293D01*
X18461015Y-18629293D02*
X18451491Y-18667389D01*
X18451491Y-18667389D02*
X18441968Y-18686436D01*
X18441968Y-18686436D02*
X18432444Y-18695960D01*
X18432444Y-18695960D02*
X18413396Y-18705484D01*
X18413396Y-18705484D02*
X18394348Y-18705484D01*
X18394348Y-18705484D02*
X18375301Y-18695960D01*
X18375301Y-18695960D02*
X18365777Y-18686436D01*
X18365777Y-18686436D02*
X18356253Y-18667389D01*
X18356253Y-18667389D02*
X18346729Y-18629293D01*
X18346729Y-18629293D02*
X18346729Y-18581674D01*
X18346729Y-18581674D02*
X18356253Y-18543579D01*
X18356253Y-18543579D02*
X18365777Y-18524531D01*
X18365777Y-18524531D02*
X18375301Y-18515008D01*
X18375301Y-18515008D02*
X18394348Y-18505484D01*
X18527682Y-18505484D02*
X18661015Y-18505484D01*
X18661015Y-18505484D02*
X18575301Y-18705484D01*
X18822920Y-18572150D02*
X18822920Y-18705484D01*
X18775301Y-18495960D02*
X18727682Y-18638817D01*
X18727682Y-18638817D02*
X18851491Y-18638817D01*
X18956253Y-18591198D02*
X18937206Y-18581674D01*
X18937206Y-18581674D02*
X18927682Y-18572150D01*
X18927682Y-18572150D02*
X18918158Y-18553103D01*
X18918158Y-18553103D02*
X18918158Y-18543579D01*
X18918158Y-18543579D02*
X18927682Y-18524531D01*
X18927682Y-18524531D02*
X18937206Y-18515008D01*
X18937206Y-18515008D02*
X18956253Y-18505484D01*
X18956253Y-18505484D02*
X18994349Y-18505484D01*
X18994349Y-18505484D02*
X19013396Y-18515008D01*
X19013396Y-18515008D02*
X19022920Y-18524531D01*
X19022920Y-18524531D02*
X19032444Y-18543579D01*
X19032444Y-18543579D02*
X19032444Y-18553103D01*
X19032444Y-18553103D02*
X19022920Y-18572150D01*
X19022920Y-18572150D02*
X19013396Y-18581674D01*
X19013396Y-18581674D02*
X18994349Y-18591198D01*
X18994349Y-18591198D02*
X18956253Y-18591198D01*
X18956253Y-18591198D02*
X18937206Y-18600722D01*
X18937206Y-18600722D02*
X18927682Y-18610246D01*
X18927682Y-18610246D02*
X18918158Y-18629293D01*
X18918158Y-18629293D02*
X18918158Y-18667389D01*
X18918158Y-18667389D02*
X18927682Y-18686436D01*
X18927682Y-18686436D02*
X18937206Y-18695960D01*
X18937206Y-18695960D02*
X18956253Y-18705484D01*
X18956253Y-18705484D02*
X18994349Y-18705484D01*
X18994349Y-18705484D02*
X19013396Y-18695960D01*
X19013396Y-18695960D02*
X19022920Y-18686436D01*
X19022920Y-18686436D02*
X19032444Y-18667389D01*
X19032444Y-18667389D02*
X19032444Y-18629293D01*
X19032444Y-18629293D02*
X19022920Y-18610246D01*
X19022920Y-18610246D02*
X19013396Y-18600722D01*
X19013396Y-18600722D02*
X18994349Y-18591198D01*
X19108634Y-18505484D02*
X19108634Y-18543579D01*
X19184825Y-18505484D02*
X19184825Y-18543579D01*
X19480063Y-18781674D02*
X19470539Y-18772150D01*
X19470539Y-18772150D02*
X19451491Y-18743579D01*
X19451491Y-18743579D02*
X19441968Y-18724531D01*
X19441968Y-18724531D02*
X19432444Y-18695960D01*
X19432444Y-18695960D02*
X19422920Y-18648341D01*
X19422920Y-18648341D02*
X19422920Y-18610246D01*
X19422920Y-18610246D02*
X19432444Y-18562627D01*
X19432444Y-18562627D02*
X19441968Y-18534055D01*
X19441968Y-18534055D02*
X19451491Y-18515008D01*
X19451491Y-18515008D02*
X19470539Y-18486436D01*
X19470539Y-18486436D02*
X19480063Y-18476912D01*
X19546730Y-18524531D02*
X19556253Y-18515008D01*
X19556253Y-18515008D02*
X19575301Y-18505484D01*
X19575301Y-18505484D02*
X19622920Y-18505484D01*
X19622920Y-18505484D02*
X19641968Y-18515008D01*
X19641968Y-18515008D02*
X19651491Y-18524531D01*
X19651491Y-18524531D02*
X19661015Y-18543579D01*
X19661015Y-18543579D02*
X19661015Y-18562627D01*
X19661015Y-18562627D02*
X19651491Y-18591198D01*
X19651491Y-18591198D02*
X19537206Y-18705484D01*
X19537206Y-18705484D02*
X19661015Y-18705484D01*
X19899111Y-18705484D02*
X19899111Y-18505484D01*
X19984825Y-18705484D02*
X19984825Y-18600722D01*
X19984825Y-18600722D02*
X19975301Y-18581674D01*
X19975301Y-18581674D02*
X19956253Y-18572150D01*
X19956253Y-18572150D02*
X19927682Y-18572150D01*
X19927682Y-18572150D02*
X19908634Y-18581674D01*
X19908634Y-18581674D02*
X19899111Y-18591198D01*
X20108634Y-18705484D02*
X20089587Y-18695960D01*
X20089587Y-18695960D02*
X20080063Y-18686436D01*
X20080063Y-18686436D02*
X20070539Y-18667389D01*
X20070539Y-18667389D02*
X20070539Y-18610246D01*
X20070539Y-18610246D02*
X20080063Y-18591198D01*
X20080063Y-18591198D02*
X20089587Y-18581674D01*
X20089587Y-18581674D02*
X20108634Y-18572150D01*
X20108634Y-18572150D02*
X20137206Y-18572150D01*
X20137206Y-18572150D02*
X20156253Y-18581674D01*
X20156253Y-18581674D02*
X20165777Y-18591198D01*
X20165777Y-18591198D02*
X20175301Y-18610246D01*
X20175301Y-18610246D02*
X20175301Y-18667389D01*
X20175301Y-18667389D02*
X20165777Y-18686436D01*
X20165777Y-18686436D02*
X20156253Y-18695960D01*
X20156253Y-18695960D02*
X20137206Y-18705484D01*
X20137206Y-18705484D02*
X20108634Y-18705484D01*
X20289587Y-18705484D02*
X20270539Y-18695960D01*
X20270539Y-18695960D02*
X20261015Y-18676912D01*
X20261015Y-18676912D02*
X20261015Y-18505484D01*
X20441968Y-18695960D02*
X20422920Y-18705484D01*
X20422920Y-18705484D02*
X20384825Y-18705484D01*
X20384825Y-18705484D02*
X20365777Y-18695960D01*
X20365777Y-18695960D02*
X20356253Y-18676912D01*
X20356253Y-18676912D02*
X20356253Y-18600722D01*
X20356253Y-18600722D02*
X20365777Y-18581674D01*
X20365777Y-18581674D02*
X20384825Y-18572150D01*
X20384825Y-18572150D02*
X20422920Y-18572150D01*
X20422920Y-18572150D02*
X20441968Y-18581674D01*
X20441968Y-18581674D02*
X20451492Y-18600722D01*
X20451492Y-18600722D02*
X20451492Y-18619770D01*
X20451492Y-18619770D02*
X20356253Y-18638817D01*
X20527682Y-18695960D02*
X20546730Y-18705484D01*
X20546730Y-18705484D02*
X20584825Y-18705484D01*
X20584825Y-18705484D02*
X20603873Y-18695960D01*
X20603873Y-18695960D02*
X20613396Y-18676912D01*
X20613396Y-18676912D02*
X20613396Y-18667389D01*
X20613396Y-18667389D02*
X20603873Y-18648341D01*
X20603873Y-18648341D02*
X20584825Y-18638817D01*
X20584825Y-18638817D02*
X20556253Y-18638817D01*
X20556253Y-18638817D02*
X20537206Y-18629293D01*
X20537206Y-18629293D02*
X20527682Y-18610246D01*
X20527682Y-18610246D02*
X20527682Y-18600722D01*
X20527682Y-18600722D02*
X20537206Y-18581674D01*
X20537206Y-18581674D02*
X20556253Y-18572150D01*
X20556253Y-18572150D02*
X20584825Y-18572150D01*
X20584825Y-18572150D02*
X20603873Y-18581674D01*
X20680063Y-18781674D02*
X20689587Y-18772150D01*
X20689587Y-18772150D02*
X20708634Y-18743579D01*
X20708634Y-18743579D02*
X20718158Y-18724531D01*
X20718158Y-18724531D02*
X20727682Y-18695960D01*
X20727682Y-18695960D02*
X20737206Y-18648341D01*
X20737206Y-18648341D02*
X20737206Y-18610246D01*
X20737206Y-18610246D02*
X20727682Y-18562627D01*
X20727682Y-18562627D02*
X20718158Y-18534055D01*
X20718158Y-18534055D02*
X20708634Y-18515008D01*
X20708634Y-18515008D02*
X20689587Y-18486436D01*
X20689587Y-18486436D02*
X20680063Y-18476912D01*
X15705000Y-18824000D02*
X15905000Y-19024000D01*
X15905000Y-18824000D02*
X15705000Y-19024000D01*
X15875711Y-18994711D02*
X15875711Y-18853289D01*
X15734289Y-18853289D01*
X15734289Y-18994711D01*
X15875711Y-18994711D01*
X16146729Y-18815484D02*
X16270539Y-18815484D01*
X16270539Y-18815484D02*
X16203872Y-18891674D01*
X16203872Y-18891674D02*
X16232443Y-18891674D01*
X16232443Y-18891674D02*
X16251491Y-18901198D01*
X16251491Y-18901198D02*
X16261015Y-18910722D01*
X16261015Y-18910722D02*
X16270539Y-18929770D01*
X16270539Y-18929770D02*
X16270539Y-18977389D01*
X16270539Y-18977389D02*
X16261015Y-18996436D01*
X16261015Y-18996436D02*
X16251491Y-19005960D01*
X16251491Y-19005960D02*
X16232443Y-19015484D01*
X16232443Y-19015484D02*
X16175301Y-19015484D01*
X16175301Y-19015484D02*
X16156253Y-19005960D01*
X16156253Y-19005960D02*
X16146729Y-18996436D01*
X16356253Y-18996436D02*
X16365777Y-19005960D01*
X16365777Y-19005960D02*
X16356253Y-19015484D01*
X16356253Y-19015484D02*
X16346729Y-19005960D01*
X16346729Y-19005960D02*
X16356253Y-18996436D01*
X16356253Y-18996436D02*
X16356253Y-19015484D01*
X16441967Y-18834531D02*
X16451491Y-18825008D01*
X16451491Y-18825008D02*
X16470539Y-18815484D01*
X16470539Y-18815484D02*
X16518158Y-18815484D01*
X16518158Y-18815484D02*
X16537205Y-18825008D01*
X16537205Y-18825008D02*
X16546729Y-18834531D01*
X16546729Y-18834531D02*
X16556253Y-18853579D01*
X16556253Y-18853579D02*
X16556253Y-18872627D01*
X16556253Y-18872627D02*
X16546729Y-18901198D01*
X16546729Y-18901198D02*
X16432443Y-19015484D01*
X16432443Y-19015484D02*
X16556253Y-19015484D01*
X16680062Y-18815484D02*
X16699110Y-18815484D01*
X16699110Y-18815484D02*
X16718158Y-18825008D01*
X16718158Y-18825008D02*
X16727682Y-18834531D01*
X16727682Y-18834531D02*
X16737205Y-18853579D01*
X16737205Y-18853579D02*
X16746729Y-18891674D01*
X16746729Y-18891674D02*
X16746729Y-18939293D01*
X16746729Y-18939293D02*
X16737205Y-18977389D01*
X16737205Y-18977389D02*
X16727682Y-18996436D01*
X16727682Y-18996436D02*
X16718158Y-19005960D01*
X16718158Y-19005960D02*
X16699110Y-19015484D01*
X16699110Y-19015484D02*
X16680062Y-19015484D01*
X16680062Y-19015484D02*
X16661015Y-19005960D01*
X16661015Y-19005960D02*
X16651491Y-18996436D01*
X16651491Y-18996436D02*
X16641967Y-18977389D01*
X16641967Y-18977389D02*
X16632443Y-18939293D01*
X16632443Y-18939293D02*
X16632443Y-18891674D01*
X16632443Y-18891674D02*
X16641967Y-18853579D01*
X16641967Y-18853579D02*
X16651491Y-18834531D01*
X16651491Y-18834531D02*
X16661015Y-18825008D01*
X16661015Y-18825008D02*
X16680062Y-18815484D01*
X16870539Y-18815484D02*
X16889586Y-18815484D01*
X16889586Y-18815484D02*
X16908634Y-18825008D01*
X16908634Y-18825008D02*
X16918158Y-18834531D01*
X16918158Y-18834531D02*
X16927682Y-18853579D01*
X16927682Y-18853579D02*
X16937205Y-18891674D01*
X16937205Y-18891674D02*
X16937205Y-18939293D01*
X16937205Y-18939293D02*
X16927682Y-18977389D01*
X16927682Y-18977389D02*
X16918158Y-18996436D01*
X16918158Y-18996436D02*
X16908634Y-19005960D01*
X16908634Y-19005960D02*
X16889586Y-19015484D01*
X16889586Y-19015484D02*
X16870539Y-19015484D01*
X16870539Y-19015484D02*
X16851491Y-19005960D01*
X16851491Y-19005960D02*
X16841967Y-18996436D01*
X16841967Y-18996436D02*
X16832444Y-18977389D01*
X16832444Y-18977389D02*
X16822920Y-18939293D01*
X16822920Y-18939293D02*
X16822920Y-18891674D01*
X16822920Y-18891674D02*
X16832444Y-18853579D01*
X16832444Y-18853579D02*
X16841967Y-18834531D01*
X16841967Y-18834531D02*
X16851491Y-18825008D01*
X16851491Y-18825008D02*
X16870539Y-18815484D01*
X17022920Y-19015484D02*
X17022920Y-18882150D01*
X17022920Y-18901198D02*
X17032444Y-18891674D01*
X17032444Y-18891674D02*
X17051491Y-18882150D01*
X17051491Y-18882150D02*
X17080063Y-18882150D01*
X17080063Y-18882150D02*
X17099110Y-18891674D01*
X17099110Y-18891674D02*
X17108634Y-18910722D01*
X17108634Y-18910722D02*
X17108634Y-19015484D01*
X17108634Y-18910722D02*
X17118158Y-18891674D01*
X17118158Y-18891674D02*
X17137205Y-18882150D01*
X17137205Y-18882150D02*
X17165777Y-18882150D01*
X17165777Y-18882150D02*
X17184825Y-18891674D01*
X17184825Y-18891674D02*
X17194348Y-18910722D01*
X17194348Y-18910722D02*
X17194348Y-19015484D01*
X17289586Y-19015484D02*
X17289586Y-18882150D01*
X17289586Y-18901198D02*
X17299110Y-18891674D01*
X17299110Y-18891674D02*
X17318158Y-18882150D01*
X17318158Y-18882150D02*
X17346729Y-18882150D01*
X17346729Y-18882150D02*
X17365777Y-18891674D01*
X17365777Y-18891674D02*
X17375301Y-18910722D01*
X17375301Y-18910722D02*
X17375301Y-19015484D01*
X17375301Y-18910722D02*
X17384825Y-18891674D01*
X17384825Y-18891674D02*
X17403872Y-18882150D01*
X17403872Y-18882150D02*
X17432444Y-18882150D01*
X17432444Y-18882150D02*
X17451491Y-18891674D01*
X17451491Y-18891674D02*
X17461015Y-18910722D01*
X17461015Y-18910722D02*
X17461015Y-19015484D01*
X17851491Y-18805960D02*
X17680063Y-19063103D01*
X18108634Y-18815484D02*
X18127682Y-18815484D01*
X18127682Y-18815484D02*
X18146729Y-18825008D01*
X18146729Y-18825008D02*
X18156253Y-18834531D01*
X18156253Y-18834531D02*
X18165777Y-18853579D01*
X18165777Y-18853579D02*
X18175301Y-18891674D01*
X18175301Y-18891674D02*
X18175301Y-18939293D01*
X18175301Y-18939293D02*
X18165777Y-18977389D01*
X18165777Y-18977389D02*
X18156253Y-18996436D01*
X18156253Y-18996436D02*
X18146729Y-19005960D01*
X18146729Y-19005960D02*
X18127682Y-19015484D01*
X18127682Y-19015484D02*
X18108634Y-19015484D01*
X18108634Y-19015484D02*
X18089587Y-19005960D01*
X18089587Y-19005960D02*
X18080063Y-18996436D01*
X18080063Y-18996436D02*
X18070539Y-18977389D01*
X18070539Y-18977389D02*
X18061015Y-18939293D01*
X18061015Y-18939293D02*
X18061015Y-18891674D01*
X18061015Y-18891674D02*
X18070539Y-18853579D01*
X18070539Y-18853579D02*
X18080063Y-18834531D01*
X18080063Y-18834531D02*
X18089587Y-18825008D01*
X18089587Y-18825008D02*
X18108634Y-18815484D01*
X18261015Y-18996436D02*
X18270539Y-19005960D01*
X18270539Y-19005960D02*
X18261015Y-19015484D01*
X18261015Y-19015484D02*
X18251491Y-19005960D01*
X18251491Y-19005960D02*
X18261015Y-18996436D01*
X18261015Y-18996436D02*
X18261015Y-19015484D01*
X18461015Y-19015484D02*
X18346729Y-19015484D01*
X18403872Y-19015484D02*
X18403872Y-18815484D01*
X18403872Y-18815484D02*
X18384825Y-18844055D01*
X18384825Y-18844055D02*
X18365777Y-18863103D01*
X18365777Y-18863103D02*
X18346729Y-18872627D01*
X18537206Y-18834531D02*
X18546729Y-18825008D01*
X18546729Y-18825008D02*
X18565777Y-18815484D01*
X18565777Y-18815484D02*
X18613396Y-18815484D01*
X18613396Y-18815484D02*
X18632444Y-18825008D01*
X18632444Y-18825008D02*
X18641968Y-18834531D01*
X18641968Y-18834531D02*
X18651491Y-18853579D01*
X18651491Y-18853579D02*
X18651491Y-18872627D01*
X18651491Y-18872627D02*
X18641968Y-18901198D01*
X18641968Y-18901198D02*
X18527682Y-19015484D01*
X18527682Y-19015484D02*
X18651491Y-19015484D01*
X18822920Y-18815484D02*
X18784825Y-18815484D01*
X18784825Y-18815484D02*
X18765777Y-18825008D01*
X18765777Y-18825008D02*
X18756253Y-18834531D01*
X18756253Y-18834531D02*
X18737206Y-18863103D01*
X18737206Y-18863103D02*
X18727682Y-18901198D01*
X18727682Y-18901198D02*
X18727682Y-18977389D01*
X18727682Y-18977389D02*
X18737206Y-18996436D01*
X18737206Y-18996436D02*
X18746729Y-19005960D01*
X18746729Y-19005960D02*
X18765777Y-19015484D01*
X18765777Y-19015484D02*
X18803872Y-19015484D01*
X18803872Y-19015484D02*
X18822920Y-19005960D01*
X18822920Y-19005960D02*
X18832444Y-18996436D01*
X18832444Y-18996436D02*
X18841968Y-18977389D01*
X18841968Y-18977389D02*
X18841968Y-18929770D01*
X18841968Y-18929770D02*
X18832444Y-18910722D01*
X18832444Y-18910722D02*
X18822920Y-18901198D01*
X18822920Y-18901198D02*
X18803872Y-18891674D01*
X18803872Y-18891674D02*
X18765777Y-18891674D01*
X18765777Y-18891674D02*
X18746729Y-18901198D01*
X18746729Y-18901198D02*
X18737206Y-18910722D01*
X18737206Y-18910722D02*
X18727682Y-18929770D01*
X18965777Y-18815484D02*
X18984825Y-18815484D01*
X18984825Y-18815484D02*
X19003872Y-18825008D01*
X19003872Y-18825008D02*
X19013396Y-18834531D01*
X19013396Y-18834531D02*
X19022920Y-18853579D01*
X19022920Y-18853579D02*
X19032444Y-18891674D01*
X19032444Y-18891674D02*
X19032444Y-18939293D01*
X19032444Y-18939293D02*
X19022920Y-18977389D01*
X19022920Y-18977389D02*
X19013396Y-18996436D01*
X19013396Y-18996436D02*
X19003872Y-19005960D01*
X19003872Y-19005960D02*
X18984825Y-19015484D01*
X18984825Y-19015484D02*
X18965777Y-19015484D01*
X18965777Y-19015484D02*
X18946729Y-19005960D01*
X18946729Y-19005960D02*
X18937206Y-18996436D01*
X18937206Y-18996436D02*
X18927682Y-18977389D01*
X18927682Y-18977389D02*
X18918158Y-18939293D01*
X18918158Y-18939293D02*
X18918158Y-18891674D01*
X18918158Y-18891674D02*
X18927682Y-18853579D01*
X18927682Y-18853579D02*
X18937206Y-18834531D01*
X18937206Y-18834531D02*
X18946729Y-18825008D01*
X18946729Y-18825008D02*
X18965777Y-18815484D01*
X19108634Y-18815484D02*
X19108634Y-18853579D01*
X19184825Y-18815484D02*
X19184825Y-18853579D01*
X19480063Y-19091674D02*
X19470539Y-19082150D01*
X19470539Y-19082150D02*
X19451491Y-19053579D01*
X19451491Y-19053579D02*
X19441968Y-19034531D01*
X19441968Y-19034531D02*
X19432444Y-19005960D01*
X19432444Y-19005960D02*
X19422920Y-18958341D01*
X19422920Y-18958341D02*
X19422920Y-18920246D01*
X19422920Y-18920246D02*
X19432444Y-18872627D01*
X19432444Y-18872627D02*
X19441968Y-18844055D01*
X19441968Y-18844055D02*
X19451491Y-18825008D01*
X19451491Y-18825008D02*
X19470539Y-18796436D01*
X19470539Y-18796436D02*
X19480063Y-18786912D01*
X19641968Y-18882150D02*
X19641968Y-19015484D01*
X19594349Y-18805960D02*
X19546730Y-18948817D01*
X19546730Y-18948817D02*
X19670539Y-18948817D01*
X19899111Y-19015484D02*
X19899111Y-18815484D01*
X19984825Y-19015484D02*
X19984825Y-18910722D01*
X19984825Y-18910722D02*
X19975301Y-18891674D01*
X19975301Y-18891674D02*
X19956253Y-18882150D01*
X19956253Y-18882150D02*
X19927682Y-18882150D01*
X19927682Y-18882150D02*
X19908634Y-18891674D01*
X19908634Y-18891674D02*
X19899111Y-18901198D01*
X20108634Y-19015484D02*
X20089587Y-19005960D01*
X20089587Y-19005960D02*
X20080063Y-18996436D01*
X20080063Y-18996436D02*
X20070539Y-18977389D01*
X20070539Y-18977389D02*
X20070539Y-18920246D01*
X20070539Y-18920246D02*
X20080063Y-18901198D01*
X20080063Y-18901198D02*
X20089587Y-18891674D01*
X20089587Y-18891674D02*
X20108634Y-18882150D01*
X20108634Y-18882150D02*
X20137206Y-18882150D01*
X20137206Y-18882150D02*
X20156253Y-18891674D01*
X20156253Y-18891674D02*
X20165777Y-18901198D01*
X20165777Y-18901198D02*
X20175301Y-18920246D01*
X20175301Y-18920246D02*
X20175301Y-18977389D01*
X20175301Y-18977389D02*
X20165777Y-18996436D01*
X20165777Y-18996436D02*
X20156253Y-19005960D01*
X20156253Y-19005960D02*
X20137206Y-19015484D01*
X20137206Y-19015484D02*
X20108634Y-19015484D01*
X20289587Y-19015484D02*
X20270539Y-19005960D01*
X20270539Y-19005960D02*
X20261015Y-18986912D01*
X20261015Y-18986912D02*
X20261015Y-18815484D01*
X20441968Y-19005960D02*
X20422920Y-19015484D01*
X20422920Y-19015484D02*
X20384825Y-19015484D01*
X20384825Y-19015484D02*
X20365777Y-19005960D01*
X20365777Y-19005960D02*
X20356253Y-18986912D01*
X20356253Y-18986912D02*
X20356253Y-18910722D01*
X20356253Y-18910722D02*
X20365777Y-18891674D01*
X20365777Y-18891674D02*
X20384825Y-18882150D01*
X20384825Y-18882150D02*
X20422920Y-18882150D01*
X20422920Y-18882150D02*
X20441968Y-18891674D01*
X20441968Y-18891674D02*
X20451492Y-18910722D01*
X20451492Y-18910722D02*
X20451492Y-18929770D01*
X20451492Y-18929770D02*
X20356253Y-18948817D01*
X20527682Y-19005960D02*
X20546730Y-19015484D01*
X20546730Y-19015484D02*
X20584825Y-19015484D01*
X20584825Y-19015484D02*
X20603873Y-19005960D01*
X20603873Y-19005960D02*
X20613396Y-18986912D01*
X20613396Y-18986912D02*
X20613396Y-18977389D01*
X20613396Y-18977389D02*
X20603873Y-18958341D01*
X20603873Y-18958341D02*
X20584825Y-18948817D01*
X20584825Y-18948817D02*
X20556253Y-18948817D01*
X20556253Y-18948817D02*
X20537206Y-18939293D01*
X20537206Y-18939293D02*
X20527682Y-18920246D01*
X20527682Y-18920246D02*
X20527682Y-18910722D01*
X20527682Y-18910722D02*
X20537206Y-18891674D01*
X20537206Y-18891674D02*
X20556253Y-18882150D01*
X20556253Y-18882150D02*
X20584825Y-18882150D01*
X20584825Y-18882150D02*
X20603873Y-18891674D01*
X20680063Y-19091674D02*
X20689587Y-19082150D01*
X20689587Y-19082150D02*
X20708634Y-19053579D01*
X20708634Y-19053579D02*
X20718158Y-19034531D01*
X20718158Y-19034531D02*
X20727682Y-19005960D01*
X20727682Y-19005960D02*
X20737206Y-18958341D01*
X20737206Y-18958341D02*
X20737206Y-18920246D01*
X20737206Y-18920246D02*
X20727682Y-18872627D01*
X20727682Y-18872627D02*
X20718158Y-18844055D01*
X20718158Y-18844055D02*
X20708634Y-18825008D01*
X20708634Y-18825008D02*
X20689587Y-18796436D01*
X20689587Y-18796436D02*
X20680063Y-18786912D01*
M02*
