M48
; DRILL file {KiCad 7.0.1} date Fri Oct 27 16:48:06 2023
; FORMAT={-:-/ absolute / metric / decimal}
; #@! TF.CreationDate,2023-10-27T16:48:06-05:00
; #@! TF.GenerationSoftware,Kicad,Pcbnew,7.0.1
; #@! TF.FileFunction,Plated,1,4,PTH
FMAT,2
METRIC
; #@! TA.AperFunction,Plated,PTH,ViaDrill
T1C0.300
; #@! TA.AperFunction,Plated,PTH,ViaDrill
T2C0.400
; #@! TA.AperFunction,Plated,PTH,ComponentDrill
T3C0.600
; #@! TA.AperFunction,Plated,PTH,ComponentDrill
T4C0.650
; #@! TA.AperFunction,Plated,PTH,ComponentDrill
T5C1.000
; #@! TA.AperFunction,Plated,PTH,ComponentDrill
T6C1.100
; #@! TA.AperFunction,Plated,PTH,ComponentDrill
T7C1.900
; #@! TA.AperFunction,Plated,PTH,ComponentDrill
T8C3.200
%
G90
G05
T1
X161.9Y-100.9
X165.35Y-103.6
X166.0Y-122.9
X166.2Y-95.25
X168.45Y-95.3
X169.15Y-100.65
X169.15Y-107.45
X170.65Y-108.2
X173.35Y-126.75
X173.4Y-106.1
X174.45Y-98.8
X174.6Y-97.65
X174.8Y-102.15
X174.9Y-115.55
X175.8Y-103.95
X176.6Y-114.75
X176.9Y-103.05
X177.35Y-121.65
X178.15Y-121.65
X178.9Y-106.85
X179.0Y-116.15
X179.2Y-114.85
X179.7Y-105.4
X179.9Y-101.2
X180.3Y-122.35
X180.5Y-105.55
X181.9Y-123.45
X182.375Y-101.45
X182.475Y-102.65
X182.6Y-105.7
X183.675Y-103.95
X183.875Y-105.65
X184.375Y-103.55
X184.675Y-106.85
X185.9Y-111.65
X186.175Y-105.65
X186.175Y-106.85
X186.2Y-103.8
X187.6Y-109.95
X192.0Y-107.05
X193.3Y-112.05
T2
X160.685Y-122.325
X160.9Y-107.55
X161.1Y-76.85
X161.1Y-78.85
X161.1Y-80.85
X161.1Y-82.85
X161.1Y-84.85
X161.1Y-134.85
X161.1Y-136.85
X161.1Y-138.85
X161.1Y-140.85
X161.1Y-154.85
X161.1Y-156.85
X161.1Y-158.85
X161.1Y-160.85
X161.15Y-93.425
X162.175Y-127.85
X162.375Y-122.325
X162.525Y-98.15
X162.9Y-86.1
X163.1Y-76.85
X163.1Y-84.85
X163.1Y-108.85
X163.1Y-110.85
X164.1Y-114.425
X164.175Y-119.55
X164.2Y-98.175
X164.55Y-86.05
X164.55Y-99.95
X164.6Y-107.55
X165.1Y-76.85
X165.1Y-108.85
X165.1Y-110.85
X165.2Y-93.475
X165.65Y-99.1
X165.7Y-92.4
X165.7Y-144.65
X165.975Y-125.95
X167.1Y-76.85
X167.1Y-84.85
X167.1Y-110.85
X167.1Y-120.55
X167.275Y-125.95
X167.475Y-153.45
X168.1Y-134.85
X168.1Y-136.85
X168.1Y-139.85
X168.1Y-141.85
X168.2Y-118.625
X168.475Y-125.95
X168.775Y-105.65
X168.8Y-112.408
X169.1Y-76.85
X169.1Y-78.85
X169.1Y-80.85
X169.1Y-82.85
X169.1Y-110.85
X169.1Y-118.125
X169.1Y-160.85
X169.175Y-103.05
X169.275Y-130.75
X169.575Y-94.55
X169.675Y-157.797
X169.675Y-159.497
X169.85Y-92.275
X169.85Y-106.275
X170.6Y-109.15
X170.975Y-153.45
X171.1Y-76.85
X171.1Y-78.85
X171.1Y-80.85
X171.1Y-88.85
X171.375Y-123.05
X171.475Y-121.45
X172.025Y-128.675
X172.3Y-77.45
X172.975Y-155.75
X173.1Y-88.85
X173.1Y-139.85
X173.1Y-141.85
X173.475Y-130.25
X173.5Y-104.95
X174.1Y-149.15
X174.375Y-123.25
X174.4Y-122.15
X174.422Y-81.511
X174.575Y-132.55
X175.1Y-86.85
X175.1Y-88.85
X175.1Y-90.85
X175.1Y-116.85
X175.1Y-118.85
X175.1Y-134.85
X175.1Y-136.85
X175.1Y-139.85
X175.3Y-130.85
X175.7Y-109.55
X175.9Y-121.85
X176.875Y-86.65
X177.1Y-88.85
X177.1Y-90.85
X177.9Y-99.442
X179.1Y-88.85
X179.1Y-90.85
X179.175Y-86.65
X179.675Y-117.55
X179.95Y-98.5
X180.0Y-96.9
X181.075Y-117.75
X181.1Y-80.85
X181.1Y-82.85
X181.1Y-84.85
X181.1Y-86.85
X181.1Y-88.85
X181.6Y-99.85
X181.602Y-109.253
X182.1Y-130.15
X182.275Y-131.45
X182.975Y-117.25
X182.975Y-118.95
X183.075Y-127.55
X183.075Y-132.65
X183.25Y-109.226
X183.275Y-150.15
X183.275Y-152.75
X183.6Y-135.45
X183.7Y-77.45
X184.575Y-84.85
X185.1Y-76.85
X185.1Y-78.85
X185.1Y-80.85
X185.1Y-82.85
X186.125Y-84.825
X186.975Y-127.55
X186.975Y-145.012
X187.1Y-76.85
X187.1Y-78.85
X187.1Y-80.85
X187.1Y-82.85
X187.1Y-136.85
X187.1Y-138.85
X187.1Y-156.85
X187.1Y-158.85
X187.1Y-160.85
X187.175Y-149.55
X187.175Y-150.45
X187.175Y-151.35
X187.175Y-152.25
X187.175Y-153.15
X187.775Y-84.825
X187.775Y-132.55
X187.875Y-127.45
X188.8Y-124.325
X189.1Y-76.85
X189.1Y-84.85
X189.1Y-138.85
X189.875Y-102.15
X189.975Y-108.75
X190.1Y-90.15
X190.675Y-145.012
X190.7Y-115.65
X191.05Y-94.675
X191.05Y-96.475
X191.1Y-76.85
X191.1Y-84.85
X191.15Y-99.975
X191.275Y-150.75
X191.275Y-153.45
X191.675Y-127.45
X191.675Y-141.812
X191.675Y-142.912
X191.675Y-143.912
X191.675Y-145.012
X191.975Y-108.45
X191.975Y-114.95
X192.275Y-122.65
X192.928Y-121.225
X193.1Y-76.85
X193.1Y-84.85
X193.1Y-98.85
X193.1Y-100.85
X193.275Y-130.25
X193.575Y-108.45
X193.6Y-122.75
X193.6Y-124.25
X193.675Y-114.95
X194.3Y-94.15
X194.6Y-86.55
X194.6Y-98.05
X194.7Y-90.15
X194.875Y-102.15
X194.875Y-103.85
X194.875Y-105.25
X194.875Y-106.95
X195.1Y-76.85
X195.1Y-78.85
X195.1Y-84.85
X195.1Y-98.85
X195.1Y-100.85
X195.1Y-111.35
X195.1Y-116.25
X195.1Y-156.85
X195.1Y-158.85
X195.1Y-160.85
T5
X160.85Y-132.812
X160.85Y-143.812
T6
X161.875Y-148.45
X161.875Y-150.99
X175.455Y-160.45
X177.995Y-160.45
X180.535Y-160.45
X183.075Y-160.45
T7
X170.85Y-135.812
X170.85Y-140.812
T8
X165.375Y-81.35
X165.375Y-157.55
X190.775Y-81.35
X190.775Y-157.55
T3
X160.85Y-111.55G85X160.15Y-111.55
G05
X160.85Y-119.9G85X160.15Y-119.9
G05
T4
X163.6Y-113.5G85X163.4Y-113.5
G05
X163.6Y-117.95G85X163.4Y-117.95
G05
T0
M30
