%TF.GenerationSoftware,KiCad,Pcbnew,7.0.1*%
%TF.CreationDate,2023-10-27T16:48:17-05:00*%
%TF.ProjectId,FC,46432e6b-6963-4616-945f-706362585858,V1*%
%TF.SameCoordinates,Original*%
%TF.FileFunction,Drillmap*%
%TF.FilePolarity,Positive*%
%FSLAX45Y45*%
G04 Gerber Fmt 4.5, Leading zero omitted, Abs format (unit mm)*
G04 Created by KiCad (PCBNEW 7.0.1) date 2023-10-27 16:48:17*
%MOMM*%
%LPD*%
G01*
G04 APERTURE LIST*
%ADD10C,0.100000*%
%ADD11C,0.200000*%
%ADD12C,0.030000*%
%ADD13C,0.040000*%
%ADD14C,0.060000*%
%ADD15C,0.065000*%
%ADD16C,0.110000*%
%ADD17C,0.190000*%
%ADD18C,0.320000*%
G04 APERTURE END LIST*
D10*
X15910000Y-7505000D02*
X19707500Y-7505000D01*
X19707500Y-16385000D01*
X15910000Y-16385000D01*
X15910000Y-7505000D01*
D11*
D12*
X16175000Y-10075000D02*
X16205000Y-10105000D01*
X16205000Y-10075000D02*
X16175000Y-10105000D01*
X16520000Y-10345000D02*
X16550000Y-10375000D01*
X16550000Y-10345000D02*
X16520000Y-10375000D01*
X16585000Y-12275000D02*
X16615000Y-12305000D01*
X16615000Y-12275000D02*
X16585000Y-12305000D01*
X16605000Y-9510000D02*
X16635000Y-9540000D01*
X16635000Y-9510000D02*
X16605000Y-9540000D01*
X16830000Y-9515000D02*
X16860000Y-9545000D01*
X16860000Y-9515000D02*
X16830000Y-9545000D01*
X16900000Y-10050000D02*
X16930000Y-10080000D01*
X16930000Y-10050000D02*
X16900000Y-10080000D01*
X16900000Y-10730000D02*
X16930000Y-10760000D01*
X16930000Y-10730000D02*
X16900000Y-10760000D01*
X17050000Y-10805000D02*
X17080000Y-10835000D01*
X17080000Y-10805000D02*
X17050000Y-10835000D01*
X17320000Y-12660000D02*
X17350000Y-12690000D01*
X17350000Y-12660000D02*
X17320000Y-12690000D01*
X17325000Y-10595000D02*
X17355000Y-10625000D01*
X17355000Y-10595000D02*
X17325000Y-10625000D01*
X17430000Y-9865000D02*
X17460000Y-9895000D01*
X17460000Y-9865000D02*
X17430000Y-9895000D01*
X17445000Y-9750000D02*
X17475000Y-9780000D01*
X17475000Y-9750000D02*
X17445000Y-9780000D01*
X17465000Y-10200000D02*
X17495000Y-10230000D01*
X17495000Y-10200000D02*
X17465000Y-10230000D01*
X17475000Y-11540000D02*
X17505000Y-11570000D01*
X17505000Y-11540000D02*
X17475000Y-11570000D01*
X17565000Y-10380000D02*
X17595000Y-10410000D01*
X17595000Y-10380000D02*
X17565000Y-10410000D01*
X17645000Y-11460000D02*
X17675000Y-11490000D01*
X17675000Y-11460000D02*
X17645000Y-11490000D01*
X17675000Y-10290000D02*
X17705000Y-10320000D01*
X17705000Y-10290000D02*
X17675000Y-10320000D01*
X17720000Y-12150000D02*
X17750000Y-12180000D01*
X17750000Y-12150000D02*
X17720000Y-12180000D01*
X17800000Y-12150000D02*
X17830000Y-12180000D01*
X17830000Y-12150000D02*
X17800000Y-12180000D01*
X17875000Y-10670000D02*
X17905000Y-10700000D01*
X17905000Y-10670000D02*
X17875000Y-10700000D01*
X17885000Y-11600000D02*
X17915000Y-11630000D01*
X17915000Y-11600000D02*
X17885000Y-11630000D01*
X17905000Y-11470000D02*
X17935000Y-11500000D01*
X17935000Y-11470000D02*
X17905000Y-11500000D01*
X17955000Y-10525000D02*
X17985000Y-10555000D01*
X17985000Y-10525000D02*
X17955000Y-10555000D01*
X17975000Y-10105000D02*
X18005000Y-10135000D01*
X18005000Y-10105000D02*
X17975000Y-10135000D01*
X18015000Y-12220000D02*
X18045000Y-12250000D01*
X18045000Y-12220000D02*
X18015000Y-12250000D01*
X18035000Y-10540000D02*
X18065000Y-10570000D01*
X18065000Y-10540000D02*
X18035000Y-10570000D01*
X18175000Y-12330000D02*
X18205000Y-12360000D01*
X18205000Y-12330000D02*
X18175000Y-12360000D01*
X18222500Y-10130000D02*
X18252500Y-10160000D01*
X18252500Y-10130000D02*
X18222500Y-10160000D01*
X18232500Y-10250000D02*
X18262500Y-10280000D01*
X18262500Y-10250000D02*
X18232500Y-10280000D01*
X18245000Y-10555000D02*
X18275000Y-10585000D01*
X18275000Y-10555000D02*
X18245000Y-10585000D01*
X18352500Y-10380000D02*
X18382500Y-10410000D01*
X18382500Y-10380000D02*
X18352500Y-10410000D01*
X18372500Y-10550000D02*
X18402500Y-10580000D01*
X18402500Y-10550000D02*
X18372500Y-10580000D01*
X18422500Y-10340000D02*
X18452500Y-10370000D01*
X18452500Y-10340000D02*
X18422500Y-10370000D01*
X18452500Y-10670000D02*
X18482500Y-10700000D01*
X18482500Y-10670000D02*
X18452500Y-10700000D01*
X18575000Y-11150000D02*
X18605000Y-11180000D01*
X18605000Y-11150000D02*
X18575000Y-11180000D01*
X18602500Y-10550000D02*
X18632500Y-10580000D01*
X18632500Y-10550000D02*
X18602500Y-10580000D01*
X18602500Y-10670000D02*
X18632500Y-10700000D01*
X18632500Y-10670000D02*
X18602500Y-10700000D01*
X18605000Y-10365000D02*
X18635000Y-10395000D01*
X18635000Y-10365000D02*
X18605000Y-10395000D01*
X18745000Y-10980000D02*
X18775000Y-11010000D01*
X18775000Y-10980000D02*
X18745000Y-11010000D01*
X19185000Y-10690000D02*
X19215000Y-10720000D01*
X19215000Y-10690000D02*
X19185000Y-10720000D01*
X19315000Y-11190000D02*
X19345000Y-11220000D01*
X19345000Y-11190000D02*
X19315000Y-11220000D01*
D13*
X16088500Y-12232500D02*
G75*
G03*
X16088500Y-12232500I-20000J0D01*
G01*
X16110000Y-10755000D02*
G75*
G03*
X16110000Y-10755000I-20000J0D01*
G01*
X16130000Y-7685000D02*
G75*
G03*
X16130000Y-7685000I-20000J0D01*
G01*
X16130000Y-7885000D02*
G75*
G03*
X16130000Y-7885000I-20000J0D01*
G01*
X16130000Y-8085000D02*
G75*
G03*
X16130000Y-8085000I-20000J0D01*
G01*
X16130000Y-8285000D02*
G75*
G03*
X16130000Y-8285000I-20000J0D01*
G01*
X16130000Y-8485000D02*
G75*
G03*
X16130000Y-8485000I-20000J0D01*
G01*
X16130000Y-13485000D02*
G75*
G03*
X16130000Y-13485000I-20000J0D01*
G01*
X16130000Y-13685000D02*
G75*
G03*
X16130000Y-13685000I-20000J0D01*
G01*
X16130000Y-13885000D02*
G75*
G03*
X16130000Y-13885000I-20000J0D01*
G01*
X16130000Y-14085000D02*
G75*
G03*
X16130000Y-14085000I-20000J0D01*
G01*
X16130000Y-15485000D02*
G75*
G03*
X16130000Y-15485000I-20000J0D01*
G01*
X16130000Y-15685000D02*
G75*
G03*
X16130000Y-15685000I-20000J0D01*
G01*
X16130000Y-15885000D02*
G75*
G03*
X16130000Y-15885000I-20000J0D01*
G01*
X16130000Y-16085000D02*
G75*
G03*
X16130000Y-16085000I-20000J0D01*
G01*
X16135000Y-9342500D02*
G75*
G03*
X16135000Y-9342500I-20000J0D01*
G01*
X16237500Y-12785000D02*
G75*
G03*
X16237500Y-12785000I-20000J0D01*
G01*
X16257500Y-12232500D02*
G75*
G03*
X16257500Y-12232500I-20000J0D01*
G01*
X16272500Y-9815000D02*
G75*
G03*
X16272500Y-9815000I-20000J0D01*
G01*
X16310000Y-8610000D02*
G75*
G03*
X16310000Y-8610000I-20000J0D01*
G01*
X16330000Y-7685000D02*
G75*
G03*
X16330000Y-7685000I-20000J0D01*
G01*
X16330000Y-8485000D02*
G75*
G03*
X16330000Y-8485000I-20000J0D01*
G01*
X16330000Y-10885000D02*
G75*
G03*
X16330000Y-10885000I-20000J0D01*
G01*
X16330000Y-11085000D02*
G75*
G03*
X16330000Y-11085000I-20000J0D01*
G01*
X16430000Y-11442500D02*
G75*
G03*
X16430000Y-11442500I-20000J0D01*
G01*
X16437500Y-11955000D02*
G75*
G03*
X16437500Y-11955000I-20000J0D01*
G01*
X16440000Y-9817500D02*
G75*
G03*
X16440000Y-9817500I-20000J0D01*
G01*
X16475000Y-8605000D02*
G75*
G03*
X16475000Y-8605000I-20000J0D01*
G01*
X16475000Y-9995000D02*
G75*
G03*
X16475000Y-9995000I-20000J0D01*
G01*
X16480000Y-10755000D02*
G75*
G03*
X16480000Y-10755000I-20000J0D01*
G01*
X16530000Y-7685000D02*
G75*
G03*
X16530000Y-7685000I-20000J0D01*
G01*
X16530000Y-10885000D02*
G75*
G03*
X16530000Y-10885000I-20000J0D01*
G01*
X16530000Y-11085000D02*
G75*
G03*
X16530000Y-11085000I-20000J0D01*
G01*
X16540000Y-9347500D02*
G75*
G03*
X16540000Y-9347500I-20000J0D01*
G01*
X16585000Y-9910000D02*
G75*
G03*
X16585000Y-9910000I-20000J0D01*
G01*
X16590000Y-9240000D02*
G75*
G03*
X16590000Y-9240000I-20000J0D01*
G01*
X16590000Y-14465000D02*
G75*
G03*
X16590000Y-14465000I-20000J0D01*
G01*
X16617500Y-12595000D02*
G75*
G03*
X16617500Y-12595000I-20000J0D01*
G01*
X16730000Y-7685000D02*
G75*
G03*
X16730000Y-7685000I-20000J0D01*
G01*
X16730000Y-8485000D02*
G75*
G03*
X16730000Y-8485000I-20000J0D01*
G01*
X16730000Y-11085000D02*
G75*
G03*
X16730000Y-11085000I-20000J0D01*
G01*
X16730000Y-12055000D02*
G75*
G03*
X16730000Y-12055000I-20000J0D01*
G01*
X16747500Y-12595000D02*
G75*
G03*
X16747500Y-12595000I-20000J0D01*
G01*
X16767500Y-15345000D02*
G75*
G03*
X16767500Y-15345000I-20000J0D01*
G01*
X16830000Y-13485000D02*
G75*
G03*
X16830000Y-13485000I-20000J0D01*
G01*
X16830000Y-13685000D02*
G75*
G03*
X16830000Y-13685000I-20000J0D01*
G01*
X16830000Y-13985000D02*
G75*
G03*
X16830000Y-13985000I-20000J0D01*
G01*
X16830000Y-14185000D02*
G75*
G03*
X16830000Y-14185000I-20000J0D01*
G01*
X16840000Y-11862500D02*
G75*
G03*
X16840000Y-11862500I-20000J0D01*
G01*
X16867500Y-12595000D02*
G75*
G03*
X16867500Y-12595000I-20000J0D01*
G01*
X16897500Y-10565000D02*
G75*
G03*
X16897500Y-10565000I-20000J0D01*
G01*
X16900000Y-11240836D02*
G75*
G03*
X16900000Y-11240836I-20000J0D01*
G01*
X16930000Y-7685000D02*
G75*
G03*
X16930000Y-7685000I-20000J0D01*
G01*
X16930000Y-7885000D02*
G75*
G03*
X16930000Y-7885000I-20000J0D01*
G01*
X16930000Y-8085000D02*
G75*
G03*
X16930000Y-8085000I-20000J0D01*
G01*
X16930000Y-8285000D02*
G75*
G03*
X16930000Y-8285000I-20000J0D01*
G01*
X16930000Y-11085000D02*
G75*
G03*
X16930000Y-11085000I-20000J0D01*
G01*
X16930000Y-11812500D02*
G75*
G03*
X16930000Y-11812500I-20000J0D01*
G01*
X16930000Y-16085000D02*
G75*
G03*
X16930000Y-16085000I-20000J0D01*
G01*
X16937500Y-10305000D02*
G75*
G03*
X16937500Y-10305000I-20000J0D01*
G01*
X16947500Y-13075000D02*
G75*
G03*
X16947500Y-13075000I-20000J0D01*
G01*
X16977500Y-9455000D02*
G75*
G03*
X16977500Y-9455000I-20000J0D01*
G01*
X16987500Y-15779687D02*
G75*
G03*
X16987500Y-15779687I-20000J0D01*
G01*
X16987500Y-15949687D02*
G75*
G03*
X16987500Y-15949687I-20000J0D01*
G01*
X17005000Y-9227500D02*
G75*
G03*
X17005000Y-9227500I-20000J0D01*
G01*
X17005000Y-10627500D02*
G75*
G03*
X17005000Y-10627500I-20000J0D01*
G01*
X17080000Y-10915000D02*
G75*
G03*
X17080000Y-10915000I-20000J0D01*
G01*
X17117500Y-15345000D02*
G75*
G03*
X17117500Y-15345000I-20000J0D01*
G01*
X17130000Y-7685000D02*
G75*
G03*
X17130000Y-7685000I-20000J0D01*
G01*
X17130000Y-7885000D02*
G75*
G03*
X17130000Y-7885000I-20000J0D01*
G01*
X17130000Y-8085000D02*
G75*
G03*
X17130000Y-8085000I-20000J0D01*
G01*
X17130000Y-8885000D02*
G75*
G03*
X17130000Y-8885000I-20000J0D01*
G01*
X17157500Y-12305000D02*
G75*
G03*
X17157500Y-12305000I-20000J0D01*
G01*
X17167500Y-12145000D02*
G75*
G03*
X17167500Y-12145000I-20000J0D01*
G01*
X17222500Y-12867500D02*
G75*
G03*
X17222500Y-12867500I-20000J0D01*
G01*
X17250000Y-7745000D02*
G75*
G03*
X17250000Y-7745000I-20000J0D01*
G01*
X17317500Y-15575000D02*
G75*
G03*
X17317500Y-15575000I-20000J0D01*
G01*
X17330000Y-8885000D02*
G75*
G03*
X17330000Y-8885000I-20000J0D01*
G01*
X17330000Y-13985000D02*
G75*
G03*
X17330000Y-13985000I-20000J0D01*
G01*
X17330000Y-14185000D02*
G75*
G03*
X17330000Y-14185000I-20000J0D01*
G01*
X17367500Y-13025000D02*
G75*
G03*
X17367500Y-13025000I-20000J0D01*
G01*
X17370000Y-10495000D02*
G75*
G03*
X17370000Y-10495000I-20000J0D01*
G01*
X17430000Y-14915000D02*
G75*
G03*
X17430000Y-14915000I-20000J0D01*
G01*
X17457500Y-12325000D02*
G75*
G03*
X17457500Y-12325000I-20000J0D01*
G01*
X17460000Y-12215000D02*
G75*
G03*
X17460000Y-12215000I-20000J0D01*
G01*
X17462198Y-8151133D02*
G75*
G03*
X17462198Y-8151133I-20000J0D01*
G01*
X17477500Y-13255000D02*
G75*
G03*
X17477500Y-13255000I-20000J0D01*
G01*
X17530000Y-8685000D02*
G75*
G03*
X17530000Y-8685000I-20000J0D01*
G01*
X17530000Y-8885000D02*
G75*
G03*
X17530000Y-8885000I-20000J0D01*
G01*
X17530000Y-9085000D02*
G75*
G03*
X17530000Y-9085000I-20000J0D01*
G01*
X17530000Y-11685000D02*
G75*
G03*
X17530000Y-11685000I-20000J0D01*
G01*
X17530000Y-11885000D02*
G75*
G03*
X17530000Y-11885000I-20000J0D01*
G01*
X17530000Y-13485000D02*
G75*
G03*
X17530000Y-13485000I-20000J0D01*
G01*
X17530000Y-13685000D02*
G75*
G03*
X17530000Y-13685000I-20000J0D01*
G01*
X17530000Y-13985000D02*
G75*
G03*
X17530000Y-13985000I-20000J0D01*
G01*
X17550000Y-13085000D02*
G75*
G03*
X17550000Y-13085000I-20000J0D01*
G01*
X17590000Y-10955000D02*
G75*
G03*
X17590000Y-10955000I-20000J0D01*
G01*
X17610000Y-12185000D02*
G75*
G03*
X17610000Y-12185000I-20000J0D01*
G01*
X17707500Y-8665000D02*
G75*
G03*
X17707500Y-8665000I-20000J0D01*
G01*
X17730000Y-8885000D02*
G75*
G03*
X17730000Y-8885000I-20000J0D01*
G01*
X17730000Y-9085000D02*
G75*
G03*
X17730000Y-9085000I-20000J0D01*
G01*
X17810000Y-9944195D02*
G75*
G03*
X17810000Y-9944195I-20000J0D01*
G01*
X17930000Y-8885000D02*
G75*
G03*
X17930000Y-8885000I-20000J0D01*
G01*
X17930000Y-9085000D02*
G75*
G03*
X17930000Y-9085000I-20000J0D01*
G01*
X17937500Y-8665000D02*
G75*
G03*
X17937500Y-8665000I-20000J0D01*
G01*
X17987500Y-11755000D02*
G75*
G03*
X17987500Y-11755000I-20000J0D01*
G01*
X18015000Y-9850000D02*
G75*
G03*
X18015000Y-9850000I-20000J0D01*
G01*
X18020000Y-9690000D02*
G75*
G03*
X18020000Y-9690000I-20000J0D01*
G01*
X18127500Y-11775000D02*
G75*
G03*
X18127500Y-11775000I-20000J0D01*
G01*
X18130000Y-8085000D02*
G75*
G03*
X18130000Y-8085000I-20000J0D01*
G01*
X18130000Y-8285000D02*
G75*
G03*
X18130000Y-8285000I-20000J0D01*
G01*
X18130000Y-8485000D02*
G75*
G03*
X18130000Y-8485000I-20000J0D01*
G01*
X18130000Y-8685000D02*
G75*
G03*
X18130000Y-8685000I-20000J0D01*
G01*
X18130000Y-8885000D02*
G75*
G03*
X18130000Y-8885000I-20000J0D01*
G01*
X18180000Y-9985000D02*
G75*
G03*
X18180000Y-9985000I-20000J0D01*
G01*
X18180205Y-10925259D02*
G75*
G03*
X18180205Y-10925259I-20000J0D01*
G01*
X18230000Y-13015000D02*
G75*
G03*
X18230000Y-13015000I-20000J0D01*
G01*
X18247500Y-13145000D02*
G75*
G03*
X18247500Y-13145000I-20000J0D01*
G01*
X18317500Y-11725000D02*
G75*
G03*
X18317500Y-11725000I-20000J0D01*
G01*
X18317500Y-11895000D02*
G75*
G03*
X18317500Y-11895000I-20000J0D01*
G01*
X18327500Y-12755000D02*
G75*
G03*
X18327500Y-12755000I-20000J0D01*
G01*
X18327500Y-13265000D02*
G75*
G03*
X18327500Y-13265000I-20000J0D01*
G01*
X18344988Y-10922561D02*
G75*
G03*
X18344988Y-10922561I-20000J0D01*
G01*
X18347500Y-15015000D02*
G75*
G03*
X18347500Y-15015000I-20000J0D01*
G01*
X18347500Y-15275000D02*
G75*
G03*
X18347500Y-15275000I-20000J0D01*
G01*
X18380000Y-13545000D02*
G75*
G03*
X18380000Y-13545000I-20000J0D01*
G01*
X18390000Y-7745000D02*
G75*
G03*
X18390000Y-7745000I-20000J0D01*
G01*
X18477500Y-8485000D02*
G75*
G03*
X18477500Y-8485000I-20000J0D01*
G01*
X18530000Y-7685000D02*
G75*
G03*
X18530000Y-7685000I-20000J0D01*
G01*
X18530000Y-7885000D02*
G75*
G03*
X18530000Y-7885000I-20000J0D01*
G01*
X18530000Y-8085000D02*
G75*
G03*
X18530000Y-8085000I-20000J0D01*
G01*
X18530000Y-8285000D02*
G75*
G03*
X18530000Y-8285000I-20000J0D01*
G01*
X18632500Y-8482500D02*
G75*
G03*
X18632500Y-8482500I-20000J0D01*
G01*
X18717500Y-12755000D02*
G75*
G03*
X18717500Y-12755000I-20000J0D01*
G01*
X18717500Y-14501250D02*
G75*
G03*
X18717500Y-14501250I-20000J0D01*
G01*
X18730000Y-7685000D02*
G75*
G03*
X18730000Y-7685000I-20000J0D01*
G01*
X18730000Y-7885000D02*
G75*
G03*
X18730000Y-7885000I-20000J0D01*
G01*
X18730000Y-8085000D02*
G75*
G03*
X18730000Y-8085000I-20000J0D01*
G01*
X18730000Y-8285000D02*
G75*
G03*
X18730000Y-8285000I-20000J0D01*
G01*
X18730000Y-13685000D02*
G75*
G03*
X18730000Y-13685000I-20000J0D01*
G01*
X18730000Y-13885000D02*
G75*
G03*
X18730000Y-13885000I-20000J0D01*
G01*
X18730000Y-15685000D02*
G75*
G03*
X18730000Y-15685000I-20000J0D01*
G01*
X18730000Y-15885000D02*
G75*
G03*
X18730000Y-15885000I-20000J0D01*
G01*
X18730000Y-16085000D02*
G75*
G03*
X18730000Y-16085000I-20000J0D01*
G01*
X18737500Y-14955000D02*
G75*
G03*
X18737500Y-14955000I-20000J0D01*
G01*
X18737500Y-15045000D02*
G75*
G03*
X18737500Y-15045000I-20000J0D01*
G01*
X18737500Y-15135000D02*
G75*
G03*
X18737500Y-15135000I-20000J0D01*
G01*
X18737500Y-15225000D02*
G75*
G03*
X18737500Y-15225000I-20000J0D01*
G01*
X18737500Y-15315000D02*
G75*
G03*
X18737500Y-15315000I-20000J0D01*
G01*
X18797500Y-8482500D02*
G75*
G03*
X18797500Y-8482500I-20000J0D01*
G01*
X18797500Y-13255000D02*
G75*
G03*
X18797500Y-13255000I-20000J0D01*
G01*
X18807500Y-12745000D02*
G75*
G03*
X18807500Y-12745000I-20000J0D01*
G01*
X18900000Y-12432500D02*
G75*
G03*
X18900000Y-12432500I-20000J0D01*
G01*
X18930000Y-7685000D02*
G75*
G03*
X18930000Y-7685000I-20000J0D01*
G01*
X18930000Y-8485000D02*
G75*
G03*
X18930000Y-8485000I-20000J0D01*
G01*
X18930000Y-13885000D02*
G75*
G03*
X18930000Y-13885000I-20000J0D01*
G01*
X19007500Y-10215000D02*
G75*
G03*
X19007500Y-10215000I-20000J0D01*
G01*
X19017500Y-10875000D02*
G75*
G03*
X19017500Y-10875000I-20000J0D01*
G01*
X19030000Y-9015000D02*
G75*
G03*
X19030000Y-9015000I-20000J0D01*
G01*
X19087500Y-14501250D02*
G75*
G03*
X19087500Y-14501250I-20000J0D01*
G01*
X19090000Y-11565000D02*
G75*
G03*
X19090000Y-11565000I-20000J0D01*
G01*
X19125000Y-9467500D02*
G75*
G03*
X19125000Y-9467500I-20000J0D01*
G01*
X19125000Y-9647500D02*
G75*
G03*
X19125000Y-9647500I-20000J0D01*
G01*
X19130000Y-7685000D02*
G75*
G03*
X19130000Y-7685000I-20000J0D01*
G01*
X19130000Y-8485000D02*
G75*
G03*
X19130000Y-8485000I-20000J0D01*
G01*
X19135000Y-9997500D02*
G75*
G03*
X19135000Y-9997500I-20000J0D01*
G01*
X19147500Y-15075000D02*
G75*
G03*
X19147500Y-15075000I-20000J0D01*
G01*
X19147500Y-15345000D02*
G75*
G03*
X19147500Y-15345000I-20000J0D01*
G01*
X19187500Y-12745000D02*
G75*
G03*
X19187500Y-12745000I-20000J0D01*
G01*
X19187500Y-14181250D02*
G75*
G03*
X19187500Y-14181250I-20000J0D01*
G01*
X19187500Y-14291250D02*
G75*
G03*
X19187500Y-14291250I-20000J0D01*
G01*
X19187500Y-14391250D02*
G75*
G03*
X19187500Y-14391250I-20000J0D01*
G01*
X19187500Y-14501250D02*
G75*
G03*
X19187500Y-14501250I-20000J0D01*
G01*
X19217500Y-10845000D02*
G75*
G03*
X19217500Y-10845000I-20000J0D01*
G01*
X19217500Y-11495000D02*
G75*
G03*
X19217500Y-11495000I-20000J0D01*
G01*
X19247500Y-12265000D02*
G75*
G03*
X19247500Y-12265000I-20000J0D01*
G01*
X19312790Y-12122500D02*
G75*
G03*
X19312790Y-12122500I-20000J0D01*
G01*
X19330000Y-7685000D02*
G75*
G03*
X19330000Y-7685000I-20000J0D01*
G01*
X19330000Y-8485000D02*
G75*
G03*
X19330000Y-8485000I-20000J0D01*
G01*
X19330000Y-9885000D02*
G75*
G03*
X19330000Y-9885000I-20000J0D01*
G01*
X19330000Y-10085000D02*
G75*
G03*
X19330000Y-10085000I-20000J0D01*
G01*
X19347500Y-13025000D02*
G75*
G03*
X19347500Y-13025000I-20000J0D01*
G01*
X19377500Y-10845000D02*
G75*
G03*
X19377500Y-10845000I-20000J0D01*
G01*
X19380000Y-12275000D02*
G75*
G03*
X19380000Y-12275000I-20000J0D01*
G01*
X19380000Y-12425000D02*
G75*
G03*
X19380000Y-12425000I-20000J0D01*
G01*
X19387500Y-11495000D02*
G75*
G03*
X19387500Y-11495000I-20000J0D01*
G01*
X19450000Y-9415000D02*
G75*
G03*
X19450000Y-9415000I-20000J0D01*
G01*
X19480000Y-8655000D02*
G75*
G03*
X19480000Y-8655000I-20000J0D01*
G01*
X19480000Y-9805000D02*
G75*
G03*
X19480000Y-9805000I-20000J0D01*
G01*
X19490000Y-9015000D02*
G75*
G03*
X19490000Y-9015000I-20000J0D01*
G01*
X19507500Y-10215000D02*
G75*
G03*
X19507500Y-10215000I-20000J0D01*
G01*
X19507500Y-10385000D02*
G75*
G03*
X19507500Y-10385000I-20000J0D01*
G01*
X19507500Y-10525000D02*
G75*
G03*
X19507500Y-10525000I-20000J0D01*
G01*
X19507500Y-10695000D02*
G75*
G03*
X19507500Y-10695000I-20000J0D01*
G01*
X19530000Y-7685000D02*
G75*
G03*
X19530000Y-7685000I-20000J0D01*
G01*
X19530000Y-7885000D02*
G75*
G03*
X19530000Y-7885000I-20000J0D01*
G01*
X19530000Y-8485000D02*
G75*
G03*
X19530000Y-8485000I-20000J0D01*
G01*
X19530000Y-9885000D02*
G75*
G03*
X19530000Y-9885000I-20000J0D01*
G01*
X19530000Y-10085000D02*
G75*
G03*
X19530000Y-10085000I-20000J0D01*
G01*
X19530000Y-11135000D02*
G75*
G03*
X19530000Y-11135000I-20000J0D01*
G01*
X19530000Y-11625000D02*
G75*
G03*
X19530000Y-11625000I-20000J0D01*
G01*
X19530000Y-15685000D02*
G75*
G03*
X19530000Y-15685000I-20000J0D01*
G01*
X19530000Y-15885000D02*
G75*
G03*
X19530000Y-15885000I-20000J0D01*
G01*
X19530000Y-16085000D02*
G75*
G03*
X19530000Y-16085000I-20000J0D01*
G01*
D14*
X16050000Y-11125000D02*
X16050000Y-11185000D01*
X16020000Y-11155000D02*
X16080000Y-11155000D01*
D11*
X16085000Y-11125000D02*
X16015000Y-11125000D01*
X16015000Y-11125000D02*
G75*
G03*
X16015000Y-11185000I0J-30000D01*
G01*
X16015000Y-11185000D02*
X16085000Y-11185000D01*
X16085000Y-11185000D02*
G75*
G03*
X16085000Y-11125000I0J30000D01*
G01*
D14*
X16050000Y-11960000D02*
X16050000Y-12020000D01*
X16020000Y-11990000D02*
X16080000Y-11990000D01*
D11*
X16085000Y-11960000D02*
X16015000Y-11960000D01*
X16015000Y-11960000D02*
G75*
G03*
X16015000Y-12020000I0J-30000D01*
G01*
X16015000Y-12020000D02*
X16085000Y-12020000D01*
X16085000Y-12020000D02*
G75*
G03*
X16085000Y-11960000I0J30000D01*
G01*
D15*
X16372981Y-11372981D02*
X16372981Y-11327019D01*
X16327019Y-11327019D01*
X16327019Y-11372981D01*
X16372981Y-11372981D01*
D11*
X16360000Y-11317500D02*
X16340000Y-11317500D01*
X16340000Y-11317500D02*
G75*
G03*
X16340000Y-11382500I0J-32500D01*
G01*
X16340000Y-11382500D02*
X16360000Y-11382500D01*
X16360000Y-11382500D02*
G75*
G03*
X16360000Y-11317500I0J32500D01*
G01*
D15*
X16372981Y-11817981D02*
X16372981Y-11772019D01*
X16327019Y-11772019D01*
X16327019Y-11817981D01*
X16372981Y-11817981D01*
D11*
X16360000Y-11762500D02*
X16340000Y-11762500D01*
X16340000Y-11762500D02*
G75*
G03*
X16340000Y-11827500I0J-32500D01*
G01*
X16340000Y-11827500D02*
X16360000Y-11827500D01*
X16360000Y-11827500D02*
G75*
G03*
X16360000Y-11762500I0J32500D01*
G01*
D10*
X16085000Y-13331250D02*
X16135000Y-13281250D01*
X16085000Y-13231250D01*
X16035000Y-13281250D01*
X16085000Y-13331250D01*
X16085000Y-14431250D02*
X16135000Y-14381250D01*
X16085000Y-14331250D01*
X16035000Y-14381250D01*
X16085000Y-14431250D01*
D16*
X16132500Y-14790000D02*
X16242500Y-14900000D01*
X16242500Y-14790000D02*
X16132500Y-14900000D01*
X16242500Y-14845000D02*
G75*
G03*
X16242500Y-14845000I-55000J0D01*
G01*
X16132500Y-15044000D02*
X16242500Y-15154000D01*
X16242500Y-15044000D02*
X16132500Y-15154000D01*
X16242500Y-15099000D02*
G75*
G03*
X16242500Y-15099000I-55000J0D01*
G01*
X17490500Y-15990000D02*
X17600500Y-16100000D01*
X17600500Y-15990000D02*
X17490500Y-16100000D01*
X17600500Y-16045000D02*
G75*
G03*
X17600500Y-16045000I-55000J0D01*
G01*
X17744500Y-15990000D02*
X17854500Y-16100000D01*
X17854500Y-15990000D02*
X17744500Y-16100000D01*
X17854500Y-16045000D02*
G75*
G03*
X17854500Y-16045000I-55000J0D01*
G01*
X17998500Y-15990000D02*
X18108500Y-16100000D01*
X18108500Y-15990000D02*
X17998500Y-16100000D01*
X18108500Y-16045000D02*
G75*
G03*
X18108500Y-16045000I-55000J0D01*
G01*
X18252500Y-15990000D02*
X18362500Y-16100000D01*
X18362500Y-15990000D02*
X18252500Y-16100000D01*
X18362500Y-16045000D02*
G75*
G03*
X18362500Y-16045000I-55000J0D01*
G01*
D17*
X16990000Y-13486250D02*
X17180000Y-13676250D01*
X17180000Y-13486250D02*
X16990000Y-13676250D01*
X17085000Y-13486250D02*
X17085000Y-13676250D01*
X16990000Y-13581250D02*
X17180000Y-13581250D01*
X16990000Y-13986250D02*
X17180000Y-14176250D01*
X17180000Y-13986250D02*
X16990000Y-14176250D01*
X17085000Y-13986250D02*
X17085000Y-14176250D01*
X16990000Y-14081250D02*
X17180000Y-14081250D01*
D18*
X16377500Y-7975000D02*
X16697500Y-8295000D01*
X16697500Y-7975000D02*
X16377500Y-8295000D01*
X16650638Y-8248138D02*
X16650638Y-8021862D01*
X16424362Y-8021862D01*
X16424362Y-8248138D01*
X16650638Y-8248138D01*
X16377500Y-15595000D02*
X16697500Y-15915000D01*
X16697500Y-15595000D02*
X16377500Y-15915000D01*
X16650638Y-15868138D02*
X16650638Y-15641862D01*
X16424362Y-15641862D01*
X16424362Y-15868138D01*
X16650638Y-15868138D01*
X18917500Y-7975000D02*
X19237500Y-8295000D01*
X19237500Y-7975000D02*
X18917500Y-8295000D01*
X19190638Y-8248138D02*
X19190638Y-8021862D01*
X18964362Y-8021862D01*
X18964362Y-8248138D01*
X19190638Y-8248138D01*
X18917500Y-15595000D02*
X19237500Y-15915000D01*
X19237500Y-15595000D02*
X18917500Y-15915000D01*
X19190638Y-15868138D02*
X19190638Y-15641862D01*
X18964362Y-15641862D01*
X18964362Y-15868138D01*
X19190638Y-15868138D01*
D11*
X16152619Y-16702524D02*
X16152619Y-16502524D01*
X16152619Y-16502524D02*
X16200238Y-16502524D01*
X16200238Y-16502524D02*
X16228809Y-16512048D01*
X16228809Y-16512048D02*
X16247857Y-16531095D01*
X16247857Y-16531095D02*
X16257381Y-16550143D01*
X16257381Y-16550143D02*
X16266905Y-16588238D01*
X16266905Y-16588238D02*
X16266905Y-16616809D01*
X16266905Y-16616809D02*
X16257381Y-16654905D01*
X16257381Y-16654905D02*
X16247857Y-16673952D01*
X16247857Y-16673952D02*
X16228809Y-16693000D01*
X16228809Y-16693000D02*
X16200238Y-16702524D01*
X16200238Y-16702524D02*
X16152619Y-16702524D01*
X16352619Y-16702524D02*
X16352619Y-16569190D01*
X16352619Y-16607286D02*
X16362143Y-16588238D01*
X16362143Y-16588238D02*
X16371667Y-16578714D01*
X16371667Y-16578714D02*
X16390714Y-16569190D01*
X16390714Y-16569190D02*
X16409762Y-16569190D01*
X16476428Y-16702524D02*
X16476428Y-16569190D01*
X16476428Y-16502524D02*
X16466905Y-16512048D01*
X16466905Y-16512048D02*
X16476428Y-16521571D01*
X16476428Y-16521571D02*
X16485952Y-16512048D01*
X16485952Y-16512048D02*
X16476428Y-16502524D01*
X16476428Y-16502524D02*
X16476428Y-16521571D01*
X16600238Y-16702524D02*
X16581190Y-16693000D01*
X16581190Y-16693000D02*
X16571667Y-16673952D01*
X16571667Y-16673952D02*
X16571667Y-16502524D01*
X16705000Y-16702524D02*
X16685952Y-16693000D01*
X16685952Y-16693000D02*
X16676428Y-16673952D01*
X16676428Y-16673952D02*
X16676428Y-16502524D01*
X16933571Y-16702524D02*
X16933571Y-16502524D01*
X16933571Y-16502524D02*
X17000238Y-16645381D01*
X17000238Y-16645381D02*
X17066905Y-16502524D01*
X17066905Y-16502524D02*
X17066905Y-16702524D01*
X17247857Y-16702524D02*
X17247857Y-16597762D01*
X17247857Y-16597762D02*
X17238333Y-16578714D01*
X17238333Y-16578714D02*
X17219286Y-16569190D01*
X17219286Y-16569190D02*
X17181190Y-16569190D01*
X17181190Y-16569190D02*
X17162143Y-16578714D01*
X17247857Y-16693000D02*
X17228810Y-16702524D01*
X17228810Y-16702524D02*
X17181190Y-16702524D01*
X17181190Y-16702524D02*
X17162143Y-16693000D01*
X17162143Y-16693000D02*
X17152619Y-16673952D01*
X17152619Y-16673952D02*
X17152619Y-16654905D01*
X17152619Y-16654905D02*
X17162143Y-16635857D01*
X17162143Y-16635857D02*
X17181190Y-16626333D01*
X17181190Y-16626333D02*
X17228810Y-16626333D01*
X17228810Y-16626333D02*
X17247857Y-16616809D01*
X17343095Y-16569190D02*
X17343095Y-16769190D01*
X17343095Y-16578714D02*
X17362143Y-16569190D01*
X17362143Y-16569190D02*
X17400238Y-16569190D01*
X17400238Y-16569190D02*
X17419286Y-16578714D01*
X17419286Y-16578714D02*
X17428810Y-16588238D01*
X17428810Y-16588238D02*
X17438333Y-16607286D01*
X17438333Y-16607286D02*
X17438333Y-16664428D01*
X17438333Y-16664428D02*
X17428810Y-16683476D01*
X17428810Y-16683476D02*
X17419286Y-16693000D01*
X17419286Y-16693000D02*
X17400238Y-16702524D01*
X17400238Y-16702524D02*
X17362143Y-16702524D01*
X17362143Y-16702524D02*
X17343095Y-16693000D01*
X17524048Y-16683476D02*
X17533571Y-16693000D01*
X17533571Y-16693000D02*
X17524048Y-16702524D01*
X17524048Y-16702524D02*
X17514524Y-16693000D01*
X17514524Y-16693000D02*
X17524048Y-16683476D01*
X17524048Y-16683476D02*
X17524048Y-16702524D01*
X17524048Y-16578714D02*
X17533571Y-16588238D01*
X17533571Y-16588238D02*
X17524048Y-16597762D01*
X17524048Y-16597762D02*
X17514524Y-16588238D01*
X17514524Y-16588238D02*
X17524048Y-16578714D01*
X17524048Y-16578714D02*
X17524048Y-16597762D01*
D12*
X15875000Y-17015000D02*
X15905000Y-17045000D01*
X15905000Y-17015000D02*
X15875000Y-17045000D01*
D11*
X16190714Y-16922524D02*
X16209762Y-16922524D01*
X16209762Y-16922524D02*
X16228809Y-16932048D01*
X16228809Y-16932048D02*
X16238333Y-16941571D01*
X16238333Y-16941571D02*
X16247857Y-16960619D01*
X16247857Y-16960619D02*
X16257381Y-16998714D01*
X16257381Y-16998714D02*
X16257381Y-17046333D01*
X16257381Y-17046333D02*
X16247857Y-17084429D01*
X16247857Y-17084429D02*
X16238333Y-17103476D01*
X16238333Y-17103476D02*
X16228809Y-17113000D01*
X16228809Y-17113000D02*
X16209762Y-17122524D01*
X16209762Y-17122524D02*
X16190714Y-17122524D01*
X16190714Y-17122524D02*
X16171667Y-17113000D01*
X16171667Y-17113000D02*
X16162143Y-17103476D01*
X16162143Y-17103476D02*
X16152619Y-17084429D01*
X16152619Y-17084429D02*
X16143095Y-17046333D01*
X16143095Y-17046333D02*
X16143095Y-16998714D01*
X16143095Y-16998714D02*
X16152619Y-16960619D01*
X16152619Y-16960619D02*
X16162143Y-16941571D01*
X16162143Y-16941571D02*
X16171667Y-16932048D01*
X16171667Y-16932048D02*
X16190714Y-16922524D01*
X16343095Y-17103476D02*
X16352619Y-17113000D01*
X16352619Y-17113000D02*
X16343095Y-17122524D01*
X16343095Y-17122524D02*
X16333571Y-17113000D01*
X16333571Y-17113000D02*
X16343095Y-17103476D01*
X16343095Y-17103476D02*
X16343095Y-17122524D01*
X16419286Y-16922524D02*
X16543095Y-16922524D01*
X16543095Y-16922524D02*
X16476428Y-16998714D01*
X16476428Y-16998714D02*
X16505000Y-16998714D01*
X16505000Y-16998714D02*
X16524048Y-17008238D01*
X16524048Y-17008238D02*
X16533571Y-17017762D01*
X16533571Y-17017762D02*
X16543095Y-17036810D01*
X16543095Y-17036810D02*
X16543095Y-17084429D01*
X16543095Y-17084429D02*
X16533571Y-17103476D01*
X16533571Y-17103476D02*
X16524048Y-17113000D01*
X16524048Y-17113000D02*
X16505000Y-17122524D01*
X16505000Y-17122524D02*
X16447857Y-17122524D01*
X16447857Y-17122524D02*
X16428809Y-17113000D01*
X16428809Y-17113000D02*
X16419286Y-17103476D01*
X16666905Y-16922524D02*
X16685952Y-16922524D01*
X16685952Y-16922524D02*
X16705000Y-16932048D01*
X16705000Y-16932048D02*
X16714524Y-16941571D01*
X16714524Y-16941571D02*
X16724048Y-16960619D01*
X16724048Y-16960619D02*
X16733571Y-16998714D01*
X16733571Y-16998714D02*
X16733571Y-17046333D01*
X16733571Y-17046333D02*
X16724048Y-17084429D01*
X16724048Y-17084429D02*
X16714524Y-17103476D01*
X16714524Y-17103476D02*
X16705000Y-17113000D01*
X16705000Y-17113000D02*
X16685952Y-17122524D01*
X16685952Y-17122524D02*
X16666905Y-17122524D01*
X16666905Y-17122524D02*
X16647857Y-17113000D01*
X16647857Y-17113000D02*
X16638333Y-17103476D01*
X16638333Y-17103476D02*
X16628809Y-17084429D01*
X16628809Y-17084429D02*
X16619286Y-17046333D01*
X16619286Y-17046333D02*
X16619286Y-16998714D01*
X16619286Y-16998714D02*
X16628809Y-16960619D01*
X16628809Y-16960619D02*
X16638333Y-16941571D01*
X16638333Y-16941571D02*
X16647857Y-16932048D01*
X16647857Y-16932048D02*
X16666905Y-16922524D01*
X16857381Y-16922524D02*
X16876429Y-16922524D01*
X16876429Y-16922524D02*
X16895476Y-16932048D01*
X16895476Y-16932048D02*
X16905000Y-16941571D01*
X16905000Y-16941571D02*
X16914524Y-16960619D01*
X16914524Y-16960619D02*
X16924048Y-16998714D01*
X16924048Y-16998714D02*
X16924048Y-17046333D01*
X16924048Y-17046333D02*
X16914524Y-17084429D01*
X16914524Y-17084429D02*
X16905000Y-17103476D01*
X16905000Y-17103476D02*
X16895476Y-17113000D01*
X16895476Y-17113000D02*
X16876429Y-17122524D01*
X16876429Y-17122524D02*
X16857381Y-17122524D01*
X16857381Y-17122524D02*
X16838333Y-17113000D01*
X16838333Y-17113000D02*
X16828810Y-17103476D01*
X16828810Y-17103476D02*
X16819286Y-17084429D01*
X16819286Y-17084429D02*
X16809762Y-17046333D01*
X16809762Y-17046333D02*
X16809762Y-16998714D01*
X16809762Y-16998714D02*
X16819286Y-16960619D01*
X16819286Y-16960619D02*
X16828810Y-16941571D01*
X16828810Y-16941571D02*
X16838333Y-16932048D01*
X16838333Y-16932048D02*
X16857381Y-16922524D01*
X17009762Y-17122524D02*
X17009762Y-16989190D01*
X17009762Y-17008238D02*
X17019286Y-16998714D01*
X17019286Y-16998714D02*
X17038333Y-16989190D01*
X17038333Y-16989190D02*
X17066905Y-16989190D01*
X17066905Y-16989190D02*
X17085952Y-16998714D01*
X17085952Y-16998714D02*
X17095476Y-17017762D01*
X17095476Y-17017762D02*
X17095476Y-17122524D01*
X17095476Y-17017762D02*
X17105000Y-16998714D01*
X17105000Y-16998714D02*
X17124048Y-16989190D01*
X17124048Y-16989190D02*
X17152619Y-16989190D01*
X17152619Y-16989190D02*
X17171667Y-16998714D01*
X17171667Y-16998714D02*
X17181191Y-17017762D01*
X17181191Y-17017762D02*
X17181191Y-17122524D01*
X17276429Y-17122524D02*
X17276429Y-16989190D01*
X17276429Y-17008238D02*
X17285952Y-16998714D01*
X17285952Y-16998714D02*
X17305000Y-16989190D01*
X17305000Y-16989190D02*
X17333572Y-16989190D01*
X17333572Y-16989190D02*
X17352619Y-16998714D01*
X17352619Y-16998714D02*
X17362143Y-17017762D01*
X17362143Y-17017762D02*
X17362143Y-17122524D01*
X17362143Y-17017762D02*
X17371667Y-16998714D01*
X17371667Y-16998714D02*
X17390714Y-16989190D01*
X17390714Y-16989190D02*
X17419286Y-16989190D01*
X17419286Y-16989190D02*
X17438333Y-16998714D01*
X17438333Y-16998714D02*
X17447857Y-17017762D01*
X17447857Y-17017762D02*
X17447857Y-17122524D01*
X17838333Y-16913000D02*
X17666905Y-17170143D01*
X18095476Y-16922524D02*
X18114524Y-16922524D01*
X18114524Y-16922524D02*
X18133572Y-16932048D01*
X18133572Y-16932048D02*
X18143095Y-16941571D01*
X18143095Y-16941571D02*
X18152619Y-16960619D01*
X18152619Y-16960619D02*
X18162143Y-16998714D01*
X18162143Y-16998714D02*
X18162143Y-17046333D01*
X18162143Y-17046333D02*
X18152619Y-17084429D01*
X18152619Y-17084429D02*
X18143095Y-17103476D01*
X18143095Y-17103476D02*
X18133572Y-17113000D01*
X18133572Y-17113000D02*
X18114524Y-17122524D01*
X18114524Y-17122524D02*
X18095476Y-17122524D01*
X18095476Y-17122524D02*
X18076429Y-17113000D01*
X18076429Y-17113000D02*
X18066905Y-17103476D01*
X18066905Y-17103476D02*
X18057381Y-17084429D01*
X18057381Y-17084429D02*
X18047857Y-17046333D01*
X18047857Y-17046333D02*
X18047857Y-16998714D01*
X18047857Y-16998714D02*
X18057381Y-16960619D01*
X18057381Y-16960619D02*
X18066905Y-16941571D01*
X18066905Y-16941571D02*
X18076429Y-16932048D01*
X18076429Y-16932048D02*
X18095476Y-16922524D01*
X18247857Y-17103476D02*
X18257381Y-17113000D01*
X18257381Y-17113000D02*
X18247857Y-17122524D01*
X18247857Y-17122524D02*
X18238334Y-17113000D01*
X18238334Y-17113000D02*
X18247857Y-17103476D01*
X18247857Y-17103476D02*
X18247857Y-17122524D01*
X18381191Y-16922524D02*
X18400238Y-16922524D01*
X18400238Y-16922524D02*
X18419286Y-16932048D01*
X18419286Y-16932048D02*
X18428810Y-16941571D01*
X18428810Y-16941571D02*
X18438334Y-16960619D01*
X18438334Y-16960619D02*
X18447857Y-16998714D01*
X18447857Y-16998714D02*
X18447857Y-17046333D01*
X18447857Y-17046333D02*
X18438334Y-17084429D01*
X18438334Y-17084429D02*
X18428810Y-17103476D01*
X18428810Y-17103476D02*
X18419286Y-17113000D01*
X18419286Y-17113000D02*
X18400238Y-17122524D01*
X18400238Y-17122524D02*
X18381191Y-17122524D01*
X18381191Y-17122524D02*
X18362143Y-17113000D01*
X18362143Y-17113000D02*
X18352619Y-17103476D01*
X18352619Y-17103476D02*
X18343095Y-17084429D01*
X18343095Y-17084429D02*
X18333572Y-17046333D01*
X18333572Y-17046333D02*
X18333572Y-16998714D01*
X18333572Y-16998714D02*
X18343095Y-16960619D01*
X18343095Y-16960619D02*
X18352619Y-16941571D01*
X18352619Y-16941571D02*
X18362143Y-16932048D01*
X18362143Y-16932048D02*
X18381191Y-16922524D01*
X18638334Y-17122524D02*
X18524048Y-17122524D01*
X18581191Y-17122524D02*
X18581191Y-16922524D01*
X18581191Y-16922524D02*
X18562143Y-16951095D01*
X18562143Y-16951095D02*
X18543095Y-16970143D01*
X18543095Y-16970143D02*
X18524048Y-16979667D01*
X18828810Y-17122524D02*
X18714524Y-17122524D01*
X18771667Y-17122524D02*
X18771667Y-16922524D01*
X18771667Y-16922524D02*
X18752619Y-16951095D01*
X18752619Y-16951095D02*
X18733572Y-16970143D01*
X18733572Y-16970143D02*
X18714524Y-16979667D01*
X18943095Y-17008238D02*
X18924048Y-16998714D01*
X18924048Y-16998714D02*
X18914524Y-16989190D01*
X18914524Y-16989190D02*
X18905000Y-16970143D01*
X18905000Y-16970143D02*
X18905000Y-16960619D01*
X18905000Y-16960619D02*
X18914524Y-16941571D01*
X18914524Y-16941571D02*
X18924048Y-16932048D01*
X18924048Y-16932048D02*
X18943095Y-16922524D01*
X18943095Y-16922524D02*
X18981191Y-16922524D01*
X18981191Y-16922524D02*
X19000238Y-16932048D01*
X19000238Y-16932048D02*
X19009762Y-16941571D01*
X19009762Y-16941571D02*
X19019286Y-16960619D01*
X19019286Y-16960619D02*
X19019286Y-16970143D01*
X19019286Y-16970143D02*
X19009762Y-16989190D01*
X19009762Y-16989190D02*
X19000238Y-16998714D01*
X19000238Y-16998714D02*
X18981191Y-17008238D01*
X18981191Y-17008238D02*
X18943095Y-17008238D01*
X18943095Y-17008238D02*
X18924048Y-17017762D01*
X18924048Y-17017762D02*
X18914524Y-17027286D01*
X18914524Y-17027286D02*
X18905000Y-17046333D01*
X18905000Y-17046333D02*
X18905000Y-17084429D01*
X18905000Y-17084429D02*
X18914524Y-17103476D01*
X18914524Y-17103476D02*
X18924048Y-17113000D01*
X18924048Y-17113000D02*
X18943095Y-17122524D01*
X18943095Y-17122524D02*
X18981191Y-17122524D01*
X18981191Y-17122524D02*
X19000238Y-17113000D01*
X19000238Y-17113000D02*
X19009762Y-17103476D01*
X19009762Y-17103476D02*
X19019286Y-17084429D01*
X19019286Y-17084429D02*
X19019286Y-17046333D01*
X19019286Y-17046333D02*
X19009762Y-17027286D01*
X19009762Y-17027286D02*
X19000238Y-17017762D01*
X19000238Y-17017762D02*
X18981191Y-17008238D01*
X19095476Y-16922524D02*
X19095476Y-16960619D01*
X19171667Y-16922524D02*
X19171667Y-16960619D01*
X19466905Y-17198714D02*
X19457381Y-17189190D01*
X19457381Y-17189190D02*
X19438334Y-17160619D01*
X19438334Y-17160619D02*
X19428810Y-17141571D01*
X19428810Y-17141571D02*
X19419286Y-17113000D01*
X19419286Y-17113000D02*
X19409762Y-17065381D01*
X19409762Y-17065381D02*
X19409762Y-17027286D01*
X19409762Y-17027286D02*
X19419286Y-16979667D01*
X19419286Y-16979667D02*
X19428810Y-16951095D01*
X19428810Y-16951095D02*
X19438334Y-16932048D01*
X19438334Y-16932048D02*
X19457381Y-16903476D01*
X19457381Y-16903476D02*
X19466905Y-16893952D01*
X19628810Y-16989190D02*
X19628810Y-17122524D01*
X19581191Y-16913000D02*
X19533572Y-17055857D01*
X19533572Y-17055857D02*
X19657381Y-17055857D01*
X19838334Y-17122524D02*
X19724048Y-17122524D01*
X19781191Y-17122524D02*
X19781191Y-16922524D01*
X19781191Y-16922524D02*
X19762143Y-16951095D01*
X19762143Y-16951095D02*
X19743096Y-16970143D01*
X19743096Y-16970143D02*
X19724048Y-16979667D01*
X20076429Y-17122524D02*
X20076429Y-16922524D01*
X20162143Y-17122524D02*
X20162143Y-17017762D01*
X20162143Y-17017762D02*
X20152619Y-16998714D01*
X20152619Y-16998714D02*
X20133572Y-16989190D01*
X20133572Y-16989190D02*
X20105000Y-16989190D01*
X20105000Y-16989190D02*
X20085953Y-16998714D01*
X20085953Y-16998714D02*
X20076429Y-17008238D01*
X20285953Y-17122524D02*
X20266905Y-17113000D01*
X20266905Y-17113000D02*
X20257381Y-17103476D01*
X20257381Y-17103476D02*
X20247858Y-17084429D01*
X20247858Y-17084429D02*
X20247858Y-17027286D01*
X20247858Y-17027286D02*
X20257381Y-17008238D01*
X20257381Y-17008238D02*
X20266905Y-16998714D01*
X20266905Y-16998714D02*
X20285953Y-16989190D01*
X20285953Y-16989190D02*
X20314524Y-16989190D01*
X20314524Y-16989190D02*
X20333572Y-16998714D01*
X20333572Y-16998714D02*
X20343096Y-17008238D01*
X20343096Y-17008238D02*
X20352619Y-17027286D01*
X20352619Y-17027286D02*
X20352619Y-17084429D01*
X20352619Y-17084429D02*
X20343096Y-17103476D01*
X20343096Y-17103476D02*
X20333572Y-17113000D01*
X20333572Y-17113000D02*
X20314524Y-17122524D01*
X20314524Y-17122524D02*
X20285953Y-17122524D01*
X20466905Y-17122524D02*
X20447858Y-17113000D01*
X20447858Y-17113000D02*
X20438334Y-17093952D01*
X20438334Y-17093952D02*
X20438334Y-16922524D01*
X20619286Y-17113000D02*
X20600239Y-17122524D01*
X20600239Y-17122524D02*
X20562143Y-17122524D01*
X20562143Y-17122524D02*
X20543096Y-17113000D01*
X20543096Y-17113000D02*
X20533572Y-17093952D01*
X20533572Y-17093952D02*
X20533572Y-17017762D01*
X20533572Y-17017762D02*
X20543096Y-16998714D01*
X20543096Y-16998714D02*
X20562143Y-16989190D01*
X20562143Y-16989190D02*
X20600239Y-16989190D01*
X20600239Y-16989190D02*
X20619286Y-16998714D01*
X20619286Y-16998714D02*
X20628810Y-17017762D01*
X20628810Y-17017762D02*
X20628810Y-17036810D01*
X20628810Y-17036810D02*
X20533572Y-17055857D01*
X20705000Y-17113000D02*
X20724048Y-17122524D01*
X20724048Y-17122524D02*
X20762143Y-17122524D01*
X20762143Y-17122524D02*
X20781191Y-17113000D01*
X20781191Y-17113000D02*
X20790715Y-17093952D01*
X20790715Y-17093952D02*
X20790715Y-17084429D01*
X20790715Y-17084429D02*
X20781191Y-17065381D01*
X20781191Y-17065381D02*
X20762143Y-17055857D01*
X20762143Y-17055857D02*
X20733572Y-17055857D01*
X20733572Y-17055857D02*
X20714524Y-17046333D01*
X20714524Y-17046333D02*
X20705000Y-17027286D01*
X20705000Y-17027286D02*
X20705000Y-17017762D01*
X20705000Y-17017762D02*
X20714524Y-16998714D01*
X20714524Y-16998714D02*
X20733572Y-16989190D01*
X20733572Y-16989190D02*
X20762143Y-16989190D01*
X20762143Y-16989190D02*
X20781191Y-16998714D01*
X20857381Y-17198714D02*
X20866905Y-17189190D01*
X20866905Y-17189190D02*
X20885953Y-17160619D01*
X20885953Y-17160619D02*
X20895477Y-17141571D01*
X20895477Y-17141571D02*
X20905000Y-17113000D01*
X20905000Y-17113000D02*
X20914524Y-17065381D01*
X20914524Y-17065381D02*
X20914524Y-17027286D01*
X20914524Y-17027286D02*
X20905000Y-16979667D01*
X20905000Y-16979667D02*
X20895477Y-16951095D01*
X20895477Y-16951095D02*
X20885953Y-16932048D01*
X20885953Y-16932048D02*
X20866905Y-16903476D01*
X20866905Y-16903476D02*
X20857381Y-16893952D01*
D13*
X15905000Y-17294000D02*
G75*
G03*
X15905000Y-17294000I-20000J0D01*
G01*
D11*
X16190714Y-17186524D02*
X16209762Y-17186524D01*
X16209762Y-17186524D02*
X16228809Y-17196048D01*
X16228809Y-17196048D02*
X16238333Y-17205571D01*
X16238333Y-17205571D02*
X16247857Y-17224619D01*
X16247857Y-17224619D02*
X16257381Y-17262714D01*
X16257381Y-17262714D02*
X16257381Y-17310333D01*
X16257381Y-17310333D02*
X16247857Y-17348429D01*
X16247857Y-17348429D02*
X16238333Y-17367476D01*
X16238333Y-17367476D02*
X16228809Y-17377000D01*
X16228809Y-17377000D02*
X16209762Y-17386524D01*
X16209762Y-17386524D02*
X16190714Y-17386524D01*
X16190714Y-17386524D02*
X16171667Y-17377000D01*
X16171667Y-17377000D02*
X16162143Y-17367476D01*
X16162143Y-17367476D02*
X16152619Y-17348429D01*
X16152619Y-17348429D02*
X16143095Y-17310333D01*
X16143095Y-17310333D02*
X16143095Y-17262714D01*
X16143095Y-17262714D02*
X16152619Y-17224619D01*
X16152619Y-17224619D02*
X16162143Y-17205571D01*
X16162143Y-17205571D02*
X16171667Y-17196048D01*
X16171667Y-17196048D02*
X16190714Y-17186524D01*
X16343095Y-17367476D02*
X16352619Y-17377000D01*
X16352619Y-17377000D02*
X16343095Y-17386524D01*
X16343095Y-17386524D02*
X16333571Y-17377000D01*
X16333571Y-17377000D02*
X16343095Y-17367476D01*
X16343095Y-17367476D02*
X16343095Y-17386524D01*
X16524048Y-17253190D02*
X16524048Y-17386524D01*
X16476428Y-17177000D02*
X16428809Y-17319857D01*
X16428809Y-17319857D02*
X16552619Y-17319857D01*
X16666905Y-17186524D02*
X16685952Y-17186524D01*
X16685952Y-17186524D02*
X16705000Y-17196048D01*
X16705000Y-17196048D02*
X16714524Y-17205571D01*
X16714524Y-17205571D02*
X16724048Y-17224619D01*
X16724048Y-17224619D02*
X16733571Y-17262714D01*
X16733571Y-17262714D02*
X16733571Y-17310333D01*
X16733571Y-17310333D02*
X16724048Y-17348429D01*
X16724048Y-17348429D02*
X16714524Y-17367476D01*
X16714524Y-17367476D02*
X16705000Y-17377000D01*
X16705000Y-17377000D02*
X16685952Y-17386524D01*
X16685952Y-17386524D02*
X16666905Y-17386524D01*
X16666905Y-17386524D02*
X16647857Y-17377000D01*
X16647857Y-17377000D02*
X16638333Y-17367476D01*
X16638333Y-17367476D02*
X16628809Y-17348429D01*
X16628809Y-17348429D02*
X16619286Y-17310333D01*
X16619286Y-17310333D02*
X16619286Y-17262714D01*
X16619286Y-17262714D02*
X16628809Y-17224619D01*
X16628809Y-17224619D02*
X16638333Y-17205571D01*
X16638333Y-17205571D02*
X16647857Y-17196048D01*
X16647857Y-17196048D02*
X16666905Y-17186524D01*
X16857381Y-17186524D02*
X16876429Y-17186524D01*
X16876429Y-17186524D02*
X16895476Y-17196048D01*
X16895476Y-17196048D02*
X16905000Y-17205571D01*
X16905000Y-17205571D02*
X16914524Y-17224619D01*
X16914524Y-17224619D02*
X16924048Y-17262714D01*
X16924048Y-17262714D02*
X16924048Y-17310333D01*
X16924048Y-17310333D02*
X16914524Y-17348429D01*
X16914524Y-17348429D02*
X16905000Y-17367476D01*
X16905000Y-17367476D02*
X16895476Y-17377000D01*
X16895476Y-17377000D02*
X16876429Y-17386524D01*
X16876429Y-17386524D02*
X16857381Y-17386524D01*
X16857381Y-17386524D02*
X16838333Y-17377000D01*
X16838333Y-17377000D02*
X16828810Y-17367476D01*
X16828810Y-17367476D02*
X16819286Y-17348429D01*
X16819286Y-17348429D02*
X16809762Y-17310333D01*
X16809762Y-17310333D02*
X16809762Y-17262714D01*
X16809762Y-17262714D02*
X16819286Y-17224619D01*
X16819286Y-17224619D02*
X16828810Y-17205571D01*
X16828810Y-17205571D02*
X16838333Y-17196048D01*
X16838333Y-17196048D02*
X16857381Y-17186524D01*
X17009762Y-17386524D02*
X17009762Y-17253190D01*
X17009762Y-17272238D02*
X17019286Y-17262714D01*
X17019286Y-17262714D02*
X17038333Y-17253190D01*
X17038333Y-17253190D02*
X17066905Y-17253190D01*
X17066905Y-17253190D02*
X17085952Y-17262714D01*
X17085952Y-17262714D02*
X17095476Y-17281762D01*
X17095476Y-17281762D02*
X17095476Y-17386524D01*
X17095476Y-17281762D02*
X17105000Y-17262714D01*
X17105000Y-17262714D02*
X17124048Y-17253190D01*
X17124048Y-17253190D02*
X17152619Y-17253190D01*
X17152619Y-17253190D02*
X17171667Y-17262714D01*
X17171667Y-17262714D02*
X17181191Y-17281762D01*
X17181191Y-17281762D02*
X17181191Y-17386524D01*
X17276429Y-17386524D02*
X17276429Y-17253190D01*
X17276429Y-17272238D02*
X17285952Y-17262714D01*
X17285952Y-17262714D02*
X17305000Y-17253190D01*
X17305000Y-17253190D02*
X17333572Y-17253190D01*
X17333572Y-17253190D02*
X17352619Y-17262714D01*
X17352619Y-17262714D02*
X17362143Y-17281762D01*
X17362143Y-17281762D02*
X17362143Y-17386524D01*
X17362143Y-17281762D02*
X17371667Y-17262714D01*
X17371667Y-17262714D02*
X17390714Y-17253190D01*
X17390714Y-17253190D02*
X17419286Y-17253190D01*
X17419286Y-17253190D02*
X17438333Y-17262714D01*
X17438333Y-17262714D02*
X17447857Y-17281762D01*
X17447857Y-17281762D02*
X17447857Y-17386524D01*
X17838333Y-17177000D02*
X17666905Y-17434143D01*
X18095476Y-17186524D02*
X18114524Y-17186524D01*
X18114524Y-17186524D02*
X18133572Y-17196048D01*
X18133572Y-17196048D02*
X18143095Y-17205571D01*
X18143095Y-17205571D02*
X18152619Y-17224619D01*
X18152619Y-17224619D02*
X18162143Y-17262714D01*
X18162143Y-17262714D02*
X18162143Y-17310333D01*
X18162143Y-17310333D02*
X18152619Y-17348429D01*
X18152619Y-17348429D02*
X18143095Y-17367476D01*
X18143095Y-17367476D02*
X18133572Y-17377000D01*
X18133572Y-17377000D02*
X18114524Y-17386524D01*
X18114524Y-17386524D02*
X18095476Y-17386524D01*
X18095476Y-17386524D02*
X18076429Y-17377000D01*
X18076429Y-17377000D02*
X18066905Y-17367476D01*
X18066905Y-17367476D02*
X18057381Y-17348429D01*
X18057381Y-17348429D02*
X18047857Y-17310333D01*
X18047857Y-17310333D02*
X18047857Y-17262714D01*
X18047857Y-17262714D02*
X18057381Y-17224619D01*
X18057381Y-17224619D02*
X18066905Y-17205571D01*
X18066905Y-17205571D02*
X18076429Y-17196048D01*
X18076429Y-17196048D02*
X18095476Y-17186524D01*
X18247857Y-17367476D02*
X18257381Y-17377000D01*
X18257381Y-17377000D02*
X18247857Y-17386524D01*
X18247857Y-17386524D02*
X18238334Y-17377000D01*
X18238334Y-17377000D02*
X18247857Y-17367476D01*
X18247857Y-17367476D02*
X18247857Y-17386524D01*
X18381191Y-17186524D02*
X18400238Y-17186524D01*
X18400238Y-17186524D02*
X18419286Y-17196048D01*
X18419286Y-17196048D02*
X18428810Y-17205571D01*
X18428810Y-17205571D02*
X18438334Y-17224619D01*
X18438334Y-17224619D02*
X18447857Y-17262714D01*
X18447857Y-17262714D02*
X18447857Y-17310333D01*
X18447857Y-17310333D02*
X18438334Y-17348429D01*
X18438334Y-17348429D02*
X18428810Y-17367476D01*
X18428810Y-17367476D02*
X18419286Y-17377000D01*
X18419286Y-17377000D02*
X18400238Y-17386524D01*
X18400238Y-17386524D02*
X18381191Y-17386524D01*
X18381191Y-17386524D02*
X18362143Y-17377000D01*
X18362143Y-17377000D02*
X18352619Y-17367476D01*
X18352619Y-17367476D02*
X18343095Y-17348429D01*
X18343095Y-17348429D02*
X18333572Y-17310333D01*
X18333572Y-17310333D02*
X18333572Y-17262714D01*
X18333572Y-17262714D02*
X18343095Y-17224619D01*
X18343095Y-17224619D02*
X18352619Y-17205571D01*
X18352619Y-17205571D02*
X18362143Y-17196048D01*
X18362143Y-17196048D02*
X18381191Y-17186524D01*
X18638334Y-17386524D02*
X18524048Y-17386524D01*
X18581191Y-17386524D02*
X18581191Y-17186524D01*
X18581191Y-17186524D02*
X18562143Y-17215095D01*
X18562143Y-17215095D02*
X18543095Y-17234143D01*
X18543095Y-17234143D02*
X18524048Y-17243667D01*
X18819286Y-17186524D02*
X18724048Y-17186524D01*
X18724048Y-17186524D02*
X18714524Y-17281762D01*
X18714524Y-17281762D02*
X18724048Y-17272238D01*
X18724048Y-17272238D02*
X18743095Y-17262714D01*
X18743095Y-17262714D02*
X18790715Y-17262714D01*
X18790715Y-17262714D02*
X18809762Y-17272238D01*
X18809762Y-17272238D02*
X18819286Y-17281762D01*
X18819286Y-17281762D02*
X18828810Y-17300810D01*
X18828810Y-17300810D02*
X18828810Y-17348429D01*
X18828810Y-17348429D02*
X18819286Y-17367476D01*
X18819286Y-17367476D02*
X18809762Y-17377000D01*
X18809762Y-17377000D02*
X18790715Y-17386524D01*
X18790715Y-17386524D02*
X18743095Y-17386524D01*
X18743095Y-17386524D02*
X18724048Y-17377000D01*
X18724048Y-17377000D02*
X18714524Y-17367476D01*
X18895476Y-17186524D02*
X19028810Y-17186524D01*
X19028810Y-17186524D02*
X18943095Y-17386524D01*
X19095476Y-17186524D02*
X19095476Y-17224619D01*
X19171667Y-17186524D02*
X19171667Y-17224619D01*
X19466905Y-17462714D02*
X19457381Y-17453190D01*
X19457381Y-17453190D02*
X19438334Y-17424619D01*
X19438334Y-17424619D02*
X19428810Y-17405571D01*
X19428810Y-17405571D02*
X19419286Y-17377000D01*
X19419286Y-17377000D02*
X19409762Y-17329381D01*
X19409762Y-17329381D02*
X19409762Y-17291286D01*
X19409762Y-17291286D02*
X19419286Y-17243667D01*
X19419286Y-17243667D02*
X19428810Y-17215095D01*
X19428810Y-17215095D02*
X19438334Y-17196048D01*
X19438334Y-17196048D02*
X19457381Y-17167476D01*
X19457381Y-17167476D02*
X19466905Y-17157952D01*
X19533572Y-17205571D02*
X19543096Y-17196048D01*
X19543096Y-17196048D02*
X19562143Y-17186524D01*
X19562143Y-17186524D02*
X19609762Y-17186524D01*
X19609762Y-17186524D02*
X19628810Y-17196048D01*
X19628810Y-17196048D02*
X19638334Y-17205571D01*
X19638334Y-17205571D02*
X19647857Y-17224619D01*
X19647857Y-17224619D02*
X19647857Y-17243667D01*
X19647857Y-17243667D02*
X19638334Y-17272238D01*
X19638334Y-17272238D02*
X19524048Y-17386524D01*
X19524048Y-17386524D02*
X19647857Y-17386524D01*
X19771667Y-17186524D02*
X19790715Y-17186524D01*
X19790715Y-17186524D02*
X19809762Y-17196048D01*
X19809762Y-17196048D02*
X19819286Y-17205571D01*
X19819286Y-17205571D02*
X19828810Y-17224619D01*
X19828810Y-17224619D02*
X19838334Y-17262714D01*
X19838334Y-17262714D02*
X19838334Y-17310333D01*
X19838334Y-17310333D02*
X19828810Y-17348429D01*
X19828810Y-17348429D02*
X19819286Y-17367476D01*
X19819286Y-17367476D02*
X19809762Y-17377000D01*
X19809762Y-17377000D02*
X19790715Y-17386524D01*
X19790715Y-17386524D02*
X19771667Y-17386524D01*
X19771667Y-17386524D02*
X19752619Y-17377000D01*
X19752619Y-17377000D02*
X19743096Y-17367476D01*
X19743096Y-17367476D02*
X19733572Y-17348429D01*
X19733572Y-17348429D02*
X19724048Y-17310333D01*
X19724048Y-17310333D02*
X19724048Y-17262714D01*
X19724048Y-17262714D02*
X19733572Y-17224619D01*
X19733572Y-17224619D02*
X19743096Y-17205571D01*
X19743096Y-17205571D02*
X19752619Y-17196048D01*
X19752619Y-17196048D02*
X19771667Y-17186524D01*
X20009762Y-17253190D02*
X20009762Y-17386524D01*
X19962143Y-17177000D02*
X19914524Y-17319857D01*
X19914524Y-17319857D02*
X20038334Y-17319857D01*
X20266905Y-17386524D02*
X20266905Y-17186524D01*
X20352619Y-17386524D02*
X20352619Y-17281762D01*
X20352619Y-17281762D02*
X20343096Y-17262714D01*
X20343096Y-17262714D02*
X20324048Y-17253190D01*
X20324048Y-17253190D02*
X20295477Y-17253190D01*
X20295477Y-17253190D02*
X20276429Y-17262714D01*
X20276429Y-17262714D02*
X20266905Y-17272238D01*
X20476429Y-17386524D02*
X20457381Y-17377000D01*
X20457381Y-17377000D02*
X20447858Y-17367476D01*
X20447858Y-17367476D02*
X20438334Y-17348429D01*
X20438334Y-17348429D02*
X20438334Y-17291286D01*
X20438334Y-17291286D02*
X20447858Y-17272238D01*
X20447858Y-17272238D02*
X20457381Y-17262714D01*
X20457381Y-17262714D02*
X20476429Y-17253190D01*
X20476429Y-17253190D02*
X20505000Y-17253190D01*
X20505000Y-17253190D02*
X20524048Y-17262714D01*
X20524048Y-17262714D02*
X20533572Y-17272238D01*
X20533572Y-17272238D02*
X20543096Y-17291286D01*
X20543096Y-17291286D02*
X20543096Y-17348429D01*
X20543096Y-17348429D02*
X20533572Y-17367476D01*
X20533572Y-17367476D02*
X20524048Y-17377000D01*
X20524048Y-17377000D02*
X20505000Y-17386524D01*
X20505000Y-17386524D02*
X20476429Y-17386524D01*
X20657381Y-17386524D02*
X20638334Y-17377000D01*
X20638334Y-17377000D02*
X20628810Y-17357952D01*
X20628810Y-17357952D02*
X20628810Y-17186524D01*
X20809762Y-17377000D02*
X20790715Y-17386524D01*
X20790715Y-17386524D02*
X20752619Y-17386524D01*
X20752619Y-17386524D02*
X20733572Y-17377000D01*
X20733572Y-17377000D02*
X20724048Y-17357952D01*
X20724048Y-17357952D02*
X20724048Y-17281762D01*
X20724048Y-17281762D02*
X20733572Y-17262714D01*
X20733572Y-17262714D02*
X20752619Y-17253190D01*
X20752619Y-17253190D02*
X20790715Y-17253190D01*
X20790715Y-17253190D02*
X20809762Y-17262714D01*
X20809762Y-17262714D02*
X20819286Y-17281762D01*
X20819286Y-17281762D02*
X20819286Y-17300810D01*
X20819286Y-17300810D02*
X20724048Y-17319857D01*
X20895477Y-17377000D02*
X20914524Y-17386524D01*
X20914524Y-17386524D02*
X20952619Y-17386524D01*
X20952619Y-17386524D02*
X20971667Y-17377000D01*
X20971667Y-17377000D02*
X20981191Y-17357952D01*
X20981191Y-17357952D02*
X20981191Y-17348429D01*
X20981191Y-17348429D02*
X20971667Y-17329381D01*
X20971667Y-17329381D02*
X20952619Y-17319857D01*
X20952619Y-17319857D02*
X20924048Y-17319857D01*
X20924048Y-17319857D02*
X20905000Y-17310333D01*
X20905000Y-17310333D02*
X20895477Y-17291286D01*
X20895477Y-17291286D02*
X20895477Y-17281762D01*
X20895477Y-17281762D02*
X20905000Y-17262714D01*
X20905000Y-17262714D02*
X20924048Y-17253190D01*
X20924048Y-17253190D02*
X20952619Y-17253190D01*
X20952619Y-17253190D02*
X20971667Y-17262714D01*
X21047858Y-17462714D02*
X21057381Y-17453190D01*
X21057381Y-17453190D02*
X21076429Y-17424619D01*
X21076429Y-17424619D02*
X21085953Y-17405571D01*
X21085953Y-17405571D02*
X21095477Y-17377000D01*
X21095477Y-17377000D02*
X21105000Y-17329381D01*
X21105000Y-17329381D02*
X21105000Y-17291286D01*
X21105000Y-17291286D02*
X21095477Y-17243667D01*
X21095477Y-17243667D02*
X21085953Y-17215095D01*
X21085953Y-17215095D02*
X21076429Y-17196048D01*
X21076429Y-17196048D02*
X21057381Y-17167476D01*
X21057381Y-17167476D02*
X21047858Y-17157952D01*
D14*
X15875000Y-17528000D02*
X15875000Y-17588000D01*
X15845000Y-17558000D02*
X15905000Y-17558000D01*
D11*
X16190714Y-17450524D02*
X16209762Y-17450524D01*
X16209762Y-17450524D02*
X16228809Y-17460048D01*
X16228809Y-17460048D02*
X16238333Y-17469571D01*
X16238333Y-17469571D02*
X16247857Y-17488619D01*
X16247857Y-17488619D02*
X16257381Y-17526714D01*
X16257381Y-17526714D02*
X16257381Y-17574333D01*
X16257381Y-17574333D02*
X16247857Y-17612429D01*
X16247857Y-17612429D02*
X16238333Y-17631476D01*
X16238333Y-17631476D02*
X16228809Y-17641000D01*
X16228809Y-17641000D02*
X16209762Y-17650524D01*
X16209762Y-17650524D02*
X16190714Y-17650524D01*
X16190714Y-17650524D02*
X16171667Y-17641000D01*
X16171667Y-17641000D02*
X16162143Y-17631476D01*
X16162143Y-17631476D02*
X16152619Y-17612429D01*
X16152619Y-17612429D02*
X16143095Y-17574333D01*
X16143095Y-17574333D02*
X16143095Y-17526714D01*
X16143095Y-17526714D02*
X16152619Y-17488619D01*
X16152619Y-17488619D02*
X16162143Y-17469571D01*
X16162143Y-17469571D02*
X16171667Y-17460048D01*
X16171667Y-17460048D02*
X16190714Y-17450524D01*
X16343095Y-17631476D02*
X16352619Y-17641000D01*
X16352619Y-17641000D02*
X16343095Y-17650524D01*
X16343095Y-17650524D02*
X16333571Y-17641000D01*
X16333571Y-17641000D02*
X16343095Y-17631476D01*
X16343095Y-17631476D02*
X16343095Y-17650524D01*
X16524048Y-17450524D02*
X16485952Y-17450524D01*
X16485952Y-17450524D02*
X16466905Y-17460048D01*
X16466905Y-17460048D02*
X16457381Y-17469571D01*
X16457381Y-17469571D02*
X16438333Y-17498143D01*
X16438333Y-17498143D02*
X16428809Y-17536238D01*
X16428809Y-17536238D02*
X16428809Y-17612429D01*
X16428809Y-17612429D02*
X16438333Y-17631476D01*
X16438333Y-17631476D02*
X16447857Y-17641000D01*
X16447857Y-17641000D02*
X16466905Y-17650524D01*
X16466905Y-17650524D02*
X16505000Y-17650524D01*
X16505000Y-17650524D02*
X16524048Y-17641000D01*
X16524048Y-17641000D02*
X16533571Y-17631476D01*
X16533571Y-17631476D02*
X16543095Y-17612429D01*
X16543095Y-17612429D02*
X16543095Y-17564810D01*
X16543095Y-17564810D02*
X16533571Y-17545762D01*
X16533571Y-17545762D02*
X16524048Y-17536238D01*
X16524048Y-17536238D02*
X16505000Y-17526714D01*
X16505000Y-17526714D02*
X16466905Y-17526714D01*
X16466905Y-17526714D02*
X16447857Y-17536238D01*
X16447857Y-17536238D02*
X16438333Y-17545762D01*
X16438333Y-17545762D02*
X16428809Y-17564810D01*
X16666905Y-17450524D02*
X16685952Y-17450524D01*
X16685952Y-17450524D02*
X16705000Y-17460048D01*
X16705000Y-17460048D02*
X16714524Y-17469571D01*
X16714524Y-17469571D02*
X16724048Y-17488619D01*
X16724048Y-17488619D02*
X16733571Y-17526714D01*
X16733571Y-17526714D02*
X16733571Y-17574333D01*
X16733571Y-17574333D02*
X16724048Y-17612429D01*
X16724048Y-17612429D02*
X16714524Y-17631476D01*
X16714524Y-17631476D02*
X16705000Y-17641000D01*
X16705000Y-17641000D02*
X16685952Y-17650524D01*
X16685952Y-17650524D02*
X16666905Y-17650524D01*
X16666905Y-17650524D02*
X16647857Y-17641000D01*
X16647857Y-17641000D02*
X16638333Y-17631476D01*
X16638333Y-17631476D02*
X16628809Y-17612429D01*
X16628809Y-17612429D02*
X16619286Y-17574333D01*
X16619286Y-17574333D02*
X16619286Y-17526714D01*
X16619286Y-17526714D02*
X16628809Y-17488619D01*
X16628809Y-17488619D02*
X16638333Y-17469571D01*
X16638333Y-17469571D02*
X16647857Y-17460048D01*
X16647857Y-17460048D02*
X16666905Y-17450524D01*
X16857381Y-17450524D02*
X16876429Y-17450524D01*
X16876429Y-17450524D02*
X16895476Y-17460048D01*
X16895476Y-17460048D02*
X16905000Y-17469571D01*
X16905000Y-17469571D02*
X16914524Y-17488619D01*
X16914524Y-17488619D02*
X16924048Y-17526714D01*
X16924048Y-17526714D02*
X16924048Y-17574333D01*
X16924048Y-17574333D02*
X16914524Y-17612429D01*
X16914524Y-17612429D02*
X16905000Y-17631476D01*
X16905000Y-17631476D02*
X16895476Y-17641000D01*
X16895476Y-17641000D02*
X16876429Y-17650524D01*
X16876429Y-17650524D02*
X16857381Y-17650524D01*
X16857381Y-17650524D02*
X16838333Y-17641000D01*
X16838333Y-17641000D02*
X16828810Y-17631476D01*
X16828810Y-17631476D02*
X16819286Y-17612429D01*
X16819286Y-17612429D02*
X16809762Y-17574333D01*
X16809762Y-17574333D02*
X16809762Y-17526714D01*
X16809762Y-17526714D02*
X16819286Y-17488619D01*
X16819286Y-17488619D02*
X16828810Y-17469571D01*
X16828810Y-17469571D02*
X16838333Y-17460048D01*
X16838333Y-17460048D02*
X16857381Y-17450524D01*
X17009762Y-17650524D02*
X17009762Y-17517190D01*
X17009762Y-17536238D02*
X17019286Y-17526714D01*
X17019286Y-17526714D02*
X17038333Y-17517190D01*
X17038333Y-17517190D02*
X17066905Y-17517190D01*
X17066905Y-17517190D02*
X17085952Y-17526714D01*
X17085952Y-17526714D02*
X17095476Y-17545762D01*
X17095476Y-17545762D02*
X17095476Y-17650524D01*
X17095476Y-17545762D02*
X17105000Y-17526714D01*
X17105000Y-17526714D02*
X17124048Y-17517190D01*
X17124048Y-17517190D02*
X17152619Y-17517190D01*
X17152619Y-17517190D02*
X17171667Y-17526714D01*
X17171667Y-17526714D02*
X17181191Y-17545762D01*
X17181191Y-17545762D02*
X17181191Y-17650524D01*
X17276429Y-17650524D02*
X17276429Y-17517190D01*
X17276429Y-17536238D02*
X17285952Y-17526714D01*
X17285952Y-17526714D02*
X17305000Y-17517190D01*
X17305000Y-17517190D02*
X17333572Y-17517190D01*
X17333572Y-17517190D02*
X17352619Y-17526714D01*
X17352619Y-17526714D02*
X17362143Y-17545762D01*
X17362143Y-17545762D02*
X17362143Y-17650524D01*
X17362143Y-17545762D02*
X17371667Y-17526714D01*
X17371667Y-17526714D02*
X17390714Y-17517190D01*
X17390714Y-17517190D02*
X17419286Y-17517190D01*
X17419286Y-17517190D02*
X17438333Y-17526714D01*
X17438333Y-17526714D02*
X17447857Y-17545762D01*
X17447857Y-17545762D02*
X17447857Y-17650524D01*
X17838333Y-17441000D02*
X17666905Y-17698143D01*
X18095476Y-17450524D02*
X18114524Y-17450524D01*
X18114524Y-17450524D02*
X18133572Y-17460048D01*
X18133572Y-17460048D02*
X18143095Y-17469571D01*
X18143095Y-17469571D02*
X18152619Y-17488619D01*
X18152619Y-17488619D02*
X18162143Y-17526714D01*
X18162143Y-17526714D02*
X18162143Y-17574333D01*
X18162143Y-17574333D02*
X18152619Y-17612429D01*
X18152619Y-17612429D02*
X18143095Y-17631476D01*
X18143095Y-17631476D02*
X18133572Y-17641000D01*
X18133572Y-17641000D02*
X18114524Y-17650524D01*
X18114524Y-17650524D02*
X18095476Y-17650524D01*
X18095476Y-17650524D02*
X18076429Y-17641000D01*
X18076429Y-17641000D02*
X18066905Y-17631476D01*
X18066905Y-17631476D02*
X18057381Y-17612429D01*
X18057381Y-17612429D02*
X18047857Y-17574333D01*
X18047857Y-17574333D02*
X18047857Y-17526714D01*
X18047857Y-17526714D02*
X18057381Y-17488619D01*
X18057381Y-17488619D02*
X18066905Y-17469571D01*
X18066905Y-17469571D02*
X18076429Y-17460048D01*
X18076429Y-17460048D02*
X18095476Y-17450524D01*
X18247857Y-17631476D02*
X18257381Y-17641000D01*
X18257381Y-17641000D02*
X18247857Y-17650524D01*
X18247857Y-17650524D02*
X18238334Y-17641000D01*
X18238334Y-17641000D02*
X18247857Y-17631476D01*
X18247857Y-17631476D02*
X18247857Y-17650524D01*
X18381191Y-17450524D02*
X18400238Y-17450524D01*
X18400238Y-17450524D02*
X18419286Y-17460048D01*
X18419286Y-17460048D02*
X18428810Y-17469571D01*
X18428810Y-17469571D02*
X18438334Y-17488619D01*
X18438334Y-17488619D02*
X18447857Y-17526714D01*
X18447857Y-17526714D02*
X18447857Y-17574333D01*
X18447857Y-17574333D02*
X18438334Y-17612429D01*
X18438334Y-17612429D02*
X18428810Y-17631476D01*
X18428810Y-17631476D02*
X18419286Y-17641000D01*
X18419286Y-17641000D02*
X18400238Y-17650524D01*
X18400238Y-17650524D02*
X18381191Y-17650524D01*
X18381191Y-17650524D02*
X18362143Y-17641000D01*
X18362143Y-17641000D02*
X18352619Y-17631476D01*
X18352619Y-17631476D02*
X18343095Y-17612429D01*
X18343095Y-17612429D02*
X18333572Y-17574333D01*
X18333572Y-17574333D02*
X18333572Y-17526714D01*
X18333572Y-17526714D02*
X18343095Y-17488619D01*
X18343095Y-17488619D02*
X18352619Y-17469571D01*
X18352619Y-17469571D02*
X18362143Y-17460048D01*
X18362143Y-17460048D02*
X18381191Y-17450524D01*
X18524048Y-17469571D02*
X18533572Y-17460048D01*
X18533572Y-17460048D02*
X18552619Y-17450524D01*
X18552619Y-17450524D02*
X18600238Y-17450524D01*
X18600238Y-17450524D02*
X18619286Y-17460048D01*
X18619286Y-17460048D02*
X18628810Y-17469571D01*
X18628810Y-17469571D02*
X18638334Y-17488619D01*
X18638334Y-17488619D02*
X18638334Y-17507667D01*
X18638334Y-17507667D02*
X18628810Y-17536238D01*
X18628810Y-17536238D02*
X18514524Y-17650524D01*
X18514524Y-17650524D02*
X18638334Y-17650524D01*
X18705000Y-17450524D02*
X18828810Y-17450524D01*
X18828810Y-17450524D02*
X18762143Y-17526714D01*
X18762143Y-17526714D02*
X18790715Y-17526714D01*
X18790715Y-17526714D02*
X18809762Y-17536238D01*
X18809762Y-17536238D02*
X18819286Y-17545762D01*
X18819286Y-17545762D02*
X18828810Y-17564810D01*
X18828810Y-17564810D02*
X18828810Y-17612429D01*
X18828810Y-17612429D02*
X18819286Y-17631476D01*
X18819286Y-17631476D02*
X18809762Y-17641000D01*
X18809762Y-17641000D02*
X18790715Y-17650524D01*
X18790715Y-17650524D02*
X18733572Y-17650524D01*
X18733572Y-17650524D02*
X18714524Y-17641000D01*
X18714524Y-17641000D02*
X18705000Y-17631476D01*
X19000238Y-17450524D02*
X18962143Y-17450524D01*
X18962143Y-17450524D02*
X18943095Y-17460048D01*
X18943095Y-17460048D02*
X18933572Y-17469571D01*
X18933572Y-17469571D02*
X18914524Y-17498143D01*
X18914524Y-17498143D02*
X18905000Y-17536238D01*
X18905000Y-17536238D02*
X18905000Y-17612429D01*
X18905000Y-17612429D02*
X18914524Y-17631476D01*
X18914524Y-17631476D02*
X18924048Y-17641000D01*
X18924048Y-17641000D02*
X18943095Y-17650524D01*
X18943095Y-17650524D02*
X18981191Y-17650524D01*
X18981191Y-17650524D02*
X19000238Y-17641000D01*
X19000238Y-17641000D02*
X19009762Y-17631476D01*
X19009762Y-17631476D02*
X19019286Y-17612429D01*
X19019286Y-17612429D02*
X19019286Y-17564810D01*
X19019286Y-17564810D02*
X19009762Y-17545762D01*
X19009762Y-17545762D02*
X19000238Y-17536238D01*
X19000238Y-17536238D02*
X18981191Y-17526714D01*
X18981191Y-17526714D02*
X18943095Y-17526714D01*
X18943095Y-17526714D02*
X18924048Y-17536238D01*
X18924048Y-17536238D02*
X18914524Y-17545762D01*
X18914524Y-17545762D02*
X18905000Y-17564810D01*
X19095476Y-17450524D02*
X19095476Y-17488619D01*
X19171667Y-17450524D02*
X19171667Y-17488619D01*
X19466905Y-17726714D02*
X19457381Y-17717190D01*
X19457381Y-17717190D02*
X19438334Y-17688619D01*
X19438334Y-17688619D02*
X19428810Y-17669571D01*
X19428810Y-17669571D02*
X19419286Y-17641000D01*
X19419286Y-17641000D02*
X19409762Y-17593381D01*
X19409762Y-17593381D02*
X19409762Y-17555286D01*
X19409762Y-17555286D02*
X19419286Y-17507667D01*
X19419286Y-17507667D02*
X19428810Y-17479095D01*
X19428810Y-17479095D02*
X19438334Y-17460048D01*
X19438334Y-17460048D02*
X19457381Y-17431476D01*
X19457381Y-17431476D02*
X19466905Y-17421952D01*
X19581191Y-17450524D02*
X19600238Y-17450524D01*
X19600238Y-17450524D02*
X19619286Y-17460048D01*
X19619286Y-17460048D02*
X19628810Y-17469571D01*
X19628810Y-17469571D02*
X19638334Y-17488619D01*
X19638334Y-17488619D02*
X19647857Y-17526714D01*
X19647857Y-17526714D02*
X19647857Y-17574333D01*
X19647857Y-17574333D02*
X19638334Y-17612429D01*
X19638334Y-17612429D02*
X19628810Y-17631476D01*
X19628810Y-17631476D02*
X19619286Y-17641000D01*
X19619286Y-17641000D02*
X19600238Y-17650524D01*
X19600238Y-17650524D02*
X19581191Y-17650524D01*
X19581191Y-17650524D02*
X19562143Y-17641000D01*
X19562143Y-17641000D02*
X19552619Y-17631476D01*
X19552619Y-17631476D02*
X19543096Y-17612429D01*
X19543096Y-17612429D02*
X19533572Y-17574333D01*
X19533572Y-17574333D02*
X19533572Y-17526714D01*
X19533572Y-17526714D02*
X19543096Y-17488619D01*
X19543096Y-17488619D02*
X19552619Y-17469571D01*
X19552619Y-17469571D02*
X19562143Y-17460048D01*
X19562143Y-17460048D02*
X19581191Y-17450524D01*
X19885953Y-17650524D02*
X19885953Y-17450524D01*
X19971667Y-17650524D02*
X19971667Y-17545762D01*
X19971667Y-17545762D02*
X19962143Y-17526714D01*
X19962143Y-17526714D02*
X19943096Y-17517190D01*
X19943096Y-17517190D02*
X19914524Y-17517190D01*
X19914524Y-17517190D02*
X19895477Y-17526714D01*
X19895477Y-17526714D02*
X19885953Y-17536238D01*
X20095477Y-17650524D02*
X20076429Y-17641000D01*
X20076429Y-17641000D02*
X20066905Y-17631476D01*
X20066905Y-17631476D02*
X20057381Y-17612429D01*
X20057381Y-17612429D02*
X20057381Y-17555286D01*
X20057381Y-17555286D02*
X20066905Y-17536238D01*
X20066905Y-17536238D02*
X20076429Y-17526714D01*
X20076429Y-17526714D02*
X20095477Y-17517190D01*
X20095477Y-17517190D02*
X20124048Y-17517190D01*
X20124048Y-17517190D02*
X20143096Y-17526714D01*
X20143096Y-17526714D02*
X20152619Y-17536238D01*
X20152619Y-17536238D02*
X20162143Y-17555286D01*
X20162143Y-17555286D02*
X20162143Y-17612429D01*
X20162143Y-17612429D02*
X20152619Y-17631476D01*
X20152619Y-17631476D02*
X20143096Y-17641000D01*
X20143096Y-17641000D02*
X20124048Y-17650524D01*
X20124048Y-17650524D02*
X20095477Y-17650524D01*
X20276429Y-17650524D02*
X20257381Y-17641000D01*
X20257381Y-17641000D02*
X20247858Y-17621952D01*
X20247858Y-17621952D02*
X20247858Y-17450524D01*
X20428810Y-17641000D02*
X20409762Y-17650524D01*
X20409762Y-17650524D02*
X20371667Y-17650524D01*
X20371667Y-17650524D02*
X20352619Y-17641000D01*
X20352619Y-17641000D02*
X20343096Y-17621952D01*
X20343096Y-17621952D02*
X20343096Y-17545762D01*
X20343096Y-17545762D02*
X20352619Y-17526714D01*
X20352619Y-17526714D02*
X20371667Y-17517190D01*
X20371667Y-17517190D02*
X20409762Y-17517190D01*
X20409762Y-17517190D02*
X20428810Y-17526714D01*
X20428810Y-17526714D02*
X20438334Y-17545762D01*
X20438334Y-17545762D02*
X20438334Y-17564810D01*
X20438334Y-17564810D02*
X20343096Y-17583857D01*
X20514524Y-17641000D02*
X20533572Y-17650524D01*
X20533572Y-17650524D02*
X20571667Y-17650524D01*
X20571667Y-17650524D02*
X20590715Y-17641000D01*
X20590715Y-17641000D02*
X20600239Y-17621952D01*
X20600239Y-17621952D02*
X20600239Y-17612429D01*
X20600239Y-17612429D02*
X20590715Y-17593381D01*
X20590715Y-17593381D02*
X20571667Y-17583857D01*
X20571667Y-17583857D02*
X20543096Y-17583857D01*
X20543096Y-17583857D02*
X20524048Y-17574333D01*
X20524048Y-17574333D02*
X20514524Y-17555286D01*
X20514524Y-17555286D02*
X20514524Y-17545762D01*
X20514524Y-17545762D02*
X20524048Y-17526714D01*
X20524048Y-17526714D02*
X20543096Y-17517190D01*
X20543096Y-17517190D02*
X20571667Y-17517190D01*
X20571667Y-17517190D02*
X20590715Y-17526714D01*
X20838334Y-17574333D02*
X20990715Y-17574333D01*
X20914524Y-17650524D02*
X20914524Y-17498143D01*
X21228810Y-17469571D02*
X21238334Y-17460048D01*
X21238334Y-17460048D02*
X21257381Y-17450524D01*
X21257381Y-17450524D02*
X21305001Y-17450524D01*
X21305001Y-17450524D02*
X21324048Y-17460048D01*
X21324048Y-17460048D02*
X21333572Y-17469571D01*
X21333572Y-17469571D02*
X21343096Y-17488619D01*
X21343096Y-17488619D02*
X21343096Y-17507667D01*
X21343096Y-17507667D02*
X21333572Y-17536238D01*
X21333572Y-17536238D02*
X21219286Y-17650524D01*
X21219286Y-17650524D02*
X21343096Y-17650524D01*
X21571667Y-17641000D02*
X21590715Y-17650524D01*
X21590715Y-17650524D02*
X21628810Y-17650524D01*
X21628810Y-17650524D02*
X21647858Y-17641000D01*
X21647858Y-17641000D02*
X21657382Y-17621952D01*
X21657382Y-17621952D02*
X21657382Y-17612429D01*
X21657382Y-17612429D02*
X21647858Y-17593381D01*
X21647858Y-17593381D02*
X21628810Y-17583857D01*
X21628810Y-17583857D02*
X21600239Y-17583857D01*
X21600239Y-17583857D02*
X21581191Y-17574333D01*
X21581191Y-17574333D02*
X21571667Y-17555286D01*
X21571667Y-17555286D02*
X21571667Y-17545762D01*
X21571667Y-17545762D02*
X21581191Y-17526714D01*
X21581191Y-17526714D02*
X21600239Y-17517190D01*
X21600239Y-17517190D02*
X21628810Y-17517190D01*
X21628810Y-17517190D02*
X21647858Y-17526714D01*
X21771667Y-17650524D02*
X21752620Y-17641000D01*
X21752620Y-17641000D02*
X21743096Y-17621952D01*
X21743096Y-17621952D02*
X21743096Y-17450524D01*
X21876429Y-17650524D02*
X21857382Y-17641000D01*
X21857382Y-17641000D02*
X21847858Y-17631476D01*
X21847858Y-17631476D02*
X21838334Y-17612429D01*
X21838334Y-17612429D02*
X21838334Y-17555286D01*
X21838334Y-17555286D02*
X21847858Y-17536238D01*
X21847858Y-17536238D02*
X21857382Y-17526714D01*
X21857382Y-17526714D02*
X21876429Y-17517190D01*
X21876429Y-17517190D02*
X21905001Y-17517190D01*
X21905001Y-17517190D02*
X21924048Y-17526714D01*
X21924048Y-17526714D02*
X21933572Y-17536238D01*
X21933572Y-17536238D02*
X21943096Y-17555286D01*
X21943096Y-17555286D02*
X21943096Y-17612429D01*
X21943096Y-17612429D02*
X21933572Y-17631476D01*
X21933572Y-17631476D02*
X21924048Y-17641000D01*
X21924048Y-17641000D02*
X21905001Y-17650524D01*
X21905001Y-17650524D02*
X21876429Y-17650524D01*
X22000239Y-17517190D02*
X22076429Y-17517190D01*
X22028810Y-17450524D02*
X22028810Y-17621952D01*
X22028810Y-17621952D02*
X22038334Y-17641000D01*
X22038334Y-17641000D02*
X22057382Y-17650524D01*
X22057382Y-17650524D02*
X22076429Y-17650524D01*
X22133572Y-17641000D02*
X22152620Y-17650524D01*
X22152620Y-17650524D02*
X22190715Y-17650524D01*
X22190715Y-17650524D02*
X22209763Y-17641000D01*
X22209763Y-17641000D02*
X22219286Y-17621952D01*
X22219286Y-17621952D02*
X22219286Y-17612429D01*
X22219286Y-17612429D02*
X22209763Y-17593381D01*
X22209763Y-17593381D02*
X22190715Y-17583857D01*
X22190715Y-17583857D02*
X22162143Y-17583857D01*
X22162143Y-17583857D02*
X22143096Y-17574333D01*
X22143096Y-17574333D02*
X22133572Y-17555286D01*
X22133572Y-17555286D02*
X22133572Y-17545762D01*
X22133572Y-17545762D02*
X22143096Y-17526714D01*
X22143096Y-17526714D02*
X22162143Y-17517190D01*
X22162143Y-17517190D02*
X22190715Y-17517190D01*
X22190715Y-17517190D02*
X22209763Y-17526714D01*
X22285953Y-17726714D02*
X22295477Y-17717190D01*
X22295477Y-17717190D02*
X22314524Y-17688619D01*
X22314524Y-17688619D02*
X22324048Y-17669571D01*
X22324048Y-17669571D02*
X22333572Y-17641000D01*
X22333572Y-17641000D02*
X22343096Y-17593381D01*
X22343096Y-17593381D02*
X22343096Y-17555286D01*
X22343096Y-17555286D02*
X22333572Y-17507667D01*
X22333572Y-17507667D02*
X22324048Y-17479095D01*
X22324048Y-17479095D02*
X22314524Y-17460048D01*
X22314524Y-17460048D02*
X22295477Y-17431476D01*
X22295477Y-17431476D02*
X22285953Y-17421952D01*
D15*
X15895481Y-17844981D02*
X15895481Y-17799019D01*
X15849519Y-17799019D01*
X15849519Y-17844981D01*
X15895481Y-17844981D01*
D11*
X16190714Y-17714524D02*
X16209762Y-17714524D01*
X16209762Y-17714524D02*
X16228809Y-17724048D01*
X16228809Y-17724048D02*
X16238333Y-17733571D01*
X16238333Y-17733571D02*
X16247857Y-17752619D01*
X16247857Y-17752619D02*
X16257381Y-17790714D01*
X16257381Y-17790714D02*
X16257381Y-17838333D01*
X16257381Y-17838333D02*
X16247857Y-17876429D01*
X16247857Y-17876429D02*
X16238333Y-17895476D01*
X16238333Y-17895476D02*
X16228809Y-17905000D01*
X16228809Y-17905000D02*
X16209762Y-17914524D01*
X16209762Y-17914524D02*
X16190714Y-17914524D01*
X16190714Y-17914524D02*
X16171667Y-17905000D01*
X16171667Y-17905000D02*
X16162143Y-17895476D01*
X16162143Y-17895476D02*
X16152619Y-17876429D01*
X16152619Y-17876429D02*
X16143095Y-17838333D01*
X16143095Y-17838333D02*
X16143095Y-17790714D01*
X16143095Y-17790714D02*
X16152619Y-17752619D01*
X16152619Y-17752619D02*
X16162143Y-17733571D01*
X16162143Y-17733571D02*
X16171667Y-17724048D01*
X16171667Y-17724048D02*
X16190714Y-17714524D01*
X16343095Y-17895476D02*
X16352619Y-17905000D01*
X16352619Y-17905000D02*
X16343095Y-17914524D01*
X16343095Y-17914524D02*
X16333571Y-17905000D01*
X16333571Y-17905000D02*
X16343095Y-17895476D01*
X16343095Y-17895476D02*
X16343095Y-17914524D01*
X16524048Y-17714524D02*
X16485952Y-17714524D01*
X16485952Y-17714524D02*
X16466905Y-17724048D01*
X16466905Y-17724048D02*
X16457381Y-17733571D01*
X16457381Y-17733571D02*
X16438333Y-17762143D01*
X16438333Y-17762143D02*
X16428809Y-17800238D01*
X16428809Y-17800238D02*
X16428809Y-17876429D01*
X16428809Y-17876429D02*
X16438333Y-17895476D01*
X16438333Y-17895476D02*
X16447857Y-17905000D01*
X16447857Y-17905000D02*
X16466905Y-17914524D01*
X16466905Y-17914524D02*
X16505000Y-17914524D01*
X16505000Y-17914524D02*
X16524048Y-17905000D01*
X16524048Y-17905000D02*
X16533571Y-17895476D01*
X16533571Y-17895476D02*
X16543095Y-17876429D01*
X16543095Y-17876429D02*
X16543095Y-17828810D01*
X16543095Y-17828810D02*
X16533571Y-17809762D01*
X16533571Y-17809762D02*
X16524048Y-17800238D01*
X16524048Y-17800238D02*
X16505000Y-17790714D01*
X16505000Y-17790714D02*
X16466905Y-17790714D01*
X16466905Y-17790714D02*
X16447857Y-17800238D01*
X16447857Y-17800238D02*
X16438333Y-17809762D01*
X16438333Y-17809762D02*
X16428809Y-17828810D01*
X16724048Y-17714524D02*
X16628809Y-17714524D01*
X16628809Y-17714524D02*
X16619286Y-17809762D01*
X16619286Y-17809762D02*
X16628809Y-17800238D01*
X16628809Y-17800238D02*
X16647857Y-17790714D01*
X16647857Y-17790714D02*
X16695476Y-17790714D01*
X16695476Y-17790714D02*
X16714524Y-17800238D01*
X16714524Y-17800238D02*
X16724048Y-17809762D01*
X16724048Y-17809762D02*
X16733571Y-17828810D01*
X16733571Y-17828810D02*
X16733571Y-17876429D01*
X16733571Y-17876429D02*
X16724048Y-17895476D01*
X16724048Y-17895476D02*
X16714524Y-17905000D01*
X16714524Y-17905000D02*
X16695476Y-17914524D01*
X16695476Y-17914524D02*
X16647857Y-17914524D01*
X16647857Y-17914524D02*
X16628809Y-17905000D01*
X16628809Y-17905000D02*
X16619286Y-17895476D01*
X16857381Y-17714524D02*
X16876429Y-17714524D01*
X16876429Y-17714524D02*
X16895476Y-17724048D01*
X16895476Y-17724048D02*
X16905000Y-17733571D01*
X16905000Y-17733571D02*
X16914524Y-17752619D01*
X16914524Y-17752619D02*
X16924048Y-17790714D01*
X16924048Y-17790714D02*
X16924048Y-17838333D01*
X16924048Y-17838333D02*
X16914524Y-17876429D01*
X16914524Y-17876429D02*
X16905000Y-17895476D01*
X16905000Y-17895476D02*
X16895476Y-17905000D01*
X16895476Y-17905000D02*
X16876429Y-17914524D01*
X16876429Y-17914524D02*
X16857381Y-17914524D01*
X16857381Y-17914524D02*
X16838333Y-17905000D01*
X16838333Y-17905000D02*
X16828810Y-17895476D01*
X16828810Y-17895476D02*
X16819286Y-17876429D01*
X16819286Y-17876429D02*
X16809762Y-17838333D01*
X16809762Y-17838333D02*
X16809762Y-17790714D01*
X16809762Y-17790714D02*
X16819286Y-17752619D01*
X16819286Y-17752619D02*
X16828810Y-17733571D01*
X16828810Y-17733571D02*
X16838333Y-17724048D01*
X16838333Y-17724048D02*
X16857381Y-17714524D01*
X17009762Y-17914524D02*
X17009762Y-17781190D01*
X17009762Y-17800238D02*
X17019286Y-17790714D01*
X17019286Y-17790714D02*
X17038333Y-17781190D01*
X17038333Y-17781190D02*
X17066905Y-17781190D01*
X17066905Y-17781190D02*
X17085952Y-17790714D01*
X17085952Y-17790714D02*
X17095476Y-17809762D01*
X17095476Y-17809762D02*
X17095476Y-17914524D01*
X17095476Y-17809762D02*
X17105000Y-17790714D01*
X17105000Y-17790714D02*
X17124048Y-17781190D01*
X17124048Y-17781190D02*
X17152619Y-17781190D01*
X17152619Y-17781190D02*
X17171667Y-17790714D01*
X17171667Y-17790714D02*
X17181191Y-17809762D01*
X17181191Y-17809762D02*
X17181191Y-17914524D01*
X17276429Y-17914524D02*
X17276429Y-17781190D01*
X17276429Y-17800238D02*
X17285952Y-17790714D01*
X17285952Y-17790714D02*
X17305000Y-17781190D01*
X17305000Y-17781190D02*
X17333572Y-17781190D01*
X17333572Y-17781190D02*
X17352619Y-17790714D01*
X17352619Y-17790714D02*
X17362143Y-17809762D01*
X17362143Y-17809762D02*
X17362143Y-17914524D01*
X17362143Y-17809762D02*
X17371667Y-17790714D01*
X17371667Y-17790714D02*
X17390714Y-17781190D01*
X17390714Y-17781190D02*
X17419286Y-17781190D01*
X17419286Y-17781190D02*
X17438333Y-17790714D01*
X17438333Y-17790714D02*
X17447857Y-17809762D01*
X17447857Y-17809762D02*
X17447857Y-17914524D01*
X17838333Y-17705000D02*
X17666905Y-17962143D01*
X18095476Y-17714524D02*
X18114524Y-17714524D01*
X18114524Y-17714524D02*
X18133572Y-17724048D01*
X18133572Y-17724048D02*
X18143095Y-17733571D01*
X18143095Y-17733571D02*
X18152619Y-17752619D01*
X18152619Y-17752619D02*
X18162143Y-17790714D01*
X18162143Y-17790714D02*
X18162143Y-17838333D01*
X18162143Y-17838333D02*
X18152619Y-17876429D01*
X18152619Y-17876429D02*
X18143095Y-17895476D01*
X18143095Y-17895476D02*
X18133572Y-17905000D01*
X18133572Y-17905000D02*
X18114524Y-17914524D01*
X18114524Y-17914524D02*
X18095476Y-17914524D01*
X18095476Y-17914524D02*
X18076429Y-17905000D01*
X18076429Y-17905000D02*
X18066905Y-17895476D01*
X18066905Y-17895476D02*
X18057381Y-17876429D01*
X18057381Y-17876429D02*
X18047857Y-17838333D01*
X18047857Y-17838333D02*
X18047857Y-17790714D01*
X18047857Y-17790714D02*
X18057381Y-17752619D01*
X18057381Y-17752619D02*
X18066905Y-17733571D01*
X18066905Y-17733571D02*
X18076429Y-17724048D01*
X18076429Y-17724048D02*
X18095476Y-17714524D01*
X18247857Y-17895476D02*
X18257381Y-17905000D01*
X18257381Y-17905000D02*
X18247857Y-17914524D01*
X18247857Y-17914524D02*
X18238334Y-17905000D01*
X18238334Y-17905000D02*
X18247857Y-17895476D01*
X18247857Y-17895476D02*
X18247857Y-17914524D01*
X18381191Y-17714524D02*
X18400238Y-17714524D01*
X18400238Y-17714524D02*
X18419286Y-17724048D01*
X18419286Y-17724048D02*
X18428810Y-17733571D01*
X18428810Y-17733571D02*
X18438334Y-17752619D01*
X18438334Y-17752619D02*
X18447857Y-17790714D01*
X18447857Y-17790714D02*
X18447857Y-17838333D01*
X18447857Y-17838333D02*
X18438334Y-17876429D01*
X18438334Y-17876429D02*
X18428810Y-17895476D01*
X18428810Y-17895476D02*
X18419286Y-17905000D01*
X18419286Y-17905000D02*
X18400238Y-17914524D01*
X18400238Y-17914524D02*
X18381191Y-17914524D01*
X18381191Y-17914524D02*
X18362143Y-17905000D01*
X18362143Y-17905000D02*
X18352619Y-17895476D01*
X18352619Y-17895476D02*
X18343095Y-17876429D01*
X18343095Y-17876429D02*
X18333572Y-17838333D01*
X18333572Y-17838333D02*
X18333572Y-17790714D01*
X18333572Y-17790714D02*
X18343095Y-17752619D01*
X18343095Y-17752619D02*
X18352619Y-17733571D01*
X18352619Y-17733571D02*
X18362143Y-17724048D01*
X18362143Y-17724048D02*
X18381191Y-17714524D01*
X18524048Y-17733571D02*
X18533572Y-17724048D01*
X18533572Y-17724048D02*
X18552619Y-17714524D01*
X18552619Y-17714524D02*
X18600238Y-17714524D01*
X18600238Y-17714524D02*
X18619286Y-17724048D01*
X18619286Y-17724048D02*
X18628810Y-17733571D01*
X18628810Y-17733571D02*
X18638334Y-17752619D01*
X18638334Y-17752619D02*
X18638334Y-17771667D01*
X18638334Y-17771667D02*
X18628810Y-17800238D01*
X18628810Y-17800238D02*
X18514524Y-17914524D01*
X18514524Y-17914524D02*
X18638334Y-17914524D01*
X18819286Y-17714524D02*
X18724048Y-17714524D01*
X18724048Y-17714524D02*
X18714524Y-17809762D01*
X18714524Y-17809762D02*
X18724048Y-17800238D01*
X18724048Y-17800238D02*
X18743095Y-17790714D01*
X18743095Y-17790714D02*
X18790715Y-17790714D01*
X18790715Y-17790714D02*
X18809762Y-17800238D01*
X18809762Y-17800238D02*
X18819286Y-17809762D01*
X18819286Y-17809762D02*
X18828810Y-17828810D01*
X18828810Y-17828810D02*
X18828810Y-17876429D01*
X18828810Y-17876429D02*
X18819286Y-17895476D01*
X18819286Y-17895476D02*
X18809762Y-17905000D01*
X18809762Y-17905000D02*
X18790715Y-17914524D01*
X18790715Y-17914524D02*
X18743095Y-17914524D01*
X18743095Y-17914524D02*
X18724048Y-17905000D01*
X18724048Y-17905000D02*
X18714524Y-17895476D01*
X19000238Y-17714524D02*
X18962143Y-17714524D01*
X18962143Y-17714524D02*
X18943095Y-17724048D01*
X18943095Y-17724048D02*
X18933572Y-17733571D01*
X18933572Y-17733571D02*
X18914524Y-17762143D01*
X18914524Y-17762143D02*
X18905000Y-17800238D01*
X18905000Y-17800238D02*
X18905000Y-17876429D01*
X18905000Y-17876429D02*
X18914524Y-17895476D01*
X18914524Y-17895476D02*
X18924048Y-17905000D01*
X18924048Y-17905000D02*
X18943095Y-17914524D01*
X18943095Y-17914524D02*
X18981191Y-17914524D01*
X18981191Y-17914524D02*
X19000238Y-17905000D01*
X19000238Y-17905000D02*
X19009762Y-17895476D01*
X19009762Y-17895476D02*
X19019286Y-17876429D01*
X19019286Y-17876429D02*
X19019286Y-17828810D01*
X19019286Y-17828810D02*
X19009762Y-17809762D01*
X19009762Y-17809762D02*
X19000238Y-17800238D01*
X19000238Y-17800238D02*
X18981191Y-17790714D01*
X18981191Y-17790714D02*
X18943095Y-17790714D01*
X18943095Y-17790714D02*
X18924048Y-17800238D01*
X18924048Y-17800238D02*
X18914524Y-17809762D01*
X18914524Y-17809762D02*
X18905000Y-17828810D01*
X19095476Y-17714524D02*
X19095476Y-17752619D01*
X19171667Y-17714524D02*
X19171667Y-17752619D01*
X19466905Y-17990714D02*
X19457381Y-17981190D01*
X19457381Y-17981190D02*
X19438334Y-17952619D01*
X19438334Y-17952619D02*
X19428810Y-17933571D01*
X19428810Y-17933571D02*
X19419286Y-17905000D01*
X19419286Y-17905000D02*
X19409762Y-17857381D01*
X19409762Y-17857381D02*
X19409762Y-17819286D01*
X19409762Y-17819286D02*
X19419286Y-17771667D01*
X19419286Y-17771667D02*
X19428810Y-17743095D01*
X19428810Y-17743095D02*
X19438334Y-17724048D01*
X19438334Y-17724048D02*
X19457381Y-17695476D01*
X19457381Y-17695476D02*
X19466905Y-17685952D01*
X19581191Y-17714524D02*
X19600238Y-17714524D01*
X19600238Y-17714524D02*
X19619286Y-17724048D01*
X19619286Y-17724048D02*
X19628810Y-17733571D01*
X19628810Y-17733571D02*
X19638334Y-17752619D01*
X19638334Y-17752619D02*
X19647857Y-17790714D01*
X19647857Y-17790714D02*
X19647857Y-17838333D01*
X19647857Y-17838333D02*
X19638334Y-17876429D01*
X19638334Y-17876429D02*
X19628810Y-17895476D01*
X19628810Y-17895476D02*
X19619286Y-17905000D01*
X19619286Y-17905000D02*
X19600238Y-17914524D01*
X19600238Y-17914524D02*
X19581191Y-17914524D01*
X19581191Y-17914524D02*
X19562143Y-17905000D01*
X19562143Y-17905000D02*
X19552619Y-17895476D01*
X19552619Y-17895476D02*
X19543096Y-17876429D01*
X19543096Y-17876429D02*
X19533572Y-17838333D01*
X19533572Y-17838333D02*
X19533572Y-17790714D01*
X19533572Y-17790714D02*
X19543096Y-17752619D01*
X19543096Y-17752619D02*
X19552619Y-17733571D01*
X19552619Y-17733571D02*
X19562143Y-17724048D01*
X19562143Y-17724048D02*
X19581191Y-17714524D01*
X19885953Y-17914524D02*
X19885953Y-17714524D01*
X19971667Y-17914524D02*
X19971667Y-17809762D01*
X19971667Y-17809762D02*
X19962143Y-17790714D01*
X19962143Y-17790714D02*
X19943096Y-17781190D01*
X19943096Y-17781190D02*
X19914524Y-17781190D01*
X19914524Y-17781190D02*
X19895477Y-17790714D01*
X19895477Y-17790714D02*
X19885953Y-17800238D01*
X20095477Y-17914524D02*
X20076429Y-17905000D01*
X20076429Y-17905000D02*
X20066905Y-17895476D01*
X20066905Y-17895476D02*
X20057381Y-17876429D01*
X20057381Y-17876429D02*
X20057381Y-17819286D01*
X20057381Y-17819286D02*
X20066905Y-17800238D01*
X20066905Y-17800238D02*
X20076429Y-17790714D01*
X20076429Y-17790714D02*
X20095477Y-17781190D01*
X20095477Y-17781190D02*
X20124048Y-17781190D01*
X20124048Y-17781190D02*
X20143096Y-17790714D01*
X20143096Y-17790714D02*
X20152619Y-17800238D01*
X20152619Y-17800238D02*
X20162143Y-17819286D01*
X20162143Y-17819286D02*
X20162143Y-17876429D01*
X20162143Y-17876429D02*
X20152619Y-17895476D01*
X20152619Y-17895476D02*
X20143096Y-17905000D01*
X20143096Y-17905000D02*
X20124048Y-17914524D01*
X20124048Y-17914524D02*
X20095477Y-17914524D01*
X20276429Y-17914524D02*
X20257381Y-17905000D01*
X20257381Y-17905000D02*
X20247858Y-17885952D01*
X20247858Y-17885952D02*
X20247858Y-17714524D01*
X20428810Y-17905000D02*
X20409762Y-17914524D01*
X20409762Y-17914524D02*
X20371667Y-17914524D01*
X20371667Y-17914524D02*
X20352619Y-17905000D01*
X20352619Y-17905000D02*
X20343096Y-17885952D01*
X20343096Y-17885952D02*
X20343096Y-17809762D01*
X20343096Y-17809762D02*
X20352619Y-17790714D01*
X20352619Y-17790714D02*
X20371667Y-17781190D01*
X20371667Y-17781190D02*
X20409762Y-17781190D01*
X20409762Y-17781190D02*
X20428810Y-17790714D01*
X20428810Y-17790714D02*
X20438334Y-17809762D01*
X20438334Y-17809762D02*
X20438334Y-17828810D01*
X20438334Y-17828810D02*
X20343096Y-17847857D01*
X20514524Y-17905000D02*
X20533572Y-17914524D01*
X20533572Y-17914524D02*
X20571667Y-17914524D01*
X20571667Y-17914524D02*
X20590715Y-17905000D01*
X20590715Y-17905000D02*
X20600239Y-17885952D01*
X20600239Y-17885952D02*
X20600239Y-17876429D01*
X20600239Y-17876429D02*
X20590715Y-17857381D01*
X20590715Y-17857381D02*
X20571667Y-17847857D01*
X20571667Y-17847857D02*
X20543096Y-17847857D01*
X20543096Y-17847857D02*
X20524048Y-17838333D01*
X20524048Y-17838333D02*
X20514524Y-17819286D01*
X20514524Y-17819286D02*
X20514524Y-17809762D01*
X20514524Y-17809762D02*
X20524048Y-17790714D01*
X20524048Y-17790714D02*
X20543096Y-17781190D01*
X20543096Y-17781190D02*
X20571667Y-17781190D01*
X20571667Y-17781190D02*
X20590715Y-17790714D01*
X20838334Y-17838333D02*
X20990715Y-17838333D01*
X20914524Y-17914524D02*
X20914524Y-17762143D01*
X21228810Y-17733571D02*
X21238334Y-17724048D01*
X21238334Y-17724048D02*
X21257381Y-17714524D01*
X21257381Y-17714524D02*
X21305001Y-17714524D01*
X21305001Y-17714524D02*
X21324048Y-17724048D01*
X21324048Y-17724048D02*
X21333572Y-17733571D01*
X21333572Y-17733571D02*
X21343096Y-17752619D01*
X21343096Y-17752619D02*
X21343096Y-17771667D01*
X21343096Y-17771667D02*
X21333572Y-17800238D01*
X21333572Y-17800238D02*
X21219286Y-17914524D01*
X21219286Y-17914524D02*
X21343096Y-17914524D01*
X21571667Y-17905000D02*
X21590715Y-17914524D01*
X21590715Y-17914524D02*
X21628810Y-17914524D01*
X21628810Y-17914524D02*
X21647858Y-17905000D01*
X21647858Y-17905000D02*
X21657382Y-17885952D01*
X21657382Y-17885952D02*
X21657382Y-17876429D01*
X21657382Y-17876429D02*
X21647858Y-17857381D01*
X21647858Y-17857381D02*
X21628810Y-17847857D01*
X21628810Y-17847857D02*
X21600239Y-17847857D01*
X21600239Y-17847857D02*
X21581191Y-17838333D01*
X21581191Y-17838333D02*
X21571667Y-17819286D01*
X21571667Y-17819286D02*
X21571667Y-17809762D01*
X21571667Y-17809762D02*
X21581191Y-17790714D01*
X21581191Y-17790714D02*
X21600239Y-17781190D01*
X21600239Y-17781190D02*
X21628810Y-17781190D01*
X21628810Y-17781190D02*
X21647858Y-17790714D01*
X21771667Y-17914524D02*
X21752620Y-17905000D01*
X21752620Y-17905000D02*
X21743096Y-17885952D01*
X21743096Y-17885952D02*
X21743096Y-17714524D01*
X21876429Y-17914524D02*
X21857382Y-17905000D01*
X21857382Y-17905000D02*
X21847858Y-17895476D01*
X21847858Y-17895476D02*
X21838334Y-17876429D01*
X21838334Y-17876429D02*
X21838334Y-17819286D01*
X21838334Y-17819286D02*
X21847858Y-17800238D01*
X21847858Y-17800238D02*
X21857382Y-17790714D01*
X21857382Y-17790714D02*
X21876429Y-17781190D01*
X21876429Y-17781190D02*
X21905001Y-17781190D01*
X21905001Y-17781190D02*
X21924048Y-17790714D01*
X21924048Y-17790714D02*
X21933572Y-17800238D01*
X21933572Y-17800238D02*
X21943096Y-17819286D01*
X21943096Y-17819286D02*
X21943096Y-17876429D01*
X21943096Y-17876429D02*
X21933572Y-17895476D01*
X21933572Y-17895476D02*
X21924048Y-17905000D01*
X21924048Y-17905000D02*
X21905001Y-17914524D01*
X21905001Y-17914524D02*
X21876429Y-17914524D01*
X22000239Y-17781190D02*
X22076429Y-17781190D01*
X22028810Y-17714524D02*
X22028810Y-17885952D01*
X22028810Y-17885952D02*
X22038334Y-17905000D01*
X22038334Y-17905000D02*
X22057382Y-17914524D01*
X22057382Y-17914524D02*
X22076429Y-17914524D01*
X22133572Y-17905000D02*
X22152620Y-17914524D01*
X22152620Y-17914524D02*
X22190715Y-17914524D01*
X22190715Y-17914524D02*
X22209763Y-17905000D01*
X22209763Y-17905000D02*
X22219286Y-17885952D01*
X22219286Y-17885952D02*
X22219286Y-17876429D01*
X22219286Y-17876429D02*
X22209763Y-17857381D01*
X22209763Y-17857381D02*
X22190715Y-17847857D01*
X22190715Y-17847857D02*
X22162143Y-17847857D01*
X22162143Y-17847857D02*
X22143096Y-17838333D01*
X22143096Y-17838333D02*
X22133572Y-17819286D01*
X22133572Y-17819286D02*
X22133572Y-17809762D01*
X22133572Y-17809762D02*
X22143096Y-17790714D01*
X22143096Y-17790714D02*
X22162143Y-17781190D01*
X22162143Y-17781190D02*
X22190715Y-17781190D01*
X22190715Y-17781190D02*
X22209763Y-17790714D01*
X22285953Y-17990714D02*
X22295477Y-17981190D01*
X22295477Y-17981190D02*
X22314524Y-17952619D01*
X22314524Y-17952619D02*
X22324048Y-17933571D01*
X22324048Y-17933571D02*
X22333572Y-17905000D01*
X22333572Y-17905000D02*
X22343096Y-17857381D01*
X22343096Y-17857381D02*
X22343096Y-17819286D01*
X22343096Y-17819286D02*
X22333572Y-17771667D01*
X22333572Y-17771667D02*
X22324048Y-17743095D01*
X22324048Y-17743095D02*
X22314524Y-17724048D01*
X22314524Y-17724048D02*
X22295477Y-17695476D01*
X22295477Y-17695476D02*
X22285953Y-17685952D01*
D10*
X15855000Y-18136000D02*
X15905000Y-18086000D01*
X15855000Y-18036000D01*
X15805000Y-18086000D01*
X15855000Y-18136000D01*
D11*
X16257381Y-18178524D02*
X16143095Y-18178524D01*
X16200238Y-18178524D02*
X16200238Y-17978524D01*
X16200238Y-17978524D02*
X16181190Y-18007095D01*
X16181190Y-18007095D02*
X16162143Y-18026143D01*
X16162143Y-18026143D02*
X16143095Y-18035667D01*
X16343095Y-18159476D02*
X16352619Y-18169000D01*
X16352619Y-18169000D02*
X16343095Y-18178524D01*
X16343095Y-18178524D02*
X16333571Y-18169000D01*
X16333571Y-18169000D02*
X16343095Y-18159476D01*
X16343095Y-18159476D02*
X16343095Y-18178524D01*
X16476428Y-17978524D02*
X16495476Y-17978524D01*
X16495476Y-17978524D02*
X16514524Y-17988048D01*
X16514524Y-17988048D02*
X16524048Y-17997571D01*
X16524048Y-17997571D02*
X16533571Y-18016619D01*
X16533571Y-18016619D02*
X16543095Y-18054714D01*
X16543095Y-18054714D02*
X16543095Y-18102333D01*
X16543095Y-18102333D02*
X16533571Y-18140429D01*
X16533571Y-18140429D02*
X16524048Y-18159476D01*
X16524048Y-18159476D02*
X16514524Y-18169000D01*
X16514524Y-18169000D02*
X16495476Y-18178524D01*
X16495476Y-18178524D02*
X16476428Y-18178524D01*
X16476428Y-18178524D02*
X16457381Y-18169000D01*
X16457381Y-18169000D02*
X16447857Y-18159476D01*
X16447857Y-18159476D02*
X16438333Y-18140429D01*
X16438333Y-18140429D02*
X16428809Y-18102333D01*
X16428809Y-18102333D02*
X16428809Y-18054714D01*
X16428809Y-18054714D02*
X16438333Y-18016619D01*
X16438333Y-18016619D02*
X16447857Y-17997571D01*
X16447857Y-17997571D02*
X16457381Y-17988048D01*
X16457381Y-17988048D02*
X16476428Y-17978524D01*
X16666905Y-17978524D02*
X16685952Y-17978524D01*
X16685952Y-17978524D02*
X16705000Y-17988048D01*
X16705000Y-17988048D02*
X16714524Y-17997571D01*
X16714524Y-17997571D02*
X16724048Y-18016619D01*
X16724048Y-18016619D02*
X16733571Y-18054714D01*
X16733571Y-18054714D02*
X16733571Y-18102333D01*
X16733571Y-18102333D02*
X16724048Y-18140429D01*
X16724048Y-18140429D02*
X16714524Y-18159476D01*
X16714524Y-18159476D02*
X16705000Y-18169000D01*
X16705000Y-18169000D02*
X16685952Y-18178524D01*
X16685952Y-18178524D02*
X16666905Y-18178524D01*
X16666905Y-18178524D02*
X16647857Y-18169000D01*
X16647857Y-18169000D02*
X16638333Y-18159476D01*
X16638333Y-18159476D02*
X16628809Y-18140429D01*
X16628809Y-18140429D02*
X16619286Y-18102333D01*
X16619286Y-18102333D02*
X16619286Y-18054714D01*
X16619286Y-18054714D02*
X16628809Y-18016619D01*
X16628809Y-18016619D02*
X16638333Y-17997571D01*
X16638333Y-17997571D02*
X16647857Y-17988048D01*
X16647857Y-17988048D02*
X16666905Y-17978524D01*
X16857381Y-17978524D02*
X16876429Y-17978524D01*
X16876429Y-17978524D02*
X16895476Y-17988048D01*
X16895476Y-17988048D02*
X16905000Y-17997571D01*
X16905000Y-17997571D02*
X16914524Y-18016619D01*
X16914524Y-18016619D02*
X16924048Y-18054714D01*
X16924048Y-18054714D02*
X16924048Y-18102333D01*
X16924048Y-18102333D02*
X16914524Y-18140429D01*
X16914524Y-18140429D02*
X16905000Y-18159476D01*
X16905000Y-18159476D02*
X16895476Y-18169000D01*
X16895476Y-18169000D02*
X16876429Y-18178524D01*
X16876429Y-18178524D02*
X16857381Y-18178524D01*
X16857381Y-18178524D02*
X16838333Y-18169000D01*
X16838333Y-18169000D02*
X16828810Y-18159476D01*
X16828810Y-18159476D02*
X16819286Y-18140429D01*
X16819286Y-18140429D02*
X16809762Y-18102333D01*
X16809762Y-18102333D02*
X16809762Y-18054714D01*
X16809762Y-18054714D02*
X16819286Y-18016619D01*
X16819286Y-18016619D02*
X16828810Y-17997571D01*
X16828810Y-17997571D02*
X16838333Y-17988048D01*
X16838333Y-17988048D02*
X16857381Y-17978524D01*
X17009762Y-18178524D02*
X17009762Y-18045190D01*
X17009762Y-18064238D02*
X17019286Y-18054714D01*
X17019286Y-18054714D02*
X17038333Y-18045190D01*
X17038333Y-18045190D02*
X17066905Y-18045190D01*
X17066905Y-18045190D02*
X17085952Y-18054714D01*
X17085952Y-18054714D02*
X17095476Y-18073762D01*
X17095476Y-18073762D02*
X17095476Y-18178524D01*
X17095476Y-18073762D02*
X17105000Y-18054714D01*
X17105000Y-18054714D02*
X17124048Y-18045190D01*
X17124048Y-18045190D02*
X17152619Y-18045190D01*
X17152619Y-18045190D02*
X17171667Y-18054714D01*
X17171667Y-18054714D02*
X17181191Y-18073762D01*
X17181191Y-18073762D02*
X17181191Y-18178524D01*
X17276429Y-18178524D02*
X17276429Y-18045190D01*
X17276429Y-18064238D02*
X17285952Y-18054714D01*
X17285952Y-18054714D02*
X17305000Y-18045190D01*
X17305000Y-18045190D02*
X17333572Y-18045190D01*
X17333572Y-18045190D02*
X17352619Y-18054714D01*
X17352619Y-18054714D02*
X17362143Y-18073762D01*
X17362143Y-18073762D02*
X17362143Y-18178524D01*
X17362143Y-18073762D02*
X17371667Y-18054714D01*
X17371667Y-18054714D02*
X17390714Y-18045190D01*
X17390714Y-18045190D02*
X17419286Y-18045190D01*
X17419286Y-18045190D02*
X17438333Y-18054714D01*
X17438333Y-18054714D02*
X17447857Y-18073762D01*
X17447857Y-18073762D02*
X17447857Y-18178524D01*
X17838333Y-17969000D02*
X17666905Y-18226143D01*
X18095476Y-17978524D02*
X18114524Y-17978524D01*
X18114524Y-17978524D02*
X18133572Y-17988048D01*
X18133572Y-17988048D02*
X18143095Y-17997571D01*
X18143095Y-17997571D02*
X18152619Y-18016619D01*
X18152619Y-18016619D02*
X18162143Y-18054714D01*
X18162143Y-18054714D02*
X18162143Y-18102333D01*
X18162143Y-18102333D02*
X18152619Y-18140429D01*
X18152619Y-18140429D02*
X18143095Y-18159476D01*
X18143095Y-18159476D02*
X18133572Y-18169000D01*
X18133572Y-18169000D02*
X18114524Y-18178524D01*
X18114524Y-18178524D02*
X18095476Y-18178524D01*
X18095476Y-18178524D02*
X18076429Y-18169000D01*
X18076429Y-18169000D02*
X18066905Y-18159476D01*
X18066905Y-18159476D02*
X18057381Y-18140429D01*
X18057381Y-18140429D02*
X18047857Y-18102333D01*
X18047857Y-18102333D02*
X18047857Y-18054714D01*
X18047857Y-18054714D02*
X18057381Y-18016619D01*
X18057381Y-18016619D02*
X18066905Y-17997571D01*
X18066905Y-17997571D02*
X18076429Y-17988048D01*
X18076429Y-17988048D02*
X18095476Y-17978524D01*
X18247857Y-18159476D02*
X18257381Y-18169000D01*
X18257381Y-18169000D02*
X18247857Y-18178524D01*
X18247857Y-18178524D02*
X18238334Y-18169000D01*
X18238334Y-18169000D02*
X18247857Y-18159476D01*
X18247857Y-18159476D02*
X18247857Y-18178524D01*
X18381191Y-17978524D02*
X18400238Y-17978524D01*
X18400238Y-17978524D02*
X18419286Y-17988048D01*
X18419286Y-17988048D02*
X18428810Y-17997571D01*
X18428810Y-17997571D02*
X18438334Y-18016619D01*
X18438334Y-18016619D02*
X18447857Y-18054714D01*
X18447857Y-18054714D02*
X18447857Y-18102333D01*
X18447857Y-18102333D02*
X18438334Y-18140429D01*
X18438334Y-18140429D02*
X18428810Y-18159476D01*
X18428810Y-18159476D02*
X18419286Y-18169000D01*
X18419286Y-18169000D02*
X18400238Y-18178524D01*
X18400238Y-18178524D02*
X18381191Y-18178524D01*
X18381191Y-18178524D02*
X18362143Y-18169000D01*
X18362143Y-18169000D02*
X18352619Y-18159476D01*
X18352619Y-18159476D02*
X18343095Y-18140429D01*
X18343095Y-18140429D02*
X18333572Y-18102333D01*
X18333572Y-18102333D02*
X18333572Y-18054714D01*
X18333572Y-18054714D02*
X18343095Y-18016619D01*
X18343095Y-18016619D02*
X18352619Y-17997571D01*
X18352619Y-17997571D02*
X18362143Y-17988048D01*
X18362143Y-17988048D02*
X18381191Y-17978524D01*
X18514524Y-17978524D02*
X18638334Y-17978524D01*
X18638334Y-17978524D02*
X18571667Y-18054714D01*
X18571667Y-18054714D02*
X18600238Y-18054714D01*
X18600238Y-18054714D02*
X18619286Y-18064238D01*
X18619286Y-18064238D02*
X18628810Y-18073762D01*
X18628810Y-18073762D02*
X18638334Y-18092810D01*
X18638334Y-18092810D02*
X18638334Y-18140429D01*
X18638334Y-18140429D02*
X18628810Y-18159476D01*
X18628810Y-18159476D02*
X18619286Y-18169000D01*
X18619286Y-18169000D02*
X18600238Y-18178524D01*
X18600238Y-18178524D02*
X18543095Y-18178524D01*
X18543095Y-18178524D02*
X18524048Y-18169000D01*
X18524048Y-18169000D02*
X18514524Y-18159476D01*
X18733572Y-18178524D02*
X18771667Y-18178524D01*
X18771667Y-18178524D02*
X18790715Y-18169000D01*
X18790715Y-18169000D02*
X18800238Y-18159476D01*
X18800238Y-18159476D02*
X18819286Y-18130905D01*
X18819286Y-18130905D02*
X18828810Y-18092810D01*
X18828810Y-18092810D02*
X18828810Y-18016619D01*
X18828810Y-18016619D02*
X18819286Y-17997571D01*
X18819286Y-17997571D02*
X18809762Y-17988048D01*
X18809762Y-17988048D02*
X18790715Y-17978524D01*
X18790715Y-17978524D02*
X18752619Y-17978524D01*
X18752619Y-17978524D02*
X18733572Y-17988048D01*
X18733572Y-17988048D02*
X18724048Y-17997571D01*
X18724048Y-17997571D02*
X18714524Y-18016619D01*
X18714524Y-18016619D02*
X18714524Y-18064238D01*
X18714524Y-18064238D02*
X18724048Y-18083286D01*
X18724048Y-18083286D02*
X18733572Y-18092810D01*
X18733572Y-18092810D02*
X18752619Y-18102333D01*
X18752619Y-18102333D02*
X18790715Y-18102333D01*
X18790715Y-18102333D02*
X18809762Y-18092810D01*
X18809762Y-18092810D02*
X18819286Y-18083286D01*
X18819286Y-18083286D02*
X18828810Y-18064238D01*
X19000238Y-18045190D02*
X19000238Y-18178524D01*
X18952619Y-17969000D02*
X18905000Y-18111857D01*
X18905000Y-18111857D02*
X19028810Y-18111857D01*
X19095476Y-17978524D02*
X19095476Y-18016619D01*
X19171667Y-17978524D02*
X19171667Y-18016619D01*
X19466905Y-18254714D02*
X19457381Y-18245190D01*
X19457381Y-18245190D02*
X19438334Y-18216619D01*
X19438334Y-18216619D02*
X19428810Y-18197571D01*
X19428810Y-18197571D02*
X19419286Y-18169000D01*
X19419286Y-18169000D02*
X19409762Y-18121381D01*
X19409762Y-18121381D02*
X19409762Y-18083286D01*
X19409762Y-18083286D02*
X19419286Y-18035667D01*
X19419286Y-18035667D02*
X19428810Y-18007095D01*
X19428810Y-18007095D02*
X19438334Y-17988048D01*
X19438334Y-17988048D02*
X19457381Y-17959476D01*
X19457381Y-17959476D02*
X19466905Y-17949952D01*
X19533572Y-17997571D02*
X19543096Y-17988048D01*
X19543096Y-17988048D02*
X19562143Y-17978524D01*
X19562143Y-17978524D02*
X19609762Y-17978524D01*
X19609762Y-17978524D02*
X19628810Y-17988048D01*
X19628810Y-17988048D02*
X19638334Y-17997571D01*
X19638334Y-17997571D02*
X19647857Y-18016619D01*
X19647857Y-18016619D02*
X19647857Y-18035667D01*
X19647857Y-18035667D02*
X19638334Y-18064238D01*
X19638334Y-18064238D02*
X19524048Y-18178524D01*
X19524048Y-18178524D02*
X19647857Y-18178524D01*
X19885953Y-18178524D02*
X19885953Y-17978524D01*
X19971667Y-18178524D02*
X19971667Y-18073762D01*
X19971667Y-18073762D02*
X19962143Y-18054714D01*
X19962143Y-18054714D02*
X19943096Y-18045190D01*
X19943096Y-18045190D02*
X19914524Y-18045190D01*
X19914524Y-18045190D02*
X19895477Y-18054714D01*
X19895477Y-18054714D02*
X19885953Y-18064238D01*
X20095477Y-18178524D02*
X20076429Y-18169000D01*
X20076429Y-18169000D02*
X20066905Y-18159476D01*
X20066905Y-18159476D02*
X20057381Y-18140429D01*
X20057381Y-18140429D02*
X20057381Y-18083286D01*
X20057381Y-18083286D02*
X20066905Y-18064238D01*
X20066905Y-18064238D02*
X20076429Y-18054714D01*
X20076429Y-18054714D02*
X20095477Y-18045190D01*
X20095477Y-18045190D02*
X20124048Y-18045190D01*
X20124048Y-18045190D02*
X20143096Y-18054714D01*
X20143096Y-18054714D02*
X20152619Y-18064238D01*
X20152619Y-18064238D02*
X20162143Y-18083286D01*
X20162143Y-18083286D02*
X20162143Y-18140429D01*
X20162143Y-18140429D02*
X20152619Y-18159476D01*
X20152619Y-18159476D02*
X20143096Y-18169000D01*
X20143096Y-18169000D02*
X20124048Y-18178524D01*
X20124048Y-18178524D02*
X20095477Y-18178524D01*
X20276429Y-18178524D02*
X20257381Y-18169000D01*
X20257381Y-18169000D02*
X20247858Y-18149952D01*
X20247858Y-18149952D02*
X20247858Y-17978524D01*
X20428810Y-18169000D02*
X20409762Y-18178524D01*
X20409762Y-18178524D02*
X20371667Y-18178524D01*
X20371667Y-18178524D02*
X20352619Y-18169000D01*
X20352619Y-18169000D02*
X20343096Y-18149952D01*
X20343096Y-18149952D02*
X20343096Y-18073762D01*
X20343096Y-18073762D02*
X20352619Y-18054714D01*
X20352619Y-18054714D02*
X20371667Y-18045190D01*
X20371667Y-18045190D02*
X20409762Y-18045190D01*
X20409762Y-18045190D02*
X20428810Y-18054714D01*
X20428810Y-18054714D02*
X20438334Y-18073762D01*
X20438334Y-18073762D02*
X20438334Y-18092810D01*
X20438334Y-18092810D02*
X20343096Y-18111857D01*
X20514524Y-18169000D02*
X20533572Y-18178524D01*
X20533572Y-18178524D02*
X20571667Y-18178524D01*
X20571667Y-18178524D02*
X20590715Y-18169000D01*
X20590715Y-18169000D02*
X20600239Y-18149952D01*
X20600239Y-18149952D02*
X20600239Y-18140429D01*
X20600239Y-18140429D02*
X20590715Y-18121381D01*
X20590715Y-18121381D02*
X20571667Y-18111857D01*
X20571667Y-18111857D02*
X20543096Y-18111857D01*
X20543096Y-18111857D02*
X20524048Y-18102333D01*
X20524048Y-18102333D02*
X20514524Y-18083286D01*
X20514524Y-18083286D02*
X20514524Y-18073762D01*
X20514524Y-18073762D02*
X20524048Y-18054714D01*
X20524048Y-18054714D02*
X20543096Y-18045190D01*
X20543096Y-18045190D02*
X20571667Y-18045190D01*
X20571667Y-18045190D02*
X20590715Y-18054714D01*
X20666905Y-18254714D02*
X20676429Y-18245190D01*
X20676429Y-18245190D02*
X20695477Y-18216619D01*
X20695477Y-18216619D02*
X20705000Y-18197571D01*
X20705000Y-18197571D02*
X20714524Y-18169000D01*
X20714524Y-18169000D02*
X20724048Y-18121381D01*
X20724048Y-18121381D02*
X20724048Y-18083286D01*
X20724048Y-18083286D02*
X20714524Y-18035667D01*
X20714524Y-18035667D02*
X20705000Y-18007095D01*
X20705000Y-18007095D02*
X20695477Y-17988048D01*
X20695477Y-17988048D02*
X20676429Y-17959476D01*
X20676429Y-17959476D02*
X20666905Y-17949952D01*
D16*
X15795000Y-18295000D02*
X15905000Y-18405000D01*
X15905000Y-18295000D02*
X15795000Y-18405000D01*
X15905000Y-18350000D02*
G75*
G03*
X15905000Y-18350000I-55000J0D01*
G01*
D11*
X16257381Y-18442524D02*
X16143095Y-18442524D01*
X16200238Y-18442524D02*
X16200238Y-18242524D01*
X16200238Y-18242524D02*
X16181190Y-18271095D01*
X16181190Y-18271095D02*
X16162143Y-18290143D01*
X16162143Y-18290143D02*
X16143095Y-18299667D01*
X16343095Y-18423476D02*
X16352619Y-18433000D01*
X16352619Y-18433000D02*
X16343095Y-18442524D01*
X16343095Y-18442524D02*
X16333571Y-18433000D01*
X16333571Y-18433000D02*
X16343095Y-18423476D01*
X16343095Y-18423476D02*
X16343095Y-18442524D01*
X16543095Y-18442524D02*
X16428809Y-18442524D01*
X16485952Y-18442524D02*
X16485952Y-18242524D01*
X16485952Y-18242524D02*
X16466905Y-18271095D01*
X16466905Y-18271095D02*
X16447857Y-18290143D01*
X16447857Y-18290143D02*
X16428809Y-18299667D01*
X16666905Y-18242524D02*
X16685952Y-18242524D01*
X16685952Y-18242524D02*
X16705000Y-18252048D01*
X16705000Y-18252048D02*
X16714524Y-18261571D01*
X16714524Y-18261571D02*
X16724048Y-18280619D01*
X16724048Y-18280619D02*
X16733571Y-18318714D01*
X16733571Y-18318714D02*
X16733571Y-18366333D01*
X16733571Y-18366333D02*
X16724048Y-18404429D01*
X16724048Y-18404429D02*
X16714524Y-18423476D01*
X16714524Y-18423476D02*
X16705000Y-18433000D01*
X16705000Y-18433000D02*
X16685952Y-18442524D01*
X16685952Y-18442524D02*
X16666905Y-18442524D01*
X16666905Y-18442524D02*
X16647857Y-18433000D01*
X16647857Y-18433000D02*
X16638333Y-18423476D01*
X16638333Y-18423476D02*
X16628809Y-18404429D01*
X16628809Y-18404429D02*
X16619286Y-18366333D01*
X16619286Y-18366333D02*
X16619286Y-18318714D01*
X16619286Y-18318714D02*
X16628809Y-18280619D01*
X16628809Y-18280619D02*
X16638333Y-18261571D01*
X16638333Y-18261571D02*
X16647857Y-18252048D01*
X16647857Y-18252048D02*
X16666905Y-18242524D01*
X16857381Y-18242524D02*
X16876429Y-18242524D01*
X16876429Y-18242524D02*
X16895476Y-18252048D01*
X16895476Y-18252048D02*
X16905000Y-18261571D01*
X16905000Y-18261571D02*
X16914524Y-18280619D01*
X16914524Y-18280619D02*
X16924048Y-18318714D01*
X16924048Y-18318714D02*
X16924048Y-18366333D01*
X16924048Y-18366333D02*
X16914524Y-18404429D01*
X16914524Y-18404429D02*
X16905000Y-18423476D01*
X16905000Y-18423476D02*
X16895476Y-18433000D01*
X16895476Y-18433000D02*
X16876429Y-18442524D01*
X16876429Y-18442524D02*
X16857381Y-18442524D01*
X16857381Y-18442524D02*
X16838333Y-18433000D01*
X16838333Y-18433000D02*
X16828810Y-18423476D01*
X16828810Y-18423476D02*
X16819286Y-18404429D01*
X16819286Y-18404429D02*
X16809762Y-18366333D01*
X16809762Y-18366333D02*
X16809762Y-18318714D01*
X16809762Y-18318714D02*
X16819286Y-18280619D01*
X16819286Y-18280619D02*
X16828810Y-18261571D01*
X16828810Y-18261571D02*
X16838333Y-18252048D01*
X16838333Y-18252048D02*
X16857381Y-18242524D01*
X17009762Y-18442524D02*
X17009762Y-18309190D01*
X17009762Y-18328238D02*
X17019286Y-18318714D01*
X17019286Y-18318714D02*
X17038333Y-18309190D01*
X17038333Y-18309190D02*
X17066905Y-18309190D01*
X17066905Y-18309190D02*
X17085952Y-18318714D01*
X17085952Y-18318714D02*
X17095476Y-18337762D01*
X17095476Y-18337762D02*
X17095476Y-18442524D01*
X17095476Y-18337762D02*
X17105000Y-18318714D01*
X17105000Y-18318714D02*
X17124048Y-18309190D01*
X17124048Y-18309190D02*
X17152619Y-18309190D01*
X17152619Y-18309190D02*
X17171667Y-18318714D01*
X17171667Y-18318714D02*
X17181191Y-18337762D01*
X17181191Y-18337762D02*
X17181191Y-18442524D01*
X17276429Y-18442524D02*
X17276429Y-18309190D01*
X17276429Y-18328238D02*
X17285952Y-18318714D01*
X17285952Y-18318714D02*
X17305000Y-18309190D01*
X17305000Y-18309190D02*
X17333572Y-18309190D01*
X17333572Y-18309190D02*
X17352619Y-18318714D01*
X17352619Y-18318714D02*
X17362143Y-18337762D01*
X17362143Y-18337762D02*
X17362143Y-18442524D01*
X17362143Y-18337762D02*
X17371667Y-18318714D01*
X17371667Y-18318714D02*
X17390714Y-18309190D01*
X17390714Y-18309190D02*
X17419286Y-18309190D01*
X17419286Y-18309190D02*
X17438333Y-18318714D01*
X17438333Y-18318714D02*
X17447857Y-18337762D01*
X17447857Y-18337762D02*
X17447857Y-18442524D01*
X17838333Y-18233000D02*
X17666905Y-18490143D01*
X18095476Y-18242524D02*
X18114524Y-18242524D01*
X18114524Y-18242524D02*
X18133572Y-18252048D01*
X18133572Y-18252048D02*
X18143095Y-18261571D01*
X18143095Y-18261571D02*
X18152619Y-18280619D01*
X18152619Y-18280619D02*
X18162143Y-18318714D01*
X18162143Y-18318714D02*
X18162143Y-18366333D01*
X18162143Y-18366333D02*
X18152619Y-18404429D01*
X18152619Y-18404429D02*
X18143095Y-18423476D01*
X18143095Y-18423476D02*
X18133572Y-18433000D01*
X18133572Y-18433000D02*
X18114524Y-18442524D01*
X18114524Y-18442524D02*
X18095476Y-18442524D01*
X18095476Y-18442524D02*
X18076429Y-18433000D01*
X18076429Y-18433000D02*
X18066905Y-18423476D01*
X18066905Y-18423476D02*
X18057381Y-18404429D01*
X18057381Y-18404429D02*
X18047857Y-18366333D01*
X18047857Y-18366333D02*
X18047857Y-18318714D01*
X18047857Y-18318714D02*
X18057381Y-18280619D01*
X18057381Y-18280619D02*
X18066905Y-18261571D01*
X18066905Y-18261571D02*
X18076429Y-18252048D01*
X18076429Y-18252048D02*
X18095476Y-18242524D01*
X18247857Y-18423476D02*
X18257381Y-18433000D01*
X18257381Y-18433000D02*
X18247857Y-18442524D01*
X18247857Y-18442524D02*
X18238334Y-18433000D01*
X18238334Y-18433000D02*
X18247857Y-18423476D01*
X18247857Y-18423476D02*
X18247857Y-18442524D01*
X18381191Y-18242524D02*
X18400238Y-18242524D01*
X18400238Y-18242524D02*
X18419286Y-18252048D01*
X18419286Y-18252048D02*
X18428810Y-18261571D01*
X18428810Y-18261571D02*
X18438334Y-18280619D01*
X18438334Y-18280619D02*
X18447857Y-18318714D01*
X18447857Y-18318714D02*
X18447857Y-18366333D01*
X18447857Y-18366333D02*
X18438334Y-18404429D01*
X18438334Y-18404429D02*
X18428810Y-18423476D01*
X18428810Y-18423476D02*
X18419286Y-18433000D01*
X18419286Y-18433000D02*
X18400238Y-18442524D01*
X18400238Y-18442524D02*
X18381191Y-18442524D01*
X18381191Y-18442524D02*
X18362143Y-18433000D01*
X18362143Y-18433000D02*
X18352619Y-18423476D01*
X18352619Y-18423476D02*
X18343095Y-18404429D01*
X18343095Y-18404429D02*
X18333572Y-18366333D01*
X18333572Y-18366333D02*
X18333572Y-18318714D01*
X18333572Y-18318714D02*
X18343095Y-18280619D01*
X18343095Y-18280619D02*
X18352619Y-18261571D01*
X18352619Y-18261571D02*
X18362143Y-18252048D01*
X18362143Y-18252048D02*
X18381191Y-18242524D01*
X18619286Y-18309190D02*
X18619286Y-18442524D01*
X18571667Y-18233000D02*
X18524048Y-18375857D01*
X18524048Y-18375857D02*
X18647857Y-18375857D01*
X18705000Y-18242524D02*
X18828810Y-18242524D01*
X18828810Y-18242524D02*
X18762143Y-18318714D01*
X18762143Y-18318714D02*
X18790715Y-18318714D01*
X18790715Y-18318714D02*
X18809762Y-18328238D01*
X18809762Y-18328238D02*
X18819286Y-18337762D01*
X18819286Y-18337762D02*
X18828810Y-18356810D01*
X18828810Y-18356810D02*
X18828810Y-18404429D01*
X18828810Y-18404429D02*
X18819286Y-18423476D01*
X18819286Y-18423476D02*
X18809762Y-18433000D01*
X18809762Y-18433000D02*
X18790715Y-18442524D01*
X18790715Y-18442524D02*
X18733572Y-18442524D01*
X18733572Y-18442524D02*
X18714524Y-18433000D01*
X18714524Y-18433000D02*
X18705000Y-18423476D01*
X18895476Y-18242524D02*
X19019286Y-18242524D01*
X19019286Y-18242524D02*
X18952619Y-18318714D01*
X18952619Y-18318714D02*
X18981191Y-18318714D01*
X18981191Y-18318714D02*
X19000238Y-18328238D01*
X19000238Y-18328238D02*
X19009762Y-18337762D01*
X19009762Y-18337762D02*
X19019286Y-18356810D01*
X19019286Y-18356810D02*
X19019286Y-18404429D01*
X19019286Y-18404429D02*
X19009762Y-18423476D01*
X19009762Y-18423476D02*
X19000238Y-18433000D01*
X19000238Y-18433000D02*
X18981191Y-18442524D01*
X18981191Y-18442524D02*
X18924048Y-18442524D01*
X18924048Y-18442524D02*
X18905000Y-18433000D01*
X18905000Y-18433000D02*
X18895476Y-18423476D01*
X19095476Y-18242524D02*
X19095476Y-18280619D01*
X19171667Y-18242524D02*
X19171667Y-18280619D01*
X19466905Y-18518714D02*
X19457381Y-18509190D01*
X19457381Y-18509190D02*
X19438334Y-18480619D01*
X19438334Y-18480619D02*
X19428810Y-18461571D01*
X19428810Y-18461571D02*
X19419286Y-18433000D01*
X19419286Y-18433000D02*
X19409762Y-18385381D01*
X19409762Y-18385381D02*
X19409762Y-18347286D01*
X19409762Y-18347286D02*
X19419286Y-18299667D01*
X19419286Y-18299667D02*
X19428810Y-18271095D01*
X19428810Y-18271095D02*
X19438334Y-18252048D01*
X19438334Y-18252048D02*
X19457381Y-18223476D01*
X19457381Y-18223476D02*
X19466905Y-18213952D01*
X19628810Y-18242524D02*
X19590715Y-18242524D01*
X19590715Y-18242524D02*
X19571667Y-18252048D01*
X19571667Y-18252048D02*
X19562143Y-18261571D01*
X19562143Y-18261571D02*
X19543096Y-18290143D01*
X19543096Y-18290143D02*
X19533572Y-18328238D01*
X19533572Y-18328238D02*
X19533572Y-18404429D01*
X19533572Y-18404429D02*
X19543096Y-18423476D01*
X19543096Y-18423476D02*
X19552619Y-18433000D01*
X19552619Y-18433000D02*
X19571667Y-18442524D01*
X19571667Y-18442524D02*
X19609762Y-18442524D01*
X19609762Y-18442524D02*
X19628810Y-18433000D01*
X19628810Y-18433000D02*
X19638334Y-18423476D01*
X19638334Y-18423476D02*
X19647857Y-18404429D01*
X19647857Y-18404429D02*
X19647857Y-18356810D01*
X19647857Y-18356810D02*
X19638334Y-18337762D01*
X19638334Y-18337762D02*
X19628810Y-18328238D01*
X19628810Y-18328238D02*
X19609762Y-18318714D01*
X19609762Y-18318714D02*
X19571667Y-18318714D01*
X19571667Y-18318714D02*
X19552619Y-18328238D01*
X19552619Y-18328238D02*
X19543096Y-18337762D01*
X19543096Y-18337762D02*
X19533572Y-18356810D01*
X19885953Y-18442524D02*
X19885953Y-18242524D01*
X19971667Y-18442524D02*
X19971667Y-18337762D01*
X19971667Y-18337762D02*
X19962143Y-18318714D01*
X19962143Y-18318714D02*
X19943096Y-18309190D01*
X19943096Y-18309190D02*
X19914524Y-18309190D01*
X19914524Y-18309190D02*
X19895477Y-18318714D01*
X19895477Y-18318714D02*
X19885953Y-18328238D01*
X20095477Y-18442524D02*
X20076429Y-18433000D01*
X20076429Y-18433000D02*
X20066905Y-18423476D01*
X20066905Y-18423476D02*
X20057381Y-18404429D01*
X20057381Y-18404429D02*
X20057381Y-18347286D01*
X20057381Y-18347286D02*
X20066905Y-18328238D01*
X20066905Y-18328238D02*
X20076429Y-18318714D01*
X20076429Y-18318714D02*
X20095477Y-18309190D01*
X20095477Y-18309190D02*
X20124048Y-18309190D01*
X20124048Y-18309190D02*
X20143096Y-18318714D01*
X20143096Y-18318714D02*
X20152619Y-18328238D01*
X20152619Y-18328238D02*
X20162143Y-18347286D01*
X20162143Y-18347286D02*
X20162143Y-18404429D01*
X20162143Y-18404429D02*
X20152619Y-18423476D01*
X20152619Y-18423476D02*
X20143096Y-18433000D01*
X20143096Y-18433000D02*
X20124048Y-18442524D01*
X20124048Y-18442524D02*
X20095477Y-18442524D01*
X20276429Y-18442524D02*
X20257381Y-18433000D01*
X20257381Y-18433000D02*
X20247858Y-18413952D01*
X20247858Y-18413952D02*
X20247858Y-18242524D01*
X20428810Y-18433000D02*
X20409762Y-18442524D01*
X20409762Y-18442524D02*
X20371667Y-18442524D01*
X20371667Y-18442524D02*
X20352619Y-18433000D01*
X20352619Y-18433000D02*
X20343096Y-18413952D01*
X20343096Y-18413952D02*
X20343096Y-18337762D01*
X20343096Y-18337762D02*
X20352619Y-18318714D01*
X20352619Y-18318714D02*
X20371667Y-18309190D01*
X20371667Y-18309190D02*
X20409762Y-18309190D01*
X20409762Y-18309190D02*
X20428810Y-18318714D01*
X20428810Y-18318714D02*
X20438334Y-18337762D01*
X20438334Y-18337762D02*
X20438334Y-18356810D01*
X20438334Y-18356810D02*
X20343096Y-18375857D01*
X20514524Y-18433000D02*
X20533572Y-18442524D01*
X20533572Y-18442524D02*
X20571667Y-18442524D01*
X20571667Y-18442524D02*
X20590715Y-18433000D01*
X20590715Y-18433000D02*
X20600239Y-18413952D01*
X20600239Y-18413952D02*
X20600239Y-18404429D01*
X20600239Y-18404429D02*
X20590715Y-18385381D01*
X20590715Y-18385381D02*
X20571667Y-18375857D01*
X20571667Y-18375857D02*
X20543096Y-18375857D01*
X20543096Y-18375857D02*
X20524048Y-18366333D01*
X20524048Y-18366333D02*
X20514524Y-18347286D01*
X20514524Y-18347286D02*
X20514524Y-18337762D01*
X20514524Y-18337762D02*
X20524048Y-18318714D01*
X20524048Y-18318714D02*
X20543096Y-18309190D01*
X20543096Y-18309190D02*
X20571667Y-18309190D01*
X20571667Y-18309190D02*
X20590715Y-18318714D01*
X20666905Y-18518714D02*
X20676429Y-18509190D01*
X20676429Y-18509190D02*
X20695477Y-18480619D01*
X20695477Y-18480619D02*
X20705000Y-18461571D01*
X20705000Y-18461571D02*
X20714524Y-18433000D01*
X20714524Y-18433000D02*
X20724048Y-18385381D01*
X20724048Y-18385381D02*
X20724048Y-18347286D01*
X20724048Y-18347286D02*
X20714524Y-18299667D01*
X20714524Y-18299667D02*
X20705000Y-18271095D01*
X20705000Y-18271095D02*
X20695477Y-18252048D01*
X20695477Y-18252048D02*
X20676429Y-18223476D01*
X20676429Y-18223476D02*
X20666905Y-18213952D01*
D17*
X15715000Y-18519000D02*
X15905000Y-18709000D01*
X15905000Y-18519000D02*
X15715000Y-18709000D01*
X15810000Y-18519000D02*
X15810000Y-18709000D01*
X15715000Y-18614000D02*
X15905000Y-18614000D01*
D11*
X16257381Y-18706524D02*
X16143095Y-18706524D01*
X16200238Y-18706524D02*
X16200238Y-18506524D01*
X16200238Y-18506524D02*
X16181190Y-18535095D01*
X16181190Y-18535095D02*
X16162143Y-18554143D01*
X16162143Y-18554143D02*
X16143095Y-18563667D01*
X16343095Y-18687476D02*
X16352619Y-18697000D01*
X16352619Y-18697000D02*
X16343095Y-18706524D01*
X16343095Y-18706524D02*
X16333571Y-18697000D01*
X16333571Y-18697000D02*
X16343095Y-18687476D01*
X16343095Y-18687476D02*
X16343095Y-18706524D01*
X16447857Y-18706524D02*
X16485952Y-18706524D01*
X16485952Y-18706524D02*
X16505000Y-18697000D01*
X16505000Y-18697000D02*
X16514524Y-18687476D01*
X16514524Y-18687476D02*
X16533571Y-18658905D01*
X16533571Y-18658905D02*
X16543095Y-18620810D01*
X16543095Y-18620810D02*
X16543095Y-18544619D01*
X16543095Y-18544619D02*
X16533571Y-18525571D01*
X16533571Y-18525571D02*
X16524048Y-18516048D01*
X16524048Y-18516048D02*
X16505000Y-18506524D01*
X16505000Y-18506524D02*
X16466905Y-18506524D01*
X16466905Y-18506524D02*
X16447857Y-18516048D01*
X16447857Y-18516048D02*
X16438333Y-18525571D01*
X16438333Y-18525571D02*
X16428809Y-18544619D01*
X16428809Y-18544619D02*
X16428809Y-18592238D01*
X16428809Y-18592238D02*
X16438333Y-18611286D01*
X16438333Y-18611286D02*
X16447857Y-18620810D01*
X16447857Y-18620810D02*
X16466905Y-18630333D01*
X16466905Y-18630333D02*
X16505000Y-18630333D01*
X16505000Y-18630333D02*
X16524048Y-18620810D01*
X16524048Y-18620810D02*
X16533571Y-18611286D01*
X16533571Y-18611286D02*
X16543095Y-18592238D01*
X16666905Y-18506524D02*
X16685952Y-18506524D01*
X16685952Y-18506524D02*
X16705000Y-18516048D01*
X16705000Y-18516048D02*
X16714524Y-18525571D01*
X16714524Y-18525571D02*
X16724048Y-18544619D01*
X16724048Y-18544619D02*
X16733571Y-18582714D01*
X16733571Y-18582714D02*
X16733571Y-18630333D01*
X16733571Y-18630333D02*
X16724048Y-18668429D01*
X16724048Y-18668429D02*
X16714524Y-18687476D01*
X16714524Y-18687476D02*
X16705000Y-18697000D01*
X16705000Y-18697000D02*
X16685952Y-18706524D01*
X16685952Y-18706524D02*
X16666905Y-18706524D01*
X16666905Y-18706524D02*
X16647857Y-18697000D01*
X16647857Y-18697000D02*
X16638333Y-18687476D01*
X16638333Y-18687476D02*
X16628809Y-18668429D01*
X16628809Y-18668429D02*
X16619286Y-18630333D01*
X16619286Y-18630333D02*
X16619286Y-18582714D01*
X16619286Y-18582714D02*
X16628809Y-18544619D01*
X16628809Y-18544619D02*
X16638333Y-18525571D01*
X16638333Y-18525571D02*
X16647857Y-18516048D01*
X16647857Y-18516048D02*
X16666905Y-18506524D01*
X16857381Y-18506524D02*
X16876429Y-18506524D01*
X16876429Y-18506524D02*
X16895476Y-18516048D01*
X16895476Y-18516048D02*
X16905000Y-18525571D01*
X16905000Y-18525571D02*
X16914524Y-18544619D01*
X16914524Y-18544619D02*
X16924048Y-18582714D01*
X16924048Y-18582714D02*
X16924048Y-18630333D01*
X16924048Y-18630333D02*
X16914524Y-18668429D01*
X16914524Y-18668429D02*
X16905000Y-18687476D01*
X16905000Y-18687476D02*
X16895476Y-18697000D01*
X16895476Y-18697000D02*
X16876429Y-18706524D01*
X16876429Y-18706524D02*
X16857381Y-18706524D01*
X16857381Y-18706524D02*
X16838333Y-18697000D01*
X16838333Y-18697000D02*
X16828810Y-18687476D01*
X16828810Y-18687476D02*
X16819286Y-18668429D01*
X16819286Y-18668429D02*
X16809762Y-18630333D01*
X16809762Y-18630333D02*
X16809762Y-18582714D01*
X16809762Y-18582714D02*
X16819286Y-18544619D01*
X16819286Y-18544619D02*
X16828810Y-18525571D01*
X16828810Y-18525571D02*
X16838333Y-18516048D01*
X16838333Y-18516048D02*
X16857381Y-18506524D01*
X17009762Y-18706524D02*
X17009762Y-18573190D01*
X17009762Y-18592238D02*
X17019286Y-18582714D01*
X17019286Y-18582714D02*
X17038333Y-18573190D01*
X17038333Y-18573190D02*
X17066905Y-18573190D01*
X17066905Y-18573190D02*
X17085952Y-18582714D01*
X17085952Y-18582714D02*
X17095476Y-18601762D01*
X17095476Y-18601762D02*
X17095476Y-18706524D01*
X17095476Y-18601762D02*
X17105000Y-18582714D01*
X17105000Y-18582714D02*
X17124048Y-18573190D01*
X17124048Y-18573190D02*
X17152619Y-18573190D01*
X17152619Y-18573190D02*
X17171667Y-18582714D01*
X17171667Y-18582714D02*
X17181191Y-18601762D01*
X17181191Y-18601762D02*
X17181191Y-18706524D01*
X17276429Y-18706524D02*
X17276429Y-18573190D01*
X17276429Y-18592238D02*
X17285952Y-18582714D01*
X17285952Y-18582714D02*
X17305000Y-18573190D01*
X17305000Y-18573190D02*
X17333572Y-18573190D01*
X17333572Y-18573190D02*
X17352619Y-18582714D01*
X17352619Y-18582714D02*
X17362143Y-18601762D01*
X17362143Y-18601762D02*
X17362143Y-18706524D01*
X17362143Y-18601762D02*
X17371667Y-18582714D01*
X17371667Y-18582714D02*
X17390714Y-18573190D01*
X17390714Y-18573190D02*
X17419286Y-18573190D01*
X17419286Y-18573190D02*
X17438333Y-18582714D01*
X17438333Y-18582714D02*
X17447857Y-18601762D01*
X17447857Y-18601762D02*
X17447857Y-18706524D01*
X17838333Y-18497000D02*
X17666905Y-18754143D01*
X18095476Y-18506524D02*
X18114524Y-18506524D01*
X18114524Y-18506524D02*
X18133572Y-18516048D01*
X18133572Y-18516048D02*
X18143095Y-18525571D01*
X18143095Y-18525571D02*
X18152619Y-18544619D01*
X18152619Y-18544619D02*
X18162143Y-18582714D01*
X18162143Y-18582714D02*
X18162143Y-18630333D01*
X18162143Y-18630333D02*
X18152619Y-18668429D01*
X18152619Y-18668429D02*
X18143095Y-18687476D01*
X18143095Y-18687476D02*
X18133572Y-18697000D01*
X18133572Y-18697000D02*
X18114524Y-18706524D01*
X18114524Y-18706524D02*
X18095476Y-18706524D01*
X18095476Y-18706524D02*
X18076429Y-18697000D01*
X18076429Y-18697000D02*
X18066905Y-18687476D01*
X18066905Y-18687476D02*
X18057381Y-18668429D01*
X18057381Y-18668429D02*
X18047857Y-18630333D01*
X18047857Y-18630333D02*
X18047857Y-18582714D01*
X18047857Y-18582714D02*
X18057381Y-18544619D01*
X18057381Y-18544619D02*
X18066905Y-18525571D01*
X18066905Y-18525571D02*
X18076429Y-18516048D01*
X18076429Y-18516048D02*
X18095476Y-18506524D01*
X18247857Y-18687476D02*
X18257381Y-18697000D01*
X18257381Y-18697000D02*
X18247857Y-18706524D01*
X18247857Y-18706524D02*
X18238334Y-18697000D01*
X18238334Y-18697000D02*
X18247857Y-18687476D01*
X18247857Y-18687476D02*
X18247857Y-18706524D01*
X18381191Y-18506524D02*
X18400238Y-18506524D01*
X18400238Y-18506524D02*
X18419286Y-18516048D01*
X18419286Y-18516048D02*
X18428810Y-18525571D01*
X18428810Y-18525571D02*
X18438334Y-18544619D01*
X18438334Y-18544619D02*
X18447857Y-18582714D01*
X18447857Y-18582714D02*
X18447857Y-18630333D01*
X18447857Y-18630333D02*
X18438334Y-18668429D01*
X18438334Y-18668429D02*
X18428810Y-18687476D01*
X18428810Y-18687476D02*
X18419286Y-18697000D01*
X18419286Y-18697000D02*
X18400238Y-18706524D01*
X18400238Y-18706524D02*
X18381191Y-18706524D01*
X18381191Y-18706524D02*
X18362143Y-18697000D01*
X18362143Y-18697000D02*
X18352619Y-18687476D01*
X18352619Y-18687476D02*
X18343095Y-18668429D01*
X18343095Y-18668429D02*
X18333572Y-18630333D01*
X18333572Y-18630333D02*
X18333572Y-18582714D01*
X18333572Y-18582714D02*
X18343095Y-18544619D01*
X18343095Y-18544619D02*
X18352619Y-18525571D01*
X18352619Y-18525571D02*
X18362143Y-18516048D01*
X18362143Y-18516048D02*
X18381191Y-18506524D01*
X18514524Y-18506524D02*
X18647857Y-18506524D01*
X18647857Y-18506524D02*
X18562143Y-18706524D01*
X18809762Y-18573190D02*
X18809762Y-18706524D01*
X18762143Y-18497000D02*
X18714524Y-18639857D01*
X18714524Y-18639857D02*
X18838334Y-18639857D01*
X18943095Y-18592238D02*
X18924048Y-18582714D01*
X18924048Y-18582714D02*
X18914524Y-18573190D01*
X18914524Y-18573190D02*
X18905000Y-18554143D01*
X18905000Y-18554143D02*
X18905000Y-18544619D01*
X18905000Y-18544619D02*
X18914524Y-18525571D01*
X18914524Y-18525571D02*
X18924048Y-18516048D01*
X18924048Y-18516048D02*
X18943095Y-18506524D01*
X18943095Y-18506524D02*
X18981191Y-18506524D01*
X18981191Y-18506524D02*
X19000238Y-18516048D01*
X19000238Y-18516048D02*
X19009762Y-18525571D01*
X19009762Y-18525571D02*
X19019286Y-18544619D01*
X19019286Y-18544619D02*
X19019286Y-18554143D01*
X19019286Y-18554143D02*
X19009762Y-18573190D01*
X19009762Y-18573190D02*
X19000238Y-18582714D01*
X19000238Y-18582714D02*
X18981191Y-18592238D01*
X18981191Y-18592238D02*
X18943095Y-18592238D01*
X18943095Y-18592238D02*
X18924048Y-18601762D01*
X18924048Y-18601762D02*
X18914524Y-18611286D01*
X18914524Y-18611286D02*
X18905000Y-18630333D01*
X18905000Y-18630333D02*
X18905000Y-18668429D01*
X18905000Y-18668429D02*
X18914524Y-18687476D01*
X18914524Y-18687476D02*
X18924048Y-18697000D01*
X18924048Y-18697000D02*
X18943095Y-18706524D01*
X18943095Y-18706524D02*
X18981191Y-18706524D01*
X18981191Y-18706524D02*
X19000238Y-18697000D01*
X19000238Y-18697000D02*
X19009762Y-18687476D01*
X19009762Y-18687476D02*
X19019286Y-18668429D01*
X19019286Y-18668429D02*
X19019286Y-18630333D01*
X19019286Y-18630333D02*
X19009762Y-18611286D01*
X19009762Y-18611286D02*
X19000238Y-18601762D01*
X19000238Y-18601762D02*
X18981191Y-18592238D01*
X19095476Y-18506524D02*
X19095476Y-18544619D01*
X19171667Y-18506524D02*
X19171667Y-18544619D01*
X19466905Y-18782714D02*
X19457381Y-18773190D01*
X19457381Y-18773190D02*
X19438334Y-18744619D01*
X19438334Y-18744619D02*
X19428810Y-18725571D01*
X19428810Y-18725571D02*
X19419286Y-18697000D01*
X19419286Y-18697000D02*
X19409762Y-18649381D01*
X19409762Y-18649381D02*
X19409762Y-18611286D01*
X19409762Y-18611286D02*
X19419286Y-18563667D01*
X19419286Y-18563667D02*
X19428810Y-18535095D01*
X19428810Y-18535095D02*
X19438334Y-18516048D01*
X19438334Y-18516048D02*
X19457381Y-18487476D01*
X19457381Y-18487476D02*
X19466905Y-18477952D01*
X19533572Y-18525571D02*
X19543096Y-18516048D01*
X19543096Y-18516048D02*
X19562143Y-18506524D01*
X19562143Y-18506524D02*
X19609762Y-18506524D01*
X19609762Y-18506524D02*
X19628810Y-18516048D01*
X19628810Y-18516048D02*
X19638334Y-18525571D01*
X19638334Y-18525571D02*
X19647857Y-18544619D01*
X19647857Y-18544619D02*
X19647857Y-18563667D01*
X19647857Y-18563667D02*
X19638334Y-18592238D01*
X19638334Y-18592238D02*
X19524048Y-18706524D01*
X19524048Y-18706524D02*
X19647857Y-18706524D01*
X19885953Y-18706524D02*
X19885953Y-18506524D01*
X19971667Y-18706524D02*
X19971667Y-18601762D01*
X19971667Y-18601762D02*
X19962143Y-18582714D01*
X19962143Y-18582714D02*
X19943096Y-18573190D01*
X19943096Y-18573190D02*
X19914524Y-18573190D01*
X19914524Y-18573190D02*
X19895477Y-18582714D01*
X19895477Y-18582714D02*
X19885953Y-18592238D01*
X20095477Y-18706524D02*
X20076429Y-18697000D01*
X20076429Y-18697000D02*
X20066905Y-18687476D01*
X20066905Y-18687476D02*
X20057381Y-18668429D01*
X20057381Y-18668429D02*
X20057381Y-18611286D01*
X20057381Y-18611286D02*
X20066905Y-18592238D01*
X20066905Y-18592238D02*
X20076429Y-18582714D01*
X20076429Y-18582714D02*
X20095477Y-18573190D01*
X20095477Y-18573190D02*
X20124048Y-18573190D01*
X20124048Y-18573190D02*
X20143096Y-18582714D01*
X20143096Y-18582714D02*
X20152619Y-18592238D01*
X20152619Y-18592238D02*
X20162143Y-18611286D01*
X20162143Y-18611286D02*
X20162143Y-18668429D01*
X20162143Y-18668429D02*
X20152619Y-18687476D01*
X20152619Y-18687476D02*
X20143096Y-18697000D01*
X20143096Y-18697000D02*
X20124048Y-18706524D01*
X20124048Y-18706524D02*
X20095477Y-18706524D01*
X20276429Y-18706524D02*
X20257381Y-18697000D01*
X20257381Y-18697000D02*
X20247858Y-18677952D01*
X20247858Y-18677952D02*
X20247858Y-18506524D01*
X20428810Y-18697000D02*
X20409762Y-18706524D01*
X20409762Y-18706524D02*
X20371667Y-18706524D01*
X20371667Y-18706524D02*
X20352619Y-18697000D01*
X20352619Y-18697000D02*
X20343096Y-18677952D01*
X20343096Y-18677952D02*
X20343096Y-18601762D01*
X20343096Y-18601762D02*
X20352619Y-18582714D01*
X20352619Y-18582714D02*
X20371667Y-18573190D01*
X20371667Y-18573190D02*
X20409762Y-18573190D01*
X20409762Y-18573190D02*
X20428810Y-18582714D01*
X20428810Y-18582714D02*
X20438334Y-18601762D01*
X20438334Y-18601762D02*
X20438334Y-18620810D01*
X20438334Y-18620810D02*
X20343096Y-18639857D01*
X20514524Y-18697000D02*
X20533572Y-18706524D01*
X20533572Y-18706524D02*
X20571667Y-18706524D01*
X20571667Y-18706524D02*
X20590715Y-18697000D01*
X20590715Y-18697000D02*
X20600239Y-18677952D01*
X20600239Y-18677952D02*
X20600239Y-18668429D01*
X20600239Y-18668429D02*
X20590715Y-18649381D01*
X20590715Y-18649381D02*
X20571667Y-18639857D01*
X20571667Y-18639857D02*
X20543096Y-18639857D01*
X20543096Y-18639857D02*
X20524048Y-18630333D01*
X20524048Y-18630333D02*
X20514524Y-18611286D01*
X20514524Y-18611286D02*
X20514524Y-18601762D01*
X20514524Y-18601762D02*
X20524048Y-18582714D01*
X20524048Y-18582714D02*
X20543096Y-18573190D01*
X20543096Y-18573190D02*
X20571667Y-18573190D01*
X20571667Y-18573190D02*
X20590715Y-18582714D01*
X20666905Y-18782714D02*
X20676429Y-18773190D01*
X20676429Y-18773190D02*
X20695477Y-18744619D01*
X20695477Y-18744619D02*
X20705000Y-18725571D01*
X20705000Y-18725571D02*
X20714524Y-18697000D01*
X20714524Y-18697000D02*
X20724048Y-18649381D01*
X20724048Y-18649381D02*
X20724048Y-18611286D01*
X20724048Y-18611286D02*
X20714524Y-18563667D01*
X20714524Y-18563667D02*
X20705000Y-18535095D01*
X20705000Y-18535095D02*
X20695477Y-18516048D01*
X20695477Y-18516048D02*
X20676429Y-18487476D01*
X20676429Y-18487476D02*
X20666905Y-18477952D01*
X15705000Y-18824000D02*
X15905000Y-19024000D01*
X15905000Y-18824000D02*
X15705000Y-19024000D01*
X15875711Y-18994711D02*
X15875711Y-18853289D01*
X15734289Y-18853289D01*
X15734289Y-18994711D01*
X15875711Y-18994711D01*
X16133571Y-18816524D02*
X16257381Y-18816524D01*
X16257381Y-18816524D02*
X16190714Y-18892714D01*
X16190714Y-18892714D02*
X16219286Y-18892714D01*
X16219286Y-18892714D02*
X16238333Y-18902238D01*
X16238333Y-18902238D02*
X16247857Y-18911762D01*
X16247857Y-18911762D02*
X16257381Y-18930810D01*
X16257381Y-18930810D02*
X16257381Y-18978429D01*
X16257381Y-18978429D02*
X16247857Y-18997476D01*
X16247857Y-18997476D02*
X16238333Y-19007000D01*
X16238333Y-19007000D02*
X16219286Y-19016524D01*
X16219286Y-19016524D02*
X16162143Y-19016524D01*
X16162143Y-19016524D02*
X16143095Y-19007000D01*
X16143095Y-19007000D02*
X16133571Y-18997476D01*
X16343095Y-18997476D02*
X16352619Y-19007000D01*
X16352619Y-19007000D02*
X16343095Y-19016524D01*
X16343095Y-19016524D02*
X16333571Y-19007000D01*
X16333571Y-19007000D02*
X16343095Y-18997476D01*
X16343095Y-18997476D02*
X16343095Y-19016524D01*
X16428809Y-18835571D02*
X16438333Y-18826048D01*
X16438333Y-18826048D02*
X16457381Y-18816524D01*
X16457381Y-18816524D02*
X16505000Y-18816524D01*
X16505000Y-18816524D02*
X16524048Y-18826048D01*
X16524048Y-18826048D02*
X16533571Y-18835571D01*
X16533571Y-18835571D02*
X16543095Y-18854619D01*
X16543095Y-18854619D02*
X16543095Y-18873667D01*
X16543095Y-18873667D02*
X16533571Y-18902238D01*
X16533571Y-18902238D02*
X16419286Y-19016524D01*
X16419286Y-19016524D02*
X16543095Y-19016524D01*
X16666905Y-18816524D02*
X16685952Y-18816524D01*
X16685952Y-18816524D02*
X16705000Y-18826048D01*
X16705000Y-18826048D02*
X16714524Y-18835571D01*
X16714524Y-18835571D02*
X16724048Y-18854619D01*
X16724048Y-18854619D02*
X16733571Y-18892714D01*
X16733571Y-18892714D02*
X16733571Y-18940333D01*
X16733571Y-18940333D02*
X16724048Y-18978429D01*
X16724048Y-18978429D02*
X16714524Y-18997476D01*
X16714524Y-18997476D02*
X16705000Y-19007000D01*
X16705000Y-19007000D02*
X16685952Y-19016524D01*
X16685952Y-19016524D02*
X16666905Y-19016524D01*
X16666905Y-19016524D02*
X16647857Y-19007000D01*
X16647857Y-19007000D02*
X16638333Y-18997476D01*
X16638333Y-18997476D02*
X16628809Y-18978429D01*
X16628809Y-18978429D02*
X16619286Y-18940333D01*
X16619286Y-18940333D02*
X16619286Y-18892714D01*
X16619286Y-18892714D02*
X16628809Y-18854619D01*
X16628809Y-18854619D02*
X16638333Y-18835571D01*
X16638333Y-18835571D02*
X16647857Y-18826048D01*
X16647857Y-18826048D02*
X16666905Y-18816524D01*
X16857381Y-18816524D02*
X16876429Y-18816524D01*
X16876429Y-18816524D02*
X16895476Y-18826048D01*
X16895476Y-18826048D02*
X16905000Y-18835571D01*
X16905000Y-18835571D02*
X16914524Y-18854619D01*
X16914524Y-18854619D02*
X16924048Y-18892714D01*
X16924048Y-18892714D02*
X16924048Y-18940333D01*
X16924048Y-18940333D02*
X16914524Y-18978429D01*
X16914524Y-18978429D02*
X16905000Y-18997476D01*
X16905000Y-18997476D02*
X16895476Y-19007000D01*
X16895476Y-19007000D02*
X16876429Y-19016524D01*
X16876429Y-19016524D02*
X16857381Y-19016524D01*
X16857381Y-19016524D02*
X16838333Y-19007000D01*
X16838333Y-19007000D02*
X16828810Y-18997476D01*
X16828810Y-18997476D02*
X16819286Y-18978429D01*
X16819286Y-18978429D02*
X16809762Y-18940333D01*
X16809762Y-18940333D02*
X16809762Y-18892714D01*
X16809762Y-18892714D02*
X16819286Y-18854619D01*
X16819286Y-18854619D02*
X16828810Y-18835571D01*
X16828810Y-18835571D02*
X16838333Y-18826048D01*
X16838333Y-18826048D02*
X16857381Y-18816524D01*
X17009762Y-19016524D02*
X17009762Y-18883190D01*
X17009762Y-18902238D02*
X17019286Y-18892714D01*
X17019286Y-18892714D02*
X17038333Y-18883190D01*
X17038333Y-18883190D02*
X17066905Y-18883190D01*
X17066905Y-18883190D02*
X17085952Y-18892714D01*
X17085952Y-18892714D02*
X17095476Y-18911762D01*
X17095476Y-18911762D02*
X17095476Y-19016524D01*
X17095476Y-18911762D02*
X17105000Y-18892714D01*
X17105000Y-18892714D02*
X17124048Y-18883190D01*
X17124048Y-18883190D02*
X17152619Y-18883190D01*
X17152619Y-18883190D02*
X17171667Y-18892714D01*
X17171667Y-18892714D02*
X17181191Y-18911762D01*
X17181191Y-18911762D02*
X17181191Y-19016524D01*
X17276429Y-19016524D02*
X17276429Y-18883190D01*
X17276429Y-18902238D02*
X17285952Y-18892714D01*
X17285952Y-18892714D02*
X17305000Y-18883190D01*
X17305000Y-18883190D02*
X17333572Y-18883190D01*
X17333572Y-18883190D02*
X17352619Y-18892714D01*
X17352619Y-18892714D02*
X17362143Y-18911762D01*
X17362143Y-18911762D02*
X17362143Y-19016524D01*
X17362143Y-18911762D02*
X17371667Y-18892714D01*
X17371667Y-18892714D02*
X17390714Y-18883190D01*
X17390714Y-18883190D02*
X17419286Y-18883190D01*
X17419286Y-18883190D02*
X17438333Y-18892714D01*
X17438333Y-18892714D02*
X17447857Y-18911762D01*
X17447857Y-18911762D02*
X17447857Y-19016524D01*
X17838333Y-18807000D02*
X17666905Y-19064143D01*
X18095476Y-18816524D02*
X18114524Y-18816524D01*
X18114524Y-18816524D02*
X18133572Y-18826048D01*
X18133572Y-18826048D02*
X18143095Y-18835571D01*
X18143095Y-18835571D02*
X18152619Y-18854619D01*
X18152619Y-18854619D02*
X18162143Y-18892714D01*
X18162143Y-18892714D02*
X18162143Y-18940333D01*
X18162143Y-18940333D02*
X18152619Y-18978429D01*
X18152619Y-18978429D02*
X18143095Y-18997476D01*
X18143095Y-18997476D02*
X18133572Y-19007000D01*
X18133572Y-19007000D02*
X18114524Y-19016524D01*
X18114524Y-19016524D02*
X18095476Y-19016524D01*
X18095476Y-19016524D02*
X18076429Y-19007000D01*
X18076429Y-19007000D02*
X18066905Y-18997476D01*
X18066905Y-18997476D02*
X18057381Y-18978429D01*
X18057381Y-18978429D02*
X18047857Y-18940333D01*
X18047857Y-18940333D02*
X18047857Y-18892714D01*
X18047857Y-18892714D02*
X18057381Y-18854619D01*
X18057381Y-18854619D02*
X18066905Y-18835571D01*
X18066905Y-18835571D02*
X18076429Y-18826048D01*
X18076429Y-18826048D02*
X18095476Y-18816524D01*
X18247857Y-18997476D02*
X18257381Y-19007000D01*
X18257381Y-19007000D02*
X18247857Y-19016524D01*
X18247857Y-19016524D02*
X18238334Y-19007000D01*
X18238334Y-19007000D02*
X18247857Y-18997476D01*
X18247857Y-18997476D02*
X18247857Y-19016524D01*
X18447857Y-19016524D02*
X18333572Y-19016524D01*
X18390714Y-19016524D02*
X18390714Y-18816524D01*
X18390714Y-18816524D02*
X18371667Y-18845095D01*
X18371667Y-18845095D02*
X18352619Y-18864143D01*
X18352619Y-18864143D02*
X18333572Y-18873667D01*
X18524048Y-18835571D02*
X18533572Y-18826048D01*
X18533572Y-18826048D02*
X18552619Y-18816524D01*
X18552619Y-18816524D02*
X18600238Y-18816524D01*
X18600238Y-18816524D02*
X18619286Y-18826048D01*
X18619286Y-18826048D02*
X18628810Y-18835571D01*
X18628810Y-18835571D02*
X18638334Y-18854619D01*
X18638334Y-18854619D02*
X18638334Y-18873667D01*
X18638334Y-18873667D02*
X18628810Y-18902238D01*
X18628810Y-18902238D02*
X18514524Y-19016524D01*
X18514524Y-19016524D02*
X18638334Y-19016524D01*
X18809762Y-18816524D02*
X18771667Y-18816524D01*
X18771667Y-18816524D02*
X18752619Y-18826048D01*
X18752619Y-18826048D02*
X18743095Y-18835571D01*
X18743095Y-18835571D02*
X18724048Y-18864143D01*
X18724048Y-18864143D02*
X18714524Y-18902238D01*
X18714524Y-18902238D02*
X18714524Y-18978429D01*
X18714524Y-18978429D02*
X18724048Y-18997476D01*
X18724048Y-18997476D02*
X18733572Y-19007000D01*
X18733572Y-19007000D02*
X18752619Y-19016524D01*
X18752619Y-19016524D02*
X18790715Y-19016524D01*
X18790715Y-19016524D02*
X18809762Y-19007000D01*
X18809762Y-19007000D02*
X18819286Y-18997476D01*
X18819286Y-18997476D02*
X18828810Y-18978429D01*
X18828810Y-18978429D02*
X18828810Y-18930810D01*
X18828810Y-18930810D02*
X18819286Y-18911762D01*
X18819286Y-18911762D02*
X18809762Y-18902238D01*
X18809762Y-18902238D02*
X18790715Y-18892714D01*
X18790715Y-18892714D02*
X18752619Y-18892714D01*
X18752619Y-18892714D02*
X18733572Y-18902238D01*
X18733572Y-18902238D02*
X18724048Y-18911762D01*
X18724048Y-18911762D02*
X18714524Y-18930810D01*
X18952619Y-18816524D02*
X18971667Y-18816524D01*
X18971667Y-18816524D02*
X18990715Y-18826048D01*
X18990715Y-18826048D02*
X19000238Y-18835571D01*
X19000238Y-18835571D02*
X19009762Y-18854619D01*
X19009762Y-18854619D02*
X19019286Y-18892714D01*
X19019286Y-18892714D02*
X19019286Y-18940333D01*
X19019286Y-18940333D02*
X19009762Y-18978429D01*
X19009762Y-18978429D02*
X19000238Y-18997476D01*
X19000238Y-18997476D02*
X18990715Y-19007000D01*
X18990715Y-19007000D02*
X18971667Y-19016524D01*
X18971667Y-19016524D02*
X18952619Y-19016524D01*
X18952619Y-19016524D02*
X18933572Y-19007000D01*
X18933572Y-19007000D02*
X18924048Y-18997476D01*
X18924048Y-18997476D02*
X18914524Y-18978429D01*
X18914524Y-18978429D02*
X18905000Y-18940333D01*
X18905000Y-18940333D02*
X18905000Y-18892714D01*
X18905000Y-18892714D02*
X18914524Y-18854619D01*
X18914524Y-18854619D02*
X18924048Y-18835571D01*
X18924048Y-18835571D02*
X18933572Y-18826048D01*
X18933572Y-18826048D02*
X18952619Y-18816524D01*
X19095476Y-18816524D02*
X19095476Y-18854619D01*
X19171667Y-18816524D02*
X19171667Y-18854619D01*
X19466905Y-19092714D02*
X19457381Y-19083190D01*
X19457381Y-19083190D02*
X19438334Y-19054619D01*
X19438334Y-19054619D02*
X19428810Y-19035571D01*
X19428810Y-19035571D02*
X19419286Y-19007000D01*
X19419286Y-19007000D02*
X19409762Y-18959381D01*
X19409762Y-18959381D02*
X19409762Y-18921286D01*
X19409762Y-18921286D02*
X19419286Y-18873667D01*
X19419286Y-18873667D02*
X19428810Y-18845095D01*
X19428810Y-18845095D02*
X19438334Y-18826048D01*
X19438334Y-18826048D02*
X19457381Y-18797476D01*
X19457381Y-18797476D02*
X19466905Y-18787952D01*
X19628810Y-18883190D02*
X19628810Y-19016524D01*
X19581191Y-18807000D02*
X19533572Y-18949857D01*
X19533572Y-18949857D02*
X19657381Y-18949857D01*
X19885953Y-19016524D02*
X19885953Y-18816524D01*
X19971667Y-19016524D02*
X19971667Y-18911762D01*
X19971667Y-18911762D02*
X19962143Y-18892714D01*
X19962143Y-18892714D02*
X19943096Y-18883190D01*
X19943096Y-18883190D02*
X19914524Y-18883190D01*
X19914524Y-18883190D02*
X19895477Y-18892714D01*
X19895477Y-18892714D02*
X19885953Y-18902238D01*
X20095477Y-19016524D02*
X20076429Y-19007000D01*
X20076429Y-19007000D02*
X20066905Y-18997476D01*
X20066905Y-18997476D02*
X20057381Y-18978429D01*
X20057381Y-18978429D02*
X20057381Y-18921286D01*
X20057381Y-18921286D02*
X20066905Y-18902238D01*
X20066905Y-18902238D02*
X20076429Y-18892714D01*
X20076429Y-18892714D02*
X20095477Y-18883190D01*
X20095477Y-18883190D02*
X20124048Y-18883190D01*
X20124048Y-18883190D02*
X20143096Y-18892714D01*
X20143096Y-18892714D02*
X20152619Y-18902238D01*
X20152619Y-18902238D02*
X20162143Y-18921286D01*
X20162143Y-18921286D02*
X20162143Y-18978429D01*
X20162143Y-18978429D02*
X20152619Y-18997476D01*
X20152619Y-18997476D02*
X20143096Y-19007000D01*
X20143096Y-19007000D02*
X20124048Y-19016524D01*
X20124048Y-19016524D02*
X20095477Y-19016524D01*
X20276429Y-19016524D02*
X20257381Y-19007000D01*
X20257381Y-19007000D02*
X20247858Y-18987952D01*
X20247858Y-18987952D02*
X20247858Y-18816524D01*
X20428810Y-19007000D02*
X20409762Y-19016524D01*
X20409762Y-19016524D02*
X20371667Y-19016524D01*
X20371667Y-19016524D02*
X20352619Y-19007000D01*
X20352619Y-19007000D02*
X20343096Y-18987952D01*
X20343096Y-18987952D02*
X20343096Y-18911762D01*
X20343096Y-18911762D02*
X20352619Y-18892714D01*
X20352619Y-18892714D02*
X20371667Y-18883190D01*
X20371667Y-18883190D02*
X20409762Y-18883190D01*
X20409762Y-18883190D02*
X20428810Y-18892714D01*
X20428810Y-18892714D02*
X20438334Y-18911762D01*
X20438334Y-18911762D02*
X20438334Y-18930810D01*
X20438334Y-18930810D02*
X20343096Y-18949857D01*
X20514524Y-19007000D02*
X20533572Y-19016524D01*
X20533572Y-19016524D02*
X20571667Y-19016524D01*
X20571667Y-19016524D02*
X20590715Y-19007000D01*
X20590715Y-19007000D02*
X20600239Y-18987952D01*
X20600239Y-18987952D02*
X20600239Y-18978429D01*
X20600239Y-18978429D02*
X20590715Y-18959381D01*
X20590715Y-18959381D02*
X20571667Y-18949857D01*
X20571667Y-18949857D02*
X20543096Y-18949857D01*
X20543096Y-18949857D02*
X20524048Y-18940333D01*
X20524048Y-18940333D02*
X20514524Y-18921286D01*
X20514524Y-18921286D02*
X20514524Y-18911762D01*
X20514524Y-18911762D02*
X20524048Y-18892714D01*
X20524048Y-18892714D02*
X20543096Y-18883190D01*
X20543096Y-18883190D02*
X20571667Y-18883190D01*
X20571667Y-18883190D02*
X20590715Y-18892714D01*
X20666905Y-19092714D02*
X20676429Y-19083190D01*
X20676429Y-19083190D02*
X20695477Y-19054619D01*
X20695477Y-19054619D02*
X20705000Y-19035571D01*
X20705000Y-19035571D02*
X20714524Y-19007000D01*
X20714524Y-19007000D02*
X20724048Y-18959381D01*
X20724048Y-18959381D02*
X20724048Y-18921286D01*
X20724048Y-18921286D02*
X20714524Y-18873667D01*
X20714524Y-18873667D02*
X20705000Y-18845095D01*
X20705000Y-18845095D02*
X20695477Y-18826048D01*
X20695477Y-18826048D02*
X20676429Y-18797476D01*
X20676429Y-18797476D02*
X20666905Y-18787952D01*
M02*
